<?xml version="1.0" encoding="utf-8" standalone="no"?>
<!DOCTYPE svg PUBLIC "-//W3C//DTD SVG 1.1//EN"
  "http://www.w3.org/Graphics/SVG/1.1/DTD/svg11.dtd">
<svg xmlns:xlink="http://www.w3.org/1999/xlink" width="576pt" height="432pt" viewBox="0 0 576 432" xmlns="http://www.w3.org/2000/svg" version="1.1">
 <metadata>
  <rdf:RDF xmlns:dc="http://purl.org/dc/elements/1.1/" xmlns:cc="http://creativecommons.org/ns#" xmlns:rdf="http://www.w3.org/1999/02/22-rdf-syntax-ns#">
   <cc:Work>
    <dc:type rdf:resource="http://purl.org/dc/dcmitype/StillImage"/>
    <dc:date>2022-05-27T14:42:58.800875</dc:date>
    <dc:format>image/svg+xml</dc:format>
    <dc:creator>
     <cc:Agent>
      <dc:title>Matplotlib v3.5.1, https://matplotlib.org/</dc:title>
     </cc:Agent>
    </dc:creator>
   </cc:Work>
  </rdf:RDF>
 </metadata>
 <defs>
  <style type="text/css">*{stroke-linejoin: round; stroke-linecap: butt}</style>
 </defs>
 <g id="figure_1">
  <g id="patch_1">
   <path d="M 0 432 
L 576 432 
L 576 0 
L 0 0 
L 0 432 
z
" style="fill: none"/>
  </g>
  <g id="axes_1">
   <g id="patch_2">
    <path d="M 86.4 367.2 
L 547.2 367.2 
L 547.2 43.2 
L 86.4 43.2 
L 86.4 367.2 
z
" style="fill: none"/>
   </g>
   <g id="PolyCollection_1">
    <path d="M 151.563636 43.2 
L 151.563636 36259.2 
L 314.472727 36259.2 
L 314.472727 43.2 
L 314.472727 43.2 
L 151.563636 43.2 
z
" clip-path="url(#p7b93bcea5b)" style="fill: #1f77b4; fill-opacity: 0.5"/>
   </g>
   <g id="matplotlib.axis_1">
    <g id="xtick_1">
     <g id="line2d_1">
      <path d="M 174.836364 367.2 
L 174.836364 43.2 
" clip-path="url(#p7b93bcea5b)" style="fill: none; stroke: #b0b0b0; stroke-width: 0.8; stroke-linecap: square"/>
     </g>
     <g id="line2d_2">
      <defs>
       <path id="m38305d3a46" d="M 0 0 
L 0 3.5 
" style="stroke: #000000; stroke-width: 0.8"/>
      </defs>
      <g>
       <use xlink:href="#m38305d3a46" x="174.836364" y="367.2" style="stroke: #000000; stroke-width: 0.8"/>
      </g>
     </g>
     <g id="text_1">
      <!-- $\mathdefault{0.2}$ -->
      <g transform="translate(162.988551 388.036997)scale(0.2 -0.2)">
       <defs>
        <path id="CMR17-30" d="M 2688 2038 
C 2688 2430 2682 3099 2413 3613 
C 2176 4063 1798 4224 1466 4224 
C 1158 4224 768 4082 525 3620 
C 269 3137 243 2539 243 2038 
C 243 1671 250 1112 448 623 
C 723 -39 1216 -128 1466 -128 
C 1760 -128 2208 -7 2470 604 
C 2662 1048 2688 1568 2688 2038 
z
M 1466 -26 
C 1056 -26 813 328 723 816 
C 653 1196 653 1749 653 2109 
C 653 2604 653 3015 736 3407 
C 858 3954 1216 4121 1466 4121 
C 1728 4121 2067 3947 2189 3420 
C 2272 3054 2278 2623 2278 2109 
C 2278 1691 2278 1176 2202 797 
C 2067 96 1690 -26 1466 -26 
z
" transform="scale(0.015625)"/>
        <path id="CMMI12-3a" d="M 1178 307 
C 1178 492 1024 620 870 620 
C 685 620 557 467 557 313 
C 557 128 710 0 864 0 
C 1050 0 1178 153 1178 307 
z
" transform="scale(0.015625)"/>
        <path id="CMR17-32" d="M 2669 990 
L 2554 990 
C 2490 537 2438 460 2413 422 
C 2381 371 1920 371 1830 371 
L 602 371 
C 832 620 1280 1073 1824 1596 
C 2214 1966 2669 2400 2669 3033 
C 2669 3788 2067 4224 1395 4224 
C 691 4224 262 3603 262 3027 
C 262 2777 448 2745 525 2745 
C 589 2745 781 2783 781 3007 
C 781 3206 614 3264 525 3264 
C 486 3264 448 3257 422 3244 
C 544 3788 915 4057 1306 4057 
C 1862 4057 2227 3616 2227 3033 
C 2227 2477 1901 1998 1536 1583 
L 262 147 
L 262 0 
L 2515 0 
L 2669 990 
z
" transform="scale(0.015625)"/>
       </defs>
       <use xlink:href="#CMR17-30" transform="scale(0.996264)"/>
       <use xlink:href="#CMMI12-3a" transform="translate(45.690477 0)scale(0.996264)"/>
       <use xlink:href="#CMR17-32" transform="translate(72.787654 0)scale(0.996264)"/>
      </g>
     </g>
    </g>
    <g id="xtick_2">
     <g id="line2d_3">
      <path d="M 267.927273 367.2 
L 267.927273 43.2 
" clip-path="url(#p7b93bcea5b)" style="fill: none; stroke: #b0b0b0; stroke-width: 0.8; stroke-linecap: square"/>
     </g>
     <g id="line2d_4">
      <g>
       <use xlink:href="#m38305d3a46" x="267.927273" y="367.2" style="stroke: #000000; stroke-width: 0.8"/>
      </g>
     </g>
     <g id="text_2">
      <!-- $\mathdefault{0.4}$ -->
      <g transform="translate(256.07946 388.036997)scale(0.2 -0.2)">
       <defs>
        <path id="CMR17-34" d="M 2150 4147 
C 2150 4281 2144 4288 2029 4288 
L 128 1254 
L 128 1088 
L 1779 1088 
L 1779 460 
C 1779 230 1766 166 1318 166 
L 1197 166 
L 1197 0 
C 1402 12 1747 12 1965 12 
C 2182 12 2528 12 2733 0 
L 2733 166 
L 2611 166 
C 2163 166 2150 230 2150 460 
L 2150 1088 
L 2803 1088 
L 2803 1254 
L 2150 1254 
L 2150 4147 
z
M 1798 3723 
L 1798 1254 
L 256 1254 
L 1798 3723 
z
" transform="scale(0.015625)"/>
       </defs>
       <use xlink:href="#CMR17-30" transform="scale(0.996264)"/>
       <use xlink:href="#CMMI12-3a" transform="translate(45.690477 0)scale(0.996264)"/>
       <use xlink:href="#CMR17-34" transform="translate(72.787654 0)scale(0.996264)"/>
      </g>
     </g>
    </g>
    <g id="xtick_3">
     <g id="line2d_5">
      <path d="M 361.018182 367.2 
L 361.018182 43.2 
" clip-path="url(#p7b93bcea5b)" style="fill: none; stroke: #b0b0b0; stroke-width: 0.8; stroke-linecap: square"/>
     </g>
     <g id="line2d_6">
      <g>
       <use xlink:href="#m38305d3a46" x="361.018182" y="367.2" style="stroke: #000000; stroke-width: 0.8"/>
      </g>
     </g>
     <g id="text_3">
      <!-- $\mathdefault{0.6}$ -->
      <g transform="translate(349.170369 388.036997)scale(0.2 -0.2)">
       <defs>
        <path id="CMR17-36" d="M 678 2198 
C 678 3712 1395 4076 1811 4076 
C 1946 4076 2272 4049 2400 3782 
C 2298 3782 2106 3782 2106 3558 
C 2106 3385 2246 3328 2336 3328 
C 2394 3328 2566 3353 2566 3571 
C 2566 3987 2246 4224 1805 4224 
C 1043 4224 243 3411 243 2011 
C 243 257 966 -128 1478 -128 
C 2099 -128 2688 431 2688 1295 
C 2688 2101 2170 2688 1517 2688 
C 1126 2688 838 2430 678 1979 
L 678 2198 
z
M 1478 25 
C 691 25 691 1212 691 1450 
C 691 1914 909 2585 1504 2585 
C 1613 2585 1926 2585 2138 2140 
C 2253 1889 2253 1624 2253 1302 
C 2253 954 2253 696 2118 438 
C 1978 173 1773 25 1478 25 
z
" transform="scale(0.015625)"/>
       </defs>
       <use xlink:href="#CMR17-30" transform="scale(0.996264)"/>
       <use xlink:href="#CMMI12-3a" transform="translate(45.690477 0)scale(0.996264)"/>
       <use xlink:href="#CMR17-36" transform="translate(72.787654 0)scale(0.996264)"/>
      </g>
     </g>
    </g>
    <g id="xtick_4">
     <g id="line2d_7">
      <path d="M 454.109091 367.2 
L 454.109091 43.2 
" clip-path="url(#p7b93bcea5b)" style="fill: none; stroke: #b0b0b0; stroke-width: 0.8; stroke-linecap: square"/>
     </g>
     <g id="line2d_8">
      <g>
       <use xlink:href="#m38305d3a46" x="454.109091" y="367.2" style="stroke: #000000; stroke-width: 0.8"/>
      </g>
     </g>
     <g id="text_4">
      <!-- $\mathdefault{0.8}$ -->
      <g transform="translate(442.261278 388.036997)scale(0.2 -0.2)">
       <defs>
        <path id="CMR17-38" d="M 1741 2289 
C 2144 2494 2554 2803 2554 3298 
C 2554 3884 1990 4224 1472 4224 
C 890 4224 378 3800 378 3215 
C 378 3054 416 2777 666 2533 
C 730 2469 998 2276 1171 2154 
C 883 2006 211 1652 211 945 
C 211 282 838 -128 1459 -128 
C 2144 -128 2720 366 2720 1022 
C 2720 1607 2330 1877 2074 2051 
L 1741 2289 
z
M 902 2855 
C 851 2887 595 3086 595 3388 
C 595 3781 998 4076 1459 4076 
C 1965 4076 2336 3716 2336 3298 
C 2336 2700 1670 2359 1638 2359 
C 1632 2359 1626 2359 1574 2398 
L 902 2855 
z
M 2080 1536 
C 2176 1466 2483 1253 2483 861 
C 2483 385 2010 25 1472 25 
C 890 25 448 443 448 951 
C 448 1459 838 1884 1280 2083 
L 2080 1536 
z
" transform="scale(0.015625)"/>
       </defs>
       <use xlink:href="#CMR17-30" transform="scale(0.996264)"/>
       <use xlink:href="#CMMI12-3a" transform="translate(45.690477 0)scale(0.996264)"/>
       <use xlink:href="#CMR17-38" transform="translate(72.787654 0)scale(0.996264)"/>
      </g>
     </g>
    </g>
    <g id="xtick_5">
     <g id="line2d_9">
      <path d="M 547.2 367.2 
L 547.2 43.2 
" clip-path="url(#p7b93bcea5b)" style="fill: none; stroke: #b0b0b0; stroke-width: 0.8; stroke-linecap: square"/>
     </g>
     <g id="line2d_10">
      <g>
       <use xlink:href="#m38305d3a46" x="547.2" y="367.2" style="stroke: #000000; stroke-width: 0.8"/>
      </g>
     </g>
     <g id="text_5">
      <!-- $\mathdefault{1.0}$ -->
      <g transform="translate(535.352187 388.036997)scale(0.2 -0.2)">
       <defs>
        <path id="CMR17-31" d="M 1702 4083 
C 1702 4217 1696 4224 1606 4224 
C 1357 3927 979 3833 621 3820 
C 602 3820 570 3820 563 3808 
C 557 3795 557 3782 557 3648 
C 755 3648 1088 3686 1344 3839 
L 1344 467 
C 1344 243 1331 166 781 166 
L 589 166 
L 589 0 
C 896 6 1216 12 1523 12 
C 1830 12 2150 6 2458 0 
L 2458 166 
L 2266 166 
C 1715 166 1702 236 1702 467 
L 1702 4083 
z
" transform="scale(0.015625)"/>
       </defs>
       <use xlink:href="#CMR17-31" transform="scale(0.996264)"/>
       <use xlink:href="#CMMI12-3a" transform="translate(45.690477 0)scale(0.996264)"/>
       <use xlink:href="#CMR17-30" transform="translate(72.787654 0)scale(0.996264)"/>
      </g>
     </g>
    </g>
    <g id="text_6">
     <!-- $\mathrm{Nuclear\ recoil\ energy}\ [\si{keV_{ee}}]$ -->
     <g transform="translate(203.362841 410.838652)scale(0.2 -0.2)">
      <defs>
       <path id="CMR17-4e" d="M 1312 4275 
C 1267 4345 1261 4352 1139 4352 
L 326 4352 
L 326 4185 
L 448 4185 
C 704 4185 819 4153 838 4147 
L 838 624 
C 838 465 838 166 326 166 
L 326 0 
C 474 12 742 12 902 12 
C 1062 12 1331 12 1478 0 
L 1478 166 
C 966 166 966 465 966 624 
L 966 4057 
C 1011 4019 1011 4007 1056 3943 
L 3430 76 
C 3475 0 3494 0 3526 0 
C 3590 0 3590 19 3590 140 
L 3590 3726 
C 3590 3885 3590 4185 4102 4185 
L 4102 4352 
C 3955 4339 3686 4339 3526 4339 
C 3366 4339 3098 4339 2950 4352 
L 2950 4185 
C 3462 4185 3462 3885 3462 3726 
L 3462 777 
L 1312 4275 
z
" transform="scale(0.015625)"/>
       <path id="CMR17-75" d="M 1882 2745 
L 1882 2579 
C 2259 2579 2317 2540 2317 2229 
L 2317 1053 
C 2317 510 2029 38 1555 38 
C 1030 38 986 355 986 691 
L 986 2816 
L 211 2745 
L 211 2579 
C 467 2579 640 2579 646 2320 
L 646 1079 
C 646 646 646 368 813 187 
C 896 103 1056 -64 1517 -64 
C 2061 -64 2272 400 2323 536 
L 2330 536 
L 2330 -64 
L 3091 -13 
L 3091 154 
C 2714 154 2656 193 2656 503 
L 2656 2816 
L 1882 2745 
z
" transform="scale(0.015625)"/>
       <path id="CMR17-63" d="M 2234 2240 
C 2112 2240 1933 2240 1933 2015 
C 1933 1836 2080 1785 2163 1785 
C 2208 1785 2394 1804 2394 2028 
C 2394 2476 1958 2816 1466 2816 
C 787 2816 211 2201 211 1379 
C 211 521 813 -64 1466 -64 
C 2259 -64 2458 676 2458 747 
C 2458 773 2451 792 2406 792 
C 2362 792 2355 786 2330 702 
C 2163 180 1798 51 1523 51 
C 1114 51 621 431 621 1385 
C 621 2358 1094 2700 1472 2700 
C 1722 2700 2093 2582 2234 2240 
z
" transform="scale(0.015625)"/>
       <path id="CMR17-6c" d="M 979 4416 
L 218 4345 
L 218 4179 
C 595 4179 653 4141 653 3835 
L 653 439 
C 653 198 627 166 218 166 
L 218 0 
C 371 12 653 12 813 12 
C 979 12 1261 12 1414 0 
L 1414 166 
C 1005 166 979 191 979 439 
L 979 4416 
z
" transform="scale(0.015625)"/>
       <path id="CMR17-65" d="M 2438 1503 
C 2464 1529 2464 1542 2464 1606 
C 2464 2251 2118 2816 1389 2816 
C 710 2816 173 2175 173 1394 
C 173 554 781 -64 1459 -64 
C 2176 -64 2458 619 2458 755 
C 2458 800 2419 800 2406 800 
C 2362 800 2355 787 2330 709 
C 2189 270 1837 51 1504 51 
C 1229 51 954 206 781 490 
C 582 819 582 1200 582 1503 
L 2438 1503 
z
M 589 1600 
C 634 2511 1126 2713 1382 2713 
C 1818 2713 2112 2308 2118 1600 
L 589 1600 
z
" transform="scale(0.015625)"/>
       <path id="CMR17-61" d="M 2304 1656 
C 2304 2048 2304 2275 2035 2534 
C 1798 2751 1523 2816 1306 2816 
C 800 2816 435 2408 435 1977 
C 435 1740 627 1728 666 1728 
C 749 1728 896 1779 896 1958 
C 896 2118 774 2188 666 2188 
C 640 2188 608 2182 589 2176 
C 723 2594 1069 2713 1293 2713 
C 1613 2713 1965 2421 1965 1875 
L 1965 1632 
C 1587 1619 1133 1568 774 1373 
C 371 1147 256 822 256 576 
C 256 77 832 -64 1171 -64 
C 1523 -64 1850 135 1990 505 
C 2003 219 2182 -39 2464 -39 
C 2598 -39 2938 51 2938 563 
L 2938 926 
L 2822 926 
L 2822 557 
C 2822 161 2650 109 2566 109 
C 2304 109 2304 446 2304 732 
L 2304 1656 
z
M 1965 887 
C 1965 323 1568 38 1216 38 
C 896 38 646 278 646 576 
C 646 771 730 1114 1101 1322 
C 1408 1497 1760 1523 1965 1536 
L 1965 887 
z
" transform="scale(0.015625)"/>
       <path id="CMR17-72" d="M 960 1517 
C 960 2134 1222 2713 1702 2713 
C 1747 2713 1792 2707 1837 2687 
C 1837 2687 1696 2642 1696 2475 
C 1696 2321 1818 2257 1914 2257 
C 1990 2257 2131 2302 2131 2482 
C 2131 2687 1926 2816 1709 2816 
C 1222 2816 1011 2340 947 2115 
L 941 2115 
L 941 2816 
L 198 2745 
L 198 2578 
C 576 2578 634 2540 634 2231 
L 634 443 
C 634 198 608 166 198 166 
L 198 0 
C 352 12 646 12 813 12 
C 998 12 1325 12 1498 0 
L 1498 166 
C 1037 166 960 166 960 455 
L 960 1517 
z
" transform="scale(0.015625)"/>
       <path id="CMR17-6f" d="M 2758 1356 
C 2758 2176 2163 2816 1466 2816 
C 768 2816 173 2176 173 1356 
C 173 550 768 -64 1466 -64 
C 2163 -64 2758 550 2758 1356 
z
M 1466 51 
C 1165 51 909 230 762 480 
C 602 768 582 1126 582 1408 
C 582 1676 595 2009 762 2297 
C 890 2508 1139 2713 1466 2713 
C 1754 2713 1997 2553 2150 2329 
C 2349 2028 2349 1606 2349 1408 
C 2349 1158 2336 774 2163 467 
C 1984 172 1709 51 1466 51 
z
" transform="scale(0.015625)"/>
       <path id="CMR17-69" d="M 992 3961 
C 992 4102 877 4224 730 4224 
C 589 4224 467 4108 467 3961 
C 467 3820 582 3699 730 3699 
C 870 3699 992 3814 992 3961 
z
M 243 2745 
L 243 2579 
C 602 2579 653 2540 653 2231 
L 653 443 
C 653 198 627 166 218 166 
L 218 0 
C 371 12 646 12 806 12 
C 960 12 1222 12 1370 0 
L 1370 166 
C 992 166 979 205 979 436 
L 979 2816 
L 243 2745 
z
" transform="scale(0.015625)"/>
       <path id="CMR17-6e" d="M 2656 1954 
C 2656 2282 2592 2816 1837 2816 
C 1331 2816 1069 2424 973 2166 
L 966 2166 
L 966 2816 
L 211 2745 
L 211 2578 
C 589 2578 646 2540 646 2231 
L 646 443 
C 646 198 621 166 211 166 
L 211 0 
C 365 12 646 12 813 12 
C 979 12 1267 12 1421 0 
L 1421 166 
C 1011 166 986 192 986 443 
L 986 1678 
C 986 2269 1344 2713 1792 2713 
C 2266 2713 2317 2289 2317 1980 
L 2317 443 
C 2317 198 2291 166 1882 166 
L 1882 0 
C 2035 12 2317 12 2483 12 
C 2650 12 2938 12 3091 0 
L 3091 166 
C 2682 166 2656 192 2656 443 
L 2656 1954 
z
" transform="scale(0.015625)"/>
       <path id="CMR17-67" d="M 710 1165 
C 832 1068 1043 960 1299 960 
C 1805 960 2240 1359 2240 1895 
C 2240 2063 2189 2321 1997 2521 
C 2176 2713 2438 2777 2586 2777 
C 2611 2777 2650 2777 2682 2758 
C 2656 2751 2598 2726 2598 2623 
C 2598 2540 2656 2483 2739 2483 
C 2835 2483 2886 2547 2886 2630 
C 2886 2751 2790 2880 2586 2880 
C 2330 2880 2106 2758 1926 2591 
C 1734 2764 1504 2828 1299 2828 
C 794 2828 358 2431 358 1895 
C 358 1527 570 1294 634 1230 
C 442 1004 442 742 442 710 
C 442 544 506 300 723 166 
C 390 82 128 -184 128 -517 
C 128 -996 736 -1344 1466 -1344 
C 2170 -1344 2803 -1009 2803 -510 
C 2803 384 1856 384 1363 384 
C 1216 384 954 384 922 390 
C 723 422 589 601 589 825 
C 589 883 589 1024 710 1165 
z
M 1299 1068 
C 736 1068 736 1766 736 1895 
C 736 2024 736 2719 1299 2719 
C 1862 2719 1862 2024 1862 1895 
C 1862 1766 1862 1068 1299 1068 
z
M 1466 -1236 
C 826 -1236 384 -883 384 -517 
C 384 -311 493 -118 634 -11 
C 794 102 858 102 1293 102 
C 1818 102 2547 102 2547 -517 
C 2547 -883 2106 -1236 1466 -1236 
z
" transform="scale(0.015625)"/>
       <path id="CMR17-79" d="M 2496 2183 
C 2656 2579 2944 2585 3034 2585 
L 3034 2752 
C 2912 2745 2752 2739 2630 2739 
C 2496 2739 2285 2739 2157 2752 
L 2157 2585 
C 2400 2566 2406 2384 2406 2332 
C 2406 2268 2394 2235 2362 2158 
L 1664 409 
L 902 2300 
C 870 2378 870 2423 870 2430 
C 870 2572 1018 2585 1171 2585 
L 1171 2752 
C 1018 2739 742 2739 582 2739 
C 410 2739 205 2739 64 2752 
L 64 2585 
C 410 2585 448 2553 531 2345 
L 1485 -31 
C 1197 -795 1030 -1242 627 -1242 
C 557 -1242 397 -1223 282 -1106 
C 429 -1093 493 -1002 493 -892 
C 493 -782 416 -685 288 -685 
C 147 -685 77 -782 77 -899 
C 77 -1158 339 -1344 627 -1344 
C 998 -1344 1229 -983 1357 -659 
L 2496 2183 
z
" transform="scale(0.015625)"/>
       <path id="CMR17-5b" d="M 1504 -1600 
L 1504 -1376 
L 902 -1376 
L 902 4575 
L 1504 4575 
L 1504 4800 
L 678 4800 
L 678 -1600 
L 1504 -1600 
z
" transform="scale(0.015625)"/>
       <path id="CMSS17-6b" d="M 1696 1686 
L 2688 2735 
L 2074 2735 
L 954 1552 
L 954 4416 
L 480 4416 
L 480 0 
L 947 0 
L 947 891 
L 1376 1342 
L 2278 0 
L 2822 0 
L 1696 1686 
z
" transform="scale(0.015625)"/>
       <path id="CMSS17-65" d="M 2502 1375 
C 2502 1587 2490 2001 2285 2347 
C 2061 2713 1696 2816 1421 2816 
C 755 2816 192 2184 192 1363 
C 192 579 774 -64 1510 -64 
C 1798 -64 2150 19 2470 249 
C 2470 275 2458 414 2451 421 
C 2451 433 2432 629 2432 655 
C 2125 408 1773 326 1517 326 
C 1107 326 666 667 646 1375 
L 2502 1375 
z
M 698 1728 
C 781 2086 1062 2425 1421 2425 
C 1517 2425 1965 2412 2080 1728 
L 698 1728 
z
" transform="scale(0.015625)"/>
       <path id="CMSS17-56" d="M 3910 4416 
L 3411 4416 
L 2304 1361 
C 2272 1272 2074 687 2035 484 
L 2029 484 
C 1978 725 1773 1291 1664 1603 
L 922 3670 
L 646 4416 
L 83 4416 
L 1715 0 
L 2278 0 
L 3910 4416 
z
" transform="scale(0.015625)"/>
       <path id="CMR17-5d" d="M 915 4800 
L 90 4800 
L 90 4575 
L 691 4575 
L 691 -1376 
L 90 -1376 
L 90 -1600 
L 915 -1600 
L 915 4800 
z
" transform="scale(0.015625)"/>
      </defs>
      <use xlink:href="#CMR17-4e" transform="scale(0.996264)"/>
      <use xlink:href="#CMR17-75" transform="translate(69.07243 0)scale(0.996264)"/>
      <use xlink:href="#CMR17-63" transform="translate(119.9678 0)scale(0.996264)"/>
      <use xlink:href="#CMR17-6c" transform="translate(160.45346 0)scale(0.996264)"/>
      <use xlink:href="#CMR17-65" transform="translate(185.324519 0)scale(0.996264)"/>
      <use xlink:href="#CMR17-61" transform="translate(225.810179 0)scale(0.996264)"/>
      <use xlink:href="#CMR17-72" transform="translate(271.500656 0)scale(0.996264)"/>
      <use xlink:href="#CMR17-72" transform="translate(338.010537 0)scale(0.996264)"/>
      <use xlink:href="#CMR17-65" transform="translate(373.291304 0)scale(0.996264)"/>
      <use xlink:href="#CMR17-63" transform="translate(413.776965 0)scale(0.996264)"/>
      <use xlink:href="#CMR17-6f" transform="translate(454.262625 0)scale(0.996264)"/>
      <use xlink:href="#CMR17-69" transform="translate(499.953103 0)scale(0.996264)"/>
      <use xlink:href="#CMR17-6c" transform="translate(524.824161 0)scale(0.996264)"/>
      <use xlink:href="#CMR17-65" transform="translate(580.924332 0)scale(0.996264)"/>
      <use xlink:href="#CMR17-6e" transform="translate(621.409993 0)scale(0.996264)"/>
      <use xlink:href="#CMR17-65" transform="translate(672.305362 0)scale(0.996264)"/>
      <use xlink:href="#CMR17-72" transform="translate(712.791023 0)scale(0.996264)"/>
      <use xlink:href="#CMR17-67" transform="translate(748.071791 0)scale(0.996264)"/>
      <use xlink:href="#CMR17-79" transform="translate(793.762268 0)scale(0.996264)"/>
      <use xlink:href="#CMR17-5b" transform="translate(874.585463 0)scale(0.996264)"/>
      <use xlink:href="#CMSS17-6b" transform="translate(899.456521 0)scale(0.996264)"/>
      <use xlink:href="#CMSS17-65" transform="translate(942.456556 0)scale(0.996264)"/>
      <use xlink:href="#CMSS17-56" transform="translate(984.095378 0)scale(0.996264)"/>
      <use xlink:href="#CMSS17-65" transform="translate(1046.313233 -14.943915)scale(0.697382)"/>
      <use xlink:href="#CMSS17-65" transform="translate(1075.46028 -14.943915)scale(0.697382)"/>
      <use xlink:href="#CMR17-5d" transform="translate(1105.105458 0)scale(0.996264)"/>
     </g>
    </g>
   </g>
   <g id="matplotlib.axis_2">
    <g id="ytick_1">
     <g id="line2d_11">
      <path d="M 86.4 367.2 
L 547.2 367.2 
" clip-path="url(#p7b93bcea5b)" style="fill: none; stroke: #b0b0b0; stroke-width: 0.8; stroke-linecap: square"/>
     </g>
     <g id="line2d_12">
      <defs>
       <path id="ma5313771c0" d="M 0 0 
L -3.5 0 
" style="stroke: #000000; stroke-width: 0.8"/>
      </defs>
      <g>
       <use xlink:href="#ma5313771c0" x="86.4" y="367.2" style="stroke: #000000; stroke-width: 0.8"/>
      </g>
     </g>
     <g id="text_7">
      <!-- $\mathdefault{10^{-3}}$ -->
      <g transform="translate(43.447161 374.118498)scale(0.2 -0.2)">
       <defs>
        <path id="CMSY10-0" d="M 4218 1472 
C 4326 1472 4442 1472 4442 1600 
C 4442 1728 4326 1728 4218 1728 
L 755 1728 
C 646 1728 531 1728 531 1600 
C 531 1472 646 1472 755 1472 
L 4218 1472 
z
" transform="scale(0.015625)"/>
        <path id="CMR17-33" d="M 1414 2176 
C 1984 2176 2234 1673 2234 1094 
C 2234 322 1824 25 1453 25 
C 1114 25 563 193 390 691 
C 422 678 454 678 486 678 
C 640 678 755 780 755 947 
C 755 1132 614 1216 486 1216 
C 378 1216 211 1164 211 927 
C 211 335 787 -128 1466 -128 
C 2176 -128 2720 432 2720 1087 
C 2720 1718 2208 2176 1600 2246 
C 2086 2347 2554 2776 2554 3353 
C 2554 3856 2048 4224 1472 4224 
C 890 4224 378 3862 378 3347 
C 378 3123 544 3084 627 3084 
C 762 3084 877 3167 877 3334 
C 877 3500 762 3584 627 3584 
C 602 3584 570 3584 544 3571 
C 730 3999 1235 4076 1459 4076 
C 1683 4076 2106 3966 2106 3347 
C 2106 3167 2080 2851 1862 2574 
C 1670 2329 1453 2316 1242 2297 
C 1210 2297 1062 2284 1037 2284 
C 992 2278 966 2272 966 2227 
C 966 2182 973 2176 1101 2176 
L 1414 2176 
z
" transform="scale(0.015625)"/>
       </defs>
       <use xlink:href="#CMR17-31" transform="scale(0.996264)"/>
       <use xlink:href="#CMR17-30" transform="translate(45.690477 0)scale(0.996264)"/>
       <use xlink:href="#CMSY10-0" transform="translate(91.380954 36.153639)scale(0.697382)"/>
       <use xlink:href="#CMR17-33" transform="translate(145.621947 36.153639)scale(0.697382)"/>
      </g>
     </g>
    </g>
    <g id="ytick_2">
     <g id="line2d_13">
      <path d="M 86.4 295.2 
L 547.2 295.2 
" clip-path="url(#p7b93bcea5b)" style="fill: none; stroke: #b0b0b0; stroke-width: 0.8; stroke-linecap: square"/>
     </g>
     <g id="line2d_14">
      <g>
       <use xlink:href="#ma5313771c0" x="86.4" y="295.2" style="stroke: #000000; stroke-width: 0.8"/>
      </g>
     </g>
     <g id="text_8">
      <!-- $\mathdefault{10^{-1}}$ -->
      <g transform="translate(43.447161 302.118498)scale(0.2 -0.2)">
       <use xlink:href="#CMR17-31" transform="scale(0.996264)"/>
       <use xlink:href="#CMR17-30" transform="translate(45.690477 0)scale(0.996264)"/>
       <use xlink:href="#CMSY10-0" transform="translate(91.380954 36.153639)scale(0.697382)"/>
       <use xlink:href="#CMR17-31" transform="translate(145.621947 36.153639)scale(0.697382)"/>
      </g>
     </g>
    </g>
    <g id="ytick_3">
     <g id="line2d_15">
      <path d="M 86.4 223.2 
L 547.2 223.2 
" clip-path="url(#p7b93bcea5b)" style="fill: none; stroke: #b0b0b0; stroke-width: 0.8; stroke-linecap: square"/>
     </g>
     <g id="line2d_16">
      <g>
       <use xlink:href="#ma5313771c0" x="86.4" y="223.2" style="stroke: #000000; stroke-width: 0.8"/>
      </g>
     </g>
     <g id="text_9">
      <!-- $\mathdefault{10^{1}}$ -->
      <g transform="translate(54.295351 230.118498)scale(0.2 -0.2)">
       <use xlink:href="#CMR17-31" transform="scale(0.996264)"/>
       <use xlink:href="#CMR17-30" transform="translate(45.690477 0)scale(0.996264)"/>
       <use xlink:href="#CMR17-31" transform="translate(91.380954 36.153639)scale(0.697382)"/>
      </g>
     </g>
    </g>
    <g id="ytick_4">
     <g id="line2d_17">
      <path d="M 86.4 151.2 
L 547.2 151.2 
" clip-path="url(#p7b93bcea5b)" style="fill: none; stroke: #b0b0b0; stroke-width: 0.8; stroke-linecap: square"/>
     </g>
     <g id="line2d_18">
      <g>
       <use xlink:href="#ma5313771c0" x="86.4" y="151.2" style="stroke: #000000; stroke-width: 0.8"/>
      </g>
     </g>
     <g id="text_10">
      <!-- $\mathdefault{10^{3}}$ -->
      <g transform="translate(54.295351 158.118498)scale(0.2 -0.2)">
       <use xlink:href="#CMR17-31" transform="scale(0.996264)"/>
       <use xlink:href="#CMR17-30" transform="translate(45.690477 0)scale(0.996264)"/>
       <use xlink:href="#CMR17-33" transform="translate(91.380954 36.153639)scale(0.697382)"/>
      </g>
     </g>
    </g>
    <g id="ytick_5">
     <g id="line2d_19">
      <path d="M 86.4 79.2 
L 547.2 79.2 
" clip-path="url(#p7b93bcea5b)" style="fill: none; stroke: #b0b0b0; stroke-width: 0.8; stroke-linecap: square"/>
     </g>
     <g id="line2d_20">
      <g>
       <use xlink:href="#ma5313771c0" x="86.4" y="79.2" style="stroke: #000000; stroke-width: 0.8"/>
      </g>
     </g>
     <g id="text_11">
      <!-- $\mathdefault{10^{5}}$ -->
      <g transform="translate(54.295351 86.118498)scale(0.2 -0.2)">
       <defs>
        <path id="CMR17-35" d="M 730 3750 
C 794 3724 1056 3641 1325 3641 
C 1920 3641 2246 3961 2432 4140 
C 2432 4191 2432 4224 2394 4224 
C 2387 4224 2374 4224 2323 4198 
C 2099 4102 1837 4032 1517 4032 
C 1325 4032 1037 4055 723 4191 
C 653 4224 640 4224 634 4224 
C 602 4224 595 4217 595 4090 
L 595 2231 
C 595 2113 595 2080 659 2080 
C 691 2080 704 2093 736 2139 
C 941 2435 1222 2560 1542 2560 
C 1766 2560 2246 2415 2246 1293 
C 2246 1087 2246 716 2054 422 
C 1894 159 1645 25 1370 25 
C 947 25 518 319 403 812 
C 429 806 480 793 506 793 
C 589 793 749 838 749 1036 
C 749 1209 627 1280 506 1280 
C 358 1280 262 1190 262 1011 
C 262 454 704 -128 1382 -128 
C 2042 -128 2669 441 2669 1267 
C 2669 2054 2170 2662 1549 2662 
C 1222 2662 947 2540 730 2304 
L 730 3750 
z
" transform="scale(0.015625)"/>
       </defs>
       <use xlink:href="#CMR17-31" transform="scale(0.996264)"/>
       <use xlink:href="#CMR17-30" transform="translate(45.690477 0)scale(0.996264)"/>
       <use xlink:href="#CMR17-35" transform="translate(91.380954 36.153639)scale(0.697382)"/>
      </g>
     </g>
    </g>
    <g id="text_12">
     <!-- $\mathrm{Rate}\ [\si{keV_{ee}^{-1}kg^{-1}y^{-1}}]$ -->
     <g transform="translate(34.482518 288.104699)rotate(-90)scale(0.2 -0.2)">
      <defs>
       <path id="CMR17-52" d="M 2509 2156 
C 3117 2278 3629 2689 3629 3203 
C 3629 3806 2950 4352 2054 4352 
L 333 4352 
L 333 4185 
C 774 4185 845 4185 845 3896 
L 845 428 
C 845 140 774 140 333 140 
L 333 -26 
C 518 -13 851 -13 1050 -13 
C 1248 -13 1581 -13 1766 -26 
L 1766 140 
C 1325 140 1254 140 1254 428 
L 1254 2112 
L 2003 2112 
C 2368 2112 2573 1964 2662 1881 
C 2918 1632 2918 1459 2918 1024 
C 2918 595 2918 377 3110 160 
C 3354 -103 3680 -128 3821 -128 
C 4294 -128 4365 403 4365 512 
C 4365 550 4365 595 4307 595 
C 4256 595 4250 556 4250 531 
C 4218 115 4032 -26 3834 -26 
C 3482 -26 3443 377 3405 768 
C 3386 902 3373 998 3360 1139 
C 3322 1459 3270 1926 2509 2156 
z
M 1984 2214 
L 1254 2214 
L 1254 3935 
C 1254 4153 1267 4185 1523 4185 
L 1990 4185 
C 2522 4185 3142 3999 3142 3203 
C 3142 2374 2464 2214 1984 2214 
z
" transform="scale(0.015625)"/>
       <path id="CMR17-74" d="M 966 2585 
L 1862 2585 
L 1862 2752 
L 966 2752 
L 966 3968 
L 851 3968 
C 838 3292 614 2700 70 2687 
L 70 2585 
L 627 2585 
L 627 778 
C 627 655 627 -64 1370 -64 
C 1747 -64 1965 308 1965 784 
L 1965 1151 
L 1850 1151 
L 1850 790 
C 1850 347 1677 51 1408 51 
C 1222 51 966 179 966 765 
L 966 2585 
z
" transform="scale(0.015625)"/>
       <path id="CMSS17-31" d="M 1818 4288 
L 1696 4288 
C 1350 3949 947 3902 538 3891 
L 538 3520 
C 723 3526 1024 3539 1325 3673 
L 1325 371 
L 570 371 
L 570 0 
L 2573 0 
L 2573 371 
L 1818 371 
L 1818 4288 
z
" transform="scale(0.015625)"/>
       <path id="CMSS17-67" d="M 2848 2816 
C 2483 2809 2170 2739 1914 2617 
C 1702 2783 1485 2816 1338 2816 
C 781 2816 358 2356 358 1824 
C 358 1481 550 1222 563 1209 
C 448 1049 384 876 384 684 
C 384 460 474 300 544 211 
C 211 6 166 -308 166 -429 
C 166 -896 749 -1280 1498 -1280 
C 2253 -1280 2835 -896 2835 -423 
C 2835 460 1856 467 1587 467 
L 1069 467 
C 973 467 717 467 717 793 
C 717 921 774 1004 781 1011 
C 877 940 1075 832 1338 832 
C 1869 832 2310 1279 2310 1824 
C 2310 2128 2170 2349 2112 2425 
L 2131 2425 
C 2150 2425 2419 2444 2515 2444 
C 2720 2444 2739 2438 2918 2419 
L 2848 2816 
z
M 1338 1184 
C 1120 1184 813 1317 813 1824 
C 813 2375 1165 2463 1331 2463 
C 1549 2463 1856 2330 1856 1824 
C 1856 1272 1504 1184 1338 1184 
z
M 1581 0 
C 1734 0 2381 0 2381 -436 
C 2381 -711 1984 -928 1504 -928 
C 1018 -928 621 -717 621 -429 
C 621 -397 621 0 1062 0 
L 1581 0 
z
" transform="scale(0.015625)"/>
       <path id="CMSS17-79" d="M 2675 2752 
L 2176 2752 
C 1632 1293 1446 701 1434 383 
L 1427 383 
C 1408 695 1126 1459 902 2006 
L 602 2752 
L 83 2752 
L 1216 14 
C 1146 -177 1043 -464 1011 -527 
C 870 -884 774 -884 672 -884 
C 646 -884 442 -877 211 -807 
L 250 -1229 
C 410 -1261 570 -1280 685 -1280 
C 845 -1280 1165 -1280 1459 -495 
L 2675 2752 
z
" transform="scale(0.015625)"/>
      </defs>
      <use xlink:href="#CMR17-52" transform="scale(0.996264)"/>
      <use xlink:href="#CMR17-61" transform="translate(67.791102 0)scale(0.996264)"/>
      <use xlink:href="#CMR17-74" transform="translate(113.481579 0)scale(0.996264)"/>
      <use xlink:href="#CMR17-65" transform="translate(148.762347 0)scale(0.996264)"/>
      <use xlink:href="#CMR17-5b" transform="translate(220.47712 0)scale(0.996264)"/>
      <use xlink:href="#CMSS17-6b" transform="translate(245.348179 0)scale(0.996264)"/>
      <use xlink:href="#CMSS17-65" transform="translate(288.348214 0)scale(0.996264)"/>
      <use xlink:href="#CMSS17-56" transform="translate(329.987036 0)scale(0.996264)"/>
      <use xlink:href="#CMSY10-0" transform="translate(393.506057 36.153639)scale(0.697382)"/>
      <use xlink:href="#CMSS17-31" transform="translate(447.74705 36.153639)scale(0.697382)"/>
      <use xlink:href="#CMSS17-65" transform="translate(392.204891 -24.62935)scale(0.697382)"/>
      <use xlink:href="#CMSS17-65" transform="translate(421.351937 -24.62935)scale(0.697382)"/>
      <use xlink:href="#CMSS17-6b" transform="translate(481.035564 0)scale(0.996264)"/>
      <use xlink:href="#CMSS17-67" transform="translate(526.638053 0)scale(0.996264)"/>
      <use xlink:href="#CMSY10-0" transform="translate(574.782843 36.153639)scale(0.697382)"/>
      <use xlink:href="#CMSS17-31" transform="translate(629.023836 36.153639)scale(0.697382)"/>
      <use xlink:href="#CMSS17-79" transform="translate(662.312349 0)scale(0.996264)"/>
      <use xlink:href="#CMSY10-0" transform="translate(706.613657 36.153639)scale(0.697382)"/>
      <use xlink:href="#CMSS17-31" transform="translate(760.85465 36.153639)scale(0.697382)"/>
      <use xlink:href="#CMR17-5d" transform="translate(794.143164 0)scale(0.996264)"/>
     </g>
    </g>
   </g>
   <g id="line2d_21">
    <path d="M 82.16641 79.045529 
L 85.570138 78.580911 
L 88.940204 78.340934 
L 92.359712 78.318093 
L 95.816399 78.517307 
L 99.341933 78.946494 
L 102.911557 79.608652 
L 106.473538 80.49208 
L 110.078702 81.606305 
L 113.89541 83.019105 
L 117.873342 84.736505 
L 121.950717 86.743458 
L 126.055418 89.000946 
L 130.579182 91.743888 
L 135.564794 95.046643 
L 141.059405 98.981956 
L 147.114981 103.612759 
L 154.492553 109.558975 
L 165.912757 119.11141 
L 183.975931 134.211673 
L 196.624963 144.476172 
L 232.563856 173.411977 
L 241.622247 181.057324 
L 249.585145 188.011653 
L 257.944647 195.599959 
L 264.931045 202.20527 
L 272.194457 209.361743 
L 279.745869 217.150875 
L 285.605278 223.463733 
L 291.638085 230.229205 
L 297.84942 237.496114 
L 304.244567 245.31797 
L 310.828965 253.753157 
L 317.608214 262.865101 
L 324.588081 272.722412 
L 331.774503 283.399024 
L 339.173592 294.974341 
L 344.227567 303.232257 
L 349.380764 311.953897 
L 354.635131 321.167064 
L 359.992656 330.900774 
L 365.455362 341.185287 
L 371.025315 352.052152 
L 376.704621 363.53425 
L 382.495426 375.665842 
L 388.399919 388.482623 
L 394.420333 402.021779 
L 400.558943 416.322046 
L 407.454509 433 
L 407.454509 433 
" clip-path="url(#p7b93bcea5b)" style="fill: none; stroke: #0000ff; stroke-width: 2; stroke-linecap: square"/>
   </g>
   <g id="line2d_22">
    <path d="M 82.16641 341.173136 
L 86.257432 321.087958 
L 90.233098 302.660538 
L 94.145955 285.567684 
L 97.867833 270.262656 
L 101.519155 256.143924 
L 105.072481 243.248752 
L 108.47338 231.679496 
L 111.780441 221.146642 
L 115.170174 211.075797 
L 118.582625 201.669387 
L 121.950717 193.094669 
L 125.20225 185.474307 
L 128.262341 178.882216 
L 131.056218 173.345289 
L 134.0179 167.967832 
L 136.621406 163.650241 
L 139.354583 159.520599 
L 142.22389 155.618622 
L 144.621895 152.689333 
L 147.114981 149.95557 
L 149.70692 147.440914 
L 152.401631 145.169581 
L 155.203188 143.166212 
L 157.377017 141.854464 
L 159.615175 140.717833 
L 161.919568 139.766627 
L 164.292154 139.010931 
L 166.734951 138.460498 
L 169.250038 138.124617 
L 171.839554 138.011955 
L 174.505701 138.130357 
L 177.250748 138.486619 
L 180.077028 139.086195 
L 182.986946 139.932868 
L 185.982977 141.028382 
L 189.067669 142.372072 
L 192.243647 143.960528 
L 196.624963 146.447797 
L 201.180001 149.335481 
L 205.915648 152.593002 
L 212.100127 157.132929 
L 219.929434 163.189288 
L 229.659916 171.027574 
L 240.075588 179.735647 
L 249.585145 188.01187 
L 257.944647 195.599983 
L 264.931045 202.205274 
L 272.194457 209.361744 
L 279.745869 217.150875 
L 285.605278 223.463733 
L 291.638085 230.229205 
L 297.84942 237.496114 
L 304.244567 245.31797 
L 310.828965 253.753157 
L 317.608214 262.865101 
L 324.588081 272.722412 
L 331.774503 283.399024 
L 339.173592 294.974341 
L 344.227567 303.232257 
L 349.380764 311.953897 
L 354.635131 321.167064 
L 359.992656 330.900774 
L 365.455362 341.185287 
L 371.025315 352.052152 
L 376.704621 363.53425 
L 382.495426 375.665842 
L 388.399919 388.482623 
L 394.420333 402.021779 
L 400.558943 416.322046 
L 407.454509 433 
L 407.454509 433 
" clip-path="url(#p7b93bcea5b)" style="fill: none; stroke-dasharray: 3.7,1.6; stroke-dashoffset: 0; stroke: #0000ff"/>
   </g>
   <g id="LineCollection_1">
    <path d="M 151.563636 433 
L 151.563636 5.537958 
" clip-path="url(#p7b93bcea5b)" style="fill: none; stroke: #0000ff; stroke-opacity: 0.5; stroke-width: 2"/>
    <path d="M 174.836364 433 
L 174.836364 5.537958 
" clip-path="url(#p7b93bcea5b)" style="fill: none; stroke: #0000ff; stroke-opacity: 0.5; stroke-width: 2"/>
   </g>
   <g id="line2d_23">
    <path d="M 82.167322 152.631617 
L 543.9585 152.631617 
L 543.9585 152.631617 
" clip-path="url(#p7b93bcea5b)" style="fill: none; stroke-dasharray: 12.8,3.2,2,3.2; stroke-dashoffset: 0; stroke: #ff0000; stroke-width: 2"/>
   </g>
   <g id="line2d_24">
    <path d="M 82.167322 414.754771 
L 86.867765 392.358175 
L 91.510529 371.29519 
L 96.00634 351.898659 
L 100.361407 334.04415 
L 104.720585 317.090569 
L 108.932134 301.579579 
L 113.025784 287.316942 
L 117.234552 273.48553 
L 121.448798 260.476452 
L 125.544806 248.632513 
L 129.390393 238.224919 
L 132.851744 229.442 
L 136.564557 220.631012 
L 139.728094 213.61659 
L 143.074194 206.685329 
L 146.613394 199.892772 
L 150.356836 193.301181 
L 153.305516 188.530514 
L 156.380921 183.942672 
L 159.588496 179.570401 
L 162.933921 175.447464 
L 166.423122 171.607871 
L 168.832171 169.222004 
L 171.309757 166.986156 
L 173.857829 164.908923 
L 176.478392 162.99788 
L 179.17351 161.259239 
L 181.945303 159.697457 
L 184.795953 158.314819 
L 187.727702 157.111012 
L 190.742859 156.08274 
L 193.843796 155.223428 
L 197.032953 154.523081 
L 200.312841 153.968385 
L 205.408458 153.373308 
L 210.723068 153.006019 
L 218.166193 152.758159 
L 230.143946 152.647459 
L 278.198961 152.631617 
L 543.9585 152.631617 
L 543.9585 152.631617 
" clip-path="url(#p7b93bcea5b)" style="fill: none; stroke-dasharray: 1,1.65; stroke-dashoffset: 0; stroke: #ff0000"/>
   </g>
   <g id="patch_3">
    <path d="M 86.4 367.2 
L 86.4 43.2 
" style="fill: none; stroke: #000000; stroke-width: 0.8; stroke-linejoin: miter; stroke-linecap: square"/>
   </g>
   <g id="patch_4">
    <path d="M 547.2 367.2 
L 547.2 43.2 
" style="fill: none; stroke: #000000; stroke-width: 0.8; stroke-linejoin: miter; stroke-linecap: square"/>
   </g>
   <g id="patch_5">
    <path d="M 86.4 367.2 
L 547.2 367.2 
" style="fill: none; stroke: #000000; stroke-width: 0.8; stroke-linejoin: miter; stroke-linecap: square"/>
   </g>
   <g id="patch_6">
    <path d="M 86.4 43.2 
L 547.2 43.2 
" style="fill: none; stroke: #000000; stroke-width: 0.8; stroke-linejoin: miter; stroke-linecap: square"/>
   </g>
   <g id="text_13">
    <!-- $Ge,150\si{eV_{ee}},N=614.7\si{kg^{-1}y^{-1}},N_{\mathrm{bkg}}=90.0\si{kg^{-1}y^{-1}}$ -->
    <g transform="translate(198.109091 223.2)scale(0.15 -0.15)">
     <defs>
      <path id="CMMI12-47" d="M 4774 4422 
C 4774 4480 4730 4480 4717 4480 
C 4704 4480 4678 4480 4627 4415 
L 4186 3887 
C 4154 3938 4026 4161 3776 4307 
C 3501 4480 3226 4480 3130 4480 
C 1760 4480 320 3093 320 1593 
C 320 546 1050 -128 2010 -128 
C 2470 -128 3053 25 3373 425 
C 3443 184 3584 12 3629 12 
C 3661 12 3667 32 3674 32 
C 3680 44 3731 266 3763 381 
L 3866 787 
C 3917 996 3942 1085 3987 1275 
C 4051 1516 4064 1535 4416 1542 
C 4442 1542 4518 1542 4518 1663 
C 4518 1728 4454 1728 4435 1728 
C 4326 1728 4205 1715 4090 1715 
L 3744 1715 
C 3475 1715 3194 1728 2931 1728 
C 2874 1728 2797 1728 2797 1612 
C 2797 1548 2848 1548 2848 1542 
L 3008 1542 
C 3514 1542 3514 1491 3514 1396 
C 3514 1390 3392 749 3270 558 
C 3027 203 2522 57 2144 57 
C 1651 57 851 311 851 1409 
C 851 1835 1005 2807 1626 3525 
C 2029 3983 2624 4294 3187 4294 
C 3942 4294 4211 3652 4211 3068 
C 4211 2966 4186 2826 4186 2738 
C 4186 2680 4250 2680 4269 2680 
C 4339 2680 4346 2687 4371 2801 
L 4774 4422 
z
" transform="scale(0.015625)"/>
      <path id="CMMI12-65" d="M 1146 1472 
C 1318 1472 1754 1484 2061 1600 
C 2547 1786 2592 2160 2592 2275 
C 2592 2559 2349 2816 1926 2816 
C 1254 2816 288 2205 288 1066 
C 288 400 672 -64 1254 -64 
C 2125 -64 2675 609 2675 691 
C 2675 729 2637 761 2611 761 
C 2592 761 2586 755 2528 698 
C 2118 159 1510 64 1267 64 
C 902 64 710 349 710 818 
C 710 907 710 1066 806 1472 
L 1146 1472 
z
M 838 1600 
C 1114 2591 1722 2687 1926 2687 
C 2208 2687 2400 2520 2400 2275 
C 2400 1600 1376 1600 1107 1600 
L 838 1600 
z
" transform="scale(0.015625)"/>
      <path id="CMMI12-3b" d="M 1248 -26 
C 1248 345 1126 620 864 620 
C 659 620 557 454 557 313 
C 557 172 653 0 870 0 
C 954 0 1024 25 1082 83 
C 1094 96 1101 96 1107 96 
C 1120 96 1120 6 1120 -26 
C 1120 -233 1082 -642 710 -1051 
C 640 -1127 640 -1140 640 -1152 
C 640 -1184 672 -1216 704 -1216 
C 755 -1216 1248 -749 1248 -26 
z
" transform="scale(0.015625)"/>
      <path id="CMMI12-4e" d="M 4736 3682 
C 4806 3956 4909 4147 5395 4166 
C 5414 4166 5491 4172 5491 4281 
C 5491 4352 5434 4352 5408 4352 
C 5280 4352 4954 4339 4826 4339 
L 4518 4339 
C 4429 4339 4314 4352 4224 4352 
C 4186 4352 4109 4352 4109 4230 
C 4109 4166 4160 4166 4205 4166 
C 4589 4153 4614 4007 4614 3892 
C 4614 3835 4608 3816 4589 3726 
L 3866 854 
L 2496 4243 
C 2451 4345 2445 4352 2304 4352 
L 1523 4352 
C 1395 4352 1338 4352 1338 4230 
C 1338 4166 1382 4166 1504 4166 
C 1536 4166 1914 4166 1914 4109 
C 1914 4096 1901 4045 1894 4026 
L 1043 650 
C 966 338 813 204 390 185 
C 358 185 294 179 294 64 
C 294 0 358 0 378 0 
C 506 0 832 12 960 12 
L 1267 12 
C 1357 12 1466 0 1555 0 
C 1600 0 1670 0 1670 121 
C 1670 179 1606 185 1581 185 
C 1370 191 1165 230 1165 459 
C 1165 510 1178 567 1190 618 
L 2054 4026 
C 2093 3962 2093 3949 2118 3892 
L 3642 115 
C 3674 38 3686 0 3744 0 
C 3808 0 3814 19 3840 128 
L 4736 3682 
z
" transform="scale(0.015625)"/>
      <path id="CMR17-3d" d="M 4115 2048 
C 4211 2048 4307 2048 4307 2156 
C 4307 2272 4198 2272 4090 2272 
L 512 2272 
C 403 2272 294 2272 294 2156 
C 294 2048 390 2048 486 2048 
L 4115 2048 
z
M 4090 927 
C 4198 927 4307 927 4307 1043 
C 4307 1152 4211 1152 4115 1152 
L 486 1152 
C 390 1152 294 1152 294 1043 
C 294 927 403 927 512 927 
L 4090 927 
z
" transform="scale(0.015625)"/>
      <path id="CMR17-37" d="M 2886 3955 
L 2886 4096 
L 1382 4096 
C 634 4096 621 4166 595 4288 
L 480 4288 
L 294 3104 
L 410 3104 
C 429 3226 474 3552 550 3673 
C 589 3724 1062 3724 1171 3724 
L 2579 3724 
L 1869 2670 
C 1395 1961 1069 1003 1069 166 
C 1069 89 1069 -128 1299 -128 
C 1530 -128 1530 89 1530 172 
L 1530 466 
C 1530 1514 1709 2204 2003 2644 
L 2886 3955 
z
" transform="scale(0.015625)"/>
      <path id="CMR17-62" d="M 960 4416 
L 198 4345 
L 198 4179 
C 576 4179 634 4141 634 3843 
L 634 -13 
L 749 -13 
L 934 445 
C 1120 141 1395 -64 1766 -64 
C 2406 -64 3053 503 3053 1382 
C 3053 2209 2477 2816 1830 2816 
C 1434 2816 1152 2603 960 2351 
L 960 4416 
z
M 973 2022 
C 973 2138 973 2157 1062 2293 
C 1312 2681 1670 2713 1792 2713 
C 1984 2713 2643 2610 2643 1388 
C 2643 109 1888 38 1734 38 
C 1536 38 1248 115 1043 490 
C 973 613 973 626 973 742 
L 973 2022 
z
" transform="scale(0.015625)"/>
      <path id="CMR17-6b" d="M 1670 1679 
C 1664 1692 1632 1730 1632 1749 
C 1632 1762 2086 2175 2144 2226 
C 2509 2532 2739 2563 2906 2570 
L 2906 2735 
C 2867 2735 2854 2735 2848 2729 
L 2534 2722 
C 2355 2722 2080 2722 1907 2735 
L 1907 2570 
C 1997 2563 2061 2513 2061 2423 
C 2061 2296 1933 2175 1926 2175 
L 960 1298 
L 960 4416 
L 198 4345 
L 198 4179 
C 576 4179 634 4141 634 3835 
L 634 439 
C 634 198 608 166 198 166 
L 198 0 
C 352 12 634 12 794 12 
C 954 12 1235 12 1389 0 
L 1389 166 
C 979 166 954 191 954 439 
L 954 1139 
L 1395 1540 
L 2042 586 
C 2118 471 2182 382 2182 299 
C 2182 185 2067 166 1990 166 
L 1990 0 
C 2144 12 2419 12 2579 12 
C 2694 12 2931 6 3040 0 
L 3040 166 
C 2739 166 2669 223 2477 503 
L 1670 1679 
z
" transform="scale(0.015625)"/>
      <path id="CMR17-39" d="M 2253 1871 
C 2253 448 1670 25 1190 25 
C 1043 25 685 43 538 281 
C 704 256 826 345 826 505 
C 826 678 685 736 595 736 
C 538 736 365 710 365 492 
C 365 68 742 -128 1203 -128 
C 1939 -128 2688 665 2688 2090 
C 2688 3857 1971 4224 1485 4224 
C 851 4224 243 3664 243 2800 
C 243 2000 762 1408 1414 1408 
C 1952 1408 2189 1910 2253 2122 
L 2253 1871 
z
M 1427 1510 
C 1254 1510 1011 1542 813 1929 
C 678 2181 678 2477 678 2793 
C 678 3174 678 3438 858 3722 
C 947 3857 1114 4076 1485 4076 
C 2240 4076 2240 2909 2240 2651 
C 2240 2193 2035 1510 1427 1510 
z
" transform="scale(0.015625)"/>
     </defs>
     <use xlink:href="#CMMI12-47" transform="scale(0.996264)"/>
     <use xlink:href="#CMMI12-65" transform="translate(76.946862 0)scale(0.996264)"/>
     <use xlink:href="#CMMI12-3b" transform="translate(122.158863 0)scale(0.996264)"/>
     <use xlink:href="#CMR17-31" transform="translate(165.860445 0)scale(0.996264)"/>
     <use xlink:href="#CMR17-35" transform="translate(211.550922 0)scale(0.996264)"/>
     <use xlink:href="#CMR17-30" transform="translate(257.241399 0)scale(0.996264)"/>
     <use xlink:href="#CMSS17-65" transform="translate(302.931877 0)scale(0.996264)"/>
     <use xlink:href="#CMSS17-56" transform="translate(344.570699 0)scale(0.996264)"/>
     <use xlink:href="#CMSS17-65" transform="translate(406.788554 -14.943915)scale(0.697382)"/>
     <use xlink:href="#CMSS17-65" transform="translate(435.9356 -14.943915)scale(0.697382)"/>
     <use xlink:href="#CMMI12-3b" transform="translate(465.580778 0)scale(0.996264)"/>
     <use xlink:href="#CMMI12-4e" transform="translate(509.28236 0)scale(0.996264)"/>
     <use xlink:href="#CMR17-3d" transform="translate(625.478142 0)scale(0.996264)"/>
     <use xlink:href="#CMR17-36" transform="translate(724.866939 0)scale(0.996264)"/>
     <use xlink:href="#CMR17-31" transform="translate(770.557416 0)scale(0.996264)"/>
     <use xlink:href="#CMR17-34" transform="translate(816.247893 0)scale(0.996264)"/>
     <use xlink:href="#CMMI12-3a" transform="translate(861.93837 0)scale(0.996264)"/>
     <use xlink:href="#CMR17-37" transform="translate(889.035547 0)scale(0.996264)"/>
     <use xlink:href="#CMSS17-6b" transform="translate(934.726024 0)scale(0.996264)"/>
     <use xlink:href="#CMSS17-67" transform="translate(980.328514 0)scale(0.996264)"/>
     <use xlink:href="#CMSY10-0" transform="translate(1028.473303 36.153639)scale(0.697382)"/>
     <use xlink:href="#CMSS17-31" transform="translate(1082.714296 36.153639)scale(0.697382)"/>
     <use xlink:href="#CMSS17-79" transform="translate(1116.00281 0)scale(0.996264)"/>
     <use xlink:href="#CMSY10-0" transform="translate(1160.304118 36.153639)scale(0.697382)"/>
     <use xlink:href="#CMSS17-31" transform="translate(1214.545111 36.153639)scale(0.697382)"/>
     <use xlink:href="#CMMI12-3b" transform="translate(1247.833624 0)scale(0.996264)"/>
     <use xlink:href="#CMMI12-4e" transform="translate(1291.535207 0)scale(0.996264)"/>
     <use xlink:href="#CMR17-62" transform="translate(1369.650326 -14.943915)scale(0.697382)"/>
     <use xlink:href="#CMR17-6b" transform="translate(1405.276934 -14.943915)scale(0.697382)"/>
     <use xlink:href="#CMR17-67" transform="translate(1439.081821 -14.943915)scale(0.697382)"/>
     <use xlink:href="#CMR17-3d" transform="translate(1500.147959 0)scale(0.996264)"/>
     <use xlink:href="#CMR17-39" transform="translate(1599.536756 0)scale(0.996264)"/>
     <use xlink:href="#CMR17-30" transform="translate(1645.227233 0)scale(0.996264)"/>
     <use xlink:href="#CMMI12-3a" transform="translate(1690.91771 0)scale(0.996264)"/>
     <use xlink:href="#CMR17-30" transform="translate(1718.014887 0)scale(0.996264)"/>
     <use xlink:href="#CMSS17-6b" transform="translate(1763.705365 0)scale(0.996264)"/>
     <use xlink:href="#CMSS17-67" transform="translate(1809.307854 0)scale(0.996264)"/>
     <use xlink:href="#CMSY10-0" transform="translate(1857.452643 36.153639)scale(0.697382)"/>
     <use xlink:href="#CMSS17-31" transform="translate(1911.693637 36.153639)scale(0.697382)"/>
     <use xlink:href="#CMSS17-79" transform="translate(1944.98215 0)scale(0.996264)"/>
     <use xlink:href="#CMSY10-0" transform="translate(1989.283458 36.153639)scale(0.697382)"/>
     <use xlink:href="#CMSS17-31" transform="translate(2043.524451 36.153639)scale(0.697382)"/>
    </g>
   </g>
   <g id="patch_7">
    <path d="M 193.037784 223.7 
Q 178.509898 223.7 163.982012 223.7 
L 163.982012 224.2 
Q 157.981663 223.7 151.981314 223.2 
Q 157.981663 222.7 163.982012 222.2 
L 163.982012 222.7 
Q 178.509898 222.7 193.037784 222.7 
L 193.037784 223.7 
z
" style="stroke: #000000; stroke-linecap: round"/>
   </g>
   <g id="text_14">
    <!-- $Ge,200\si{eV_{ee}},N=132.0\si{kg^{-1}y^{-1}},N_{\mathrm{bkg}}=44.3\si{kg^{-1}y^{-1}}$ -->
    <g transform="translate(198.109091 259.2)scale(0.15 -0.15)">
     <use xlink:href="#CMMI12-47" transform="scale(0.996264)"/>
     <use xlink:href="#CMMI12-65" transform="translate(76.946862 0)scale(0.996264)"/>
     <use xlink:href="#CMMI12-3b" transform="translate(122.158863 0)scale(0.996264)"/>
     <use xlink:href="#CMR17-32" transform="translate(165.860445 0)scale(0.996264)"/>
     <use xlink:href="#CMR17-30" transform="translate(211.550922 0)scale(0.996264)"/>
     <use xlink:href="#CMR17-30" transform="translate(257.241399 0)scale(0.996264)"/>
     <use xlink:href="#CMSS17-65" transform="translate(302.931877 0)scale(0.996264)"/>
     <use xlink:href="#CMSS17-56" transform="translate(344.570699 0)scale(0.996264)"/>
     <use xlink:href="#CMSS17-65" transform="translate(406.788554 -14.943915)scale(0.697382)"/>
     <use xlink:href="#CMSS17-65" transform="translate(435.9356 -14.943915)scale(0.697382)"/>
     <use xlink:href="#CMMI12-3b" transform="translate(465.580778 0)scale(0.996264)"/>
     <use xlink:href="#CMMI12-4e" transform="translate(509.28236 0)scale(0.996264)"/>
     <use xlink:href="#CMR17-3d" transform="translate(625.478142 0)scale(0.996264)"/>
     <use xlink:href="#CMR17-31" transform="translate(724.866939 0)scale(0.996264)"/>
     <use xlink:href="#CMR17-33" transform="translate(770.557416 0)scale(0.996264)"/>
     <use xlink:href="#CMR17-32" transform="translate(816.247893 0)scale(0.996264)"/>
     <use xlink:href="#CMMI12-3a" transform="translate(861.93837 0)scale(0.996264)"/>
     <use xlink:href="#CMR17-30" transform="translate(889.035547 0)scale(0.996264)"/>
     <use xlink:href="#CMSS17-6b" transform="translate(934.726024 0)scale(0.996264)"/>
     <use xlink:href="#CMSS17-67" transform="translate(980.328514 0)scale(0.996264)"/>
     <use xlink:href="#CMSY10-0" transform="translate(1028.473303 36.153639)scale(0.697382)"/>
     <use xlink:href="#CMSS17-31" transform="translate(1082.714296 36.153639)scale(0.697382)"/>
     <use xlink:href="#CMSS17-79" transform="translate(1116.00281 0)scale(0.996264)"/>
     <use xlink:href="#CMSY10-0" transform="translate(1160.304118 36.153639)scale(0.697382)"/>
     <use xlink:href="#CMSS17-31" transform="translate(1214.545111 36.153639)scale(0.697382)"/>
     <use xlink:href="#CMMI12-3b" transform="translate(1247.833624 0)scale(0.996264)"/>
     <use xlink:href="#CMMI12-4e" transform="translate(1291.535207 0)scale(0.996264)"/>
     <use xlink:href="#CMR17-62" transform="translate(1369.650326 -14.943915)scale(0.697382)"/>
     <use xlink:href="#CMR17-6b" transform="translate(1405.276934 -14.943915)scale(0.697382)"/>
     <use xlink:href="#CMR17-67" transform="translate(1439.081821 -14.943915)scale(0.697382)"/>
     <use xlink:href="#CMR17-3d" transform="translate(1500.147959 0)scale(0.996264)"/>
     <use xlink:href="#CMR17-34" transform="translate(1599.536756 0)scale(0.996264)"/>
     <use xlink:href="#CMR17-34" transform="translate(1645.227233 0)scale(0.996264)"/>
     <use xlink:href="#CMMI12-3a" transform="translate(1690.91771 0)scale(0.996264)"/>
     <use xlink:href="#CMR17-33" transform="translate(1718.014887 0)scale(0.996264)"/>
     <use xlink:href="#CMSS17-6b" transform="translate(1763.705365 0)scale(0.996264)"/>
     <use xlink:href="#CMSS17-67" transform="translate(1809.307854 0)scale(0.996264)"/>
     <use xlink:href="#CMSY10-0" transform="translate(1857.452643 36.153639)scale(0.697382)"/>
     <use xlink:href="#CMSS17-31" transform="translate(1911.693637 36.153639)scale(0.697382)"/>
     <use xlink:href="#CMSS17-79" transform="translate(1944.98215 0)scale(0.996264)"/>
     <use xlink:href="#CMSY10-0" transform="translate(1989.283458 36.153639)scale(0.697382)"/>
     <use xlink:href="#CMSS17-31" transform="translate(2043.524451 36.153639)scale(0.697382)"/>
    </g>
   </g>
   <g id="patch_8">
    <path d="M 193.268182 259.7 
Q 190.143061 259.7 187.01794 259.7 
L 187.01794 260.2 
Q 181.019401 259.7 175.020862 259.2 
Q 181.019401 258.7 187.01794 258.2 
L 187.01794 258.7 
Q 190.143061 258.7 193.268182 258.7 
L 193.268182 259.7 
z
" style="stroke: #000000; stroke-linecap: round"/>
   </g>
   <g id="legend_1">
    <g id="patch_9">
     <path d="M 383.844277 117.917234 
L 536.7 117.917234 
Q 539.7 117.917234 539.7 114.917234 
L 539.7 53.7 
Q 539.7 50.7 536.7 50.7 
L 383.844277 50.7 
Q 380.844277 50.7 380.844277 53.7 
L 380.844277 114.917234 
Q 380.844277 117.917234 383.844277 117.917234 
z
" style="fill: #ffffff; opacity: 0.8; stroke: #cccccc; stroke-linejoin: miter"/>
    </g>
    <g id="line2d_25">
     <path d="M 386.844277 61.95 
L 401.844277 61.95 
L 416.844277 61.95 
" style="fill: none; stroke: #0000ff; stroke-width: 2; stroke-linecap: square"/>
    </g>
    <g id="text_15">
     <!-- $\mathrm{CE\nu NS}$ -->
     <g transform="translate(428.844277 67.2)scale(0.15 -0.15)">
      <defs>
       <path id="CMR17-43" d="M 3974 4351 
C 3974 4467 3968 4473 3930 4473 
C 3904 4473 3898 4467 3853 4390 
L 3571 3849 
C 3258 4249 2874 4480 2381 4480 
C 1286 4480 294 3507 294 2179 
C 294 837 1286 -128 2387 -128 
C 3366 -128 3974 741 3974 1482 
C 3974 1547 3974 1573 3917 1573 
C 3866 1573 3866 1553 3859 1495 
C 3808 592 3168 38 2477 38 
C 1824 38 781 502 781 2179 
C 781 3862 1843 4313 2464 4313 
C 3187 4313 3712 3681 3834 2785 
C 3846 2707 3846 2695 3904 2695 
C 3974 2695 3974 2707 3974 2824 
L 3974 4351 
z
" transform="scale(0.015625)"/>
       <path id="CMR17-45" d="M 3885 1614 
L 3770 1614 
C 3629 676 3546 166 2419 166 
L 1530 166 
C 1274 166 1261 198 1261 415 
L 1261 2176 
L 1862 2176 
C 2464 2176 2522 1959 2522 1429 
L 2637 1429 
L 2637 3086 
L 2522 3086 
C 2522 2558 2464 2342 1862 2342 
L 1261 2342 
L 1261 3924 
C 1261 4141 1274 4172 1530 4172 
L 2406 4172 
C 3398 4172 3514 3778 3603 2933 
L 3718 2933 
L 3565 4339 
L 326 4339 
L 326 4172 
C 768 4172 838 4172 838 3886 
L 838 453 
C 838 166 768 166 326 166 
L 326 0 
L 3654 0 
L 3885 1614 
z
" transform="scale(0.015625)"/>
       <path id="CMMI12-17" d="M 1408 2751 
C 1408 2777 1389 2816 1338 2816 
C 1293 2816 691 2758 595 2751 
C 525 2745 461 2739 461 2623 
C 461 2559 512 2559 602 2559 
C 902 2559 922 2515 922 2445 
C 922 2419 909 2343 902 2317 
L 339 64 
C 339 38 358 0 403 0 
L 538 0 
C 627 0 1600 230 2349 996 
C 3174 1845 3290 2630 3290 2655 
C 3290 2758 3206 2816 3123 2816 
C 2938 2816 2893 2643 2880 2598 
C 2502 1264 1626 472 774 192 
L 1408 2751 
z
" transform="scale(0.015625)"/>
       <path id="CMR17-53" d="M 2803 4351 
C 2803 4467 2797 4473 2758 4473 
C 2720 4473 2707 4447 2682 4390 
L 2490 3965 
C 2246 4320 1875 4480 1472 4480 
C 819 4480 294 3958 294 3301 
C 294 3101 339 2817 557 2546 
C 794 2250 1018 2198 1530 2063 
C 1722 2011 2042 1927 2106 1901 
C 2470 1747 2662 1360 2662 999 
C 2662 534 2336 38 1779 38 
C 1094 38 454 425 410 1328 
C 403 1431 397 1437 352 1437 
C 301 1437 294 1431 294 1302 
L 294 0 
C 294 -116 301 -122 339 -122 
C 384 -122 397 -90 486 109 
C 493 128 493 141 614 386 
C 934 -39 1472 -128 1779 -128 
C 2477 -128 2970 457 2970 1141 
C 2970 1476 2848 1734 2778 1850 
C 2509 2263 2221 2340 1914 2417 
C 1869 2437 1856 2437 1498 2527 
C 1152 2617 1005 2662 845 2836 
C 666 3036 602 3243 602 3449 
C 602 3868 934 4326 1478 4326 
C 2157 4326 2579 3842 2675 3036 
C 2694 2920 2701 2914 2746 2914 
C 2803 2914 2803 2933 2803 3043 
L 2803 4351 
z
" transform="scale(0.015625)"/>
      </defs>
      <use xlink:href="#CMR17-43" transform="scale(0.996264)"/>
      <use xlink:href="#CMR17-45" transform="translate(66.509881 0)scale(0.996264)"/>
      <use xlink:href="#CMMI12-17" transform="translate(129.096181 0)scale(0.996264)"/>
      <use xlink:href="#CMR17-4e" transform="translate(183.578974 0)scale(0.996264)"/>
      <use xlink:href="#CMR17-53" transform="translate(252.651404 0)scale(0.996264)"/>
     </g>
    </g>
    <g id="line2d_26">
     <path d="M 386.844277 82.855745 
L 401.844277 82.855745 
L 416.844277 82.855745 
" style="fill: none; stroke-dasharray: 12.8,3.2,2,3.2; stroke-dashoffset: 0; stroke: #ff0000; stroke-width: 2"/>
    </g>
    <g id="text_16">
     <!-- $\mathrm{CDEX\ 2018\ bkg}$ -->
     <g transform="translate(428.844277 88.105745)scale(0.15 -0.15)">
      <defs>
       <path id="CMR17-44" d="M 333 4352 
L 333 4185 
C 774 4185 845 4185 845 3898 
L 845 453 
C 845 166 774 166 333 166 
L 333 0 
L 2368 0 
C 3398 0 4224 943 4224 2140 
C 4224 3344 3411 4352 2368 4352 
L 333 4352 
z
M 1523 166 
C 1267 166 1254 198 1254 414 
L 1254 3936 
C 1254 4153 1267 4185 1523 4185 
L 2240 4185 
C 2771 4185 3750 3873 3750 2140 
C 3750 1242 3488 879 3366 707 
C 3213 510 2848 166 2240 166 
L 1523 166 
z
" transform="scale(0.015625)"/>
       <path id="CMR17-58" d="M 2336 2414 
L 3283 3771 
C 3379 3905 3571 4178 4096 4185 
L 4096 4352 
C 3949 4339 3706 4339 3552 4339 
C 3341 4339 3078 4339 2918 4352 
L 2918 4185 
C 3123 4166 3174 4038 3174 3936 
C 3174 3860 3142 3809 3098 3745 
L 2253 2529 
L 1306 3905 
C 1261 3975 1254 3994 1254 4013 
C 1254 4070 1325 4178 1536 4185 
L 1536 4352 
C 1331 4339 1018 4339 806 4339 
C 640 4339 320 4339 166 4352 
L 166 4185 
C 518 4185 634 4172 774 3975 
L 2010 2179 
L 896 567 
C 621 172 205 166 83 166 
L 83 0 
C 230 12 474 12 627 12 
C 800 12 1101 12 1261 0 
L 1261 166 
C 1062 185 1005 312 1005 414 
C 1005 497 1037 542 1069 586 
L 2093 2064 
L 3206 446 
C 3258 376 3258 357 3258 338 
C 3258 287 3200 179 2976 166 
L 2976 0 
C 3181 12 3494 12 3706 12 
C 3872 12 4192 12 4346 0 
L 4346 166 
C 3936 166 3872 198 3744 376 
L 2336 2414 
z
" transform="scale(0.015625)"/>
      </defs>
      <use xlink:href="#CMR17-43" transform="scale(0.996264)"/>
      <use xlink:href="#CMR17-44" transform="translate(66.509881 0)scale(0.996264)"/>
      <use xlink:href="#CMR17-45" transform="translate(136.903436 0)scale(0.996264)"/>
      <use xlink:href="#CMR17-58" transform="translate(199.489737 0)scale(0.996264)"/>
      <use xlink:href="#CMR17-32" transform="translate(299.79128 0)scale(0.996264)"/>
      <use xlink:href="#CMR17-30" transform="translate(345.481757 0)scale(0.996264)"/>
      <use xlink:href="#CMR17-31" transform="translate(391.172234 0)scale(0.996264)"/>
      <use xlink:href="#CMR17-38" transform="translate(436.862711 0)scale(0.996264)"/>
      <use xlink:href="#CMR17-62" transform="translate(513.782301 0)scale(0.996264)"/>
      <use xlink:href="#CMR17-6b" transform="translate(564.677671 0)scale(0.996264)"/>
      <use xlink:href="#CMR17-67" transform="translate(612.970586 0)scale(0.996264)"/>
     </g>
    </g>
    <g id="patch_10">
     <path d="M 386.844277 109.011489 
L 416.844277 109.011489 
L 416.844277 98.511489 
L 386.844277 98.511489 
z
" style="fill: #1f77b4; fill-opacity: 0.5"/>
    </g>
    <g id="text_17">
     <!-- $\mathrm{CE\nu NS\ ROI}$ -->
     <g transform="translate(428.844277 109.011489)scale(0.15 -0.15)">
      <defs>
       <path id="CMR17-4f" d="M 4307 2166 
C 4307 3488 3366 4480 2304 4480 
C 1216 4480 294 3475 294 2166 
C 294 857 1229 -128 2298 -128 
C 3392 -128 4307 876 4307 2166 
z
M 2304 -13 
C 1574 -13 781 722 781 2250 
C 781 3771 1651 4364 2298 4364 
C 2976 4364 3821 3752 3821 2250 
C 3821 696 3008 -13 2304 -13 
z
" transform="scale(0.015625)"/>
       <path id="CMR17-49" d="M 1261 3898 
C 1261 4185 1338 4185 1798 4185 
L 1798 4352 
C 1594 4339 1267 4339 1050 4339 
C 832 4339 506 4339 301 4352 
L 301 4185 
C 762 4185 838 4185 838 3898 
L 838 453 
C 838 166 762 166 301 166 
L 301 0 
C 506 12 832 12 1050 12 
C 1267 12 1594 12 1798 0 
L 1798 166 
C 1338 166 1261 166 1261 453 
L 1261 3898 
z
" transform="scale(0.015625)"/>
      </defs>
      <use xlink:href="#CMR17-43" transform="scale(0.996264)"/>
      <use xlink:href="#CMR17-45" transform="translate(66.509881 0)scale(0.996264)"/>
      <use xlink:href="#CMMI12-17" transform="translate(129.096181 0)scale(0.996264)"/>
      <use xlink:href="#CMR17-4e" transform="translate(183.578974 0)scale(0.996264)"/>
      <use xlink:href="#CMR17-53" transform="translate(252.651404 0)scale(0.996264)"/>
      <use xlink:href="#CMR17-52" transform="translate(334.775886 0)scale(0.996264)"/>
      <use xlink:href="#CMR17-4f" transform="translate(399.964534 0)scale(0.996264)"/>
      <use xlink:href="#CMR17-49" transform="translate(471.679323 0)scale(0.996264)"/>
     </g>
    </g>
   </g>
  </g>
  <g id="axes_2">
   <g id="matplotlib.axis_3"/>
   <g id="patch_11">
    <path d="M 86.4 367.2 
L 86.4 43.2 
" style="fill: none; stroke: #000000; stroke-width: 0.8; stroke-linejoin: miter; stroke-linecap: square"/>
   </g>
   <g id="patch_12">
    <path d="M 547.2 367.2 
L 547.2 43.2 
" style="fill: none; stroke: #000000; stroke-width: 0.8; stroke-linejoin: miter; stroke-linecap: square"/>
   </g>
   <g id="patch_13">
    <path d="M 86.4 367.2 
L 547.2 367.2 
" style="fill: none; stroke: #000000; stroke-width: 0.8; stroke-linejoin: miter; stroke-linecap: square"/>
   </g>
   <g id="patch_14">
    <path d="M 86.4 43.2 
L 547.2 43.2 
" style="fill: none; stroke: #000000; stroke-width: 0.8; stroke-linejoin: miter; stroke-linecap: square"/>
   </g>
  </g>
 </g>
 <defs>
  <clipPath id="p7b93bcea5b">
   <rect x="86.4" y="43.2" width="460.8" height="324"/>
  </clipPath>
 </defs>
</svg>
