<?xml version="1.0" encoding="utf-8" standalone="no"?>
<!DOCTYPE svg PUBLIC "-//W3C//DTD SVG 1.1//EN"
  "http://www.w3.org/Graphics/SVG/1.1/DTD/svg11.dtd">
<svg xmlns:xlink="http://www.w3.org/1999/xlink" width="576pt" height="432pt" viewBox="0 0 576 432" xmlns="http://www.w3.org/2000/svg" version="1.1">
 <metadata>
  <rdf:RDF xmlns:dc="http://purl.org/dc/elements/1.1/" xmlns:cc="http://creativecommons.org/ns#" xmlns:rdf="http://www.w3.org/1999/02/22-rdf-syntax-ns#">
   <cc:Work>
    <dc:type rdf:resource="http://purl.org/dc/dcmitype/StillImage"/>
    <dc:date>2022-05-24T17:07:24.107779</dc:date>
    <dc:format>image/svg+xml</dc:format>
    <dc:creator>
     <cc:Agent>
      <dc:title>Matplotlib v3.5.1, https://matplotlib.org/</dc:title>
     </cc:Agent>
    </dc:creator>
   </cc:Work>
  </rdf:RDF>
 </metadata>
 <defs>
  <style type="text/css">*{stroke-linejoin: round; stroke-linecap: butt}</style>
 </defs>
 <g id="figure_1">
  <g id="patch_1">
   <path d="M 0 432 
L 576 432 
L 576 0 
L 0 0 
L 0 432 
z
" style="fill: none"/>
  </g>
  <g id="axes_1">
   <g id="patch_2">
    <path d="M 86.4 367.2 
L 547.2 367.2 
L 547.2 43.2 
L 86.4 43.2 
L 86.4 367.2 
z
" style="fill: none"/>
   </g>
   <g id="matplotlib.axis_1">
    <g id="xtick_1">
     <g id="line2d_1">
      <path d="M 86.4 367.2 
L 86.4 43.2 
" clip-path="url(#p60032b4a8d)" style="fill: none; stroke: #b0b0b0; stroke-width: 0.8; stroke-linecap: square"/>
     </g>
     <g id="line2d_2">
      <defs>
       <path id="mc604896c15" d="M 0 0 
L 0 3.5 
" style="stroke: #000000; stroke-width: 0.8"/>
      </defs>
      <g>
       <use xlink:href="#mc604896c15" x="86.4" y="367.2" style="stroke: #000000; stroke-width: 0.8"/>
      </g>
     </g>
     <g id="text_1">
      <!-- $\mathdefault{0}$ -->
      <g transform="translate(81.830952 388.036997)scale(0.2 -0.2)">
       <defs>
        <path id="CMR17-30" d="M 2688 2038 
C 2688 2430 2682 3099 2413 3613 
C 2176 4063 1798 4224 1466 4224 
C 1158 4224 768 4082 525 3620 
C 269 3137 243 2539 243 2038 
C 243 1671 250 1112 448 623 
C 723 -39 1216 -128 1466 -128 
C 1760 -128 2208 -7 2470 604 
C 2662 1048 2688 1568 2688 2038 
z
M 1466 -26 
C 1056 -26 813 328 723 816 
C 653 1196 653 1749 653 2109 
C 653 2604 653 3015 736 3407 
C 858 3954 1216 4121 1466 4121 
C 1728 4121 2067 3947 2189 3420 
C 2272 3054 2278 2623 2278 2109 
C 2278 1691 2278 1176 2202 797 
C 2067 96 1690 -26 1466 -26 
z
" transform="scale(0.015625)"/>
       </defs>
       <use xlink:href="#CMR17-30" transform="scale(0.996264)"/>
      </g>
     </g>
    </g>
    <g id="xtick_2">
     <g id="line2d_3">
      <path d="M 201.6 367.2 
L 201.6 43.2 
" clip-path="url(#p60032b4a8d)" style="fill: none; stroke: #b0b0b0; stroke-width: 0.8; stroke-linecap: square"/>
     </g>
     <g id="line2d_4">
      <g>
       <use xlink:href="#mc604896c15" x="201.6" y="367.2" style="stroke: #000000; stroke-width: 0.8"/>
      </g>
     </g>
     <g id="text_2">
      <!-- $\mathdefault{5000}$ -->
      <g transform="translate(183.323809 388.036997)scale(0.2 -0.2)">
       <defs>
        <path id="CMR17-35" d="M 730 3750 
C 794 3724 1056 3641 1325 3641 
C 1920 3641 2246 3961 2432 4140 
C 2432 4191 2432 4224 2394 4224 
C 2387 4224 2374 4224 2323 4198 
C 2099 4102 1837 4032 1517 4032 
C 1325 4032 1037 4055 723 4191 
C 653 4224 640 4224 634 4224 
C 602 4224 595 4217 595 4090 
L 595 2231 
C 595 2113 595 2080 659 2080 
C 691 2080 704 2093 736 2139 
C 941 2435 1222 2560 1542 2560 
C 1766 2560 2246 2415 2246 1293 
C 2246 1087 2246 716 2054 422 
C 1894 159 1645 25 1370 25 
C 947 25 518 319 403 812 
C 429 806 480 793 506 793 
C 589 793 749 838 749 1036 
C 749 1209 627 1280 506 1280 
C 358 1280 262 1190 262 1011 
C 262 454 704 -128 1382 -128 
C 2042 -128 2669 441 2669 1267 
C 2669 2054 2170 2662 1549 2662 
C 1222 2662 947 2540 730 2304 
L 730 3750 
z
" transform="scale(0.015625)"/>
       </defs>
       <use xlink:href="#CMR17-35" transform="scale(0.996264)"/>
       <use xlink:href="#CMR17-30" transform="translate(45.690477 0)scale(0.996264)"/>
       <use xlink:href="#CMR17-30" transform="translate(91.380954 0)scale(0.996264)"/>
       <use xlink:href="#CMR17-30" transform="translate(137.071431 0)scale(0.996264)"/>
      </g>
     </g>
    </g>
    <g id="xtick_3">
     <g id="line2d_5">
      <path d="M 316.8 367.2 
L 316.8 43.2 
" clip-path="url(#p60032b4a8d)" style="fill: none; stroke: #b0b0b0; stroke-width: 0.8; stroke-linecap: square"/>
     </g>
     <g id="line2d_6">
      <g>
       <use xlink:href="#mc604896c15" x="316.8" y="367.2" style="stroke: #000000; stroke-width: 0.8"/>
      </g>
     </g>
     <g id="text_3">
      <!-- $\mathdefault{10000}$ -->
      <g transform="translate(293.954761 388.036997)scale(0.2 -0.2)">
       <defs>
        <path id="CMR17-31" d="M 1702 4083 
C 1702 4217 1696 4224 1606 4224 
C 1357 3927 979 3833 621 3820 
C 602 3820 570 3820 563 3808 
C 557 3795 557 3782 557 3648 
C 755 3648 1088 3686 1344 3839 
L 1344 467 
C 1344 243 1331 166 781 166 
L 589 166 
L 589 0 
C 896 6 1216 12 1523 12 
C 1830 12 2150 6 2458 0 
L 2458 166 
L 2266 166 
C 1715 166 1702 236 1702 467 
L 1702 4083 
z
" transform="scale(0.015625)"/>
       </defs>
       <use xlink:href="#CMR17-31" transform="scale(0.996264)"/>
       <use xlink:href="#CMR17-30" transform="translate(45.690477 0)scale(0.996264)"/>
       <use xlink:href="#CMR17-30" transform="translate(91.380954 0)scale(0.996264)"/>
       <use xlink:href="#CMR17-30" transform="translate(137.071431 0)scale(0.996264)"/>
       <use xlink:href="#CMR17-30" transform="translate(182.761908 0)scale(0.996264)"/>
      </g>
     </g>
    </g>
    <g id="xtick_4">
     <g id="line2d_7">
      <path d="M 432 367.2 
L 432 43.2 
" clip-path="url(#p60032b4a8d)" style="fill: none; stroke: #b0b0b0; stroke-width: 0.8; stroke-linecap: square"/>
     </g>
     <g id="line2d_8">
      <g>
       <use xlink:href="#mc604896c15" x="432" y="367.2" style="stroke: #000000; stroke-width: 0.8"/>
      </g>
     </g>
     <g id="text_4">
      <!-- $\mathdefault{15000}$ -->
      <g transform="translate(409.154761 388.036997)scale(0.2 -0.2)">
       <use xlink:href="#CMR17-31" transform="scale(0.996264)"/>
       <use xlink:href="#CMR17-35" transform="translate(45.690477 0)scale(0.996264)"/>
       <use xlink:href="#CMR17-30" transform="translate(91.380954 0)scale(0.996264)"/>
       <use xlink:href="#CMR17-30" transform="translate(137.071431 0)scale(0.996264)"/>
       <use xlink:href="#CMR17-30" transform="translate(182.761908 0)scale(0.996264)"/>
      </g>
     </g>
    </g>
    <g id="xtick_5">
     <g id="line2d_9">
      <path d="M 547.2 367.2 
L 547.2 43.2 
" clip-path="url(#p60032b4a8d)" style="fill: none; stroke: #b0b0b0; stroke-width: 0.8; stroke-linecap: square"/>
     </g>
     <g id="line2d_10">
      <g>
       <use xlink:href="#mc604896c15" x="547.2" y="367.2" style="stroke: #000000; stroke-width: 0.8"/>
      </g>
     </g>
     <g id="text_5">
      <!-- $\mathdefault{20000}$ -->
      <g transform="translate(524.354761 388.036997)scale(0.2 -0.2)">
       <defs>
        <path id="CMR17-32" d="M 2669 990 
L 2554 990 
C 2490 537 2438 460 2413 422 
C 2381 371 1920 371 1830 371 
L 602 371 
C 832 620 1280 1073 1824 1596 
C 2214 1966 2669 2400 2669 3033 
C 2669 3788 2067 4224 1395 4224 
C 691 4224 262 3603 262 3027 
C 262 2777 448 2745 525 2745 
C 589 2745 781 2783 781 3007 
C 781 3206 614 3264 525 3264 
C 486 3264 448 3257 422 3244 
C 544 3788 915 4057 1306 4057 
C 1862 4057 2227 3616 2227 3033 
C 2227 2477 1901 1998 1536 1583 
L 262 147 
L 262 0 
L 2515 0 
L 2669 990 
z
" transform="scale(0.015625)"/>
       </defs>
       <use xlink:href="#CMR17-32" transform="scale(0.996264)"/>
       <use xlink:href="#CMR17-30" transform="translate(45.690477 0)scale(0.996264)"/>
       <use xlink:href="#CMR17-30" transform="translate(91.380954 0)scale(0.996264)"/>
       <use xlink:href="#CMR17-30" transform="translate(137.071431 0)scale(0.996264)"/>
       <use xlink:href="#CMR17-30" transform="translate(182.761908 0)scale(0.996264)"/>
      </g>
     </g>
    </g>
    <g id="text_6">
     <!-- $\mathrm{Burn\ up}\ [\si{MWD/TU}]$ -->
     <g transform="translate(233.755384 410.856591)scale(0.2 -0.2)">
      <defs>
       <path id="CMR17-42" d="M 333 4352 
L 333 4185 
C 774 4185 845 4185 845 3897 
L 845 451 
C 845 166 774 166 333 166 
L 333 0 
L 2534 0 
C 3354 0 3885 578 3885 1155 
C 3885 1726 3360 2214 2675 2259 
C 3290 2380 3718 2790 3718 3276 
C 3718 3808 3194 4352 2368 4352 
L 333 4352 
z
M 1248 2304 
L 1248 3936 
C 1248 4153 1261 4185 1517 4185 
L 2336 4185 
C 2970 4185 3251 3673 3251 3276 
C 3251 2790 2861 2304 2170 2304 
L 1248 2304 
z
M 1517 166 
C 1261 166 1248 198 1248 413 
L 1248 2201 
L 2432 2201 
C 3091 2201 3411 1624 3411 1161 
C 3411 698 3046 166 2349 166 
L 1517 166 
z
" transform="scale(0.015625)"/>
       <path id="CMR17-75" d="M 1882 2745 
L 1882 2579 
C 2259 2579 2317 2540 2317 2229 
L 2317 1053 
C 2317 510 2029 38 1555 38 
C 1030 38 986 355 986 691 
L 986 2816 
L 211 2745 
L 211 2579 
C 467 2579 640 2579 646 2320 
L 646 1079 
C 646 646 646 368 813 187 
C 896 103 1056 -64 1517 -64 
C 2061 -64 2272 400 2323 536 
L 2330 536 
L 2330 -64 
L 3091 -13 
L 3091 154 
C 2714 154 2656 193 2656 503 
L 2656 2816 
L 1882 2745 
z
" transform="scale(0.015625)"/>
       <path id="CMR17-72" d="M 960 1517 
C 960 2134 1222 2713 1702 2713 
C 1747 2713 1792 2707 1837 2687 
C 1837 2687 1696 2642 1696 2475 
C 1696 2321 1818 2257 1914 2257 
C 1990 2257 2131 2302 2131 2482 
C 2131 2687 1926 2816 1709 2816 
C 1222 2816 1011 2340 947 2115 
L 941 2115 
L 941 2816 
L 198 2745 
L 198 2578 
C 576 2578 634 2540 634 2231 
L 634 443 
C 634 198 608 166 198 166 
L 198 0 
C 352 12 646 12 813 12 
C 998 12 1325 12 1498 0 
L 1498 166 
C 1037 166 960 166 960 455 
L 960 1517 
z
" transform="scale(0.015625)"/>
       <path id="CMR17-6e" d="M 2656 1954 
C 2656 2282 2592 2816 1837 2816 
C 1331 2816 1069 2424 973 2166 
L 966 2166 
L 966 2816 
L 211 2745 
L 211 2578 
C 589 2578 646 2540 646 2231 
L 646 443 
C 646 198 621 166 211 166 
L 211 0 
C 365 12 646 12 813 12 
C 979 12 1267 12 1421 0 
L 1421 166 
C 1011 166 986 192 986 443 
L 986 1678 
C 986 2269 1344 2713 1792 2713 
C 2266 2713 2317 2289 2317 1980 
L 2317 443 
C 2317 198 2291 166 1882 166 
L 1882 0 
C 2035 12 2317 12 2483 12 
C 2650 12 2938 12 3091 0 
L 3091 166 
C 2682 166 2656 192 2656 443 
L 2656 1954 
z
" transform="scale(0.015625)"/>
       <path id="CMR17-70" d="M 1408 -1114 
C 998 -1114 973 -1088 973 -834 
L 973 380 
C 1158 109 1427 -64 1766 -64 
C 2406 -64 3053 503 3053 1382 
C 3053 2196 2496 2816 1837 2816 
C 1453 2816 1139 2603 960 2345 
L 960 2816 
L 198 2745 
L 198 2577 
C 576 2577 634 2539 634 2228 
L 634 -834 
C 634 -1081 608 -1114 198 -1114 
L 198 -1280 
C 352 -1268 634 -1268 800 -1268 
C 966 -1268 1254 -1268 1408 -1280 
L 1408 -1114 
z
M 973 2015 
C 973 2106 973 2241 1222 2481 
C 1254 2506 1472 2700 1792 2700 
C 2259 2700 2643 2112 2643 1376 
C 2643 639 2234 38 1728 38 
C 1498 38 1248 148 1056 451 
C 973 594 973 632 973 736 
L 973 2015 
z
" transform="scale(0.015625)"/>
       <path id="CMR17-5b" d="M 1504 -1600 
L 1504 -1376 
L 902 -1376 
L 902 4575 
L 1504 4575 
L 1504 4800 
L 678 4800 
L 678 -1600 
L 1504 -1600 
z
" transform="scale(0.015625)"/>
       <path id="CMSS17-4d" d="M 3194 2373 
L 2886 1476 
C 2835 1311 2662 795 2624 592 
L 2618 592 
C 2598 719 2560 853 2458 1177 
C 2400 1368 2336 1565 2272 1743 
L 1325 4416 
L 576 4416 
L 576 0 
L 1075 0 
L 1075 3899 
L 1082 3899 
C 1082 3893 1139 3613 1530 2500 
L 2374 102 
L 2848 102 
L 3610 2233 
C 3661 2379 3821 2843 3891 3066 
C 3955 3257 4115 3728 4154 3912 
L 4160 3912 
L 4160 0 
L 4666 0 
L 4666 4416 
L 3923 4416 
L 3194 2373 
z
" transform="scale(0.015625)"/>
       <path id="CMSS17-57" d="M 5581 4416 
L 5094 4416 
L 4557 2436 
C 4474 2118 4397 1800 4320 1482 
C 4205 1012 4122 681 4109 516 
L 4102 516 
C 4090 687 4006 1050 3904 1457 
C 3827 1794 3744 2131 3654 2462 
L 3123 4416 
L 2586 4416 
L 2080 2564 
L 1824 1552 
C 1632 751 1626 636 1613 509 
L 1606 509 
C 1606 547 1581 757 1402 1501 
C 1312 1870 1222 2246 1126 2602 
L 634 4416 
L 83 4416 
L 1299 0 
L 1830 0 
L 2336 1838 
L 2592 2850 
C 2765 3562 2803 3740 2816 3899 
L 2822 3899 
C 2822 3874 2880 3473 3130 2544 
L 3808 0 
L 4365 0 
L 5581 4416 
z
" transform="scale(0.015625)"/>
       <path id="CMSS17-44" d="M 570 4416 
L 570 0 
L 2144 0 
C 3194 0 4000 981 4000 2169 
C 4000 3396 3194 4416 2144 4416 
L 570 4416 
z
M 1094 358 
L 1094 4057 
L 2003 4057 
C 2861 4057 3475 3275 3475 2169 
C 3475 1108 2867 358 2003 358 
L 1094 358 
z
" transform="scale(0.015625)"/>
       <path id="CMMI12-3d" d="M 2746 4563 
C 2746 4569 2784 4665 2784 4678 
C 2784 4755 2720 4800 2669 4800 
C 2637 4800 2579 4800 2528 4659 
L 384 -1364 
C 384 -1370 346 -1466 346 -1479 
C 346 -1556 410 -1600 461 -1600 
C 499 -1600 557 -1594 602 -1460 
L 2746 4563 
z
" transform="scale(0.015625)"/>
       <path id="CMSS17-54" d="M 2317 3987 
L 2848 3987 
C 2925 3987 3002 3980 3078 3980 
L 3878 3980 
L 3878 4396 
L 218 4396 
L 218 3980 
L 1018 3980 
C 1094 3980 1171 3987 1248 3987 
L 1779 3987 
L 1779 0 
L 2317 0 
L 2317 3987 
z
" transform="scale(0.015625)"/>
       <path id="CMSS17-55" d="M 3552 4416 
L 3066 4416 
L 3066 1459 
C 3066 608 2547 230 2074 230 
C 1587 230 1101 627 1101 1452 
L 1101 4416 
L 563 4416 
L 563 1465 
C 563 544 1274 -128 2067 -128 
C 2861 -128 3552 544 3552 1465 
L 3552 4416 
z
" transform="scale(0.015625)"/>
       <path id="CMR17-5d" d="M 915 4800 
L 90 4800 
L 90 4575 
L 691 4575 
L 691 -1376 
L 90 -1376 
L 90 -1600 
L 915 -1600 
L 915 4800 
z
" transform="scale(0.015625)"/>
      </defs>
      <use xlink:href="#CMR17-42" transform="scale(0.996264)"/>
      <use xlink:href="#CMR17-75" transform="translate(65.188754 0)scale(0.996264)"/>
      <use xlink:href="#CMR17-72" transform="translate(116.084124 0)scale(0.996264)"/>
      <use xlink:href="#CMR17-6e" transform="translate(151.364892 0)scale(0.996264)"/>
      <use xlink:href="#CMR17-75" transform="translate(233.489375 0)scale(0.996264)"/>
      <use xlink:href="#CMR17-70" transform="translate(284.384744 0)scale(0.996264)"/>
      <use xlink:href="#CMR17-5b" transform="translate(366.509227 0)scale(0.996264)"/>
      <use xlink:href="#CMSS17-4d" transform="translate(391.380285 0)scale(0.996264)"/>
      <use xlink:href="#CMSS17-57" transform="translate(473.056315 0)scale(0.996264)"/>
      <use xlink:href="#CMSS17-44" transform="translate(561.298482 0)scale(0.996264)"/>
      <use xlink:href="#CMMI12-3d" transform="translate(628.841323 0)scale(0.996264)"/>
      <use xlink:href="#CMSS17-54" transform="translate(677.616242 0)scale(0.996264)"/>
      <use xlink:href="#CMSS17-55" transform="translate(741.435696 0)scale(0.996264)"/>
      <use xlink:href="#CMR17-5d" transform="translate(805.575436 0)scale(0.996264)"/>
     </g>
    </g>
   </g>
   <g id="matplotlib.axis_2">
    <g id="ytick_1">
     <g id="line2d_11">
      <path d="M 86.4 326.956217 
L 547.2 326.956217 
" clip-path="url(#p60032b4a8d)" style="fill: none; stroke: #b0b0b0; stroke-width: 0.8; stroke-linecap: square"/>
     </g>
     <g id="line2d_12">
      <defs>
       <path id="mad6c952563" d="M 0 0 
L -3.5 0 
" style="stroke: #000000; stroke-width: 0.8"/>
      </defs>
      <g>
       <use xlink:href="#mad6c952563" x="86.4" y="326.956217" style="stroke: #000000; stroke-width: 0.8"/>
      </g>
     </g>
     <g id="text_7">
      <!-- $\mathdefault{0.1}$ -->
      <g transform="translate(55.704374 333.874715)scale(0.2 -0.2)">
       <defs>
        <path id="CMMI12-3a" d="M 1178 307 
C 1178 492 1024 620 870 620 
C 685 620 557 467 557 313 
C 557 128 710 0 864 0 
C 1050 0 1178 153 1178 307 
z
" transform="scale(0.015625)"/>
       </defs>
       <use xlink:href="#CMR17-30" transform="scale(0.996264)"/>
       <use xlink:href="#CMMI12-3a" transform="translate(45.690477 0)scale(0.996264)"/>
       <use xlink:href="#CMR17-31" transform="translate(72.787654 0)scale(0.996264)"/>
      </g>
     </g>
    </g>
    <g id="ytick_2">
     <g id="line2d_13">
      <path d="M 86.4 284.594339 
L 547.2 284.594339 
" clip-path="url(#p60032b4a8d)" style="fill: none; stroke: #b0b0b0; stroke-width: 0.8; stroke-linecap: square"/>
     </g>
     <g id="line2d_14">
      <g>
       <use xlink:href="#mad6c952563" x="86.4" y="284.594339" style="stroke: #000000; stroke-width: 0.8"/>
      </g>
     </g>
     <g id="text_8">
      <!-- $\mathdefault{0.2}$ -->
      <g transform="translate(55.704374 291.512838)scale(0.2 -0.2)">
       <use xlink:href="#CMR17-30" transform="scale(0.996264)"/>
       <use xlink:href="#CMMI12-3a" transform="translate(45.690477 0)scale(0.996264)"/>
       <use xlink:href="#CMR17-32" transform="translate(72.787654 0)scale(0.996264)"/>
      </g>
     </g>
    </g>
    <g id="ytick_3">
     <g id="line2d_15">
      <path d="M 86.4 242.232462 
L 547.2 242.232462 
" clip-path="url(#p60032b4a8d)" style="fill: none; stroke: #b0b0b0; stroke-width: 0.8; stroke-linecap: square"/>
     </g>
     <g id="line2d_16">
      <g>
       <use xlink:href="#mad6c952563" x="86.4" y="242.232462" style="stroke: #000000; stroke-width: 0.8"/>
      </g>
     </g>
     <g id="text_9">
      <!-- $\mathdefault{0.3}$ -->
      <g transform="translate(55.704374 249.15096)scale(0.2 -0.2)">
       <defs>
        <path id="CMR17-33" d="M 1414 2176 
C 1984 2176 2234 1673 2234 1094 
C 2234 322 1824 25 1453 25 
C 1114 25 563 193 390 691 
C 422 678 454 678 486 678 
C 640 678 755 780 755 947 
C 755 1132 614 1216 486 1216 
C 378 1216 211 1164 211 927 
C 211 335 787 -128 1466 -128 
C 2176 -128 2720 432 2720 1087 
C 2720 1718 2208 2176 1600 2246 
C 2086 2347 2554 2776 2554 3353 
C 2554 3856 2048 4224 1472 4224 
C 890 4224 378 3862 378 3347 
C 378 3123 544 3084 627 3084 
C 762 3084 877 3167 877 3334 
C 877 3500 762 3584 627 3584 
C 602 3584 570 3584 544 3571 
C 730 3999 1235 4076 1459 4076 
C 1683 4076 2106 3966 2106 3347 
C 2106 3167 2080 2851 1862 2574 
C 1670 2329 1453 2316 1242 2297 
C 1210 2297 1062 2284 1037 2284 
C 992 2278 966 2272 966 2227 
C 966 2182 973 2176 1101 2176 
L 1414 2176 
z
" transform="scale(0.015625)"/>
       </defs>
       <use xlink:href="#CMR17-30" transform="scale(0.996264)"/>
       <use xlink:href="#CMMI12-3a" transform="translate(45.690477 0)scale(0.996264)"/>
       <use xlink:href="#CMR17-33" transform="translate(72.787654 0)scale(0.996264)"/>
      </g>
     </g>
    </g>
    <g id="ytick_4">
     <g id="line2d_17">
      <path d="M 86.4 199.870585 
L 547.2 199.870585 
" clip-path="url(#p60032b4a8d)" style="fill: none; stroke: #b0b0b0; stroke-width: 0.8; stroke-linecap: square"/>
     </g>
     <g id="line2d_18">
      <g>
       <use xlink:href="#mad6c952563" x="86.4" y="199.870585" style="stroke: #000000; stroke-width: 0.8"/>
      </g>
     </g>
     <g id="text_10">
      <!-- $\mathdefault{0.4}$ -->
      <g transform="translate(55.704374 206.789083)scale(0.2 -0.2)">
       <defs>
        <path id="CMR17-34" d="M 2150 4147 
C 2150 4281 2144 4288 2029 4288 
L 128 1254 
L 128 1088 
L 1779 1088 
L 1779 460 
C 1779 230 1766 166 1318 166 
L 1197 166 
L 1197 0 
C 1402 12 1747 12 1965 12 
C 2182 12 2528 12 2733 0 
L 2733 166 
L 2611 166 
C 2163 166 2150 230 2150 460 
L 2150 1088 
L 2803 1088 
L 2803 1254 
L 2150 1254 
L 2150 4147 
z
M 1798 3723 
L 1798 1254 
L 256 1254 
L 1798 3723 
z
" transform="scale(0.015625)"/>
       </defs>
       <use xlink:href="#CMR17-30" transform="scale(0.996264)"/>
       <use xlink:href="#CMMI12-3a" transform="translate(45.690477 0)scale(0.996264)"/>
       <use xlink:href="#CMR17-34" transform="translate(72.787654 0)scale(0.996264)"/>
      </g>
     </g>
    </g>
    <g id="ytick_5">
     <g id="line2d_19">
      <path d="M 86.4 157.508707 
L 547.2 157.508707 
" clip-path="url(#p60032b4a8d)" style="fill: none; stroke: #b0b0b0; stroke-width: 0.8; stroke-linecap: square"/>
     </g>
     <g id="line2d_20">
      <g>
       <use xlink:href="#mad6c952563" x="86.4" y="157.508707" style="stroke: #000000; stroke-width: 0.8"/>
      </g>
     </g>
     <g id="text_11">
      <!-- $\mathdefault{0.5}$ -->
      <g transform="translate(55.704374 164.427206)scale(0.2 -0.2)">
       <use xlink:href="#CMR17-30" transform="scale(0.996264)"/>
       <use xlink:href="#CMMI12-3a" transform="translate(45.690477 0)scale(0.996264)"/>
       <use xlink:href="#CMR17-35" transform="translate(72.787654 0)scale(0.996264)"/>
      </g>
     </g>
    </g>
    <g id="ytick_6">
     <g id="line2d_21">
      <path d="M 86.4 115.14683 
L 547.2 115.14683 
" clip-path="url(#p60032b4a8d)" style="fill: none; stroke: #b0b0b0; stroke-width: 0.8; stroke-linecap: square"/>
     </g>
     <g id="line2d_22">
      <g>
       <use xlink:href="#mad6c952563" x="86.4" y="115.14683" style="stroke: #000000; stroke-width: 0.8"/>
      </g>
     </g>
     <g id="text_12">
      <!-- $\mathdefault{0.6}$ -->
      <g transform="translate(55.704374 122.065328)scale(0.2 -0.2)">
       <defs>
        <path id="CMR17-36" d="M 678 2198 
C 678 3712 1395 4076 1811 4076 
C 1946 4076 2272 4049 2400 3782 
C 2298 3782 2106 3782 2106 3558 
C 2106 3385 2246 3328 2336 3328 
C 2394 3328 2566 3353 2566 3571 
C 2566 3987 2246 4224 1805 4224 
C 1043 4224 243 3411 243 2011 
C 243 257 966 -128 1478 -128 
C 2099 -128 2688 431 2688 1295 
C 2688 2101 2170 2688 1517 2688 
C 1126 2688 838 2430 678 1979 
L 678 2198 
z
M 1478 25 
C 691 25 691 1212 691 1450 
C 691 1914 909 2585 1504 2585 
C 1613 2585 1926 2585 2138 2140 
C 2253 1889 2253 1624 2253 1302 
C 2253 954 2253 696 2118 438 
C 1978 173 1773 25 1478 25 
z
" transform="scale(0.015625)"/>
       </defs>
       <use xlink:href="#CMR17-30" transform="scale(0.996264)"/>
       <use xlink:href="#CMMI12-3a" transform="translate(45.690477 0)scale(0.996264)"/>
       <use xlink:href="#CMR17-36" transform="translate(72.787654 0)scale(0.996264)"/>
      </g>
     </g>
    </g>
    <g id="ytick_7">
     <g id="line2d_23">
      <path d="M 86.4 72.784953 
L 547.2 72.784953 
" clip-path="url(#p60032b4a8d)" style="fill: none; stroke: #b0b0b0; stroke-width: 0.8; stroke-linecap: square"/>
     </g>
     <g id="line2d_24">
      <g>
       <use xlink:href="#mad6c952563" x="86.4" y="72.784953" style="stroke: #000000; stroke-width: 0.8"/>
      </g>
     </g>
     <g id="text_13">
      <!-- $\mathdefault{0.7}$ -->
      <g transform="translate(55.704374 79.703451)scale(0.2 -0.2)">
       <defs>
        <path id="CMR17-37" d="M 2886 3955 
L 2886 4096 
L 1382 4096 
C 634 4096 621 4166 595 4288 
L 480 4288 
L 294 3104 
L 410 3104 
C 429 3226 474 3552 550 3673 
C 589 3724 1062 3724 1171 3724 
L 2579 3724 
L 1869 2670 
C 1395 1961 1069 1003 1069 166 
C 1069 89 1069 -128 1299 -128 
C 1530 -128 1530 89 1530 172 
L 1530 466 
C 1530 1514 1709 2204 2003 2644 
L 2886 3955 
z
" transform="scale(0.015625)"/>
       </defs>
       <use xlink:href="#CMR17-30" transform="scale(0.996264)"/>
       <use xlink:href="#CMMI12-3a" transform="translate(45.690477 0)scale(0.996264)"/>
       <use xlink:href="#CMR17-37" transform="translate(72.787654 0)scale(0.996264)"/>
      </g>
     </g>
    </g>
    <g id="text_14">
     <!-- $\mathrm{Fission\ fraction}$ -->
     <g transform="translate(47.82874 266.681139)rotate(-90)scale(0.2 -0.2)">
      <defs>
       <path id="CMR17-46" d="M 3482 4339 
L 326 4339 
L 326 4172 
C 768 4172 838 4172 838 3883 
L 838 450 
C 838 166 768 166 326 166 
L 326 0 
C 512 12 870 12 1069 12 
C 1331 12 1638 12 1901 0 
L 1901 166 
L 1760 166 
C 1274 166 1261 229 1261 456 
L 1261 2073 
L 1837 2073 
C 2432 2073 2490 1865 2490 1334 
L 2605 1334 
L 2605 2991 
L 2490 2991 
C 2490 2451 2432 2240 1837 2240 
L 1261 2240 
L 1261 3922 
C 1261 4140 1274 4172 1530 4172 
L 2355 4172 
C 3322 4172 3430 3774 3520 2920 
L 3635 2920 
L 3482 4339 
z
" transform="scale(0.015625)"/>
       <path id="CMR17-69" d="M 992 3961 
C 992 4102 877 4224 730 4224 
C 589 4224 467 4108 467 3961 
C 467 3820 582 3699 730 3699 
C 870 3699 992 3814 992 3961 
z
M 243 2745 
L 243 2579 
C 602 2579 653 2540 653 2231 
L 653 443 
C 653 198 627 166 218 166 
L 218 0 
C 371 12 646 12 806 12 
C 960 12 1222 12 1370 0 
L 1370 166 
C 992 166 979 205 979 436 
L 979 2816 
L 243 2745 
z
" transform="scale(0.015625)"/>
       <path id="CMR17-73" d="M 1978 2688 
C 1978 2803 1971 2809 1933 2809 
C 1907 2809 1901 2803 1824 2707 
C 1805 2681 1747 2617 1728 2592 
C 1523 2809 1235 2816 1126 2816 
C 416 2816 160 2444 160 2073 
C 160 1497 813 1363 998 1324 
C 1402 1241 1542 1216 1677 1100 
C 1760 1024 1901 883 1901 652 
C 1901 384 1747 38 1158 38 
C 602 38 403 460 288 1024 
C 269 1113 269 1120 218 1120 
C 166 1120 160 1113 160 985 
L 160 64 
C 160 -52 166 -58 205 -58 
C 237 -58 243 -52 275 0 
C 314 57 410 211 448 275 
C 576 102 800 -64 1158 -64 
C 1792 -64 2131 281 2131 780 
C 2131 1107 1958 1280 1875 1356 
C 1683 1555 1459 1600 1190 1651 
C 838 1728 390 1817 390 2208 
C 390 2374 480 2726 1126 2726 
C 1811 2726 1850 2086 1862 1881 
C 1869 1849 1901 1843 1920 1843 
C 1978 1843 1978 1862 1978 1971 
L 1978 2688 
z
" transform="scale(0.015625)"/>
       <path id="CMR17-6f" d="M 2758 1356 
C 2758 2176 2163 2816 1466 2816 
C 768 2816 173 2176 173 1356 
C 173 550 768 -64 1466 -64 
C 2163 -64 2758 550 2758 1356 
z
M 1466 51 
C 1165 51 909 230 762 480 
C 602 768 582 1126 582 1408 
C 582 1676 595 2009 762 2297 
C 890 2508 1139 2713 1466 2713 
C 1754 2713 1997 2553 2150 2329 
C 2349 2028 2349 1606 2349 1408 
C 2349 1158 2336 774 2163 467 
C 1984 172 1709 51 1466 51 
z
" transform="scale(0.015625)"/>
       <path id="CMR17-66" d="M 979 2585 
L 1709 2585 
L 1709 2752 
L 966 2752 
L 966 3539 
C 966 4076 1235 4377 1510 4377 
C 1594 4377 1690 4363 1754 4339 
C 1702 4326 1568 4281 1568 4121 
C 1568 3955 1696 3904 1786 3904 
C 1875 3904 2003 3955 2003 4121 
C 2003 4353 1773 4480 1517 4480 
C 1152 4480 653 4211 653 3526 
L 653 2752 
L 141 2752 
L 141 2585 
L 653 2585 
L 653 441 
C 653 198 627 166 218 166 
L 218 0 
C 371 12 666 12 832 12 
C 1018 12 1344 12 1517 0 
L 1517 166 
C 1056 166 979 166 979 454 
L 979 2585 
z
" transform="scale(0.015625)"/>
       <path id="CMR17-61" d="M 2304 1656 
C 2304 2048 2304 2275 2035 2534 
C 1798 2751 1523 2816 1306 2816 
C 800 2816 435 2408 435 1977 
C 435 1740 627 1728 666 1728 
C 749 1728 896 1779 896 1958 
C 896 2118 774 2188 666 2188 
C 640 2188 608 2182 589 2176 
C 723 2594 1069 2713 1293 2713 
C 1613 2713 1965 2421 1965 1875 
L 1965 1632 
C 1587 1619 1133 1568 774 1373 
C 371 1147 256 822 256 576 
C 256 77 832 -64 1171 -64 
C 1523 -64 1850 135 1990 505 
C 2003 219 2182 -39 2464 -39 
C 2598 -39 2938 51 2938 563 
L 2938 926 
L 2822 926 
L 2822 557 
C 2822 161 2650 109 2566 109 
C 2304 109 2304 446 2304 732 
L 2304 1656 
z
M 1965 887 
C 1965 323 1568 38 1216 38 
C 896 38 646 278 646 576 
C 646 771 730 1114 1101 1322 
C 1408 1497 1760 1523 1965 1536 
L 1965 887 
z
" transform="scale(0.015625)"/>
       <path id="CMR17-63" d="M 2234 2240 
C 2112 2240 1933 2240 1933 2015 
C 1933 1836 2080 1785 2163 1785 
C 2208 1785 2394 1804 2394 2028 
C 2394 2476 1958 2816 1466 2816 
C 787 2816 211 2201 211 1379 
C 211 521 813 -64 1466 -64 
C 2259 -64 2458 676 2458 747 
C 2458 773 2451 792 2406 792 
C 2362 792 2355 786 2330 702 
C 2163 180 1798 51 1523 51 
C 1114 51 621 431 621 1385 
C 621 2358 1094 2700 1472 2700 
C 1722 2700 2093 2582 2234 2240 
z
" transform="scale(0.015625)"/>
       <path id="CMR17-74" d="M 966 2585 
L 1862 2585 
L 1862 2752 
L 966 2752 
L 966 3968 
L 851 3968 
C 838 3292 614 2700 70 2687 
L 70 2585 
L 627 2585 
L 627 778 
C 627 655 627 -64 1370 -64 
C 1747 -64 1965 308 1965 784 
L 1965 1151 
L 1850 1151 
L 1850 790 
C 1850 347 1677 51 1408 51 
C 1222 51 966 179 966 765 
L 966 2585 
z
" transform="scale(0.015625)"/>
      </defs>
      <use xlink:href="#CMR17-46" transform="scale(0.996264)"/>
      <use xlink:href="#CMR17-69" transform="translate(59.983847 0)scale(0.996264)"/>
      <use xlink:href="#CMR17-73" transform="translate(84.854905 0)scale(0.996264)"/>
      <use xlink:href="#CMR17-73" transform="translate(120.656243 0)scale(0.996264)"/>
      <use xlink:href="#CMR17-69" transform="translate(156.45758 0)scale(0.996264)"/>
      <use xlink:href="#CMR17-6f" transform="translate(181.328639 0)scale(0.996264)"/>
      <use xlink:href="#CMR17-6e" transform="translate(227.019116 0)scale(0.996264)"/>
      <use xlink:href="#CMR17-66" transform="translate(309.143598 0)scale(0.996264)"/>
      <use xlink:href="#CMR17-72" transform="translate(336.617111 0)scale(0.996264)"/>
      <use xlink:href="#CMR17-61" transform="translate(371.897879 0)scale(0.996264)"/>
      <use xlink:href="#CMR17-63" transform="translate(417.588356 0)scale(0.996264)"/>
      <use xlink:href="#CMR17-74" transform="translate(458.074016 0)scale(0.996264)"/>
      <use xlink:href="#CMR17-69" transform="translate(493.354784 0)scale(0.996264)"/>
      <use xlink:href="#CMR17-6f" transform="translate(518.225843 0)scale(0.996264)"/>
      <use xlink:href="#CMR17-6e" transform="translate(563.91632 0)scale(0.996264)"/>
     </g>
    </g>
   </g>
   <g id="line2d_25">
    <path d="M 88.880977 58.103004 
L 97.536606 61.970328 
L 108.738943 68.219941 
L 132.158897 77.141564 
L 155.579076 86.361247 
L 177.980392 94.389566 
L 200.89002 101.523264 
L 224.308631 108.656524 
L 247.218035 115.492162 
L 270.127887 122.923921 
L 293.036172 128.269257 
L 316.454336 134.806395 
L 339.362173 139.55561 
L 362.778547 143.708264 
L 385.686832 149.0536 
L 408.085238 153.207132 
L 432.011042 157.955469 
L 455.935951 161.511563 
L 477.826269 166.857777 
L 501.241747 169.818189 
L 523.640601 174.567843 
L 546.547543 178.124815 
" clip-path="url(#p60032b4a8d)" style="fill: none; stroke: #1f77b4; stroke-width: 3.5; stroke-linecap: square"/>
   </g>
   <g id="line2d_26">
    <path d="M 89.091375 338.279882 
L 97.744094 338.27242 
L 109.450714 338.262323 
L 131.845539 337.646888 
L 155.258779 337.626695 
L 178.162587 337.01082 
L 201.067291 337.587188 
L 223.971547 337.567434 
L 247.384339 336.95112 
L 270.289043 337.527488 
L 293.701835 336.911174 
L 316.606091 336.891421 
L 339.509899 336.275546 
L 362.923139 336.255353 
L 385.318412 336.236039 
L 408.731651 336.215846 
L 431.636355 336.792213 
L 454.540611 336.77246 
L 477.44442 336.156585 
L 500.858107 336.732513 
L 524.270899 336.1162 
L 546.666619 336.693006 
" clip-path="url(#p60032b4a8d)" style="fill: none; stroke-dasharray: 12.95,5.6; stroke-dashoffset: 0; stroke: #ff7f0e; stroke-width: 3.5"/>
   </g>
   <g id="line2d_27">
    <path d="M 89.57238 301.021879 
L 97.20467 297.736629 
L 109.416692 292.957126 
L 132.314681 284.591678 
L 154.703687 276.226669 
L 177.603019 269.649584 
L 201.520317 263.071621 
L 224.420097 257.090658 
L 247.829755 252.301497 
L 270.220999 246.917093 
L 293.63021 241.531811 
L 316.53178 237.935332 
L 339.432903 233.742731 
L 362.588965 230.146032 
L 385.745922 227.741574 
L 409.156476 224.144656 
L 431.54951 221.144736 
L 454.960064 217.547817 
L 477.862529 215.143579 
L 501.273531 212.142782 
L 524.175996 209.738544 
L 547.078462 207.334306 
" clip-path="url(#p60032b4a8d)" style="fill: none; stroke-dasharray: 22.4,5.6,3.5,5.6; stroke-dashoffset: 0; stroke: #2ca02c; stroke-width: 3.5"/>
   </g>
   <g id="line2d_28">
    <path d="M 89.613788 356.163074 
L 97.757524 356.15605 
L 109.464144 356.145954 
L 132.367504 354.933958 
L 155.780296 354.317645 
L 178.68321 352.509528 
L 202.096001 351.893214 
L 224.999362 350.681219 
L 247.39374 349.469662 
L 270.806084 348.257227 
L 293.709445 347.045232 
L 316.357866 345.237334 
L 339.515719 344.025119 
L 362.928063 342.812684 
L 385.831424 341.600689 
L 408.734785 340.388693 
L 432.147129 339.176258 
L 455.559474 337.963824 
L 477.953403 336.156146 
L 501.3653 334.34759 
L 524.268213 332.539474 
L 547.170679 330.135236 
" clip-path="url(#p60032b4a8d)" style="fill: none; stroke-dasharray: 3.5,5.775; stroke-dashoffset: 0; stroke: #d62728; stroke-width: 3.5"/>
   </g>
   <g id="patch_3">
    <path d="M 86.4 367.2 
L 86.4 43.2 
" style="fill: none; stroke: #000000; stroke-width: 0.8; stroke-linejoin: miter; stroke-linecap: square"/>
   </g>
   <g id="patch_4">
    <path d="M 547.2 367.2 
L 547.2 43.2 
" style="fill: none; stroke: #000000; stroke-width: 0.8; stroke-linejoin: miter; stroke-linecap: square"/>
   </g>
   <g id="patch_5">
    <path d="M 86.4 367.2 
L 547.2 367.2 
" style="fill: none; stroke: #000000; stroke-width: 0.8; stroke-linejoin: miter; stroke-linecap: square"/>
   </g>
   <g id="patch_6">
    <path d="M 86.4 43.2 
L 547.2 43.2 
" style="fill: none; stroke: #000000; stroke-width: 0.8; stroke-linejoin: miter; stroke-linecap: square"/>
   </g>
   <g id="legend_1">
    <g id="patch_7">
     <path d="M 425.520171 170.702534 
L 533.2 170.702534 
Q 537.2 170.702534 537.2 166.702534 
L 537.2 57.2 
Q 537.2 53.2 533.2 53.2 
L 425.520171 53.2 
Q 421.520171 53.2 421.520171 57.2 
L 421.520171 166.702534 
Q 421.520171 170.702534 425.520171 170.702534 
z
" style="fill: #ffffff; opacity: 0.8; stroke: #cccccc; stroke-linejoin: miter"/>
    </g>
    <g id="line2d_29">
     <path d="M 429.520171 68.2 
L 449.520171 68.2 
L 469.520171 68.2 
" style="fill: none; stroke: #1f77b4; stroke-width: 3.5; stroke-linecap: square"/>
    </g>
    <g id="text_15">
     <!-- $^{235}\mathrm{U}$ -->
     <g transform="translate(485.520171 75.2)scale(0.2 -0.2)">
      <defs>
       <path id="CMR17-55" d="M 3456 1442 
C 3456 583 2899 38 2291 38 
C 1965 38 1670 211 1491 480 
C 1286 788 1261 1185 1261 1410 
L 1261 3897 
C 1261 4185 1331 4185 1773 4185 
L 1773 4352 
C 1587 4339 1248 4339 1050 4339 
C 851 4339 512 4339 326 4352 
L 326 4185 
C 768 4185 838 4185 838 3897 
L 838 1442 
C 838 519 1536 -128 2278 -128 
C 3110 -128 3590 724 3590 1352 
L 3590 3788 
C 3590 4147 3917 4185 4102 4185 
L 4102 4352 
C 3955 4339 3686 4339 3526 4339 
C 3366 4339 3091 4339 2944 4352 
L 2944 4185 
C 3456 4185 3456 3884 3456 3724 
L 3456 1442 
z
" transform="scale(0.015625)"/>
      </defs>
      <use xlink:href="#CMR17-32" transform="translate(0 36.153639)scale(0.697382)"/>
      <use xlink:href="#CMR17-33" transform="translate(31.983182 36.153639)scale(0.697382)"/>
      <use xlink:href="#CMR17-35" transform="translate(63.966364 36.153639)scale(0.697382)"/>
      <use xlink:href="#CMR17-55" transform="translate(96.447678 0)scale(0.996264)"/>
     </g>
    </g>
    <g id="line2d_30">
     <path d="M 429.520171 96.075634 
L 449.520171 96.075634 
L 469.520171 96.075634 
" style="fill: none; stroke-dasharray: 12.95,5.6; stroke-dashoffset: 0; stroke: #ff7f0e; stroke-width: 3.5"/>
    </g>
    <g id="text_16">
     <!-- $^{238}\mathrm{U}$ -->
     <g transform="translate(485.520171 103.075634)scale(0.2 -0.2)">
      <defs>
       <path id="CMR17-38" d="M 1741 2289 
C 2144 2494 2554 2803 2554 3298 
C 2554 3884 1990 4224 1472 4224 
C 890 4224 378 3800 378 3215 
C 378 3054 416 2777 666 2533 
C 730 2469 998 2276 1171 2154 
C 883 2006 211 1652 211 945 
C 211 282 838 -128 1459 -128 
C 2144 -128 2720 366 2720 1022 
C 2720 1607 2330 1877 2074 2051 
L 1741 2289 
z
M 902 2855 
C 851 2887 595 3086 595 3388 
C 595 3781 998 4076 1459 4076 
C 1965 4076 2336 3716 2336 3298 
C 2336 2700 1670 2359 1638 2359 
C 1632 2359 1626 2359 1574 2398 
L 902 2855 
z
M 2080 1536 
C 2176 1466 2483 1253 2483 861 
C 2483 385 2010 25 1472 25 
C 890 25 448 443 448 951 
C 448 1459 838 1884 1280 2083 
L 2080 1536 
z
" transform="scale(0.015625)"/>
      </defs>
      <use xlink:href="#CMR17-32" transform="translate(0 36.153639)scale(0.697382)"/>
      <use xlink:href="#CMR17-33" transform="translate(31.983182 36.153639)scale(0.697382)"/>
      <use xlink:href="#CMR17-38" transform="translate(63.966364 36.153639)scale(0.697382)"/>
      <use xlink:href="#CMR17-55" transform="translate(96.447678 0)scale(0.996264)"/>
     </g>
    </g>
    <g id="line2d_31">
     <path d="M 429.520171 123.951267 
L 449.520171 123.951267 
L 469.520171 123.951267 
" style="fill: none; stroke-dasharray: 22.4,5.6,3.5,5.6; stroke-dashoffset: 0; stroke: #2ca02c; stroke-width: 3.5"/>
    </g>
    <g id="text_17">
     <!-- $^{239}\mathrm{Pu}$ -->
     <g transform="translate(485.520171 130.951267)scale(0.2 -0.2)">
      <defs>
       <path id="CMR17-39" d="M 2253 1871 
C 2253 448 1670 25 1190 25 
C 1043 25 685 43 538 281 
C 704 256 826 345 826 505 
C 826 678 685 736 595 736 
C 538 736 365 710 365 492 
C 365 68 742 -128 1203 -128 
C 1939 -128 2688 665 2688 2090 
C 2688 3857 1971 4224 1485 4224 
C 851 4224 243 3664 243 2800 
C 243 2000 762 1408 1414 1408 
C 1952 1408 2189 1910 2253 2122 
L 2253 1871 
z
M 1427 1510 
C 1254 1510 1011 1542 813 1929 
C 678 2181 678 2477 678 2793 
C 678 3174 678 3438 858 3722 
C 947 3857 1114 4076 1485 4076 
C 2240 4076 2240 2909 2240 2651 
C 2240 2193 2035 1510 1427 1510 
z
" transform="scale(0.015625)"/>
       <path id="CMR17-50" d="M 1267 2048 
L 2291 2048 
C 3117 2048 3718 2583 3718 3187 
C 3718 3791 3130 4352 2291 4352 
L 333 4352 
L 333 4185 
C 774 4185 845 4185 845 3899 
L 845 453 
C 845 166 774 166 333 166 
L 333 0 
C 518 12 858 12 1056 12 
C 1254 12 1594 12 1779 0 
L 1779 166 
C 1338 166 1267 166 1267 453 
L 1267 2048 
z
M 1254 2182 
L 1254 3937 
C 1254 4153 1267 4185 1523 4185 
L 2170 4185 
C 2995 4185 3232 3715 3232 3187 
C 3232 2608 2950 2182 2170 2182 
L 1254 2182 
z
" transform="scale(0.015625)"/>
      </defs>
      <use xlink:href="#CMR17-32" transform="translate(0 36.153639)scale(0.697382)"/>
      <use xlink:href="#CMR17-33" transform="translate(31.983182 36.153639)scale(0.697382)"/>
      <use xlink:href="#CMR17-39" transform="translate(63.966364 36.153639)scale(0.697382)"/>
      <use xlink:href="#CMR17-50" transform="translate(96.447678 0)scale(0.996264)"/>
      <use xlink:href="#CMR17-75" transform="translate(159.033978 0)scale(0.996264)"/>
     </g>
    </g>
    <g id="line2d_32">
     <path d="M 429.520171 151.826901 
L 449.520171 151.826901 
L 469.520171 151.826901 
" style="fill: none; stroke-dasharray: 3.5,5.775; stroke-dashoffset: 0; stroke: #d62728; stroke-width: 3.5"/>
    </g>
    <g id="text_18">
     <!-- $^{241}\mathrm{Pu}$ -->
     <g transform="translate(485.520171 158.826901)scale(0.2 -0.2)">
      <use xlink:href="#CMR17-32" transform="translate(0 36.153639)scale(0.697382)"/>
      <use xlink:href="#CMR17-34" transform="translate(31.983182 36.153639)scale(0.697382)"/>
      <use xlink:href="#CMR17-31" transform="translate(63.966364 36.153639)scale(0.697382)"/>
      <use xlink:href="#CMR17-50" transform="translate(96.447678 0)scale(0.996264)"/>
      <use xlink:href="#CMR17-75" transform="translate(159.033978 0)scale(0.996264)"/>
     </g>
    </g>
   </g>
  </g>
 </g>
 <defs>
  <clipPath id="p60032b4a8d">
   <rect x="86.4" y="43.2" width="460.8" height="324"/>
  </clipPath>
 </defs>
</svg>
