<?xml version="1.0" encoding="utf-8" standalone="no"?>
<!DOCTYPE svg PUBLIC "-//W3C//DTD SVG 1.1//EN"
  "http://www.w3.org/Graphics/SVG/1.1/DTD/svg11.dtd">
<svg xmlns:xlink="http://www.w3.org/1999/xlink" width="576pt" height="432pt" viewBox="0 0 576 432" xmlns="http://www.w3.org/2000/svg" version="1.1">
 <metadata>
  <rdf:RDF xmlns:dc="http://purl.org/dc/elements/1.1/" xmlns:cc="http://creativecommons.org/ns#" xmlns:rdf="http://www.w3.org/1999/02/22-rdf-syntax-ns#">
   <cc:Work>
    <dc:type rdf:resource="http://purl.org/dc/dcmitype/StillImage"/>
    <dc:date>2022-05-24T10:58:16.441954</dc:date>
    <dc:format>image/svg+xml</dc:format>
    <dc:creator>
     <cc:Agent>
      <dc:title>Matplotlib v3.5.1, https://matplotlib.org/</dc:title>
     </cc:Agent>
    </dc:creator>
   </cc:Work>
  </rdf:RDF>
 </metadata>
 <defs>
  <style type="text/css">*{stroke-linejoin: round; stroke-linecap: butt}</style>
 </defs>
 <g id="figure_1">
  <g id="patch_1">
   <path d="M 0 432 
L 576 432 
L 576 0 
L 0 0 
L 0 432 
z
" style="fill: none"/>
  </g>
  <g id="axes_1">
   <g id="patch_2">
    <path d="M 86.4 367.2 
L 547.2 367.2 
L 547.2 43.2 
L 86.4 43.2 
L 86.4 367.2 
z
" style="fill: none"/>
   </g>
   <g id="matplotlib.axis_1">
    <g id="xtick_1">
     <g id="line2d_1">
      <path d="M 135.152377 367.2 
L 135.152377 43.2 
" clip-path="url(#p79536ee803)" style="fill: none; stroke: #b0b0b0; stroke-width: 0.8; stroke-linecap: square"/>
     </g>
     <g id="line2d_2">
      <defs>
       <path id="m612ee3c505" d="M 0 0 
L 0 3.5 
" style="stroke: #000000; stroke-width: 0.8"/>
      </defs>
      <g>
       <use xlink:href="#m612ee3c505" x="135.152377" y="367.2" style="stroke: #000000; stroke-width: 0.8"/>
      </g>
     </g>
     <g id="text_1">
      <!-- $\mathdefault{80}$ -->
      <g transform="translate(126.014282 388.036997)scale(0.2 -0.2)">
       <defs>
        <path id="CMR17-38" d="M 1741 2289 
C 2144 2494 2554 2803 2554 3298 
C 2554 3884 1990 4224 1472 4224 
C 890 4224 378 3800 378 3215 
C 378 3054 416 2777 666 2533 
C 730 2469 998 2276 1171 2154 
C 883 2006 211 1652 211 945 
C 211 282 838 -128 1459 -128 
C 2144 -128 2720 366 2720 1022 
C 2720 1607 2330 1877 2074 2051 
L 1741 2289 
z
M 902 2855 
C 851 2887 595 3086 595 3388 
C 595 3781 998 4076 1459 4076 
C 1965 4076 2336 3716 2336 3298 
C 2336 2700 1670 2359 1638 2359 
C 1632 2359 1626 2359 1574 2398 
L 902 2855 
z
M 2080 1536 
C 2176 1466 2483 1253 2483 861 
C 2483 385 2010 25 1472 25 
C 890 25 448 443 448 951 
C 448 1459 838 1884 1280 2083 
L 2080 1536 
z
" transform="scale(0.015625)"/>
        <path id="CMR17-30" d="M 2688 2038 
C 2688 2430 2682 3099 2413 3613 
C 2176 4063 1798 4224 1466 4224 
C 1158 4224 768 4082 525 3620 
C 269 3137 243 2539 243 2038 
C 243 1671 250 1112 448 623 
C 723 -39 1216 -128 1466 -128 
C 1760 -128 2208 -7 2470 604 
C 2662 1048 2688 1568 2688 2038 
z
M 1466 -26 
C 1056 -26 813 328 723 816 
C 653 1196 653 1749 653 2109 
C 653 2604 653 3015 736 3407 
C 858 3954 1216 4121 1466 4121 
C 1728 4121 2067 3947 2189 3420 
C 2272 3054 2278 2623 2278 2109 
C 2278 1691 2278 1176 2202 797 
C 2067 96 1690 -26 1466 -26 
z
" transform="scale(0.015625)"/>
       </defs>
       <use xlink:href="#CMR17-38" transform="scale(0.996264)"/>
       <use xlink:href="#CMR17-30" transform="translate(45.690477 0)scale(0.996264)"/>
      </g>
     </g>
    </g>
    <g id="xtick_2">
     <g id="line2d_3">
      <path d="M 232.566278 367.2 
L 232.566278 43.2 
" clip-path="url(#p79536ee803)" style="fill: none; stroke: #b0b0b0; stroke-width: 0.8; stroke-linecap: square"/>
     </g>
     <g id="line2d_4">
      <g>
       <use xlink:href="#m612ee3c505" x="232.566278" y="367.2" style="stroke: #000000; stroke-width: 0.8"/>
      </g>
     </g>
     <g id="text_2">
      <!-- $\mathdefault{100}$ -->
      <g transform="translate(218.859135 388.036997)scale(0.2 -0.2)">
       <defs>
        <path id="CMR17-31" d="M 1702 4083 
C 1702 4217 1696 4224 1606 4224 
C 1357 3927 979 3833 621 3820 
C 602 3820 570 3820 563 3808 
C 557 3795 557 3782 557 3648 
C 755 3648 1088 3686 1344 3839 
L 1344 467 
C 1344 243 1331 166 781 166 
L 589 166 
L 589 0 
C 896 6 1216 12 1523 12 
C 1830 12 2150 6 2458 0 
L 2458 166 
L 2266 166 
C 1715 166 1702 236 1702 467 
L 1702 4083 
z
" transform="scale(0.015625)"/>
       </defs>
       <use xlink:href="#CMR17-31" transform="scale(0.996264)"/>
       <use xlink:href="#CMR17-30" transform="translate(45.690477 0)scale(0.996264)"/>
       <use xlink:href="#CMR17-30" transform="translate(91.380954 0)scale(0.996264)"/>
      </g>
     </g>
    </g>
    <g id="xtick_3">
     <g id="line2d_5">
      <path d="M 329.980179 367.2 
L 329.980179 43.2 
" clip-path="url(#p79536ee803)" style="fill: none; stroke: #b0b0b0; stroke-width: 0.8; stroke-linecap: square"/>
     </g>
     <g id="line2d_6">
      <g>
       <use xlink:href="#m612ee3c505" x="329.980179" y="367.2" style="stroke: #000000; stroke-width: 0.8"/>
      </g>
     </g>
     <g id="text_3">
      <!-- $\mathdefault{120}$ -->
      <g transform="translate(316.273036 388.036997)scale(0.2 -0.2)">
       <defs>
        <path id="CMR17-32" d="M 2669 990 
L 2554 990 
C 2490 537 2438 460 2413 422 
C 2381 371 1920 371 1830 371 
L 602 371 
C 832 620 1280 1073 1824 1596 
C 2214 1966 2669 2400 2669 3033 
C 2669 3788 2067 4224 1395 4224 
C 691 4224 262 3603 262 3027 
C 262 2777 448 2745 525 2745 
C 589 2745 781 2783 781 3007 
C 781 3206 614 3264 525 3264 
C 486 3264 448 3257 422 3244 
C 544 3788 915 4057 1306 4057 
C 1862 4057 2227 3616 2227 3033 
C 2227 2477 1901 1998 1536 1583 
L 262 147 
L 262 0 
L 2515 0 
L 2669 990 
z
" transform="scale(0.015625)"/>
       </defs>
       <use xlink:href="#CMR17-31" transform="scale(0.996264)"/>
       <use xlink:href="#CMR17-32" transform="translate(45.690477 0)scale(0.996264)"/>
       <use xlink:href="#CMR17-30" transform="translate(91.380954 0)scale(0.996264)"/>
      </g>
     </g>
    </g>
    <g id="xtick_4">
     <g id="line2d_7">
      <path d="M 427.39408 367.2 
L 427.39408 43.2 
" clip-path="url(#p79536ee803)" style="fill: none; stroke: #b0b0b0; stroke-width: 0.8; stroke-linecap: square"/>
     </g>
     <g id="line2d_8">
      <g>
       <use xlink:href="#m612ee3c505" x="427.39408" y="367.2" style="stroke: #000000; stroke-width: 0.8"/>
      </g>
     </g>
     <g id="text_4">
      <!-- $\mathdefault{140}$ -->
      <g transform="translate(413.686937 388.036997)scale(0.2 -0.2)">
       <defs>
        <path id="CMR17-34" d="M 2150 4147 
C 2150 4281 2144 4288 2029 4288 
L 128 1254 
L 128 1088 
L 1779 1088 
L 1779 460 
C 1779 230 1766 166 1318 166 
L 1197 166 
L 1197 0 
C 1402 12 1747 12 1965 12 
C 2182 12 2528 12 2733 0 
L 2733 166 
L 2611 166 
C 2163 166 2150 230 2150 460 
L 2150 1088 
L 2803 1088 
L 2803 1254 
L 2150 1254 
L 2150 4147 
z
M 1798 3723 
L 1798 1254 
L 256 1254 
L 1798 3723 
z
" transform="scale(0.015625)"/>
       </defs>
       <use xlink:href="#CMR17-31" transform="scale(0.996264)"/>
       <use xlink:href="#CMR17-34" transform="translate(45.690477 0)scale(0.996264)"/>
       <use xlink:href="#CMR17-30" transform="translate(91.380954 0)scale(0.996264)"/>
      </g>
     </g>
    </g>
    <g id="xtick_5">
     <g id="line2d_9">
      <path d="M 524.807981 367.2 
L 524.807981 43.2 
" clip-path="url(#p79536ee803)" style="fill: none; stroke: #b0b0b0; stroke-width: 0.8; stroke-linecap: square"/>
     </g>
     <g id="line2d_10">
      <g>
       <use xlink:href="#m612ee3c505" x="524.807981" y="367.2" style="stroke: #000000; stroke-width: 0.8"/>
      </g>
     </g>
     <g id="text_5">
      <!-- $\mathdefault{160}$ -->
      <g transform="translate(511.100838 388.036997)scale(0.2 -0.2)">
       <defs>
        <path id="CMR17-36" d="M 678 2198 
C 678 3712 1395 4076 1811 4076 
C 1946 4076 2272 4049 2400 3782 
C 2298 3782 2106 3782 2106 3558 
C 2106 3385 2246 3328 2336 3328 
C 2394 3328 2566 3353 2566 3571 
C 2566 3987 2246 4224 1805 4224 
C 1043 4224 243 3411 243 2011 
C 243 257 966 -128 1478 -128 
C 2099 -128 2688 431 2688 1295 
C 2688 2101 2170 2688 1517 2688 
C 1126 2688 838 2430 678 1979 
L 678 2198 
z
M 1478 25 
C 691 25 691 1212 691 1450 
C 691 1914 909 2585 1504 2585 
C 1613 2585 1926 2585 2138 2140 
C 2253 1889 2253 1624 2253 1302 
C 2253 954 2253 696 2118 438 
C 1978 173 1773 25 1478 25 
z
" transform="scale(0.015625)"/>
       </defs>
       <use xlink:href="#CMR17-31" transform="scale(0.996264)"/>
       <use xlink:href="#CMR17-36" transform="translate(45.690477 0)scale(0.996264)"/>
       <use xlink:href="#CMR17-30" transform="translate(91.380954 0)scale(0.996264)"/>
      </g>
     </g>
    </g>
    <g id="text_6">
     <!-- $\mathrm{Fission\ daughter\ mass\ number\ A}$ -->
     <g transform="translate(184.660308 409.749627)scale(0.2 -0.2)">
      <defs>
       <path id="CMR17-46" d="M 3482 4339 
L 326 4339 
L 326 4172 
C 768 4172 838 4172 838 3883 
L 838 450 
C 838 166 768 166 326 166 
L 326 0 
C 512 12 870 12 1069 12 
C 1331 12 1638 12 1901 0 
L 1901 166 
L 1760 166 
C 1274 166 1261 229 1261 456 
L 1261 2073 
L 1837 2073 
C 2432 2073 2490 1865 2490 1334 
L 2605 1334 
L 2605 2991 
L 2490 2991 
C 2490 2451 2432 2240 1837 2240 
L 1261 2240 
L 1261 3922 
C 1261 4140 1274 4172 1530 4172 
L 2355 4172 
C 3322 4172 3430 3774 3520 2920 
L 3635 2920 
L 3482 4339 
z
" transform="scale(0.015625)"/>
       <path id="CMR17-69" d="M 992 3961 
C 992 4102 877 4224 730 4224 
C 589 4224 467 4108 467 3961 
C 467 3820 582 3699 730 3699 
C 870 3699 992 3814 992 3961 
z
M 243 2745 
L 243 2579 
C 602 2579 653 2540 653 2231 
L 653 443 
C 653 198 627 166 218 166 
L 218 0 
C 371 12 646 12 806 12 
C 960 12 1222 12 1370 0 
L 1370 166 
C 992 166 979 205 979 436 
L 979 2816 
L 243 2745 
z
" transform="scale(0.015625)"/>
       <path id="CMR17-73" d="M 1978 2688 
C 1978 2803 1971 2809 1933 2809 
C 1907 2809 1901 2803 1824 2707 
C 1805 2681 1747 2617 1728 2592 
C 1523 2809 1235 2816 1126 2816 
C 416 2816 160 2444 160 2073 
C 160 1497 813 1363 998 1324 
C 1402 1241 1542 1216 1677 1100 
C 1760 1024 1901 883 1901 652 
C 1901 384 1747 38 1158 38 
C 602 38 403 460 288 1024 
C 269 1113 269 1120 218 1120 
C 166 1120 160 1113 160 985 
L 160 64 
C 160 -52 166 -58 205 -58 
C 237 -58 243 -52 275 0 
C 314 57 410 211 448 275 
C 576 102 800 -64 1158 -64 
C 1792 -64 2131 281 2131 780 
C 2131 1107 1958 1280 1875 1356 
C 1683 1555 1459 1600 1190 1651 
C 838 1728 390 1817 390 2208 
C 390 2374 480 2726 1126 2726 
C 1811 2726 1850 2086 1862 1881 
C 1869 1849 1901 1843 1920 1843 
C 1978 1843 1978 1862 1978 1971 
L 1978 2688 
z
" transform="scale(0.015625)"/>
       <path id="CMR17-6f" d="M 2758 1356 
C 2758 2176 2163 2816 1466 2816 
C 768 2816 173 2176 173 1356 
C 173 550 768 -64 1466 -64 
C 2163 -64 2758 550 2758 1356 
z
M 1466 51 
C 1165 51 909 230 762 480 
C 602 768 582 1126 582 1408 
C 582 1676 595 2009 762 2297 
C 890 2508 1139 2713 1466 2713 
C 1754 2713 1997 2553 2150 2329 
C 2349 2028 2349 1606 2349 1408 
C 2349 1158 2336 774 2163 467 
C 1984 172 1709 51 1466 51 
z
" transform="scale(0.015625)"/>
       <path id="CMR17-6e" d="M 2656 1954 
C 2656 2282 2592 2816 1837 2816 
C 1331 2816 1069 2424 973 2166 
L 966 2166 
L 966 2816 
L 211 2745 
L 211 2578 
C 589 2578 646 2540 646 2231 
L 646 443 
C 646 198 621 166 211 166 
L 211 0 
C 365 12 646 12 813 12 
C 979 12 1267 12 1421 0 
L 1421 166 
C 1011 166 986 192 986 443 
L 986 1678 
C 986 2269 1344 2713 1792 2713 
C 2266 2713 2317 2289 2317 1980 
L 2317 443 
C 2317 198 2291 166 1882 166 
L 1882 0 
C 2035 12 2317 12 2483 12 
C 2650 12 2938 12 3091 0 
L 3091 166 
C 2682 166 2656 192 2656 443 
L 2656 1954 
z
" transform="scale(0.015625)"/>
       <path id="CMR17-64" d="M 1869 4345 
L 1869 4179 
C 2246 4179 2304 4141 2304 3843 
L 2304 2371 
C 2278 2403 2016 2816 1498 2816 
C 845 2816 211 2228 211 1376 
C 211 529 806 -64 1434 -64 
C 1978 -64 2259 361 2291 406 
L 2291 -64 
L 3066 -13 
L 3066 154 
C 2688 154 2630 193 2630 503 
L 2630 4416 
L 1869 4345 
z
M 2291 762 
C 2291 568 2176 393 2029 264 
C 1811 70 1594 38 1472 38 
C 1286 38 621 135 621 1369 
C 621 2636 1363 2713 1530 2713 
C 1824 2713 2061 2545 2208 2313 
C 2291 2177 2291 2157 2291 2041 
L 2291 762 
z
" transform="scale(0.015625)"/>
       <path id="CMR17-61" d="M 2304 1656 
C 2304 2048 2304 2275 2035 2534 
C 1798 2751 1523 2816 1306 2816 
C 800 2816 435 2408 435 1977 
C 435 1740 627 1728 666 1728 
C 749 1728 896 1779 896 1958 
C 896 2118 774 2188 666 2188 
C 640 2188 608 2182 589 2176 
C 723 2594 1069 2713 1293 2713 
C 1613 2713 1965 2421 1965 1875 
L 1965 1632 
C 1587 1619 1133 1568 774 1373 
C 371 1147 256 822 256 576 
C 256 77 832 -64 1171 -64 
C 1523 -64 1850 135 1990 505 
C 2003 219 2182 -39 2464 -39 
C 2598 -39 2938 51 2938 563 
L 2938 926 
L 2822 926 
L 2822 557 
C 2822 161 2650 109 2566 109 
C 2304 109 2304 446 2304 732 
L 2304 1656 
z
M 1965 887 
C 1965 323 1568 38 1216 38 
C 896 38 646 278 646 576 
C 646 771 730 1114 1101 1322 
C 1408 1497 1760 1523 1965 1536 
L 1965 887 
z
" transform="scale(0.015625)"/>
       <path id="CMR17-75" d="M 1882 2745 
L 1882 2579 
C 2259 2579 2317 2540 2317 2229 
L 2317 1053 
C 2317 510 2029 38 1555 38 
C 1030 38 986 355 986 691 
L 986 2816 
L 211 2745 
L 211 2579 
C 467 2579 640 2579 646 2320 
L 646 1079 
C 646 646 646 368 813 187 
C 896 103 1056 -64 1517 -64 
C 2061 -64 2272 400 2323 536 
L 2330 536 
L 2330 -64 
L 3091 -13 
L 3091 154 
C 2714 154 2656 193 2656 503 
L 2656 2816 
L 1882 2745 
z
" transform="scale(0.015625)"/>
       <path id="CMR17-67" d="M 710 1165 
C 832 1068 1043 960 1299 960 
C 1805 960 2240 1359 2240 1895 
C 2240 2063 2189 2321 1997 2521 
C 2176 2713 2438 2777 2586 2777 
C 2611 2777 2650 2777 2682 2758 
C 2656 2751 2598 2726 2598 2623 
C 2598 2540 2656 2483 2739 2483 
C 2835 2483 2886 2547 2886 2630 
C 2886 2751 2790 2880 2586 2880 
C 2330 2880 2106 2758 1926 2591 
C 1734 2764 1504 2828 1299 2828 
C 794 2828 358 2431 358 1895 
C 358 1527 570 1294 634 1230 
C 442 1004 442 742 442 710 
C 442 544 506 300 723 166 
C 390 82 128 -184 128 -517 
C 128 -996 736 -1344 1466 -1344 
C 2170 -1344 2803 -1009 2803 -510 
C 2803 384 1856 384 1363 384 
C 1216 384 954 384 922 390 
C 723 422 589 601 589 825 
C 589 883 589 1024 710 1165 
z
M 1299 1068 
C 736 1068 736 1766 736 1895 
C 736 2024 736 2719 1299 2719 
C 1862 2719 1862 2024 1862 1895 
C 1862 1766 1862 1068 1299 1068 
z
M 1466 -1236 
C 826 -1236 384 -883 384 -517 
C 384 -311 493 -118 634 -11 
C 794 102 858 102 1293 102 
C 1818 102 2547 102 2547 -517 
C 2547 -883 2106 -1236 1466 -1236 
z
" transform="scale(0.015625)"/>
       <path id="CMR17-68" d="M 2656 1954 
C 2656 2282 2592 2816 1837 2816 
C 1312 2816 1056 2392 979 2179 
L 973 2179 
L 973 4416 
L 211 4345 
L 211 4179 
C 589 4179 646 4141 646 3843 
L 646 443 
C 646 198 621 166 211 166 
L 211 0 
C 365 12 646 12 813 12 
C 979 12 1267 12 1421 0 
L 1421 166 
C 1011 166 986 192 986 443 
L 986 1678 
C 986 2269 1344 2713 1792 2713 
C 2266 2713 2317 2289 2317 1980 
L 2317 443 
C 2317 198 2291 166 1882 166 
L 1882 0 
C 2035 12 2317 12 2483 12 
C 2650 12 2938 12 3091 0 
L 3091 166 
C 2682 166 2656 192 2656 443 
L 2656 1954 
z
" transform="scale(0.015625)"/>
       <path id="CMR17-74" d="M 966 2585 
L 1862 2585 
L 1862 2752 
L 966 2752 
L 966 3968 
L 851 3968 
C 838 3292 614 2700 70 2687 
L 70 2585 
L 627 2585 
L 627 778 
C 627 655 627 -64 1370 -64 
C 1747 -64 1965 308 1965 784 
L 1965 1151 
L 1850 1151 
L 1850 790 
C 1850 347 1677 51 1408 51 
C 1222 51 966 179 966 765 
L 966 2585 
z
" transform="scale(0.015625)"/>
       <path id="CMR17-65" d="M 2438 1503 
C 2464 1529 2464 1542 2464 1606 
C 2464 2251 2118 2816 1389 2816 
C 710 2816 173 2175 173 1394 
C 173 554 781 -64 1459 -64 
C 2176 -64 2458 619 2458 755 
C 2458 800 2419 800 2406 800 
C 2362 800 2355 787 2330 709 
C 2189 270 1837 51 1504 51 
C 1229 51 954 206 781 490 
C 582 819 582 1200 582 1503 
L 2438 1503 
z
M 589 1600 
C 634 2511 1126 2713 1382 2713 
C 1818 2713 2112 2308 2118 1600 
L 589 1600 
z
" transform="scale(0.015625)"/>
       <path id="CMR17-72" d="M 960 1517 
C 960 2134 1222 2713 1702 2713 
C 1747 2713 1792 2707 1837 2687 
C 1837 2687 1696 2642 1696 2475 
C 1696 2321 1818 2257 1914 2257 
C 1990 2257 2131 2302 2131 2482 
C 2131 2687 1926 2816 1709 2816 
C 1222 2816 1011 2340 947 2115 
L 941 2115 
L 941 2816 
L 198 2745 
L 198 2578 
C 576 2578 634 2540 634 2231 
L 634 443 
C 634 198 608 166 198 166 
L 198 0 
C 352 12 646 12 813 12 
C 998 12 1325 12 1498 0 
L 1498 166 
C 1037 166 960 166 960 455 
L 960 1517 
z
" transform="scale(0.015625)"/>
       <path id="CMR17-6d" d="M 4326 1954 
C 4326 2276 4269 2816 3507 2816 
C 3072 2816 2771 2520 2656 2173 
L 2650 2173 
C 2573 2700 2195 2816 1837 2816 
C 1331 2816 1069 2424 973 2166 
L 966 2166 
L 966 2816 
L 211 2745 
L 211 2578 
C 589 2578 646 2540 646 2231 
L 646 443 
C 646 198 621 166 211 166 
L 211 0 
C 365 12 646 12 813 12 
C 979 12 1267 12 1421 0 
L 1421 166 
C 1011 166 986 192 986 443 
L 986 1678 
C 986 2269 1344 2713 1792 2713 
C 2266 2713 2317 2289 2317 1980 
L 2317 443 
C 2317 198 2291 166 1882 166 
L 1882 0 
C 2035 12 2317 12 2483 12 
C 2650 12 2938 12 3091 0 
L 3091 166 
C 2682 166 2656 192 2656 443 
L 2656 1678 
C 2656 2269 3014 2713 3462 2713 
C 3936 2713 3987 2289 3987 1980 
L 3987 443 
C 3987 198 3962 166 3552 166 
L 3552 0 
C 3706 12 3987 12 4154 12 
C 4320 12 4608 12 4762 0 
L 4762 166 
C 4352 166 4326 192 4326 443 
L 4326 1954 
z
" transform="scale(0.015625)"/>
       <path id="CMR17-62" d="M 960 4416 
L 198 4345 
L 198 4179 
C 576 4179 634 4141 634 3843 
L 634 -13 
L 749 -13 
L 934 445 
C 1120 141 1395 -64 1766 -64 
C 2406 -64 3053 503 3053 1382 
C 3053 2209 2477 2816 1830 2816 
C 1434 2816 1152 2603 960 2351 
L 960 4416 
z
M 973 2022 
C 973 2138 973 2157 1062 2293 
C 1312 2681 1670 2713 1792 2713 
C 1984 2713 2643 2610 2643 1388 
C 2643 109 1888 38 1734 38 
C 1536 38 1248 115 1043 490 
C 973 613 973 626 973 742 
L 973 2022 
z
" transform="scale(0.015625)"/>
       <path id="CMR17-41" d="M 2323 4441 
C 2291 4524 2278 4544 2214 4544 
C 2150 4544 2138 4524 2106 4441 
L 749 580 
C 627 236 371 166 147 166 
L 147 0 
C 262 12 518 12 640 12 
C 800 12 1056 12 1210 0 
L 1210 166 
C 909 179 864 382 864 459 
C 864 516 877 548 890 586 
L 1229 1536 
L 2906 1536 
L 3290 453 
C 3322 376 3322 363 3322 338 
C 3322 166 3046 166 2925 166 
L 2925 0 
C 3110 12 3443 12 3642 12 
C 3808 12 4128 12 4282 0 
L 4282 166 
C 3942 166 3827 166 3744 402 
L 2323 4441 
z
M 2067 3924 
L 2848 1702 
L 1286 1702 
L 2067 3924 
z
" transform="scale(0.015625)"/>
      </defs>
      <use xlink:href="#CMR17-46" transform="scale(0.996264)"/>
      <use xlink:href="#CMR17-69" transform="translate(59.983847 0)scale(0.996264)"/>
      <use xlink:href="#CMR17-73" transform="translate(84.854905 0)scale(0.996264)"/>
      <use xlink:href="#CMR17-73" transform="translate(120.656243 0)scale(0.996264)"/>
      <use xlink:href="#CMR17-69" transform="translate(156.45758 0)scale(0.996264)"/>
      <use xlink:href="#CMR17-6f" transform="translate(181.328639 0)scale(0.996264)"/>
      <use xlink:href="#CMR17-6e" transform="translate(227.019116 0)scale(0.996264)"/>
      <use xlink:href="#CMR17-64" transform="translate(309.143598 0)scale(0.996264)"/>
      <use xlink:href="#CMR17-61" transform="translate(360.038968 0)scale(0.996264)"/>
      <use xlink:href="#CMR17-75" transform="translate(405.729445 0)scale(0.996264)"/>
      <use xlink:href="#CMR17-67" transform="translate(456.624815 0)scale(0.996264)"/>
      <use xlink:href="#CMR17-68" transform="translate(502.315292 0)scale(0.996264)"/>
      <use xlink:href="#CMR17-74" transform="translate(550.608208 0)scale(0.996264)"/>
      <use xlink:href="#CMR17-65" transform="translate(585.888976 0)scale(0.996264)"/>
      <use xlink:href="#CMR17-72" transform="translate(626.374636 0)scale(0.996264)"/>
      <use xlink:href="#CMR17-6d" transform="translate(692.884517 0)scale(0.996264)"/>
      <use xlink:href="#CMR17-61" transform="translate(769.804107 0)scale(0.996264)"/>
      <use xlink:href="#CMR17-73" transform="translate(815.494584 0)scale(0.996264)"/>
      <use xlink:href="#CMR17-73" transform="translate(851.295922 0)scale(0.996264)"/>
      <use xlink:href="#CMR17-6e" transform="translate(918.326372 0)scale(0.996264)"/>
      <use xlink:href="#CMR17-75" transform="translate(966.619288 0)scale(0.996264)"/>
      <use xlink:href="#CMR17-6d" transform="translate(1017.514658 0)scale(0.996264)"/>
      <use xlink:href="#CMR17-62" transform="translate(1091.831793 0)scale(0.996264)"/>
      <use xlink:href="#CMR17-65" transform="translate(1145.329602 0)scale(0.996264)"/>
      <use xlink:href="#CMR17-72" transform="translate(1185.815262 0)scale(0.996264)"/>
      <use xlink:href="#CMR17-41" transform="translate(1252.325143 0)scale(0.996264)"/>
     </g>
    </g>
   </g>
   <g id="matplotlib.axis_2">
    <g id="ytick_1">
     <g id="line2d_11">
      <path d="M 86.4 336.66504 
L 547.2 336.66504 
" clip-path="url(#p79536ee803)" style="fill: none; stroke: #b0b0b0; stroke-width: 0.8; stroke-linecap: square"/>
     </g>
     <g id="line2d_12">
      <defs>
       <path id="mda369fcc8f" d="M 0 0 
L -3.5 0 
" style="stroke: #000000; stroke-width: 0.8"/>
      </defs>
      <g>
       <use xlink:href="#mda369fcc8f" x="86.4" y="336.66504" style="stroke: #000000; stroke-width: 0.8"/>
      </g>
     </g>
     <g id="text_7">
      <!-- $\mathdefault{10^{-2}}$ -->
      <g transform="translate(43.447161 343.583538)scale(0.2 -0.2)">
       <defs>
        <path id="CMSY10-0" d="M 4218 1472 
C 4326 1472 4442 1472 4442 1600 
C 4442 1728 4326 1728 4218 1728 
L 755 1728 
C 646 1728 531 1728 531 1600 
C 531 1472 646 1472 755 1472 
L 4218 1472 
z
" transform="scale(0.015625)"/>
       </defs>
       <use xlink:href="#CMR17-31" transform="scale(0.996264)"/>
       <use xlink:href="#CMR17-30" transform="translate(45.690477 0)scale(0.996264)"/>
       <use xlink:href="#CMSY10-0" transform="translate(91.380954 36.153639)scale(0.697382)"/>
       <use xlink:href="#CMR17-32" transform="translate(145.621947 36.153639)scale(0.697382)"/>
      </g>
     </g>
    </g>
    <g id="ytick_2">
     <g id="line2d_13">
      <path d="M 86.4 235.230097 
L 547.2 235.230097 
" clip-path="url(#p79536ee803)" style="fill: none; stroke: #b0b0b0; stroke-width: 0.8; stroke-linecap: square"/>
     </g>
     <g id="line2d_14">
      <g>
       <use xlink:href="#mda369fcc8f" x="86.4" y="235.230097" style="stroke: #000000; stroke-width: 0.8"/>
      </g>
     </g>
     <g id="text_8">
      <!-- $\mathdefault{10^{-1}}$ -->
      <g transform="translate(43.447161 242.148595)scale(0.2 -0.2)">
       <use xlink:href="#CMR17-31" transform="scale(0.996264)"/>
       <use xlink:href="#CMR17-30" transform="translate(45.690477 0)scale(0.996264)"/>
       <use xlink:href="#CMSY10-0" transform="translate(91.380954 36.153639)scale(0.697382)"/>
       <use xlink:href="#CMR17-31" transform="translate(145.621947 36.153639)scale(0.697382)"/>
      </g>
     </g>
    </g>
    <g id="ytick_3">
     <g id="line2d_15">
      <path d="M 86.4 133.795154 
L 547.2 133.795154 
" clip-path="url(#p79536ee803)" style="fill: none; stroke: #b0b0b0; stroke-width: 0.8; stroke-linecap: square"/>
     </g>
     <g id="line2d_16">
      <g>
       <use xlink:href="#mda369fcc8f" x="86.4" y="133.795154" style="stroke: #000000; stroke-width: 0.8"/>
      </g>
     </g>
     <g id="text_9">
      <!-- $\mathdefault{10^{0}}$ -->
      <g transform="translate(54.295351 140.713652)scale(0.2 -0.2)">
       <use xlink:href="#CMR17-31" transform="scale(0.996264)"/>
       <use xlink:href="#CMR17-30" transform="translate(45.690477 0)scale(0.996264)"/>
       <use xlink:href="#CMR17-30" transform="translate(91.380954 36.153639)scale(0.697382)"/>
      </g>
     </g>
    </g>
    <g id="ytick_4">
     <g id="line2d_17">
      <defs>
       <path id="m22cf7bed01" d="M 0 0 
L -2 0 
" style="stroke: #000000; stroke-width: 0.6"/>
      </defs>
      <g>
       <use xlink:href="#m22cf7bed01" x="86.4" y="367.2" style="stroke: #000000; stroke-width: 0.6"/>
      </g>
     </g>
    </g>
    <g id="ytick_5">
     <g id="line2d_18">
      <g>
       <use xlink:href="#m22cf7bed01" x="86.4" y="359.168255" style="stroke: #000000; stroke-width: 0.6"/>
      </g>
     </g>
    </g>
    <g id="ytick_6">
     <g id="line2d_19">
      <g>
       <use xlink:href="#m22cf7bed01" x="86.4" y="352.377511" style="stroke: #000000; stroke-width: 0.6"/>
      </g>
     </g>
    </g>
    <g id="ytick_7">
     <g id="line2d_20">
      <g>
       <use xlink:href="#m22cf7bed01" x="86.4" y="346.495101" style="stroke: #000000; stroke-width: 0.6"/>
      </g>
     </g>
    </g>
    <g id="ytick_8">
     <g id="line2d_21">
      <g>
       <use xlink:href="#m22cf7bed01" x="86.4" y="341.306448" style="stroke: #000000; stroke-width: 0.6"/>
      </g>
     </g>
    </g>
    <g id="ytick_9">
     <g id="line2d_22">
      <g>
       <use xlink:href="#m22cf7bed01" x="86.4" y="306.130079" style="stroke: #000000; stroke-width: 0.6"/>
      </g>
     </g>
    </g>
    <g id="ytick_10">
     <g id="line2d_23">
      <g>
       <use xlink:href="#m22cf7bed01" x="86.4" y="288.268272" style="stroke: #000000; stroke-width: 0.6"/>
      </g>
     </g>
    </g>
    <g id="ytick_11">
     <g id="line2d_24">
      <g>
       <use xlink:href="#m22cf7bed01" x="86.4" y="275.595119" style="stroke: #000000; stroke-width: 0.6"/>
      </g>
     </g>
    </g>
    <g id="ytick_12">
     <g id="line2d_25">
      <g>
       <use xlink:href="#m22cf7bed01" x="86.4" y="265.765057" style="stroke: #000000; stroke-width: 0.6"/>
      </g>
     </g>
    </g>
    <g id="ytick_13">
     <g id="line2d_26">
      <g>
       <use xlink:href="#m22cf7bed01" x="86.4" y="257.733312" style="stroke: #000000; stroke-width: 0.6"/>
      </g>
     </g>
    </g>
    <g id="ytick_14">
     <g id="line2d_27">
      <g>
       <use xlink:href="#m22cf7bed01" x="86.4" y="250.942568" style="stroke: #000000; stroke-width: 0.6"/>
      </g>
     </g>
    </g>
    <g id="ytick_15">
     <g id="line2d_28">
      <g>
       <use xlink:href="#m22cf7bed01" x="86.4" y="245.060158" style="stroke: #000000; stroke-width: 0.6"/>
      </g>
     </g>
    </g>
    <g id="ytick_16">
     <g id="line2d_29">
      <g>
       <use xlink:href="#m22cf7bed01" x="86.4" y="239.871505" style="stroke: #000000; stroke-width: 0.6"/>
      </g>
     </g>
    </g>
    <g id="ytick_17">
     <g id="line2d_30">
      <g>
       <use xlink:href="#m22cf7bed01" x="86.4" y="204.695136" style="stroke: #000000; stroke-width: 0.6"/>
      </g>
     </g>
    </g>
    <g id="ytick_18">
     <g id="line2d_31">
      <g>
       <use xlink:href="#m22cf7bed01" x="86.4" y="186.83333" style="stroke: #000000; stroke-width: 0.6"/>
      </g>
     </g>
    </g>
    <g id="ytick_19">
     <g id="line2d_32">
      <g>
       <use xlink:href="#m22cf7bed01" x="86.4" y="174.160176" style="stroke: #000000; stroke-width: 0.6"/>
      </g>
     </g>
    </g>
    <g id="ytick_20">
     <g id="line2d_33">
      <g>
       <use xlink:href="#m22cf7bed01" x="86.4" y="164.330114" style="stroke: #000000; stroke-width: 0.6"/>
      </g>
     </g>
    </g>
    <g id="ytick_21">
     <g id="line2d_34">
      <g>
       <use xlink:href="#m22cf7bed01" x="86.4" y="156.298369" style="stroke: #000000; stroke-width: 0.6"/>
      </g>
     </g>
    </g>
    <g id="ytick_22">
     <g id="line2d_35">
      <g>
       <use xlink:href="#m22cf7bed01" x="86.4" y="149.507625" style="stroke: #000000; stroke-width: 0.6"/>
      </g>
     </g>
    </g>
    <g id="ytick_23">
     <g id="line2d_36">
      <g>
       <use xlink:href="#m22cf7bed01" x="86.4" y="143.625216" style="stroke: #000000; stroke-width: 0.6"/>
      </g>
     </g>
    </g>
    <g id="ytick_24">
     <g id="line2d_37">
      <g>
       <use xlink:href="#m22cf7bed01" x="86.4" y="138.436562" style="stroke: #000000; stroke-width: 0.6"/>
      </g>
     </g>
    </g>
    <g id="ytick_25">
     <g id="line2d_38">
      <g>
       <use xlink:href="#m22cf7bed01" x="86.4" y="103.260194" style="stroke: #000000; stroke-width: 0.6"/>
      </g>
     </g>
    </g>
    <g id="ytick_26">
     <g id="line2d_39">
      <g>
       <use xlink:href="#m22cf7bed01" x="86.4" y="85.398387" style="stroke: #000000; stroke-width: 0.6"/>
      </g>
     </g>
    </g>
    <g id="ytick_27">
     <g id="line2d_40">
      <g>
       <use xlink:href="#m22cf7bed01" x="86.4" y="72.725233" style="stroke: #000000; stroke-width: 0.6"/>
      </g>
     </g>
    </g>
    <g id="ytick_28">
     <g id="line2d_41">
      <g>
       <use xlink:href="#m22cf7bed01" x="86.4" y="62.895172" style="stroke: #000000; stroke-width: 0.6"/>
      </g>
     </g>
    </g>
    <g id="ytick_29">
     <g id="line2d_42">
      <g>
       <use xlink:href="#m22cf7bed01" x="86.4" y="54.863426" style="stroke: #000000; stroke-width: 0.6"/>
      </g>
     </g>
    </g>
    <g id="ytick_30">
     <g id="line2d_43">
      <g>
       <use xlink:href="#m22cf7bed01" x="86.4" y="48.072683" style="stroke: #000000; stroke-width: 0.6"/>
      </g>
     </g>
    </g>
    <g id="text_10">
     <!-- $\mathrm{Fission\ yield}$ -->
     <g transform="translate(35.571528 255.055933)rotate(-90)scale(0.2 -0.2)">
      <defs>
       <path id="CMR17-79" d="M 2496 2183 
C 2656 2579 2944 2585 3034 2585 
L 3034 2752 
C 2912 2745 2752 2739 2630 2739 
C 2496 2739 2285 2739 2157 2752 
L 2157 2585 
C 2400 2566 2406 2384 2406 2332 
C 2406 2268 2394 2235 2362 2158 
L 1664 409 
L 902 2300 
C 870 2378 870 2423 870 2430 
C 870 2572 1018 2585 1171 2585 
L 1171 2752 
C 1018 2739 742 2739 582 2739 
C 410 2739 205 2739 64 2752 
L 64 2585 
C 410 2585 448 2553 531 2345 
L 1485 -31 
C 1197 -795 1030 -1242 627 -1242 
C 557 -1242 397 -1223 282 -1106 
C 429 -1093 493 -1002 493 -892 
C 493 -782 416 -685 288 -685 
C 147 -685 77 -782 77 -899 
C 77 -1158 339 -1344 627 -1344 
C 998 -1344 1229 -983 1357 -659 
L 2496 2183 
z
" transform="scale(0.015625)"/>
       <path id="CMR17-6c" d="M 979 4416 
L 218 4345 
L 218 4179 
C 595 4179 653 4141 653 3835 
L 653 439 
C 653 198 627 166 218 166 
L 218 0 
C 371 12 653 12 813 12 
C 979 12 1261 12 1414 0 
L 1414 166 
C 1005 166 979 191 979 439 
L 979 4416 
z
" transform="scale(0.015625)"/>
      </defs>
      <use xlink:href="#CMR17-46" transform="scale(0.996264)"/>
      <use xlink:href="#CMR17-69" transform="translate(59.983847 0)scale(0.996264)"/>
      <use xlink:href="#CMR17-73" transform="translate(84.854905 0)scale(0.996264)"/>
      <use xlink:href="#CMR17-73" transform="translate(120.656243 0)scale(0.996264)"/>
      <use xlink:href="#CMR17-69" transform="translate(156.45758 0)scale(0.996264)"/>
      <use xlink:href="#CMR17-6f" transform="translate(181.328639 0)scale(0.996264)"/>
      <use xlink:href="#CMR17-6e" transform="translate(227.019116 0)scale(0.996264)"/>
      <use xlink:href="#CMR17-79" transform="translate(309.143598 0)scale(0.996264)"/>
      <use xlink:href="#CMR17-69" transform="translate(357.436514 0)scale(0.996264)"/>
      <use xlink:href="#CMR17-65" transform="translate(382.307573 0)scale(0.996264)"/>
      <use xlink:href="#CMR17-6c" transform="translate(422.793233 0)scale(0.996264)"/>
      <use xlink:href="#CMR17-64" transform="translate(447.664292 0)scale(0.996264)"/>
     </g>
    </g>
   </g>
   <g id="line2d_44">
    <path d="M 107.456758 433 
L 108.461017 427.446197 
L 109.745241 422.30815 
L 110.317089 417.283259 
L 111.181353 411.407933 
L 112.481898 405.337448 
L 113.397108 398.378467 
L 114.456374 391.628438 
L 115.40192 386.500229 
L 117.093042 375.679835 
L 118.276783 369.593795 
L 120.564327 351.414391 
L 119.630478 362.762339 
L 121.948686 344.231614 
L 122.601988 336.515413 
L 123.193939 324.516309 
L 123.796937 315.700091 
L 122.814007 320.575545 
L 125.657617 291.935314 
L 124.59381 307.789471 
L 124.980153 300.28467 
L 126.748381 285.804335 
L 125.858748 296.50713 
L 127.865176 280.167935 
L 129.779429 270.170229 
L 130.301379 265.670576 
L 131.100723 260.019563 
L 132.569349 253.878601 
L 136.252538 234.865896 
L 138.124716 221.50899 
L 140.434186 207.363125 
L 139.483999 215.495453 
L 143.27131 200.620618 
L 145.248844 196.23199 
L 146.964509 191.61372 
L 148.721279 185.70512 
L 150.497479 180.291865 
L 151.519947 174.679641 
L 152.268906 169.482589 
L 155.125432 164.838291 
L 158.948139 160.695773 
L 161.060677 155.191086 
L 162.600513 148.7026 
L 166.146245 143.976614 
L 169.105116 139.549692 
L 171.323174 128.351987 
L 173.944279 119.259374 
L 172.664323 125.022064 
L 177.46815 112.892407 
L 179.77275 108.597286 
L 181.70454 104.298256 
L 184.843057 99.175414 
L 187.701232 94.772418 
L 191.037201 89.845193 
L 192.608748 85.009117 
L 195.619859 79.504961 
L 198.324117 73.449926 
L 202.760663 67.81942 
L 207.388777 64.132801 
L 214.398883 59.275559 
L 227.242186 52.244931 
L 232.958937 49.024096 
L 239.219313 52.743778 
L 245.804545 50.329433 
L 251.604024 53.691473 
L 255.647188 58.33124 
L 258.472249 63.760556 
L 260.410284 69.705041 
L 262.050762 75.385764 
L 263.822774 80.675961 
L 265.446996 86.159661 
L 266.625317 91.616754 
L 268.170894 97.071572 
L 271.221823 106.790588 
L 272.090659 111.833364 
L 273.666152 116.969639 
L 275.336614 121.914795 
L 276.170433 129.13899 
L 275.194741 124.63517 
L 277.517339 135.785551 
L 278.357551 141.335917 
L 279.125671 148.077262 
L 281.622558 165.166603 
L 282.359572 171.269364 
L 284.258493 183.036386 
L 285.162961 192.572068 
L 286.48648 199.910581 
L 286.976012 205.018902 
L 287.978585 210.847756 
L 289.080525 218.410137 
L 291.038725 232.875529 
L 290.152569 225.867088 
L 294.094314 239.623218 
L 295.125144 246.978417 
L 294.129674 242.189252 
L 297.575211 253.299887 
L 300.432344 264.402442 
L 303.530849 274.300212 
L 306.925041 277.895219 
L 314.103174 276.89301 
L 320.834551 275.738785 
L 327.564328 274.350415 
L 333.586843 271.674641 
L 336.175923 266.56749 
L 337.78973 262.045456 
L 342.438977 253.231764 
L 344.397493 248.669116 
L 346.772253 243.967751 
L 349.432272 239.266234 
L 351.618967 234.699338 
L 353.107588 229.681997 
L 353.698236 224.324849 
L 354.819109 219.285392 
L 356.448027 208.754696 
L 357.295811 202.175331 
L 358.949381 194.39899 
L 360.313068 186.894964 
L 361.527846 181.081441 
L 362.66028 173.89078 
L 363.85908 161.468137 
L 363.419852 167.637539 
L 365.307458 153.549628 
L 366.385701 147.679312 
L 367.658334 142.149413 
L 368.300219 136.285116 
L 369.309505 131.352941 
L 371.154057 125.375531 
L 372.983999 114.519433 
L 372.188816 120.257607 
L 374.408732 108.548947 
L 375.818119 103.463803 
L 377.737943 94.091834 
L 379.154222 89.161465 
L 381.062724 78.843831 
L 383.082185 74.590152 
L 384.481533 70.384256 
L 386.315512 66.382301 
L 387.279526 61.146863 
L 389.293731 56.063645 
L 391.158729 50.562505 
L 395.641562 45.742209 
L 403.658982 47.407779 
L 410.497165 50.020102 
L 416.937999 54.877667 
L 423.798392 56.950214 
L 430.047158 58.97039 
L 436.761245 64.291655 
L 440.886844 68.636341 
L 446.13047 78.712027 
L 450.13838 84.063355 
L 452.242524 88.531268 
L 455.1382 93.6826 
L 458.042028 97.91935 
L 460.587947 102.613145 
L 463.983807 107.570678 
L 464.934605 112.53161 
L 467.576147 118.695743 
L 470.570695 124.005371 
L 471.785053 128.806279 
L 477.375954 139.578368 
L 479.910212 143.769811 
L 481.368832 150.16133 
L 482.893581 155.082189 
L 484.485104 158.38947 
L 485.554293 163.5305 
L 486.817862 168.41725 
L 488.868808 174.132033 
L 493.837939 192.297513 
L 495.784827 197.705105 
L 497.666303 202.29239 
L 497.805627 207.383765 
L 499.14681 211.531891 
L 500.341701 216.152311 
L 500.91912 220.424301 
L 502.305652 225.042127 
L 503.624691 230.693889 
L 505.410574 235.879219 
L 506.697704 241.605069 
L 508.217771 248.882894 
L 508.790952 256.241813 
L 509.391211 261.564231 
L 510.109921 266.106254 
L 513.105182 281.769142 
L 514.107778 287.601242 
L 516.207073 297.381849 
L 516.894847 302.810365 
L 517.791491 315.306959 
L 517.673742 307.826539 
L 518.437511 322.443829 
L 520.714724 343.391866 
L 519.372727 329.202971 
L 519.32608 334.947766 
L 520.590178 351.780085 
L 521.251199 358.503061 
L 522.140524 365.420043 
L 521.93137 369.986205 
L 523.322203 375.544141 
L 522.767142 380.75843 
L 523.117257 385.032166 
L 523.947916 389.184137 
L 524.750318 405.538948 
L 523.74468 394.666139 
L 524.33369 398.677541 
L 525.227027 412.003934 
L 526.254545 421.484145 
L 526.254545 421.484145 
" clip-path="url(#p79536ee803)" style="fill: none; stroke: #ff0000; stroke-width: 3.5; stroke-linecap: square"/>
   </g>
   <g id="line2d_45">
    <path d="M 110.115855 433 
L 110.449058 426.948192 
L 111.650288 419.446257 
L 113.19935 410.533054 
L 112.358084 415.288357 
L 114.100351 400.217624 
L 113.490558 405.205184 
L 115.162304 379.911358 
L 115.027486 393.082685 
L 116.321741 373.364754 
L 116.995832 366.654828 
L 118.020451 360.904028 
L 120.285398 347.273681 
L 119.401819 354.9764 
L 122.453275 331.073764 
L 123.859307 324.897072 
L 124.771169 312.843964 
L 125.698869 305.444163 
L 126.849121 298.318262 
L 128.406849 290.086485 
L 129.47461 283.546081 
L 130.42373 276.509439 
L 130.801221 270.633877 
L 132.365113 264.437866 
L 132.621268 258.700635 
L 134.683987 247.032196 
L 135.589966 239.833463 
L 134.360423 244.046838 
L 136.463588 233.612448 
L 138.740979 220.560879 
L 139.774724 211.615917 
L 138.566753 217.271809 
L 142.093598 199.089771 
L 144.498756 189.747687 
L 147.383867 175.284637 
L 149.40614 169.217996 
L 150.812399 162.543407 
L 151.401451 156.540058 
L 152.44764 151.253428 
L 153.288906 146.099653 
L 154.421379 140.272815 
L 156.20098 133.620479 
L 161.71401 119.734108 
L 164.746006 110.121795 
L 166.099092 103.671983 
L 168.415514 98.437908 
L 170.674239 92.69574 
L 172.570368 87.012681 
L 174.158772 82.616571 
L 175.747176 77.641939 
L 178.742593 72.783734 
L 180.479052 65.080223 
L 180.306484 69.842839 
L 182.894995 58.875063 
L 187.849566 55.111472 
L 194.947747 54.471077 
L 201.252984 51.446582 
L 208.399436 50.521195 
L 214.907589 52.51881 
L 221.836851 55.961611 
L 234.179859 53.20655 
L 237.059576 58.663992 
L 238.995981 63.339121 
L 241.686539 67.932693 
L 243.934356 73.140485 
L 246.382837 80.324402 
L 248.481379 85.162699 
L 250.699589 94.476916 
L 251.526474 100.073413 
L 251.975868 104.165325 
L 253.431905 107.823296 
L 253.667224 112.902917 
L 254.72616 117.368413 
L 255.292397 122.017425 
L 256.214554 127.270291 
L 257.8476 135.44971 
L 257.152889 131.080319 
L 258.204471 142.8243 
L 258.997203 148.004011 
L 259.579618 153.133271 
L 260.262697 157.832155 
L 260.815043 163.581352 
L 262.038703 174.099592 
L 261.521 168.552115 
L 264.612832 190.626515 
L 264.936396 195.362056 
L 265.992064 201.567531 
L 268.130947 220.784082 
L 269.037637 227.625715 
L 269.664023 235.402 
L 271.371721 248.538232 
L 271.777973 254.26362 
L 272.805288 260.325876 
L 274.463553 274.643586 
L 275.070235 279.210515 
L 275.973517 285.031056 
L 277.181489 289.7234 
L 280.116403 295.491386 
L 286.11185 309.156472 
L 286.839869 314.912088 
L 287.873475 320.962998 
L 289.929903 334.517896 
L 292.88966 337.8499 
L 306.49637 334.674946 
L 313.29121 334.522959 
L 322.027433 332.577469 
L 328.822273 330.474156 
L 334.587592 327.780594 
L 338.690969 322.942217 
L 343.425786 317.958874 
L 345.809373 312.54791 
L 347.677219 307.494765 
L 349.853921 302.418113 
L 353.786465 292.025901 
L 355.44275 286.86803 
L 356.001633 281.720192 
L 357.246109 275.190064 
L 359.682171 259.331796 
L 360.466813 253.080587 
L 361.610072 247.554999 
L 362.649398 240.827493 
L 362.958255 235.617516 
L 364.263296 229.421611 
L 365.748993 223.652014 
L 366.532164 217.54122 
L 366.966851 211.902256 
L 368.431876 205.770165 
L 369.025076 199.785745 
L 370.076659 193.965271 
L 370.788499 187.387631 
L 371.694478 180.49574 
L 372.341605 174.294642 
L 374.734275 156.580682 
L 373.827057 168.759153 
L 374.282988 163.315463 
L 375.933164 148.472927 
L 376.183926 143.242711 
L 380.684929 114.310321 
L 379.621791 119.044418 
L 382.102447 107.072685 
L 382.533865 101.3832 
L 384.259539 92.065824 
L 383.504557 97.915375 
L 390.026922 68.905593 
L 389.102211 75.87118 
L 391.108306 62.740099 
L 392.591307 57.142531 
L 393.332807 51.9721 
L 396.649336 47.477596 
L 401.314634 45.349047 
L 405.722605 50.456369 
L 412.415935 51.940635 
L 418.240083 48.859989 
L 425.697278 50.901605 
L 431.917792 53.75396 
L 437.971131 55.005679 
L 445.287269 55.412284 
L 449.511574 61.860475 
L 451.830448 67.352333 
L 453.27668 72.533437 
L 455.767141 77.754471 
L 457.115323 82.342071 
L 458.571361 86.323878 
L 460.863271 91.585006 
L 463.532672 97.113348 
L 464.862879 102.272376 
L 466.336892 106.594666 
L 468.116493 111.373745 
L 469.087184 115.951035 
L 470.252014 120.510137 
L 471.311686 125.438729 
L 472.161041 130.064097 
L 474.641696 141.35502 
L 475.971903 146.617684 
L 477.445916 152.957389 
L 479.117662 159.295308 
L 480.492809 165.221037 
L 482.029737 171.295499 
L 482.586986 177.293461 
L 486.209103 192.480695 
L 487.044976 197.83148 
L 488.626843 202.949624 
L 489.795268 209.53307 
L 492.819345 222.070148 
L 493.322114 228.272253 
L 494.091477 233.722961 
L 494.558847 238.67329 
L 495.550082 247.239585 
L 495.457635 242.534244 
L 496.234188 254.281444 
L 498.046145 264.358614 
L 498.175571 269.690668 
L 499.340401 275.650362 
L 500.526801 282.48101 
L 500.472874 286.182831 
L 501.066074 291.058763 
L 501.928911 296.266352 
L 502.090693 300.542433 
L 502.668485 305.212471 
L 502.940048 309.542724 
L 504.625276 319.174711 
L 505.399868 326.425432 
L 508.400187 343.102111 
L 508.529613 347.874876 
L 509.370879 352.935295 
L 509.841517 357.211674 
L 510.018006 362.742835 
L 510.757581 367.537646 
L 511.843831 373.450245 
L 512.400613 380.460211 
L 513.577208 387.098326 
L 515.906868 405.823812 
L 516.884749 411.554912 
L 518.107102 426.516008 
L 517.621756 414.734987 
L 518.943563 431.442781 
L 519.205852 433 
L 519.205852 433 
" clip-path="url(#p79536ee803)" style="fill: none; stroke: #0000ff; stroke-width: 3.5; stroke-linecap: square"/>
   </g>
   <g id="patch_3">
    <path d="M 86.4 367.2 
L 86.4 43.2 
" style="fill: none; stroke: #000000; stroke-width: 0.8; stroke-linejoin: miter; stroke-linecap: square"/>
   </g>
   <g id="patch_4">
    <path d="M 547.2 367.2 
L 547.2 43.2 
" style="fill: none; stroke: #000000; stroke-width: 0.8; stroke-linejoin: miter; stroke-linecap: square"/>
   </g>
   <g id="patch_5">
    <path d="M 86.4 367.2 
L 547.2 367.2 
" style="fill: none; stroke: #000000; stroke-width: 0.8; stroke-linejoin: miter; stroke-linecap: square"/>
   </g>
   <g id="patch_6">
    <path d="M 86.4 43.2 
L 547.2 43.2 
" style="fill: none; stroke: #000000; stroke-width: 0.8; stroke-linejoin: miter; stroke-linecap: square"/>
   </g>
   <g id="legend_1">
    <g id="patch_7">
     <path d="M 425.520171 114.951267 
L 533.2 114.951267 
Q 537.2 114.951267 537.2 110.951267 
L 537.2 57.2 
Q 537.2 53.2 533.2 53.2 
L 425.520171 53.2 
Q 421.520171 53.2 421.520171 57.2 
L 421.520171 110.951267 
Q 421.520171 114.951267 425.520171 114.951267 
z
" style="fill: #ffffff; opacity: 0.8; stroke: #cccccc; stroke-linejoin: miter"/>
    </g>
    <g id="line2d_46">
     <path d="M 429.520171 68.2 
L 449.520171 68.2 
L 469.520171 68.2 
" style="fill: none; stroke: #ff0000; stroke-width: 3.5; stroke-linecap: square"/>
    </g>
    <g id="text_11">
     <!-- $^{239}\mathrm{Pu}$ -->
     <g transform="translate(485.520171 75.2)scale(0.2 -0.2)">
      <defs>
       <path id="CMR17-33" d="M 1414 2176 
C 1984 2176 2234 1673 2234 1094 
C 2234 322 1824 25 1453 25 
C 1114 25 563 193 390 691 
C 422 678 454 678 486 678 
C 640 678 755 780 755 947 
C 755 1132 614 1216 486 1216 
C 378 1216 211 1164 211 927 
C 211 335 787 -128 1466 -128 
C 2176 -128 2720 432 2720 1087 
C 2720 1718 2208 2176 1600 2246 
C 2086 2347 2554 2776 2554 3353 
C 2554 3856 2048 4224 1472 4224 
C 890 4224 378 3862 378 3347 
C 378 3123 544 3084 627 3084 
C 762 3084 877 3167 877 3334 
C 877 3500 762 3584 627 3584 
C 602 3584 570 3584 544 3571 
C 730 3999 1235 4076 1459 4076 
C 1683 4076 2106 3966 2106 3347 
C 2106 3167 2080 2851 1862 2574 
C 1670 2329 1453 2316 1242 2297 
C 1210 2297 1062 2284 1037 2284 
C 992 2278 966 2272 966 2227 
C 966 2182 973 2176 1101 2176 
L 1414 2176 
z
" transform="scale(0.015625)"/>
       <path id="CMR17-39" d="M 2253 1871 
C 2253 448 1670 25 1190 25 
C 1043 25 685 43 538 281 
C 704 256 826 345 826 505 
C 826 678 685 736 595 736 
C 538 736 365 710 365 492 
C 365 68 742 -128 1203 -128 
C 1939 -128 2688 665 2688 2090 
C 2688 3857 1971 4224 1485 4224 
C 851 4224 243 3664 243 2800 
C 243 2000 762 1408 1414 1408 
C 1952 1408 2189 1910 2253 2122 
L 2253 1871 
z
M 1427 1510 
C 1254 1510 1011 1542 813 1929 
C 678 2181 678 2477 678 2793 
C 678 3174 678 3438 858 3722 
C 947 3857 1114 4076 1485 4076 
C 2240 4076 2240 2909 2240 2651 
C 2240 2193 2035 1510 1427 1510 
z
" transform="scale(0.015625)"/>
       <path id="CMR17-50" d="M 1267 2048 
L 2291 2048 
C 3117 2048 3718 2583 3718 3187 
C 3718 3791 3130 4352 2291 4352 
L 333 4352 
L 333 4185 
C 774 4185 845 4185 845 3899 
L 845 453 
C 845 166 774 166 333 166 
L 333 0 
C 518 12 858 12 1056 12 
C 1254 12 1594 12 1779 0 
L 1779 166 
C 1338 166 1267 166 1267 453 
L 1267 2048 
z
M 1254 2182 
L 1254 3937 
C 1254 4153 1267 4185 1523 4185 
L 2170 4185 
C 2995 4185 3232 3715 3232 3187 
C 3232 2608 2950 2182 2170 2182 
L 1254 2182 
z
" transform="scale(0.015625)"/>
      </defs>
      <use xlink:href="#CMR17-32" transform="translate(0 36.153639)scale(0.697382)"/>
      <use xlink:href="#CMR17-33" transform="translate(31.983182 36.153639)scale(0.697382)"/>
      <use xlink:href="#CMR17-39" transform="translate(63.966364 36.153639)scale(0.697382)"/>
      <use xlink:href="#CMR17-50" transform="translate(96.447678 0)scale(0.996264)"/>
      <use xlink:href="#CMR17-75" transform="translate(159.033978 0)scale(0.996264)"/>
     </g>
    </g>
    <g id="line2d_47">
     <path d="M 429.520171 96.075634 
L 449.520171 96.075634 
L 469.520171 96.075634 
" style="fill: none; stroke: #0000ff; stroke-width: 3.5; stroke-linecap: square"/>
    </g>
    <g id="text_12">
     <!-- $^{235}\mathrm{U}$ -->
     <g transform="translate(485.520171 103.075634)scale(0.2 -0.2)">
      <defs>
       <path id="CMR17-35" d="M 730 3750 
C 794 3724 1056 3641 1325 3641 
C 1920 3641 2246 3961 2432 4140 
C 2432 4191 2432 4224 2394 4224 
C 2387 4224 2374 4224 2323 4198 
C 2099 4102 1837 4032 1517 4032 
C 1325 4032 1037 4055 723 4191 
C 653 4224 640 4224 634 4224 
C 602 4224 595 4217 595 4090 
L 595 2231 
C 595 2113 595 2080 659 2080 
C 691 2080 704 2093 736 2139 
C 941 2435 1222 2560 1542 2560 
C 1766 2560 2246 2415 2246 1293 
C 2246 1087 2246 716 2054 422 
C 1894 159 1645 25 1370 25 
C 947 25 518 319 403 812 
C 429 806 480 793 506 793 
C 589 793 749 838 749 1036 
C 749 1209 627 1280 506 1280 
C 358 1280 262 1190 262 1011 
C 262 454 704 -128 1382 -128 
C 2042 -128 2669 441 2669 1267 
C 2669 2054 2170 2662 1549 2662 
C 1222 2662 947 2540 730 2304 
L 730 3750 
z
" transform="scale(0.015625)"/>
       <path id="CMR17-55" d="M 3456 1442 
C 3456 583 2899 38 2291 38 
C 1965 38 1670 211 1491 480 
C 1286 788 1261 1185 1261 1410 
L 1261 3897 
C 1261 4185 1331 4185 1773 4185 
L 1773 4352 
C 1587 4339 1248 4339 1050 4339 
C 851 4339 512 4339 326 4352 
L 326 4185 
C 768 4185 838 4185 838 3897 
L 838 1442 
C 838 519 1536 -128 2278 -128 
C 3110 -128 3590 724 3590 1352 
L 3590 3788 
C 3590 4147 3917 4185 4102 4185 
L 4102 4352 
C 3955 4339 3686 4339 3526 4339 
C 3366 4339 3091 4339 2944 4352 
L 2944 4185 
C 3456 4185 3456 3884 3456 3724 
L 3456 1442 
z
" transform="scale(0.015625)"/>
      </defs>
      <use xlink:href="#CMR17-32" transform="translate(0 36.153639)scale(0.697382)"/>
      <use xlink:href="#CMR17-33" transform="translate(31.983182 36.153639)scale(0.697382)"/>
      <use xlink:href="#CMR17-35" transform="translate(63.966364 36.153639)scale(0.697382)"/>
      <use xlink:href="#CMR17-55" transform="translate(96.447678 0)scale(0.996264)"/>
     </g>
    </g>
   </g>
  </g>
 </g>
 <defs>
  <clipPath id="p79536ee803">
   <rect x="86.4" y="43.2" width="460.8" height="324"/>
  </clipPath>
 </defs>
</svg>
