<?xml version="1.0" encoding="utf-8" standalone="no"?>
<!DOCTYPE svg PUBLIC "-//W3C//DTD SVG 1.1//EN"
  "http://www.w3.org/Graphics/SVG/1.1/DTD/svg11.dtd">
<svg xmlns:xlink="http://www.w3.org/1999/xlink" width="1152pt" height="432pt" viewBox="0 0 1152 432" xmlns="http://www.w3.org/2000/svg" version="1.1">
 <metadata>
  <rdf:RDF xmlns:dc="http://purl.org/dc/elements/1.1/" xmlns:cc="http://creativecommons.org/ns#" xmlns:rdf="http://www.w3.org/1999/02/22-rdf-syntax-ns#">
   <cc:Work>
    <dc:type rdf:resource="http://purl.org/dc/dcmitype/StillImage"/>
    <dc:date>2022-05-24T23:09:32.246119</dc:date>
    <dc:format>image/svg+xml</dc:format>
    <dc:creator>
     <cc:Agent>
      <dc:title>Matplotlib v3.5.1, https://matplotlib.org/</dc:title>
     </cc:Agent>
    </dc:creator>
   </cc:Work>
  </rdf:RDF>
 </metadata>
 <defs>
  <style type="text/css">*{stroke-linejoin: round; stroke-linecap: butt}</style>
 </defs>
 <g id="figure_1">
  <g id="patch_1">
   <path d="M 0 432 
L 1152 432 
L 1152 0 
L 0 0 
L 0 432 
z
" style="fill: none"/>
  </g>
  <g id="axes_1">
   <g id="patch_2">
    <path d="M 115.2 367.2 
L 550.4 367.2 
L 550.4 21.6 
L 115.2 21.6 
L 115.2 367.2 
z
" style="fill: none"/>
   </g>
   <g id="matplotlib.axis_1">
    <g id="xtick_1">
     <g id="line2d_1">
      <path d="M 201.891491 367.2 
L 201.891491 21.6 
" clip-path="url(#p1cd20dff72)" style="fill: none; stroke: #b0b0b0; stroke-width: 0.8; stroke-linecap: square"/>
     </g>
     <g id="line2d_2">
      <defs>
       <path id="m6cd415333d" d="M 0 0 
L 0 3.5 
" style="stroke: #000000; stroke-width: 0.8"/>
      </defs>
      <g>
       <use xlink:href="#m6cd415333d" x="201.891491" y="367.2" style="stroke: #000000; stroke-width: 0.8"/>
      </g>
     </g>
     <g id="text_1">
      <!-- $\mathdefault{0.2}$ -->
      <g transform="translate(190.043678 388.036997)scale(0.2 -0.2)">
       <defs>
        <path id="CMR17-30" d="M 2688 2038 
C 2688 2430 2682 3099 2413 3613 
C 2176 4063 1798 4224 1466 4224 
C 1158 4224 768 4082 525 3620 
C 269 3137 243 2539 243 2038 
C 243 1671 250 1112 448 623 
C 723 -39 1216 -128 1466 -128 
C 1760 -128 2208 -7 2470 604 
C 2662 1048 2688 1568 2688 2038 
z
M 1466 -26 
C 1056 -26 813 328 723 816 
C 653 1196 653 1749 653 2109 
C 653 2604 653 3015 736 3407 
C 858 3954 1216 4121 1466 4121 
C 1728 4121 2067 3947 2189 3420 
C 2272 3054 2278 2623 2278 2109 
C 2278 1691 2278 1176 2202 797 
C 2067 96 1690 -26 1466 -26 
z
" transform="scale(0.015625)"/>
        <path id="CMMI12-3a" d="M 1178 307 
C 1178 492 1024 620 870 620 
C 685 620 557 467 557 313 
C 557 128 710 0 864 0 
C 1050 0 1178 153 1178 307 
z
" transform="scale(0.015625)"/>
        <path id="CMR17-32" d="M 2669 990 
L 2554 990 
C 2490 537 2438 460 2413 422 
C 2381 371 1920 371 1830 371 
L 602 371 
C 832 620 1280 1073 1824 1596 
C 2214 1966 2669 2400 2669 3033 
C 2669 3788 2067 4224 1395 4224 
C 691 4224 262 3603 262 3027 
C 262 2777 448 2745 525 2745 
C 589 2745 781 2783 781 3007 
C 781 3206 614 3264 525 3264 
C 486 3264 448 3257 422 3244 
C 544 3788 915 4057 1306 4057 
C 1862 4057 2227 3616 2227 3033 
C 2227 2477 1901 1998 1536 1583 
L 262 147 
L 262 0 
L 2515 0 
L 2669 990 
z
" transform="scale(0.015625)"/>
       </defs>
       <use xlink:href="#CMR17-30" transform="scale(0.996264)"/>
       <use xlink:href="#CMMI12-3a" transform="translate(45.690477 0)scale(0.996264)"/>
       <use xlink:href="#CMR17-32" transform="translate(72.787654 0)scale(0.996264)"/>
      </g>
     </g>
    </g>
    <g id="xtick_2">
     <g id="line2d_3">
      <path d="M 289.018619 367.2 
L 289.018619 21.6 
" clip-path="url(#p1cd20dff72)" style="fill: none; stroke: #b0b0b0; stroke-width: 0.8; stroke-linecap: square"/>
     </g>
     <g id="line2d_4">
      <g>
       <use xlink:href="#m6cd415333d" x="289.018619" y="367.2" style="stroke: #000000; stroke-width: 0.8"/>
      </g>
     </g>
     <g id="text_2">
      <!-- $\mathdefault{0.4}$ -->
      <g transform="translate(277.170805 388.036997)scale(0.2 -0.2)">
       <defs>
        <path id="CMR17-34" d="M 2150 4147 
C 2150 4281 2144 4288 2029 4288 
L 128 1254 
L 128 1088 
L 1779 1088 
L 1779 460 
C 1779 230 1766 166 1318 166 
L 1197 166 
L 1197 0 
C 1402 12 1747 12 1965 12 
C 2182 12 2528 12 2733 0 
L 2733 166 
L 2611 166 
C 2163 166 2150 230 2150 460 
L 2150 1088 
L 2803 1088 
L 2803 1254 
L 2150 1254 
L 2150 4147 
z
M 1798 3723 
L 1798 1254 
L 256 1254 
L 1798 3723 
z
" transform="scale(0.015625)"/>
       </defs>
       <use xlink:href="#CMR17-30" transform="scale(0.996264)"/>
       <use xlink:href="#CMMI12-3a" transform="translate(45.690477 0)scale(0.996264)"/>
       <use xlink:href="#CMR17-34" transform="translate(72.787654 0)scale(0.996264)"/>
      </g>
     </g>
    </g>
    <g id="xtick_3">
     <g id="line2d_5">
      <path d="M 376.145746 367.2 
L 376.145746 21.6 
" clip-path="url(#p1cd20dff72)" style="fill: none; stroke: #b0b0b0; stroke-width: 0.8; stroke-linecap: square"/>
     </g>
     <g id="line2d_6">
      <g>
       <use xlink:href="#m6cd415333d" x="376.145746" y="367.2" style="stroke: #000000; stroke-width: 0.8"/>
      </g>
     </g>
     <g id="text_3">
      <!-- $\mathdefault{0.6}$ -->
      <g transform="translate(364.297933 388.036997)scale(0.2 -0.2)">
       <defs>
        <path id="CMR17-36" d="M 678 2198 
C 678 3712 1395 4076 1811 4076 
C 1946 4076 2272 4049 2400 3782 
C 2298 3782 2106 3782 2106 3558 
C 2106 3385 2246 3328 2336 3328 
C 2394 3328 2566 3353 2566 3571 
C 2566 3987 2246 4224 1805 4224 
C 1043 4224 243 3411 243 2011 
C 243 257 966 -128 1478 -128 
C 2099 -128 2688 431 2688 1295 
C 2688 2101 2170 2688 1517 2688 
C 1126 2688 838 2430 678 1979 
L 678 2198 
z
M 1478 25 
C 691 25 691 1212 691 1450 
C 691 1914 909 2585 1504 2585 
C 1613 2585 1926 2585 2138 2140 
C 2253 1889 2253 1624 2253 1302 
C 2253 954 2253 696 2118 438 
C 1978 173 1773 25 1478 25 
z
" transform="scale(0.015625)"/>
       </defs>
       <use xlink:href="#CMR17-30" transform="scale(0.996264)"/>
       <use xlink:href="#CMMI12-3a" transform="translate(45.690477 0)scale(0.996264)"/>
       <use xlink:href="#CMR17-36" transform="translate(72.787654 0)scale(0.996264)"/>
      </g>
     </g>
    </g>
    <g id="xtick_4">
     <g id="line2d_7">
      <path d="M 463.272873 367.2 
L 463.272873 21.6 
" clip-path="url(#p1cd20dff72)" style="fill: none; stroke: #b0b0b0; stroke-width: 0.8; stroke-linecap: square"/>
     </g>
     <g id="line2d_8">
      <g>
       <use xlink:href="#m6cd415333d" x="463.272873" y="367.2" style="stroke: #000000; stroke-width: 0.8"/>
      </g>
     </g>
     <g id="text_4">
      <!-- $\mathdefault{0.8}$ -->
      <g transform="translate(451.42506 388.036997)scale(0.2 -0.2)">
       <defs>
        <path id="CMR17-38" d="M 1741 2289 
C 2144 2494 2554 2803 2554 3298 
C 2554 3884 1990 4224 1472 4224 
C 890 4224 378 3800 378 3215 
C 378 3054 416 2777 666 2533 
C 730 2469 998 2276 1171 2154 
C 883 2006 211 1652 211 945 
C 211 282 838 -128 1459 -128 
C 2144 -128 2720 366 2720 1022 
C 2720 1607 2330 1877 2074 2051 
L 1741 2289 
z
M 902 2855 
C 851 2887 595 3086 595 3388 
C 595 3781 998 4076 1459 4076 
C 1965 4076 2336 3716 2336 3298 
C 2336 2700 1670 2359 1638 2359 
C 1632 2359 1626 2359 1574 2398 
L 902 2855 
z
M 2080 1536 
C 2176 1466 2483 1253 2483 861 
C 2483 385 2010 25 1472 25 
C 890 25 448 443 448 951 
C 448 1459 838 1884 1280 2083 
L 2080 1536 
z
" transform="scale(0.015625)"/>
       </defs>
       <use xlink:href="#CMR17-30" transform="scale(0.996264)"/>
       <use xlink:href="#CMMI12-3a" transform="translate(45.690477 0)scale(0.996264)"/>
       <use xlink:href="#CMR17-38" transform="translate(72.787654 0)scale(0.996264)"/>
      </g>
     </g>
    </g>
    <g id="xtick_5">
     <g id="line2d_9">
      <path d="M 550.4 367.2 
L 550.4 21.6 
" clip-path="url(#p1cd20dff72)" style="fill: none; stroke: #b0b0b0; stroke-width: 0.8; stroke-linecap: square"/>
     </g>
     <g id="line2d_10">
      <g>
       <use xlink:href="#m6cd415333d" x="550.4" y="367.2" style="stroke: #000000; stroke-width: 0.8"/>
      </g>
     </g>
     <g id="text_5">
      <!-- $\mathdefault{1.0}$ -->
      <g transform="translate(538.552187 388.036997)scale(0.2 -0.2)">
       <defs>
        <path id="CMR17-31" d="M 1702 4083 
C 1702 4217 1696 4224 1606 4224 
C 1357 3927 979 3833 621 3820 
C 602 3820 570 3820 563 3808 
C 557 3795 557 3782 557 3648 
C 755 3648 1088 3686 1344 3839 
L 1344 467 
C 1344 243 1331 166 781 166 
L 589 166 
L 589 0 
C 896 6 1216 12 1523 12 
C 1830 12 2150 6 2458 0 
L 2458 166 
L 2266 166 
C 1715 166 1702 236 1702 467 
L 1702 4083 
z
" transform="scale(0.015625)"/>
       </defs>
       <use xlink:href="#CMR17-31" transform="scale(0.996264)"/>
       <use xlink:href="#CMMI12-3a" transform="translate(45.690477 0)scale(0.996264)"/>
       <use xlink:href="#CMR17-30" transform="translate(72.787654 0)scale(0.996264)"/>
      </g>
     </g>
    </g>
    <g id="text_6">
     <!-- $\mathrm{Electronic\ Recoil\ Energy\ T_\mathrm{er}}\ [\si{keV}]$ -->
     <g transform="translate(194.961973 410.838652)scale(0.2 -0.2)">
      <defs>
       <path id="CMR17-45" d="M 3885 1614 
L 3770 1614 
C 3629 676 3546 166 2419 166 
L 1530 166 
C 1274 166 1261 198 1261 415 
L 1261 2176 
L 1862 2176 
C 2464 2176 2522 1959 2522 1429 
L 2637 1429 
L 2637 3086 
L 2522 3086 
C 2522 2558 2464 2342 1862 2342 
L 1261 2342 
L 1261 3924 
C 1261 4141 1274 4172 1530 4172 
L 2406 4172 
C 3398 4172 3514 3778 3603 2933 
L 3718 2933 
L 3565 4339 
L 326 4339 
L 326 4172 
C 768 4172 838 4172 838 3886 
L 838 453 
C 838 166 768 166 326 166 
L 326 0 
L 3654 0 
L 3885 1614 
z
" transform="scale(0.015625)"/>
       <path id="CMR17-6c" d="M 979 4416 
L 218 4345 
L 218 4179 
C 595 4179 653 4141 653 3835 
L 653 439 
C 653 198 627 166 218 166 
L 218 0 
C 371 12 653 12 813 12 
C 979 12 1261 12 1414 0 
L 1414 166 
C 1005 166 979 191 979 439 
L 979 4416 
z
" transform="scale(0.015625)"/>
       <path id="CMR17-65" d="M 2438 1503 
C 2464 1529 2464 1542 2464 1606 
C 2464 2251 2118 2816 1389 2816 
C 710 2816 173 2175 173 1394 
C 173 554 781 -64 1459 -64 
C 2176 -64 2458 619 2458 755 
C 2458 800 2419 800 2406 800 
C 2362 800 2355 787 2330 709 
C 2189 270 1837 51 1504 51 
C 1229 51 954 206 781 490 
C 582 819 582 1200 582 1503 
L 2438 1503 
z
M 589 1600 
C 634 2511 1126 2713 1382 2713 
C 1818 2713 2112 2308 2118 1600 
L 589 1600 
z
" transform="scale(0.015625)"/>
       <path id="CMR17-63" d="M 2234 2240 
C 2112 2240 1933 2240 1933 2015 
C 1933 1836 2080 1785 2163 1785 
C 2208 1785 2394 1804 2394 2028 
C 2394 2476 1958 2816 1466 2816 
C 787 2816 211 2201 211 1379 
C 211 521 813 -64 1466 -64 
C 2259 -64 2458 676 2458 747 
C 2458 773 2451 792 2406 792 
C 2362 792 2355 786 2330 702 
C 2163 180 1798 51 1523 51 
C 1114 51 621 431 621 1385 
C 621 2358 1094 2700 1472 2700 
C 1722 2700 2093 2582 2234 2240 
z
" transform="scale(0.015625)"/>
       <path id="CMR17-74" d="M 966 2585 
L 1862 2585 
L 1862 2752 
L 966 2752 
L 966 3968 
L 851 3968 
C 838 3292 614 2700 70 2687 
L 70 2585 
L 627 2585 
L 627 778 
C 627 655 627 -64 1370 -64 
C 1747 -64 1965 308 1965 784 
L 1965 1151 
L 1850 1151 
L 1850 790 
C 1850 347 1677 51 1408 51 
C 1222 51 966 179 966 765 
L 966 2585 
z
" transform="scale(0.015625)"/>
       <path id="CMR17-72" d="M 960 1517 
C 960 2134 1222 2713 1702 2713 
C 1747 2713 1792 2707 1837 2687 
C 1837 2687 1696 2642 1696 2475 
C 1696 2321 1818 2257 1914 2257 
C 1990 2257 2131 2302 2131 2482 
C 2131 2687 1926 2816 1709 2816 
C 1222 2816 1011 2340 947 2115 
L 941 2115 
L 941 2816 
L 198 2745 
L 198 2578 
C 576 2578 634 2540 634 2231 
L 634 443 
C 634 198 608 166 198 166 
L 198 0 
C 352 12 646 12 813 12 
C 998 12 1325 12 1498 0 
L 1498 166 
C 1037 166 960 166 960 455 
L 960 1517 
z
" transform="scale(0.015625)"/>
       <path id="CMR17-6f" d="M 2758 1356 
C 2758 2176 2163 2816 1466 2816 
C 768 2816 173 2176 173 1356 
C 173 550 768 -64 1466 -64 
C 2163 -64 2758 550 2758 1356 
z
M 1466 51 
C 1165 51 909 230 762 480 
C 602 768 582 1126 582 1408 
C 582 1676 595 2009 762 2297 
C 890 2508 1139 2713 1466 2713 
C 1754 2713 1997 2553 2150 2329 
C 2349 2028 2349 1606 2349 1408 
C 2349 1158 2336 774 2163 467 
C 1984 172 1709 51 1466 51 
z
" transform="scale(0.015625)"/>
       <path id="CMR17-6e" d="M 2656 1954 
C 2656 2282 2592 2816 1837 2816 
C 1331 2816 1069 2424 973 2166 
L 966 2166 
L 966 2816 
L 211 2745 
L 211 2578 
C 589 2578 646 2540 646 2231 
L 646 443 
C 646 198 621 166 211 166 
L 211 0 
C 365 12 646 12 813 12 
C 979 12 1267 12 1421 0 
L 1421 166 
C 1011 166 986 192 986 443 
L 986 1678 
C 986 2269 1344 2713 1792 2713 
C 2266 2713 2317 2289 2317 1980 
L 2317 443 
C 2317 198 2291 166 1882 166 
L 1882 0 
C 2035 12 2317 12 2483 12 
C 2650 12 2938 12 3091 0 
L 3091 166 
C 2682 166 2656 192 2656 443 
L 2656 1954 
z
" transform="scale(0.015625)"/>
       <path id="CMR17-69" d="M 992 3961 
C 992 4102 877 4224 730 4224 
C 589 4224 467 4108 467 3961 
C 467 3820 582 3699 730 3699 
C 870 3699 992 3814 992 3961 
z
M 243 2745 
L 243 2579 
C 602 2579 653 2540 653 2231 
L 653 443 
C 653 198 627 166 218 166 
L 218 0 
C 371 12 646 12 806 12 
C 960 12 1222 12 1370 0 
L 1370 166 
C 992 166 979 205 979 436 
L 979 2816 
L 243 2745 
z
" transform="scale(0.015625)"/>
       <path id="CMR17-52" d="M 2509 2156 
C 3117 2278 3629 2689 3629 3203 
C 3629 3806 2950 4352 2054 4352 
L 333 4352 
L 333 4185 
C 774 4185 845 4185 845 3896 
L 845 428 
C 845 140 774 140 333 140 
L 333 -26 
C 518 -13 851 -13 1050 -13 
C 1248 -13 1581 -13 1766 -26 
L 1766 140 
C 1325 140 1254 140 1254 428 
L 1254 2112 
L 2003 2112 
C 2368 2112 2573 1964 2662 1881 
C 2918 1632 2918 1459 2918 1024 
C 2918 595 2918 377 3110 160 
C 3354 -103 3680 -128 3821 -128 
C 4294 -128 4365 403 4365 512 
C 4365 550 4365 595 4307 595 
C 4256 595 4250 556 4250 531 
C 4218 115 4032 -26 3834 -26 
C 3482 -26 3443 377 3405 768 
C 3386 902 3373 998 3360 1139 
C 3322 1459 3270 1926 2509 2156 
z
M 1984 2214 
L 1254 2214 
L 1254 3935 
C 1254 4153 1267 4185 1523 4185 
L 1990 4185 
C 2522 4185 3142 3999 3142 3203 
C 3142 2374 2464 2214 1984 2214 
z
" transform="scale(0.015625)"/>
       <path id="CMR17-67" d="M 710 1165 
C 832 1068 1043 960 1299 960 
C 1805 960 2240 1359 2240 1895 
C 2240 2063 2189 2321 1997 2521 
C 2176 2713 2438 2777 2586 2777 
C 2611 2777 2650 2777 2682 2758 
C 2656 2751 2598 2726 2598 2623 
C 2598 2540 2656 2483 2739 2483 
C 2835 2483 2886 2547 2886 2630 
C 2886 2751 2790 2880 2586 2880 
C 2330 2880 2106 2758 1926 2591 
C 1734 2764 1504 2828 1299 2828 
C 794 2828 358 2431 358 1895 
C 358 1527 570 1294 634 1230 
C 442 1004 442 742 442 710 
C 442 544 506 300 723 166 
C 390 82 128 -184 128 -517 
C 128 -996 736 -1344 1466 -1344 
C 2170 -1344 2803 -1009 2803 -510 
C 2803 384 1856 384 1363 384 
C 1216 384 954 384 922 390 
C 723 422 589 601 589 825 
C 589 883 589 1024 710 1165 
z
M 1299 1068 
C 736 1068 736 1766 736 1895 
C 736 2024 736 2719 1299 2719 
C 1862 2719 1862 2024 1862 1895 
C 1862 1766 1862 1068 1299 1068 
z
M 1466 -1236 
C 826 -1236 384 -883 384 -517 
C 384 -311 493 -118 634 -11 
C 794 102 858 102 1293 102 
C 1818 102 2547 102 2547 -517 
C 2547 -883 2106 -1236 1466 -1236 
z
" transform="scale(0.015625)"/>
       <path id="CMR17-79" d="M 2496 2183 
C 2656 2579 2944 2585 3034 2585 
L 3034 2752 
C 2912 2745 2752 2739 2630 2739 
C 2496 2739 2285 2739 2157 2752 
L 2157 2585 
C 2400 2566 2406 2384 2406 2332 
C 2406 2268 2394 2235 2362 2158 
L 1664 409 
L 902 2300 
C 870 2378 870 2423 870 2430 
C 870 2572 1018 2585 1171 2585 
L 1171 2752 
C 1018 2739 742 2739 582 2739 
C 410 2739 205 2739 64 2752 
L 64 2585 
C 410 2585 448 2553 531 2345 
L 1485 -31 
C 1197 -795 1030 -1242 627 -1242 
C 557 -1242 397 -1223 282 -1106 
C 429 -1093 493 -1002 493 -892 
C 493 -782 416 -685 288 -685 
C 147 -685 77 -782 77 -899 
C 77 -1158 339 -1344 627 -1344 
C 998 -1344 1229 -983 1357 -659 
L 2496 2183 
z
" transform="scale(0.015625)"/>
       <path id="CMR17-54" d="M 3981 4332 
L 288 4332 
L 179 2924 
L 294 2924 
C 378 3981 467 4166 1453 4166 
C 1568 4166 1754 4166 1805 4159 
C 1926 4140 1926 4064 1926 3917 
L 1926 465 
C 1926 236 1907 166 1376 166 
L 1197 166 
L 1197 0 
C 1504 6 1824 12 2138 12 
C 2451 12 2771 6 3078 0 
L 3078 166 
L 2899 166 
C 2368 166 2349 236 2349 465 
L 2349 3917 
C 2349 4057 2349 4134 2464 4159 
C 2515 4166 2701 4166 2816 4166 
C 3795 4166 3891 3981 3974 2924 
L 4090 2924 
L 3981 4332 
z
" transform="scale(0.015625)"/>
       <path id="CMR17-5b" d="M 1504 -1600 
L 1504 -1376 
L 902 -1376 
L 902 4575 
L 1504 4575 
L 1504 4800 
L 678 4800 
L 678 -1600 
L 1504 -1600 
z
" transform="scale(0.015625)"/>
       <path id="CMSS17-6b" d="M 1696 1686 
L 2688 2735 
L 2074 2735 
L 954 1552 
L 954 4416 
L 480 4416 
L 480 0 
L 947 0 
L 947 891 
L 1376 1342 
L 2278 0 
L 2822 0 
L 1696 1686 
z
" transform="scale(0.015625)"/>
       <path id="CMSS17-65" d="M 2502 1375 
C 2502 1587 2490 2001 2285 2347 
C 2061 2713 1696 2816 1421 2816 
C 755 2816 192 2184 192 1363 
C 192 579 774 -64 1510 -64 
C 1798 -64 2150 19 2470 249 
C 2470 275 2458 414 2451 421 
C 2451 433 2432 629 2432 655 
C 2125 408 1773 326 1517 326 
C 1107 326 666 667 646 1375 
L 2502 1375 
z
M 698 1728 
C 781 2086 1062 2425 1421 2425 
C 1517 2425 1965 2412 2080 1728 
L 698 1728 
z
" transform="scale(0.015625)"/>
       <path id="CMSS17-56" d="M 3910 4416 
L 3411 4416 
L 2304 1361 
C 2272 1272 2074 687 2035 484 
L 2029 484 
C 1978 725 1773 1291 1664 1603 
L 922 3670 
L 646 4416 
L 83 4416 
L 1715 0 
L 2278 0 
L 3910 4416 
z
" transform="scale(0.015625)"/>
       <path id="CMR17-5d" d="M 915 4800 
L 90 4800 
L 90 4575 
L 691 4575 
L 691 -1376 
L 90 -1376 
L 90 -1600 
L 915 -1600 
L 915 4800 
z
" transform="scale(0.015625)"/>
      </defs>
      <use xlink:href="#CMR17-45" transform="scale(0.996264)"/>
      <use xlink:href="#CMR17-6c" transform="translate(62.586301 0)scale(0.996264)"/>
      <use xlink:href="#CMR17-65" transform="translate(87.457359 0)scale(0.996264)"/>
      <use xlink:href="#CMR17-63" transform="translate(127.943019 0)scale(0.996264)"/>
      <use xlink:href="#CMR17-74" transform="translate(168.42868 0)scale(0.996264)"/>
      <use xlink:href="#CMR17-72" transform="translate(203.709448 0)scale(0.996264)"/>
      <use xlink:href="#CMR17-6f" transform="translate(238.990216 0)scale(0.996264)"/>
      <use xlink:href="#CMR17-6e" transform="translate(284.680693 0)scale(0.996264)"/>
      <use xlink:href="#CMR17-69" transform="translate(335.576062 0)scale(0.996264)"/>
      <use xlink:href="#CMR17-63" transform="translate(360.447121 0)scale(0.996264)"/>
      <use xlink:href="#CMR17-52" transform="translate(432.161894 0)scale(0.996264)"/>
      <use xlink:href="#CMR17-65" transform="translate(499.952996 0)scale(0.996264)"/>
      <use xlink:href="#CMR17-63" transform="translate(540.438657 0)scale(0.996264)"/>
      <use xlink:href="#CMR17-6f" transform="translate(580.924317 0)scale(0.996264)"/>
      <use xlink:href="#CMR17-69" transform="translate(626.614794 0)scale(0.996264)"/>
      <use xlink:href="#CMR17-6c" transform="translate(651.485853 0)scale(0.996264)"/>
      <use xlink:href="#CMR17-45" transform="translate(707.586024 0)scale(0.996264)"/>
      <use xlink:href="#CMR17-6e" transform="translate(770.172324 0)scale(0.996264)"/>
      <use xlink:href="#CMR17-65" transform="translate(821.067694 0)scale(0.996264)"/>
      <use xlink:href="#CMR17-72" transform="translate(861.553355 0)scale(0.996264)"/>
      <use xlink:href="#CMR17-67" transform="translate(896.834122 0)scale(0.996264)"/>
      <use xlink:href="#CMR17-79" transform="translate(942.5246 0)scale(0.996264)"/>
      <use xlink:href="#CMR17-54" transform="translate(1023.347794 0)scale(0.996264)"/>
      <use xlink:href="#CMR17-65" transform="translate(1089.857675 -14.943915)scale(0.697382)"/>
      <use xlink:href="#CMR17-72" transform="translate(1118.197506 -14.943915)scale(0.697382)"/>
      <use xlink:href="#CMR17-5b" transform="translate(1174.621172 0)scale(0.996264)"/>
      <use xlink:href="#CMSS17-6b" transform="translate(1199.49223 0)scale(0.996264)"/>
      <use xlink:href="#CMSS17-65" transform="translate(1242.492265 0)scale(0.996264)"/>
      <use xlink:href="#CMSS17-56" transform="translate(1284.131087 0)scale(0.996264)"/>
      <use xlink:href="#CMR17-5d" transform="translate(1347.650108 0)scale(0.996264)"/>
     </g>
    </g>
   </g>
   <g id="matplotlib.axis_2">
    <g id="ytick_1">
     <g id="line2d_11">
      <path d="M 115.2 351.490909 
L 550.4 351.490909 
" clip-path="url(#p1cd20dff72)" style="fill: none; stroke: #b0b0b0; stroke-width: 0.8; stroke-linecap: square"/>
     </g>
     <g id="line2d_12">
      <defs>
       <path id="m247a576672" d="M 0 0 
L -3.5 0 
" style="stroke: #000000; stroke-width: 0.8"/>
      </defs>
      <g>
       <use xlink:href="#m247a576672" x="115.2" y="351.490909" style="stroke: #000000; stroke-width: 0.8"/>
      </g>
     </g>
     <g id="text_7">
      <!-- $\mathdefault{0}$ -->
      <g transform="translate(99.061905 358.409407)scale(0.2 -0.2)">
       <use xlink:href="#CMR17-30" transform="scale(0.996264)"/>
      </g>
     </g>
    </g>
    <g id="ytick_2">
     <g id="line2d_13">
      <path d="M 115.2 295.497938 
L 550.4 295.497938 
" clip-path="url(#p1cd20dff72)" style="fill: none; stroke: #b0b0b0; stroke-width: 0.8; stroke-linecap: square"/>
     </g>
     <g id="line2d_14">
      <g>
       <use xlink:href="#m247a576672" x="115.2" y="295.497938" style="stroke: #000000; stroke-width: 0.8"/>
      </g>
     </g>
     <g id="text_8">
      <!-- $\mathdefault{2}$ -->
      <g transform="translate(99.061905 302.416436)scale(0.2 -0.2)">
       <use xlink:href="#CMR17-32" transform="scale(0.996264)"/>
      </g>
     </g>
    </g>
    <g id="ytick_3">
     <g id="line2d_15">
      <path d="M 115.2 239.504967 
L 550.4 239.504967 
" clip-path="url(#p1cd20dff72)" style="fill: none; stroke: #b0b0b0; stroke-width: 0.8; stroke-linecap: square"/>
     </g>
     <g id="line2d_16">
      <g>
       <use xlink:href="#m247a576672" x="115.2" y="239.504967" style="stroke: #000000; stroke-width: 0.8"/>
      </g>
     </g>
     <g id="text_9">
      <!-- $\mathdefault{4}$ -->
      <g transform="translate(99.061905 246.423465)scale(0.2 -0.2)">
       <use xlink:href="#CMR17-34" transform="scale(0.996264)"/>
      </g>
     </g>
    </g>
    <g id="ytick_4">
     <g id="line2d_17">
      <path d="M 115.2 183.511996 
L 550.4 183.511996 
" clip-path="url(#p1cd20dff72)" style="fill: none; stroke: #b0b0b0; stroke-width: 0.8; stroke-linecap: square"/>
     </g>
     <g id="line2d_18">
      <g>
       <use xlink:href="#m247a576672" x="115.2" y="183.511996" style="stroke: #000000; stroke-width: 0.8"/>
      </g>
     </g>
     <g id="text_10">
      <!-- $\mathdefault{6}$ -->
      <g transform="translate(99.061905 190.430494)scale(0.2 -0.2)">
       <use xlink:href="#CMR17-36" transform="scale(0.996264)"/>
      </g>
     </g>
    </g>
    <g id="ytick_5">
     <g id="line2d_19">
      <path d="M 115.2 127.519025 
L 550.4 127.519025 
" clip-path="url(#p1cd20dff72)" style="fill: none; stroke: #b0b0b0; stroke-width: 0.8; stroke-linecap: square"/>
     </g>
     <g id="line2d_20">
      <g>
       <use xlink:href="#m247a576672" x="115.2" y="127.519025" style="stroke: #000000; stroke-width: 0.8"/>
      </g>
     </g>
     <g id="text_11">
      <!-- $\mathdefault{8}$ -->
      <g transform="translate(99.061905 134.437523)scale(0.2 -0.2)">
       <use xlink:href="#CMR17-38" transform="scale(0.996264)"/>
      </g>
     </g>
    </g>
    <g id="ytick_6">
     <g id="line2d_21">
      <path d="M 115.2 71.526053 
L 550.4 71.526053 
" clip-path="url(#p1cd20dff72)" style="fill: none; stroke: #b0b0b0; stroke-width: 0.8; stroke-linecap: square"/>
     </g>
     <g id="line2d_22">
      <g>
       <use xlink:href="#m247a576672" x="115.2" y="71.526053" style="stroke: #000000; stroke-width: 0.8"/>
      </g>
     </g>
     <g id="text_12">
      <!-- $\mathdefault{10}$ -->
      <g transform="translate(89.923809 78.444552)scale(0.2 -0.2)">
       <use xlink:href="#CMR17-31" transform="scale(0.996264)"/>
       <use xlink:href="#CMR17-30" transform="translate(45.690477 0)scale(0.996264)"/>
      </g>
     </g>
    </g>
    <g id="text_13">
     <!-- $L_y\ [\si{ph\cdot keV^{-1}}]$ -->
     <g transform="translate(80.223004 253.702305)rotate(-90)scale(0.2 -0.2)">
      <defs>
       <path id="CMMI12-4c" d="M 2349 3860 
C 2406 4102 2426 4166 2989 4166 
C 3162 4166 3206 4166 3206 4287 
C 3206 4352 3136 4352 3110 4352 
C 2982 4352 2835 4339 2707 4339 
L 1850 4339 
C 1728 4339 1587 4352 1466 4352 
C 1414 4352 1344 4352 1344 4230 
C 1344 4166 1402 4166 1498 4166 
C 1888 4166 1888 4115 1888 4045 
C 1888 4032 1888 3994 1862 3898 
L 998 472 
C 941 249 928 185 480 185 
C 358 185 294 185 294 70 
C 294 0 333 0 461 0 
L 3328 0 
C 3469 0 3475 6 3520 121 
L 4013 1478 
C 4026 1510 4038 1548 4038 1567 
C 4038 1605 4006 1631 3974 1631 
C 3968 1631 3936 1631 3923 1605 
C 3910 1599 3910 1586 3859 1465 
C 3654 905 3366 185 2285 185 
L 1670 185 
C 1581 185 1568 185 1530 191 
C 1459 198 1453 211 1453 262 
C 1453 306 1466 344 1478 402 
L 2349 3860 
z
" transform="scale(0.015625)"/>
       <path id="CMMI12-79" d="M 1683 -673 
C 1510 -921 1261 -1152 947 -1152 
C 870 -1152 563 -1139 467 -826 
C 486 -833 518 -833 531 -833 
C 723 -833 851 -666 851 -519 
C 851 -372 730 -320 634 -320 
C 531 -320 307 -397 307 -711 
C 307 -1050 582 -1280 947 -1280 
C 1587 -1280 2234 -673 2413 -7 
L 3040 2483 
C 3046 2515 3059 2553 3059 2591 
C 3059 2687 2982 2752 2886 2752 
C 2829 2752 2694 2726 2643 2534 
L 2170 657 
C 2138 542 2138 530 2086 459 
C 1958 281 1747 64 1440 64 
C 1082 64 1050 415 1050 587 
C 1050 951 1222 1443 1395 1902 
C 1466 2087 1504 2177 1504 2305 
C 1504 2573 1312 2816 998 2816 
C 410 2816 173 1890 173 1838 
C 173 1813 198 1781 243 1781 
C 301 1781 307 1807 333 1896 
C 486 2432 730 2687 979 2687 
C 1037 2687 1146 2687 1146 2477 
C 1146 2311 1075 2126 979 1883 
C 666 1047 666 836 666 683 
C 666 76 1101 -64 1421 -64 
C 1606 -64 1837 -7 2061 230 
L 2067 223 
C 1971 -141 1907 -359 1683 -673 
z
" transform="scale(0.015625)"/>
       <path id="CMSS17-70" d="M 966 275 
C 1178 70 1466 -64 1773 -64 
C 2368 -64 2880 553 2880 1382 
C 2880 2147 2496 2816 1946 2816 
C 1626 2816 1242 2700 954 2470 
L 954 2764 
L 480 2764 
L 480 -1280 
L 966 -1280 
L 966 275 
z
M 966 2088 
C 1018 2166 1235 2412 1587 2412 
C 2035 2412 2394 1946 2394 1382 
C 2394 741 1958 326 1530 326 
C 1402 326 1267 358 1139 468 
C 966 624 966 721 966 812 
L 966 2088 
z
" transform="scale(0.015625)"/>
       <path id="CMSS17-68" d="M 2618 1878 
C 2618 2283 2522 2816 1798 2816 
C 1395 2816 1133 2617 947 2399 
L 947 4416 
L 474 4416 
L 474 0 
L 960 0 
L 960 1556 
C 960 1962 1114 2425 1549 2425 
C 2112 2425 2131 2045 2131 1826 
L 2131 0 
L 2618 0 
L 2618 1878 
z
" transform="scale(0.015625)"/>
       <path id="CMSY10-1" d="M 1229 1619 
C 1229 1804 1075 1958 890 1958 
C 704 1958 550 1804 550 1619 
C 550 1433 704 1280 890 1280 
C 1075 1280 1229 1433 1229 1619 
z
" transform="scale(0.015625)"/>
       <path id="CMSY10-0" d="M 4218 1472 
C 4326 1472 4442 1472 4442 1600 
C 4442 1728 4326 1728 4218 1728 
L 755 1728 
C 646 1728 531 1728 531 1600 
C 531 1472 646 1472 755 1472 
L 4218 1472 
z
" transform="scale(0.015625)"/>
       <path id="CMSS17-31" d="M 1818 4288 
L 1696 4288 
C 1350 3949 947 3902 538 3891 
L 538 3520 
C 723 3526 1024 3539 1325 3673 
L 1325 371 
L 570 371 
L 570 0 
L 2573 0 
L 2573 371 
L 1818 371 
L 1818 4288 
z
" transform="scale(0.015625)"/>
      </defs>
      <use xlink:href="#CMMI12-4c" transform="scale(0.996264)"/>
      <use xlink:href="#CMMI12-79" transform="translate(66.370875 -14.943915)scale(0.697382)"/>
      <use xlink:href="#CMR17-5b" transform="translate(133.895095 0)scale(0.996264)"/>
      <use xlink:href="#CMSS17-70" transform="translate(158.766153 0)scale(0.996264)"/>
      <use xlink:href="#CMSS17-68" transform="translate(206.971097 0)scale(0.996264)"/>
      <use xlink:href="#CMSY10-1" transform="translate(277.315247 0)scale(0.996264)"/>
      <use xlink:href="#CMSS17-6b" transform="translate(327.128538 0)scale(0.996264)"/>
      <use xlink:href="#CMSS17-65" transform="translate(370.128574 0)scale(0.996264)"/>
      <use xlink:href="#CMSS17-56" transform="translate(411.767396 0)scale(0.996264)"/>
      <use xlink:href="#CMSY10-0" transform="translate(475.286417 36.153639)scale(0.697382)"/>
      <use xlink:href="#CMSS17-31" transform="translate(529.52741 36.153639)scale(0.697382)"/>
      <use xlink:href="#CMR17-5d" transform="translate(562.815923 0)scale(0.996264)"/>
     </g>
    </g>
   </g>
   <g id="line2d_23">
    <path d="M 115.2 351.490909 
L 119.552 351.490909 
L 123.904 351.490909 
L 128.256 351.490909 
L 132.608 351.490909 
L 136.96 351.490909 
L 141.312 351.490909 
L 145.664 351.490909 
L 150.016 351.490909 
L 154.368 351.490909 
L 158.72 351.490909 
L 163.072 351.490909 
L 167.424 351.490909 
L 171.776 351.490909 
L 176.128 351.490909 
L 180.48 351.490909 
L 184.832 351.490909 
L 189.184 351.490909 
L 193.536 351.490909 
L 197.888 351.490909 
L 202.24 351.490909 
L 206.592 351.490909 
L 210.944 351.490909 
L 215.296 351.490909 
L 219.648 351.490909 
L 224 351.490909 
L 228.352 351.490909 
L 232.704 351.490909 
L 237.056 351.490909 
L 241.408 351.490909 
L 245.76 351.490909 
L 250.112 351.490909 
L 254.464 351.490909 
L 258.816 351.490909 
L 263.168 351.490909 
L 267.52 351.490909 
L 271.872 351.490909 
L 276.224 351.490909 
L 280.576 349.032877 
L 284.928 346.180288 
L 289.28 343.218608 
L 293.632 340.148209 
L 297.984 336.969624 
L 302.336 333.683552 
L 306.688 330.290853 
L 311.04 326.792541 
L 315.392 323.189784 
L 319.744 319.483896 
L 324.096 315.676335 
L 328.448 311.768694 
L 332.8 307.762698 
L 337.152 303.660197 
L 341.504 299.463159 
L 345.856 295.173665 
L 350.208 290.7939 
L 354.56 286.326144 
L 358.912 281.772772 
L 363.264 277.136238 
L 367.616 272.419073 
L 371.968 267.623877 
L 376.32 262.753309 
L 380.672 257.81008 
L 385.024 252.79695 
L 389.376 247.716713 
L 393.728 242.572198 
L 398.08 237.366255 
L 402.432 232.101753 
L 406.784 226.781571 
L 411.136 221.408592 
L 415.488 215.985699 
L 419.84 210.515764 
L 424.192 205.001649 
L 428.544 199.446193 
L 432.896 193.852216 
L 437.248 188.222505 
L 441.6 182.559817 
L 445.952 176.866872 
L 450.304 171.146346 
L 454.656 165.400874 
L 459.008 159.633042 
L 463.36 153.845384 
L 467.712 148.040383 
L 472.064 142.220466 
L 476.416 136.388001 
L 480.768 130.545297 
L 485.12 124.694605 
L 489.472 118.838109 
L 493.824 112.977933 
L 498.176 107.116137 
L 502.528 101.254714 
L 506.88 95.395594 
L 511.232 89.540642 
L 515.584 83.691656 
L 519.936 77.85037 
L 524.288 72.018452 
L 528.64 66.197507 
L 532.992 60.389075 
L 537.344 54.594633 
L 541.696 48.815596 
L 546.048 43.053318 
L 550.4 37.309091 
" clip-path="url(#p1cd20dff72)" style="fill: none; stroke: #1f77b4; stroke-width: 2; stroke-linecap: square"/>
   </g>
   <g id="patch_3">
    <path d="M 115.2 367.2 
L 115.2 21.6 
" style="fill: none; stroke: #000000; stroke-width: 0.8; stroke-linejoin: miter; stroke-linecap: square"/>
   </g>
   <g id="patch_4">
    <path d="M 550.4 367.2 
L 550.4 21.6 
" style="fill: none; stroke: #000000; stroke-width: 0.8; stroke-linejoin: miter; stroke-linecap: square"/>
   </g>
   <g id="patch_5">
    <path d="M 115.2 367.2 
L 550.4 367.2 
" style="fill: none; stroke: #000000; stroke-width: 0.8; stroke-linejoin: miter; stroke-linecap: square"/>
   </g>
   <g id="patch_6">
    <path d="M 115.2 21.6 
L 550.4 21.6 
" style="fill: none; stroke: #000000; stroke-width: 0.8; stroke-linejoin: miter; stroke-linecap: square"/>
   </g>
   <g id="legend_1">
    <g id="patch_7">
     <path d="M 418.142031 359.7 
L 539.9 359.7 
Q 542.9 359.7 542.9 356.7 
L 542.9 314.432953 
Q 542.9 311.432953 539.9 311.432953 
L 418.142031 311.432953 
Q 415.142031 311.432953 415.142031 314.432953 
L 415.142031 356.7 
Q 415.142031 359.7 418.142031 359.7 
z
" style="fill: #ffffff; opacity: 0.8; stroke: #cccccc; stroke-linejoin: miter"/>
    </g>
    <g id="text_14">
     <!-- $\mathrm{Light\ Yield}$ -->
     <g transform="translate(442.748552 327.810677)scale(0.15 -0.15)">
      <defs>
       <path id="CMR17-4c" d="M 3469 1612 
L 3354 1612 
C 3302 981 3219 166 2125 166 
L 1530 166 
C 1274 166 1261 198 1261 414 
L 1261 3892 
C 1261 4121 1274 4185 1760 4185 
L 1901 4185 
L 1901 4352 
C 1638 4339 1331 4339 1069 4339 
C 870 4339 512 4339 326 4352 
L 326 4185 
C 768 4185 838 4185 838 3898 
L 838 453 
C 838 166 768 166 326 166 
L 326 0 
L 3315 0 
L 3469 1612 
z
" transform="scale(0.015625)"/>
       <path id="CMR17-68" d="M 2656 1954 
C 2656 2282 2592 2816 1837 2816 
C 1312 2816 1056 2392 979 2179 
L 973 2179 
L 973 4416 
L 211 4345 
L 211 4179 
C 589 4179 646 4141 646 3843 
L 646 443 
C 646 198 621 166 211 166 
L 211 0 
C 365 12 646 12 813 12 
C 979 12 1267 12 1421 0 
L 1421 166 
C 1011 166 986 192 986 443 
L 986 1678 
C 986 2269 1344 2713 1792 2713 
C 2266 2713 2317 2289 2317 1980 
L 2317 443 
C 2317 198 2291 166 1882 166 
L 1882 0 
C 2035 12 2317 12 2483 12 
C 2650 12 2938 12 3091 0 
L 3091 166 
C 2682 166 2656 192 2656 443 
L 2656 1954 
z
" transform="scale(0.015625)"/>
       <path id="CMR17-59" d="M 3706 3784 
C 3955 4178 4301 4185 4416 4185 
L 4416 4352 
C 4269 4339 4102 4339 3942 4339 
C 3782 4339 3526 4339 3373 4352 
L 3373 4185 
C 3533 4178 3616 4096 3616 3975 
C 3616 3898 3584 3847 3533 3764 
L 2381 1924 
L 1120 3930 
C 1075 4007 1069 4013 1069 4057 
C 1069 4185 1293 4185 1382 4185 
L 1382 4352 
C 1178 4339 864 4339 653 4339 
C 486 4339 166 4339 13 4352 
L 13 4185 
C 378 4185 480 4166 595 3981 
L 2010 1739 
L 2010 453 
C 2010 166 1939 166 1498 166 
L 1498 0 
C 1683 12 2016 12 2214 12 
C 2413 12 2752 12 2938 0 
L 2938 166 
C 2477 166 2419 166 2419 478 
L 2419 1739 
L 3706 3784 
z
" transform="scale(0.015625)"/>
       <path id="CMR17-64" d="M 1869 4345 
L 1869 4179 
C 2246 4179 2304 4141 2304 3843 
L 2304 2371 
C 2278 2403 2016 2816 1498 2816 
C 845 2816 211 2228 211 1376 
C 211 529 806 -64 1434 -64 
C 1978 -64 2259 361 2291 406 
L 2291 -64 
L 3066 -13 
L 3066 154 
C 2688 154 2630 193 2630 503 
L 2630 4416 
L 1869 4345 
z
M 2291 762 
C 2291 568 2176 393 2029 264 
C 1811 70 1594 38 1472 38 
C 1286 38 621 135 621 1369 
C 621 2636 1363 2713 1530 2713 
C 1824 2713 2061 2545 2208 2313 
C 2291 2177 2291 2157 2291 2041 
L 2291 762 
z
" transform="scale(0.015625)"/>
      </defs>
      <use xlink:href="#CMR17-4c" transform="scale(0.996264)"/>
      <use xlink:href="#CMR17-69" transform="translate(57.381408 0)scale(0.996264)"/>
      <use xlink:href="#CMR17-67" transform="translate(82.252466 0)scale(0.996264)"/>
      <use xlink:href="#CMR17-68" transform="translate(127.942943 0)scale(0.996264)"/>
      <use xlink:href="#CMR17-74" transform="translate(176.235859 0)scale(0.996264)"/>
      <use xlink:href="#CMR17-59" transform="translate(242.74574 0)scale(0.996264)"/>
      <use xlink:href="#CMR17-69" transform="translate(311.81817 0)scale(0.996264)"/>
      <use xlink:href="#CMR17-65" transform="translate(336.689228 0)scale(0.996264)"/>
      <use xlink:href="#CMR17-6c" transform="translate(377.174889 0)scale(0.996264)"/>
      <use xlink:href="#CMR17-64" transform="translate(402.045947 0)scale(0.996264)"/>
     </g>
    </g>
    <g id="line2d_24">
     <path d="M 421.142031 344.174392 
L 436.142031 344.174392 
L 451.142031 344.174392 
" style="fill: none; stroke: #1f77b4; stroke-width: 2; stroke-linecap: square"/>
    </g>
    <g id="text_15">
     <!-- $\langle L_y\rangle,\mathrm{NEST}$ -->
     <g transform="translate(463.142031 349.424392)scale(0.15 -0.15)">
      <defs>
       <path id="CMSY10-68" d="M 2099 4557 
C 2131 4627 2131 4640 2131 4672 
C 2131 4742 2074 4800 2003 4800 
C 1946 4800 1901 4768 1856 4653 
L 736 1715 
C 723 1677 704 1638 704 1600 
C 704 1580 704 1568 736 1491 
L 1856 -1447 
C 1882 -1517 1914 -1600 2003 -1600 
C 2074 -1600 2131 -1543 2131 -1472 
C 2131 -1453 2131 -1440 2099 -1370 
L 966 1600 
L 2099 4557 
z
" transform="scale(0.015625)"/>
       <path id="CMSY10-69" d="M 1747 1491 
C 1779 1568 1779 1580 1779 1600 
C 1779 1619 1779 1632 1747 1709 
L 627 4653 
C 589 4761 550 4800 480 4800 
C 410 4800 352 4742 352 4672 
C 352 4653 352 4640 384 4569 
L 1517 1600 
L 384 -1357 
C 352 -1428 352 -1440 352 -1472 
C 352 -1543 410 -1600 480 -1600 
C 563 -1600 589 -1536 614 -1472 
L 1747 1491 
z
" transform="scale(0.015625)"/>
       <path id="CMMI12-3b" d="M 1248 -26 
C 1248 345 1126 620 864 620 
C 659 620 557 454 557 313 
C 557 172 653 0 870 0 
C 954 0 1024 25 1082 83 
C 1094 96 1101 96 1107 96 
C 1120 96 1120 6 1120 -26 
C 1120 -233 1082 -642 710 -1051 
C 640 -1127 640 -1140 640 -1152 
C 640 -1184 672 -1216 704 -1216 
C 755 -1216 1248 -749 1248 -26 
z
" transform="scale(0.015625)"/>
       <path id="CMR17-4e" d="M 1312 4275 
C 1267 4345 1261 4352 1139 4352 
L 326 4352 
L 326 4185 
L 448 4185 
C 704 4185 819 4153 838 4147 
L 838 624 
C 838 465 838 166 326 166 
L 326 0 
C 474 12 742 12 902 12 
C 1062 12 1331 12 1478 0 
L 1478 166 
C 966 166 966 465 966 624 
L 966 4057 
C 1011 4019 1011 4007 1056 3943 
L 3430 76 
C 3475 0 3494 0 3526 0 
C 3590 0 3590 19 3590 140 
L 3590 3726 
C 3590 3885 3590 4185 4102 4185 
L 4102 4352 
C 3955 4339 3686 4339 3526 4339 
C 3366 4339 3098 4339 2950 4352 
L 2950 4185 
C 3462 4185 3462 3885 3462 3726 
L 3462 777 
L 1312 4275 
z
" transform="scale(0.015625)"/>
       <path id="CMR17-53" d="M 2803 4351 
C 2803 4467 2797 4473 2758 4473 
C 2720 4473 2707 4447 2682 4390 
L 2490 3965 
C 2246 4320 1875 4480 1472 4480 
C 819 4480 294 3958 294 3301 
C 294 3101 339 2817 557 2546 
C 794 2250 1018 2198 1530 2063 
C 1722 2011 2042 1927 2106 1901 
C 2470 1747 2662 1360 2662 999 
C 2662 534 2336 38 1779 38 
C 1094 38 454 425 410 1328 
C 403 1431 397 1437 352 1437 
C 301 1437 294 1431 294 1302 
L 294 0 
C 294 -116 301 -122 339 -122 
C 384 -122 397 -90 486 109 
C 493 128 493 141 614 386 
C 934 -39 1472 -128 1779 -128 
C 2477 -128 2970 457 2970 1141 
C 2970 1476 2848 1734 2778 1850 
C 2509 2263 2221 2340 1914 2417 
C 1869 2437 1856 2437 1498 2527 
C 1152 2617 1005 2662 845 2836 
C 666 3036 602 3243 602 3449 
C 602 3868 934 4326 1478 4326 
C 2157 4326 2579 3842 2675 3036 
C 2694 2920 2701 2914 2746 2914 
C 2803 2914 2803 2933 2803 3043 
L 2803 4351 
z
" transform="scale(0.015625)"/>
      </defs>
      <use xlink:href="#CMSY10-68" transform="scale(0.996264)"/>
      <use xlink:href="#CMMI12-4c" transform="translate(38.743734 0)scale(0.996264)"/>
      <use xlink:href="#CMMI12-79" transform="translate(105.114609 -14.943915)scale(0.697382)"/>
      <use xlink:href="#CMSY10-69" transform="translate(141.409716 0)scale(0.996264)"/>
      <use xlink:href="#CMMI12-3b" transform="translate(180.15345 0)scale(0.996264)"/>
      <use xlink:href="#CMR17-4e" transform="translate(223.855032 0)scale(0.996264)"/>
      <use xlink:href="#CMR17-45" transform="translate(292.927462 0)scale(0.996264)"/>
      <use xlink:href="#CMR17-53" transform="translate(355.513762 0)scale(0.996264)"/>
      <use xlink:href="#CMR17-54" transform="translate(406.409132 0)scale(0.996264)"/>
     </g>
    </g>
   </g>
  </g>
  <g id="axes_2">
   <g id="patch_8">
    <path d="M 659.2 367.2 
L 1094.4 367.2 
L 1094.4 21.6 
L 659.2 21.6 
L 659.2 367.2 
z
" style="fill: none"/>
   </g>
   <g id="matplotlib.axis_3">
    <g id="xtick_6">
     <g id="line2d_25">
      <path d="M 745.891491 367.2 
L 745.891491 21.6 
" clip-path="url(#pa149870f8e)" style="fill: none; stroke: #b0b0b0; stroke-width: 0.8; stroke-linecap: square"/>
     </g>
     <g id="line2d_26">
      <g>
       <use xlink:href="#m6cd415333d" x="745.891491" y="367.2" style="stroke: #000000; stroke-width: 0.8"/>
      </g>
     </g>
     <g id="text_16">
      <!-- $\mathdefault{0.2}$ -->
      <g transform="translate(734.043678 388.036997)scale(0.2 -0.2)">
       <use xlink:href="#CMR17-30" transform="scale(0.996264)"/>
       <use xlink:href="#CMMI12-3a" transform="translate(45.690477 0)scale(0.996264)"/>
       <use xlink:href="#CMR17-32" transform="translate(72.787654 0)scale(0.996264)"/>
      </g>
     </g>
    </g>
    <g id="xtick_7">
     <g id="line2d_27">
      <path d="M 833.018619 367.2 
L 833.018619 21.6 
" clip-path="url(#pa149870f8e)" style="fill: none; stroke: #b0b0b0; stroke-width: 0.8; stroke-linecap: square"/>
     </g>
     <g id="line2d_28">
      <g>
       <use xlink:href="#m6cd415333d" x="833.018619" y="367.2" style="stroke: #000000; stroke-width: 0.8"/>
      </g>
     </g>
     <g id="text_17">
      <!-- $\mathdefault{0.4}$ -->
      <g transform="translate(821.170805 388.036997)scale(0.2 -0.2)">
       <use xlink:href="#CMR17-30" transform="scale(0.996264)"/>
       <use xlink:href="#CMMI12-3a" transform="translate(45.690477 0)scale(0.996264)"/>
       <use xlink:href="#CMR17-34" transform="translate(72.787654 0)scale(0.996264)"/>
      </g>
     </g>
    </g>
    <g id="xtick_8">
     <g id="line2d_29">
      <path d="M 920.145746 367.2 
L 920.145746 21.6 
" clip-path="url(#pa149870f8e)" style="fill: none; stroke: #b0b0b0; stroke-width: 0.8; stroke-linecap: square"/>
     </g>
     <g id="line2d_30">
      <g>
       <use xlink:href="#m6cd415333d" x="920.145746" y="367.2" style="stroke: #000000; stroke-width: 0.8"/>
      </g>
     </g>
     <g id="text_18">
      <!-- $\mathdefault{0.6}$ -->
      <g transform="translate(908.297933 388.036997)scale(0.2 -0.2)">
       <use xlink:href="#CMR17-30" transform="scale(0.996264)"/>
       <use xlink:href="#CMMI12-3a" transform="translate(45.690477 0)scale(0.996264)"/>
       <use xlink:href="#CMR17-36" transform="translate(72.787654 0)scale(0.996264)"/>
      </g>
     </g>
    </g>
    <g id="xtick_9">
     <g id="line2d_31">
      <path d="M 1007.272873 367.2 
L 1007.272873 21.6 
" clip-path="url(#pa149870f8e)" style="fill: none; stroke: #b0b0b0; stroke-width: 0.8; stroke-linecap: square"/>
     </g>
     <g id="line2d_32">
      <g>
       <use xlink:href="#m6cd415333d" x="1007.272873" y="367.2" style="stroke: #000000; stroke-width: 0.8"/>
      </g>
     </g>
     <g id="text_19">
      <!-- $\mathdefault{0.8}$ -->
      <g transform="translate(995.42506 388.036997)scale(0.2 -0.2)">
       <use xlink:href="#CMR17-30" transform="scale(0.996264)"/>
       <use xlink:href="#CMMI12-3a" transform="translate(45.690477 0)scale(0.996264)"/>
       <use xlink:href="#CMR17-38" transform="translate(72.787654 0)scale(0.996264)"/>
      </g>
     </g>
    </g>
    <g id="xtick_10">
     <g id="line2d_33">
      <path d="M 1094.4 367.2 
L 1094.4 21.6 
" clip-path="url(#pa149870f8e)" style="fill: none; stroke: #b0b0b0; stroke-width: 0.8; stroke-linecap: square"/>
     </g>
     <g id="line2d_34">
      <g>
       <use xlink:href="#m6cd415333d" x="1094.4" y="367.2" style="stroke: #000000; stroke-width: 0.8"/>
      </g>
     </g>
     <g id="text_20">
      <!-- $\mathdefault{1.0}$ -->
      <g transform="translate(1082.552187 388.036997)scale(0.2 -0.2)">
       <use xlink:href="#CMR17-31" transform="scale(0.996264)"/>
       <use xlink:href="#CMMI12-3a" transform="translate(45.690477 0)scale(0.996264)"/>
       <use xlink:href="#CMR17-30" transform="translate(72.787654 0)scale(0.996264)"/>
      </g>
     </g>
    </g>
    <g id="text_21">
     <!-- $\mathrm{Electronic\ Recoil\ Energy\ T_\mathrm{er}}\ [\si{keV}]$ -->
     <g transform="translate(738.961973 410.838652)scale(0.2 -0.2)">
      <use xlink:href="#CMR17-45" transform="scale(0.996264)"/>
      <use xlink:href="#CMR17-6c" transform="translate(62.586301 0)scale(0.996264)"/>
      <use xlink:href="#CMR17-65" transform="translate(87.457359 0)scale(0.996264)"/>
      <use xlink:href="#CMR17-63" transform="translate(127.943019 0)scale(0.996264)"/>
      <use xlink:href="#CMR17-74" transform="translate(168.42868 0)scale(0.996264)"/>
      <use xlink:href="#CMR17-72" transform="translate(203.709448 0)scale(0.996264)"/>
      <use xlink:href="#CMR17-6f" transform="translate(238.990216 0)scale(0.996264)"/>
      <use xlink:href="#CMR17-6e" transform="translate(284.680693 0)scale(0.996264)"/>
      <use xlink:href="#CMR17-69" transform="translate(335.576062 0)scale(0.996264)"/>
      <use xlink:href="#CMR17-63" transform="translate(360.447121 0)scale(0.996264)"/>
      <use xlink:href="#CMR17-52" transform="translate(432.161894 0)scale(0.996264)"/>
      <use xlink:href="#CMR17-65" transform="translate(499.952996 0)scale(0.996264)"/>
      <use xlink:href="#CMR17-63" transform="translate(540.438657 0)scale(0.996264)"/>
      <use xlink:href="#CMR17-6f" transform="translate(580.924317 0)scale(0.996264)"/>
      <use xlink:href="#CMR17-69" transform="translate(626.614794 0)scale(0.996264)"/>
      <use xlink:href="#CMR17-6c" transform="translate(651.485853 0)scale(0.996264)"/>
      <use xlink:href="#CMR17-45" transform="translate(707.586024 0)scale(0.996264)"/>
      <use xlink:href="#CMR17-6e" transform="translate(770.172324 0)scale(0.996264)"/>
      <use xlink:href="#CMR17-65" transform="translate(821.067694 0)scale(0.996264)"/>
      <use xlink:href="#CMR17-72" transform="translate(861.553355 0)scale(0.996264)"/>
      <use xlink:href="#CMR17-67" transform="translate(896.834122 0)scale(0.996264)"/>
      <use xlink:href="#CMR17-79" transform="translate(942.5246 0)scale(0.996264)"/>
      <use xlink:href="#CMR17-54" transform="translate(1023.347794 0)scale(0.996264)"/>
      <use xlink:href="#CMR17-65" transform="translate(1089.857675 -14.943915)scale(0.697382)"/>
      <use xlink:href="#CMR17-72" transform="translate(1118.197506 -14.943915)scale(0.697382)"/>
      <use xlink:href="#CMR17-5b" transform="translate(1174.621172 0)scale(0.996264)"/>
      <use xlink:href="#CMSS17-6b" transform="translate(1199.49223 0)scale(0.996264)"/>
      <use xlink:href="#CMSS17-65" transform="translate(1242.492265 0)scale(0.996264)"/>
      <use xlink:href="#CMSS17-56" transform="translate(1284.131087 0)scale(0.996264)"/>
      <use xlink:href="#CMR17-5d" transform="translate(1347.650108 0)scale(0.996264)"/>
     </g>
    </g>
   </g>
   <g id="matplotlib.axis_4">
    <g id="ytick_7">
     <g id="line2d_35">
      <path d="M 659.2 351.490909 
L 1094.4 351.490909 
" clip-path="url(#pa149870f8e)" style="fill: none; stroke: #b0b0b0; stroke-width: 0.8; stroke-linecap: square"/>
     </g>
     <g id="line2d_36">
      <g>
       <use xlink:href="#m247a576672" x="659.2" y="351.490909" style="stroke: #000000; stroke-width: 0.8"/>
      </g>
     </g>
     <g id="text_22">
      <!-- $\mathdefault{0}$ -->
      <g transform="translate(643.061905 358.409407)scale(0.2 -0.2)">
       <use xlink:href="#CMR17-30" transform="scale(0.996264)"/>
      </g>
     </g>
    </g>
    <g id="ytick_8">
     <g id="line2d_37">
      <path d="M 659.2 269.487528 
L 1094.4 269.487528 
" clip-path="url(#pa149870f8e)" style="fill: none; stroke: #b0b0b0; stroke-width: 0.8; stroke-linecap: square"/>
     </g>
     <g id="line2d_38">
      <g>
       <use xlink:href="#m247a576672" x="659.2" y="269.487528" style="stroke: #000000; stroke-width: 0.8"/>
      </g>
     </g>
     <g id="text_23">
      <!-- $\mathdefault{20}$ -->
      <g transform="translate(633.923809 276.406026)scale(0.2 -0.2)">
       <use xlink:href="#CMR17-32" transform="scale(0.996264)"/>
       <use xlink:href="#CMR17-30" transform="translate(45.690477 0)scale(0.996264)"/>
      </g>
     </g>
    </g>
    <g id="ytick_9">
     <g id="line2d_39">
      <path d="M 659.2 187.484147 
L 1094.4 187.484147 
" clip-path="url(#pa149870f8e)" style="fill: none; stroke: #b0b0b0; stroke-width: 0.8; stroke-linecap: square"/>
     </g>
     <g id="line2d_40">
      <g>
       <use xlink:href="#m247a576672" x="659.2" y="187.484147" style="stroke: #000000; stroke-width: 0.8"/>
      </g>
     </g>
     <g id="text_24">
      <!-- $\mathdefault{40}$ -->
      <g transform="translate(633.923809 194.402645)scale(0.2 -0.2)">
       <use xlink:href="#CMR17-34" transform="scale(0.996264)"/>
       <use xlink:href="#CMR17-30" transform="translate(45.690477 0)scale(0.996264)"/>
      </g>
     </g>
    </g>
    <g id="ytick_10">
     <g id="line2d_41">
      <path d="M 659.2 105.480766 
L 1094.4 105.480766 
" clip-path="url(#pa149870f8e)" style="fill: none; stroke: #b0b0b0; stroke-width: 0.8; stroke-linecap: square"/>
     </g>
     <g id="line2d_42">
      <g>
       <use xlink:href="#m247a576672" x="659.2" y="105.480766" style="stroke: #000000; stroke-width: 0.8"/>
      </g>
     </g>
     <g id="text_25">
      <!-- $\mathdefault{60}$ -->
      <g transform="translate(633.923809 112.399264)scale(0.2 -0.2)">
       <use xlink:href="#CMR17-36" transform="scale(0.996264)"/>
       <use xlink:href="#CMR17-30" transform="translate(45.690477 0)scale(0.996264)"/>
      </g>
     </g>
    </g>
    <g id="ytick_11">
     <g id="line2d_43">
      <path d="M 659.2 23.477385 
L 1094.4 23.477385 
" clip-path="url(#pa149870f8e)" style="fill: none; stroke: #b0b0b0; stroke-width: 0.8; stroke-linecap: square"/>
     </g>
     <g id="line2d_44">
      <g>
       <use xlink:href="#m247a576672" x="659.2" y="23.477385" style="stroke: #000000; stroke-width: 0.8"/>
      </g>
     </g>
     <g id="text_26">
      <!-- $\mathdefault{80}$ -->
      <g transform="translate(633.923809 30.395883)scale(0.2 -0.2)">
       <use xlink:href="#CMR17-38" transform="scale(0.996264)"/>
       <use xlink:href="#CMR17-30" transform="translate(45.690477 0)scale(0.996264)"/>
      </g>
     </g>
    </g>
    <g id="text_27">
     <!-- $Q_y\ [\si{e^{-}\cdot keV^{-1}}]$ -->
     <g transform="translate(624.223004 254.987319)rotate(-90)scale(0.2 -0.2)">
      <defs>
       <path id="CMMI12-51" d="M 2726 45 
C 3827 493 4646 1654 4646 2798 
C 4646 3840 3955 4480 3059 4480 
C 1690 4480 307 3025 307 1566 
C 307 565 973 -128 1901 -128 
C 2118 -128 2330 -96 2534 -32 
C 2496 -406 2496 -437 2496 -554 
C 2496 -736 2496 -1216 3008 -1216 
C 3770 -1216 4051 -39 4051 0 
C 4051 38 4026 64 3994 64 
C 3955 64 3942 32 3923 -39 
C 3782 -431 3450 -653 3168 -653 
C 2842 -653 2758 -437 2726 45 
z
M 1574 77 
C 1069 253 826 792 826 1376 
C 826 1819 992 2659 1414 3297 
C 1888 4017 2522 4339 3021 4339 
C 3686 4339 4134 3808 4134 2987 
C 4134 2520 3910 953 2707 240 
C 2675 571 2586 960 2163 960 
C 1818 960 1523 610 1523 292 
C 1523 220 1549 123 1574 77 
z
M 2547 155 
C 2317 51 2118 12 1939 12 
C 1875 12 1651 12 1651 298 
C 1651 532 1875 831 2163 831 
C 2483 831 2554 610 2554 285 
C 2554 246 2554 194 2547 155 
z
" transform="scale(0.015625)"/>
      </defs>
      <use xlink:href="#CMMI12-51" transform="scale(0.996264)"/>
      <use xlink:href="#CMMI12-79" transform="translate(77.260399 -14.943915)scale(0.697382)"/>
      <use xlink:href="#CMR17-5b" transform="translate(144.784618 0)scale(0.996264)"/>
      <use xlink:href="#CMSS17-65" transform="translate(169.655677 0)scale(0.996264)"/>
      <use xlink:href="#CMSY10-0" transform="translate(211.294499 36.153639)scale(0.697382)"/>
      <use xlink:href="#CMSY10-1" transform="translate(288.172831 0)scale(0.996264)"/>
      <use xlink:href="#CMSS17-6b" transform="translate(337.986123 0)scale(0.996264)"/>
      <use xlink:href="#CMSS17-65" transform="translate(380.986158 0)scale(0.996264)"/>
      <use xlink:href="#CMSS17-56" transform="translate(422.62498 0)scale(0.996264)"/>
      <use xlink:href="#CMSY10-0" transform="translate(486.144001 36.153639)scale(0.697382)"/>
      <use xlink:href="#CMSS17-31" transform="translate(540.384994 36.153639)scale(0.697382)"/>
      <use xlink:href="#CMR17-5d" transform="translate(573.673508 0)scale(0.996264)"/>
     </g>
    </g>
   </g>
   <g id="line2d_45">
    <path d="M 659.2 351.490909 
L 663.552 351.490909 
L 667.904 37.309091 
L 672.256 37.312831 
L 676.608 37.31951 
L 680.96 37.329862 
L 685.312 37.344581 
L 689.664 37.364333 
L 694.016 37.389758 
L 698.368 37.421476 
L 702.72 37.460088 
L 707.072 37.506174 
L 711.424 37.5603 
L 715.776 37.623014 
L 720.128 37.694848 
L 724.48 37.776318 
L 728.832 37.867921 
L 733.184 37.970142 
L 737.536 38.083444 
L 741.888 38.208276 
L 746.24 38.345067 
L 750.592 38.494229 
L 754.944 38.656154 
L 759.296 38.831215 
L 763.648 39.019763 
L 768 39.22213 
L 772.352 39.438627 
L 776.704 39.669541 
L 781.056 39.915137 
L 785.408 40.175659 
L 789.76 40.451324 
L 794.112 40.742329 
L 798.464 41.048843 
L 802.816 41.371013 
L 807.168 41.70896 
L 811.52 42.06278 
L 815.872 42.432544 
L 820.224 42.818298 
L 824.576 43.220062 
L 828.928 43.637832 
L 833.28 44.071579 
L 837.632 44.521248 
L 841.984 44.986762 
L 846.336 45.468017 
L 850.688 45.964887 
L 855.04 46.477226 
L 859.392 47.00486 
L 863.744 47.547599 
L 868.096 48.105227 
L 872.448 48.677513 
L 876.8 49.264203 
L 881.152 49.865027 
L 885.504 50.479695 
L 889.856 51.107905 
L 894.208 51.749334 
L 898.56 52.403651 
L 902.912 53.070506 
L 907.264 53.74954 
L 911.616 54.440383 
L 915.968 55.142654 
L 920.32 55.855963 
L 924.672 56.579913 
L 929.024 57.314101 
L 933.376 58.058117 
L 937.728 58.811547 
L 942.08 59.573973 
L 946.432 60.344975 
L 950.784 61.124131 
L 955.136 61.91102 
L 959.488 62.705219 
L 963.84 63.506307 
L 968.192 64.313866 
L 972.544 65.127479 
L 976.896 65.946734 
L 981.248 66.771222 
L 985.6 67.60054 
L 989.952 68.434288 
L 994.304 69.272076 
L 998.656 70.113518 
L 1003.008 70.958234 
L 1007.36 71.805854 
L 1011.712 72.656014 
L 1016.064 73.508358 
L 1020.416 74.36254 
L 1024.768 75.218222 
L 1029.12 76.075073 
L 1033.472 76.932774 
L 1037.824 77.791015 
L 1042.176 78.649492 
L 1046.528 79.507915 
L 1050.88 80.366001 
L 1055.232 81.223476 
L 1059.584 82.080077 
L 1063.936 82.935551 
L 1068.288 83.789653 
L 1072.64 84.642148 
L 1076.992 85.49281 
L 1081.344 86.341424 
L 1085.696 87.187781 
L 1090.048 88.031684 
L 1094.4 88.872943 
" clip-path="url(#pa149870f8e)" style="fill: none; stroke: #1f77b4; stroke-width: 2; stroke-linecap: square"/>
   </g>
   <g id="patch_9">
    <path d="M 659.2 367.2 
L 659.2 21.6 
" style="fill: none; stroke: #000000; stroke-width: 0.8; stroke-linejoin: miter; stroke-linecap: square"/>
   </g>
   <g id="patch_10">
    <path d="M 1094.4 367.2 
L 1094.4 21.6 
" style="fill: none; stroke: #000000; stroke-width: 0.8; stroke-linejoin: miter; stroke-linecap: square"/>
   </g>
   <g id="patch_11">
    <path d="M 659.2 367.2 
L 1094.4 367.2 
" style="fill: none; stroke: #000000; stroke-width: 0.8; stroke-linejoin: miter; stroke-linecap: square"/>
   </g>
   <g id="patch_12">
    <path d="M 659.2 21.6 
L 1094.4 21.6 
" style="fill: none; stroke: #000000; stroke-width: 0.8; stroke-linejoin: miter; stroke-linecap: square"/>
   </g>
   <g id="legend_2">
    <g id="patch_13">
     <path d="M 960.508615 359.7 
L 1083.9 359.7 
Q 1086.9 359.7 1086.9 356.7 
L 1086.9 314.432953 
Q 1086.9 311.432953 1083.9 311.432953 
L 960.508615 311.432953 
Q 957.508615 311.432953 957.508615 314.432953 
L 957.508615 356.7 
Q 957.508615 359.7 960.508615 359.7 
z
" style="fill: #ffffff; opacity: 0.8; stroke: #cccccc; stroke-linejoin: miter"/>
    </g>
    <g id="text_28">
     <!-- $\mathrm{Ionization\ Yield}$ -->
     <g transform="translate(970.995819 327.810677)scale(0.15 -0.15)">
      <defs>
       <path id="CMR17-49" d="M 1261 3898 
C 1261 4185 1338 4185 1798 4185 
L 1798 4352 
C 1594 4339 1267 4339 1050 4339 
C 832 4339 506 4339 301 4352 
L 301 4185 
C 762 4185 838 4185 838 3898 
L 838 453 
C 838 166 762 166 301 166 
L 301 0 
C 506 12 832 12 1050 12 
C 1267 12 1594 12 1798 0 
L 1798 166 
C 1338 166 1261 166 1261 453 
L 1261 3898 
z
" transform="scale(0.015625)"/>
       <path id="CMR17-7a" d="M 2310 2604 
C 2362 2668 2362 2681 2362 2694 
C 2362 2752 2336 2752 2221 2752 
L 275 2752 
L 211 1760 
L 326 1760 
C 371 2380 442 2649 1178 2649 
L 1958 2649 
L 128 96 
C 128 6 134 0 269 0 
L 2291 0 
L 2381 1152 
L 2266 1152 
C 2214 441 2131 115 1350 115 
L 531 115 
L 2310 2604 
z
" transform="scale(0.015625)"/>
       <path id="CMR17-61" d="M 2304 1656 
C 2304 2048 2304 2275 2035 2534 
C 1798 2751 1523 2816 1306 2816 
C 800 2816 435 2408 435 1977 
C 435 1740 627 1728 666 1728 
C 749 1728 896 1779 896 1958 
C 896 2118 774 2188 666 2188 
C 640 2188 608 2182 589 2176 
C 723 2594 1069 2713 1293 2713 
C 1613 2713 1965 2421 1965 1875 
L 1965 1632 
C 1587 1619 1133 1568 774 1373 
C 371 1147 256 822 256 576 
C 256 77 832 -64 1171 -64 
C 1523 -64 1850 135 1990 505 
C 2003 219 2182 -39 2464 -39 
C 2598 -39 2938 51 2938 563 
L 2938 926 
L 2822 926 
L 2822 557 
C 2822 161 2650 109 2566 109 
C 2304 109 2304 446 2304 732 
L 2304 1656 
z
M 1965 887 
C 1965 323 1568 38 1216 38 
C 896 38 646 278 646 576 
C 646 771 730 1114 1101 1322 
C 1408 1497 1760 1523 1965 1536 
L 1965 887 
z
" transform="scale(0.015625)"/>
      </defs>
      <use xlink:href="#CMR17-49" transform="scale(0.996264)"/>
      <use xlink:href="#CMR17-6f" transform="translate(32.638409 0)scale(0.996264)"/>
      <use xlink:href="#CMR17-6e" transform="translate(78.328886 0)scale(0.996264)"/>
      <use xlink:href="#CMR17-69" transform="translate(129.224256 0)scale(0.996264)"/>
      <use xlink:href="#CMR17-7a" transform="translate(154.095315 0)scale(0.996264)"/>
      <use xlink:href="#CMR17-61" transform="translate(194.580975 0)scale(0.996264)"/>
      <use xlink:href="#CMR17-74" transform="translate(240.271452 0)scale(0.996264)"/>
      <use xlink:href="#CMR17-69" transform="translate(275.55222 0)scale(0.996264)"/>
      <use xlink:href="#CMR17-6f" transform="translate(300.423278 0)scale(0.996264)"/>
      <use xlink:href="#CMR17-6e" transform="translate(346.113756 0)scale(0.996264)"/>
      <use xlink:href="#CMR17-59" transform="translate(428.238238 0)scale(0.996264)"/>
      <use xlink:href="#CMR17-69" transform="translate(497.310668 0)scale(0.996264)"/>
      <use xlink:href="#CMR17-65" transform="translate(522.181726 0)scale(0.996264)"/>
      <use xlink:href="#CMR17-6c" transform="translate(562.667387 0)scale(0.996264)"/>
      <use xlink:href="#CMR17-64" transform="translate(587.538445 0)scale(0.996264)"/>
     </g>
    </g>
    <g id="line2d_46">
     <path d="M 963.508615 344.174392 
L 978.508615 344.174392 
L 993.508615 344.174392 
" style="fill: none; stroke: #1f77b4; stroke-width: 2; stroke-linecap: square"/>
    </g>
    <g id="text_29">
     <!-- $\langle Q_y\rangle,\mathrm{NEST}$ -->
     <g transform="translate(1005.508615 349.424392)scale(0.15 -0.15)">
      <use xlink:href="#CMSY10-68" transform="scale(0.996264)"/>
      <use xlink:href="#CMMI12-51" transform="translate(38.743734 0)scale(0.996264)"/>
      <use xlink:href="#CMMI12-79" transform="translate(116.004132 -14.943915)scale(0.697382)"/>
      <use xlink:href="#CMSY10-69" transform="translate(152.299239 0)scale(0.996264)"/>
      <use xlink:href="#CMMI12-3b" transform="translate(191.042973 0)scale(0.996264)"/>
      <use xlink:href="#CMR17-4e" transform="translate(234.744555 0)scale(0.996264)"/>
      <use xlink:href="#CMR17-45" transform="translate(303.816985 0)scale(0.996264)"/>
      <use xlink:href="#CMR17-53" transform="translate(366.403286 0)scale(0.996264)"/>
      <use xlink:href="#CMR17-54" transform="translate(417.298655 0)scale(0.996264)"/>
     </g>
    </g>
   </g>
  </g>
 </g>
 <defs>
  <clipPath id="p1cd20dff72">
   <rect x="115.2" y="21.6" width="435.2" height="345.6"/>
  </clipPath>
  <clipPath id="pa149870f8e">
   <rect x="659.2" y="21.6" width="435.2" height="345.6"/>
  </clipPath>
 </defs>
</svg>
