<?xml version="1.0" encoding="utf-8" standalone="no"?>
<!DOCTYPE svg PUBLIC "-//W3C//DTD SVG 1.1//EN"
  "http://www.w3.org/Graphics/SVG/1.1/DTD/svg11.dtd">
<svg xmlns:xlink="http://www.w3.org/1999/xlink" width="576pt" height="432pt" viewBox="0 0 576 432" xmlns="http://www.w3.org/2000/svg" version="1.1">
 <metadata>
  <rdf:RDF xmlns:dc="http://purl.org/dc/elements/1.1/" xmlns:cc="http://creativecommons.org/ns#" xmlns:rdf="http://www.w3.org/1999/02/22-rdf-syntax-ns#">
   <cc:Work>
    <dc:type rdf:resource="http://purl.org/dc/dcmitype/StillImage"/>
    <dc:date>2022-05-27T11:39:53.553003</dc:date>
    <dc:format>image/svg+xml</dc:format>
    <dc:creator>
     <cc:Agent>
      <dc:title>Matplotlib v3.5.1, https://matplotlib.org/</dc:title>
     </cc:Agent>
    </dc:creator>
   </cc:Work>
  </rdf:RDF>
 </metadata>
 <defs>
  <style type="text/css">*{stroke-linejoin: round; stroke-linecap: butt}</style>
 </defs>
 <g id="figure_1">
  <g id="patch_1">
   <path d="M 0 432 
L 576 432 
L 576 0 
L 0 0 
L 0 432 
z
" style="fill: none"/>
  </g>
  <g id="axes_1">
   <g id="patch_2">
    <path d="M 86.4 367.2 
L 547.2 367.2 
L 547.2 43.2 
L 86.4 43.2 
L 86.4 367.2 
z
" style="fill: none"/>
   </g>
   <g id="PolyCollection_1">
    <path d="M 86.4 286.945526 
L 86.4 352.472727 
L 87.592601 349.731835 
L 88.812982 346.927099 
L 90.061788 344.057033 
L 91.339684 341.120114 
L 92.647345 338.114785 
L 93.985465 335.039454 
L 95.354755 331.892488 
L 96.755939 328.672221 
L 98.189761 325.376943 
L 99.656981 322.004909 
L 101.158377 318.55433 
L 102.694745 315.023377 
L 104.2669 311.410178 
L 105.875674 309.082778 
L 107.521922 306.936882 
L 109.206516 304.741003 
L 110.930349 302.493975 
L 112.694336 300.683871 
L 114.499411 298.9078 
L 116.346531 297.09036 
L 118.236677 295.230585 
L 120.17085 293.327492 
L 122.150075 291.833833 
L 124.175402 290.380881 
L 126.247906 288.894086 
L 128.368684 287.372659 
L 130.538861 285.815793 
L 132.759589 284.475577 
L 135.032044 283.305076 
L 137.357431 282.10731 
L 139.736983 280.881645 
L 142.171962 279.627431 
L 144.663659 278.815369 
L 147.213395 278.120629 
L 149.822522 277.409706 
L 152.492424 276.682223 
L 155.224515 276.012273 
L 158.020245 275.411605 
L 160.881096 274.796945 
L 163.808585 274.167968 
L 166.804264 273.52434 
L 169.869721 272.870765 
L 173.006582 272.223596 
L 176.21651 271.561352 
L 179.501206 270.883683 
L 182.862413 270.283433 
L 186.301912 269.759738 
L 189.821528 269.223843 
L 193.423126 268.676816 
L 197.108616 268.130899 
L 200.879952 267.572267 
L 204.739134 267.000623 
L 208.688208 266.396252 
L 212.729267 265.776074 
L 216.864455 265.141451 
L 221.095964 264.593278 
L 225.426037 264.036136 
L 229.856971 263.429939 
L 234.391114 262.66152 
L 239.030871 261.875203 
L 243.778702 260.995077 
L 248.637124 260.042881 
L 253.608714 259.099181 
L 258.696106 258.319321 
L 263.901999 257.521296 
L 269.229153 256.502539 
L 274.680392 255.415334 
L 280.258607 254.445451 
L 285.966756 253.542954 
L 291.807864 252.531354 
L 297.785029 251.413227 
L 303.90142 250.28891 
L 310.16028 249.157209 
L 316.564927 247.814653 
L 323.118758 246.318078 
L 329.825248 245.08474 
L 336.687952 243.90915 
L 343.710508 242.450503 
L 350.896641 241.018603 
L 358.25016 239.682299 
L 365.774965 238.338582 
L 373.475045 236.946223 
L 381.354483 235.330249 
L 389.417457 233.783096 
L 397.668242 232.267295 
L 406.111212 230.716187 
L 414.750844 229.174515 
L 423.591718 227.461634 
L 432.638524 225.627185 
L 441.896056 223.908245 
L 451.369224 222.382782 
L 461.063051 220.502708 
L 470.982676 218.557935 
L 481.133358 216.813358 
L 491.52048 215.092588 
L 502.14955 212.989317 
L 513.026202 211.316242 
L 524.156204 209.253871 
L 535.545457 207.432913 
L 547.2 205.557159 
L 547.2 57.927273 
L 547.2 57.927273 
L 535.545457 60.938326 
L 524.156204 64.00985 
L 513.026202 66.621804 
L 502.14955 69.827942 
L 491.52048 72.836806 
L 481.133358 75.705668 
L 470.982676 78.609133 
L 461.063051 81.526428 
L 451.369224 84.27208 
L 441.896056 86.523632 
L 432.638524 89.304527 
L 423.591718 92.22891 
L 414.750844 94.889903 
L 406.111212 97.233539 
L 397.668242 99.731538 
L 389.417457 102.172676 
L 381.354483 104.558246 
L 373.475045 106.867887 
L 365.774965 109.109493 
L 358.25016 111.382729 
L 350.896641 113.577976 
L 343.710508 115.686956 
L 336.687952 117.66586 
L 329.825248 119.583858 
L 323.118758 121.796443 
L 316.564927 123.902576 
L 310.16028 125.778621 
L 303.90142 127.611961 
L 297.785029 129.498339 
L 291.807864 131.355406 
L 285.966756 132.918981 
L 280.258607 134.416237 
L 274.680392 135.944787 
L 269.229153 137.45352 
L 263.901999 138.768615 
L 258.696106 139.96106 
L 253.608714 141.138213 
L 248.637124 142.312201 
L 243.778702 143.459465 
L 239.030871 144.973009 
L 234.391114 146.492787 
L 229.856971 147.896691 
L 225.426037 149.109187 
L 221.095964 150.294082 
L 216.864455 151.30673 
L 212.729267 152.201915 
L 208.688208 153.076723 
L 204.739134 154.124977 
L 200.879952 155.235965 
L 197.108616 156.321663 
L 193.423126 157.226562 
L 189.821528 158.023222 
L 186.301912 158.805483 
L 182.862413 159.590475 
L 179.501206 160.357598 
L 176.21651 161.107259 
L 173.006582 161.951619 
L 169.869721 162.9337 
L 166.804264 163.893427 
L 163.808585 164.932224 
L 160.881096 165.949592 
L 158.020245 166.943802 
L 155.224515 167.915382 
L 152.492424 168.864845 
L 149.822522 170.14831 
L 147.213395 171.656465 
L 144.663659 173.130289 
L 142.171962 174.627185 
L 139.736983 176.339587 
L 137.357431 178.013011 
L 135.032044 179.648343 
L 132.759589 181.246451 
L 130.538861 183.305091 
L 128.368684 185.564878 
L 126.247906 187.773227 
L 124.175402 189.969999 
L 122.150075 192.674957 
L 120.17085 195.318343 
L 118.236677 197.901558 
L 116.346531 200.425971 
L 114.499411 202.892922 
L 112.694336 205.703002 
L 110.930349 209.654681 
L 109.206516 213.516408 
L 107.521922 217.290233 
L 105.875674 220.978154 
L 104.2669 224.582128 
L 102.694745 228.641703 
L 101.158377 234.138943 
L 99.656981 239.511051 
L 98.189761 244.760874 
L 96.755939 249.891197 
L 95.354755 254.90474 
L 93.985465 259.80416 
L 92.647345 264.592056 
L 91.339684 269.270967 
L 90.061788 273.843372 
L 88.812982 278.311696 
L 87.592601 282.678309 
L 86.4 286.945526 
z
" clip-path="url(#p8430e29543)" style="fill: #0000ff; fill-opacity: 0.1"/>
   </g>
   <g id="PolyCollection_2">
    <path d="M 86.4 313.65719 
L 86.4 336.909117 
L 87.592601 333.805702 
L 88.812982 330.629999 
L 90.061788 327.380324 
L 91.339684 324.054955 
L 92.647345 320.652128 
L 93.985465 317.170039 
L 95.354755 313.606841 
L 96.755939 309.960646 
L 98.189761 306.22952 
L 99.656981 302.411485 
L 101.158377 298.504517 
L 102.694745 294.925943 
L 104.2669 291.427829 
L 105.875674 288.581998 
L 107.521922 285.892364 
L 109.206516 283.508983 
L 110.930349 281.070085 
L 112.694336 278.836434 
L 114.499411 276.691333 
L 116.346531 274.63088 
L 118.236677 272.522433 
L 120.17085 270.387437 
L 122.150075 268.682838 
L 124.175402 266.978971 
L 126.247906 265.235416 
L 128.368684 263.638755 
L 130.538861 262.007621 
L 132.759589 260.488678 
L 135.032044 259.191108 
L 137.357431 257.863314 
L 139.736983 256.564325 
L 142.171962 255.335056 
L 144.663659 254.329623 
L 147.213395 253.44507 
L 149.822522 252.555505 
L 152.492424 251.685499 
L 155.224515 250.893795 
L 158.020245 250.137064 
L 160.881096 249.419326 
L 163.808585 248.684871 
L 166.804264 247.985535 
L 169.869721 247.275209 
L 173.006582 246.588972 
L 176.21651 245.890557 
L 179.501206 245.199356 
L 182.862413 244.544421 
L 186.301912 243.928568 
L 189.821528 243.302344 
L 193.423126 242.677002 
L 197.108616 242.039892 
L 200.879952 241.382822 
L 204.739134 240.718599 
L 208.688208 240.028409 
L 212.729267 239.312781 
L 216.864455 238.585167 
L 221.095964 237.896841 
L 225.426037 237.19132 
L 229.856971 236.450041 
L 234.391114 235.613375 
L 239.030871 234.760028 
L 243.778702 233.84246 
L 248.637124 232.870321 
L 253.608714 231.873421 
L 258.696106 230.923762 
L 263.901999 229.947962 
L 269.229153 228.845366 
L 274.680392 227.686612 
L 280.258607 226.563192 
L 285.966756 225.453684 
L 291.807864 224.269158 
L 297.785029 223.007709 
L 303.90142 221.723963 
L 310.16028 220.423541 
L 316.564927 218.996873 
L 323.118758 217.457366 
L 329.825248 216.040095 
L 336.687952 214.63975 
L 343.710508 213.08131 
L 350.896641 211.499941 
L 358.25016 209.959536 
L 365.774965 208.390407 
L 373.475045 206.782544 
L 381.354483 205.032153 
L 389.417457 203.290062 
L 397.668242 201.556123 
L 406.111212 199.780306 
L 414.750844 197.981497 
L 423.591718 196.070937 
L 432.638524 194.076779 
L 441.896056 192.11508 
L 451.369224 190.233622 
L 461.063051 188.142996 
L 470.982676 185.99481 
L 481.133358 183.985693 
L 491.52048 181.962763 
L 502.14955 179.728778 
L 513.026202 177.670539 
L 524.156204 175.423404 
L 535.545457 173.295903 
L 547.2 171.110417 
L 547.2 119.216763 
L 547.2 119.216763 
L 535.545457 121.837039 
L 524.156204 124.415879 
L 513.026202 126.901238 
L 502.14955 129.52024 
L 491.52048 132.008342 
L 481.133358 134.462147 
L 470.982676 136.873954 
L 461.063051 139.345263 
L 451.369224 141.74699 
L 441.896056 144.032333 
L 432.638524 146.363315 
L 423.591718 148.665218 
L 414.750844 150.89029 
L 406.111212 153.026783 
L 397.668242 155.138448 
L 389.417457 157.199427 
L 381.354483 159.235682 
L 373.475045 161.208043 
L 365.774965 163.128248 
L 358.25016 165.030909 
L 350.896641 166.876176 
L 343.710508 168.688762 
L 336.687952 170.412868 
L 329.825248 172.115233 
L 323.118758 173.84122 
L 316.564927 175.515878 
L 310.16028 177.09791 
L 303.90142 178.648956 
L 297.785029 180.185928 
L 291.807864 181.683939 
L 285.966756 183.097654 
L 280.258607 184.470594 
L 274.680392 185.808864 
L 269.229153 187.09443 
L 263.901999 188.3129 
L 258.696106 189.495661 
L 253.608714 190.646402 
L 248.637124 191.723827 
L 243.778702 192.744159 
L 239.030871 193.796456 
L 234.391114 194.824671 
L 229.856971 195.820951 
L 225.426037 196.770261 
L 221.095964 197.697962 
L 216.864455 198.574876 
L 212.729267 199.41973 
L 208.688208 200.253578 
L 204.739134 201.085653 
L 200.879952 201.912954 
L 197.108616 202.735739 
L 193.423126 203.504957 
L 189.821528 204.234037 
L 186.301912 204.973031 
L 182.862413 205.705582 
L 179.501206 206.431723 
L 176.21651 207.145628 
L 173.006582 207.903022 
L 169.869721 208.675848 
L 166.804264 209.482091 
L 163.808585 210.291254 
L 160.881096 211.174069 
L 158.020245 212.036789 
L 155.224515 212.979289 
L 152.492424 213.91429 
L 149.822522 214.989925 
L 147.213395 216.153848 
L 144.663659 217.318655 
L 142.171962 218.591569 
L 139.736983 219.876838 
L 137.357431 221.308399 
L 135.032044 222.812257 
L 132.759589 224.281883 
L 130.538861 226.062201 
L 128.368684 227.868914 
L 126.247906 229.639273 
L 124.175402 231.704979 
L 122.150075 233.8161 
L 120.17085 235.879166 
L 118.236677 238.311561 
L 116.346531 240.728207 
L 114.499411 243.089844 
L 112.694336 245.70021 
L 110.930349 248.625976 
L 109.206516 251.485144 
L 107.521922 254.279229 
L 105.875674 257.657458 
L 104.2669 261.127757 
L 102.694745 264.608097 
L 101.158377 268.550232 
L 99.656981 273.139043 
L 98.189761 277.6234 
L 96.755939 282.005681 
L 95.354755 286.288209 
L 93.985465 290.473254 
L 92.647345 294.563036 
L 91.339684 298.559724 
L 90.061788 302.465435 
L 88.812982 306.282242 
L 87.592601 310.012168 
L 86.4 313.65719 
z
" clip-path="url(#p8430e29543)" style="fill: #ff0000; fill-opacity: 0.5"/>
   </g>
   <g id="matplotlib.axis_1">
    <g id="xtick_1">
     <g id="line2d_1">
      <defs>
       <path id="mb998a44157" d="M 0 0 
L 0 3.5 
" style="stroke: #000000; stroke-width: 0.8"/>
      </defs>
      <g>
       <use xlink:href="#mb998a44157" x="163.2" y="367.2" style="stroke: #000000; stroke-width: 0.8"/>
      </g>
     </g>
     <g id="text_1">
      <!-- $\mathdefault{0.5}$ -->
      <g transform="translate(151.352187 388.036997)scale(0.2 -0.2)">
       <defs>
        <path id="CMR17-30" d="M 2688 2038 
C 2688 2430 2682 3099 2413 3613 
C 2176 4063 1798 4224 1466 4224 
C 1158 4224 768 4082 525 3620 
C 269 3137 243 2539 243 2038 
C 243 1671 250 1112 448 623 
C 723 -39 1216 -128 1466 -128 
C 1760 -128 2208 -7 2470 604 
C 2662 1048 2688 1568 2688 2038 
z
M 1466 -26 
C 1056 -26 813 328 723 816 
C 653 1196 653 1749 653 2109 
C 653 2604 653 3015 736 3407 
C 858 3954 1216 4121 1466 4121 
C 1728 4121 2067 3947 2189 3420 
C 2272 3054 2278 2623 2278 2109 
C 2278 1691 2278 1176 2202 797 
C 2067 96 1690 -26 1466 -26 
z
" transform="scale(0.015625)"/>
        <path id="CMMI12-3a" d="M 1178 307 
C 1178 492 1024 620 870 620 
C 685 620 557 467 557 313 
C 557 128 710 0 864 0 
C 1050 0 1178 153 1178 307 
z
" transform="scale(0.015625)"/>
        <path id="CMR17-35" d="M 730 3750 
C 794 3724 1056 3641 1325 3641 
C 1920 3641 2246 3961 2432 4140 
C 2432 4191 2432 4224 2394 4224 
C 2387 4224 2374 4224 2323 4198 
C 2099 4102 1837 4032 1517 4032 
C 1325 4032 1037 4055 723 4191 
C 653 4224 640 4224 634 4224 
C 602 4224 595 4217 595 4090 
L 595 2231 
C 595 2113 595 2080 659 2080 
C 691 2080 704 2093 736 2139 
C 941 2435 1222 2560 1542 2560 
C 1766 2560 2246 2415 2246 1293 
C 2246 1087 2246 716 2054 422 
C 1894 159 1645 25 1370 25 
C 947 25 518 319 403 812 
C 429 806 480 793 506 793 
C 589 793 749 838 749 1036 
C 749 1209 627 1280 506 1280 
C 358 1280 262 1190 262 1011 
C 262 454 704 -128 1382 -128 
C 2042 -128 2669 441 2669 1267 
C 2669 2054 2170 2662 1549 2662 
C 1222 2662 947 2540 730 2304 
L 730 3750 
z
" transform="scale(0.015625)"/>
       </defs>
       <use xlink:href="#CMR17-30" transform="scale(0.996264)"/>
       <use xlink:href="#CMMI12-3a" transform="translate(45.690477 0)scale(0.996264)"/>
       <use xlink:href="#CMR17-35" transform="translate(72.787654 0)scale(0.996264)"/>
      </g>
     </g>
    </g>
    <g id="xtick_2">
     <g id="line2d_2">
      <g>
       <use xlink:href="#mb998a44157" x="291.2" y="367.2" style="stroke: #000000; stroke-width: 0.8"/>
      </g>
     </g>
     <g id="text_2">
      <!-- $\mathdefault{1.0}$ -->
      <g transform="translate(279.352187 388.036997)scale(0.2 -0.2)">
       <defs>
        <path id="CMR17-31" d="M 1702 4083 
C 1702 4217 1696 4224 1606 4224 
C 1357 3927 979 3833 621 3820 
C 602 3820 570 3820 563 3808 
C 557 3795 557 3782 557 3648 
C 755 3648 1088 3686 1344 3839 
L 1344 467 
C 1344 243 1331 166 781 166 
L 589 166 
L 589 0 
C 896 6 1216 12 1523 12 
C 1830 12 2150 6 2458 0 
L 2458 166 
L 2266 166 
C 1715 166 1702 236 1702 467 
L 1702 4083 
z
" transform="scale(0.015625)"/>
       </defs>
       <use xlink:href="#CMR17-31" transform="scale(0.996264)"/>
       <use xlink:href="#CMMI12-3a" transform="translate(45.690477 0)scale(0.996264)"/>
       <use xlink:href="#CMR17-30" transform="translate(72.787654 0)scale(0.996264)"/>
      </g>
     </g>
    </g>
    <g id="xtick_3">
     <g id="line2d_3">
      <g>
       <use xlink:href="#mb998a44157" x="419.2" y="367.2" style="stroke: #000000; stroke-width: 0.8"/>
      </g>
     </g>
     <g id="text_3">
      <!-- $\mathdefault{1.5}$ -->
      <g transform="translate(407.352187 388.036997)scale(0.2 -0.2)">
       <use xlink:href="#CMR17-31" transform="scale(0.996264)"/>
       <use xlink:href="#CMMI12-3a" transform="translate(45.690477 0)scale(0.996264)"/>
       <use xlink:href="#CMR17-35" transform="translate(72.787654 0)scale(0.996264)"/>
      </g>
     </g>
    </g>
    <g id="xtick_4">
     <g id="line2d_4">
      <g>
       <use xlink:href="#mb998a44157" x="547.2" y="367.2" style="stroke: #000000; stroke-width: 0.8"/>
      </g>
     </g>
     <g id="text_4">
      <!-- $\mathdefault{2.0}$ -->
      <g transform="translate(535.352187 388.036997)scale(0.2 -0.2)">
       <defs>
        <path id="CMR17-32" d="M 2669 990 
L 2554 990 
C 2490 537 2438 460 2413 422 
C 2381 371 1920 371 1830 371 
L 602 371 
C 832 620 1280 1073 1824 1596 
C 2214 1966 2669 2400 2669 3033 
C 2669 3788 2067 4224 1395 4224 
C 691 4224 262 3603 262 3027 
C 262 2777 448 2745 525 2745 
C 589 2745 781 2783 781 3007 
C 781 3206 614 3264 525 3264 
C 486 3264 448 3257 422 3244 
C 544 3788 915 4057 1306 4057 
C 1862 4057 2227 3616 2227 3033 
C 2227 2477 1901 1998 1536 1583 
L 262 147 
L 262 0 
L 2515 0 
L 2669 990 
z
" transform="scale(0.015625)"/>
       </defs>
       <use xlink:href="#CMR17-32" transform="scale(0.996264)"/>
       <use xlink:href="#CMMI12-3a" transform="translate(45.690477 0)scale(0.996264)"/>
       <use xlink:href="#CMR17-30" transform="translate(72.787654 0)scale(0.996264)"/>
      </g>
     </g>
    </g>
    <g id="text_5">
     <!-- $\mathrm{Nuclear\ recoil\ energy}\ T_\mathrm{nr}\ [\si{keV}]$ -->
     <g transform="translate(194.012961 410.838652)scale(0.2 -0.2)">
      <defs>
       <path id="CMR17-4e" d="M 1312 4275 
C 1267 4345 1261 4352 1139 4352 
L 326 4352 
L 326 4185 
L 448 4185 
C 704 4185 819 4153 838 4147 
L 838 624 
C 838 465 838 166 326 166 
L 326 0 
C 474 12 742 12 902 12 
C 1062 12 1331 12 1478 0 
L 1478 166 
C 966 166 966 465 966 624 
L 966 4057 
C 1011 4019 1011 4007 1056 3943 
L 3430 76 
C 3475 0 3494 0 3526 0 
C 3590 0 3590 19 3590 140 
L 3590 3726 
C 3590 3885 3590 4185 4102 4185 
L 4102 4352 
C 3955 4339 3686 4339 3526 4339 
C 3366 4339 3098 4339 2950 4352 
L 2950 4185 
C 3462 4185 3462 3885 3462 3726 
L 3462 777 
L 1312 4275 
z
" transform="scale(0.015625)"/>
       <path id="CMR17-75" d="M 1882 2745 
L 1882 2579 
C 2259 2579 2317 2540 2317 2229 
L 2317 1053 
C 2317 510 2029 38 1555 38 
C 1030 38 986 355 986 691 
L 986 2816 
L 211 2745 
L 211 2579 
C 467 2579 640 2579 646 2320 
L 646 1079 
C 646 646 646 368 813 187 
C 896 103 1056 -64 1517 -64 
C 2061 -64 2272 400 2323 536 
L 2330 536 
L 2330 -64 
L 3091 -13 
L 3091 154 
C 2714 154 2656 193 2656 503 
L 2656 2816 
L 1882 2745 
z
" transform="scale(0.015625)"/>
       <path id="CMR17-63" d="M 2234 2240 
C 2112 2240 1933 2240 1933 2015 
C 1933 1836 2080 1785 2163 1785 
C 2208 1785 2394 1804 2394 2028 
C 2394 2476 1958 2816 1466 2816 
C 787 2816 211 2201 211 1379 
C 211 521 813 -64 1466 -64 
C 2259 -64 2458 676 2458 747 
C 2458 773 2451 792 2406 792 
C 2362 792 2355 786 2330 702 
C 2163 180 1798 51 1523 51 
C 1114 51 621 431 621 1385 
C 621 2358 1094 2700 1472 2700 
C 1722 2700 2093 2582 2234 2240 
z
" transform="scale(0.015625)"/>
       <path id="CMR17-6c" d="M 979 4416 
L 218 4345 
L 218 4179 
C 595 4179 653 4141 653 3835 
L 653 439 
C 653 198 627 166 218 166 
L 218 0 
C 371 12 653 12 813 12 
C 979 12 1261 12 1414 0 
L 1414 166 
C 1005 166 979 191 979 439 
L 979 4416 
z
" transform="scale(0.015625)"/>
       <path id="CMR17-65" d="M 2438 1503 
C 2464 1529 2464 1542 2464 1606 
C 2464 2251 2118 2816 1389 2816 
C 710 2816 173 2175 173 1394 
C 173 554 781 -64 1459 -64 
C 2176 -64 2458 619 2458 755 
C 2458 800 2419 800 2406 800 
C 2362 800 2355 787 2330 709 
C 2189 270 1837 51 1504 51 
C 1229 51 954 206 781 490 
C 582 819 582 1200 582 1503 
L 2438 1503 
z
M 589 1600 
C 634 2511 1126 2713 1382 2713 
C 1818 2713 2112 2308 2118 1600 
L 589 1600 
z
" transform="scale(0.015625)"/>
       <path id="CMR17-61" d="M 2304 1656 
C 2304 2048 2304 2275 2035 2534 
C 1798 2751 1523 2816 1306 2816 
C 800 2816 435 2408 435 1977 
C 435 1740 627 1728 666 1728 
C 749 1728 896 1779 896 1958 
C 896 2118 774 2188 666 2188 
C 640 2188 608 2182 589 2176 
C 723 2594 1069 2713 1293 2713 
C 1613 2713 1965 2421 1965 1875 
L 1965 1632 
C 1587 1619 1133 1568 774 1373 
C 371 1147 256 822 256 576 
C 256 77 832 -64 1171 -64 
C 1523 -64 1850 135 1990 505 
C 2003 219 2182 -39 2464 -39 
C 2598 -39 2938 51 2938 563 
L 2938 926 
L 2822 926 
L 2822 557 
C 2822 161 2650 109 2566 109 
C 2304 109 2304 446 2304 732 
L 2304 1656 
z
M 1965 887 
C 1965 323 1568 38 1216 38 
C 896 38 646 278 646 576 
C 646 771 730 1114 1101 1322 
C 1408 1497 1760 1523 1965 1536 
L 1965 887 
z
" transform="scale(0.015625)"/>
       <path id="CMR17-72" d="M 960 1517 
C 960 2134 1222 2713 1702 2713 
C 1747 2713 1792 2707 1837 2687 
C 1837 2687 1696 2642 1696 2475 
C 1696 2321 1818 2257 1914 2257 
C 1990 2257 2131 2302 2131 2482 
C 2131 2687 1926 2816 1709 2816 
C 1222 2816 1011 2340 947 2115 
L 941 2115 
L 941 2816 
L 198 2745 
L 198 2578 
C 576 2578 634 2540 634 2231 
L 634 443 
C 634 198 608 166 198 166 
L 198 0 
C 352 12 646 12 813 12 
C 998 12 1325 12 1498 0 
L 1498 166 
C 1037 166 960 166 960 455 
L 960 1517 
z
" transform="scale(0.015625)"/>
       <path id="CMR17-6f" d="M 2758 1356 
C 2758 2176 2163 2816 1466 2816 
C 768 2816 173 2176 173 1356 
C 173 550 768 -64 1466 -64 
C 2163 -64 2758 550 2758 1356 
z
M 1466 51 
C 1165 51 909 230 762 480 
C 602 768 582 1126 582 1408 
C 582 1676 595 2009 762 2297 
C 890 2508 1139 2713 1466 2713 
C 1754 2713 1997 2553 2150 2329 
C 2349 2028 2349 1606 2349 1408 
C 2349 1158 2336 774 2163 467 
C 1984 172 1709 51 1466 51 
z
" transform="scale(0.015625)"/>
       <path id="CMR17-69" d="M 992 3961 
C 992 4102 877 4224 730 4224 
C 589 4224 467 4108 467 3961 
C 467 3820 582 3699 730 3699 
C 870 3699 992 3814 992 3961 
z
M 243 2745 
L 243 2579 
C 602 2579 653 2540 653 2231 
L 653 443 
C 653 198 627 166 218 166 
L 218 0 
C 371 12 646 12 806 12 
C 960 12 1222 12 1370 0 
L 1370 166 
C 992 166 979 205 979 436 
L 979 2816 
L 243 2745 
z
" transform="scale(0.015625)"/>
       <path id="CMR17-6e" d="M 2656 1954 
C 2656 2282 2592 2816 1837 2816 
C 1331 2816 1069 2424 973 2166 
L 966 2166 
L 966 2816 
L 211 2745 
L 211 2578 
C 589 2578 646 2540 646 2231 
L 646 443 
C 646 198 621 166 211 166 
L 211 0 
C 365 12 646 12 813 12 
C 979 12 1267 12 1421 0 
L 1421 166 
C 1011 166 986 192 986 443 
L 986 1678 
C 986 2269 1344 2713 1792 2713 
C 2266 2713 2317 2289 2317 1980 
L 2317 443 
C 2317 198 2291 166 1882 166 
L 1882 0 
C 2035 12 2317 12 2483 12 
C 2650 12 2938 12 3091 0 
L 3091 166 
C 2682 166 2656 192 2656 443 
L 2656 1954 
z
" transform="scale(0.015625)"/>
       <path id="CMR17-67" d="M 710 1165 
C 832 1068 1043 960 1299 960 
C 1805 960 2240 1359 2240 1895 
C 2240 2063 2189 2321 1997 2521 
C 2176 2713 2438 2777 2586 2777 
C 2611 2777 2650 2777 2682 2758 
C 2656 2751 2598 2726 2598 2623 
C 2598 2540 2656 2483 2739 2483 
C 2835 2483 2886 2547 2886 2630 
C 2886 2751 2790 2880 2586 2880 
C 2330 2880 2106 2758 1926 2591 
C 1734 2764 1504 2828 1299 2828 
C 794 2828 358 2431 358 1895 
C 358 1527 570 1294 634 1230 
C 442 1004 442 742 442 710 
C 442 544 506 300 723 166 
C 390 82 128 -184 128 -517 
C 128 -996 736 -1344 1466 -1344 
C 2170 -1344 2803 -1009 2803 -510 
C 2803 384 1856 384 1363 384 
C 1216 384 954 384 922 390 
C 723 422 589 601 589 825 
C 589 883 589 1024 710 1165 
z
M 1299 1068 
C 736 1068 736 1766 736 1895 
C 736 2024 736 2719 1299 2719 
C 1862 2719 1862 2024 1862 1895 
C 1862 1766 1862 1068 1299 1068 
z
M 1466 -1236 
C 826 -1236 384 -883 384 -517 
C 384 -311 493 -118 634 -11 
C 794 102 858 102 1293 102 
C 1818 102 2547 102 2547 -517 
C 2547 -883 2106 -1236 1466 -1236 
z
" transform="scale(0.015625)"/>
       <path id="CMR17-79" d="M 2496 2183 
C 2656 2579 2944 2585 3034 2585 
L 3034 2752 
C 2912 2745 2752 2739 2630 2739 
C 2496 2739 2285 2739 2157 2752 
L 2157 2585 
C 2400 2566 2406 2384 2406 2332 
C 2406 2268 2394 2235 2362 2158 
L 1664 409 
L 902 2300 
C 870 2378 870 2423 870 2430 
C 870 2572 1018 2585 1171 2585 
L 1171 2752 
C 1018 2739 742 2739 582 2739 
C 410 2739 205 2739 64 2752 
L 64 2585 
C 410 2585 448 2553 531 2345 
L 1485 -31 
C 1197 -795 1030 -1242 627 -1242 
C 557 -1242 397 -1223 282 -1106 
C 429 -1093 493 -1002 493 -892 
C 493 -782 416 -685 288 -685 
C 147 -685 77 -782 77 -899 
C 77 -1158 339 -1344 627 -1344 
C 998 -1344 1229 -983 1357 -659 
L 2496 2183 
z
" transform="scale(0.015625)"/>
       <path id="CMMI12-54" d="M 2669 3886 
C 2707 4038 2720 4096 2816 4121 
C 2867 4134 3078 4134 3213 4134 
C 3853 4134 4154 4109 4154 3612 
C 4154 3516 4128 3274 4090 3038 
L 4083 2962 
C 4083 2937 4109 2898 4147 2898 
C 4211 2898 4211 2930 4230 3032 
L 4416 4159 
C 4429 4217 4429 4230 4429 4249 
C 4429 4319 4390 4319 4262 4319 
L 762 4319 
C 614 4319 608 4313 570 4198 
L 179 3051 
C 173 3038 154 2968 154 2962 
C 154 2930 179 2898 218 2898 
C 269 2898 282 2924 307 3007 
C 576 3777 710 4134 1562 4134 
L 1990 4134 
C 2144 4134 2208 4134 2208 4064 
C 2208 4045 2208 4032 2176 3917 
L 1318 497 
C 1254 249 1242 185 563 185 
C 403 185 358 185 358 64 
C 358 0 429 0 461 0 
C 621 0 787 12 947 12 
L 1946 12 
C 2106 12 2278 0 2438 0 
C 2509 0 2573 0 2573 121 
C 2573 185 2528 185 2362 185 
C 1786 185 1786 242 1786 338 
C 1786 344 1786 389 1811 491 
L 2669 3886 
z
" transform="scale(0.015625)"/>
       <path id="CMR17-5b" d="M 1504 -1600 
L 1504 -1376 
L 902 -1376 
L 902 4575 
L 1504 4575 
L 1504 4800 
L 678 4800 
L 678 -1600 
L 1504 -1600 
z
" transform="scale(0.015625)"/>
       <path id="CMSS17-6b" d="M 1696 1686 
L 2688 2735 
L 2074 2735 
L 954 1552 
L 954 4416 
L 480 4416 
L 480 0 
L 947 0 
L 947 891 
L 1376 1342 
L 2278 0 
L 2822 0 
L 1696 1686 
z
" transform="scale(0.015625)"/>
       <path id="CMSS17-65" d="M 2502 1375 
C 2502 1587 2490 2001 2285 2347 
C 2061 2713 1696 2816 1421 2816 
C 755 2816 192 2184 192 1363 
C 192 579 774 -64 1510 -64 
C 1798 -64 2150 19 2470 249 
C 2470 275 2458 414 2451 421 
C 2451 433 2432 629 2432 655 
C 2125 408 1773 326 1517 326 
C 1107 326 666 667 646 1375 
L 2502 1375 
z
M 698 1728 
C 781 2086 1062 2425 1421 2425 
C 1517 2425 1965 2412 2080 1728 
L 698 1728 
z
" transform="scale(0.015625)"/>
       <path id="CMSS17-56" d="M 3910 4416 
L 3411 4416 
L 2304 1361 
C 2272 1272 2074 687 2035 484 
L 2029 484 
C 1978 725 1773 1291 1664 1603 
L 922 3670 
L 646 4416 
L 83 4416 
L 1715 0 
L 2278 0 
L 3910 4416 
z
" transform="scale(0.015625)"/>
       <path id="CMR17-5d" d="M 915 4800 
L 90 4800 
L 90 4575 
L 691 4575 
L 691 -1376 
L 90 -1376 
L 90 -1600 
L 915 -1600 
L 915 4800 
z
" transform="scale(0.015625)"/>
      </defs>
      <use xlink:href="#CMR17-4e" transform="scale(0.996264)"/>
      <use xlink:href="#CMR17-75" transform="translate(69.07243 0)scale(0.996264)"/>
      <use xlink:href="#CMR17-63" transform="translate(119.9678 0)scale(0.996264)"/>
      <use xlink:href="#CMR17-6c" transform="translate(160.45346 0)scale(0.996264)"/>
      <use xlink:href="#CMR17-65" transform="translate(185.324519 0)scale(0.996264)"/>
      <use xlink:href="#CMR17-61" transform="translate(225.810179 0)scale(0.996264)"/>
      <use xlink:href="#CMR17-72" transform="translate(271.500656 0)scale(0.996264)"/>
      <use xlink:href="#CMR17-72" transform="translate(338.010537 0)scale(0.996264)"/>
      <use xlink:href="#CMR17-65" transform="translate(373.291304 0)scale(0.996264)"/>
      <use xlink:href="#CMR17-63" transform="translate(413.776965 0)scale(0.996264)"/>
      <use xlink:href="#CMR17-6f" transform="translate(454.262625 0)scale(0.996264)"/>
      <use xlink:href="#CMR17-69" transform="translate(499.953103 0)scale(0.996264)"/>
      <use xlink:href="#CMR17-6c" transform="translate(524.824161 0)scale(0.996264)"/>
      <use xlink:href="#CMR17-65" transform="translate(580.924332 0)scale(0.996264)"/>
      <use xlink:href="#CMR17-6e" transform="translate(621.409993 0)scale(0.996264)"/>
      <use xlink:href="#CMR17-65" transform="translate(672.305362 0)scale(0.996264)"/>
      <use xlink:href="#CMR17-72" transform="translate(712.791023 0)scale(0.996264)"/>
      <use xlink:href="#CMR17-67" transform="translate(748.071791 0)scale(0.996264)"/>
      <use xlink:href="#CMR17-79" transform="translate(793.762268 0)scale(0.996264)"/>
      <use xlink:href="#CMMI12-54" transform="translate(874.585463 0)scale(0.996264)"/>
      <use xlink:href="#CMR17-6e" transform="translate(931.760506 -14.943915)scale(0.697382)"/>
      <use xlink:href="#CMR17-72" transform="translate(967.387115 -14.943915)scale(0.697382)"/>
      <use xlink:href="#CMR17-5b" transform="translate(1023.81078 0)scale(0.996264)"/>
      <use xlink:href="#CMSS17-6b" transform="translate(1048.681838 0)scale(0.996264)"/>
      <use xlink:href="#CMSS17-65" transform="translate(1091.681874 0)scale(0.996264)"/>
      <use xlink:href="#CMSS17-56" transform="translate(1133.320696 0)scale(0.996264)"/>
      <use xlink:href="#CMR17-5d" transform="translate(1196.839717 0)scale(0.996264)"/>
     </g>
    </g>
   </g>
   <g id="matplotlib.axis_2">
    <g id="ytick_1">
     <g id="line2d_5">
      <defs>
       <path id="me828f072e2" d="M 0 0 
L -3.5 0 
" style="stroke: #000000; stroke-width: 0.8"/>
      </defs>
      <g>
       <use xlink:href="#me828f072e2" x="86.4" y="346.802634" style="stroke: #000000; stroke-width: 0.8"/>
      </g>
     </g>
     <g id="text_6">
      <!-- $\mathdefault{2}$ -->
      <g transform="translate(70.261905 353.721132)scale(0.2 -0.2)">
       <use xlink:href="#CMR17-32" transform="scale(0.996264)"/>
      </g>
     </g>
    </g>
    <g id="ytick_2">
     <g id="line2d_6">
      <g>
       <use xlink:href="#me828f072e2" x="86.4" y="285.132462" style="stroke: #000000; stroke-width: 0.8"/>
      </g>
     </g>
     <g id="text_7">
      <!-- $\mathdefault{3}$ -->
      <g transform="translate(70.261905 292.05096)scale(0.2 -0.2)">
       <defs>
        <path id="CMR17-33" d="M 1414 2176 
C 1984 2176 2234 1673 2234 1094 
C 2234 322 1824 25 1453 25 
C 1114 25 563 193 390 691 
C 422 678 454 678 486 678 
C 640 678 755 780 755 947 
C 755 1132 614 1216 486 1216 
C 378 1216 211 1164 211 927 
C 211 335 787 -128 1466 -128 
C 2176 -128 2720 432 2720 1087 
C 2720 1718 2208 2176 1600 2246 
C 2086 2347 2554 2776 2554 3353 
C 2554 3856 2048 4224 1472 4224 
C 890 4224 378 3862 378 3347 
C 378 3123 544 3084 627 3084 
C 762 3084 877 3167 877 3334 
C 877 3500 762 3584 627 3584 
C 602 3584 570 3584 544 3571 
C 730 3999 1235 4076 1459 4076 
C 1683 4076 2106 3966 2106 3347 
C 2106 3167 2080 2851 1862 2574 
C 1670 2329 1453 2316 1242 2297 
C 1210 2297 1062 2284 1037 2284 
C 992 2278 966 2272 966 2227 
C 966 2182 973 2176 1101 2176 
L 1414 2176 
z
" transform="scale(0.015625)"/>
       </defs>
       <use xlink:href="#CMR17-33" transform="scale(0.996264)"/>
      </g>
     </g>
    </g>
    <g id="ytick_3">
     <g id="line2d_7">
      <g>
       <use xlink:href="#me828f072e2" x="86.4" y="223.46229" style="stroke: #000000; stroke-width: 0.8"/>
      </g>
     </g>
     <g id="text_8">
      <!-- $\mathdefault{4}$ -->
      <g transform="translate(70.261905 230.380788)scale(0.2 -0.2)">
       <defs>
        <path id="CMR17-34" d="M 2150 4147 
C 2150 4281 2144 4288 2029 4288 
L 128 1254 
L 128 1088 
L 1779 1088 
L 1779 460 
C 1779 230 1766 166 1318 166 
L 1197 166 
L 1197 0 
C 1402 12 1747 12 1965 12 
C 2182 12 2528 12 2733 0 
L 2733 166 
L 2611 166 
C 2163 166 2150 230 2150 460 
L 2150 1088 
L 2803 1088 
L 2803 1254 
L 2150 1254 
L 2150 4147 
z
M 1798 3723 
L 1798 1254 
L 256 1254 
L 1798 3723 
z
" transform="scale(0.015625)"/>
       </defs>
       <use xlink:href="#CMR17-34" transform="scale(0.996264)"/>
      </g>
     </g>
    </g>
    <g id="ytick_4">
     <g id="line2d_8">
      <g>
       <use xlink:href="#me828f072e2" x="86.4" y="161.792118" style="stroke: #000000; stroke-width: 0.8"/>
      </g>
     </g>
     <g id="text_9">
      <!-- $\mathdefault{5}$ -->
      <g transform="translate(70.261905 168.710617)scale(0.2 -0.2)">
       <use xlink:href="#CMR17-35" transform="scale(0.996264)"/>
      </g>
     </g>
    </g>
    <g id="ytick_5">
     <g id="line2d_9">
      <g>
       <use xlink:href="#me828f072e2" x="86.4" y="100.121947" style="stroke: #000000; stroke-width: 0.8"/>
      </g>
     </g>
     <g id="text_10">
      <!-- $\mathdefault{6}$ -->
      <g transform="translate(70.261905 107.040445)scale(0.2 -0.2)">
       <defs>
        <path id="CMR17-36" d="M 678 2198 
C 678 3712 1395 4076 1811 4076 
C 1946 4076 2272 4049 2400 3782 
C 2298 3782 2106 3782 2106 3558 
C 2106 3385 2246 3328 2336 3328 
C 2394 3328 2566 3353 2566 3571 
C 2566 3987 2246 4224 1805 4224 
C 1043 4224 243 3411 243 2011 
C 243 257 966 -128 1478 -128 
C 2099 -128 2688 431 2688 1295 
C 2688 2101 2170 2688 1517 2688 
C 1126 2688 838 2430 678 1979 
L 678 2198 
z
M 1478 25 
C 691 25 691 1212 691 1450 
C 691 1914 909 2585 1504 2585 
C 1613 2585 1926 2585 2138 2140 
C 2253 1889 2253 1624 2253 1302 
C 2253 954 2253 696 2118 438 
C 1978 173 1773 25 1478 25 
z
" transform="scale(0.015625)"/>
       </defs>
       <use xlink:href="#CMR17-36" transform="scale(0.996264)"/>
      </g>
     </g>
    </g>
    <g id="text_11">
     <!-- $L_y\ [\si{ph\cdot keV^{-1}}]$ -->
     <g transform="translate(60.561099 264.502305)rotate(-90)scale(0.2 -0.2)">
      <defs>
       <path id="CMMI12-4c" d="M 2349 3860 
C 2406 4102 2426 4166 2989 4166 
C 3162 4166 3206 4166 3206 4287 
C 3206 4352 3136 4352 3110 4352 
C 2982 4352 2835 4339 2707 4339 
L 1850 4339 
C 1728 4339 1587 4352 1466 4352 
C 1414 4352 1344 4352 1344 4230 
C 1344 4166 1402 4166 1498 4166 
C 1888 4166 1888 4115 1888 4045 
C 1888 4032 1888 3994 1862 3898 
L 998 472 
C 941 249 928 185 480 185 
C 358 185 294 185 294 70 
C 294 0 333 0 461 0 
L 3328 0 
C 3469 0 3475 6 3520 121 
L 4013 1478 
C 4026 1510 4038 1548 4038 1567 
C 4038 1605 4006 1631 3974 1631 
C 3968 1631 3936 1631 3923 1605 
C 3910 1599 3910 1586 3859 1465 
C 3654 905 3366 185 2285 185 
L 1670 185 
C 1581 185 1568 185 1530 191 
C 1459 198 1453 211 1453 262 
C 1453 306 1466 344 1478 402 
L 2349 3860 
z
" transform="scale(0.015625)"/>
       <path id="CMMI12-79" d="M 1683 -673 
C 1510 -921 1261 -1152 947 -1152 
C 870 -1152 563 -1139 467 -826 
C 486 -833 518 -833 531 -833 
C 723 -833 851 -666 851 -519 
C 851 -372 730 -320 634 -320 
C 531 -320 307 -397 307 -711 
C 307 -1050 582 -1280 947 -1280 
C 1587 -1280 2234 -673 2413 -7 
L 3040 2483 
C 3046 2515 3059 2553 3059 2591 
C 3059 2687 2982 2752 2886 2752 
C 2829 2752 2694 2726 2643 2534 
L 2170 657 
C 2138 542 2138 530 2086 459 
C 1958 281 1747 64 1440 64 
C 1082 64 1050 415 1050 587 
C 1050 951 1222 1443 1395 1902 
C 1466 2087 1504 2177 1504 2305 
C 1504 2573 1312 2816 998 2816 
C 410 2816 173 1890 173 1838 
C 173 1813 198 1781 243 1781 
C 301 1781 307 1807 333 1896 
C 486 2432 730 2687 979 2687 
C 1037 2687 1146 2687 1146 2477 
C 1146 2311 1075 2126 979 1883 
C 666 1047 666 836 666 683 
C 666 76 1101 -64 1421 -64 
C 1606 -64 1837 -7 2061 230 
L 2067 223 
C 1971 -141 1907 -359 1683 -673 
z
" transform="scale(0.015625)"/>
       <path id="CMSS17-70" d="M 966 275 
C 1178 70 1466 -64 1773 -64 
C 2368 -64 2880 553 2880 1382 
C 2880 2147 2496 2816 1946 2816 
C 1626 2816 1242 2700 954 2470 
L 954 2764 
L 480 2764 
L 480 -1280 
L 966 -1280 
L 966 275 
z
M 966 2088 
C 1018 2166 1235 2412 1587 2412 
C 2035 2412 2394 1946 2394 1382 
C 2394 741 1958 326 1530 326 
C 1402 326 1267 358 1139 468 
C 966 624 966 721 966 812 
L 966 2088 
z
" transform="scale(0.015625)"/>
       <path id="CMSS17-68" d="M 2618 1878 
C 2618 2283 2522 2816 1798 2816 
C 1395 2816 1133 2617 947 2399 
L 947 4416 
L 474 4416 
L 474 0 
L 960 0 
L 960 1556 
C 960 1962 1114 2425 1549 2425 
C 2112 2425 2131 2045 2131 1826 
L 2131 0 
L 2618 0 
L 2618 1878 
z
" transform="scale(0.015625)"/>
       <path id="CMSY10-1" d="M 1229 1619 
C 1229 1804 1075 1958 890 1958 
C 704 1958 550 1804 550 1619 
C 550 1433 704 1280 890 1280 
C 1075 1280 1229 1433 1229 1619 
z
" transform="scale(0.015625)"/>
       <path id="CMSY10-0" d="M 4218 1472 
C 4326 1472 4442 1472 4442 1600 
C 4442 1728 4326 1728 4218 1728 
L 755 1728 
C 646 1728 531 1728 531 1600 
C 531 1472 646 1472 755 1472 
L 4218 1472 
z
" transform="scale(0.015625)"/>
       <path id="CMSS17-31" d="M 1818 4288 
L 1696 4288 
C 1350 3949 947 3902 538 3891 
L 538 3520 
C 723 3526 1024 3539 1325 3673 
L 1325 371 
L 570 371 
L 570 0 
L 2573 0 
L 2573 371 
L 1818 371 
L 1818 4288 
z
" transform="scale(0.015625)"/>
      </defs>
      <use xlink:href="#CMMI12-4c" transform="scale(0.996264)"/>
      <use xlink:href="#CMMI12-79" transform="translate(66.370875 -14.943915)scale(0.697382)"/>
      <use xlink:href="#CMR17-5b" transform="translate(133.895095 0)scale(0.996264)"/>
      <use xlink:href="#CMSS17-70" transform="translate(158.766153 0)scale(0.996264)"/>
      <use xlink:href="#CMSS17-68" transform="translate(206.971097 0)scale(0.996264)"/>
      <use xlink:href="#CMSY10-1" transform="translate(277.315247 0)scale(0.996264)"/>
      <use xlink:href="#CMSS17-6b" transform="translate(327.128538 0)scale(0.996264)"/>
      <use xlink:href="#CMSS17-65" transform="translate(370.128574 0)scale(0.996264)"/>
      <use xlink:href="#CMSS17-56" transform="translate(411.767396 0)scale(0.996264)"/>
      <use xlink:href="#CMSY10-0" transform="translate(475.286417 36.153639)scale(0.697382)"/>
      <use xlink:href="#CMSS17-31" transform="translate(529.52741 36.153639)scale(0.697382)"/>
      <use xlink:href="#CMR17-5d" transform="translate(562.815923 0)scale(0.996264)"/>
     </g>
    </g>
   </g>
   <g id="LineCollection_1">
    <path d="M 278.666908 168.451339 
L 344.813781 168.451339 
" clip-path="url(#p8430e29543)" style="fill: none; stroke: #00bfbf; stroke-width: 2"/>
    <path d="M 503.914415 149.921334 
L 549.869084 149.921334 
" clip-path="url(#p8430e29543)" style="fill: none; stroke: #00bfbf; stroke-width: 2"/>
    <path clip-path="url(#p8430e29543)" style="fill: none; stroke: #00bfbf; stroke-width: 2"/>
   </g>
   <g id="LineCollection_2">
    <path d="M 311.740345 236.201668 
L 311.740345 100.701009 
" clip-path="url(#p8430e29543)" style="fill: none; stroke: #00bfbf; stroke-width: 2"/>
    <path d="M 526.89175 180.611654 
L 526.89175 118.072889 
" clip-path="url(#p8430e29543)" style="fill: none; stroke: #00bfbf; stroke-width: 2"/>
    <path clip-path="url(#p8430e29543)" style="fill: none; stroke: #00bfbf; stroke-width: 2"/>
   </g>
   <g id="LineCollection_3">
    <path d="M 265.785675 100.121947 
L 521.669628 100.121947 
" clip-path="url(#p8430e29543)" style="fill: none; stroke: #bfbf00; stroke-width: 2"/>
   </g>
   <g id="LineCollection_4">
    <path d="M 393.553581 223.46229 
L 393.553581 100.121947 
" clip-path="url(#p8430e29543)" style="fill: none; stroke: #bfbf00; stroke-width: 2"/>
   </g>
   <g id="line2d_10">
    <defs>
     <path id="m3507bfa1ce" d="M -4.5 0 
L 0 6.75 
L 4.5 0 
" style="stroke: #bfbf00; stroke-linejoin: miter"/>
    </defs>
    <g clip-path="url(#p8430e29543)">
     <use xlink:href="#m3507bfa1ce" x="393.553581" y="223.46229" style="fill: #bfbf00; stroke: #bfbf00; stroke-linejoin: miter"/>
    </g>
   </g>
   <g id="line2d_11">
    <path d="M 86.4 318.958586 
L 87.592601 315.437049 
L 88.812982 311.833485 
L 90.061788 308.145983 
L 91.339684 304.372588 
L 92.647345 300.5113 
L 93.985465 296.56007 
L 95.354755 292.516805 
L 96.755939 288.37936 
L 98.189761 284.145542 
L 99.656981 279.813105 
L 101.158377 275.379752 
L 102.694745 271.746254 
L 104.2669 268.380875 
L 105.875674 264.937106 
L 107.521922 261.62034 
L 109.206516 259.020701 
L 110.930349 256.360509 
L 112.694336 253.638353 
L 114.499411 251.067624 
L 116.346531 248.726889 
L 118.236677 246.331631 
L 120.17085 243.929169 
L 122.150075 241.981277 
L 124.175402 239.988013 
L 126.247906 237.94832 
L 128.368684 236.264888 
L 130.538861 234.548095 
L 132.759589 232.823015 
L 135.032044 231.378889 
L 137.357431 229.901124 
L 139.736983 228.517565 
L 142.171962 227.317067 
L 144.663659 226.088607 
L 147.213395 224.985129 
L 149.822522 223.889526 
L 152.492424 222.855138 
L 155.224515 221.923007 
L 158.020245 220.986279 
L 160.881096 220.149655 
L 163.808585 219.293544 
L 166.804264 218.529956 
L 169.869721 217.754175 
L 173.006582 217.022879 
L 176.21651 216.282745 
L 179.501206 215.575937 
L 182.862413 214.85793 
L 186.301912 214.135786 
L 189.821528 213.405379 
L 193.423126 212.689712 
L 197.108616 211.947422 
L 200.879952 211.176817 
L 204.739134 210.405818 
L 208.688208 209.616647 
L 212.729267 208.790929 
L 216.864455 207.956064 
L 221.095964 207.106089 
L 225.426037 206.229433 
L 229.856971 205.332357 
L 234.391114 204.416976 
L 239.030871 203.48632 
L 243.778702 202.525566 
L 248.637124 201.530426 
L 253.608714 200.472166 
L 258.696106 199.326667 
L 263.901999 198.145827 
L 269.229153 196.946534 
L 274.680392 195.70526 
L 280.258607 194.404754 
L 285.966756 193.056487 
L 291.807864 191.672514 
L 297.785029 190.245763 
L 303.90142 188.778137 
L 310.16028 187.283117 
L 316.564927 185.759438 
L 323.118758 184.170413 
L 329.825248 182.541001 
L 336.687952 180.881432 
L 343.710508 179.207895 
L 350.896641 177.454133 
L 358.25016 175.678326 
L 365.774965 173.849212 
L 373.475045 171.992795 
L 381.354483 170.087373 
L 389.417457 168.120446 
L 397.668242 166.134915 
L 406.111212 164.099925 
L 414.750844 162.004544 
L 423.591718 159.865988 
L 432.638524 157.687627 
L 441.896056 155.445938 
L 451.369224 153.153888 
L 461.063051 150.820419 
L 470.982676 148.437623 
L 481.133358 146.123395 
L 491.52048 143.751965 
L 502.14955 141.367218 
L 513.026202 138.864743 
L 524.156204 136.404509 
L 535.545457 133.923451 
L 547.2 131.380732 
" clip-path="url(#p8430e29543)" style="fill: none; stroke-dasharray: 7.4,3.2; stroke-dashoffset: 0; stroke: #0000ff; stroke-width: 2"/>
   </g>
   <g id="line2d_12">
    <path d="M 86.4 325.158863 
L 87.592601 321.78175 
L 88.812982 318.325973 
L 90.061788 314.7897 
L 91.339684 311.171058 
L 92.647345 307.468126 
L 93.985465 303.678942 
L 95.354755 299.801496 
L 96.755939 295.833734 
L 98.189761 291.77355 
L 99.656981 287.618792 
L 101.158377 283.367258 
L 102.694745 279.752731 
L 104.2669 276.341503 
L 105.875674 273.104268 
L 107.521922 270.004119 
L 109.206516 267.479177 
L 110.930349 264.895423 
L 112.694336 262.342001 
L 114.499411 259.918287 
L 116.346531 257.674364 
L 118.236677 255.378174 
L 120.17085 253.068097 
L 122.150075 251.20424 
L 124.175402 249.310937 
L 126.247906 247.373532 
L 128.368684 245.720072 
L 130.538861 244.032866 
L 132.759589 242.378988 
L 135.032044 240.985484 
L 137.357431 239.55952 
L 139.736983 238.205172 
L 142.171962 236.994737 
L 144.663659 235.843312 
L 147.213395 234.815453 
L 149.822522 233.791017 
L 152.492424 232.813408 
L 155.224515 231.929782 
L 158.020245 231.055226 
L 160.881096 230.259667 
L 163.808585 229.445577 
L 166.804264 228.704182 
L 169.869721 227.95101 
L 173.006582 227.235278 
L 176.21651 226.509554 
L 179.501206 225.808137 
L 182.862413 225.111915 
L 186.301912 224.426485 
L 189.821528 223.732064 
L 193.423126 223.047596 
L 197.108616 222.341636 
L 200.879952 221.610247 
L 204.739134 220.87613 
L 208.688208 220.121148 
L 212.729267 219.333455 
L 216.864455 218.535636 
L 221.095964 217.741496 
L 225.426037 216.923951 
L 229.856971 216.080689 
L 234.391114 215.192497 
L 239.030871 214.288545 
L 243.778702 213.342707 
L 248.637124 212.355512 
L 253.608714 211.318446 
L 258.696106 210.240592 
L 263.901999 209.130575 
L 269.229153 207.964682 
L 274.680392 206.751911 
L 280.258607 205.512573 
L 285.966756 204.246775 
L 291.807864 202.931692 
L 297.785029 201.562039 
L 303.90142 200.157927 
L 310.16028 198.730123 
L 316.564927 197.239952 
L 323.118758 195.668031 
L 329.825248 194.111894 
L 336.687952 192.541864 
L 343.710508 190.908082 
L 350.896641 189.213866 
L 358.25016 187.519369 
L 365.774965 185.780056 
L 373.475045 184.009492 
L 381.354483 182.157619 
L 389.417457 180.268353 
L 397.668242 178.369724 
L 406.111212 176.424255 
L 414.750844 174.431312 
L 423.591718 172.371508 
L 432.638524 170.256773 
L 441.896056 168.111795 
L 451.369224 165.961567 
L 461.063051 163.711978 
L 470.982676 161.410219 
L 481.133358 159.201379 
L 491.52048 156.950324 
L 502.14955 154.617651 
L 513.026202 152.26862 
L 524.156204 149.881992 
L 535.545457 147.523056 
L 547.2 145.103728 
" clip-path="url(#p8430e29543)" style="fill: none; stroke: #ff0000; stroke-width: 2; stroke-linecap: square"/>
   </g>
   <g id="line2d_13">
    <defs>
     <path id="md314248ad2" d="M 0 4.5 
C 1.193414 4.5 2.338109 4.025852 3.181981 3.181981 
C 4.025852 2.338109 4.5 1.193414 4.5 0 
C 4.5 -1.193414 4.025852 -2.338109 3.181981 -3.181981 
C 2.338109 -4.025852 1.193414 -4.5 0 -4.5 
C -1.193414 -4.5 -2.338109 -4.025852 -3.181981 -3.181981 
C -4.025852 -2.338109 -4.5 -1.193414 -4.5 0 
C -4.5 1.193414 -4.025852 2.338109 -3.181981 3.181981 
C -2.338109 4.025852 -1.193414 4.5 0 4.5 
z
" style="stroke: #00bfbf"/>
    </defs>
    <g clip-path="url(#p8430e29543)">
     <use xlink:href="#md314248ad2" x="311.740345" y="168.451339" style="fill: #00bfbf; stroke: #00bfbf"/>
     <use xlink:href="#md314248ad2" x="526.89175" y="149.921334" style="fill: #00bfbf; stroke: #00bfbf"/>
     <use xlink:href="#md314248ad2" x="836.737625" y="168.451339" style="fill: #00bfbf; stroke: #00bfbf"/>
    </g>
   </g>
   <g id="line2d_14">
    <defs>
     <path id="m19f8b5d614" d="M 0 4.5 
C 1.193414 4.5 2.338109 4.025852 3.181981 3.181981 
C 4.025852 2.338109 4.5 1.193414 4.5 0 
C 4.5 -1.193414 4.025852 -2.338109 3.181981 -3.181981 
C 2.338109 -4.025852 1.193414 -4.5 0 -4.5 
C -1.193414 -4.5 -2.338109 -4.025852 -3.181981 -3.181981 
C -4.025852 -2.338109 -4.5 -1.193414 -4.5 0 
C -4.5 1.193414 -4.025852 2.338109 -3.181981 3.181981 
C -2.338109 4.025852 -1.193414 4.5 0 4.5 
z
" style="stroke: #bfbf00"/>
    </defs>
    <g clip-path="url(#p8430e29543)">
     <use xlink:href="#m19f8b5d614" x="393.553581" y="100.121947" style="fill: #bfbf00; stroke: #bfbf00"/>
    </g>
   </g>
   <g id="patch_3">
    <path d="M 86.4 367.2 
L 86.4 43.2 
" style="fill: none; stroke: #000000; stroke-width: 0.8; stroke-linejoin: miter; stroke-linecap: square"/>
   </g>
   <g id="patch_4">
    <path d="M 547.2 367.2 
L 547.2 43.2 
" style="fill: none; stroke: #000000; stroke-width: 0.8; stroke-linejoin: miter; stroke-linecap: square"/>
   </g>
   <g id="patch_5">
    <path d="M 86.4 367.2 
L 547.2 367.2 
" style="fill: none; stroke: #000000; stroke-width: 0.8; stroke-linejoin: miter; stroke-linecap: square"/>
   </g>
   <g id="patch_6">
    <path d="M 86.4 43.2 
L 547.2 43.2 
" style="fill: none; stroke: #000000; stroke-width: 0.8; stroke-linejoin: miter; stroke-linecap: square"/>
   </g>
   <g id="legend_1">
    <g id="patch_7">
     <path d="M 96.9 143.437625 
L 319.001392 143.437625 
Q 322.001392 143.437625 322.001392 140.437625 
L 322.001392 53.7 
Q 322.001392 50.7 319.001392 50.7 
L 96.9 50.7 
Q 93.9 50.7 93.9 53.7 
L 93.9 140.437625 
Q 93.9 143.437625 96.9 143.437625 
z
" style="fill: #ffffff; opacity: 0.8; stroke: #cccccc; stroke-linejoin: miter"/>
    </g>
    <g id="line2d_15">
     <path d="M 99.9 62.65797 
L 114.9 62.65797 
L 129.9 62.65797 
" style="fill: none; stroke-dasharray: 7.4,3.2; stroke-dashoffset: 0; stroke: #0000ff; stroke-width: 2"/>
    </g>
    <g id="text_12">
     <!-- $\mathrm{XENON1T\ (2020)}$ -->
     <g transform="translate(141.9 67.90797)scale(0.15 -0.15)">
      <defs>
       <path id="CMR17-58" d="M 2336 2414 
L 3283 3771 
C 3379 3905 3571 4178 4096 4185 
L 4096 4352 
C 3949 4339 3706 4339 3552 4339 
C 3341 4339 3078 4339 2918 4352 
L 2918 4185 
C 3123 4166 3174 4038 3174 3936 
C 3174 3860 3142 3809 3098 3745 
L 2253 2529 
L 1306 3905 
C 1261 3975 1254 3994 1254 4013 
C 1254 4070 1325 4178 1536 4185 
L 1536 4352 
C 1331 4339 1018 4339 806 4339 
C 640 4339 320 4339 166 4352 
L 166 4185 
C 518 4185 634 4172 774 3975 
L 2010 2179 
L 896 567 
C 621 172 205 166 83 166 
L 83 0 
C 230 12 474 12 627 12 
C 800 12 1101 12 1261 0 
L 1261 166 
C 1062 185 1005 312 1005 414 
C 1005 497 1037 542 1069 586 
L 2093 2064 
L 3206 446 
C 3258 376 3258 357 3258 338 
C 3258 287 3200 179 2976 166 
L 2976 0 
C 3181 12 3494 12 3706 12 
C 3872 12 4192 12 4346 0 
L 4346 166 
C 3936 166 3872 198 3744 376 
L 2336 2414 
z
" transform="scale(0.015625)"/>
       <path id="CMR17-45" d="M 3885 1614 
L 3770 1614 
C 3629 676 3546 166 2419 166 
L 1530 166 
C 1274 166 1261 198 1261 415 
L 1261 2176 
L 1862 2176 
C 2464 2176 2522 1959 2522 1429 
L 2637 1429 
L 2637 3086 
L 2522 3086 
C 2522 2558 2464 2342 1862 2342 
L 1261 2342 
L 1261 3924 
C 1261 4141 1274 4172 1530 4172 
L 2406 4172 
C 3398 4172 3514 3778 3603 2933 
L 3718 2933 
L 3565 4339 
L 326 4339 
L 326 4172 
C 768 4172 838 4172 838 3886 
L 838 453 
C 838 166 768 166 326 166 
L 326 0 
L 3654 0 
L 3885 1614 
z
" transform="scale(0.015625)"/>
       <path id="CMR17-4f" d="M 4307 2166 
C 4307 3488 3366 4480 2304 4480 
C 1216 4480 294 3475 294 2166 
C 294 857 1229 -128 2298 -128 
C 3392 -128 4307 876 4307 2166 
z
M 2304 -13 
C 1574 -13 781 722 781 2250 
C 781 3771 1651 4364 2298 4364 
C 2976 4364 3821 3752 3821 2250 
C 3821 696 3008 -13 2304 -13 
z
" transform="scale(0.015625)"/>
       <path id="CMR17-54" d="M 3981 4332 
L 288 4332 
L 179 2924 
L 294 2924 
C 378 3981 467 4166 1453 4166 
C 1568 4166 1754 4166 1805 4159 
C 1926 4140 1926 4064 1926 3917 
L 1926 465 
C 1926 236 1907 166 1376 166 
L 1197 166 
L 1197 0 
C 1504 6 1824 12 2138 12 
C 2451 12 2771 6 3078 0 
L 3078 166 
L 2899 166 
C 2368 166 2349 236 2349 465 
L 2349 3917 
C 2349 4057 2349 4134 2464 4159 
C 2515 4166 2701 4166 2816 4166 
C 3795 4166 3891 3981 3974 2924 
L 4090 2924 
L 3981 4332 
z
" transform="scale(0.015625)"/>
       <path id="CMR17-28" d="M 1958 -1562 
C 1958 -1556 1958 -1543 1939 -1524 
C 1645 -1223 858 -403 858 1596 
C 858 3595 1632 4408 1946 4729 
C 1946 4735 1958 4748 1958 4767 
C 1958 4787 1939 4800 1914 4800 
C 1843 4800 1299 4325 986 3620 
C 666 2909 576 2218 576 1603 
C 576 1141 621 360 1005 -467 
C 1312 -1133 1837 -1600 1914 -1600 
C 1946 -1600 1958 -1588 1958 -1562 
z
" transform="scale(0.015625)"/>
       <path id="CMR17-29" d="M 1683 1596 
C 1683 2057 1638 2839 1254 3665 
C 947 4332 422 4800 346 4800 
C 326 4800 301 4793 301 4761 
C 301 4748 307 4742 314 4729 
C 621 4408 1402 3595 1402 1603 
C 1402 -396 627 -1210 314 -1530 
C 307 -1543 301 -1549 301 -1562 
C 301 -1594 326 -1600 346 -1600 
C 416 -1600 960 -1127 1274 -422 
C 1594 289 1683 981 1683 1596 
z
" transform="scale(0.015625)"/>
      </defs>
      <use xlink:href="#CMR17-58" transform="scale(0.996264)"/>
      <use xlink:href="#CMR17-45" transform="translate(69.07243 0)scale(0.996264)"/>
      <use xlink:href="#CMR17-4e" transform="translate(131.65873 0)scale(0.996264)"/>
      <use xlink:href="#CMR17-4f" transform="translate(200.73116 0)scale(0.996264)"/>
      <use xlink:href="#CMR17-4e" transform="translate(272.445949 0)scale(0.996264)"/>
      <use xlink:href="#CMR17-31" transform="translate(341.518378 0)scale(0.996264)"/>
      <use xlink:href="#CMR17-54" transform="translate(387.208855 0)scale(0.996264)"/>
      <use xlink:href="#CMR17-28" transform="translate(484.947849 0)scale(0.996264)"/>
      <use xlink:href="#CMR17-32" transform="translate(520.228617 0)scale(0.996264)"/>
      <use xlink:href="#CMR17-30" transform="translate(565.919094 0)scale(0.996264)"/>
      <use xlink:href="#CMR17-32" transform="translate(611.609571 0)scale(0.996264)"/>
      <use xlink:href="#CMR17-30" transform="translate(657.300048 0)scale(0.996264)"/>
      <use xlink:href="#CMR17-29" transform="translate(702.990525 0)scale(0.996264)"/>
     </g>
    </g>
    <g id="line2d_16">
     <path d="M 99.9 84.39396 
L 114.9 84.39396 
L 129.9 84.39396 
" style="fill: none; stroke: #ff0000; stroke-width: 2; stroke-linecap: square"/>
    </g>
    <g id="text_13">
     <!-- $\mathrm{RELICS}$ -->
     <g transform="translate(141.9 89.64396)scale(0.15 -0.15)">
      <defs>
       <path id="CMR17-52" d="M 2509 2156 
C 3117 2278 3629 2689 3629 3203 
C 3629 3806 2950 4352 2054 4352 
L 333 4352 
L 333 4185 
C 774 4185 845 4185 845 3896 
L 845 428 
C 845 140 774 140 333 140 
L 333 -26 
C 518 -13 851 -13 1050 -13 
C 1248 -13 1581 -13 1766 -26 
L 1766 140 
C 1325 140 1254 140 1254 428 
L 1254 2112 
L 2003 2112 
C 2368 2112 2573 1964 2662 1881 
C 2918 1632 2918 1459 2918 1024 
C 2918 595 2918 377 3110 160 
C 3354 -103 3680 -128 3821 -128 
C 4294 -128 4365 403 4365 512 
C 4365 550 4365 595 4307 595 
C 4256 595 4250 556 4250 531 
C 4218 115 4032 -26 3834 -26 
C 3482 -26 3443 377 3405 768 
C 3386 902 3373 998 3360 1139 
C 3322 1459 3270 1926 2509 2156 
z
M 1984 2214 
L 1254 2214 
L 1254 3935 
C 1254 4153 1267 4185 1523 4185 
L 1990 4185 
C 2522 4185 3142 3999 3142 3203 
C 3142 2374 2464 2214 1984 2214 
z
" transform="scale(0.015625)"/>
       <path id="CMR17-4c" d="M 3469 1612 
L 3354 1612 
C 3302 981 3219 166 2125 166 
L 1530 166 
C 1274 166 1261 198 1261 414 
L 1261 3892 
C 1261 4121 1274 4185 1760 4185 
L 1901 4185 
L 1901 4352 
C 1638 4339 1331 4339 1069 4339 
C 870 4339 512 4339 326 4352 
L 326 4185 
C 768 4185 838 4185 838 3898 
L 838 453 
C 838 166 768 166 326 166 
L 326 0 
L 3315 0 
L 3469 1612 
z
" transform="scale(0.015625)"/>
       <path id="CMR17-49" d="M 1261 3898 
C 1261 4185 1338 4185 1798 4185 
L 1798 4352 
C 1594 4339 1267 4339 1050 4339 
C 832 4339 506 4339 301 4352 
L 301 4185 
C 762 4185 838 4185 838 3898 
L 838 453 
C 838 166 762 166 301 166 
L 301 0 
C 506 12 832 12 1050 12 
C 1267 12 1594 12 1798 0 
L 1798 166 
C 1338 166 1261 166 1261 453 
L 1261 3898 
z
" transform="scale(0.015625)"/>
       <path id="CMR17-43" d="M 3974 4351 
C 3974 4467 3968 4473 3930 4473 
C 3904 4473 3898 4467 3853 4390 
L 3571 3849 
C 3258 4249 2874 4480 2381 4480 
C 1286 4480 294 3507 294 2179 
C 294 837 1286 -128 2387 -128 
C 3366 -128 3974 741 3974 1482 
C 3974 1547 3974 1573 3917 1573 
C 3866 1573 3866 1553 3859 1495 
C 3808 592 3168 38 2477 38 
C 1824 38 781 502 781 2179 
C 781 3862 1843 4313 2464 4313 
C 3187 4313 3712 3681 3834 2785 
C 3846 2707 3846 2695 3904 2695 
C 3974 2695 3974 2707 3974 2824 
L 3974 4351 
z
" transform="scale(0.015625)"/>
       <path id="CMR17-53" d="M 2803 4351 
C 2803 4467 2797 4473 2758 4473 
C 2720 4473 2707 4447 2682 4390 
L 2490 3965 
C 2246 4320 1875 4480 1472 4480 
C 819 4480 294 3958 294 3301 
C 294 3101 339 2817 557 2546 
C 794 2250 1018 2198 1530 2063 
C 1722 2011 2042 1927 2106 1901 
C 2470 1747 2662 1360 2662 999 
C 2662 534 2336 38 1779 38 
C 1094 38 454 425 410 1328 
C 403 1431 397 1437 352 1437 
C 301 1437 294 1431 294 1302 
L 294 0 
C 294 -116 301 -122 339 -122 
C 384 -122 397 -90 486 109 
C 493 128 493 141 614 386 
C 934 -39 1472 -128 1779 -128 
C 2477 -128 2970 457 2970 1141 
C 2970 1476 2848 1734 2778 1850 
C 2509 2263 2221 2340 1914 2417 
C 1869 2437 1856 2437 1498 2527 
C 1152 2617 1005 2662 845 2836 
C 666 3036 602 3243 602 3449 
C 602 3868 934 4326 1478 4326 
C 2157 4326 2579 3842 2675 3036 
C 2694 2920 2701 2914 2746 2914 
C 2803 2914 2803 2933 2803 3043 
L 2803 4351 
z
" transform="scale(0.015625)"/>
      </defs>
      <use xlink:href="#CMR17-52" transform="scale(0.996264)"/>
      <use xlink:href="#CMR17-45" transform="translate(67.791102 0)scale(0.996264)"/>
      <use xlink:href="#CMR17-4c" transform="translate(130.377402 0)scale(0.996264)"/>
      <use xlink:href="#CMR17-49" transform="translate(187.75881 0)scale(0.996264)"/>
      <use xlink:href="#CMR17-43" transform="translate(220.39722 0)scale(0.996264)"/>
      <use xlink:href="#CMR17-53" transform="translate(286.9071 0)scale(0.996264)"/>
     </g>
    </g>
    <g id="LineCollection_5">
     <path d="M 107.4 106.007675 
L 122.4 106.007675 
" style="fill: none; stroke: #00bfbf; stroke-width: 2"/>
    </g>
    <g id="LineCollection_6">
     <path d="M 114.9 113.507675 
L 114.9 98.507675 
" style="fill: none; stroke: #00bfbf; stroke-width: 2"/>
    </g>
    <g id="line2d_17"/>
    <g id="line2d_18">
     <g>
      <use xlink:href="#md314248ad2" x="114.9" y="106.007675" style="fill: #00bfbf; stroke: #00bfbf"/>
     </g>
    </g>
    <g id="text_14">
     <!-- $\mathrm{LUX\ (2016),180\si{V/cm}}$ -->
     <g transform="translate(141.9 111.257675)scale(0.15 -0.15)">
      <defs>
       <path id="CMR17-55" d="M 3456 1442 
C 3456 583 2899 38 2291 38 
C 1965 38 1670 211 1491 480 
C 1286 788 1261 1185 1261 1410 
L 1261 3897 
C 1261 4185 1331 4185 1773 4185 
L 1773 4352 
C 1587 4339 1248 4339 1050 4339 
C 851 4339 512 4339 326 4352 
L 326 4185 
C 768 4185 838 4185 838 3897 
L 838 1442 
C 838 519 1536 -128 2278 -128 
C 3110 -128 3590 724 3590 1352 
L 3590 3788 
C 3590 4147 3917 4185 4102 4185 
L 4102 4352 
C 3955 4339 3686 4339 3526 4339 
C 3366 4339 3091 4339 2944 4352 
L 2944 4185 
C 3456 4185 3456 3884 3456 3724 
L 3456 1442 
z
" transform="scale(0.015625)"/>
       <path id="CMMI12-3b" d="M 1248 -26 
C 1248 345 1126 620 864 620 
C 659 620 557 454 557 313 
C 557 172 653 0 870 0 
C 954 0 1024 25 1082 83 
C 1094 96 1101 96 1107 96 
C 1120 96 1120 6 1120 -26 
C 1120 -233 1082 -642 710 -1051 
C 640 -1127 640 -1140 640 -1152 
C 640 -1184 672 -1216 704 -1216 
C 755 -1216 1248 -749 1248 -26 
z
" transform="scale(0.015625)"/>
       <path id="CMR17-38" d="M 1741 2289 
C 2144 2494 2554 2803 2554 3298 
C 2554 3884 1990 4224 1472 4224 
C 890 4224 378 3800 378 3215 
C 378 3054 416 2777 666 2533 
C 730 2469 998 2276 1171 2154 
C 883 2006 211 1652 211 945 
C 211 282 838 -128 1459 -128 
C 2144 -128 2720 366 2720 1022 
C 2720 1607 2330 1877 2074 2051 
L 1741 2289 
z
M 902 2855 
C 851 2887 595 3086 595 3388 
C 595 3781 998 4076 1459 4076 
C 1965 4076 2336 3716 2336 3298 
C 2336 2700 1670 2359 1638 2359 
C 1632 2359 1626 2359 1574 2398 
L 902 2855 
z
M 2080 1536 
C 2176 1466 2483 1253 2483 861 
C 2483 385 2010 25 1472 25 
C 890 25 448 443 448 951 
C 448 1459 838 1884 1280 2083 
L 2080 1536 
z
" transform="scale(0.015625)"/>
       <path id="CMMI12-3d" d="M 2746 4563 
C 2746 4569 2784 4665 2784 4678 
C 2784 4755 2720 4800 2669 4800 
C 2637 4800 2579 4800 2528 4659 
L 384 -1364 
C 384 -1370 346 -1466 346 -1479 
C 346 -1556 410 -1600 461 -1600 
C 499 -1600 557 -1594 602 -1460 
L 2746 4563 
z
" transform="scale(0.015625)"/>
       <path id="CMSS17-63" d="M 2464 2540 
C 2464 2585 2170 2713 2093 2739 
C 1882 2816 1613 2816 1542 2816 
C 710 2816 211 2092 211 1363 
C 211 595 768 -64 1517 -64 
C 1946 -64 2253 76 2502 243 
L 2464 665 
C 2189 454 1869 339 1523 339 
C 1024 339 698 774 698 1369 
C 698 1830 909 2412 1549 2412 
C 1901 2412 2099 2342 2394 2143 
L 2464 2540 
z
" transform="scale(0.015625)"/>
       <path id="CMSS17-6d" d="M 4288 1878 
C 4288 2309 4179 2816 3462 2816 
C 2982 2816 2694 2515 2566 2328 
C 2451 2668 2182 2816 1798 2816 
C 1363 2816 1088 2566 941 2386 
L 941 2783 
L 474 2783 
L 474 0 
L 960 0 
L 960 1556 
C 960 1936 1101 2425 1555 2425 
C 2138 2425 2138 2013 2138 1826 
L 2138 0 
L 2624 0 
L 2624 1556 
C 2624 1936 2765 2425 3219 2425 
C 3802 2425 3802 2013 3802 1826 
L 3802 0 
L 4288 0 
L 4288 1878 
z
" transform="scale(0.015625)"/>
      </defs>
      <use xlink:href="#CMR17-4c" transform="scale(0.996264)"/>
      <use xlink:href="#CMR17-55" transform="translate(57.381408 0)scale(0.996264)"/>
      <use xlink:href="#CMR17-58" transform="translate(126.453838 0)scale(0.996264)"/>
      <use xlink:href="#CMR17-28" transform="translate(226.75538 0)scale(0.996264)"/>
      <use xlink:href="#CMR17-32" transform="translate(262.036148 0)scale(0.996264)"/>
      <use xlink:href="#CMR17-30" transform="translate(307.726625 0)scale(0.996264)"/>
      <use xlink:href="#CMR17-31" transform="translate(353.417102 0)scale(0.996264)"/>
      <use xlink:href="#CMR17-36" transform="translate(399.107579 0)scale(0.996264)"/>
      <use xlink:href="#CMR17-29" transform="translate(444.798056 0)scale(0.996264)"/>
      <use xlink:href="#CMMI12-3b" transform="translate(480.078824 0)scale(0.996264)"/>
      <use xlink:href="#CMR17-31" transform="translate(523.780407 0)scale(0.996264)"/>
      <use xlink:href="#CMR17-38" transform="translate(569.470884 0)scale(0.996264)"/>
      <use xlink:href="#CMR17-30" transform="translate(615.161361 0)scale(0.996264)"/>
      <use xlink:href="#CMSS17-56" transform="translate(660.851838 0)scale(0.996264)"/>
      <use xlink:href="#CMMI12-3d" transform="translate(724.370859 0)scale(0.996264)"/>
      <use xlink:href="#CMSS17-63" transform="translate(773.145778 0)scale(0.996264)"/>
      <use xlink:href="#CMSS17-6d" transform="translate(814.7846 0)scale(0.996264)"/>
     </g>
    </g>
    <g id="LineCollection_7">
     <path d="M 107.4 128.451635 
L 122.4 128.451635 
" style="fill: none; stroke: #bfbf00; stroke-width: 2"/>
    </g>
    <g id="LineCollection_8">
     <path d="M 114.9 135.951635 
L 114.9 120.951635 
" style="fill: none; stroke: #bfbf00; stroke-width: 2"/>
    </g>
    <g id="line2d_19">
     <defs>
      <path id="me4cf757a7d" d="M 0 4.5 
L 0 -4.5 
" style="stroke: #bfbf00"/>
     </defs>
     <g>
      <use xlink:href="#me4cf757a7d" x="107.4" y="128.451635" style="fill: #bfbf00; stroke: #bfbf00"/>
     </g>
    </g>
    <g id="line2d_20">
     <g>
      <use xlink:href="#me4cf757a7d" x="122.4" y="128.451635" style="fill: #bfbf00; stroke: #bfbf00"/>
     </g>
    </g>
    <g id="line2d_21">
     <defs>
      <path id="m472f20a9d9" d="M 4.5 0 
L -4.5 -0 
" style="stroke: #bfbf00"/>
     </defs>
     <g>
      <use xlink:href="#m472f20a9d9" x="114.9" y="135.951635" style="fill: #bfbf00; stroke: #bfbf00"/>
     </g>
    </g>
    <g id="line2d_22">
     <g>
      <use xlink:href="#m472f20a9d9" x="114.9" y="120.951635" style="fill: #bfbf00; stroke: #bfbf00"/>
     </g>
    </g>
    <g id="line2d_23"/>
    <g id="line2d_24">
     <g>
      <use xlink:href="#m19f8b5d614" x="114.9" y="128.451635" style="fill: #bfbf00; stroke: #bfbf00"/>
     </g>
    </g>
    <g id="text_15">
     <!-- $\mathrm{XENON1T\ (2020),81\si{V/cm}}$ -->
     <g transform="translate(141.9 133.701635)scale(0.15 -0.15)">
      <use xlink:href="#CMR17-58" transform="scale(0.996264)"/>
      <use xlink:href="#CMR17-45" transform="translate(69.07243 0)scale(0.996264)"/>
      <use xlink:href="#CMR17-4e" transform="translate(131.65873 0)scale(0.996264)"/>
      <use xlink:href="#CMR17-4f" transform="translate(200.73116 0)scale(0.996264)"/>
      <use xlink:href="#CMR17-4e" transform="translate(272.445949 0)scale(0.996264)"/>
      <use xlink:href="#CMR17-31" transform="translate(341.518378 0)scale(0.996264)"/>
      <use xlink:href="#CMR17-54" transform="translate(387.208855 0)scale(0.996264)"/>
      <use xlink:href="#CMR17-28" transform="translate(484.947849 0)scale(0.996264)"/>
      <use xlink:href="#CMR17-32" transform="translate(520.228617 0)scale(0.996264)"/>
      <use xlink:href="#CMR17-30" transform="translate(565.919094 0)scale(0.996264)"/>
      <use xlink:href="#CMR17-32" transform="translate(611.609571 0)scale(0.996264)"/>
      <use xlink:href="#CMR17-30" transform="translate(657.300048 0)scale(0.996264)"/>
      <use xlink:href="#CMR17-29" transform="translate(702.990525 0)scale(0.996264)"/>
      <use xlink:href="#CMMI12-3b" transform="translate(738.271293 0)scale(0.996264)"/>
      <use xlink:href="#CMR17-38" transform="translate(781.972875 0)scale(0.996264)"/>
      <use xlink:href="#CMR17-31" transform="translate(827.663352 0)scale(0.996264)"/>
      <use xlink:href="#CMSS17-56" transform="translate(873.353829 0)scale(0.996264)"/>
      <use xlink:href="#CMMI12-3d" transform="translate(936.87285 0)scale(0.996264)"/>
      <use xlink:href="#CMSS17-63" transform="translate(985.647769 0)scale(0.996264)"/>
      <use xlink:href="#CMSS17-6d" transform="translate(1027.286591 0)scale(0.996264)"/>
     </g>
    </g>
   </g>
  </g>
  <g id="axes_2">
   <g id="patch_8">
    <path d="M 403.2 324 
L 518.4 324 
L 518.4 237.6 
L 403.2 237.6 
L 403.2 324 
z
" style="fill: none"/>
   </g>
   <g id="PolyCollection_3">
    <defs>
     <path id="mc0f76dcefe" d="M 465.56931 -108 
L 445.374413 -108 
L 445.374413 -129.6 
L 445.374413 -151.2 
L 445.374413 -172.8 
L 445.374413 -194.4 
L 445.374413 -216 
L 445.374413 -237.6 
L 445.374413 -259.2 
L 445.374413 -280.8 
L 445.374413 -302.4 
L 465.56931 -302.4 
L 465.56931 -302.4 
L 465.56931 -280.8 
L 465.56931 -259.2 
L 465.56931 -237.6 
L 465.56931 -216 
L 465.56931 -194.4 
L 465.56931 -172.8 
L 465.56931 -151.2 
L 465.56931 -129.6 
L 465.56931 -108 
z
" style="stroke: #ff0000; stroke-opacity: 0.5"/>
    </defs>
    <g clip-path="url(#p3f75138ab0)">
     <use xlink:href="#mc0f76dcefe" x="0" y="432" style="fill: #ff0000; fill-opacity: 0.5; stroke: #ff0000; stroke-opacity: 0.5"/>
    </g>
   </g>
   <g id="matplotlib.axis_3">
    <g id="xtick_5">
     <g id="line2d_25">
      <g>
       <use xlink:href="#mb998a44157" x="403.2" y="324" style="stroke: #000000; stroke-width: 0.8"/>
      </g>
     </g>
     <g id="text_16">
      <!-- $\mathdefault{-2}$ -->
      <g transform="translate(396.834961 337.918498)scale(0.1 -0.1)">
       <use xlink:href="#CMSY10-0" transform="scale(0.996264)"/>
       <use xlink:href="#CMR17-32" transform="translate(77.487468 0)scale(0.996264)"/>
      </g>
     </g>
    </g>
    <g id="xtick_6">
     <g id="line2d_26">
      <g>
       <use xlink:href="#mb998a44157" x="460.8" y="324" style="stroke: #000000; stroke-width: 0.8"/>
      </g>
     </g>
     <g id="text_17">
      <!-- $\mathdefault{0}$ -->
      <g transform="translate(458.309332 337.918498)scale(0.1 -0.1)">
       <use xlink:href="#CMR17-30" transform="scale(0.996264)"/>
      </g>
     </g>
    </g>
    <g id="xtick_7">
     <g id="line2d_27">
      <g>
       <use xlink:href="#mb998a44157" x="518.4" y="324" style="stroke: #000000; stroke-width: 0.8"/>
      </g>
     </g>
     <g id="text_18">
      <!-- $\mathdefault{2}$ -->
      <g transform="translate(515.909332 337.918498)scale(0.1 -0.1)">
       <use xlink:href="#CMR17-32" transform="scale(0.996264)"/>
      </g>
     </g>
    </g>
    <g id="text_19">
     <!-- $\hat{L}_y/L_y-1$ -->
     <g transform="translate(428.393562 358.010892)scale(0.15 -0.15)">
      <defs>
       <path id="CMR17-5e" d="M 1466 4416 
L 678 3532 
L 755 3456 
L 1466 4159 
L 2176 3456 
L 2253 3532 
L 1466 4416 
z
" transform="scale(0.015625)"/>
      </defs>
      <use xlink:href="#CMR17-5e" transform="translate(13.049924 25.189733)scale(0.996264)"/>
      <use xlink:href="#CMMI12-4c" transform="scale(0.996264)"/>
      <use xlink:href="#CMMI12-79" transform="translate(66.370875 -14.943915)scale(0.697382)"/>
      <use xlink:href="#CMMI12-3d" transform="translate(102.665982 0)scale(0.996264)"/>
      <use xlink:href="#CMMI12-4c" transform="translate(151.440901 0)scale(0.996264)"/>
      <use xlink:href="#CMMI12-79" transform="translate(217.811776 -14.943915)scale(0.697382)"/>
      <use xlink:href="#CMSY10-0" transform="translate(276.24609 0)scale(0.996264)"/>
      <use xlink:href="#CMR17-31" transform="translate(375.872765 0)scale(0.996264)"/>
     </g>
    </g>
   </g>
   <g id="matplotlib.axis_4">
    <g id="ytick_6">
     <g id="line2d_28">
      <g>
       <use xlink:href="#me828f072e2" x="403.2" y="324" style="stroke: #000000; stroke-width: 0.8"/>
      </g>
     </g>
     <g id="text_20">
      <!-- $\mathdefault{0}$ -->
      <g transform="translate(391.218665 327.459249)scale(0.1 -0.1)">
       <use xlink:href="#CMR17-30" transform="scale(0.996264)"/>
      </g>
     </g>
    </g>
    <g id="ytick_7">
     <g id="line2d_29">
      <g>
       <use xlink:href="#me828f072e2" x="403.2" y="302.4" style="stroke: #000000; stroke-width: 0.8"/>
      </g>
     </g>
     <g id="text_21">
      <!-- $\mathdefault{1}$ -->
      <g transform="translate(391.218665 305.859249)scale(0.1 -0.1)">
       <use xlink:href="#CMR17-31" transform="scale(0.996264)"/>
      </g>
     </g>
    </g>
    <g id="ytick_8">
     <g id="line2d_30">
      <g>
       <use xlink:href="#me828f072e2" x="403.2" y="280.8" style="stroke: #000000; stroke-width: 0.8"/>
      </g>
     </g>
     <g id="text_22">
      <!-- $\mathdefault{2}$ -->
      <g transform="translate(391.218665 284.259249)scale(0.1 -0.1)">
       <use xlink:href="#CMR17-32" transform="scale(0.996264)"/>
      </g>
     </g>
    </g>
    <g id="ytick_9">
     <g id="line2d_31">
      <g>
       <use xlink:href="#me828f072e2" x="403.2" y="259.2" style="stroke: #000000; stroke-width: 0.8"/>
      </g>
     </g>
     <g id="text_23">
      <!-- $\mathdefault{3}$ -->
      <g transform="translate(391.218665 262.659249)scale(0.1 -0.1)">
       <use xlink:href="#CMR17-33" transform="scale(0.996264)"/>
      </g>
     </g>
    </g>
    <g id="ytick_10">
     <g id="line2d_32">
      <g>
       <use xlink:href="#me828f072e2" x="403.2" y="237.6" style="stroke: #000000; stroke-width: 0.8"/>
      </g>
     </g>
     <g id="text_24">
      <!-- $\mathdefault{4}$ -->
      <g transform="translate(391.218665 241.059249)scale(0.1 -0.1)">
       <use xlink:href="#CMR17-34" transform="scale(0.996264)"/>
      </g>
     </g>
    </g>
    <g id="text_25">
     <!-- $\Delta\chi^2$ -->
     <g transform="translate(384.31292 294.095517)rotate(-90)scale(0.15 -0.15)">
      <defs>
       <path id="CMR17-1" d="M 2598 4435 
C 2547 4544 2522 4544 2470 4544 
C 2394 4544 2387 4531 2342 4441 
L 269 108 
C 262 96 237 38 237 32 
C 237 6 243 0 358 0 
L 4576 0 
C 4691 0 4698 6 4698 32 
C 4698 38 4672 96 4666 108 
L 2598 4435 
z
M 2310 4056 
L 4083 358 
L 531 358 
L 2310 4056 
z
" transform="scale(0.015625)"/>
       <path id="CMMI12-1f" d="M 2112 1035 
C 1939 1562 1978 1511 1818 1956 
C 1619 2503 1568 2547 1478 2636 
C 1363 2739 1146 2816 922 2816 
C 563 2816 390 2484 390 2401 
C 390 2363 422 2344 461 2344 
C 512 2344 525 2376 531 2401 
C 627 2649 826 2687 883 2687 
C 1069 2687 1248 2230 1363 1925 
C 1517 1537 1594 1270 1766 653 
L 256 -1050 
C 198 -1120 198 -1146 198 -1152 
C 198 -1204 230 -1216 256 -1216 
C 282 -1216 301 -1204 320 -1184 
C 499 -1006 896 -535 1062 -345 
L 1805 494 
C 2118 -479 2118 -491 2214 -727 
C 2317 -968 2451 -1280 2995 -1280 
C 3360 -1280 3526 -955 3526 -866 
C 3526 -822 3488 -809 3456 -809 
C 3405 -809 3398 -835 3379 -886 
C 3309 -1064 3142 -1152 3040 -1152 
C 2957 -1152 2854 -1152 2573 -447 
C 2406 -21 2259 487 2150 882 
L 3667 2598 
C 3718 2655 3725 2662 3725 2687 
C 3725 2732 3693 2752 3661 2752 
C 3642 2752 3622 2752 3558 2681 
L 2112 1035 
z
" transform="scale(0.015625)"/>
      </defs>
      <use xlink:href="#CMR17-1" transform="scale(0.996264)"/>
      <use xlink:href="#CMMI12-1f" transform="translate(76.91959 0)scale(0.996264)"/>
      <use xlink:href="#CMR17-32" transform="translate(138.032549 36.153639)scale(0.697382)"/>
     </g>
    </g>
   </g>
   <g id="line2d_33">
    <path d="M 422.030158 -1 
L 424.439279 50.450565 
L 426.517034 90.330175 
L 428.59479 126.620665 
L 430.903407 162.601141 
L 432.750301 188.270149 
L 434.828056 214.163393 
L 436.67495 234.441503 
L 438.521844 252.47704 
L 440.368737 268.161823 
L 441.98477 280.170282 
L 443.600802 290.534754 
L 444.985972 298.248391 
L 446.371142 304.850869 
L 447.756313 310.41566 
L 448.910621 314.289344 
L 450.06493 317.473912 
L 451.219238 320.009763 
L 452.142685 321.575778 
L 453.066132 322.745053 
L 453.989579 323.530394 
L 454.682164 323.869161 
L 455.374749 324 
L 456.067335 323.927763 
L 456.75992 323.657653 
L 457.452505 323.187216 
L 458.375952 322.246706 
L 459.299399 320.977625 
L 460.453707 318.93982 
L 461.608016 316.401194 
L 462.993186 312.733895 
L 464.378357 308.42133 
L 465.994389 302.5746 
L 467.841283 294.923652 
L 469.688176 286.240549 
L 471.765932 275.367546 
L 474.074549 261.9757 
L 476.614028 245.76769 
L 479.384369 226.479014 
L 482.154709 205.663484 
L 485.386774 179.646285 
L 488.849699 149.914277 
L 492.774349 114.201366 
L 497.160721 72.127527 
L 501.777956 25.704774 
L 504.355813 -1 
L 504.355813 -1 
" clip-path="url(#p3f75138ab0)" style="fill: none; stroke: #ff0000; stroke-width: 2; stroke-linecap: square"/>
   </g>
   <g id="line2d_34">
    <path d="M 374.4 129.6 
L 378.72 148.554 
L 383.04 166.536 
L 387.36 183.546 
L 391.68 199.584 
L 396 214.65 
L 399.456 226.00296 
L 402.912 236.73384 
L 406.368 246.84264 
L 409.824 256.32936 
L 413.28 265.194 
L 416.736 273.43656 
L 420.192 281.05704 
L 423.648 288.05544 
L 427.104 294.43176 
L 429.696 298.80576 
L 432.288 302.82984 
L 434.88 306.504 
L 437.472 309.82824 
L 440.064 312.80256 
L 442.656 315.42696 
L 445.248 317.70144 
L 447.84 319.626 
L 450.432 321.20064 
L 453.024 322.42536 
L 455.616 323.30016 
L 457.344 323.68896 
L 459.072 323.92224 
L 460.8 324 
L 462.528 323.92224 
L 464.256 323.68896 
L 465.984 323.30016 
L 467.712 322.75584 
L 470.304 321.64776 
L 472.896 320.18976 
L 475.488 318.38184 
L 478.08 316.224 
L 480.672 313.71624 
L 483.264 310.85856 
L 485.856 307.65096 
L 488.448 304.09344 
L 491.04 300.186 
L 493.632 295.92864 
L 496.224 291.32136 
L 499.68 284.634 
L 503.136 277.32456 
L 506.592 269.39304 
L 510.048 260.83944 
L 513.504 251.66376 
L 516.96 241.866 
L 520.416 231.44616 
L 523.872 220.40424 
L 527.328 208.74024 
L 531.648 193.28544 
L 535.968 176.85864 
L 540.288 159.45984 
L 544.608 141.08904 
L 547.2 129.6 
L 547.2 129.6 
" clip-path="url(#p3f75138ab0)" style="fill: none; stroke-dasharray: 7.4,3.2; stroke-dashoffset: 0; stroke: #0000ff; stroke-width: 2"/>
   </g>
   <g id="LineCollection_9">
    <path d="M 455.471861 324 
L 455.471861 237.6 
" clip-path="url(#p3f75138ab0)" style="fill: none; stroke: #ff0000; stroke-width: 2"/>
   </g>
   <g id="patch_9">
    <path d="M 403.2 324 
L 403.2 237.6 
" style="fill: none; stroke: #000000; stroke-width: 0.8; stroke-linejoin: miter; stroke-linecap: square"/>
   </g>
   <g id="patch_10">
    <path d="M 518.4 324 
L 518.4 237.6 
" style="fill: none; stroke: #000000; stroke-width: 0.8; stroke-linejoin: miter; stroke-linecap: square"/>
   </g>
   <g id="patch_11">
    <path d="M 403.2 324 
L 518.4 324 
" style="fill: none; stroke: #000000; stroke-width: 0.8; stroke-linejoin: miter; stroke-linecap: square"/>
   </g>
   <g id="patch_12">
    <path d="M 403.2 237.6 
L 518.4 237.6 
" style="fill: none; stroke: #000000; stroke-width: 0.8; stroke-linejoin: miter; stroke-linecap: square"/>
   </g>
  </g>
 </g>
 <defs>
  <clipPath id="p8430e29543">
   <rect x="86.4" y="43.2" width="460.8" height="324"/>
  </clipPath>
  <clipPath id="p3f75138ab0">
   <rect x="403.2" y="237.6" width="115.2" height="86.4"/>
  </clipPath>
 </defs>
</svg>
