<?xml version="1.0" encoding="utf-8" standalone="no"?>
<!DOCTYPE svg PUBLIC "-//W3C//DTD SVG 1.1//EN"
  "http://www.w3.org/Graphics/SVG/1.1/DTD/svg11.dtd">
<svg xmlns:xlink="http://www.w3.org/1999/xlink" width="1152pt" height="432pt" viewBox="0 0 1152 432" xmlns="http://www.w3.org/2000/svg" version="1.1">
 <metadata>
  <rdf:RDF xmlns:dc="http://purl.org/dc/elements/1.1/" xmlns:cc="http://creativecommons.org/ns#" xmlns:rdf="http://www.w3.org/1999/02/22-rdf-syntax-ns#">
   <cc:Work>
    <dc:type rdf:resource="http://purl.org/dc/dcmitype/StillImage"/>
    <dc:date>2022-05-27T12:51:19.222917</dc:date>
    <dc:format>image/svg+xml</dc:format>
    <dc:creator>
     <cc:Agent>
      <dc:title>Matplotlib v3.5.1, https://matplotlib.org/</dc:title>
     </cc:Agent>
    </dc:creator>
   </cc:Work>
  </rdf:RDF>
 </metadata>
 <defs>
  <style type="text/css">*{stroke-linejoin: round; stroke-linecap: butt}</style>
 </defs>
 <g id="figure_1">
  <g id="patch_1">
   <path d="M 0 432 
L 1152 432 
L 1152 0 
L 0 0 
L 0 432 
z
" style="fill: none"/>
  </g>
  <g id="axes_1">
   <g id="patch_2">
    <path d="M 172.8 388.8 
L 548.452174 388.8 
L 548.452174 43.2 
L 172.8 43.2 
L 172.8 388.8 
z
" style="fill: none"/>
   </g>
   <g id="matplotlib.axis_1">
    <g id="xtick_1">
     <g id="line2d_1">
      <path d="M 172.8 388.8 
L 172.8 43.2 
" clip-path="url(#p44c9215d44)" style="fill: none; stroke: #b0b0b0; stroke-width: 0.8; stroke-linecap: square"/>
     </g>
     <g id="line2d_2">
      <defs>
       <path id="mbc0065ba0e" d="M 0 0 
L 0 3.5 
" style="stroke: #000000; stroke-width: 0.8"/>
      </defs>
      <g>
       <use xlink:href="#mbc0065ba0e" x="172.8" y="388.8" style="stroke: #000000; stroke-width: 0.8"/>
      </g>
     </g>
     <g id="text_1">
      <!-- $\mathdefault{0}$ -->
      <g transform="translate(168.230952 409.636997)scale(0.2 -0.2)">
       <defs>
        <path id="CMR17-30" d="M 2688 2038 
C 2688 2430 2682 3099 2413 3613 
C 2176 4063 1798 4224 1466 4224 
C 1158 4224 768 4082 525 3620 
C 269 3137 243 2539 243 2038 
C 243 1671 250 1112 448 623 
C 723 -39 1216 -128 1466 -128 
C 1760 -128 2208 -7 2470 604 
C 2662 1048 2688 1568 2688 2038 
z
M 1466 -26 
C 1056 -26 813 328 723 816 
C 653 1196 653 1749 653 2109 
C 653 2604 653 3015 736 3407 
C 858 3954 1216 4121 1466 4121 
C 1728 4121 2067 3947 2189 3420 
C 2272 3054 2278 2623 2278 2109 
C 2278 1691 2278 1176 2202 797 
C 2067 96 1690 -26 1466 -26 
z
" transform="scale(0.015625)"/>
       </defs>
       <use xlink:href="#CMR17-30" transform="scale(0.996264)"/>
      </g>
     </g>
    </g>
    <g id="xtick_2">
     <g id="line2d_3">
      <path d="M 247.930435 388.8 
L 247.930435 43.2 
" clip-path="url(#p44c9215d44)" style="fill: none; stroke: #b0b0b0; stroke-width: 0.8; stroke-linecap: square"/>
     </g>
     <g id="line2d_4">
      <g>
       <use xlink:href="#mbc0065ba0e" x="247.930435" y="388.8" style="stroke: #000000; stroke-width: 0.8"/>
      </g>
     </g>
     <g id="text_2">
      <!-- $\mathdefault{5000}$ -->
      <g transform="translate(229.654244 409.636997)scale(0.2 -0.2)">
       <defs>
        <path id="CMR17-35" d="M 730 3750 
C 794 3724 1056 3641 1325 3641 
C 1920 3641 2246 3961 2432 4140 
C 2432 4191 2432 4224 2394 4224 
C 2387 4224 2374 4224 2323 4198 
C 2099 4102 1837 4032 1517 4032 
C 1325 4032 1037 4055 723 4191 
C 653 4224 640 4224 634 4224 
C 602 4224 595 4217 595 4090 
L 595 2231 
C 595 2113 595 2080 659 2080 
C 691 2080 704 2093 736 2139 
C 941 2435 1222 2560 1542 2560 
C 1766 2560 2246 2415 2246 1293 
C 2246 1087 2246 716 2054 422 
C 1894 159 1645 25 1370 25 
C 947 25 518 319 403 812 
C 429 806 480 793 506 793 
C 589 793 749 838 749 1036 
C 749 1209 627 1280 506 1280 
C 358 1280 262 1190 262 1011 
C 262 454 704 -128 1382 -128 
C 2042 -128 2669 441 2669 1267 
C 2669 2054 2170 2662 1549 2662 
C 1222 2662 947 2540 730 2304 
L 730 3750 
z
" transform="scale(0.015625)"/>
       </defs>
       <use xlink:href="#CMR17-35" transform="scale(0.996264)"/>
       <use xlink:href="#CMR17-30" transform="translate(45.690477 0)scale(0.996264)"/>
       <use xlink:href="#CMR17-30" transform="translate(91.380954 0)scale(0.996264)"/>
       <use xlink:href="#CMR17-30" transform="translate(137.071431 0)scale(0.996264)"/>
      </g>
     </g>
    </g>
    <g id="xtick_3">
     <g id="line2d_5">
      <path d="M 323.06087 388.8 
L 323.06087 43.2 
" clip-path="url(#p44c9215d44)" style="fill: none; stroke: #b0b0b0; stroke-width: 0.8; stroke-linecap: square"/>
     </g>
     <g id="line2d_6">
      <g>
       <use xlink:href="#mbc0065ba0e" x="323.06087" y="388.8" style="stroke: #000000; stroke-width: 0.8"/>
      </g>
     </g>
     <g id="text_3">
      <!-- $\mathdefault{10000}$ -->
      <g transform="translate(300.215631 409.636997)scale(0.2 -0.2)">
       <defs>
        <path id="CMR17-31" d="M 1702 4083 
C 1702 4217 1696 4224 1606 4224 
C 1357 3927 979 3833 621 3820 
C 602 3820 570 3820 563 3808 
C 557 3795 557 3782 557 3648 
C 755 3648 1088 3686 1344 3839 
L 1344 467 
C 1344 243 1331 166 781 166 
L 589 166 
L 589 0 
C 896 6 1216 12 1523 12 
C 1830 12 2150 6 2458 0 
L 2458 166 
L 2266 166 
C 1715 166 1702 236 1702 467 
L 1702 4083 
z
" transform="scale(0.015625)"/>
       </defs>
       <use xlink:href="#CMR17-31" transform="scale(0.996264)"/>
       <use xlink:href="#CMR17-30" transform="translate(45.690477 0)scale(0.996264)"/>
       <use xlink:href="#CMR17-30" transform="translate(91.380954 0)scale(0.996264)"/>
       <use xlink:href="#CMR17-30" transform="translate(137.071431 0)scale(0.996264)"/>
       <use xlink:href="#CMR17-30" transform="translate(182.761908 0)scale(0.996264)"/>
      </g>
     </g>
    </g>
    <g id="xtick_4">
     <g id="line2d_7">
      <path d="M 398.191304 388.8 
L 398.191304 43.2 
" clip-path="url(#p44c9215d44)" style="fill: none; stroke: #b0b0b0; stroke-width: 0.8; stroke-linecap: square"/>
     </g>
     <g id="line2d_8">
      <g>
       <use xlink:href="#mbc0065ba0e" x="398.191304" y="388.8" style="stroke: #000000; stroke-width: 0.8"/>
      </g>
     </g>
     <g id="text_4">
      <!-- $\mathdefault{15000}$ -->
      <g transform="translate(375.346066 409.636997)scale(0.2 -0.2)">
       <use xlink:href="#CMR17-31" transform="scale(0.996264)"/>
       <use xlink:href="#CMR17-35" transform="translate(45.690477 0)scale(0.996264)"/>
       <use xlink:href="#CMR17-30" transform="translate(91.380954 0)scale(0.996264)"/>
       <use xlink:href="#CMR17-30" transform="translate(137.071431 0)scale(0.996264)"/>
       <use xlink:href="#CMR17-30" transform="translate(182.761908 0)scale(0.996264)"/>
      </g>
     </g>
    </g>
    <g id="xtick_5">
     <g id="line2d_9">
      <path d="M 473.321739 388.8 
L 473.321739 43.2 
" clip-path="url(#p44c9215d44)" style="fill: none; stroke: #b0b0b0; stroke-width: 0.8; stroke-linecap: square"/>
     </g>
     <g id="line2d_10">
      <g>
       <use xlink:href="#mbc0065ba0e" x="473.321739" y="388.8" style="stroke: #000000; stroke-width: 0.8"/>
      </g>
     </g>
     <g id="text_5">
      <!-- $\mathdefault{20000}$ -->
      <g transform="translate(450.476501 409.636997)scale(0.2 -0.2)">
       <defs>
        <path id="CMR17-32" d="M 2669 990 
L 2554 990 
C 2490 537 2438 460 2413 422 
C 2381 371 1920 371 1830 371 
L 602 371 
C 832 620 1280 1073 1824 1596 
C 2214 1966 2669 2400 2669 3033 
C 2669 3788 2067 4224 1395 4224 
C 691 4224 262 3603 262 3027 
C 262 2777 448 2745 525 2745 
C 589 2745 781 2783 781 3007 
C 781 3206 614 3264 525 3264 
C 486 3264 448 3257 422 3244 
C 544 3788 915 4057 1306 4057 
C 1862 4057 2227 3616 2227 3033 
C 2227 2477 1901 1998 1536 1583 
L 262 147 
L 262 0 
L 2515 0 
L 2669 990 
z
" transform="scale(0.015625)"/>
       </defs>
       <use xlink:href="#CMR17-32" transform="scale(0.996264)"/>
       <use xlink:href="#CMR17-30" transform="translate(45.690477 0)scale(0.996264)"/>
       <use xlink:href="#CMR17-30" transform="translate(91.380954 0)scale(0.996264)"/>
       <use xlink:href="#CMR17-30" transform="translate(137.071431 0)scale(0.996264)"/>
       <use xlink:href="#CMR17-30" transform="translate(182.761908 0)scale(0.996264)"/>
      </g>
     </g>
    </g>
    <g id="xtick_6">
     <g id="line2d_11">
      <path d="M 548.452174 388.8 
L 548.452174 43.2 
" clip-path="url(#p44c9215d44)" style="fill: none; stroke: #b0b0b0; stroke-width: 0.8; stroke-linecap: square"/>
     </g>
     <g id="line2d_12">
      <g>
       <use xlink:href="#mbc0065ba0e" x="548.452174" y="388.8" style="stroke: #000000; stroke-width: 0.8"/>
      </g>
     </g>
     <g id="text_6">
      <!-- $\mathdefault{25000}$ -->
      <g transform="translate(525.606935 409.636997)scale(0.2 -0.2)">
       <use xlink:href="#CMR17-32" transform="scale(0.996264)"/>
       <use xlink:href="#CMR17-35" transform="translate(45.690477 0)scale(0.996264)"/>
       <use xlink:href="#CMR17-30" transform="translate(91.380954 0)scale(0.996264)"/>
       <use xlink:href="#CMR17-30" transform="translate(137.071431 0)scale(0.996264)"/>
       <use xlink:href="#CMR17-30" transform="translate(182.761908 0)scale(0.996264)"/>
      </g>
     </g>
    </g>
    <g id="text_7">
     <!-- $\mu\ \mathrm{induced\ ER}\ [\si{keV}]$ -->
     <g transform="translate(281.618137 432.438652)scale(0.2 -0.2)">
      <defs>
       <path id="CMMI12-16" d="M 922 140 
C 1082 -7 1318 -64 1536 -64 
C 1946 -64 2227 210 2374 408 
C 2438 70 2707 -64 2931 -64 
C 3123 -64 3277 51 3392 281 
C 3494 498 3584 887 3584 913 
C 3584 944 3558 970 3520 970 
C 3462 970 3456 938 3430 842 
C 3334 466 3213 64 2950 64 
C 2765 64 2752 229 2752 357 
C 2752 504 2810 734 2854 925 
L 3034 1615 
C 3059 1736 3130 2023 3162 2138 
C 3200 2291 3270 2566 3270 2591 
C 3270 2687 3194 2752 3098 2752 
C 3040 2752 2906 2726 2854 2534 
L 2406 759 
C 2374 632 2374 619 2291 517 
C 2214 408 1965 64 1562 64 
C 1203 64 1088 325 1088 625 
C 1088 811 1146 1034 1171 1143 
L 1459 2292 
C 1491 2413 1542 2617 1542 2656 
C 1542 2758 1459 2816 1376 2816 
C 1318 2816 1178 2796 1126 2592 
L 198 -1085 
C 192 -1116 179 -1154 179 -1191 
C 179 -1287 256 -1351 352 -1351 
C 538 -1351 576 -1204 621 -1029 
L 922 140 
z
" transform="scale(0.015625)"/>
       <path id="CMR17-69" d="M 992 3961 
C 992 4102 877 4224 730 4224 
C 589 4224 467 4108 467 3961 
C 467 3820 582 3699 730 3699 
C 870 3699 992 3814 992 3961 
z
M 243 2745 
L 243 2579 
C 602 2579 653 2540 653 2231 
L 653 443 
C 653 198 627 166 218 166 
L 218 0 
C 371 12 646 12 806 12 
C 960 12 1222 12 1370 0 
L 1370 166 
C 992 166 979 205 979 436 
L 979 2816 
L 243 2745 
z
" transform="scale(0.015625)"/>
       <path id="CMR17-6e" d="M 2656 1954 
C 2656 2282 2592 2816 1837 2816 
C 1331 2816 1069 2424 973 2166 
L 966 2166 
L 966 2816 
L 211 2745 
L 211 2578 
C 589 2578 646 2540 646 2231 
L 646 443 
C 646 198 621 166 211 166 
L 211 0 
C 365 12 646 12 813 12 
C 979 12 1267 12 1421 0 
L 1421 166 
C 1011 166 986 192 986 443 
L 986 1678 
C 986 2269 1344 2713 1792 2713 
C 2266 2713 2317 2289 2317 1980 
L 2317 443 
C 2317 198 2291 166 1882 166 
L 1882 0 
C 2035 12 2317 12 2483 12 
C 2650 12 2938 12 3091 0 
L 3091 166 
C 2682 166 2656 192 2656 443 
L 2656 1954 
z
" transform="scale(0.015625)"/>
       <path id="CMR17-64" d="M 1869 4345 
L 1869 4179 
C 2246 4179 2304 4141 2304 3843 
L 2304 2371 
C 2278 2403 2016 2816 1498 2816 
C 845 2816 211 2228 211 1376 
C 211 529 806 -64 1434 -64 
C 1978 -64 2259 361 2291 406 
L 2291 -64 
L 3066 -13 
L 3066 154 
C 2688 154 2630 193 2630 503 
L 2630 4416 
L 1869 4345 
z
M 2291 762 
C 2291 568 2176 393 2029 264 
C 1811 70 1594 38 1472 38 
C 1286 38 621 135 621 1369 
C 621 2636 1363 2713 1530 2713 
C 1824 2713 2061 2545 2208 2313 
C 2291 2177 2291 2157 2291 2041 
L 2291 762 
z
" transform="scale(0.015625)"/>
       <path id="CMR17-75" d="M 1882 2745 
L 1882 2579 
C 2259 2579 2317 2540 2317 2229 
L 2317 1053 
C 2317 510 2029 38 1555 38 
C 1030 38 986 355 986 691 
L 986 2816 
L 211 2745 
L 211 2579 
C 467 2579 640 2579 646 2320 
L 646 1079 
C 646 646 646 368 813 187 
C 896 103 1056 -64 1517 -64 
C 2061 -64 2272 400 2323 536 
L 2330 536 
L 2330 -64 
L 3091 -13 
L 3091 154 
C 2714 154 2656 193 2656 503 
L 2656 2816 
L 1882 2745 
z
" transform="scale(0.015625)"/>
       <path id="CMR17-63" d="M 2234 2240 
C 2112 2240 1933 2240 1933 2015 
C 1933 1836 2080 1785 2163 1785 
C 2208 1785 2394 1804 2394 2028 
C 2394 2476 1958 2816 1466 2816 
C 787 2816 211 2201 211 1379 
C 211 521 813 -64 1466 -64 
C 2259 -64 2458 676 2458 747 
C 2458 773 2451 792 2406 792 
C 2362 792 2355 786 2330 702 
C 2163 180 1798 51 1523 51 
C 1114 51 621 431 621 1385 
C 621 2358 1094 2700 1472 2700 
C 1722 2700 2093 2582 2234 2240 
z
" transform="scale(0.015625)"/>
       <path id="CMR17-65" d="M 2438 1503 
C 2464 1529 2464 1542 2464 1606 
C 2464 2251 2118 2816 1389 2816 
C 710 2816 173 2175 173 1394 
C 173 554 781 -64 1459 -64 
C 2176 -64 2458 619 2458 755 
C 2458 800 2419 800 2406 800 
C 2362 800 2355 787 2330 709 
C 2189 270 1837 51 1504 51 
C 1229 51 954 206 781 490 
C 582 819 582 1200 582 1503 
L 2438 1503 
z
M 589 1600 
C 634 2511 1126 2713 1382 2713 
C 1818 2713 2112 2308 2118 1600 
L 589 1600 
z
" transform="scale(0.015625)"/>
       <path id="CMR17-45" d="M 3885 1614 
L 3770 1614 
C 3629 676 3546 166 2419 166 
L 1530 166 
C 1274 166 1261 198 1261 415 
L 1261 2176 
L 1862 2176 
C 2464 2176 2522 1959 2522 1429 
L 2637 1429 
L 2637 3086 
L 2522 3086 
C 2522 2558 2464 2342 1862 2342 
L 1261 2342 
L 1261 3924 
C 1261 4141 1274 4172 1530 4172 
L 2406 4172 
C 3398 4172 3514 3778 3603 2933 
L 3718 2933 
L 3565 4339 
L 326 4339 
L 326 4172 
C 768 4172 838 4172 838 3886 
L 838 453 
C 838 166 768 166 326 166 
L 326 0 
L 3654 0 
L 3885 1614 
z
" transform="scale(0.015625)"/>
       <path id="CMR17-52" d="M 2509 2156 
C 3117 2278 3629 2689 3629 3203 
C 3629 3806 2950 4352 2054 4352 
L 333 4352 
L 333 4185 
C 774 4185 845 4185 845 3896 
L 845 428 
C 845 140 774 140 333 140 
L 333 -26 
C 518 -13 851 -13 1050 -13 
C 1248 -13 1581 -13 1766 -26 
L 1766 140 
C 1325 140 1254 140 1254 428 
L 1254 2112 
L 2003 2112 
C 2368 2112 2573 1964 2662 1881 
C 2918 1632 2918 1459 2918 1024 
C 2918 595 2918 377 3110 160 
C 3354 -103 3680 -128 3821 -128 
C 4294 -128 4365 403 4365 512 
C 4365 550 4365 595 4307 595 
C 4256 595 4250 556 4250 531 
C 4218 115 4032 -26 3834 -26 
C 3482 -26 3443 377 3405 768 
C 3386 902 3373 998 3360 1139 
C 3322 1459 3270 1926 2509 2156 
z
M 1984 2214 
L 1254 2214 
L 1254 3935 
C 1254 4153 1267 4185 1523 4185 
L 1990 4185 
C 2522 4185 3142 3999 3142 3203 
C 3142 2374 2464 2214 1984 2214 
z
" transform="scale(0.015625)"/>
       <path id="CMR17-5b" d="M 1504 -1600 
L 1504 -1376 
L 902 -1376 
L 902 4575 
L 1504 4575 
L 1504 4800 
L 678 4800 
L 678 -1600 
L 1504 -1600 
z
" transform="scale(0.015625)"/>
       <path id="CMSS17-6b" d="M 1696 1686 
L 2688 2735 
L 2074 2735 
L 954 1552 
L 954 4416 
L 480 4416 
L 480 0 
L 947 0 
L 947 891 
L 1376 1342 
L 2278 0 
L 2822 0 
L 1696 1686 
z
" transform="scale(0.015625)"/>
       <path id="CMSS17-65" d="M 2502 1375 
C 2502 1587 2490 2001 2285 2347 
C 2061 2713 1696 2816 1421 2816 
C 755 2816 192 2184 192 1363 
C 192 579 774 -64 1510 -64 
C 1798 -64 2150 19 2470 249 
C 2470 275 2458 414 2451 421 
C 2451 433 2432 629 2432 655 
C 2125 408 1773 326 1517 326 
C 1107 326 666 667 646 1375 
L 2502 1375 
z
M 698 1728 
C 781 2086 1062 2425 1421 2425 
C 1517 2425 1965 2412 2080 1728 
L 698 1728 
z
" transform="scale(0.015625)"/>
       <path id="CMSS17-56" d="M 3910 4416 
L 3411 4416 
L 2304 1361 
C 2272 1272 2074 687 2035 484 
L 2029 484 
C 1978 725 1773 1291 1664 1603 
L 922 3670 
L 646 4416 
L 83 4416 
L 1715 0 
L 2278 0 
L 3910 4416 
z
" transform="scale(0.015625)"/>
       <path id="CMR17-5d" d="M 915 4800 
L 90 4800 
L 90 4575 
L 691 4575 
L 691 -1376 
L 90 -1376 
L 90 -1600 
L 915 -1600 
L 915 4800 
z
" transform="scale(0.015625)"/>
      </defs>
      <use xlink:href="#CMMI12-16" transform="scale(0.996264)"/>
      <use xlink:href="#CMR17-69" transform="translate(89.920534 0)scale(0.996264)"/>
      <use xlink:href="#CMR17-6e" transform="translate(114.791593 0)scale(0.996264)"/>
      <use xlink:href="#CMR17-64" transform="translate(165.686962 0)scale(0.996264)"/>
      <use xlink:href="#CMR17-75" transform="translate(216.582332 0)scale(0.996264)"/>
      <use xlink:href="#CMR17-63" transform="translate(267.477702 0)scale(0.996264)"/>
      <use xlink:href="#CMR17-65" transform="translate(307.963362 0)scale(0.996264)"/>
      <use xlink:href="#CMR17-64" transform="translate(348.449023 0)scale(0.996264)"/>
      <use xlink:href="#CMR17-45" transform="translate(430.573505 0)scale(0.996264)"/>
      <use xlink:href="#CMR17-52" transform="translate(493.159806 0)scale(0.996264)"/>
      <use xlink:href="#CMR17-5b" transform="translate(592.180021 0)scale(0.996264)"/>
      <use xlink:href="#CMSS17-6b" transform="translate(617.051079 0)scale(0.996264)"/>
      <use xlink:href="#CMSS17-65" transform="translate(660.051114 0)scale(0.996264)"/>
      <use xlink:href="#CMSS17-56" transform="translate(701.689937 0)scale(0.996264)"/>
      <use xlink:href="#CMR17-5d" transform="translate(765.208958 0)scale(0.996264)"/>
     </g>
    </g>
   </g>
   <g id="matplotlib.axis_2">
    <g id="ytick_1">
     <g id="line2d_13">
      <path d="M 172.8 387.723746 
L 548.452174 387.723746 
" clip-path="url(#p44c9215d44)" style="fill: none; stroke: #b0b0b0; stroke-width: 0.8; stroke-linecap: square"/>
     </g>
     <g id="line2d_14">
      <defs>
       <path id="meae76b39ea" d="M 0 0 
L -3.5 0 
" style="stroke: #000000; stroke-width: 0.8"/>
      </defs>
      <g>
       <use xlink:href="#meae76b39ea" x="172.8" y="387.723746" style="stroke: #000000; stroke-width: 0.8"/>
      </g>
     </g>
     <g id="text_8">
      <!-- $\mathdefault{10^{-7}}$ -->
      <g transform="translate(129.847161 394.642244)scale(0.2 -0.2)">
       <defs>
        <path id="CMSY10-0" d="M 4218 1472 
C 4326 1472 4442 1472 4442 1600 
C 4442 1728 4326 1728 4218 1728 
L 755 1728 
C 646 1728 531 1728 531 1600 
C 531 1472 646 1472 755 1472 
L 4218 1472 
z
" transform="scale(0.015625)"/>
        <path id="CMR17-37" d="M 2886 3955 
L 2886 4096 
L 1382 4096 
C 634 4096 621 4166 595 4288 
L 480 4288 
L 294 3104 
L 410 3104 
C 429 3226 474 3552 550 3673 
C 589 3724 1062 3724 1171 3724 
L 2579 3724 
L 1869 2670 
C 1395 1961 1069 1003 1069 166 
C 1069 89 1069 -128 1299 -128 
C 1530 -128 1530 89 1530 172 
L 1530 466 
C 1530 1514 1709 2204 2003 2644 
L 2886 3955 
z
" transform="scale(0.015625)"/>
       </defs>
       <use xlink:href="#CMR17-31" transform="scale(0.996264)"/>
       <use xlink:href="#CMR17-30" transform="translate(45.690477 0)scale(0.996264)"/>
       <use xlink:href="#CMSY10-0" transform="translate(91.380954 36.153639)scale(0.697382)"/>
       <use xlink:href="#CMR17-37" transform="translate(145.621947 36.153639)scale(0.697382)"/>
      </g>
     </g>
    </g>
    <g id="ytick_2">
     <g id="line2d_15">
      <path d="M 172.8 332.865676 
L 548.452174 332.865676 
" clip-path="url(#p44c9215d44)" style="fill: none; stroke: #b0b0b0; stroke-width: 0.8; stroke-linecap: square"/>
     </g>
     <g id="line2d_16">
      <g>
       <use xlink:href="#meae76b39ea" x="172.8" y="332.865676" style="stroke: #000000; stroke-width: 0.8"/>
      </g>
     </g>
     <g id="text_9">
      <!-- $\mathdefault{10^{-6}}$ -->
      <g transform="translate(129.847161 339.784174)scale(0.2 -0.2)">
       <defs>
        <path id="CMR17-36" d="M 678 2198 
C 678 3712 1395 4076 1811 4076 
C 1946 4076 2272 4049 2400 3782 
C 2298 3782 2106 3782 2106 3558 
C 2106 3385 2246 3328 2336 3328 
C 2394 3328 2566 3353 2566 3571 
C 2566 3987 2246 4224 1805 4224 
C 1043 4224 243 3411 243 2011 
C 243 257 966 -128 1478 -128 
C 2099 -128 2688 431 2688 1295 
C 2688 2101 2170 2688 1517 2688 
C 1126 2688 838 2430 678 1979 
L 678 2198 
z
M 1478 25 
C 691 25 691 1212 691 1450 
C 691 1914 909 2585 1504 2585 
C 1613 2585 1926 2585 2138 2140 
C 2253 1889 2253 1624 2253 1302 
C 2253 954 2253 696 2118 438 
C 1978 173 1773 25 1478 25 
z
" transform="scale(0.015625)"/>
       </defs>
       <use xlink:href="#CMR17-31" transform="scale(0.996264)"/>
       <use xlink:href="#CMR17-30" transform="translate(45.690477 0)scale(0.996264)"/>
       <use xlink:href="#CMSY10-0" transform="translate(91.380954 36.153639)scale(0.697382)"/>
       <use xlink:href="#CMR17-36" transform="translate(145.621947 36.153639)scale(0.697382)"/>
      </g>
     </g>
    </g>
    <g id="ytick_3">
     <g id="line2d_17">
      <path d="M 172.8 278.007606 
L 548.452174 278.007606 
" clip-path="url(#p44c9215d44)" style="fill: none; stroke: #b0b0b0; stroke-width: 0.8; stroke-linecap: square"/>
     </g>
     <g id="line2d_18">
      <g>
       <use xlink:href="#meae76b39ea" x="172.8" y="278.007606" style="stroke: #000000; stroke-width: 0.8"/>
      </g>
     </g>
     <g id="text_10">
      <!-- $\mathdefault{10^{-5}}$ -->
      <g transform="translate(129.847161 284.926104)scale(0.2 -0.2)">
       <use xlink:href="#CMR17-31" transform="scale(0.996264)"/>
       <use xlink:href="#CMR17-30" transform="translate(45.690477 0)scale(0.996264)"/>
       <use xlink:href="#CMSY10-0" transform="translate(91.380954 36.153639)scale(0.697382)"/>
       <use xlink:href="#CMR17-35" transform="translate(145.621947 36.153639)scale(0.697382)"/>
      </g>
     </g>
    </g>
    <g id="ytick_4">
     <g id="line2d_19">
      <path d="M 172.8 223.149536 
L 548.452174 223.149536 
" clip-path="url(#p44c9215d44)" style="fill: none; stroke: #b0b0b0; stroke-width: 0.8; stroke-linecap: square"/>
     </g>
     <g id="line2d_20">
      <g>
       <use xlink:href="#meae76b39ea" x="172.8" y="223.149536" style="stroke: #000000; stroke-width: 0.8"/>
      </g>
     </g>
     <g id="text_11">
      <!-- $\mathdefault{10^{-4}}$ -->
      <g transform="translate(129.847161 230.068034)scale(0.2 -0.2)">
       <defs>
        <path id="CMR17-34" d="M 2150 4147 
C 2150 4281 2144 4288 2029 4288 
L 128 1254 
L 128 1088 
L 1779 1088 
L 1779 460 
C 1779 230 1766 166 1318 166 
L 1197 166 
L 1197 0 
C 1402 12 1747 12 1965 12 
C 2182 12 2528 12 2733 0 
L 2733 166 
L 2611 166 
C 2163 166 2150 230 2150 460 
L 2150 1088 
L 2803 1088 
L 2803 1254 
L 2150 1254 
L 2150 4147 
z
M 1798 3723 
L 1798 1254 
L 256 1254 
L 1798 3723 
z
" transform="scale(0.015625)"/>
       </defs>
       <use xlink:href="#CMR17-31" transform="scale(0.996264)"/>
       <use xlink:href="#CMR17-30" transform="translate(45.690477 0)scale(0.996264)"/>
       <use xlink:href="#CMSY10-0" transform="translate(91.380954 36.153639)scale(0.697382)"/>
       <use xlink:href="#CMR17-34" transform="translate(145.621947 36.153639)scale(0.697382)"/>
      </g>
     </g>
    </g>
    <g id="ytick_5">
     <g id="line2d_21">
      <path d="M 172.8 168.291466 
L 548.452174 168.291466 
" clip-path="url(#p44c9215d44)" style="fill: none; stroke: #b0b0b0; stroke-width: 0.8; stroke-linecap: square"/>
     </g>
     <g id="line2d_22">
      <g>
       <use xlink:href="#meae76b39ea" x="172.8" y="168.291466" style="stroke: #000000; stroke-width: 0.8"/>
      </g>
     </g>
     <g id="text_12">
      <!-- $\mathdefault{10^{-3}}$ -->
      <g transform="translate(129.847161 175.209964)scale(0.2 -0.2)">
       <defs>
        <path id="CMR17-33" d="M 1414 2176 
C 1984 2176 2234 1673 2234 1094 
C 2234 322 1824 25 1453 25 
C 1114 25 563 193 390 691 
C 422 678 454 678 486 678 
C 640 678 755 780 755 947 
C 755 1132 614 1216 486 1216 
C 378 1216 211 1164 211 927 
C 211 335 787 -128 1466 -128 
C 2176 -128 2720 432 2720 1087 
C 2720 1718 2208 2176 1600 2246 
C 2086 2347 2554 2776 2554 3353 
C 2554 3856 2048 4224 1472 4224 
C 890 4224 378 3862 378 3347 
C 378 3123 544 3084 627 3084 
C 762 3084 877 3167 877 3334 
C 877 3500 762 3584 627 3584 
C 602 3584 570 3584 544 3571 
C 730 3999 1235 4076 1459 4076 
C 1683 4076 2106 3966 2106 3347 
C 2106 3167 2080 2851 1862 2574 
C 1670 2329 1453 2316 1242 2297 
C 1210 2297 1062 2284 1037 2284 
C 992 2278 966 2272 966 2227 
C 966 2182 973 2176 1101 2176 
L 1414 2176 
z
" transform="scale(0.015625)"/>
       </defs>
       <use xlink:href="#CMR17-31" transform="scale(0.996264)"/>
       <use xlink:href="#CMR17-30" transform="translate(45.690477 0)scale(0.996264)"/>
       <use xlink:href="#CMSY10-0" transform="translate(91.380954 36.153639)scale(0.697382)"/>
       <use xlink:href="#CMR17-33" transform="translate(145.621947 36.153639)scale(0.697382)"/>
      </g>
     </g>
    </g>
    <g id="ytick_6">
     <g id="line2d_23">
      <path d="M 172.8 113.433396 
L 548.452174 113.433396 
" clip-path="url(#p44c9215d44)" style="fill: none; stroke: #b0b0b0; stroke-width: 0.8; stroke-linecap: square"/>
     </g>
     <g id="line2d_24">
      <g>
       <use xlink:href="#meae76b39ea" x="172.8" y="113.433396" style="stroke: #000000; stroke-width: 0.8"/>
      </g>
     </g>
     <g id="text_13">
      <!-- $\mathdefault{10^{-2}}$ -->
      <g transform="translate(129.847161 120.351894)scale(0.2 -0.2)">
       <use xlink:href="#CMR17-31" transform="scale(0.996264)"/>
       <use xlink:href="#CMR17-30" transform="translate(45.690477 0)scale(0.996264)"/>
       <use xlink:href="#CMSY10-0" transform="translate(91.380954 36.153639)scale(0.697382)"/>
       <use xlink:href="#CMR17-32" transform="translate(145.621947 36.153639)scale(0.697382)"/>
      </g>
     </g>
    </g>
    <g id="ytick_7">
     <g id="line2d_25">
      <path d="M 172.8 58.575326 
L 548.452174 58.575326 
" clip-path="url(#p44c9215d44)" style="fill: none; stroke: #b0b0b0; stroke-width: 0.8; stroke-linecap: square"/>
     </g>
     <g id="line2d_26">
      <g>
       <use xlink:href="#meae76b39ea" x="172.8" y="58.575326" style="stroke: #000000; stroke-width: 0.8"/>
      </g>
     </g>
     <g id="text_14">
      <!-- $\mathdefault{10^{-1}}$ -->
      <g transform="translate(129.847161 65.493824)scale(0.2 -0.2)">
       <use xlink:href="#CMR17-31" transform="scale(0.996264)"/>
       <use xlink:href="#CMR17-30" transform="translate(45.690477 0)scale(0.996264)"/>
       <use xlink:href="#CMSY10-0" transform="translate(91.380954 36.153639)scale(0.697382)"/>
       <use xlink:href="#CMR17-31" transform="translate(145.621947 36.153639)scale(0.697382)"/>
      </g>
     </g>
    </g>
    <g id="ytick_8">
     <g id="line2d_27">
      <defs>
       <path id="m8a1947712c" d="M 0 0 
L -2 0 
" style="stroke: #000000; stroke-width: 0.6"/>
      </defs>
      <g>
       <use xlink:href="#m8a1947712c" x="172.8" y="371.209821" style="stroke: #000000; stroke-width: 0.6"/>
      </g>
     </g>
    </g>
    <g id="ytick_9">
     <g id="line2d_28">
      <g>
       <use xlink:href="#m8a1947712c" x="172.8" y="361.549795" style="stroke: #000000; stroke-width: 0.6"/>
      </g>
     </g>
    </g>
    <g id="ytick_10">
     <g id="line2d_29">
      <g>
       <use xlink:href="#m8a1947712c" x="172.8" y="354.695897" style="stroke: #000000; stroke-width: 0.6"/>
      </g>
     </g>
    </g>
    <g id="ytick_11">
     <g id="line2d_30">
      <g>
       <use xlink:href="#m8a1947712c" x="172.8" y="349.3796" style="stroke: #000000; stroke-width: 0.6"/>
      </g>
     </g>
    </g>
    <g id="ytick_12">
     <g id="line2d_31">
      <g>
       <use xlink:href="#m8a1947712c" x="172.8" y="345.03587" style="stroke: #000000; stroke-width: 0.6"/>
      </g>
     </g>
    </g>
    <g id="ytick_13">
     <g id="line2d_32">
      <g>
       <use xlink:href="#m8a1947712c" x="172.8" y="341.363298" style="stroke: #000000; stroke-width: 0.6"/>
      </g>
     </g>
    </g>
    <g id="ytick_14">
     <g id="line2d_33">
      <g>
       <use xlink:href="#m8a1947712c" x="172.8" y="338.181972" style="stroke: #000000; stroke-width: 0.6"/>
      </g>
     </g>
    </g>
    <g id="ytick_15">
     <g id="line2d_34">
      <g>
       <use xlink:href="#m8a1947712c" x="172.8" y="335.375843" style="stroke: #000000; stroke-width: 0.6"/>
      </g>
     </g>
    </g>
    <g id="ytick_16">
     <g id="line2d_35">
      <g>
       <use xlink:href="#m8a1947712c" x="172.8" y="316.351751" style="stroke: #000000; stroke-width: 0.6"/>
      </g>
     </g>
    </g>
    <g id="ytick_17">
     <g id="line2d_36">
      <g>
       <use xlink:href="#m8a1947712c" x="172.8" y="306.691725" style="stroke: #000000; stroke-width: 0.6"/>
      </g>
     </g>
    </g>
    <g id="ytick_18">
     <g id="line2d_37">
      <g>
       <use xlink:href="#m8a1947712c" x="172.8" y="299.837827" style="stroke: #000000; stroke-width: 0.6"/>
      </g>
     </g>
    </g>
    <g id="ytick_19">
     <g id="line2d_38">
      <g>
       <use xlink:href="#m8a1947712c" x="172.8" y="294.52153" style="stroke: #000000; stroke-width: 0.6"/>
      </g>
     </g>
    </g>
    <g id="ytick_20">
     <g id="line2d_39">
      <g>
       <use xlink:href="#m8a1947712c" x="172.8" y="290.1778" style="stroke: #000000; stroke-width: 0.6"/>
      </g>
     </g>
    </g>
    <g id="ytick_21">
     <g id="line2d_40">
      <g>
       <use xlink:href="#m8a1947712c" x="172.8" y="286.505228" style="stroke: #000000; stroke-width: 0.6"/>
      </g>
     </g>
    </g>
    <g id="ytick_22">
     <g id="line2d_41">
      <g>
       <use xlink:href="#m8a1947712c" x="172.8" y="283.323902" style="stroke: #000000; stroke-width: 0.6"/>
      </g>
     </g>
    </g>
    <g id="ytick_23">
     <g id="line2d_42">
      <g>
       <use xlink:href="#m8a1947712c" x="172.8" y="280.517773" style="stroke: #000000; stroke-width: 0.6"/>
      </g>
     </g>
    </g>
    <g id="ytick_24">
     <g id="line2d_43">
      <g>
       <use xlink:href="#m8a1947712c" x="172.8" y="261.493681" style="stroke: #000000; stroke-width: 0.6"/>
      </g>
     </g>
    </g>
    <g id="ytick_25">
     <g id="line2d_44">
      <g>
       <use xlink:href="#m8a1947712c" x="172.8" y="251.833655" style="stroke: #000000; stroke-width: 0.6"/>
      </g>
     </g>
    </g>
    <g id="ytick_26">
     <g id="line2d_45">
      <g>
       <use xlink:href="#m8a1947712c" x="172.8" y="244.979757" style="stroke: #000000; stroke-width: 0.6"/>
      </g>
     </g>
    </g>
    <g id="ytick_27">
     <g id="line2d_46">
      <g>
       <use xlink:href="#m8a1947712c" x="172.8" y="239.66346" style="stroke: #000000; stroke-width: 0.6"/>
      </g>
     </g>
    </g>
    <g id="ytick_28">
     <g id="line2d_47">
      <g>
       <use xlink:href="#m8a1947712c" x="172.8" y="235.31973" style="stroke: #000000; stroke-width: 0.6"/>
      </g>
     </g>
    </g>
    <g id="ytick_29">
     <g id="line2d_48">
      <g>
       <use xlink:href="#m8a1947712c" x="172.8" y="231.647158" style="stroke: #000000; stroke-width: 0.6"/>
      </g>
     </g>
    </g>
    <g id="ytick_30">
     <g id="line2d_49">
      <g>
       <use xlink:href="#m8a1947712c" x="172.8" y="228.465832" style="stroke: #000000; stroke-width: 0.6"/>
      </g>
     </g>
    </g>
    <g id="ytick_31">
     <g id="line2d_50">
      <g>
       <use xlink:href="#m8a1947712c" x="172.8" y="225.659704" style="stroke: #000000; stroke-width: 0.6"/>
      </g>
     </g>
    </g>
    <g id="ytick_32">
     <g id="line2d_51">
      <g>
       <use xlink:href="#m8a1947712c" x="172.8" y="206.635611" style="stroke: #000000; stroke-width: 0.6"/>
      </g>
     </g>
    </g>
    <g id="ytick_33">
     <g id="line2d_52">
      <g>
       <use xlink:href="#m8a1947712c" x="172.8" y="196.975585" style="stroke: #000000; stroke-width: 0.6"/>
      </g>
     </g>
    </g>
    <g id="ytick_34">
     <g id="line2d_53">
      <g>
       <use xlink:href="#m8a1947712c" x="172.8" y="190.121687" style="stroke: #000000; stroke-width: 0.6"/>
      </g>
     </g>
    </g>
    <g id="ytick_35">
     <g id="line2d_54">
      <g>
       <use xlink:href="#m8a1947712c" x="172.8" y="184.805391" style="stroke: #000000; stroke-width: 0.6"/>
      </g>
     </g>
    </g>
    <g id="ytick_36">
     <g id="line2d_55">
      <g>
       <use xlink:href="#m8a1947712c" x="172.8" y="180.46166" style="stroke: #000000; stroke-width: 0.6"/>
      </g>
     </g>
    </g>
    <g id="ytick_37">
     <g id="line2d_56">
      <g>
       <use xlink:href="#m8a1947712c" x="172.8" y="176.789089" style="stroke: #000000; stroke-width: 0.6"/>
      </g>
     </g>
    </g>
    <g id="ytick_38">
     <g id="line2d_57">
      <g>
       <use xlink:href="#m8a1947712c" x="172.8" y="173.607762" style="stroke: #000000; stroke-width: 0.6"/>
      </g>
     </g>
    </g>
    <g id="ytick_39">
     <g id="line2d_58">
      <g>
       <use xlink:href="#m8a1947712c" x="172.8" y="170.801634" style="stroke: #000000; stroke-width: 0.6"/>
      </g>
     </g>
    </g>
    <g id="ytick_40">
     <g id="line2d_59">
      <g>
       <use xlink:href="#m8a1947712c" x="172.8" y="151.777541" style="stroke: #000000; stroke-width: 0.6"/>
      </g>
     </g>
    </g>
    <g id="ytick_41">
     <g id="line2d_60">
      <g>
       <use xlink:href="#m8a1947712c" x="172.8" y="142.117515" style="stroke: #000000; stroke-width: 0.6"/>
      </g>
     </g>
    </g>
    <g id="ytick_42">
     <g id="line2d_61">
      <g>
       <use xlink:href="#m8a1947712c" x="172.8" y="135.263617" style="stroke: #000000; stroke-width: 0.6"/>
      </g>
     </g>
    </g>
    <g id="ytick_43">
     <g id="line2d_62">
      <g>
       <use xlink:href="#m8a1947712c" x="172.8" y="129.947321" style="stroke: #000000; stroke-width: 0.6"/>
      </g>
     </g>
    </g>
    <g id="ytick_44">
     <g id="line2d_63">
      <g>
       <use xlink:href="#m8a1947712c" x="172.8" y="125.60359" style="stroke: #000000; stroke-width: 0.6"/>
      </g>
     </g>
    </g>
    <g id="ytick_45">
     <g id="line2d_64">
      <g>
       <use xlink:href="#m8a1947712c" x="172.8" y="121.931019" style="stroke: #000000; stroke-width: 0.6"/>
      </g>
     </g>
    </g>
    <g id="ytick_46">
     <g id="line2d_65">
      <g>
       <use xlink:href="#m8a1947712c" x="172.8" y="118.749692" style="stroke: #000000; stroke-width: 0.6"/>
      </g>
     </g>
    </g>
    <g id="ytick_47">
     <g id="line2d_66">
      <g>
       <use xlink:href="#m8a1947712c" x="172.8" y="115.943564" style="stroke: #000000; stroke-width: 0.6"/>
      </g>
     </g>
    </g>
    <g id="ytick_48">
     <g id="line2d_67">
      <g>
       <use xlink:href="#m8a1947712c" x="172.8" y="96.919471" style="stroke: #000000; stroke-width: 0.6"/>
      </g>
     </g>
    </g>
    <g id="ytick_49">
     <g id="line2d_68">
      <g>
       <use xlink:href="#m8a1947712c" x="172.8" y="87.259445" style="stroke: #000000; stroke-width: 0.6"/>
      </g>
     </g>
    </g>
    <g id="ytick_50">
     <g id="line2d_69">
      <g>
       <use xlink:href="#m8a1947712c" x="172.8" y="80.405547" style="stroke: #000000; stroke-width: 0.6"/>
      </g>
     </g>
    </g>
    <g id="ytick_51">
     <g id="line2d_70">
      <g>
       <use xlink:href="#m8a1947712c" x="172.8" y="75.089251" style="stroke: #000000; stroke-width: 0.6"/>
      </g>
     </g>
    </g>
    <g id="ytick_52">
     <g id="line2d_71">
      <g>
       <use xlink:href="#m8a1947712c" x="172.8" y="70.74552" style="stroke: #000000; stroke-width: 0.6"/>
      </g>
     </g>
    </g>
    <g id="ytick_53">
     <g id="line2d_72">
      <g>
       <use xlink:href="#m8a1947712c" x="172.8" y="67.072949" style="stroke: #000000; stroke-width: 0.6"/>
      </g>
     </g>
    </g>
    <g id="ytick_54">
     <g id="line2d_73">
      <g>
       <use xlink:href="#m8a1947712c" x="172.8" y="63.891622" style="stroke: #000000; stroke-width: 0.6"/>
      </g>
     </g>
    </g>
    <g id="ytick_55">
     <g id="line2d_74">
      <g>
       <use xlink:href="#m8a1947712c" x="172.8" y="61.085494" style="stroke: #000000; stroke-width: 0.6"/>
      </g>
     </g>
    </g>
    <g id="text_15">
     <!-- $\mathrm{Rate}\ [\si{kg^{-1}day^{-1}keV^{-1}}]$ -->
     <g transform="translate(120.882518 307.957132)rotate(-90)scale(0.2 -0.2)">
      <defs>
       <path id="CMR17-61" d="M 2304 1656 
C 2304 2048 2304 2275 2035 2534 
C 1798 2751 1523 2816 1306 2816 
C 800 2816 435 2408 435 1977 
C 435 1740 627 1728 666 1728 
C 749 1728 896 1779 896 1958 
C 896 2118 774 2188 666 2188 
C 640 2188 608 2182 589 2176 
C 723 2594 1069 2713 1293 2713 
C 1613 2713 1965 2421 1965 1875 
L 1965 1632 
C 1587 1619 1133 1568 774 1373 
C 371 1147 256 822 256 576 
C 256 77 832 -64 1171 -64 
C 1523 -64 1850 135 1990 505 
C 2003 219 2182 -39 2464 -39 
C 2598 -39 2938 51 2938 563 
L 2938 926 
L 2822 926 
L 2822 557 
C 2822 161 2650 109 2566 109 
C 2304 109 2304 446 2304 732 
L 2304 1656 
z
M 1965 887 
C 1965 323 1568 38 1216 38 
C 896 38 646 278 646 576 
C 646 771 730 1114 1101 1322 
C 1408 1497 1760 1523 1965 1536 
L 1965 887 
z
" transform="scale(0.015625)"/>
       <path id="CMR17-74" d="M 966 2585 
L 1862 2585 
L 1862 2752 
L 966 2752 
L 966 3968 
L 851 3968 
C 838 3292 614 2700 70 2687 
L 70 2585 
L 627 2585 
L 627 778 
C 627 655 627 -64 1370 -64 
C 1747 -64 1965 308 1965 784 
L 1965 1151 
L 1850 1151 
L 1850 790 
C 1850 347 1677 51 1408 51 
C 1222 51 966 179 966 765 
L 966 2585 
z
" transform="scale(0.015625)"/>
       <path id="CMSS17-67" d="M 2848 2816 
C 2483 2809 2170 2739 1914 2617 
C 1702 2783 1485 2816 1338 2816 
C 781 2816 358 2356 358 1824 
C 358 1481 550 1222 563 1209 
C 448 1049 384 876 384 684 
C 384 460 474 300 544 211 
C 211 6 166 -308 166 -429 
C 166 -896 749 -1280 1498 -1280 
C 2253 -1280 2835 -896 2835 -423 
C 2835 460 1856 467 1587 467 
L 1069 467 
C 973 467 717 467 717 793 
C 717 921 774 1004 781 1011 
C 877 940 1075 832 1338 832 
C 1869 832 2310 1279 2310 1824 
C 2310 2128 2170 2349 2112 2425 
L 2131 2425 
C 2150 2425 2419 2444 2515 2444 
C 2720 2444 2739 2438 2918 2419 
L 2848 2816 
z
M 1338 1184 
C 1120 1184 813 1317 813 1824 
C 813 2375 1165 2463 1331 2463 
C 1549 2463 1856 2330 1856 1824 
C 1856 1272 1504 1184 1338 1184 
z
M 1581 0 
C 1734 0 2381 0 2381 -436 
C 2381 -711 1984 -928 1504 -928 
C 1018 -928 621 -717 621 -429 
C 621 -397 621 0 1062 0 
L 1581 0 
z
" transform="scale(0.015625)"/>
       <path id="CMSS17-31" d="M 1818 4288 
L 1696 4288 
C 1350 3949 947 3902 538 3891 
L 538 3520 
C 723 3526 1024 3539 1325 3673 
L 1325 371 
L 570 371 
L 570 0 
L 2573 0 
L 2573 371 
L 1818 371 
L 1818 4288 
z
" transform="scale(0.015625)"/>
       <path id="CMSS17-64" d="M 2611 4416 
L 2138 4416 
L 2138 2495 
C 1939 2662 1613 2816 1254 2816 
C 672 2816 211 2179 211 1375 
C 211 572 666 -64 1235 -64 
C 1677 -64 1971 172 2125 307 
L 2125 -13 
L 2611 -13 
L 2611 4416 
z
M 2125 851 
C 2125 760 2125 663 1926 488 
C 1798 378 1645 326 1498 326 
C 1152 326 698 585 698 1369 
C 698 2185 1210 2425 1562 2425 
C 1798 2425 1990 2308 2125 2114 
L 2125 851 
z
" transform="scale(0.015625)"/>
       <path id="CMSS17-61" d="M 2406 1789 
C 2406 2399 1978 2816 1402 2816 
C 1120 2816 813 2764 461 2559 
L 499 2133 
C 659 2250 934 2438 1395 2438 
C 1722 2438 1920 2185 1920 1782 
L 1920 1536 
C 896 1504 256 1209 256 711 
C 256 452 416 -64 947 -64 
C 1043 -64 1562 -52 1933 224 
L 1933 -13 
L 2406 -13 
L 2406 1789 
z
M 1920 824 
C 1920 711 1920 559 1728 446 
C 1562 339 1350 326 1261 326 
C 941 326 723 503 723 723 
C 723 1165 1722 1209 1920 1216 
L 1920 824 
z
" transform="scale(0.015625)"/>
       <path id="CMSS17-79" d="M 2675 2752 
L 2176 2752 
C 1632 1293 1446 701 1434 383 
L 1427 383 
C 1408 695 1126 1459 902 2006 
L 602 2752 
L 83 2752 
L 1216 14 
C 1146 -177 1043 -464 1011 -527 
C 870 -884 774 -884 672 -884 
C 646 -884 442 -877 211 -807 
L 250 -1229 
C 410 -1261 570 -1280 685 -1280 
C 845 -1280 1165 -1280 1459 -495 
L 2675 2752 
z
" transform="scale(0.015625)"/>
      </defs>
      <use xlink:href="#CMR17-52" transform="scale(0.996264)"/>
      <use xlink:href="#CMR17-61" transform="translate(67.791102 0)scale(0.996264)"/>
      <use xlink:href="#CMR17-74" transform="translate(113.481579 0)scale(0.996264)"/>
      <use xlink:href="#CMR17-65" transform="translate(148.762347 0)scale(0.996264)"/>
      <use xlink:href="#CMR17-5b" transform="translate(220.47712 0)scale(0.996264)"/>
      <use xlink:href="#CMSS17-6b" transform="translate(245.348179 0)scale(0.996264)"/>
      <use xlink:href="#CMSS17-67" transform="translate(290.950668 0)scale(0.996264)"/>
      <use xlink:href="#CMSY10-0" transform="translate(339.095457 36.153639)scale(0.697382)"/>
      <use xlink:href="#CMSS17-31" transform="translate(393.336451 36.153639)scale(0.697382)"/>
      <use xlink:href="#CMSS17-64" transform="translate(426.624964 0)scale(0.996264)"/>
      <use xlink:href="#CMSS17-61" transform="translate(474.829907 0)scale(0.996264)"/>
      <use xlink:href="#CMSS17-79" transform="translate(517.149374 0)scale(0.996264)"/>
      <use xlink:href="#CMSY10-0" transform="translate(561.450682 36.153639)scale(0.697382)"/>
      <use xlink:href="#CMSS17-31" transform="translate(615.691675 36.153639)scale(0.697382)"/>
      <use xlink:href="#CMSS17-6b" transform="translate(648.980188 0)scale(0.996264)"/>
      <use xlink:href="#CMSS17-65" transform="translate(691.980224 0)scale(0.996264)"/>
      <use xlink:href="#CMSS17-56" transform="translate(733.619046 0)scale(0.996264)"/>
      <use xlink:href="#CMSY10-0" transform="translate(797.138067 36.153639)scale(0.697382)"/>
      <use xlink:href="#CMSS17-31" transform="translate(851.37906 36.153639)scale(0.697382)"/>
      <use xlink:href="#CMR17-5d" transform="translate(884.667574 0)scale(0.996264)"/>
     </g>
    </g>
   </g>
   <g id="patch_3">
    <path d="M 172.8 433 
L 172.8 58.909091 
L 185.321739 58.909091 
L 185.321739 81.104725 
L 197.843478 81.104725 
L 197.843478 108.5385 
L 210.365217 108.5385 
L 210.365217 118.749286 
L 222.886957 118.749286 
L 222.886957 114.208873 
L 235.408696 114.208873 
L 235.408696 102.273368 
L 247.930435 102.273368 
L 247.930435 91.685845 
L 260.452174 91.685845 
L 260.452174 85.942337 
L 272.973913 85.942337 
L 272.973913 84.407426 
L 285.495652 84.407426 
L 285.495652 87.291827 
L 298.017391 87.291827 
L 298.017391 92.947163 
L 310.53913 92.947163 
L 310.53913 100.519023 
L 323.06087 100.519023 
L 323.06087 109.502866 
L 335.582609 109.502866 
L 335.582609 118.786741 
L 348.104348 118.786741 
L 348.104348 128.554229 
L 360.626087 128.554229 
L 360.626087 138.508861 
L 373.147826 138.508861 
L 373.147826 150.14108 
L 385.669565 150.14108 
L 385.669565 160.547496 
L 398.191304 160.547496 
L 398.191304 171.39961 
L 410.713043 171.39961 
L 410.713043 182.16079 
L 423.234783 182.16079 
L 423.234783 192.484095 
L 435.756522 192.484095 
L 435.756522 203.295892 
L 448.278261 203.295892 
L 448.278261 215.149266 
L 460.8 215.149266 
L 460.8 225.366524 
L 473.321739 225.366524 
L 473.321739 234.714487 
L 485.843478 234.714487 
L 485.843478 248.589809 
L 498.365217 248.589809 
L 498.365217 255.874543 
L 510.886957 255.874543 
L 510.886957 266.420343 
L 523.408696 266.420343 
L 523.408696 274.382559 
L 535.930435 274.382559 
L 535.930435 286.42703 
L 548.452174 286.42703 
L 548.452174 433 
" clip-path="url(#p44c9215d44)" style="fill: none; stroke-dasharray: 1.3,2.145; stroke-dashoffset: 0; stroke: #1f77b4; stroke-width: 1.3; stroke-linejoin: miter"/>
   </g>
   <g id="patch_4">
    <path d="M 172.8 433 
L 172.8 77.536899 
L 185.321739 77.536899 
L 185.321739 96.542835 
L 197.843478 96.542835 
L 197.843478 135.754226 
L 210.365217 135.754226 
L 210.365217 179.047535 
L 222.886957 179.047535 
L 222.886957 172.159084 
L 235.408696 172.159084 
L 235.408696 132.921394 
L 247.930435 132.921394 
L 247.930435 110.495851 
L 260.452174 110.495851 
L 260.452174 99.711658 
L 272.973913 99.711658 
L 272.973913 95.657144 
L 285.495652 95.657144 
L 285.495652 97.352841 
L 298.017391 97.352841 
L 298.017391 102.185878 
L 310.53913 102.185878 
L 310.53913 109.365868 
L 323.06087 109.365868 
L 323.06087 118.10906 
L 335.582609 118.10906 
L 335.582609 127.129964 
L 348.104348 127.129964 
L 348.104348 136.859335 
L 360.626087 136.859335 
L 360.626087 146.73574 
L 373.147826 146.73574 
L 373.147826 158.023335 
L 385.669565 158.023335 
L 385.669565 168.676682 
L 398.191304 168.676682 
L 398.191304 179.012982 
L 410.713043 179.012982 
L 410.713043 190.335237 
L 423.234783 190.335237 
L 423.234783 200.229661 
L 435.756522 200.229661 
L 435.756522 211.535215 
L 448.278261 211.535215 
L 448.278261 223.46326 
L 460.8 223.46326 
L 460.8 233.190304 
L 473.321739 233.190304 
L 473.321739 242.221153 
L 485.843478 242.221153 
L 485.843478 256.049082 
L 498.365217 256.049082 
L 498.365217 264.347335 
L 510.886957 264.347335 
L 510.886957 274.007362 
L 523.408696 274.007362 
L 523.408696 284.042586 
L 535.930435 284.042586 
L 535.930435 292.058888 
L 548.452174 292.058888 
L 548.452174 433 
" clip-path="url(#p44c9215d44)" style="fill: none; stroke-dasharray: 6.4,1.6,1,1.6; stroke-dashoffset: 0; stroke: #ff7f0e; stroke-linejoin: miter"/>
   </g>
   <g id="patch_5">
    <path d="M 172.8 433 
L 172.8 109.962382 
L 185.321739 109.962382 
L 185.321739 131.564942 
L 197.843478 131.564942 
L 197.843478 179.179297 
L 210.365217 179.179297 
L 210.365217 230.889095 
L 222.886957 230.889095 
L 222.886957 285.20499 
L 235.408696 285.20499 
L 235.408696 334.746764 
L 247.930435 334.746764 
L 247.930435 433 
M 260.452174 433 
L 260.452174 356.576985 
L 272.973913 356.576985 
L 272.973913 433 
M 348.104348 433 
L 348.104348 373.090909 
L 360.626087 373.090909 
L 360.626087 356.576985 
L 373.147826 356.576985 
L 373.147826 433 
" clip-path="url(#p44c9215d44)" style="fill: none; stroke-dasharray: 4.81,2.08; stroke-dashoffset: 0; stroke: #2ca02c; stroke-width: 1.3; stroke-linejoin: miter"/>
   </g>
   <g id="patch_6">
    <path d="M 172.8 433 
L 172.8 151.3295 
L 185.321739 151.3295 
L 185.321739 195.457949 
L 197.843478 195.457949 
L 197.843478 275.945386 
L 210.365217 275.945386 
L 210.365217 334.746764 
L 222.886957 334.746764 
L 222.886957 356.576985 
L 235.408696 356.576985 
L 235.408696 433 
" clip-path="url(#p44c9215d44)" style="fill: none; stroke: #d62728; stroke-width: 2; stroke-linejoin: miter"/>
   </g>
   <g id="patch_7">
    <path d="M 172.8 388.8 
L 172.8 43.2 
" style="fill: none; stroke: #000000; stroke-width: 0.8; stroke-linejoin: miter; stroke-linecap: square"/>
   </g>
   <g id="patch_8">
    <path d="M 548.452174 388.8 
L 548.452174 43.2 
" style="fill: none; stroke: #000000; stroke-width: 0.8; stroke-linejoin: miter; stroke-linecap: square"/>
   </g>
   <g id="patch_9">
    <path d="M 172.8 388.8 
L 548.452174 388.8 
" style="fill: none; stroke: #000000; stroke-width: 0.8; stroke-linejoin: miter; stroke-linecap: square"/>
   </g>
   <g id="patch_10">
    <path d="M 172.8 43.2 
L 548.452174 43.2 
" style="fill: none; stroke: #000000; stroke-width: 0.8; stroke-linejoin: miter; stroke-linecap: square"/>
   </g>
   <g id="legend_1">
    <g id="patch_11">
     <path d="M 384.689986 138.822979 
L 537.952174 138.822979 
Q 540.952174 138.822979 540.952174 135.822979 
L 540.952174 53.7 
Q 540.952174 50.7 537.952174 50.7 
L 384.689986 50.7 
Q 381.689986 50.7 381.689986 53.7 
L 381.689986 135.822979 
Q 381.689986 138.822979 384.689986 138.822979 
z
" style="fill: #ffffff; opacity: 0.8; stroke: #cccccc; stroke-linejoin: miter"/>
    </g>
    <g id="patch_12">
     <path d="M 387.689986 67.2 
L 417.689986 67.2 
L 417.689986 56.7 
L 387.689986 56.7 
L 387.689986 67.2 
z
" style="fill: none; stroke-dasharray: 1.3,2.145; stroke-dashoffset: 0; stroke: #1f77b4; stroke-width: 1.3; stroke-linejoin: miter"/>
    </g>
    <g id="text_16">
     <!-- $\mathrm{No\ cut\ applied}$ -->
     <g transform="translate(429.689986 67.2)scale(0.15 -0.15)">
      <defs>
       <path id="CMR17-4e" d="M 1312 4275 
C 1267 4345 1261 4352 1139 4352 
L 326 4352 
L 326 4185 
L 448 4185 
C 704 4185 819 4153 838 4147 
L 838 624 
C 838 465 838 166 326 166 
L 326 0 
C 474 12 742 12 902 12 
C 1062 12 1331 12 1478 0 
L 1478 166 
C 966 166 966 465 966 624 
L 966 4057 
C 1011 4019 1011 4007 1056 3943 
L 3430 76 
C 3475 0 3494 0 3526 0 
C 3590 0 3590 19 3590 140 
L 3590 3726 
C 3590 3885 3590 4185 4102 4185 
L 4102 4352 
C 3955 4339 3686 4339 3526 4339 
C 3366 4339 3098 4339 2950 4352 
L 2950 4185 
C 3462 4185 3462 3885 3462 3726 
L 3462 777 
L 1312 4275 
z
" transform="scale(0.015625)"/>
       <path id="CMR17-6f" d="M 2758 1356 
C 2758 2176 2163 2816 1466 2816 
C 768 2816 173 2176 173 1356 
C 173 550 768 -64 1466 -64 
C 2163 -64 2758 550 2758 1356 
z
M 1466 51 
C 1165 51 909 230 762 480 
C 602 768 582 1126 582 1408 
C 582 1676 595 2009 762 2297 
C 890 2508 1139 2713 1466 2713 
C 1754 2713 1997 2553 2150 2329 
C 2349 2028 2349 1606 2349 1408 
C 2349 1158 2336 774 2163 467 
C 1984 172 1709 51 1466 51 
z
" transform="scale(0.015625)"/>
       <path id="CMR17-70" d="M 1408 -1114 
C 998 -1114 973 -1088 973 -834 
L 973 380 
C 1158 109 1427 -64 1766 -64 
C 2406 -64 3053 503 3053 1382 
C 3053 2196 2496 2816 1837 2816 
C 1453 2816 1139 2603 960 2345 
L 960 2816 
L 198 2745 
L 198 2577 
C 576 2577 634 2539 634 2228 
L 634 -834 
C 634 -1081 608 -1114 198 -1114 
L 198 -1280 
C 352 -1268 634 -1268 800 -1268 
C 966 -1268 1254 -1268 1408 -1280 
L 1408 -1114 
z
M 973 2015 
C 973 2106 973 2241 1222 2481 
C 1254 2506 1472 2700 1792 2700 
C 2259 2700 2643 2112 2643 1376 
C 2643 639 2234 38 1728 38 
C 1498 38 1248 148 1056 451 
C 973 594 973 632 973 736 
L 973 2015 
z
" transform="scale(0.015625)"/>
       <path id="CMR17-6c" d="M 979 4416 
L 218 4345 
L 218 4179 
C 595 4179 653 4141 653 3835 
L 653 439 
C 653 198 627 166 218 166 
L 218 0 
C 371 12 653 12 813 12 
C 979 12 1261 12 1414 0 
L 1414 166 
C 1005 166 979 191 979 439 
L 979 4416 
z
" transform="scale(0.015625)"/>
      </defs>
      <use xlink:href="#CMR17-4e" transform="scale(0.996264)"/>
      <use xlink:href="#CMR17-6f" transform="translate(69.07243 0)scale(0.996264)"/>
      <use xlink:href="#CMR17-63" transform="translate(145.99202 0)scale(0.996264)"/>
      <use xlink:href="#CMR17-75" transform="translate(186.47768 0)scale(0.996264)"/>
      <use xlink:href="#CMR17-74" transform="translate(237.37305 0)scale(0.996264)"/>
      <use xlink:href="#CMR17-61" transform="translate(303.88293 0)scale(0.996264)"/>
      <use xlink:href="#CMR17-70" transform="translate(349.573408 0)scale(0.996264)"/>
      <use xlink:href="#CMR17-70" transform="translate(400.468777 0)scale(0.996264)"/>
      <use xlink:href="#CMR17-6c" transform="translate(451.364147 0)scale(0.996264)"/>
      <use xlink:href="#CMR17-69" transform="translate(476.235206 0)scale(0.996264)"/>
      <use xlink:href="#CMR17-65" transform="translate(501.106264 0)scale(0.996264)"/>
      <use xlink:href="#CMR17-64" transform="translate(541.591925 0)scale(0.996264)"/>
     </g>
    </g>
    <g id="patch_13">
     <path d="M 387.689986 88.105745 
L 417.689986 88.105745 
L 417.689986 77.605745 
L 387.689986 77.605745 
L 387.689986 88.105745 
z
" style="fill: none; stroke-dasharray: 6.4,1.6,1,1.6; stroke-dashoffset: 0; stroke: #ff7f0e; stroke-linejoin: miter"/>
    </g>
    <g id="text_17">
     <!-- $\mathrm{After\ FV\ cut}$ -->
     <g transform="translate(429.689986 88.105745)scale(0.15 -0.15)">
      <defs>
       <path id="CMR17-41" d="M 2323 4441 
C 2291 4524 2278 4544 2214 4544 
C 2150 4544 2138 4524 2106 4441 
L 749 580 
C 627 236 371 166 147 166 
L 147 0 
C 262 12 518 12 640 12 
C 800 12 1056 12 1210 0 
L 1210 166 
C 909 179 864 382 864 459 
C 864 516 877 548 890 586 
L 1229 1536 
L 2906 1536 
L 3290 453 
C 3322 376 3322 363 3322 338 
C 3322 166 3046 166 2925 166 
L 2925 0 
C 3110 12 3443 12 3642 12 
C 3808 12 4128 12 4282 0 
L 4282 166 
C 3942 166 3827 166 3744 402 
L 2323 4441 
z
M 2067 3924 
L 2848 1702 
L 1286 1702 
L 2067 3924 
z
" transform="scale(0.015625)"/>
       <path id="CMR17-66" d="M 979 2585 
L 1709 2585 
L 1709 2752 
L 966 2752 
L 966 3539 
C 966 4076 1235 4377 1510 4377 
C 1594 4377 1690 4363 1754 4339 
C 1702 4326 1568 4281 1568 4121 
C 1568 3955 1696 3904 1786 3904 
C 1875 3904 2003 3955 2003 4121 
C 2003 4353 1773 4480 1517 4480 
C 1152 4480 653 4211 653 3526 
L 653 2752 
L 141 2752 
L 141 2585 
L 653 2585 
L 653 441 
C 653 198 627 166 218 166 
L 218 0 
C 371 12 666 12 832 12 
C 1018 12 1344 12 1517 0 
L 1517 166 
C 1056 166 979 166 979 454 
L 979 2585 
z
" transform="scale(0.015625)"/>
       <path id="CMR17-72" d="M 960 1517 
C 960 2134 1222 2713 1702 2713 
C 1747 2713 1792 2707 1837 2687 
C 1837 2687 1696 2642 1696 2475 
C 1696 2321 1818 2257 1914 2257 
C 1990 2257 2131 2302 2131 2482 
C 2131 2687 1926 2816 1709 2816 
C 1222 2816 1011 2340 947 2115 
L 941 2115 
L 941 2816 
L 198 2745 
L 198 2578 
C 576 2578 634 2540 634 2231 
L 634 443 
C 634 198 608 166 198 166 
L 198 0 
C 352 12 646 12 813 12 
C 998 12 1325 12 1498 0 
L 1498 166 
C 1037 166 960 166 960 455 
L 960 1517 
z
" transform="scale(0.015625)"/>
       <path id="CMR17-46" d="M 3482 4339 
L 326 4339 
L 326 4172 
C 768 4172 838 4172 838 3883 
L 838 450 
C 838 166 768 166 326 166 
L 326 0 
C 512 12 870 12 1069 12 
C 1331 12 1638 12 1901 0 
L 1901 166 
L 1760 166 
C 1274 166 1261 229 1261 456 
L 1261 2073 
L 1837 2073 
C 2432 2073 2490 1865 2490 1334 
L 2605 1334 
L 2605 2991 
L 2490 2991 
C 2490 2451 2432 2240 1837 2240 
L 1261 2240 
L 1261 3922 
C 1261 4140 1274 4172 1530 4172 
L 2355 4172 
C 3322 4172 3430 3774 3520 2920 
L 3635 2920 
L 3482 4339 
z
" transform="scale(0.015625)"/>
       <path id="CMR17-56" d="M 3776 3762 
C 3834 3903 3936 4179 4365 4185 
L 4365 4352 
C 4218 4339 4051 4339 3891 4339 
C 3738 4339 3475 4339 3328 4352 
L 3328 4185 
C 3648 4166 3661 3942 3661 3903 
C 3661 3833 3642 3788 3622 3737 
L 2362 448 
L 1043 3903 
C 1024 3948 1011 3980 1011 4012 
C 1011 4185 1267 4185 1402 4185 
L 1402 4352 
C 1197 4339 896 4339 685 4339 
C 518 4339 218 4339 64 4352 
L 64 4185 
C 435 4185 506 4160 582 3955 
L 2106 -26 
C 2138 -116 2144 -128 2214 -128 
C 2285 -128 2291 -116 2323 -26 
L 3776 3762 
z
" transform="scale(0.015625)"/>
      </defs>
      <use xlink:href="#CMR17-41" transform="scale(0.996264)"/>
      <use xlink:href="#CMR17-66" transform="translate(69.07243 0)scale(0.996264)"/>
      <use xlink:href="#CMR17-74" transform="translate(96.545942 0)scale(0.996264)"/>
      <use xlink:href="#CMR17-65" transform="translate(131.82671 0)scale(0.996264)"/>
      <use xlink:href="#CMR17-72" transform="translate(172.31237 0)scale(0.996264)"/>
      <use xlink:href="#CMR17-46" transform="translate(238.822251 0)scale(0.996264)"/>
      <use xlink:href="#CMR17-56" transform="translate(298.806098 0)scale(0.996264)"/>
      <use xlink:href="#CMR17-63" transform="translate(400.408806 0)scale(0.996264)"/>
      <use xlink:href="#CMR17-75" transform="translate(440.894467 0)scale(0.996264)"/>
      <use xlink:href="#CMR17-74" transform="translate(491.789837 0)scale(0.996264)"/>
     </g>
    </g>
    <g id="patch_14">
     <path d="M 387.689986 109.011489 
L 417.689986 109.011489 
L 417.689986 98.511489 
L 387.689986 98.511489 
L 387.689986 109.011489 
z
" style="fill: none; stroke-dasharray: 4.81,2.08; stroke-dashoffset: 0; stroke: #2ca02c; stroke-width: 1.3; stroke-linejoin: miter"/>
    </g>
    <g id="text_18">
     <!-- $\mathrm{After\ LXe\ veto}$ -->
     <g transform="translate(429.689986 109.011489)scale(0.15 -0.15)">
      <defs>
       <path id="CMR17-4c" d="M 3469 1612 
L 3354 1612 
C 3302 981 3219 166 2125 166 
L 1530 166 
C 1274 166 1261 198 1261 414 
L 1261 3892 
C 1261 4121 1274 4185 1760 4185 
L 1901 4185 
L 1901 4352 
C 1638 4339 1331 4339 1069 4339 
C 870 4339 512 4339 326 4352 
L 326 4185 
C 768 4185 838 4185 838 3898 
L 838 453 
C 838 166 768 166 326 166 
L 326 0 
L 3315 0 
L 3469 1612 
z
" transform="scale(0.015625)"/>
       <path id="CMR17-58" d="M 2336 2414 
L 3283 3771 
C 3379 3905 3571 4178 4096 4185 
L 4096 4352 
C 3949 4339 3706 4339 3552 4339 
C 3341 4339 3078 4339 2918 4352 
L 2918 4185 
C 3123 4166 3174 4038 3174 3936 
C 3174 3860 3142 3809 3098 3745 
L 2253 2529 
L 1306 3905 
C 1261 3975 1254 3994 1254 4013 
C 1254 4070 1325 4178 1536 4185 
L 1536 4352 
C 1331 4339 1018 4339 806 4339 
C 640 4339 320 4339 166 4352 
L 166 4185 
C 518 4185 634 4172 774 3975 
L 2010 2179 
L 896 567 
C 621 172 205 166 83 166 
L 83 0 
C 230 12 474 12 627 12 
C 800 12 1101 12 1261 0 
L 1261 166 
C 1062 185 1005 312 1005 414 
C 1005 497 1037 542 1069 586 
L 2093 2064 
L 3206 446 
C 3258 376 3258 357 3258 338 
C 3258 287 3200 179 2976 166 
L 2976 0 
C 3181 12 3494 12 3706 12 
C 3872 12 4192 12 4346 0 
L 4346 166 
C 3936 166 3872 198 3744 376 
L 2336 2414 
z
" transform="scale(0.015625)"/>
       <path id="CMR17-76" d="M 2502 2173 
C 2560 2315 2662 2572 3034 2585 
L 3034 2752 
C 2912 2745 2752 2739 2630 2739 
C 2496 2739 2285 2739 2157 2752 
L 2157 2585 
C 2317 2572 2406 2495 2406 2328 
C 2406 2270 2406 2257 2368 2167 
L 1664 379 
L 902 2308 
C 864 2392 864 2405 864 2431 
C 864 2585 1075 2585 1171 2585 
L 1171 2752 
C 1018 2739 736 2739 576 2739 
C 403 2739 205 2739 64 2752 
L 64 2585 
C 307 2585 442 2585 518 2386 
L 1446 44 
C 1485 -52 1491 -64 1549 -64 
C 1606 -64 1613 -52 1651 44 
L 2502 2173 
z
" transform="scale(0.015625)"/>
      </defs>
      <use xlink:href="#CMR17-41" transform="scale(0.996264)"/>
      <use xlink:href="#CMR17-66" transform="translate(69.07243 0)scale(0.996264)"/>
      <use xlink:href="#CMR17-74" transform="translate(96.545942 0)scale(0.996264)"/>
      <use xlink:href="#CMR17-65" transform="translate(131.82671 0)scale(0.996264)"/>
      <use xlink:href="#CMR17-72" transform="translate(172.31237 0)scale(0.996264)"/>
      <use xlink:href="#CMR17-4c" transform="translate(238.822251 0)scale(0.996264)"/>
      <use xlink:href="#CMR17-58" transform="translate(296.203659 0)scale(0.996264)"/>
      <use xlink:href="#CMR17-65" transform="translate(365.276089 0)scale(0.996264)"/>
      <use xlink:href="#CMR17-76" transform="translate(436.990862 0)scale(0.996264)"/>
      <use xlink:href="#CMR17-65" transform="translate(482.681324 0)scale(0.996264)"/>
      <use xlink:href="#CMR17-74" transform="translate(523.166984 0)scale(0.996264)"/>
      <use xlink:href="#CMR17-6f" transform="translate(558.447752 0)scale(0.996264)"/>
     </g>
    </g>
    <g id="patch_15">
     <path d="M 387.689986 129.917234 
L 417.689986 129.917234 
L 417.689986 119.417234 
L 387.689986 119.417234 
L 387.689986 129.917234 
z
" style="fill: none; stroke: #d62728; stroke-width: 2; stroke-linejoin: miter"/>
    </g>
    <g id="text_19">
     <!-- $\mathrm{After\ ER\ SS\ cut}$ -->
     <g transform="translate(429.689986 129.917234)scale(0.15 -0.15)">
      <defs>
       <path id="CMR17-53" d="M 2803 4351 
C 2803 4467 2797 4473 2758 4473 
C 2720 4473 2707 4447 2682 4390 
L 2490 3965 
C 2246 4320 1875 4480 1472 4480 
C 819 4480 294 3958 294 3301 
C 294 3101 339 2817 557 2546 
C 794 2250 1018 2198 1530 2063 
C 1722 2011 2042 1927 2106 1901 
C 2470 1747 2662 1360 2662 999 
C 2662 534 2336 38 1779 38 
C 1094 38 454 425 410 1328 
C 403 1431 397 1437 352 1437 
C 301 1437 294 1431 294 1302 
L 294 0 
C 294 -116 301 -122 339 -122 
C 384 -122 397 -90 486 109 
C 493 128 493 141 614 386 
C 934 -39 1472 -128 1779 -128 
C 2477 -128 2970 457 2970 1141 
C 2970 1476 2848 1734 2778 1850 
C 2509 2263 2221 2340 1914 2417 
C 1869 2437 1856 2437 1498 2527 
C 1152 2617 1005 2662 845 2836 
C 666 3036 602 3243 602 3449 
C 602 3868 934 4326 1478 4326 
C 2157 4326 2579 3842 2675 3036 
C 2694 2920 2701 2914 2746 2914 
C 2803 2914 2803 2933 2803 3043 
L 2803 4351 
z
" transform="scale(0.015625)"/>
      </defs>
      <use xlink:href="#CMR17-41" transform="scale(0.996264)"/>
      <use xlink:href="#CMR17-66" transform="translate(69.07243 0)scale(0.996264)"/>
      <use xlink:href="#CMR17-74" transform="translate(96.545942 0)scale(0.996264)"/>
      <use xlink:href="#CMR17-65" transform="translate(131.82671 0)scale(0.996264)"/>
      <use xlink:href="#CMR17-72" transform="translate(172.31237 0)scale(0.996264)"/>
      <use xlink:href="#CMR17-45" transform="translate(238.822251 0)scale(0.996264)"/>
      <use xlink:href="#CMR17-52" transform="translate(301.408552 0)scale(0.996264)"/>
      <use xlink:href="#CMR17-53" transform="translate(400.428766 0)scale(0.996264)"/>
      <use xlink:href="#CMR17-53" transform="translate(451.324136 0)scale(0.996264)"/>
      <use xlink:href="#CMR17-63" transform="translate(533.448619 0)scale(0.996264)"/>
      <use xlink:href="#CMR17-75" transform="translate(573.934279 0)scale(0.996264)"/>
      <use xlink:href="#CMR17-74" transform="translate(624.829649 0)scale(0.996264)"/>
     </g>
    </g>
   </g>
  </g>
  <g id="axes_2">
   <g id="patch_16">
    <path d="M 661.147826 388.8 
L 1036.8 388.8 
L 1036.8 43.2 
L 661.147826 43.2 
L 661.147826 388.8 
z
" style="fill: none"/>
   </g>
   <g id="matplotlib.axis_3">
    <g id="xtick_7">
     <g id="line2d_75">
      <path d="M 661.147826 388.8 
L 661.147826 43.2 
" clip-path="url(#p2e46c29acf)" style="fill: none; stroke: #b0b0b0; stroke-width: 0.8; stroke-linecap: square"/>
     </g>
     <g id="line2d_76">
      <g>
       <use xlink:href="#mbc0065ba0e" x="661.147826" y="388.8" style="stroke: #000000; stroke-width: 0.8"/>
      </g>
     </g>
     <g id="text_20">
      <!-- $\mathdefault{0}$ -->
      <g transform="translate(656.578778 409.636997)scale(0.2 -0.2)">
       <use xlink:href="#CMR17-30" transform="scale(0.996264)"/>
      </g>
     </g>
    </g>
    <g id="xtick_8">
     <g id="line2d_77">
      <path d="M 736.278261 388.8 
L 736.278261 43.2 
" clip-path="url(#p2e46c29acf)" style="fill: none; stroke: #b0b0b0; stroke-width: 0.8; stroke-linecap: square"/>
     </g>
     <g id="line2d_78">
      <g>
       <use xlink:href="#mbc0065ba0e" x="736.278261" y="388.8" style="stroke: #000000; stroke-width: 0.8"/>
      </g>
     </g>
     <g id="text_21">
      <!-- $\mathdefault{20}$ -->
      <g transform="translate(727.140165 409.636997)scale(0.2 -0.2)">
       <use xlink:href="#CMR17-32" transform="scale(0.996264)"/>
       <use xlink:href="#CMR17-30" transform="translate(45.690477 0)scale(0.996264)"/>
      </g>
     </g>
    </g>
    <g id="xtick_9">
     <g id="line2d_79">
      <path d="M 811.408696 388.8 
L 811.408696 43.2 
" clip-path="url(#p2e46c29acf)" style="fill: none; stroke: #b0b0b0; stroke-width: 0.8; stroke-linecap: square"/>
     </g>
     <g id="line2d_80">
      <g>
       <use xlink:href="#mbc0065ba0e" x="811.408696" y="388.8" style="stroke: #000000; stroke-width: 0.8"/>
      </g>
     </g>
     <g id="text_22">
      <!-- $\mathdefault{40}$ -->
      <g transform="translate(802.2706 409.636997)scale(0.2 -0.2)">
       <use xlink:href="#CMR17-34" transform="scale(0.996264)"/>
       <use xlink:href="#CMR17-30" transform="translate(45.690477 0)scale(0.996264)"/>
      </g>
     </g>
    </g>
    <g id="xtick_10">
     <g id="line2d_81">
      <path d="M 886.53913 388.8 
L 886.53913 43.2 
" clip-path="url(#p2e46c29acf)" style="fill: none; stroke: #b0b0b0; stroke-width: 0.8; stroke-linecap: square"/>
     </g>
     <g id="line2d_82">
      <g>
       <use xlink:href="#mbc0065ba0e" x="886.53913" y="388.8" style="stroke: #000000; stroke-width: 0.8"/>
      </g>
     </g>
     <g id="text_23">
      <!-- $\mathdefault{60}$ -->
      <g transform="translate(877.401035 409.636997)scale(0.2 -0.2)">
       <use xlink:href="#CMR17-36" transform="scale(0.996264)"/>
       <use xlink:href="#CMR17-30" transform="translate(45.690477 0)scale(0.996264)"/>
      </g>
     </g>
    </g>
    <g id="xtick_11">
     <g id="line2d_83">
      <path d="M 961.669565 388.8 
L 961.669565 43.2 
" clip-path="url(#p2e46c29acf)" style="fill: none; stroke: #b0b0b0; stroke-width: 0.8; stroke-linecap: square"/>
     </g>
     <g id="line2d_84">
      <g>
       <use xlink:href="#mbc0065ba0e" x="961.669565" y="388.8" style="stroke: #000000; stroke-width: 0.8"/>
      </g>
     </g>
     <g id="text_24">
      <!-- $\mathdefault{80}$ -->
      <g transform="translate(952.53147 409.636997)scale(0.2 -0.2)">
       <defs>
        <path id="CMR17-38" d="M 1741 2289 
C 2144 2494 2554 2803 2554 3298 
C 2554 3884 1990 4224 1472 4224 
C 890 4224 378 3800 378 3215 
C 378 3054 416 2777 666 2533 
C 730 2469 998 2276 1171 2154 
C 883 2006 211 1652 211 945 
C 211 282 838 -128 1459 -128 
C 2144 -128 2720 366 2720 1022 
C 2720 1607 2330 1877 2074 2051 
L 1741 2289 
z
M 902 2855 
C 851 2887 595 3086 595 3388 
C 595 3781 998 4076 1459 4076 
C 1965 4076 2336 3716 2336 3298 
C 2336 2700 1670 2359 1638 2359 
C 1632 2359 1626 2359 1574 2398 
L 902 2855 
z
M 2080 1536 
C 2176 1466 2483 1253 2483 861 
C 2483 385 2010 25 1472 25 
C 890 25 448 443 448 951 
C 448 1459 838 1884 1280 2083 
L 2080 1536 
z
" transform="scale(0.015625)"/>
       </defs>
       <use xlink:href="#CMR17-38" transform="scale(0.996264)"/>
       <use xlink:href="#CMR17-30" transform="translate(45.690477 0)scale(0.996264)"/>
      </g>
     </g>
    </g>
    <g id="xtick_12">
     <g id="line2d_85">
      <path d="M 1036.8 388.8 
L 1036.8 43.2 
" clip-path="url(#p2e46c29acf)" style="fill: none; stroke: #b0b0b0; stroke-width: 0.8; stroke-linecap: square"/>
     </g>
     <g id="line2d_86">
      <g>
       <use xlink:href="#mbc0065ba0e" x="1036.8" y="388.8" style="stroke: #000000; stroke-width: 0.8"/>
      </g>
     </g>
     <g id="text_25">
      <!-- $\mathdefault{100}$ -->
      <g transform="translate(1023.092857 409.636997)scale(0.2 -0.2)">
       <use xlink:href="#CMR17-31" transform="scale(0.996264)"/>
       <use xlink:href="#CMR17-30" transform="translate(45.690477 0)scale(0.996264)"/>
       <use xlink:href="#CMR17-30" transform="translate(91.380954 0)scale(0.996264)"/>
      </g>
     </g>
    </g>
    <g id="text_26">
     <!-- $\mu\ \mathrm{induced\ ER}\ [\si{keV}]$ -->
     <g transform="translate(769.965963 432.438652)scale(0.2 -0.2)">
      <use xlink:href="#CMMI12-16" transform="scale(0.996264)"/>
      <use xlink:href="#CMR17-69" transform="translate(89.920534 0)scale(0.996264)"/>
      <use xlink:href="#CMR17-6e" transform="translate(114.791593 0)scale(0.996264)"/>
      <use xlink:href="#CMR17-64" transform="translate(165.686962 0)scale(0.996264)"/>
      <use xlink:href="#CMR17-75" transform="translate(216.582332 0)scale(0.996264)"/>
      <use xlink:href="#CMR17-63" transform="translate(267.477702 0)scale(0.996264)"/>
      <use xlink:href="#CMR17-65" transform="translate(307.963362 0)scale(0.996264)"/>
      <use xlink:href="#CMR17-64" transform="translate(348.449023 0)scale(0.996264)"/>
      <use xlink:href="#CMR17-45" transform="translate(430.573505 0)scale(0.996264)"/>
      <use xlink:href="#CMR17-52" transform="translate(493.159806 0)scale(0.996264)"/>
      <use xlink:href="#CMR17-5b" transform="translate(592.180021 0)scale(0.996264)"/>
      <use xlink:href="#CMSS17-6b" transform="translate(617.051079 0)scale(0.996264)"/>
      <use xlink:href="#CMSS17-65" transform="translate(660.051114 0)scale(0.996264)"/>
      <use xlink:href="#CMSS17-56" transform="translate(701.689937 0)scale(0.996264)"/>
      <use xlink:href="#CMR17-5d" transform="translate(765.208958 0)scale(0.996264)"/>
     </g>
    </g>
   </g>
   <g id="matplotlib.axis_4">
    <g id="ytick_56">
     <g id="line2d_87">
      <path d="M 661.147826 382.771459 
L 1036.8 382.771459 
" clip-path="url(#p2e46c29acf)" style="fill: none; stroke: #b0b0b0; stroke-width: 0.8; stroke-linecap: square"/>
     </g>
     <g id="line2d_88">
      <g>
       <use xlink:href="#meae76b39ea" x="661.147826" y="382.771459" style="stroke: #000000; stroke-width: 0.8"/>
      </g>
     </g>
     <g id="text_27">
      <!-- $\mathdefault{10^{-3}}$ -->
      <g transform="translate(618.194987 389.689957)scale(0.2 -0.2)">
       <use xlink:href="#CMR17-31" transform="scale(0.996264)"/>
       <use xlink:href="#CMR17-30" transform="translate(45.690477 0)scale(0.996264)"/>
       <use xlink:href="#CMSY10-0" transform="translate(91.380954 36.153639)scale(0.697382)"/>
       <use xlink:href="#CMR17-33" transform="translate(145.621947 36.153639)scale(0.697382)"/>
      </g>
     </g>
    </g>
    <g id="ytick_57">
     <g id="line2d_89">
      <path d="M 661.147826 192.514786 
L 1036.8 192.514786 
" clip-path="url(#p2e46c29acf)" style="fill: none; stroke: #b0b0b0; stroke-width: 0.8; stroke-linecap: square"/>
     </g>
     <g id="line2d_90">
      <g>
       <use xlink:href="#meae76b39ea" x="661.147826" y="192.514786" style="stroke: #000000; stroke-width: 0.8"/>
      </g>
     </g>
     <g id="text_28">
      <!-- $\mathdefault{10^{-2}}$ -->
      <g transform="translate(618.194987 199.433284)scale(0.2 -0.2)">
       <use xlink:href="#CMR17-31" transform="scale(0.996264)"/>
       <use xlink:href="#CMR17-30" transform="translate(45.690477 0)scale(0.996264)"/>
       <use xlink:href="#CMSY10-0" transform="translate(91.380954 36.153639)scale(0.697382)"/>
       <use xlink:href="#CMR17-32" transform="translate(145.621947 36.153639)scale(0.697382)"/>
      </g>
     </g>
    </g>
    <g id="ytick_58">
     <g id="line2d_91">
      <g>
       <use xlink:href="#m8a1947712c" x="661.147826" y="325.498493" style="stroke: #000000; stroke-width: 0.6"/>
      </g>
     </g>
    </g>
    <g id="ytick_59">
     <g id="line2d_92">
      <g>
       <use xlink:href="#m8a1947712c" x="661.147826" y="291.995956" style="stroke: #000000; stroke-width: 0.6"/>
      </g>
     </g>
    </g>
    <g id="ytick_60">
     <g id="line2d_93">
      <g>
       <use xlink:href="#m8a1947712c" x="661.147826" y="268.225528" style="stroke: #000000; stroke-width: 0.6"/>
      </g>
     </g>
    </g>
    <g id="ytick_61">
     <g id="line2d_94">
      <g>
       <use xlink:href="#m8a1947712c" x="661.147826" y="249.787751" style="stroke: #000000; stroke-width: 0.6"/>
      </g>
     </g>
    </g>
    <g id="ytick_62">
     <g id="line2d_95">
      <g>
       <use xlink:href="#m8a1947712c" x="661.147826" y="234.722991" style="stroke: #000000; stroke-width: 0.6"/>
      </g>
     </g>
    </g>
    <g id="ytick_63">
     <g id="line2d_96">
      <g>
       <use xlink:href="#m8a1947712c" x="661.147826" y="221.985918" style="stroke: #000000; stroke-width: 0.6"/>
      </g>
     </g>
    </g>
    <g id="ytick_64">
     <g id="line2d_97">
      <g>
       <use xlink:href="#m8a1947712c" x="661.147826" y="210.952563" style="stroke: #000000; stroke-width: 0.6"/>
      </g>
     </g>
    </g>
    <g id="ytick_65">
     <g id="line2d_98">
      <g>
       <use xlink:href="#m8a1947712c" x="661.147826" y="201.220454" style="stroke: #000000; stroke-width: 0.6"/>
      </g>
     </g>
    </g>
    <g id="ytick_66">
     <g id="line2d_99">
      <g>
       <use xlink:href="#m8a1947712c" x="661.147826" y="135.241821" style="stroke: #000000; stroke-width: 0.6"/>
      </g>
     </g>
    </g>
    <g id="ytick_67">
     <g id="line2d_100">
      <g>
       <use xlink:href="#m8a1947712c" x="661.147826" y="101.739284" style="stroke: #000000; stroke-width: 0.6"/>
      </g>
     </g>
    </g>
    <g id="ytick_68">
     <g id="line2d_101">
      <g>
       <use xlink:href="#m8a1947712c" x="661.147826" y="77.968855" style="stroke: #000000; stroke-width: 0.6"/>
      </g>
     </g>
    </g>
    <g id="ytick_69">
     <g id="line2d_102">
      <g>
       <use xlink:href="#m8a1947712c" x="661.147826" y="59.531079" style="stroke: #000000; stroke-width: 0.6"/>
      </g>
     </g>
    </g>
    <g id="ytick_70">
     <g id="line2d_103">
      <g>
       <use xlink:href="#m8a1947712c" x="661.147826" y="44.466318" style="stroke: #000000; stroke-width: 0.6"/>
      </g>
     </g>
    </g>
    <g id="text_29">
     <!-- $\mathrm{Rate}\ [\si{kg^{-1}day^{-1}keV^{-1}}]$ -->
     <g transform="translate(609.230344 307.957132)rotate(-90)scale(0.2 -0.2)">
      <use xlink:href="#CMR17-52" transform="scale(0.996264)"/>
      <use xlink:href="#CMR17-61" transform="translate(67.791102 0)scale(0.996264)"/>
      <use xlink:href="#CMR17-74" transform="translate(113.481579 0)scale(0.996264)"/>
      <use xlink:href="#CMR17-65" transform="translate(148.762347 0)scale(0.996264)"/>
      <use xlink:href="#CMR17-5b" transform="translate(220.47712 0)scale(0.996264)"/>
      <use xlink:href="#CMSS17-6b" transform="translate(245.348179 0)scale(0.996264)"/>
      <use xlink:href="#CMSS17-67" transform="translate(290.950668 0)scale(0.996264)"/>
      <use xlink:href="#CMSY10-0" transform="translate(339.095457 36.153639)scale(0.697382)"/>
      <use xlink:href="#CMSS17-31" transform="translate(393.336451 36.153639)scale(0.697382)"/>
      <use xlink:href="#CMSS17-64" transform="translate(426.624964 0)scale(0.996264)"/>
      <use xlink:href="#CMSS17-61" transform="translate(474.829907 0)scale(0.996264)"/>
      <use xlink:href="#CMSS17-79" transform="translate(517.149374 0)scale(0.996264)"/>
      <use xlink:href="#CMSY10-0" transform="translate(561.450682 36.153639)scale(0.697382)"/>
      <use xlink:href="#CMSS17-31" transform="translate(615.691675 36.153639)scale(0.697382)"/>
      <use xlink:href="#CMSS17-6b" transform="translate(648.980188 0)scale(0.996264)"/>
      <use xlink:href="#CMSS17-65" transform="translate(691.980224 0)scale(0.996264)"/>
      <use xlink:href="#CMSS17-56" transform="translate(733.619046 0)scale(0.996264)"/>
      <use xlink:href="#CMSY10-0" transform="translate(797.138067 36.153639)scale(0.697382)"/>
      <use xlink:href="#CMSS17-31" transform="translate(851.37906 36.153639)scale(0.697382)"/>
      <use xlink:href="#CMR17-5d" transform="translate(884.667574 0)scale(0.996264)"/>
     </g>
    </g>
   </g>
   <g id="patch_17">
    <path d="M 661.147826 433 
L 661.147826 114.062329 
L 698.713043 114.062329 
L 698.713043 135.406646 
L 736.278261 135.406646 
L 736.278261 72.914672 
L 773.843478 72.914672 
L 773.843478 58.909091 
L 811.408696 58.909091 
L 811.408696 101.734268 
L 848.973913 101.734268 
L 848.973913 98.571906 
L 886.53913 98.571906 
L 886.53913 82.452486 
L 924.104348 82.452486 
L 924.104348 89.568761 
L 961.669565 89.568761 
L 961.669565 71.932948 
L 999.234783 71.932948 
L 999.234783 69.859488 
L 1036.8 69.859488 
L 1036.8 433 
" clip-path="url(#p2e46c29acf)" style="fill: none; stroke-dasharray: 1.3,2.145; stroke-dashoffset: 0; stroke: #1f77b4; stroke-width: 1.3; stroke-linejoin: miter"/>
   </g>
   <g id="patch_18">
    <path d="M 661.147826 433 
L 661.147826 197.808496 
L 698.713043 197.808496 
L 698.713043 261.7178 
L 736.278261 261.7178 
L 736.278261 185.948269 
L 773.843478 185.948269 
L 773.843478 136.756482 
L 811.408696 136.756482 
L 811.408696 201.697563 
L 848.973913 201.697563 
L 848.973913 198.901106 
L 886.53913 198.901106 
L 886.53913 176.307628 
L 924.104348 176.307628 
L 924.104348 210.072058 
L 961.669565 210.072058 
L 961.669565 183.288234 
L 999.234783 183.288234 
L 999.234783 195.533589 
L 1036.8 195.533589 
L 1036.8 433 
" clip-path="url(#p2e46c29acf)" style="fill: none; stroke-dasharray: 6.4,1.6,1,1.6; stroke-dashoffset: 0; stroke: #ff7f0e; stroke-linejoin: miter"/>
   </g>
   <g id="patch_19">
    <path d="M 661.147826 433 
L 661.147826 226.182148 
L 698.713043 226.182148 
L 698.713043 369.763181 
L 736.278261 369.763181 
L 736.278261 237.873892 
L 773.843478 237.873892 
L 773.843478 175.268275 
L 811.408696 175.268275 
L 811.408696 248.186427 
L 848.973913 248.186427 
L 848.973913 259.112867 
L 886.53913 259.112867 
L 886.53913 215.941561 
L 924.104348 215.941561 
L 924.104348 291.063007 
L 961.669565 291.063007 
L 961.669565 249.191028 
L 999.234783 249.191028 
L 999.234783 289.814206 
L 1036.8 289.814206 
L 1036.8 433 
" clip-path="url(#p2e46c29acf)" style="fill: none; stroke-dasharray: 4.81,2.08; stroke-dashoffset: 0; stroke: #2ca02c; stroke-width: 1.3; stroke-linejoin: miter"/>
   </g>
   <g id="patch_20">
    <path d="M 661.147826 433 
L 661.147826 226.373637 
L 698.713043 226.373637 
L 698.713043 371.966709 
L 736.278261 371.966709 
L 736.278261 373.090909 
L 773.843478 373.090909 
L 773.843478 226.757951 
L 811.408696 226.757951 
L 811.408696 284.999596 
L 848.973913 284.999596 
L 848.973913 297.1541 
L 886.53913 297.1541 
L 886.53913 226.950781 
L 924.104348 226.950781 
L 924.104348 319.877651 
L 961.669565 319.877651 
L 961.669565 286.177204 
L 999.234783 286.177204 
L 999.234783 329.313072 
L 1036.8 329.313072 
L 1036.8 433 
" clip-path="url(#p2e46c29acf)" style="fill: none; stroke: #d62728; stroke-width: 2; stroke-linejoin: miter"/>
   </g>
   <g id="patch_21">
    <path d="M 661.147826 388.8 
L 661.147826 43.2 
" style="fill: none; stroke: #000000; stroke-width: 0.8; stroke-linejoin: miter; stroke-linecap: square"/>
   </g>
   <g id="patch_22">
    <path d="M 1036.8 388.8 
L 1036.8 43.2 
" style="fill: none; stroke: #000000; stroke-width: 0.8; stroke-linejoin: miter; stroke-linecap: square"/>
   </g>
   <g id="patch_23">
    <path d="M 661.147826 388.8 
L 1036.8 388.8 
" style="fill: none; stroke: #000000; stroke-width: 0.8; stroke-linejoin: miter; stroke-linecap: square"/>
   </g>
   <g id="patch_24">
    <path d="M 661.147826 43.2 
L 1036.8 43.2 
" style="fill: none; stroke: #000000; stroke-width: 0.8; stroke-linejoin: miter; stroke-linecap: square"/>
   </g>
   <g id="legend_2">
    <g id="patch_25">
     <path d="M 873.037812 138.822979 
L 1026.3 138.822979 
Q 1029.3 138.822979 1029.3 135.822979 
L 1029.3 53.7 
Q 1029.3 50.7 1026.3 50.7 
L 873.037812 50.7 
Q 870.037812 50.7 870.037812 53.7 
L 870.037812 135.822979 
Q 870.037812 138.822979 873.037812 138.822979 
z
" style="fill: #ffffff; opacity: 0.8; stroke: #cccccc; stroke-linejoin: miter"/>
    </g>
    <g id="patch_26">
     <path d="M 876.037812 67.2 
L 906.037812 67.2 
L 906.037812 56.7 
L 876.037812 56.7 
L 876.037812 67.2 
z
" style="fill: none; stroke-dasharray: 1.3,2.145; stroke-dashoffset: 0; stroke: #1f77b4; stroke-width: 1.3; stroke-linejoin: miter"/>
    </g>
    <g id="text_30">
     <!-- $\mathrm{No\ cut\ applied}$ -->
     <g transform="translate(918.037812 67.2)scale(0.15 -0.15)">
      <use xlink:href="#CMR17-4e" transform="scale(0.996264)"/>
      <use xlink:href="#CMR17-6f" transform="translate(69.07243 0)scale(0.996264)"/>
      <use xlink:href="#CMR17-63" transform="translate(145.99202 0)scale(0.996264)"/>
      <use xlink:href="#CMR17-75" transform="translate(186.47768 0)scale(0.996264)"/>
      <use xlink:href="#CMR17-74" transform="translate(237.37305 0)scale(0.996264)"/>
      <use xlink:href="#CMR17-61" transform="translate(303.88293 0)scale(0.996264)"/>
      <use xlink:href="#CMR17-70" transform="translate(349.573408 0)scale(0.996264)"/>
      <use xlink:href="#CMR17-70" transform="translate(400.468777 0)scale(0.996264)"/>
      <use xlink:href="#CMR17-6c" transform="translate(451.364147 0)scale(0.996264)"/>
      <use xlink:href="#CMR17-69" transform="translate(476.235206 0)scale(0.996264)"/>
      <use xlink:href="#CMR17-65" transform="translate(501.106264 0)scale(0.996264)"/>
      <use xlink:href="#CMR17-64" transform="translate(541.591925 0)scale(0.996264)"/>
     </g>
    </g>
    <g id="patch_27">
     <path d="M 876.037812 88.105745 
L 906.037812 88.105745 
L 906.037812 77.605745 
L 876.037812 77.605745 
L 876.037812 88.105745 
z
" style="fill: none; stroke-dasharray: 6.4,1.6,1,1.6; stroke-dashoffset: 0; stroke: #ff7f0e; stroke-linejoin: miter"/>
    </g>
    <g id="text_31">
     <!-- $\mathrm{After\ FV\ cut}$ -->
     <g transform="translate(918.037812 88.105745)scale(0.15 -0.15)">
      <use xlink:href="#CMR17-41" transform="scale(0.996264)"/>
      <use xlink:href="#CMR17-66" transform="translate(69.07243 0)scale(0.996264)"/>
      <use xlink:href="#CMR17-74" transform="translate(96.545942 0)scale(0.996264)"/>
      <use xlink:href="#CMR17-65" transform="translate(131.82671 0)scale(0.996264)"/>
      <use xlink:href="#CMR17-72" transform="translate(172.31237 0)scale(0.996264)"/>
      <use xlink:href="#CMR17-46" transform="translate(238.822251 0)scale(0.996264)"/>
      <use xlink:href="#CMR17-56" transform="translate(298.806098 0)scale(0.996264)"/>
      <use xlink:href="#CMR17-63" transform="translate(400.408806 0)scale(0.996264)"/>
      <use xlink:href="#CMR17-75" transform="translate(440.894467 0)scale(0.996264)"/>
      <use xlink:href="#CMR17-74" transform="translate(491.789837 0)scale(0.996264)"/>
     </g>
    </g>
    <g id="patch_28">
     <path d="M 876.037812 109.011489 
L 906.037812 109.011489 
L 906.037812 98.511489 
L 876.037812 98.511489 
L 876.037812 109.011489 
z
" style="fill: none; stroke-dasharray: 4.81,2.08; stroke-dashoffset: 0; stroke: #2ca02c; stroke-width: 1.3; stroke-linejoin: miter"/>
    </g>
    <g id="text_32">
     <!-- $\mathrm{After\ LXe\ veto}$ -->
     <g transform="translate(918.037812 109.011489)scale(0.15 -0.15)">
      <use xlink:href="#CMR17-41" transform="scale(0.996264)"/>
      <use xlink:href="#CMR17-66" transform="translate(69.07243 0)scale(0.996264)"/>
      <use xlink:href="#CMR17-74" transform="translate(96.545942 0)scale(0.996264)"/>
      <use xlink:href="#CMR17-65" transform="translate(131.82671 0)scale(0.996264)"/>
      <use xlink:href="#CMR17-72" transform="translate(172.31237 0)scale(0.996264)"/>
      <use xlink:href="#CMR17-4c" transform="translate(238.822251 0)scale(0.996264)"/>
      <use xlink:href="#CMR17-58" transform="translate(296.203659 0)scale(0.996264)"/>
      <use xlink:href="#CMR17-65" transform="translate(365.276089 0)scale(0.996264)"/>
      <use xlink:href="#CMR17-76" transform="translate(436.990862 0)scale(0.996264)"/>
      <use xlink:href="#CMR17-65" transform="translate(482.681324 0)scale(0.996264)"/>
      <use xlink:href="#CMR17-74" transform="translate(523.166984 0)scale(0.996264)"/>
      <use xlink:href="#CMR17-6f" transform="translate(558.447752 0)scale(0.996264)"/>
     </g>
    </g>
    <g id="patch_29">
     <path d="M 876.037812 129.917234 
L 906.037812 129.917234 
L 906.037812 119.417234 
L 876.037812 119.417234 
L 876.037812 129.917234 
z
" style="fill: none; stroke: #d62728; stroke-width: 2; stroke-linejoin: miter"/>
    </g>
    <g id="text_33">
     <!-- $\mathrm{After\ ER\ SS\ cut}$ -->
     <g transform="translate(918.037812 129.917234)scale(0.15 -0.15)">
      <use xlink:href="#CMR17-41" transform="scale(0.996264)"/>
      <use xlink:href="#CMR17-66" transform="translate(69.07243 0)scale(0.996264)"/>
      <use xlink:href="#CMR17-74" transform="translate(96.545942 0)scale(0.996264)"/>
      <use xlink:href="#CMR17-65" transform="translate(131.82671 0)scale(0.996264)"/>
      <use xlink:href="#CMR17-72" transform="translate(172.31237 0)scale(0.996264)"/>
      <use xlink:href="#CMR17-45" transform="translate(238.822251 0)scale(0.996264)"/>
      <use xlink:href="#CMR17-52" transform="translate(301.408552 0)scale(0.996264)"/>
      <use xlink:href="#CMR17-53" transform="translate(400.428766 0)scale(0.996264)"/>
      <use xlink:href="#CMR17-53" transform="translate(451.324136 0)scale(0.996264)"/>
      <use xlink:href="#CMR17-63" transform="translate(533.448619 0)scale(0.996264)"/>
      <use xlink:href="#CMR17-75" transform="translate(573.934279 0)scale(0.996264)"/>
      <use xlink:href="#CMR17-74" transform="translate(624.829649 0)scale(0.996264)"/>
     </g>
    </g>
   </g>
  </g>
 </g>
 <defs>
  <clipPath id="p44c9215d44">
   <rect x="172.8" y="43.2" width="375.652174" height="345.6"/>
  </clipPath>
  <clipPath id="p2e46c29acf">
   <rect x="661.147826" y="43.2" width="375.652174" height="345.6"/>
  </clipPath>
 </defs>
</svg>
