<?xml version="1.0" encoding="utf-8" standalone="no"?>
<!DOCTYPE svg PUBLIC "-//W3C//DTD SVG 1.1//EN"
  "http://www.w3.org/Graphics/SVG/1.1/DTD/svg11.dtd">
<svg xmlns:xlink="http://www.w3.org/1999/xlink" width="576pt" height="432pt" viewBox="0 0 576 432" xmlns="http://www.w3.org/2000/svg" version="1.1">
 <metadata>
  <rdf:RDF xmlns:dc="http://purl.org/dc/elements/1.1/" xmlns:cc="http://creativecommons.org/ns#" xmlns:rdf="http://www.w3.org/1999/02/22-rdf-syntax-ns#">
   <cc:Work>
    <dc:type rdf:resource="http://purl.org/dc/dcmitype/StillImage"/>
    <dc:date>2022-05-26T00:52:09.120977</dc:date>
    <dc:format>image/svg+xml</dc:format>
    <dc:creator>
     <cc:Agent>
      <dc:title>Matplotlib v3.5.1, https://matplotlib.org/</dc:title>
     </cc:Agent>
    </dc:creator>
   </cc:Work>
  </rdf:RDF>
 </metadata>
 <defs>
  <style type="text/css">*{stroke-linejoin: round; stroke-linecap: butt}</style>
 </defs>
 <g id="figure_1">
  <g id="patch_1">
   <path d="M 0 432 
L 576 432 
L 576 0 
L 0 0 
L 0 432 
z
" style="fill: none"/>
  </g>
  <g id="axes_1">
   <g id="patch_2">
    <path d="M 86.4 367.2 
L 547.2 367.2 
L 547.2 43.2 
L 86.4 43.2 
L 86.4 367.2 
z
" style="fill: none"/>
   </g>
   <g id="matplotlib.axis_1">
    <g id="xtick_1">
     <g id="line2d_1">
      <path d="M 86.4 367.2 
L 86.4 43.2 
" clip-path="url(#pf9e893742a)" style="fill: none; stroke: #b0b0b0; stroke-width: 0.8; stroke-linecap: square"/>
     </g>
     <g id="line2d_2">
      <defs>
       <path id="m1544b81a21" d="M 0 0 
L 0 3.5 
" style="stroke: #000000; stroke-width: 0.8"/>
      </defs>
      <g>
       <use xlink:href="#m1544b81a21" x="86.4" y="367.2" style="stroke: #000000; stroke-width: 0.8"/>
      </g>
     </g>
     <g id="text_1">
      <!-- $\mathdefault{0}$ -->
      <g transform="translate(81.830952 388.036997)scale(0.2 -0.2)">
       <defs>
        <path id="CMR17-30" d="M 2688 2038 
C 2688 2430 2682 3099 2413 3613 
C 2176 4063 1798 4224 1466 4224 
C 1158 4224 768 4082 525 3620 
C 269 3137 243 2539 243 2038 
C 243 1671 250 1112 448 623 
C 723 -39 1216 -128 1466 -128 
C 1760 -128 2208 -7 2470 604 
C 2662 1048 2688 1568 2688 2038 
z
M 1466 -26 
C 1056 -26 813 328 723 816 
C 653 1196 653 1749 653 2109 
C 653 2604 653 3015 736 3407 
C 858 3954 1216 4121 1466 4121 
C 1728 4121 2067 3947 2189 3420 
C 2272 3054 2278 2623 2278 2109 
C 2278 1691 2278 1176 2202 797 
C 2067 96 1690 -26 1466 -26 
z
" transform="scale(0.015625)"/>
       </defs>
       <use xlink:href="#CMR17-30" transform="scale(0.996264)"/>
      </g>
     </g>
    </g>
    <g id="xtick_2">
     <g id="line2d_3">
      <path d="M 188.8 367.2 
L 188.8 43.2 
" clip-path="url(#pf9e893742a)" style="fill: none; stroke: #b0b0b0; stroke-width: 0.8; stroke-linecap: square"/>
     </g>
     <g id="line2d_4">
      <g>
       <use xlink:href="#m1544b81a21" x="188.8" y="367.2" style="stroke: #000000; stroke-width: 0.8"/>
      </g>
     </g>
     <g id="text_2">
      <!-- $\mathdefault{2}$ -->
      <g transform="translate(184.230952 388.036997)scale(0.2 -0.2)">
       <defs>
        <path id="CMR17-32" d="M 2669 990 
L 2554 990 
C 2490 537 2438 460 2413 422 
C 2381 371 1920 371 1830 371 
L 602 371 
C 832 620 1280 1073 1824 1596 
C 2214 1966 2669 2400 2669 3033 
C 2669 3788 2067 4224 1395 4224 
C 691 4224 262 3603 262 3027 
C 262 2777 448 2745 525 2745 
C 589 2745 781 2783 781 3007 
C 781 3206 614 3264 525 3264 
C 486 3264 448 3257 422 3244 
C 544 3788 915 4057 1306 4057 
C 1862 4057 2227 3616 2227 3033 
C 2227 2477 1901 1998 1536 1583 
L 262 147 
L 262 0 
L 2515 0 
L 2669 990 
z
" transform="scale(0.015625)"/>
       </defs>
       <use xlink:href="#CMR17-32" transform="scale(0.996264)"/>
      </g>
     </g>
    </g>
    <g id="xtick_3">
     <g id="line2d_5">
      <path d="M 291.2 367.2 
L 291.2 43.2 
" clip-path="url(#pf9e893742a)" style="fill: none; stroke: #b0b0b0; stroke-width: 0.8; stroke-linecap: square"/>
     </g>
     <g id="line2d_6">
      <g>
       <use xlink:href="#m1544b81a21" x="291.2" y="367.2" style="stroke: #000000; stroke-width: 0.8"/>
      </g>
     </g>
     <g id="text_3">
      <!-- $\mathdefault{4}$ -->
      <g transform="translate(286.630952 388.036997)scale(0.2 -0.2)">
       <defs>
        <path id="CMR17-34" d="M 2150 4147 
C 2150 4281 2144 4288 2029 4288 
L 128 1254 
L 128 1088 
L 1779 1088 
L 1779 460 
C 1779 230 1766 166 1318 166 
L 1197 166 
L 1197 0 
C 1402 12 1747 12 1965 12 
C 2182 12 2528 12 2733 0 
L 2733 166 
L 2611 166 
C 2163 166 2150 230 2150 460 
L 2150 1088 
L 2803 1088 
L 2803 1254 
L 2150 1254 
L 2150 4147 
z
M 1798 3723 
L 1798 1254 
L 256 1254 
L 1798 3723 
z
" transform="scale(0.015625)"/>
       </defs>
       <use xlink:href="#CMR17-34" transform="scale(0.996264)"/>
      </g>
     </g>
    </g>
    <g id="xtick_4">
     <g id="line2d_7">
      <path d="M 393.6 367.2 
L 393.6 43.2 
" clip-path="url(#pf9e893742a)" style="fill: none; stroke: #b0b0b0; stroke-width: 0.8; stroke-linecap: square"/>
     </g>
     <g id="line2d_8">
      <g>
       <use xlink:href="#m1544b81a21" x="393.6" y="367.2" style="stroke: #000000; stroke-width: 0.8"/>
      </g>
     </g>
     <g id="text_4">
      <!-- $\mathdefault{6}$ -->
      <g transform="translate(389.030952 388.036997)scale(0.2 -0.2)">
       <defs>
        <path id="CMR17-36" d="M 678 2198 
C 678 3712 1395 4076 1811 4076 
C 1946 4076 2272 4049 2400 3782 
C 2298 3782 2106 3782 2106 3558 
C 2106 3385 2246 3328 2336 3328 
C 2394 3328 2566 3353 2566 3571 
C 2566 3987 2246 4224 1805 4224 
C 1043 4224 243 3411 243 2011 
C 243 257 966 -128 1478 -128 
C 2099 -128 2688 431 2688 1295 
C 2688 2101 2170 2688 1517 2688 
C 1126 2688 838 2430 678 1979 
L 678 2198 
z
M 1478 25 
C 691 25 691 1212 691 1450 
C 691 1914 909 2585 1504 2585 
C 1613 2585 1926 2585 2138 2140 
C 2253 1889 2253 1624 2253 1302 
C 2253 954 2253 696 2118 438 
C 1978 173 1773 25 1478 25 
z
" transform="scale(0.015625)"/>
       </defs>
       <use xlink:href="#CMR17-36" transform="scale(0.996264)"/>
      </g>
     </g>
    </g>
    <g id="xtick_5">
     <g id="line2d_9">
      <path d="M 496 367.2 
L 496 43.2 
" clip-path="url(#pf9e893742a)" style="fill: none; stroke: #b0b0b0; stroke-width: 0.8; stroke-linecap: square"/>
     </g>
     <g id="line2d_10">
      <g>
       <use xlink:href="#m1544b81a21" x="496" y="367.2" style="stroke: #000000; stroke-width: 0.8"/>
      </g>
     </g>
     <g id="text_5">
      <!-- $\mathdefault{8}$ -->
      <g transform="translate(491.430952 388.036997)scale(0.2 -0.2)">
       <defs>
        <path id="CMR17-38" d="M 1741 2289 
C 2144 2494 2554 2803 2554 3298 
C 2554 3884 1990 4224 1472 4224 
C 890 4224 378 3800 378 3215 
C 378 3054 416 2777 666 2533 
C 730 2469 998 2276 1171 2154 
C 883 2006 211 1652 211 945 
C 211 282 838 -128 1459 -128 
C 2144 -128 2720 366 2720 1022 
C 2720 1607 2330 1877 2074 2051 
L 1741 2289 
z
M 902 2855 
C 851 2887 595 3086 595 3388 
C 595 3781 998 4076 1459 4076 
C 1965 4076 2336 3716 2336 3298 
C 2336 2700 1670 2359 1638 2359 
C 1632 2359 1626 2359 1574 2398 
L 902 2855 
z
M 2080 1536 
C 2176 1466 2483 1253 2483 861 
C 2483 385 2010 25 1472 25 
C 890 25 448 443 448 951 
C 448 1459 838 1884 1280 2083 
L 2080 1536 
z
" transform="scale(0.015625)"/>
       </defs>
       <use xlink:href="#CMR17-38" transform="scale(0.996264)"/>
      </g>
     </g>
    </g>
    <g id="text_6">
     <!-- $\bar{\nu}_e\ \mathrm{energy}\ [\si{MeV}]$ -->
     <g transform="translate(252.419684 410.838652)scale(0.2 -0.2)">
      <defs>
       <path id="CMR17-16" d="M 2554 3520 
L 2554 3667 
L 378 3667 
L 378 3520 
L 2554 3520 
z
" transform="scale(0.015625)"/>
       <path id="CMMI12-17" d="M 1408 2751 
C 1408 2777 1389 2816 1338 2816 
C 1293 2816 691 2758 595 2751 
C 525 2745 461 2739 461 2623 
C 461 2559 512 2559 602 2559 
C 902 2559 922 2515 922 2445 
C 922 2419 909 2343 902 2317 
L 339 64 
C 339 38 358 0 403 0 
L 538 0 
C 627 0 1600 230 2349 996 
C 3174 1845 3290 2630 3290 2655 
C 3290 2758 3206 2816 3123 2816 
C 2938 2816 2893 2643 2880 2598 
C 2502 1264 1626 472 774 192 
L 1408 2751 
z
" transform="scale(0.015625)"/>
       <path id="CMMI12-65" d="M 1146 1472 
C 1318 1472 1754 1484 2061 1600 
C 2547 1786 2592 2160 2592 2275 
C 2592 2559 2349 2816 1926 2816 
C 1254 2816 288 2205 288 1066 
C 288 400 672 -64 1254 -64 
C 2125 -64 2675 609 2675 691 
C 2675 729 2637 761 2611 761 
C 2592 761 2586 755 2528 698 
C 2118 159 1510 64 1267 64 
C 902 64 710 349 710 818 
C 710 907 710 1066 806 1472 
L 1146 1472 
z
M 838 1600 
C 1114 2591 1722 2687 1926 2687 
C 2208 2687 2400 2520 2400 2275 
C 2400 1600 1376 1600 1107 1600 
L 838 1600 
z
" transform="scale(0.015625)"/>
       <path id="CMR17-65" d="M 2438 1503 
C 2464 1529 2464 1542 2464 1606 
C 2464 2251 2118 2816 1389 2816 
C 710 2816 173 2175 173 1394 
C 173 554 781 -64 1459 -64 
C 2176 -64 2458 619 2458 755 
C 2458 800 2419 800 2406 800 
C 2362 800 2355 787 2330 709 
C 2189 270 1837 51 1504 51 
C 1229 51 954 206 781 490 
C 582 819 582 1200 582 1503 
L 2438 1503 
z
M 589 1600 
C 634 2511 1126 2713 1382 2713 
C 1818 2713 2112 2308 2118 1600 
L 589 1600 
z
" transform="scale(0.015625)"/>
       <path id="CMR17-6e" d="M 2656 1954 
C 2656 2282 2592 2816 1837 2816 
C 1331 2816 1069 2424 973 2166 
L 966 2166 
L 966 2816 
L 211 2745 
L 211 2578 
C 589 2578 646 2540 646 2231 
L 646 443 
C 646 198 621 166 211 166 
L 211 0 
C 365 12 646 12 813 12 
C 979 12 1267 12 1421 0 
L 1421 166 
C 1011 166 986 192 986 443 
L 986 1678 
C 986 2269 1344 2713 1792 2713 
C 2266 2713 2317 2289 2317 1980 
L 2317 443 
C 2317 198 2291 166 1882 166 
L 1882 0 
C 2035 12 2317 12 2483 12 
C 2650 12 2938 12 3091 0 
L 3091 166 
C 2682 166 2656 192 2656 443 
L 2656 1954 
z
" transform="scale(0.015625)"/>
       <path id="CMR17-72" d="M 960 1517 
C 960 2134 1222 2713 1702 2713 
C 1747 2713 1792 2707 1837 2687 
C 1837 2687 1696 2642 1696 2475 
C 1696 2321 1818 2257 1914 2257 
C 1990 2257 2131 2302 2131 2482 
C 2131 2687 1926 2816 1709 2816 
C 1222 2816 1011 2340 947 2115 
L 941 2115 
L 941 2816 
L 198 2745 
L 198 2578 
C 576 2578 634 2540 634 2231 
L 634 443 
C 634 198 608 166 198 166 
L 198 0 
C 352 12 646 12 813 12 
C 998 12 1325 12 1498 0 
L 1498 166 
C 1037 166 960 166 960 455 
L 960 1517 
z
" transform="scale(0.015625)"/>
       <path id="CMR17-67" d="M 710 1165 
C 832 1068 1043 960 1299 960 
C 1805 960 2240 1359 2240 1895 
C 2240 2063 2189 2321 1997 2521 
C 2176 2713 2438 2777 2586 2777 
C 2611 2777 2650 2777 2682 2758 
C 2656 2751 2598 2726 2598 2623 
C 2598 2540 2656 2483 2739 2483 
C 2835 2483 2886 2547 2886 2630 
C 2886 2751 2790 2880 2586 2880 
C 2330 2880 2106 2758 1926 2591 
C 1734 2764 1504 2828 1299 2828 
C 794 2828 358 2431 358 1895 
C 358 1527 570 1294 634 1230 
C 442 1004 442 742 442 710 
C 442 544 506 300 723 166 
C 390 82 128 -184 128 -517 
C 128 -996 736 -1344 1466 -1344 
C 2170 -1344 2803 -1009 2803 -510 
C 2803 384 1856 384 1363 384 
C 1216 384 954 384 922 390 
C 723 422 589 601 589 825 
C 589 883 589 1024 710 1165 
z
M 1299 1068 
C 736 1068 736 1766 736 1895 
C 736 2024 736 2719 1299 2719 
C 1862 2719 1862 2024 1862 1895 
C 1862 1766 1862 1068 1299 1068 
z
M 1466 -1236 
C 826 -1236 384 -883 384 -517 
C 384 -311 493 -118 634 -11 
C 794 102 858 102 1293 102 
C 1818 102 2547 102 2547 -517 
C 2547 -883 2106 -1236 1466 -1236 
z
" transform="scale(0.015625)"/>
       <path id="CMR17-79" d="M 2496 2183 
C 2656 2579 2944 2585 3034 2585 
L 3034 2752 
C 2912 2745 2752 2739 2630 2739 
C 2496 2739 2285 2739 2157 2752 
L 2157 2585 
C 2400 2566 2406 2384 2406 2332 
C 2406 2268 2394 2235 2362 2158 
L 1664 409 
L 902 2300 
C 870 2378 870 2423 870 2430 
C 870 2572 1018 2585 1171 2585 
L 1171 2752 
C 1018 2739 742 2739 582 2739 
C 410 2739 205 2739 64 2752 
L 64 2585 
C 410 2585 448 2553 531 2345 
L 1485 -31 
C 1197 -795 1030 -1242 627 -1242 
C 557 -1242 397 -1223 282 -1106 
C 429 -1093 493 -1002 493 -892 
C 493 -782 416 -685 288 -685 
C 147 -685 77 -782 77 -899 
C 77 -1158 339 -1344 627 -1344 
C 998 -1344 1229 -983 1357 -659 
L 2496 2183 
z
" transform="scale(0.015625)"/>
       <path id="CMR17-5b" d="M 1504 -1600 
L 1504 -1376 
L 902 -1376 
L 902 4575 
L 1504 4575 
L 1504 4800 
L 678 4800 
L 678 -1600 
L 1504 -1600 
z
" transform="scale(0.015625)"/>
       <path id="CMSS17-4d" d="M 3194 2373 
L 2886 1476 
C 2835 1311 2662 795 2624 592 
L 2618 592 
C 2598 719 2560 853 2458 1177 
C 2400 1368 2336 1565 2272 1743 
L 1325 4416 
L 576 4416 
L 576 0 
L 1075 0 
L 1075 3899 
L 1082 3899 
C 1082 3893 1139 3613 1530 2500 
L 2374 102 
L 2848 102 
L 3610 2233 
C 3661 2379 3821 2843 3891 3066 
C 3955 3257 4115 3728 4154 3912 
L 4160 3912 
L 4160 0 
L 4666 0 
L 4666 4416 
L 3923 4416 
L 3194 2373 
z
" transform="scale(0.015625)"/>
       <path id="CMSS17-65" d="M 2502 1375 
C 2502 1587 2490 2001 2285 2347 
C 2061 2713 1696 2816 1421 2816 
C 755 2816 192 2184 192 1363 
C 192 579 774 -64 1510 -64 
C 1798 -64 2150 19 2470 249 
C 2470 275 2458 414 2451 421 
C 2451 433 2432 629 2432 655 
C 2125 408 1773 326 1517 326 
C 1107 326 666 667 646 1375 
L 2502 1375 
z
M 698 1728 
C 781 2086 1062 2425 1421 2425 
C 1517 2425 1965 2412 2080 1728 
L 698 1728 
z
" transform="scale(0.015625)"/>
       <path id="CMSS17-56" d="M 3910 4416 
L 3411 4416 
L 2304 1361 
C 2272 1272 2074 687 2035 484 
L 2029 484 
C 1978 725 1773 1291 1664 1603 
L 922 3670 
L 646 4416 
L 83 4416 
L 1715 0 
L 2278 0 
L 3910 4416 
z
" transform="scale(0.015625)"/>
       <path id="CMR17-5d" d="M 915 4800 
L 90 4800 
L 90 4575 
L 691 4575 
L 691 -1376 
L 90 -1376 
L 90 -1600 
L 915 -1600 
L 915 4800 
z
" transform="scale(0.015625)"/>
      </defs>
      <use xlink:href="#CMR17-16" transform="translate(7.105876 0.006461)scale(0.996264)"/>
      <use xlink:href="#CMMI12-17" transform="scale(0.996264)"/>
      <use xlink:href="#CMMI12-65" transform="translate(48.198482 -14.943915)scale(0.697382)"/>
      <use xlink:href="#CMR17-65" transform="translate(111.573983 0)scale(0.996264)"/>
      <use xlink:href="#CMR17-6e" transform="translate(152.059644 0)scale(0.996264)"/>
      <use xlink:href="#CMR17-65" transform="translate(202.955014 0)scale(0.996264)"/>
      <use xlink:href="#CMR17-72" transform="translate(243.440674 0)scale(0.996264)"/>
      <use xlink:href="#CMR17-67" transform="translate(278.721442 0)scale(0.996264)"/>
      <use xlink:href="#CMR17-79" transform="translate(324.411919 0)scale(0.996264)"/>
      <use xlink:href="#CMR17-5b" transform="translate(405.235114 0)scale(0.996264)"/>
      <use xlink:href="#CMSS17-4d" transform="translate(430.106172 0)scale(0.996264)"/>
      <use xlink:href="#CMSS17-65" transform="translate(511.782202 0)scale(0.996264)"/>
      <use xlink:href="#CMSS17-56" transform="translate(553.421024 0)scale(0.996264)"/>
      <use xlink:href="#CMR17-5d" transform="translate(616.940045 0)scale(0.996264)"/>
     </g>
    </g>
   </g>
   <g id="matplotlib.axis_2">
    <g id="ytick_1">
     <g id="line2d_11">
      <path d="M 86.4 367.2 
L 547.2 367.2 
" clip-path="url(#pf9e893742a)" style="fill: none; stroke: #b0b0b0; stroke-width: 0.8; stroke-linecap: square"/>
     </g>
     <g id="line2d_12">
      <defs>
       <path id="m83031ca77d" d="M 0 0 
L -3.5 0 
" style="stroke: #000000; stroke-width: 0.8"/>
      </defs>
      <g>
       <use xlink:href="#m83031ca77d" x="86.4" y="367.2" style="stroke: #000000; stroke-width: 0.8"/>
      </g>
     </g>
     <g id="text_7">
      <!-- $\mathdefault{10^{8}}$ -->
      <g transform="translate(54.295351 374.118498)scale(0.2 -0.2)">
       <defs>
        <path id="CMR17-31" d="M 1702 4083 
C 1702 4217 1696 4224 1606 4224 
C 1357 3927 979 3833 621 3820 
C 602 3820 570 3820 563 3808 
C 557 3795 557 3782 557 3648 
C 755 3648 1088 3686 1344 3839 
L 1344 467 
C 1344 243 1331 166 781 166 
L 589 166 
L 589 0 
C 896 6 1216 12 1523 12 
C 1830 12 2150 6 2458 0 
L 2458 166 
L 2266 166 
C 1715 166 1702 236 1702 467 
L 1702 4083 
z
" transform="scale(0.015625)"/>
       </defs>
       <use xlink:href="#CMR17-31" transform="scale(0.996264)"/>
       <use xlink:href="#CMR17-30" transform="translate(45.690477 0)scale(0.996264)"/>
       <use xlink:href="#CMR17-38" transform="translate(91.380954 36.153639)scale(0.697382)"/>
      </g>
     </g>
    </g>
    <g id="ytick_2">
     <g id="line2d_13">
      <path d="M 86.4 296.699515 
L 547.2 296.699515 
" clip-path="url(#pf9e893742a)" style="fill: none; stroke: #b0b0b0; stroke-width: 0.8; stroke-linecap: square"/>
     </g>
     <g id="line2d_14">
      <g>
       <use xlink:href="#m83031ca77d" x="86.4" y="296.699515" style="stroke: #000000; stroke-width: 0.8"/>
      </g>
     </g>
     <g id="text_8">
      <!-- $\mathdefault{10^{9}}$ -->
      <g transform="translate(54.295351 303.618013)scale(0.2 -0.2)">
       <defs>
        <path id="CMR17-39" d="M 2253 1871 
C 2253 448 1670 25 1190 25 
C 1043 25 685 43 538 281 
C 704 256 826 345 826 505 
C 826 678 685 736 595 736 
C 538 736 365 710 365 492 
C 365 68 742 -128 1203 -128 
C 1939 -128 2688 665 2688 2090 
C 2688 3857 1971 4224 1485 4224 
C 851 4224 243 3664 243 2800 
C 243 2000 762 1408 1414 1408 
C 1952 1408 2189 1910 2253 2122 
L 2253 1871 
z
M 1427 1510 
C 1254 1510 1011 1542 813 1929 
C 678 2181 678 2477 678 2793 
C 678 3174 678 3438 858 3722 
C 947 3857 1114 4076 1485 4076 
C 2240 4076 2240 2909 2240 2651 
C 2240 2193 2035 1510 1427 1510 
z
" transform="scale(0.015625)"/>
       </defs>
       <use xlink:href="#CMR17-31" transform="scale(0.996264)"/>
       <use xlink:href="#CMR17-30" transform="translate(45.690477 0)scale(0.996264)"/>
       <use xlink:href="#CMR17-39" transform="translate(91.380954 36.153639)scale(0.697382)"/>
      </g>
     </g>
    </g>
    <g id="ytick_3">
     <g id="line2d_15">
      <path d="M 86.4 226.199029 
L 547.2 226.199029 
" clip-path="url(#pf9e893742a)" style="fill: none; stroke: #b0b0b0; stroke-width: 0.8; stroke-linecap: square"/>
     </g>
     <g id="line2d_16">
      <g>
       <use xlink:href="#m83031ca77d" x="86.4" y="226.199029" style="stroke: #000000; stroke-width: 0.8"/>
      </g>
     </g>
     <g id="text_9">
      <!-- $\mathdefault{10^{10}}$ -->
      <g transform="translate(47.466893 233.117528)scale(0.2 -0.2)">
       <use xlink:href="#CMR17-31" transform="scale(0.996264)"/>
       <use xlink:href="#CMR17-30" transform="translate(45.690477 0)scale(0.996264)"/>
       <use xlink:href="#CMR17-31" transform="translate(91.380954 36.153639)scale(0.697382)"/>
       <use xlink:href="#CMR17-30" transform="translate(123.364136 36.153639)scale(0.697382)"/>
      </g>
     </g>
    </g>
    <g id="ytick_4">
     <g id="line2d_17">
      <path d="M 86.4 155.698544 
L 547.2 155.698544 
" clip-path="url(#pf9e893742a)" style="fill: none; stroke: #b0b0b0; stroke-width: 0.8; stroke-linecap: square"/>
     </g>
     <g id="line2d_18">
      <g>
       <use xlink:href="#m83031ca77d" x="86.4" y="155.698544" style="stroke: #000000; stroke-width: 0.8"/>
      </g>
     </g>
     <g id="text_10">
      <!-- $\mathdefault{10^{11}}$ -->
      <g transform="translate(47.466893 162.617042)scale(0.2 -0.2)">
       <use xlink:href="#CMR17-31" transform="scale(0.996264)"/>
       <use xlink:href="#CMR17-30" transform="translate(45.690477 0)scale(0.996264)"/>
       <use xlink:href="#CMR17-31" transform="translate(91.380954 36.153639)scale(0.697382)"/>
       <use xlink:href="#CMR17-31" transform="translate(123.364136 36.153639)scale(0.697382)"/>
      </g>
     </g>
    </g>
    <g id="ytick_5">
     <g id="line2d_19">
      <path d="M 86.4 85.198058 
L 547.2 85.198058 
" clip-path="url(#pf9e893742a)" style="fill: none; stroke: #b0b0b0; stroke-width: 0.8; stroke-linecap: square"/>
     </g>
     <g id="line2d_20">
      <g>
       <use xlink:href="#m83031ca77d" x="86.4" y="85.198058" style="stroke: #000000; stroke-width: 0.8"/>
      </g>
     </g>
     <g id="text_11">
      <!-- $\mathdefault{10^{12}}$ -->
      <g transform="translate(47.466893 92.116557)scale(0.2 -0.2)">
       <use xlink:href="#CMR17-31" transform="scale(0.996264)"/>
       <use xlink:href="#CMR17-30" transform="translate(45.690477 0)scale(0.996264)"/>
       <use xlink:href="#CMR17-31" transform="translate(91.380954 36.153639)scale(0.697382)"/>
       <use xlink:href="#CMR17-32" transform="translate(123.364136 36.153639)scale(0.697382)"/>
      </g>
     </g>
    </g>
    <g id="ytick_6">
     <g id="line2d_21">
      <defs>
       <path id="m995a3f6855" d="M 0 0 
L -2 0 
" style="stroke: #000000; stroke-width: 0.6"/>
      </defs>
      <g>
       <use xlink:href="#m995a3f6855" x="86.4" y="345.977239" style="stroke: #000000; stroke-width: 0.6"/>
      </g>
     </g>
    </g>
    <g id="ytick_7">
     <g id="line2d_22">
      <g>
       <use xlink:href="#m995a3f6855" x="86.4" y="333.56272" style="stroke: #000000; stroke-width: 0.6"/>
      </g>
     </g>
    </g>
    <g id="ytick_8">
     <g id="line2d_23">
      <g>
       <use xlink:href="#m995a3f6855" x="86.4" y="324.754478" style="stroke: #000000; stroke-width: 0.6"/>
      </g>
     </g>
    </g>
    <g id="ytick_9">
     <g id="line2d_24">
      <g>
       <use xlink:href="#m995a3f6855" x="86.4" y="317.922275" style="stroke: #000000; stroke-width: 0.6"/>
      </g>
     </g>
    </g>
    <g id="ytick_10">
     <g id="line2d_25">
      <g>
       <use xlink:href="#m995a3f6855" x="86.4" y="312.339959" style="stroke: #000000; stroke-width: 0.6"/>
      </g>
     </g>
    </g>
    <g id="ytick_11">
     <g id="line2d_26">
      <g>
       <use xlink:href="#m995a3f6855" x="86.4" y="307.620178" style="stroke: #000000; stroke-width: 0.6"/>
      </g>
     </g>
    </g>
    <g id="ytick_12">
     <g id="line2d_27">
      <g>
       <use xlink:href="#m995a3f6855" x="86.4" y="303.531718" style="stroke: #000000; stroke-width: 0.6"/>
      </g>
     </g>
    </g>
    <g id="ytick_13">
     <g id="line2d_28">
      <g>
       <use xlink:href="#m995a3f6855" x="86.4" y="299.92544" style="stroke: #000000; stroke-width: 0.6"/>
      </g>
     </g>
    </g>
    <g id="ytick_14">
     <g id="line2d_29">
      <g>
       <use xlink:href="#m995a3f6855" x="86.4" y="275.476754" style="stroke: #000000; stroke-width: 0.6"/>
      </g>
     </g>
    </g>
    <g id="ytick_15">
     <g id="line2d_30">
      <g>
       <use xlink:href="#m995a3f6855" x="86.4" y="263.062235" style="stroke: #000000; stroke-width: 0.6"/>
      </g>
     </g>
    </g>
    <g id="ytick_16">
     <g id="line2d_31">
      <g>
       <use xlink:href="#m995a3f6855" x="86.4" y="254.253993" style="stroke: #000000; stroke-width: 0.6"/>
      </g>
     </g>
    </g>
    <g id="ytick_17">
     <g id="line2d_32">
      <g>
       <use xlink:href="#m995a3f6855" x="86.4" y="247.42179" style="stroke: #000000; stroke-width: 0.6"/>
      </g>
     </g>
    </g>
    <g id="ytick_18">
     <g id="line2d_33">
      <g>
       <use xlink:href="#m995a3f6855" x="86.4" y="241.839474" style="stroke: #000000; stroke-width: 0.6"/>
      </g>
     </g>
    </g>
    <g id="ytick_19">
     <g id="line2d_34">
      <g>
       <use xlink:href="#m995a3f6855" x="86.4" y="237.119693" style="stroke: #000000; stroke-width: 0.6"/>
      </g>
     </g>
    </g>
    <g id="ytick_20">
     <g id="line2d_35">
      <g>
       <use xlink:href="#m995a3f6855" x="86.4" y="233.031232" style="stroke: #000000; stroke-width: 0.6"/>
      </g>
     </g>
    </g>
    <g id="ytick_21">
     <g id="line2d_36">
      <g>
       <use xlink:href="#m995a3f6855" x="86.4" y="229.424954" style="stroke: #000000; stroke-width: 0.6"/>
      </g>
     </g>
    </g>
    <g id="ytick_22">
     <g id="line2d_37">
      <g>
       <use xlink:href="#m995a3f6855" x="86.4" y="204.976268" style="stroke: #000000; stroke-width: 0.6"/>
      </g>
     </g>
    </g>
    <g id="ytick_23">
     <g id="line2d_38">
      <g>
       <use xlink:href="#m995a3f6855" x="86.4" y="192.561749" style="stroke: #000000; stroke-width: 0.6"/>
      </g>
     </g>
    </g>
    <g id="ytick_24">
     <g id="line2d_39">
      <g>
       <use xlink:href="#m995a3f6855" x="86.4" y="183.753508" style="stroke: #000000; stroke-width: 0.6"/>
      </g>
     </g>
    </g>
    <g id="ytick_25">
     <g id="line2d_40">
      <g>
       <use xlink:href="#m995a3f6855" x="86.4" y="176.921305" style="stroke: #000000; stroke-width: 0.6"/>
      </g>
     </g>
    </g>
    <g id="ytick_26">
     <g id="line2d_41">
      <g>
       <use xlink:href="#m995a3f6855" x="86.4" y="171.338988" style="stroke: #000000; stroke-width: 0.6"/>
      </g>
     </g>
    </g>
    <g id="ytick_27">
     <g id="line2d_42">
      <g>
       <use xlink:href="#m995a3f6855" x="86.4" y="166.619207" style="stroke: #000000; stroke-width: 0.6"/>
      </g>
     </g>
    </g>
    <g id="ytick_28">
     <g id="line2d_43">
      <g>
       <use xlink:href="#m995a3f6855" x="86.4" y="162.530747" style="stroke: #000000; stroke-width: 0.6"/>
      </g>
     </g>
    </g>
    <g id="ytick_29">
     <g id="line2d_44">
      <g>
       <use xlink:href="#m995a3f6855" x="86.4" y="158.924469" style="stroke: #000000; stroke-width: 0.6"/>
      </g>
     </g>
    </g>
    <g id="ytick_30">
     <g id="line2d_45">
      <g>
       <use xlink:href="#m995a3f6855" x="86.4" y="134.475783" style="stroke: #000000; stroke-width: 0.6"/>
      </g>
     </g>
    </g>
    <g id="ytick_31">
     <g id="line2d_46">
      <g>
       <use xlink:href="#m995a3f6855" x="86.4" y="122.061264" style="stroke: #000000; stroke-width: 0.6"/>
      </g>
     </g>
    </g>
    <g id="ytick_32">
     <g id="line2d_47">
      <g>
       <use xlink:href="#m995a3f6855" x="86.4" y="113.253022" style="stroke: #000000; stroke-width: 0.6"/>
      </g>
     </g>
    </g>
    <g id="ytick_33">
     <g id="line2d_48">
      <g>
       <use xlink:href="#m995a3f6855" x="86.4" y="106.420819" style="stroke: #000000; stroke-width: 0.6"/>
      </g>
     </g>
    </g>
    <g id="ytick_34">
     <g id="line2d_49">
      <g>
       <use xlink:href="#m995a3f6855" x="86.4" y="100.838503" style="stroke: #000000; stroke-width: 0.6"/>
      </g>
     </g>
    </g>
    <g id="ytick_35">
     <g id="line2d_50">
      <g>
       <use xlink:href="#m995a3f6855" x="86.4" y="96.118722" style="stroke: #000000; stroke-width: 0.6"/>
      </g>
     </g>
    </g>
    <g id="ytick_36">
     <g id="line2d_51">
      <g>
       <use xlink:href="#m995a3f6855" x="86.4" y="92.030261" style="stroke: #000000; stroke-width: 0.6"/>
      </g>
     </g>
    </g>
    <g id="ytick_37">
     <g id="line2d_52">
      <g>
       <use xlink:href="#m995a3f6855" x="86.4" y="88.423984" style="stroke: #000000; stroke-width: 0.6"/>
      </g>
     </g>
    </g>
    <g id="ytick_38">
     <g id="line2d_53">
      <g>
       <use xlink:href="#m995a3f6855" x="86.4" y="63.975298" style="stroke: #000000; stroke-width: 0.6"/>
      </g>
     </g>
    </g>
    <g id="ytick_39">
     <g id="line2d_54">
      <g>
       <use xlink:href="#m995a3f6855" x="86.4" y="51.560778" style="stroke: #000000; stroke-width: 0.6"/>
      </g>
     </g>
    </g>
    <g id="text_12">
     <!-- $\bar{\nu}_e\ \mathrm{flux}\ [\si{MeV^{-1}cm^{-2}s^{-1}}]$ -->
     <g transform="translate(38.502249 300.670507)rotate(-90)scale(0.2 -0.2)">
      <defs>
       <path id="CMR17-d" d="M 2554 4428 
C 2483 4415 2426 4403 2342 4383 
C 2157 4480 1914 4480 1850 4480 
C 1306 4480 634 4174 634 3494 
L 634 2752 
L 122 2752 
L 122 2585 
L 634 2585 
L 634 441 
C 634 198 608 166 198 166 
L 198 0 
C 352 12 634 12 794 12 
C 960 12 1242 12 1395 0 
L 1395 166 
C 986 166 960 192 960 441 
L 960 2585 
L 2227 2585 
L 2227 441 
C 2227 198 2202 166 1792 166 
L 1792 0 
C 1946 12 2227 12 2387 12 
C 2554 12 2835 12 2989 0 
L 2989 166 
C 2579 166 2554 192 2554 441 
L 2554 4428 
z
M 947 2752 
L 947 3494 
C 947 4053 1370 4377 1837 4377 
C 1869 4377 2221 4364 2221 4301 
C 2221 4294 2214 4288 2182 4256 
C 2125 4218 2099 4155 2099 4091 
C 2099 4002 2144 3926 2227 3894 
L 2227 2752 
L 947 2752 
z
" transform="scale(0.015625)"/>
       <path id="CMR17-75" d="M 1882 2745 
L 1882 2579 
C 2259 2579 2317 2540 2317 2229 
L 2317 1053 
C 2317 510 2029 38 1555 38 
C 1030 38 986 355 986 691 
L 986 2816 
L 211 2745 
L 211 2579 
C 467 2579 640 2579 646 2320 
L 646 1079 
C 646 646 646 368 813 187 
C 896 103 1056 -64 1517 -64 
C 2061 -64 2272 400 2323 536 
L 2330 536 
L 2330 -64 
L 3091 -13 
L 3091 154 
C 2714 154 2656 193 2656 503 
L 2656 2816 
L 1882 2745 
z
" transform="scale(0.015625)"/>
       <path id="CMR17-78" d="M 1664 1491 
C 1856 1740 2074 2022 2253 2233 
C 2464 2476 2707 2579 2989 2585 
L 2989 2752 
C 2880 2745 2656 2739 2541 2739 
C 2368 2739 2170 2739 2022 2752 
L 2022 2585 
C 2112 2572 2163 2508 2163 2419 
C 2163 2304 2099 2233 2067 2188 
L 1594 1587 
L 1030 2323 
C 973 2393 973 2406 973 2438 
C 973 2515 1037 2579 1146 2585 
L 1146 2752 
C 992 2739 717 2739 557 2739 
C 384 2739 179 2739 38 2752 
L 38 2585 
C 384 2585 461 2560 614 2368 
L 1350 1414 
C 1363 1401 1395 1363 1395 1344 
C 1395 1318 838 633 768 544 
C 480 198 179 172 6 166 
L 6 0 
C 115 6 339 12 454 12 
C 582 12 864 12 979 0 
L 979 166 
C 941 172 838 185 838 332 
C 838 448 890 518 947 595 
L 1478 1248 
L 2035 524 
C 2086 454 2163 358 2163 313 
C 2163 224 2086 172 1984 166 
L 1984 0 
C 2138 12 2413 12 2573 12 
C 2746 12 2950 12 3091 0 
L 3091 166 
C 2771 166 2675 179 2522 377 
L 1664 1491 
z
" transform="scale(0.015625)"/>
       <path id="CMSY10-0" d="M 4218 1472 
C 4326 1472 4442 1472 4442 1600 
C 4442 1728 4326 1728 4218 1728 
L 755 1728 
C 646 1728 531 1728 531 1600 
C 531 1472 646 1472 755 1472 
L 4218 1472 
z
" transform="scale(0.015625)"/>
       <path id="CMSS17-31" d="M 1818 4288 
L 1696 4288 
C 1350 3949 947 3902 538 3891 
L 538 3520 
C 723 3526 1024 3539 1325 3673 
L 1325 371 
L 570 371 
L 570 0 
L 2573 0 
L 2573 371 
L 1818 371 
L 1818 4288 
z
" transform="scale(0.015625)"/>
       <path id="CMSS17-63" d="M 2464 2540 
C 2464 2585 2170 2713 2093 2739 
C 1882 2816 1613 2816 1542 2816 
C 710 2816 211 2092 211 1363 
C 211 595 768 -64 1517 -64 
C 1946 -64 2253 76 2502 243 
L 2464 665 
C 2189 454 1869 339 1523 339 
C 1024 339 698 774 698 1369 
C 698 1830 909 2412 1549 2412 
C 1901 2412 2099 2342 2394 2143 
L 2464 2540 
z
" transform="scale(0.015625)"/>
       <path id="CMSS17-6d" d="M 4288 1878 
C 4288 2309 4179 2816 3462 2816 
C 2982 2816 2694 2515 2566 2328 
C 2451 2668 2182 2816 1798 2816 
C 1363 2816 1088 2566 941 2386 
L 941 2783 
L 474 2783 
L 474 0 
L 960 0 
L 960 1556 
C 960 1936 1101 2425 1555 2425 
C 2138 2425 2138 2013 2138 1826 
L 2138 0 
L 2624 0 
L 2624 1556 
C 2624 1936 2765 2425 3219 2425 
C 3802 2425 3802 2013 3802 1826 
L 3802 0 
L 4288 0 
L 4288 1878 
z
" transform="scale(0.015625)"/>
       <path id="CMSS17-32" d="M 1651 1353 
C 1830 1538 2099 1761 2285 1984 
C 2464 2201 2701 2507 2701 2953 
C 2701 3655 2227 4288 1421 4288 
C 787 4288 422 3891 250 3272 
L 499 2928 
C 640 3508 838 3878 1338 3878 
C 1888 3878 2195 3431 2195 2940 
C 2195 2354 1747 1901 1408 1563 
C 1030 1187 659 805 301 409 
L 301 0 
L 2701 0 
L 2701 435 
L 1613 435 
C 1536 435 1459 428 1382 428 
L 742 428 
L 742 435 
L 1651 1353 
z
" transform="scale(0.015625)"/>
       <path id="CMSS17-73" d="M 2061 2623 
C 1683 2803 1389 2816 1197 2816 
C 742 2816 198 2655 198 2009 
C 198 1363 902 1222 1094 1183 
C 1389 1126 1715 1062 1715 742 
C 1715 339 1254 339 1171 339 
C 915 339 563 409 243 639 
L 166 211 
C 531 0 883 -64 1178 -64 
C 1965 -64 2163 416 2163 780 
C 2163 1094 1984 1305 1862 1401 
C 1651 1567 1574 1587 1050 1695 
C 960 1708 646 1779 646 2067 
C 646 2431 1050 2431 1139 2431 
C 1555 2431 1811 2303 1984 2207 
L 2061 2623 
z
" transform="scale(0.015625)"/>
      </defs>
      <use xlink:href="#CMR17-16" transform="translate(7.105876 0.006461)scale(0.996264)"/>
      <use xlink:href="#CMMI12-17" transform="scale(0.996264)"/>
      <use xlink:href="#CMMI12-65" transform="translate(48.198482 -14.943915)scale(0.697382)"/>
      <use xlink:href="#CMR17-d" transform="translate(111.573983 0)scale(0.996264)"/>
      <use xlink:href="#CMR17-75" transform="translate(161.316207 0)scale(0.996264)"/>
      <use xlink:href="#CMR17-78" transform="translate(212.211577 0)scale(0.996264)"/>
      <use xlink:href="#CMR17-5b" transform="translate(291.733605 0)scale(0.996264)"/>
      <use xlink:href="#CMSS17-4d" transform="translate(316.604664 0)scale(0.996264)"/>
      <use xlink:href="#CMSS17-65" transform="translate(398.280694 0)scale(0.996264)"/>
      <use xlink:href="#CMSS17-56" transform="translate(439.919516 0)scale(0.996264)"/>
      <use xlink:href="#CMSY10-0" transform="translate(503.438537 36.153639)scale(0.697382)"/>
      <use xlink:href="#CMSS17-31" transform="translate(557.67953 36.153639)scale(0.697382)"/>
      <use xlink:href="#CMSS17-63" transform="translate(590.968043 0)scale(0.996264)"/>
      <use xlink:href="#CMSS17-6d" transform="translate(632.606865 0)scale(0.996264)"/>
      <use xlink:href="#CMSY10-0" transform="translate(706.83612 36.153639)scale(0.697382)"/>
      <use xlink:href="#CMSS17-32" transform="translate(761.077113 36.153639)scale(0.697382)"/>
      <use xlink:href="#CMSS17-73" transform="translate(794.365627 0)scale(0.996264)"/>
      <use xlink:href="#CMSY10-0" transform="translate(830.279169 36.153639)scale(0.697382)"/>
      <use xlink:href="#CMSS17-31" transform="translate(884.520162 36.153639)scale(0.697382)"/>
      <use xlink:href="#CMR17-5d" transform="translate(917.808675 0)scale(0.996264)"/>
     </g>
    </g>
   </g>
   <g id="line2d_55">
    <path d="M 86.858982 433 
L 86.8608 151.756678 
L 87.3216 110.315606 
L 87.7824 87.142407 
L 88.2432 82.025249 
L 89.6256 92.744288 
L 90.5472 77.998193 
L 91.4688 68.087533 
L 92.3904 60.612442 
L 92.8512 57.776172 
L 100.224 54.51911 
L 104.832 51.719154 
L 109.9008 48.908847 
L 112.2048 47.813195 
L 125.1072 47.673362 
L 137.5488 50.374731 
L 142.1568 52.065448 
L 149.0688 54.80227 
L 155.52 57.598132 
L 161.5104 60.444843 
L 163.8144 61.472663 
L 173.0304 64.218896 
L 181.3248 66.920498 
L 191.9232 70.655064 
L 199.296 73.358871 
L 208.9728 77.194281 
L 217.2672 80.566022 
L 224.64 83.33439 
L 230.6304 85.578452 
L 238.0032 88.380388 
L 243.072 90.288971 
L 249.984 92.927443 
L 257.3568 95.980999 
L 263.3472 98.687864 
L 277.1712 105.342868 
L 279.4752 106.473815 
L 285.4656 109.264416 
L 290.9952 112.087646 
L 299.7504 116.650621 
L 313.5744 124.542501 
L 319.104 127.863845 
L 324.1728 130.830997 
L 328.7808 133.803136 
L 330.1632 134.646001 
L 335.232 137.317098 
L 340.3008 140.243687 
L 343.9872 142.376818 
L 349.056 145.203836 
L 353.664 148.022048 
L 358.7328 151.154714 
L 363.3408 154.180071 
L 367.488 157.184673 
L 368.4096 157.799368 
L 373.4784 160.694837 
L 378.0864 163.588051 
L 391.4496 172.530787 
L 394.6752 174.866257 
L 398.8224 177.629477 
L 402.9696 180.667035 
L 407.5776 184.114035 
L 412.1856 186.950709 
L 416.3328 189.749858 
L 420.9408 192.920237 
L 425.088 195.64112 
L 429.2352 198.62759 
L 440.7552 207.507916 
L 443.9808 210.40673 
L 446.2848 212.449438 
L 449.5104 215.381168 
L 452.736 218.623633 
L 455.5008 221.705406 
L 458.2656 224.837929 
L 461.4912 227.740951 
L 464.7168 230.948329 
L 467.4816 233.993171 
L 471.168 238.203203 
L 474.8544 241.418366 
L 478.08 244.538351 
L 480.8448 247.491582 
L 484.992 252.039399 
L 487.7568 255.016874 
L 490.5216 258.315397 
L 492.8256 261.364612 
L 495.1296 264.751426 
L 497.4336 268.560011 
L 499.2768 271.989589 
L 501.12 275.852353 
L 502.9632 280.273769 
L 504.3456 284.066745 
L 505.728 288.39693 
L 507.1104 293.442009 
L 508.4928 299.485628 
L 509.4144 304.299161 
L 510.336 310.013215 
L 511.7184 319.151496 
L 513.1008 326.139216 
L 514.0224 331.877843 
L 514.944 338.888988 
L 515.8656 347.288645 
L 516.7872 358.901997 
L 517.248 366.929503 
L 517.7088 377.839849 
L 518.1696 394.948373 
L 518.584456 433 
L 518.584456 433 
" clip-path="url(#pf9e893742a)" style="fill: none; stroke-dasharray: 19.2,4.8,3,4.8; stroke-dashoffset: 0; stroke: #1f77b4; stroke-width: 3"/>
   </g>
   <g id="line2d_56">
    <path d="M 86.859195 433 
L 86.8608 184.817021 
L 87.3216 143.375949 
L 87.7824 120.20275 
L 88.2432 115.085592 
L 89.6256 125.804631 
L 90.5472 111.058536 
L 91.4688 101.147876 
L 92.3904 93.672785 
L 92.8512 90.836515 
L 100.224 87.579453 
L 104.832 84.779497 
L 109.9008 81.969189 
L 112.2048 80.873537 
L 125.1072 80.733705 
L 137.5488 83.435074 
L 142.1568 85.125791 
L 149.0688 87.862613 
L 155.52 90.658475 
L 161.5104 93.505186 
L 163.8144 94.533006 
L 173.0304 97.279239 
L 181.3248 99.980841 
L 191.9232 103.715407 
L 199.296 106.419214 
L 208.9728 110.254624 
L 217.2672 113.626365 
L 224.64 116.394733 
L 230.6304 118.638795 
L 238.0032 121.440731 
L 243.072 123.349314 
L 249.984 125.987786 
L 257.3568 129.041342 
L 263.3472 131.748206 
L 277.1712 138.403211 
L 279.4752 139.534158 
L 285.4656 142.324759 
L 290.9952 145.147989 
L 299.7504 149.710964 
L 313.5744 157.602844 
L 319.104 160.924188 
L 324.1728 163.89134 
L 328.7808 166.863479 
L 330.1632 167.706344 
L 335.232 170.377441 
L 340.3008 173.30403 
L 343.9872 175.437161 
L 349.056 178.264179 
L 353.664 181.082391 
L 358.7328 184.215057 
L 363.3408 187.240414 
L 367.488 190.245015 
L 368.4096 190.859711 
L 373.4784 193.75518 
L 378.0864 196.648394 
L 391.4496 205.591129 
L 394.6752 207.9266 
L 398.8224 210.68982 
L 402.9696 213.727378 
L 407.5776 217.174378 
L 412.1856 220.011052 
L 416.3328 222.810201 
L 420.9408 225.98058 
L 425.088 228.701463 
L 429.2352 231.687933 
L 440.7552 240.568259 
L 443.9808 243.467073 
L 446.2848 245.509781 
L 449.5104 248.441511 
L 452.736 251.683976 
L 455.5008 254.765749 
L 458.2656 257.898272 
L 461.4912 260.801294 
L 464.7168 264.008672 
L 467.4816 267.053514 
L 471.168 271.263546 
L 474.8544 274.478709 
L 478.08 277.598694 
L 480.8448 280.551925 
L 484.992 285.099741 
L 487.7568 288.077217 
L 490.5216 291.37574 
L 492.8256 294.424955 
L 495.1296 297.811769 
L 497.4336 301.620354 
L 499.2768 305.049932 
L 501.12 308.912696 
L 502.9632 313.334112 
L 504.3456 317.127088 
L 505.728 321.457273 
L 507.1104 326.502352 
L 508.4928 332.545971 
L 509.4144 337.359504 
L 510.336 343.073558 
L 511.7184 352.211839 
L 513.1008 359.199559 
L 514.0224 364.938185 
L 514.944 371.949331 
L 515.8656 380.348988 
L 516.7872 391.96234 
L 517.248 399.989845 
L 517.7088 410.900192 
L 518.224017 433 
L 518.224017 433 
" clip-path="url(#pf9e893742a)" style="fill: none; stroke: #ff7f0e; stroke-width: 3; stroke-linecap: square"/>
   </g>
   <g id="patch_3">
    <path d="M 86.4 367.2 
L 86.4 43.2 
" style="fill: none; stroke: #000000; stroke-width: 0.8; stroke-linejoin: miter; stroke-linecap: square"/>
   </g>
   <g id="patch_4">
    <path d="M 547.2 367.2 
L 547.2 43.2 
" style="fill: none; stroke: #000000; stroke-width: 0.8; stroke-linejoin: miter; stroke-linecap: square"/>
   </g>
   <g id="patch_5">
    <path d="M 86.4 367.2 
L 547.2 367.2 
" style="fill: none; stroke: #000000; stroke-width: 0.8; stroke-linejoin: miter; stroke-linecap: square"/>
   </g>
   <g id="patch_6">
    <path d="M 86.4 43.2 
L 547.2 43.2 
" style="fill: none; stroke: #000000; stroke-width: 0.8; stroke-linejoin: miter; stroke-linecap: square"/>
   </g>
   <g id="text_13">
    <!-- $\mathrm{Taishan},N=7.4e+12\si{cm^{-2}s^{-1}}$ -->
    <g transform="translate(112 237.119693)scale(0.2 -0.2)">
     <defs>
      <path id="CMR17-54" d="M 3981 4332 
L 288 4332 
L 179 2924 
L 294 2924 
C 378 3981 467 4166 1453 4166 
C 1568 4166 1754 4166 1805 4159 
C 1926 4140 1926 4064 1926 3917 
L 1926 465 
C 1926 236 1907 166 1376 166 
L 1197 166 
L 1197 0 
C 1504 6 1824 12 2138 12 
C 2451 12 2771 6 3078 0 
L 3078 166 
L 2899 166 
C 2368 166 2349 236 2349 465 
L 2349 3917 
C 2349 4057 2349 4134 2464 4159 
C 2515 4166 2701 4166 2816 4166 
C 3795 4166 3891 3981 3974 2924 
L 4090 2924 
L 3981 4332 
z
" transform="scale(0.015625)"/>
      <path id="CMR17-61" d="M 2304 1656 
C 2304 2048 2304 2275 2035 2534 
C 1798 2751 1523 2816 1306 2816 
C 800 2816 435 2408 435 1977 
C 435 1740 627 1728 666 1728 
C 749 1728 896 1779 896 1958 
C 896 2118 774 2188 666 2188 
C 640 2188 608 2182 589 2176 
C 723 2594 1069 2713 1293 2713 
C 1613 2713 1965 2421 1965 1875 
L 1965 1632 
C 1587 1619 1133 1568 774 1373 
C 371 1147 256 822 256 576 
C 256 77 832 -64 1171 -64 
C 1523 -64 1850 135 1990 505 
C 2003 219 2182 -39 2464 -39 
C 2598 -39 2938 51 2938 563 
L 2938 926 
L 2822 926 
L 2822 557 
C 2822 161 2650 109 2566 109 
C 2304 109 2304 446 2304 732 
L 2304 1656 
z
M 1965 887 
C 1965 323 1568 38 1216 38 
C 896 38 646 278 646 576 
C 646 771 730 1114 1101 1322 
C 1408 1497 1760 1523 1965 1536 
L 1965 887 
z
" transform="scale(0.015625)"/>
      <path id="CMR17-69" d="M 992 3961 
C 992 4102 877 4224 730 4224 
C 589 4224 467 4108 467 3961 
C 467 3820 582 3699 730 3699 
C 870 3699 992 3814 992 3961 
z
M 243 2745 
L 243 2579 
C 602 2579 653 2540 653 2231 
L 653 443 
C 653 198 627 166 218 166 
L 218 0 
C 371 12 646 12 806 12 
C 960 12 1222 12 1370 0 
L 1370 166 
C 992 166 979 205 979 436 
L 979 2816 
L 243 2745 
z
" transform="scale(0.015625)"/>
      <path id="CMR17-73" d="M 1978 2688 
C 1978 2803 1971 2809 1933 2809 
C 1907 2809 1901 2803 1824 2707 
C 1805 2681 1747 2617 1728 2592 
C 1523 2809 1235 2816 1126 2816 
C 416 2816 160 2444 160 2073 
C 160 1497 813 1363 998 1324 
C 1402 1241 1542 1216 1677 1100 
C 1760 1024 1901 883 1901 652 
C 1901 384 1747 38 1158 38 
C 602 38 403 460 288 1024 
C 269 1113 269 1120 218 1120 
C 166 1120 160 1113 160 985 
L 160 64 
C 160 -52 166 -58 205 -58 
C 237 -58 243 -52 275 0 
C 314 57 410 211 448 275 
C 576 102 800 -64 1158 -64 
C 1792 -64 2131 281 2131 780 
C 2131 1107 1958 1280 1875 1356 
C 1683 1555 1459 1600 1190 1651 
C 838 1728 390 1817 390 2208 
C 390 2374 480 2726 1126 2726 
C 1811 2726 1850 2086 1862 1881 
C 1869 1849 1901 1843 1920 1843 
C 1978 1843 1978 1862 1978 1971 
L 1978 2688 
z
" transform="scale(0.015625)"/>
      <path id="CMR17-68" d="M 2656 1954 
C 2656 2282 2592 2816 1837 2816 
C 1312 2816 1056 2392 979 2179 
L 973 2179 
L 973 4416 
L 211 4345 
L 211 4179 
C 589 4179 646 4141 646 3843 
L 646 443 
C 646 198 621 166 211 166 
L 211 0 
C 365 12 646 12 813 12 
C 979 12 1267 12 1421 0 
L 1421 166 
C 1011 166 986 192 986 443 
L 986 1678 
C 986 2269 1344 2713 1792 2713 
C 2266 2713 2317 2289 2317 1980 
L 2317 443 
C 2317 198 2291 166 1882 166 
L 1882 0 
C 2035 12 2317 12 2483 12 
C 2650 12 2938 12 3091 0 
L 3091 166 
C 2682 166 2656 192 2656 443 
L 2656 1954 
z
" transform="scale(0.015625)"/>
      <path id="CMMI12-3b" d="M 1248 -26 
C 1248 345 1126 620 864 620 
C 659 620 557 454 557 313 
C 557 172 653 0 870 0 
C 954 0 1024 25 1082 83 
C 1094 96 1101 96 1107 96 
C 1120 96 1120 6 1120 -26 
C 1120 -233 1082 -642 710 -1051 
C 640 -1127 640 -1140 640 -1152 
C 640 -1184 672 -1216 704 -1216 
C 755 -1216 1248 -749 1248 -26 
z
" transform="scale(0.015625)"/>
      <path id="CMMI12-4e" d="M 4736 3682 
C 4806 3956 4909 4147 5395 4166 
C 5414 4166 5491 4172 5491 4281 
C 5491 4352 5434 4352 5408 4352 
C 5280 4352 4954 4339 4826 4339 
L 4518 4339 
C 4429 4339 4314 4352 4224 4352 
C 4186 4352 4109 4352 4109 4230 
C 4109 4166 4160 4166 4205 4166 
C 4589 4153 4614 4007 4614 3892 
C 4614 3835 4608 3816 4589 3726 
L 3866 854 
L 2496 4243 
C 2451 4345 2445 4352 2304 4352 
L 1523 4352 
C 1395 4352 1338 4352 1338 4230 
C 1338 4166 1382 4166 1504 4166 
C 1536 4166 1914 4166 1914 4109 
C 1914 4096 1901 4045 1894 4026 
L 1043 650 
C 966 338 813 204 390 185 
C 358 185 294 179 294 64 
C 294 0 358 0 378 0 
C 506 0 832 12 960 12 
L 1267 12 
C 1357 12 1466 0 1555 0 
C 1600 0 1670 0 1670 121 
C 1670 179 1606 185 1581 185 
C 1370 191 1165 230 1165 459 
C 1165 510 1178 567 1190 618 
L 2054 4026 
C 2093 3962 2093 3949 2118 3892 
L 3642 115 
C 3674 38 3686 0 3744 0 
C 3808 0 3814 19 3840 128 
L 4736 3682 
z
" transform="scale(0.015625)"/>
      <path id="CMR17-3d" d="M 4115 2048 
C 4211 2048 4307 2048 4307 2156 
C 4307 2272 4198 2272 4090 2272 
L 512 2272 
C 403 2272 294 2272 294 2156 
C 294 2048 390 2048 486 2048 
L 4115 2048 
z
M 4090 927 
C 4198 927 4307 927 4307 1043 
C 4307 1152 4211 1152 4115 1152 
L 486 1152 
C 390 1152 294 1152 294 1043 
C 294 927 403 927 512 927 
L 4090 927 
z
" transform="scale(0.015625)"/>
      <path id="CMR17-37" d="M 2886 3955 
L 2886 4096 
L 1382 4096 
C 634 4096 621 4166 595 4288 
L 480 4288 
L 294 3104 
L 410 3104 
C 429 3226 474 3552 550 3673 
C 589 3724 1062 3724 1171 3724 
L 2579 3724 
L 1869 2670 
C 1395 1961 1069 1003 1069 166 
C 1069 89 1069 -128 1299 -128 
C 1530 -128 1530 89 1530 172 
L 1530 466 
C 1530 1514 1709 2204 2003 2644 
L 2886 3955 
z
" transform="scale(0.015625)"/>
      <path id="CMMI12-3a" d="M 1178 307 
C 1178 492 1024 620 870 620 
C 685 620 557 467 557 313 
C 557 128 710 0 864 0 
C 1050 0 1178 153 1178 307 
z
" transform="scale(0.015625)"/>
      <path id="CMR17-2b" d="M 2413 1472 
L 4109 1472 
C 4198 1472 4307 1472 4307 1580 
C 4307 1696 4205 1696 4109 1696 
L 2413 1696 
L 2413 3385 
C 2413 3475 2413 3584 2304 3584 
C 2189 3584 2189 3481 2189 3385 
L 2189 1696 
L 493 1696 
C 403 1696 294 1696 294 1587 
C 294 1472 397 1472 493 1472 
L 2189 1472 
L 2189 -194 
C 2189 -282 2189 -391 2298 -391 
C 2413 -391 2413 -289 2413 -194 
L 2413 1472 
z
" transform="scale(0.015625)"/>
     </defs>
     <use xlink:href="#CMR17-54" transform="scale(0.996264)"/>
     <use xlink:href="#CMR17-61" transform="translate(58.702625 0)scale(0.996264)"/>
     <use xlink:href="#CMR17-69" transform="translate(104.393102 0)scale(0.996264)"/>
     <use xlink:href="#CMR17-73" transform="translate(129.264161 0)scale(0.996264)"/>
     <use xlink:href="#CMR17-68" transform="translate(165.065498 0)scale(0.996264)"/>
     <use xlink:href="#CMR17-61" transform="translate(215.960868 0)scale(0.996264)"/>
     <use xlink:href="#CMR17-6e" transform="translate(261.651345 0)scale(0.996264)"/>
     <use xlink:href="#CMMI12-3b" transform="translate(312.546715 0)scale(0.996264)"/>
     <use xlink:href="#CMMI12-4e" transform="translate(356.248297 0)scale(0.996264)"/>
     <use xlink:href="#CMR17-3d" transform="translate(472.444079 0)scale(0.996264)"/>
     <use xlink:href="#CMR17-37" transform="translate(571.832876 0)scale(0.996264)"/>
     <use xlink:href="#CMMI12-3a" transform="translate(617.523353 0)scale(0.996264)"/>
     <use xlink:href="#CMR17-34" transform="translate(644.62053 0)scale(0.996264)"/>
     <use xlink:href="#CMMI12-65" transform="translate(690.311007 0)scale(0.996264)"/>
     <use xlink:href="#CMR17-2b" transform="translate(757.662215 0)scale(0.996264)"/>
     <use xlink:href="#CMR17-31" transform="translate(851.516211 0)scale(0.996264)"/>
     <use xlink:href="#CMR17-32" transform="translate(897.206688 0)scale(0.996264)"/>
     <use xlink:href="#CMSS17-63" transform="translate(942.897165 0)scale(0.996264)"/>
     <use xlink:href="#CMSS17-6d" transform="translate(984.535987 0)scale(0.996264)"/>
     <use xlink:href="#CMSY10-0" transform="translate(1058.765241 36.153639)scale(0.697382)"/>
     <use xlink:href="#CMSS17-32" transform="translate(1113.006235 36.153639)scale(0.697382)"/>
     <use xlink:href="#CMSS17-73" transform="translate(1146.294748 0)scale(0.996264)"/>
     <use xlink:href="#CMSY10-0" transform="translate(1182.20829 36.153639)scale(0.697382)"/>
     <use xlink:href="#CMSS17-31" transform="translate(1236.449283 36.153639)scale(0.697382)"/>
    </g>
   </g>
   <g id="text_14">
    <!-- $\mathrm{Shidao\ Bay},N=2.5e+12\si{cm^{-2}s^{-1}}$ -->
    <g transform="translate(112 284.284995)scale(0.2 -0.2)">
     <defs>
      <path id="CMR17-53" d="M 2803 4351 
C 2803 4467 2797 4473 2758 4473 
C 2720 4473 2707 4447 2682 4390 
L 2490 3965 
C 2246 4320 1875 4480 1472 4480 
C 819 4480 294 3958 294 3301 
C 294 3101 339 2817 557 2546 
C 794 2250 1018 2198 1530 2063 
C 1722 2011 2042 1927 2106 1901 
C 2470 1747 2662 1360 2662 999 
C 2662 534 2336 38 1779 38 
C 1094 38 454 425 410 1328 
C 403 1431 397 1437 352 1437 
C 301 1437 294 1431 294 1302 
L 294 0 
C 294 -116 301 -122 339 -122 
C 384 -122 397 -90 486 109 
C 493 128 493 141 614 386 
C 934 -39 1472 -128 1779 -128 
C 2477 -128 2970 457 2970 1141 
C 2970 1476 2848 1734 2778 1850 
C 2509 2263 2221 2340 1914 2417 
C 1869 2437 1856 2437 1498 2527 
C 1152 2617 1005 2662 845 2836 
C 666 3036 602 3243 602 3449 
C 602 3868 934 4326 1478 4326 
C 2157 4326 2579 3842 2675 3036 
C 2694 2920 2701 2914 2746 2914 
C 2803 2914 2803 2933 2803 3043 
L 2803 4351 
z
" transform="scale(0.015625)"/>
      <path id="CMR17-64" d="M 1869 4345 
L 1869 4179 
C 2246 4179 2304 4141 2304 3843 
L 2304 2371 
C 2278 2403 2016 2816 1498 2816 
C 845 2816 211 2228 211 1376 
C 211 529 806 -64 1434 -64 
C 1978 -64 2259 361 2291 406 
L 2291 -64 
L 3066 -13 
L 3066 154 
C 2688 154 2630 193 2630 503 
L 2630 4416 
L 1869 4345 
z
M 2291 762 
C 2291 568 2176 393 2029 264 
C 1811 70 1594 38 1472 38 
C 1286 38 621 135 621 1369 
C 621 2636 1363 2713 1530 2713 
C 1824 2713 2061 2545 2208 2313 
C 2291 2177 2291 2157 2291 2041 
L 2291 762 
z
" transform="scale(0.015625)"/>
      <path id="CMR17-6f" d="M 2758 1356 
C 2758 2176 2163 2816 1466 2816 
C 768 2816 173 2176 173 1356 
C 173 550 768 -64 1466 -64 
C 2163 -64 2758 550 2758 1356 
z
M 1466 51 
C 1165 51 909 230 762 480 
C 602 768 582 1126 582 1408 
C 582 1676 595 2009 762 2297 
C 890 2508 1139 2713 1466 2713 
C 1754 2713 1997 2553 2150 2329 
C 2349 2028 2349 1606 2349 1408 
C 2349 1158 2336 774 2163 467 
C 1984 172 1709 51 1466 51 
z
" transform="scale(0.015625)"/>
      <path id="CMR17-42" d="M 333 4352 
L 333 4185 
C 774 4185 845 4185 845 3897 
L 845 451 
C 845 166 774 166 333 166 
L 333 0 
L 2534 0 
C 3354 0 3885 578 3885 1155 
C 3885 1726 3360 2214 2675 2259 
C 3290 2380 3718 2790 3718 3276 
C 3718 3808 3194 4352 2368 4352 
L 333 4352 
z
M 1248 2304 
L 1248 3936 
C 1248 4153 1261 4185 1517 4185 
L 2336 4185 
C 2970 4185 3251 3673 3251 3276 
C 3251 2790 2861 2304 2170 2304 
L 1248 2304 
z
M 1517 166 
C 1261 166 1248 198 1248 413 
L 1248 2201 
L 2432 2201 
C 3091 2201 3411 1624 3411 1161 
C 3411 698 3046 166 2349 166 
L 1517 166 
z
" transform="scale(0.015625)"/>
      <path id="CMR17-35" d="M 730 3750 
C 794 3724 1056 3641 1325 3641 
C 1920 3641 2246 3961 2432 4140 
C 2432 4191 2432 4224 2394 4224 
C 2387 4224 2374 4224 2323 4198 
C 2099 4102 1837 4032 1517 4032 
C 1325 4032 1037 4055 723 4191 
C 653 4224 640 4224 634 4224 
C 602 4224 595 4217 595 4090 
L 595 2231 
C 595 2113 595 2080 659 2080 
C 691 2080 704 2093 736 2139 
C 941 2435 1222 2560 1542 2560 
C 1766 2560 2246 2415 2246 1293 
C 2246 1087 2246 716 2054 422 
C 1894 159 1645 25 1370 25 
C 947 25 518 319 403 812 
C 429 806 480 793 506 793 
C 589 793 749 838 749 1036 
C 749 1209 627 1280 506 1280 
C 358 1280 262 1190 262 1011 
C 262 454 704 -128 1382 -128 
C 2042 -128 2669 441 2669 1267 
C 2669 2054 2170 2662 1549 2662 
C 1222 2662 947 2540 730 2304 
L 730 3750 
z
" transform="scale(0.015625)"/>
     </defs>
     <use xlink:href="#CMR17-53" transform="scale(0.996264)"/>
     <use xlink:href="#CMR17-68" transform="translate(50.89537 0)scale(0.996264)"/>
     <use xlink:href="#CMR17-69" transform="translate(101.79074 0)scale(0.996264)"/>
     <use xlink:href="#CMR17-64" transform="translate(126.661798 0)scale(0.996264)"/>
     <use xlink:href="#CMR17-61" transform="translate(177.557168 0)scale(0.996264)"/>
     <use xlink:href="#CMR17-6f" transform="translate(223.247645 0)scale(0.996264)"/>
     <use xlink:href="#CMR17-42" transform="translate(300.167235 0)scale(0.996264)"/>
     <use xlink:href="#CMR17-61" transform="translate(365.355989 0)scale(0.996264)"/>
     <use xlink:href="#CMR17-79" transform="translate(408.444012 0)scale(0.996264)"/>
     <use xlink:href="#CMMI12-3b" transform="translate(458.038094 0)scale(0.996264)"/>
     <use xlink:href="#CMMI12-4e" transform="translate(501.739677 0)scale(0.996264)"/>
     <use xlink:href="#CMR17-3d" transform="translate(617.935458 0)scale(0.996264)"/>
     <use xlink:href="#CMR17-32" transform="translate(717.324255 0)scale(0.996264)"/>
     <use xlink:href="#CMMI12-3a" transform="translate(763.014732 0)scale(0.996264)"/>
     <use xlink:href="#CMR17-35" transform="translate(790.111909 0)scale(0.996264)"/>
     <use xlink:href="#CMMI12-65" transform="translate(835.802387 0)scale(0.996264)"/>
     <use xlink:href="#CMR17-2b" transform="translate(903.153595 0)scale(0.996264)"/>
     <use xlink:href="#CMR17-31" transform="translate(997.00759 0)scale(0.996264)"/>
     <use xlink:href="#CMR17-32" transform="translate(1042.698067 0)scale(0.996264)"/>
     <use xlink:href="#CMSS17-63" transform="translate(1088.388544 0)scale(0.996264)"/>
     <use xlink:href="#CMSS17-6d" transform="translate(1130.027366 0)scale(0.996264)"/>
     <use xlink:href="#CMSY10-0" transform="translate(1204.256621 36.153639)scale(0.697382)"/>
     <use xlink:href="#CMSS17-32" transform="translate(1258.497614 36.153639)scale(0.697382)"/>
     <use xlink:href="#CMSS17-73" transform="translate(1291.786127 0)scale(0.996264)"/>
     <use xlink:href="#CMSY10-0" transform="translate(1327.699669 36.153639)scale(0.697382)"/>
     <use xlink:href="#CMSS17-31" transform="translate(1381.940663 36.153639)scale(0.697382)"/>
    </g>
   </g>
   <g id="legend_1">
    <g id="patch_7">
     <path d="M 264.01604 114.951267 
L 533.2 114.951267 
Q 537.2 114.951267 537.2 110.951267 
L 537.2 57.2 
Q 537.2 53.2 533.2 53.2 
L 264.01604 53.2 
Q 260.01604 53.2 260.01604 57.2 
L 260.01604 110.951267 
Q 260.01604 114.951267 264.01604 114.951267 
z
" style="fill: #ffffff; opacity: 0.8; stroke: #cccccc; stroke-linejoin: miter"/>
    </g>
    <g id="line2d_57">
     <path d="M 268.01604 68.2 
L 288.01604 68.2 
L 308.01604 68.2 
" style="fill: none; stroke-dasharray: 19.2,4.8,3,4.8; stroke-dashoffset: 0; stroke: #1f77b4; stroke-width: 3"/>
    </g>
    <g id="text_15">
     <!-- $\mathrm{Taishan},30\si{m},4.6\si{GW}$ -->
     <g transform="translate(324.01604 75.2)scale(0.2 -0.2)">
      <defs>
       <path id="CMR17-33" d="M 1414 2176 
C 1984 2176 2234 1673 2234 1094 
C 2234 322 1824 25 1453 25 
C 1114 25 563 193 390 691 
C 422 678 454 678 486 678 
C 640 678 755 780 755 947 
C 755 1132 614 1216 486 1216 
C 378 1216 211 1164 211 927 
C 211 335 787 -128 1466 -128 
C 2176 -128 2720 432 2720 1087 
C 2720 1718 2208 2176 1600 2246 
C 2086 2347 2554 2776 2554 3353 
C 2554 3856 2048 4224 1472 4224 
C 890 4224 378 3862 378 3347 
C 378 3123 544 3084 627 3084 
C 762 3084 877 3167 877 3334 
C 877 3500 762 3584 627 3584 
C 602 3584 570 3584 544 3571 
C 730 3999 1235 4076 1459 4076 
C 1683 4076 2106 3966 2106 3347 
C 2106 3167 2080 2851 1862 2574 
C 1670 2329 1453 2316 1242 2297 
C 1210 2297 1062 2284 1037 2284 
C 992 2278 966 2272 966 2227 
C 966 2182 973 2176 1101 2176 
L 1414 2176 
z
" transform="scale(0.015625)"/>
       <path id="CMSS17-47" d="M 3610 1868 
L 2336 1868 
L 2336 1472 
L 3123 1472 
L 3123 473 
C 2874 403 2618 352 2362 352 
C 1466 352 934 1311 934 2220 
C 934 3123 1491 4070 2362 4070 
C 2854 4070 3130 3916 3469 3660 
L 3552 4172 
C 3130 4390 2867 4480 2387 4480 
C 1146 4480 397 3353 397 2201 
C 397 1100 1152 -64 2349 -64 
C 2797 -64 3213 51 3610 249 
L 3610 1868 
z
" transform="scale(0.015625)"/>
       <path id="CMSS17-57" d="M 5581 4416 
L 5094 4416 
L 4557 2436 
C 4474 2118 4397 1800 4320 1482 
C 4205 1012 4122 681 4109 516 
L 4102 516 
C 4090 687 4006 1050 3904 1457 
C 3827 1794 3744 2131 3654 2462 
L 3123 4416 
L 2586 4416 
L 2080 2564 
L 1824 1552 
C 1632 751 1626 636 1613 509 
L 1606 509 
C 1606 547 1581 757 1402 1501 
C 1312 1870 1222 2246 1126 2602 
L 634 4416 
L 83 4416 
L 1299 0 
L 1830 0 
L 2336 1838 
L 2592 2850 
C 2765 3562 2803 3740 2816 3899 
L 2822 3899 
C 2822 3874 2880 3473 3130 2544 
L 3808 0 
L 4365 0 
L 5581 4416 
z
" transform="scale(0.015625)"/>
      </defs>
      <use xlink:href="#CMR17-54" transform="scale(0.996264)"/>
      <use xlink:href="#CMR17-61" transform="translate(58.702625 0)scale(0.996264)"/>
      <use xlink:href="#CMR17-69" transform="translate(104.393102 0)scale(0.996264)"/>
      <use xlink:href="#CMR17-73" transform="translate(129.264161 0)scale(0.996264)"/>
      <use xlink:href="#CMR17-68" transform="translate(165.065498 0)scale(0.996264)"/>
      <use xlink:href="#CMR17-61" transform="translate(215.960868 0)scale(0.996264)"/>
      <use xlink:href="#CMR17-6e" transform="translate(261.651345 0)scale(0.996264)"/>
      <use xlink:href="#CMMI12-3b" transform="translate(312.546715 0)scale(0.996264)"/>
      <use xlink:href="#CMR17-33" transform="translate(356.248297 0)scale(0.996264)"/>
      <use xlink:href="#CMR17-30" transform="translate(401.938775 0)scale(0.996264)"/>
      <use xlink:href="#CMSS17-6d" transform="translate(447.629252 0)scale(0.996264)"/>
      <use xlink:href="#CMMI12-3b" transform="translate(521.858506 0)scale(0.996264)"/>
      <use xlink:href="#CMR17-34" transform="translate(565.560088 0)scale(0.996264)"/>
      <use xlink:href="#CMMI12-3a" transform="translate(611.250566 0)scale(0.996264)"/>
      <use xlink:href="#CMR17-36" transform="translate(638.347743 0)scale(0.996264)"/>
      <use xlink:href="#CMSS17-47" transform="translate(684.03822 0)scale(0.996264)"/>
      <use xlink:href="#CMSS17-57" transform="translate(746.496445 0)scale(0.996264)"/>
     </g>
    </g>
    <g id="line2d_58">
     <path d="M 268.01604 96.075634 
L 288.01604 96.075634 
L 308.01604 96.075634 
" style="fill: none; stroke: #ff7f0e; stroke-width: 3; stroke-linecap: square"/>
    </g>
    <g id="text_16">
     <!-- $\mathrm{Shidao\ Bay},12\si{m},0.25\si{GW}$ -->
     <g transform="translate(324.01604 103.075634)scale(0.2 -0.2)">
      <use xlink:href="#CMR17-53" transform="scale(0.996264)"/>
      <use xlink:href="#CMR17-68" transform="translate(50.89537 0)scale(0.996264)"/>
      <use xlink:href="#CMR17-69" transform="translate(101.79074 0)scale(0.996264)"/>
      <use xlink:href="#CMR17-64" transform="translate(126.661798 0)scale(0.996264)"/>
      <use xlink:href="#CMR17-61" transform="translate(177.557168 0)scale(0.996264)"/>
      <use xlink:href="#CMR17-6f" transform="translate(223.247645 0)scale(0.996264)"/>
      <use xlink:href="#CMR17-42" transform="translate(300.167235 0)scale(0.996264)"/>
      <use xlink:href="#CMR17-61" transform="translate(365.355989 0)scale(0.996264)"/>
      <use xlink:href="#CMR17-79" transform="translate(408.444012 0)scale(0.996264)"/>
      <use xlink:href="#CMMI12-3b" transform="translate(458.038094 0)scale(0.996264)"/>
      <use xlink:href="#CMR17-31" transform="translate(501.739677 0)scale(0.996264)"/>
      <use xlink:href="#CMR17-32" transform="translate(547.430154 0)scale(0.996264)"/>
      <use xlink:href="#CMSS17-6d" transform="translate(593.120631 0)scale(0.996264)"/>
      <use xlink:href="#CMMI12-3b" transform="translate(667.349885 0)scale(0.996264)"/>
      <use xlink:href="#CMR17-30" transform="translate(711.051468 0)scale(0.996264)"/>
      <use xlink:href="#CMMI12-3a" transform="translate(756.741945 0)scale(0.996264)"/>
      <use xlink:href="#CMR17-32" transform="translate(783.839122 0)scale(0.996264)"/>
      <use xlink:href="#CMR17-35" transform="translate(829.529599 0)scale(0.996264)"/>
      <use xlink:href="#CMSS17-47" transform="translate(875.220076 0)scale(0.996264)"/>
      <use xlink:href="#CMSS17-57" transform="translate(937.678302 0)scale(0.996264)"/>
     </g>
    </g>
   </g>
  </g>
 </g>
 <defs>
  <clipPath id="pf9e893742a">
   <rect x="86.4" y="43.2" width="460.8" height="324"/>
  </clipPath>
 </defs>
</svg>
