<?xml version="1.0" encoding="utf-8" standalone="no"?>
<!DOCTYPE svg PUBLIC "-//W3C//DTD SVG 1.1//EN"
  "http://www.w3.org/Graphics/SVG/1.1/DTD/svg11.dtd">
<svg xmlns:xlink="http://www.w3.org/1999/xlink" width="432pt" height="432pt" viewBox="0 0 432 432" xmlns="http://www.w3.org/2000/svg" version="1.1">
 <metadata>
  <rdf:RDF xmlns:dc="http://purl.org/dc/elements/1.1/" xmlns:cc="http://creativecommons.org/ns#" xmlns:rdf="http://www.w3.org/1999/02/22-rdf-syntax-ns#">
   <cc:Work>
    <dc:type rdf:resource="http://purl.org/dc/dcmitype/StillImage"/>
    <dc:date>2022-05-27T10:44:56.051623</dc:date>
    <dc:format>image/svg+xml</dc:format>
    <dc:creator>
     <cc:Agent>
      <dc:title>Matplotlib v3.5.1, https://matplotlib.org/</dc:title>
     </cc:Agent>
    </dc:creator>
   </cc:Work>
  </rdf:RDF>
 </metadata>
 <defs>
  <style type="text/css">*{stroke-linejoin: round; stroke-linecap: butt}</style>
 </defs>
 <g id="figure_1">
  <g id="patch_1">
   <path d="M 0 432 
L 432 432 
L 432 0 
L 0 0 
L 0 432 
z
" style="fill: none"/>
  </g>
  <g id="axes_1">
   <g id="patch_2">
    <path d="M 64.8 367.2 
L 410.4 367.2 
L 410.4 43.2 
L 64.8 43.2 
L 64.8 367.2 
z
" style="fill: none"/>
   </g>
   <g id="PolyCollection_1">
    <path d="M 64.8 39.966017 
L 64.8 39.966017 
L 68.256 43.590767 
L 71.712 47.215518 
L 75.168 50.840269 
L 78.624 54.465019 
L 82.08 58.08977 
L 85.536 61.71452 
L 88.992 65.339271 
L 92.448 68.964021 
L 95.904 72.588772 
L 99.36 76.213522 
L 102.816 79.838273 
L 106.272 83.463024 
L 109.728 87.087774 
L 113.184 90.712525 
L 116.64 94.337275 
L 120.096 97.962026 
L 123.552 101.586776 
L 127.008 105.211527 
L 130.464 108.836278 
L 133.92 112.461028 
L 137.376 116.085779 
L 140.832 119.710529 
L 144.288 123.33528 
L 147.744 126.96003 
L 151.2 130.584781 
L 154.656 134.209532 
L 158.112 137.834282 
L 161.568 141.459033 
L 165.024 145.083783 
L 168.48 148.708534 
L 171.936 152.333284 
L 175.392 155.958035 
L 178.848 159.582785 
L 182.304 163.207536 
L 185.76 166.832287 
L 189.216 170.457037 
L 192.672 174.081788 
L 196.128 177.706538 
L 199.584 181.331289 
L 203.04 184.956039 
L 206.496 188.58079 
L 209.952 192.205541 
L 213.408 195.830291 
L 216.864 199.455042 
L 220.32 203.079792 
L 223.776 206.704543 
L 227.232 210.329293 
L 230.688 213.954044 
L 234.144 217.578794 
L 237.6 221.203545 
L 241.056 224.828296 
L 244.512 228.453046 
L 247.968 232.077797 
L 251.424 235.702547 
L 254.88 239.327298 
L 258.336 242.952048 
L 261.792 246.576799 
L 265.248 250.20155 
L 268.704 253.8263 
L 272.16 257.451051 
L 275.616 261.075801 
L 279.072 264.700552 
L 282.528 268.325302 
L 285.984 271.950053 
L 289.44 275.574804 
L 292.896 279.199554 
L 296.352 282.824305 
L 299.808 286.449055 
L 303.264 290.073806 
L 306.72 293.698556 
L 310.176 297.323307 
L 313.632 300.948057 
L 317.088 304.572808 
L 320.544 308.197559 
L 324 311.822309 
L 327.456 315.44706 
L 330.912 319.07181 
L 334.368 322.696561 
L 337.824 326.321311 
L 341.28 329.946062 
L 344.736 333.570813 
L 348.192 337.195563 
L 351.648 340.820314 
L 355.104 344.445064 
L 358.56 348.069815 
L 362.016 351.694565 
L 365.472 355.319316 
L 368.928 358.944066 
L 372.384 362.568817 
L 375.84 366.193568 
L 379.296 369.818318 
L 382.752 373.443069 
L 386.208 377.067819 
L 389.664 380.69257 
L 393.12 384.31732 
L 396.576 387.942071 
L 400.032 391.566822 
L 403.488 395.191572 
L 406.944 398.816323 
L 410.4 402.441073 
L 410.4 402.441073 
L 410.4 303.92687 
L 406.944 300.301648 
L 403.488 296.676426 
L 400.032 293.051205 
L 396.576 289.425983 
L 393.12 285.800761 
L 389.664 282.17554 
L 386.208 278.550318 
L 382.752 274.925096 
L 379.296 271.299874 
L 375.84 267.674653 
L 372.384 264.049431 
L 368.928 260.424209 
L 365.472 256.798988 
L 362.016 253.173766 
L 358.56 249.548544 
L 355.104 245.923323 
L 351.648 242.298101 
L 348.192 238.672879 
L 344.736 235.047657 
L 341.28 231.422436 
L 337.824 227.797214 
L 334.368 224.171992 
L 330.912 220.546771 
L 327.456 216.921549 
L 324 213.296327 
L 320.544 209.671106 
L 317.088 206.045884 
L 313.632 202.420662 
L 310.176 198.79544 
L 306.72 195.170219 
L 303.264 191.544997 
L 299.808 187.919775 
L 296.352 184.294554 
L 292.896 180.669332 
L 289.44 177.04411 
L 285.984 173.418889 
L 282.528 169.793667 
L 279.072 166.168445 
L 275.616 162.543223 
L 272.16 158.918002 
L 268.704 155.29278 
L 265.248 151.667558 
L 261.792 148.042337 
L 258.336 144.417115 
L 254.88 140.791893 
L 251.424 137.166672 
L 247.968 133.54145 
L 244.512 129.916228 
L 241.056 126.291006 
L 237.6 122.665785 
L 234.144 119.040563 
L 230.688 115.415341 
L 227.232 111.79012 
L 223.776 108.164898 
L 220.32 104.539676 
L 216.864 100.914455 
L 213.408 97.289233 
L 209.952 93.664011 
L 206.496 90.038789 
L 203.04 86.413568 
L 199.584 82.788346 
L 196.128 79.163124 
L 192.672 75.537903 
L 189.216 71.912681 
L 185.76 68.287459 
L 182.304 64.662238 
L 178.848 61.037016 
L 175.392 57.411794 
L 171.936 53.786573 
L 168.48 50.161351 
L 165.024 46.536129 
L 161.568 42.910907 
L 158.112 39.285686 
L 154.656 35.660464 
L 151.2 32.035242 
L 147.744 28.410021 
L 144.288 24.784799 
L 140.832 21.159577 
L 137.376 17.534356 
L 133.92 13.909134 
L 130.464 10.283912 
L 127.008 6.65869 
L 123.552 3.033469 
L 120.096 -0.591753 
L 116.64 -4.216975 
L 113.184 -7.842196 
L 109.728 -11.467418 
L 106.272 -15.09264 
L 102.816 -18.717861 
L 99.36 -22.343083 
L 95.904 -25.968305 
L 92.448 -29.593527 
L 88.992 -33.218748 
L 85.536 -36.84397 
L 82.08 -40.469192 
L 78.624 -44.094413 
L 75.168 -47.719635 
L 71.712 -51.344857 
L 68.256 -54.970078 
L 64.8 -58.5953 
z
" clip-path="url(#p2694024a4a)" style="fill: #0000ff; fill-opacity: 0.2"/>
   </g>
   <g id="PathCollection_1">
    <path d="M 384.48 365.743067 
L 385.871733 367.2 
L 386.208 367.2 
L 387.936 367.2 
L 389.664 367.2 
L 391.392 367.2 
L 393.12 367.2 
L 394.848 367.2 
L 395.983728 367.2 
L 394.848 365.955906 
L 394.47974 365.58 
L 393.12 364.087149 
L 392.995245 363.96 
L 391.466802 362.34 
L 391.392 362.258408 
L 389.891665 360.72 
L 389.664 360.471502 
L 388.324849 359.1 
L 387.936 358.675374 
L 386.768705 357.48 
L 386.208 356.866898 
L 385.223583 355.86 
L 384.48 355.04686 
L 383.690905 354.24 
L 382.752 353.211282 
L 382.173 352.62 
L 381.024 351.361304 
L 380.670017 351 
L 379.296 349.491376 
L 379.18672 349.38 
L 377.651994 347.76 
L 377.568 347.668378 
L 376.077362 346.14 
L 375.84 345.880863 
L 374.511297 344.52 
L 374.112 344.083951 
L 372.955785 342.9 
L 372.384 342.274644 
L 371.411598 341.28 
L 370.656 340.45369 
L 369.879729 339.66 
L 368.928 338.617083 
L 368.362912 338.04 
L 367.2 336.765894 
L 366.861086 336.42 
L 365.472 334.894742 
L 365.37904 334.8 
L 363.837676 333.18 
L 363.744 333.077815 
L 362.263576 331.56 
L 362.016 331.289653 
L 360.698303 329.94 
L 360.288 329.49192 
L 359.143458 328.32 
L 358.56 327.681732 
L 357.600256 326.7 
L 356.832 325.859817 
L 356.069238 325.08 
L 355.104 324.022231 
L 354.55346 323.46 
L 353.376 322.169664 
L 353.05296 321.84 
L 351.648 320.297224 
L 351.572228 320.22 
L 350.023854 318.6 
L 349.92 318.48671 
L 348.450313 316.98 
L 348.192 316.697866 
L 346.885874 315.36 
L 346.464 314.899272 
L 345.331729 313.74 
L 344.736 313.088204 
L 343.78951 312.12 
L 343.008 311.265233 
L 342.259443 310.5 
L 341.28 309.42662 
L 340.74475 308.88 
L 339.552 307.5726 
L 339.245652 307.26 
L 337.824 305.698807 
L 337.766298 305.64 
L 336.210533 304.02 
L 336.096 303.895059 
L 334.63758 302.4 
L 334.368 302.105491 
L 333.074019 300.78 
L 332.64 300.305998 
L 331.52061 299.16 
L 330.912 298.494087 
L 329.97933 297.54 
L 329.184 296.669926 
L 328.450354 295.92 
L 327.456 294.830235 
L 326.936797 294.3 
L 325.728 292.974688 
L 325.439178 292.68 
L 324 291.099475 
L 323.961266 291.06 
L 322.397722 289.44 
L 322.272 289.302852 
L 320.825385 287.82 
L 320.544 287.512531 
L 319.262731 286.2 
L 318.816 285.71209 
L 317.710107 284.58 
L 317.088 283.8993 
L 316.169804 282.96 
L 315.36 282.073884 
L 314.641983 281.34 
L 313.632 280.233065 
L 313.129613 279.72 
L 311.904 278.375913 
L 311.633551 278.1 
L 310.176 276.499212 
L 310.157149 276.48 
L 308.585427 274.86 
L 308.448 274.710082 
L 307.013735 273.24 
L 306.72 272.919019 
L 305.451968 271.62 
L 304.992 271.117537 
L 303.900232 270 
L 303.264 269.303827 
L 302.360948 268.38 
L 301.536 267.477096 
L 300.834342 266.76 
L 299.808 265.635094 
L 299.323212 265.14 
L 298.08 263.77626 
L 297.828788 263.52 
L 296.353074 261.9 
L 296.352 261.898827 
L 294.773655 260.28 
L 294.624 260.11674 
L 293.20264 258.66 
L 292.896 258.324913 
L 291.641779 257.04 
L 291.168 256.522329 
L 290.090996 255.42 
L 289.44 254.707657 
L 288.552772 253.8 
L 287.712 252.879547 
L 287.027446 252.18 
L 285.984 251.036308 
L 285.517608 250.56 
L 284.256 249.175711 
L 284.024906 248.94 
L 282.540967 247.32 
L 282.528 247.305845 
L 280.962399 245.7 
L 280.8 245.522818 
L 279.392107 244.08 
L 279.072 243.730192 
L 277.832189 242.46 
L 277.344 241.926454 
L 276.282408 240.84 
L 275.616 240.110778 
L 274.745289 239.22 
L 273.888 238.281225 
L 273.221306 237.6 
L 272.16 236.436693 
L 271.712817 235.98 
L 270.432 234.574248 
L 270.221923 234.36 
L 268.729361 232.74 
L 268.704 232.712315 
L 267.15166 231.12 
L 266.976 230.928305 
L 265.582147 229.5 
L 265.248 229.134846 
L 264.023209 227.88 
L 263.52 227.329902 
L 262.47448 226.26 
L 261.792 225.513176 
L 260.938511 224.64 
L 260.064 223.682114 
L 259.41594 223.02 
L 258.336 221.836231 
L 257.908853 221.4 
L 256.608 219.971852 
L 256.41986 219.78 
L 254.918265 218.16 
L 254.88 218.11823 
L 253.341462 216.54 
L 253.152 216.333193 
L 251.772769 214.92 
L 251.424 214.538865 
L 250.214849 213.3 
L 249.696 212.73266 
L 248.667226 211.68 
L 247.968 210.91484 
L 247.132451 210.06 
L 246.24 209.082198 
L 245.611362 208.44 
L 244.512 207.234906 
L 244.105734 206.82 
L 242.784 205.368504 
L 242.618735 205.2 
L 241.107687 203.58 
L 241.056 203.523579 
L 239.531816 201.96 
L 239.328 201.73747 
L 237.963985 200.34 
L 237.6 199.942236 
L 236.407094 198.72 
L 235.872 198.134742 
L 234.860658 197.1 
L 234.144 196.315753 
L 233.32707 195.48 
L 232.416 194.481508 
L 231.807588 193.86 
L 230.688 192.6327 
L 230.303454 192.24 
L 228.96 190.764192 
L 228.818571 190.62 
L 227.297636 189 
L 227.232 188.928352 
L 225.722628 187.38 
L 225.504 187.141233 
L 224.155805 185.76 
L 223.776 185.344948 
L 222.599852 184.14 
L 222.048 183.536236 
L 221.054791 182.52 
L 220.32 181.715902 
L 219.522385 180.9 
L 218.592 179.880024 
L 218.004638 179.28 
L 216.864 178.029593 
L 216.502036 177.66 
L 215.136 176.159112 
L 215.019169 176.04 
L 213.488122 174.42 
L 213.408 174.33254 
L 211.9139 172.8 
L 211.68 172.544481 
L 210.348241 171.18 
L 209.952 170.746988 
L 208.793261 169.56 
L 208.224 168.937001 
L 207.249638 167.94 
L 206.496 167.11527 
L 205.718464 166.32 
L 204.768 165.277771 
L 204.202435 164.7 
L 203.04 163.425564 
L 202.701523 163.08 
L 201.312 161.553243 
L 201.220542 161.46 
L 199.679156 159.84 
L 199.584 159.736131 
L 198.105751 158.22 
L 197.856 157.947085 
L 196.541306 156.6 
L 196.128 156.148342 
L 194.987339 154.98 
L 194.4 154.337025 
L 193.445208 153.36 
L 192.672 152.51384 
L 191.915324 151.74 
L 190.944 150.674872 
L 190.400853 150.12 
L 189.216 148.820592 
L 188.901939 148.5 
L 187.488 146.946352 
L 187.422916 146.88 
L 185.870748 145.26 
L 185.76 145.139113 
L 184.298192 143.64 
L 184.032 143.349031 
L 182.735012 142.02 
L 182.304 141.548996 
L 181.182099 140.4 
L 180.576 139.73644 
L 179.641352 138.78 
L 178.848 137.911595 
L 178.112982 137.16 
L 177.12 136.071101 
L 176.600124 135.54 
L 175.392 134.214655 
L 175.103307 133.92 
L 173.664 132.338415 
L 173.626318 132.3 
L 172.06291 130.68 
L 171.936 130.541475 
L 170.491235 129.06 
L 170.208 128.750325 
L 168.929348 127.44 
L 168.48 126.948936 
L 167.377556 125.82 
L 166.752 125.135138 
L 165.838192 124.2 
L 165.024 123.308516 
L 164.311459 122.58 
L 163.296 121.466435 
L 162.800271 120.96 
L 161.568 119.607729 
L 161.305649 119.34 
L 159.84 117.729406 
L 159.830774 117.72 
L 158.255653 116.1 
L 158.112 115.943204 
L 156.684894 114.48 
L 156.384 114.151016 
L 155.124242 112.86 
L 154.656 112.348146 
L 153.573726 111.24 
L 152.928 110.533056 
L 152.035791 109.62 
L 151.2 108.704584 
L 150.510772 108 
L 149.472 106.860851 
L 149.001315 106.38 
L 147.744 104.999787 
L 147.508993 104.76 
L 146.027108 103.14 
L 146.016 103.127868 
L 144.448972 101.52 
L 144.288 101.344285 
L 142.879182 99.9 
L 142.56 99.551027 
L 141.319799 98.28 
L 140.832 97.746608 
L 139.770626 96.66 
L 139.104 95.930178 
L 138.234167 95.04 
L 137.376 94.099777 
L 136.710944 93.42 
L 135.648 92.254327 
L 135.203278 91.8 
L 133.92 90.390804 
L 133.713365 90.18 
L 132.21983 88.56 
L 132.192 88.529606 
L 130.642858 86.94 
L 130.464 86.744706 
L 129.074114 85.32 
L 128.736 84.950336 
L 127.516039 83.7 
L 127.008 83.144306 
L 125.968272 82.08 
L 125.28 81.326483 
L 124.43334 80.46 
L 123.552 79.494074 
L 122.911997 78.84 
L 121.824 77.646838 
L 121.406186 77.22 
L 120.096 75.780752 
L 119.918794 75.6 
L 118.413123 73.98 
L 118.368 73.930721 
L 116.83735 72.36 
L 116.64 72.14445 
L 115.269703 70.74 
L 114.912 70.348928 
L 113.712976 69.12 
L 113.184 68.541222 
L 112.166685 67.5 
L 111.456 66.721953 
L 110.633314 65.88 
L 109.728 64.887463 
L 109.113953 64.26 
L 108 63.03836 
L 107.610054 62.64 
L 106.272 61.169602 
L 106.12531 61.02 
L 104.607002 59.4 
L 104.544 59.331198 
L 103.032398 57.78 
L 102.816 57.543571 
L 101.465965 56.16 
L 101.088 55.746785 
L 99.910471 54.54 
L 99.36 53.937496 
L 98.365882 52.92 
L 97.632 52.116566 
L 96.834008 51.3 
L 95.904 50.280011 
L 95.316838 49.68 
L 94.176 48.428865 
L 93.814868 48.06 
L 92.448 46.557594 
L 92.332694 46.44 
L 90.80148 44.82 
L 90.72 44.731022 
L 89.227873 43.2 
L 88.992 43.2 
L 87.264 43.2 
L 85.536 43.2 
L 83.808 43.2 
L 82.08 43.2 
L 80.352 43.2 
L 79.071106 43.2 
L 80.352 44.566767 
L 80.594444 44.82 
L 82.08 46.406831 
L 82.111794 46.44 
L 83.653386 48.06 
L 83.808 48.224509 
L 85.197489 49.68 
L 85.536 50.040499 
L 86.738735 51.3 
L 87.264 51.859458 
L 88.277648 52.92 
L 88.992 53.681026 
L 89.813028 54.54 
L 90.72 55.507203 
L 91.344455 56.16 
L 92.448 57.337006 
L 92.87211 57.78 
L 94.176 59.171462 
L 94.394838 59.4 
L 95.904 61.012037 
L 95.911634 61.02 
L 97.456805 62.64 
L 97.632 62.826411 
L 99.000583 64.26 
L 99.36 64.642775 
L 100.541615 65.88 
L 101.088 66.461941 
L 102.080289 67.5 
L 102.816 68.283863 
L 103.615203 69.12 
L 104.544 70.11046 
L 105.146295 70.74 
L 106.272 71.940627 
L 106.673504 72.36 
L 108 73.775741 
L 108.195621 73.98 
L 109.714379 75.6 
L 109.728 75.614491 
L 111.260598 77.22 
L 111.456 77.427929 
L 112.804037 78.84 
L 113.184 79.244647 
L 114.344874 80.46 
L 114.912 81.064021 
L 115.88327 82.08 
L 116.64 82.886336 
L 117.417762 83.7 
L 118.368 84.713307 
L 118.94852 85.32 
L 120.096 86.543838 
L 120.475291 86.94 
L 121.824 88.379603 
L 121.996795 88.56 
L 123.518681 90.18 
L 123.552 90.215446 
L 125.064765 91.8 
L 125.28 92.029052 
L 126.60787 93.42 
L 127.008 93.846114 
L 128.148512 95.04 
L 128.736 95.665696 
L 129.686558 96.66 
L 130.464 97.488474 
L 131.220706 98.28 
L 132.192 99.315743 
L 132.751131 99.9 
L 133.92 101.146637 
L 134.277471 101.52 
L 135.648 102.983047 
L 135.798364 103.14 
L 137.323358 104.76 
L 137.376 104.816002 
L 138.869306 106.38 
L 139.104 106.62978 
L 140.412083 108 
L 140.832 108.447176 
L 141.95253 109.62 
L 142.56 110.266966 
L 143.490235 111.24 
L 144.288 112.090199 
L 145.024037 112.86 
L 146.016 113.917766 
L 146.554129 114.48 
L 147.744 115.749022 
L 148.080047 116.1 
L 149.472 117.586069 
L 149.600328 117.72 
L 151.12841 119.34 
L 151.2 119.416157 
L 152.674185 120.96 
L 152.928 121.230149 
L 154.216676 122.58 
L 154.656 123.047831 
L 155.756929 124.2 
L 156.384 124.867829 
L 157.294302 125.82 
L 158.112 126.691512 
L 158.827756 127.44 
L 159.84 128.519375 
L 160.357518 129.06 
L 161.568 130.350992 
L 161.883021 130.68 
L 163.296 132.188667 
L 163.402692 132.3 
L 164.933838 133.92 
L 165.024 134.015912 
L 166.47933 135.54 
L 166.752 135.830235 
L 168.021651 137.16 
L 168.48 137.64808 
L 169.561711 138.78 
L 170.208 139.468284 
L 171.098759 140.4 
L 171.936 141.292409 
L 172.631865 142.02 
L 173.664 143.120568 
L 174.161298 143.64 
L 175.392 144.952543 
L 175.686394 145.26 
L 177.12 146.790839 
L 177.205456 146.88 
L 178.739642 148.5 
L 178.848 148.615265 
L 180.284859 150.12 
L 180.576 150.429913 
L 181.827009 151.74 
L 182.304 152.24792 
L 183.366876 153.36 
L 184.032 154.06833 
L 184.903607 154.98 
L 185.76 155.892891 
L 186.436365 156.6 
L 187.488 157.721343 
L 187.965471 158.22 
L 189.216 159.553757 
L 189.490087 159.84 
L 190.944 161.392584 
L 191.008625 161.46 
L 192.545824 163.08 
L 192.672 163.214217 
L 194.090774 164.7 
L 194.4 165.029183 
L 195.632749 166.32 
L 196.128 166.847351 
L 197.172425 167.94 
L 197.856 168.667966 
L 198.708848 169.56 
L 199.584 170.492955 
L 200.241257 171.18 
L 201.312 172.321699 
L 201.770022 172.8 
L 203.04 174.154636 
L 203.29411 174.42 
L 204.768 175.993897 
L 204.812201 176.04 
L 206.352383 177.66 
L 206.496 177.812765 
L 207.897075 179.28 
L 208.224 179.628044 
L 209.438875 180.9 
L 209.952 181.446373 
L 210.97836 182.52 
L 211.68 183.267211 
L 212.51446 184.14 
L 213.408 185.092601 
L 214.046544 185.76 
L 215.136 186.921634 
L 215.574942 187.38 
L 216.864 188.755108 
L 217.098539 189 
L 218.592 190.594777 
L 218.616185 190.62 
L 220.159321 192.24 
L 220.32 192.41091 
L 221.703761 193.86 
L 222.048 194.226494 
L 223.245385 195.48 
L 223.776 196.044983 
L 224.784682 197.1 
L 225.504 197.866098 
L 226.320408 198.72 
L 227.232 199.691826 
L 227.852227 200.34 
L 228.96 201.521146 
L 229.380266 201.96 
L 230.688 203.355149 
L 230.903375 203.58 
L 232.416 205.195222 
L 232.420582 205.2 
L 233.966638 206.82 
L 234.144 207.00866 
L 235.51082 208.44 
L 235.872 208.824534 
L 237.052282 210.06 
L 237.6 210.643181 
L 238.591393 211.68 
L 239.328 212.464574 
L 240.126751 213.3 
L 241.056 214.29063 
L 241.658308 214.92 
L 242.784 216.120233 
L 243.185996 216.54 
L 244.512 217.954756 
L 244.708621 218.16 
L 246.227669 219.78 
L 246.24 219.793114 
L 247.774336 221.4 
L 247.968 221.606014 
L 249.318252 223.02 
L 249.696 223.422163 
L 250.859566 224.64 
L 251.424 225.240967 
L 252.398469 226.26 
L 253.152 227.062657 
L 253.93349 227.88 
L 254.88 228.88901 
L 255.464788 229.5 
L 256.608 230.718894 
L 256.992134 231.12 
L 258.336 232.553927 
L 258.51428 232.74 
L 260.035847 234.36 
L 260.064 234.389942 
L 261.582413 235.98 
L 261.792 236.202964 
L 263.126072 237.6 
L 263.52 238.019379 
L 264.667238 239.22 
L 265.248 239.838337 
L 266.205871 240.84 
L 266.976 241.660387 
L 267.740627 242.46 
L 268.704 243.486966 
L 269.27167 244.08 
L 270.432 245.317127 
L 270.798682 245.7 
L 272.16 247.15266 
L 272.320352 247.32 
L 273.844404 248.94 
L 273.888 248.986364 
L 275.390873 250.56 
L 275.616 250.79951 
L 276.934278 252.18 
L 277.344 252.616181 
L 278.4753 253.8 
L 279.072 254.435293 
L 280.013671 255.42 
L 280.8 256.257693 
L 281.548164 257.04 
L 282.528 258.084495 
L 283.078954 258.66 
L 284.256 259.914929 
L 284.605642 260.28 
L 285.984 261.750952 
L 286.126842 261.9 
L 287.653343 263.52 
L 287.712 263.58238 
L 289.199715 265.14 
L 289.44 265.395651 
L 290.742873 266.76 
L 291.168 267.21257 
L 292.283752 268.38 
L 292.896 269.031832 
L 293.821869 270 
L 294.624 270.854575 
L 295.356101 271.62 
L 296.352 272.681596 
L 296.886643 273.24 
L 298.08 274.512299 
L 298.413014 274.86 
L 299.808 276.348803 
L 299.93375 276.48 
L 301.462663 278.1 
L 301.536 278.177989 
L 303.008891 279.72 
L 303.264 279.991435 
L 304.551858 281.34 
L 304.992 281.808543 
L 306.092596 282.96 
L 306.72 283.627953 
L 307.630467 284.58 
L 308.448 285.451031 
L 309.16444 286.2 
L 310.176 287.278268 
L 310.694738 287.82 
L 311.904 289.109234 
L 312.220802 289.44 
L 313.632 290.946208 
L 313.741081 291.06 
L 315.272366 292.68 
L 315.36 292.773192 
L 316.818386 294.3 
L 317.088 294.58688 
L 318.361233 295.92 
L 318.816 296.404099 
L 319.901833 297.54 
L 320.544 298.223656 
L 321.439465 299.16 
L 322.272 300.047059 
L 322.973183 300.78 
L 324 301.874508 
L 324.503242 302.4 
L 325.728 303.705734 
L 326.029007 304.02 
L 327.456 305.543167 
L 327.548835 305.64 
L 329.082451 307.26 
L 329.184 307.367986 
L 330.628272 308.88 
L 330.912 309.181909 
L 332.170998 310.5 
L 332.64 310.999239 
L 333.711464 312.12 
L 334.368 312.818938 
L 335.248866 313.74 
L 336.096 314.642659 
L 336.782331 315.36 
L 337.824 316.470316 
L 338.312155 316.98 
L 339.552 318.30179 
L 339.837637 318.6 
L 341.28 320.139677 
L 341.357016 320.22 
L 342.89292 321.84 
L 343.008 321.962371 
L 344.438548 323.46 
L 344.736 323.776523 
L 345.981156 325.08 
L 346.464 325.593961 
L 347.521489 326.7 
L 348.192 327.4138 
L 349.058669 328.32 
L 349.92 329.237829 
L 350.591886 329.94 
L 351.648 331.065689 
L 352.12148 331.56 
L 353.376 332.897529 
L 353.646567 333.18 
L 355.104 334.735736 
L 355.165626 334.8 
L 356.703774 336.42 
L 356.832 336.556347 
L 358.249217 338.04 
L 358.56 338.37072 
L 359.791708 339.66 
L 360.288 340.188263 
L 361.331911 341.28 
L 362.016 342.008238 
L 362.868877 342.9 
L 363.744 343.832568 
L 364.40185 344.52 
L 365.472 345.660627 
L 365.931206 346.14 
L 367.2 347.492834 
L 367.45592 347.76 
L 368.928 349.331341 
L 368.974666 349.38 
L 370.515013 351 
L 370.656 351.149913 
L 372.060279 352.62 
L 372.384 352.964499 
L 373.602653 354.24 
L 374.112 354.782145 
L 375.14273 355.86 
L 375.84 356.602254 
L 376.679489 357.48 
L 377.568 358.426874 
L 378.212223 359.1 
L 379.296 360.255126 
L 379.741326 360.72 
L 381.024 362.087706 
L 381.2657 362.34 
L 382.752 363.92649 
L 382.784141 363.96 
L 384.326637 365.58 
z
" clip-path="url(#p2694024a4a)" style="fill: #008000; fill-opacity: 0.6"/>
    <path d="M 410.4 326.562035 
L 410.4 325.08 
L 410.4 323.46 
L 410.4 321.84 
L 410.4 320.22 
L 410.4 318.6 
L 410.4 316.98 
L 410.4 315.800302 
L 409.978385 315.36 
L 408.672 313.966161 
L 408.455391 313.74 
L 406.944 312.125934 
L 406.93831 312.12 
L 405.392552 310.5 
L 405.216 310.312184 
L 403.848494 308.88 
L 403.488 308.496159 
L 402.307164 307.26 
L 401.76 306.677352 
L 400.768187 305.64 
L 400.032 304.855798 
L 399.232964 304.02 
L 398.304 303.029576 
L 397.701549 302.4 
L 396.576 301.1998 
L 396.174008 300.78 
L 394.848 299.365097 
L 394.651538 299.16 
L 393.132602 297.54 
L 393.12 297.526596 
L 391.586074 295.92 
L 391.392 295.71353 
L 390.042303 294.3 
L 389.664 293.897207 
L 388.501136 292.68 
L 387.936 292.078227 
L 386.962389 291.06 
L 386.208 290.256345 
L 385.427529 289.44 
L 384.48 288.429803 
L 383.896397 287.82 
L 382.752 286.599719 
L 382.369228 286.2 
L 381.024 284.764462 
L 380.847278 284.58 
L 379.325634 282.96 
L 379.296 282.928481 
L 377.779216 281.34 
L 377.568 281.115278 
L 376.235728 279.72 
L 375.84 279.298664 
L 374.694723 278.1 
L 374.112 277.479514 
L 373.15627 276.48 
L 372.384 275.657241 
L 371.6217 274.86 
L 370.656 273.830449 
L 370.090848 273.24 
L 368.928 272.000062 
L 368.564043 271.62 
L 367.2 270.16426 
L 367.042611 270 
L 365.518288 268.38 
L 365.472 268.330769 
L 363.97198 266.76 
L 363.744 266.517427 
L 362.428767 265.14 
L 362.016 264.700533 
L 360.887923 263.52 
L 360.288 262.881212 
L 359.349757 261.9 
L 358.56 261.058556 
L 357.815476 260.28 
L 356.832 259.231518 
L 356.284901 258.66 
L 355.104 257.400831 
L 354.75845 257.04 
L 353.376 255.564492 
L 353.237533 255.42 
L 351.710562 253.8 
L 351.648 253.733461 
L 350.164363 252.18 
L 349.92 251.91998 
L 348.621421 250.56 
L 348.192 250.102814 
L 347.080735 248.94 
L 346.464 248.283324 
L 345.542848 247.32 
L 344.736 246.460292 
L 344.008855 245.7 
L 343.008 244.633011 
L 342.478553 244.08 
L 341.28 242.802027 
L 340.95245 242.46 
L 339.552 240.965162 
L 339.432041 240.84 
L 337.902456 239.22 
L 337.824 239.136558 
L 336.356456 237.6 
L 336.096 237.322842 
L 334.813688 235.98 
L 334.368 235.505507 
L 333.273158 234.36 
L 332.64 233.685851 
L 331.735542 232.74 
L 330.912 231.862451 
L 330.201835 231.12 
L 329.184 230.03493 
L 328.671803 229.5 
L 327.456 228.203652 
L 327.146038 227.88 
L 325.728 226.36627 
L 325.626134 226.26 
L 324.09397 224.64 
L 324 224.540061 
L 322.548198 223.02 
L 322.272 222.726077 
L 321.005566 221.4 
L 320.544 220.908614 
L 319.465192 219.78 
L 318.816 219.088794 
L 317.927838 218.16 
L 317.088 217.265034 
L 316.394415 216.54 
L 315.36 215.437276 
L 314.86465 214.92 
L 313.632 213.605709 
L 313.339215 213.3 
L 311.904 211.76782 
L 311.819808 211.68 
L 310.285103 210.06 
L 310.176 209.94397 
L 308.739552 208.44 
L 308.448 208.129724 
L 307.197056 206.82 
L 306.72 206.312136 
L 305.656834 205.2 
L 304.992 204.492154 
L 304.119735 203.58 
L 303.264 202.668042 
L 302.586594 201.96 
L 301.536 200.84005 
L 301.057091 200.34 
L 299.808 199.00813 
L 299.532044 198.72 
L 298.08 197.169814 
L 298.013062 197.1 
L 296.475854 195.48 
L 296.352 195.348285 
L 294.930516 193.86 
L 294.624 193.533786 
L 293.388156 192.24 
L 292.896 191.716073 
L 291.848084 190.62 
L 291.168 189.895932 
L 290.311232 189 
L 289.44 188.071477 
L 288.778369 187.38 
L 287.712 186.243255 
L 287.249129 185.76 
L 285.984 184.410923 
L 285.724516 184.14 
L 284.256 182.572254 
L 284.205893 182.52 
L 282.666222 180.9 
L 282.528 180.753009 
L 281.12109 179.28 
L 280.8 178.938262 
L 279.578865 177.66 
L 279.072 177.120427 
L 278.038941 176.04 
L 277.344 175.30013 
L 276.502328 174.42 
L 275.616 173.47534 
L 274.96974 172.8 
L 273.888 171.646893 
L 273.440792 171.18 
L 272.16 169.814132 
L 271.916569 169.56 
L 270.432 167.975142 
L 270.398297 167.94 
L 268.856207 166.32 
L 268.704 166.158141 
L 267.311273 164.7 
L 266.976 164.343153 
L 265.769183 163.08 
L 265.248 162.525199 
L 264.229403 161.46 
L 263.52 160.704697 
L 262.693076 159.84 
L 261.792 158.879632 
L 261.160704 158.22 
L 260.064 157.050964 
L 259.632039 156.6 
L 258.336 155.217785 
L 258.108201 154.98 
L 256.608 153.378481 
L 256.590274 153.36 
L 255.045808 151.74 
L 254.88 151.563682 
L 253.501065 150.12 
L 253.152 149.748461 
L 251.959108 148.5 
L 251.424 147.93039 
L 250.419469 146.88 
L 249.696 146.109677 
L 248.883431 145.26 
L 247.968 144.284356 
L 247.35126 143.64 
L 246.24 142.455471 
L 245.82287 142.02 
L 244.512 140.621885 
L 244.29941 140.4 
L 242.784 138.782273 
L 242.78182 138.78 
L 241.235024 137.16 
L 241.056 136.969622 
L 239.690482 135.54 
L 239.328 135.154186 
L 238.148639 133.92 
L 237.6 133.336001 
L 236.609138 132.3 
L 235.872 131.515079 
L 235.073381 130.68 
L 234.144 129.689512 
L 233.541407 129.06 
L 232.416 127.860415 
L 232.013282 127.44 
L 230.688 126.026433 
L 230.490192 125.82 
L 228.970918 124.2 
L 228.96 124.188391 
L 227.423854 122.58 
L 227.232 122.37597 
L 225.879511 120.96 
L 225.504 120.56033 
L 224.337775 119.34 
L 223.776 118.742033 
L 222.798414 117.72 
L 222.048 116.920902 
L 221.262924 116.1 
L 220.32 115.095101 
L 219.731143 114.48 
L 218.592 113.265799 
L 218.203274 112.86 
L 216.864 111.431431 
L 216.680547 111.24 
L 215.159294 109.62 
L 215.136 109.595233 
L 213.612298 108 
L 213.408 107.782728 
L 212.068147 106.38 
L 211.68 105.966892 
L 210.526515 104.76 
L 209.952 104.148487 
L 208.987355 103.14 
L 208.224 102.327089 
L 207.45206 101.52 
L 206.496 100.501126 
L 205.920465 99.9 
L 204.768 98.671623 
L 204.392844 98.28 
L 203.04 96.836882 
L 202.870472 96.66 
L 201.347285 95.04 
L 201.312 95.002485 
L 199.800354 93.42 
L 199.584 93.189897 
L 198.256389 91.8 
L 197.856 91.373874 
L 196.714859 90.18 
L 196.128 89.555364 
L 195.175891 88.56 
L 194.4 87.733708 
L 193.640787 86.94 
L 192.672 85.907588 
L 192.109374 85.32 
L 190.944 84.07789 
L 190.58199 83.7 
L 189.216 82.242787 
L 189.059965 82.08 
L 187.53489 80.46 
L 187.488 80.410148 
L 185.988023 78.84 
L 185.76 78.597479 
L 184.444237 77.22 
L 184.032 76.781277 
L 182.902804 75.6 
L 182.304 74.962665 
L 181.36402 73.98 
L 180.576 73.140761 
L 179.829103 72.36 
L 178.848 71.314489 
L 178.297866 70.74 
L 177.12 69.484601 
L 176.770712 69.12 
L 175.392 67.649148 
L 175.249023 67.5 
L 173.722108 65.88 
L 173.664 65.818223 
L 172.175303 64.26 
L 171.936 64.005474 
L 170.631689 62.64 
L 170.208 62.189102 
L 169.090351 61.02 
L 168.48 60.370392 
L 167.551743 59.4 
L 166.752 58.548248 
L 166.017007 57.78 
L 165.024 56.721828 
L 164.485941 56.16 
L 163.296 54.891759 
L 162.959006 54.54 
L 161.568 53.055968 
L 161.437645 52.92 
L 159.90894 51.3 
L 159.84 51.226709 
L 158.3622 49.68 
L 158.112 49.413875 
L 156.818744 48.06 
L 156.384 47.597349 
L 155.277497 46.44 
L 154.656 45.778545 
L 153.739058 44.82 
L 152.928 43.956171 
L 152.204499 43.2 
L 151.2 43.2 
L 149.472 43.2 
L 147.744 43.2 
L 146.016 43.2 
L 144.288 43.2 
L 142.56 43.2 
L 142.095098 43.2 
L 142.56 43.707542 
L 143.64714 44.82 
L 144.288 45.520742 
L 145.186836 46.44 
L 146.016 47.346945 
L 146.713902 48.06 
L 147.744 49.188236 
L 148.225656 49.68 
L 149.472 51.046281 
L 149.720786 51.3 
L 151.198095 52.92 
L 151.2 52.922077 
L 152.777927 54.54 
L 152.928 54.703602 
L 154.34944 56.16 
L 154.656 56.494769 
L 155.910897 57.78 
L 156.384 58.296583 
L 157.462357 59.4 
L 158.112 60.11038 
L 159.001396 61.02 
L 159.84 61.937437 
L 160.527672 62.64 
L 161.568 63.779505 
L 162.038616 64.26 
L 163.296 65.638652 
L 163.532672 65.88 
L 165.014897 67.5 
L 165.024 67.50993 
L 166.594208 69.12 
L 166.752 69.292034 
L 168.165275 70.74 
L 168.48 71.0837 
L 169.726145 72.36 
L 170.208 72.886233 
L 171.276982 73.98 
L 171.936 74.700665 
L 172.815325 75.6 
L 173.664 76.52863 
L 174.340758 77.22 
L 175.392 78.371522 
L 175.850843 78.84 
L 177.12 80.231841 
L 177.343754 80.46 
L 178.831239 82.08 
L 178.848 82.098285 
L 180.410006 83.7 
L 180.576 83.881006 
L 181.980588 85.32 
L 182.304 85.673201 
L 183.540837 86.94 
L 184.032 87.476497 
L 185.091011 88.56 
L 185.76 89.291602 
L 186.628616 90.18 
L 187.488 91.120531 
L 188.153152 91.8 
L 189.216 92.964296 
L 189.66233 93.42 
L 190.944 94.825859 
L 191.154023 95.04 
L 192.647116 96.66 
L 192.672 96.687147 
L 194.225311 98.28 
L 194.4 98.470522 
L 195.795374 99.9 
L 196.128 100.263277 
L 197.354967 101.52 
L 197.856 102.067383 
L 198.904434 103.14 
L 199.584 103.883199 
L 200.441263 104.76 
L 201.312 105.713149 
L 201.964845 106.38 
L 203.04 107.557838 
L 203.473065 108 
L 204.768 109.420717 
L 204.963466 109.62 
L 206.462524 111.24 
L 206.496 111.276522 
L 208.040115 112.86 
L 208.224 113.060588 
L 209.609627 114.48 
L 209.952 114.853935 
L 211.168528 116.1 
L 211.68 116.658897 
L 212.717246 117.72 
L 213.408 118.475465 
L 214.253256 119.34 
L 215.136 120.306494 
L 215.775827 120.96 
L 216.864 122.152156 
L 217.283039 122.58 
L 218.592 124.016428 
L 218.772072 124.2 
L 220.277458 125.82 
L 220.32 125.866413 
L 221.854414 127.44 
L 222.048 127.651211 
L 223.42334 129.06 
L 223.776 129.445181 
L 224.981514 130.68 
L 225.504 131.251048 
L 226.529439 132.3 
L 227.232 133.068407 
L 228.064588 133.92 
L 228.96 134.900576 
L 229.586089 135.54 
L 230.688 136.747264 
L 231.092241 137.16 
L 232.416 138.613004 
L 232.579827 138.78 
L 234.091913 140.4 
L 234.144 140.456829 
L 235.668202 142.02 
L 235.872 142.242398 
L 237.236507 143.64 
L 237.6 144.037024 
L 238.793937 145.26 
L 239.328 145.843826 
L 240.341003 146.88 
L 241.056 147.662036 
L 241.875287 148.5 
L 242.784 149.495372 
L 243.39562 150.12 
L 244.512 151.343172 
L 244.900674 151.74 
L 246.24 153.210454 
L 246.386716 153.36 
L 247.905882 154.98 
L 247.968 155.047775 
L 249.481516 156.6 
L 249.696 156.834108 
L 251.04912 158.22 
L 251.424 158.629472 
L 252.605861 159.84 
L 253.152 160.437166 
L 254.15193 161.46 
L 254.88 162.25636 
L 255.685345 163.08 
L 256.608 164.090893 
L 257.204408 164.7 
L 258.336 165.939893 
L 258.70833 166.32 
L 260.064 167.808744 
L 260.192771 167.94 
L 261.719358 169.56 
L 261.792 169.639258 
L 263.294416 171.18 
L 263.52 171.42628 
L 264.861172 172.8 
L 265.248 173.222531 
L 266.417197 174.42 
L 266.976 175.03116 
L 267.96221 176.04 
L 268.704 176.851391 
L 269.494714 177.66 
L 270.432 178.687185 
L 271.012441 179.28 
L 272.16 180.537441 
L 272.515175 180.9 
L 273.888 182.407697 
L 273.998178 182.52 
L 275.532336 184.14 
L 275.616 184.231285 
L 277.106792 185.76 
L 277.344 186.019032 
L 278.672655 187.38 
L 279.072 187.816213 
L 280.227929 189 
L 280.8 189.625827 
L 281.771833 190.62 
L 282.528 191.44714 
L 283.303382 192.24 
L 284.256 193.284151 
L 284.819819 193.86 
L 285.984 195.13583 
L 286.321195 195.48 
L 287.712 197.007524 
L 287.802727 197.1 
L 289.344808 198.72 
L 289.44 198.823864 
L 290.918634 200.34 
L 291.168 200.612375 
L 292.483559 201.96 
L 292.896 202.410525 
L 294.038047 203.58 
L 294.624 204.221176 
L 295.58079 205.2 
L 296.352 206.043619 
L 297.111336 206.82 
L 298.08 207.881777 
L 298.626558 208.44 
L 299.808 209.735076 
L 300.126373 210.06 
L 301.536 211.608276 
L 301.606369 211.68 
L 303.156766 213.3 
L 303.264 213.417004 
L 304.729933 214.92 
L 304.992 215.20632 
L 306.293875 216.54 
L 306.72 217.005478 
L 307.847541 218.16 
L 308.448 218.817126 
L 309.389171 219.78 
L 310.176 220.64084 
L 310.918565 221.4 
L 311.904 222.480197 
L 312.43252 223.02 
L 313.632 224.335195 
L 313.930693 224.64 
L 315.36 226.209971 
L 315.409085 226.26 
L 316.968203 227.88 
L 317.088 228.010712 
L 318.540681 229.5 
L 318.816 229.800876 
L 320.103595 231.12 
L 320.544 231.601084 
L 321.656401 232.74 
L 322.272 233.413709 
L 323.196942 234.36 
L 324 235.238818 
L 324.725054 235.98 
L 325.728 237.079427 
L 326.237689 237.6 
L 327.456 238.936204 
L 327.734137 239.22 
L 329.184 240.812628 
L 329.210856 240.84 
L 330.779109 242.46 
L 330.912 242.604999 
L 332.350868 244.08 
L 332.64 244.396011 
L 333.912764 245.7 
L 334.368 246.197352 
L 335.464614 247.32 
L 336.096 248.010998 
L 337.004024 248.94 
L 337.824 249.837565 
L 338.530789 250.56 
L 339.552 251.679483 
L 340.042051 252.18 
L 341.28 253.538121 
L 341.536688 253.8 
L 343.008 255.416268 
L 343.011662 255.42 
L 344.589476 257.04 
L 344.736 257.199874 
L 346.160485 258.66 
L 346.464 258.991734 
L 347.721373 260.28 
L 348.192 260.794296 
L 349.27217 261.9 
L 349.92 262.609005 
L 350.810404 263.52 
L 351.648 264.437098 
L 352.335756 265.14 
L 353.376 266.280381 
L 353.845588 266.76 
L 355.104 268.140967 
L 355.338325 268.38 
L 356.820785 270 
L 356.832 270.012244 
L 358.399308 271.62 
L 358.56 271.795347 
L 359.969521 273.24 
L 360.288 273.58809 
L 361.529365 274.86 
L 362.016 275.391928 
L 363.079055 276.48 
L 363.744 277.207746 
L 364.616068 278.1 
L 365.472 279.037431 
L 366.139937 279.72 
L 367.2 280.882138 
L 367.648285 281.34 
L 368.928 282.744761 
L 369.139027 282.96 
L 370.63105 284.58 
L 370.656 284.60724 
L 372.208612 286.2 
L 372.384 286.39143 
L 373.777965 287.82 
L 374.112 288.185091 
L 375.336727 289.44 
L 375.84 289.99026 
L 376.885256 291.06 
L 377.568 291.807234 
L 378.421003 292.68 
L 379.296 293.638583 
L 379.943317 294.3 
L 381.024 295.484774 
L 381.450121 295.92 
L 382.752 297.349525 
L 382.938773 297.54 
L 384.440788 299.16 
L 384.48 299.202811 
L 386.017359 300.78 
L 386.208 300.988133 
L 387.585807 302.4 
L 387.936 302.782751 
L 389.143448 304.02 
L 389.664 304.589309 
L 390.690758 305.64 
L 391.392 306.407485 
L 392.225194 307.26 
L 393.12 308.24057 
L 393.745877 308.88 
L 394.848 310.088308 
L 395.25108 310.5 
L 396.576 311.955282 
L 396.73754 312.12 
L 398.24999 313.74 
L 398.304 313.798967 
L 399.825535 315.36 
L 400.032 315.585468 
L 401.393033 316.98 
L 401.76 317.381082 
L 402.949569 318.6 
L 403.488 319.189032 
L 404.495548 320.22 
L 405.216 321.008515 
L 406.028697 321.84 
L 406.944 322.843347 
L 407.547598 323.46 
L 408.672 324.692761 
L 409.051173 325.08 
z
" clip-path="url(#p2694024a4a)" style="fill: #008000; fill-opacity: 0.6"/>
   </g>
   <g id="matplotlib.axis_1">
    <g id="xtick_1">
     <g id="line2d_1">
      <defs>
       <path id="mf9630a184a" d="M 0 0 
L 0 3.5 
" style="stroke: #000000; stroke-width: 0.8"/>
      </defs>
      <g>
       <use xlink:href="#mf9630a184a" x="64.8" y="367.2" style="stroke: #000000; stroke-width: 0.8"/>
      </g>
     </g>
     <g id="text_1">
      <!-- -1.0 -->
      <g transform="translate(49.705953 388.036997)scale(0.2 -0.2)">
       <defs>
        <path id="CMSS17-2d" d="M 1664 1216 
L 1664 1587 
L 64 1587 
L 64 1216 
L 1664 1216 
z
" transform="scale(0.015625)"/>
        <path id="CMSS17-31" d="M 1818 4288 
L 1696 4288 
C 1350 3949 947 3902 538 3891 
L 538 3520 
C 723 3526 1024 3539 1325 3673 
L 1325 371 
L 570 371 
L 570 0 
L 2573 0 
L 2573 371 
L 1818 371 
L 1818 4288 
z
" transform="scale(0.015625)"/>
        <path id="CMSS17-2e" d="M 1088 512 
L 576 512 
L 576 0 
L 1088 0 
L 1088 512 
z
" transform="scale(0.015625)"/>
        <path id="CMSS17-30" d="M 2758 2073 
C 2758 2439 2752 3120 2490 3647 
C 2227 4153 1805 4288 1504 4288 
C 1069 4288 698 4031 506 3621 
C 301 3191 243 2748 243 2073 
C 243 1611 262 1046 493 551 
C 755 6 1197 -128 1498 -128 
C 1894 -128 2278 83 2496 525 
C 2720 988 2758 1495 2758 2073 
z
M 1498 262 
C 1011 262 864 821 819 1007 
C 742 1328 730 1636 730 2144 
C 730 2542 730 2992 851 3345 
C 998 3756 1254 3897 1498 3897 
C 1971 3897 2125 3422 2176 3255 
C 2272 2915 2272 2516 2272 2144 
C 2272 1546 2272 262 1498 262 
z
" transform="scale(0.015625)"/>
       </defs>
       <use xlink:href="#CMSS17-2d" transform="scale(0.996264)"/>
       <use xlink:href="#CMSS17-31" transform="translate(31.229113 0)scale(0.996264)"/>
       <use xlink:href="#CMSS17-2e" transform="translate(78.072736 0)scale(0.996264)"/>
       <use xlink:href="#CMSS17-30" transform="translate(104.096941 0)scale(0.996264)"/>
      </g>
     </g>
    </g>
    <g id="xtick_2">
     <g id="line2d_2">
      <g>
       <use xlink:href="#mf9630a184a" x="151.2" y="367.2" style="stroke: #000000; stroke-width: 0.8"/>
      </g>
     </g>
     <g id="text_2">
      <!-- -0.5 -->
      <g transform="translate(136.105953 388.036997)scale(0.2 -0.2)">
       <defs>
        <path id="CMSS17-35" d="M 934 3814 
L 2502 3814 
L 2502 4224 
L 467 4224 
L 467 1830 
L 896 1830 
C 1011 2103 1248 2304 1555 2304 
C 1843 2304 2163 2044 2163 1299 
C 2163 502 1709 268 1376 268 
C 966 268 589 521 422 871 
L 218 508 
C 512 51 992 -128 1376 -128 
C 2118 -128 2701 508 2701 1286 
C 2701 2083 2182 2694 1562 2694 
C 1338 2694 1120 2617 934 2464 
L 934 3814 
z
" transform="scale(0.015625)"/>
       </defs>
       <use xlink:href="#CMSS17-2d" transform="scale(0.996264)"/>
       <use xlink:href="#CMSS17-30" transform="translate(31.229113 0)scale(0.996264)"/>
       <use xlink:href="#CMSS17-2e" transform="translate(78.072736 0)scale(0.996264)"/>
       <use xlink:href="#CMSS17-35" transform="translate(104.096941 0)scale(0.996264)"/>
      </g>
     </g>
    </g>
    <g id="xtick_3">
     <g id="line2d_3">
      <g>
       <use xlink:href="#mf9630a184a" x="237.6" y="367.2" style="stroke: #000000; stroke-width: 0.8"/>
      </g>
     </g>
     <g id="text_3">
      <!-- 0.0 -->
      <g transform="translate(225.628862 388.036997)scale(0.2 -0.2)">
       <use xlink:href="#CMSS17-30" transform="scale(0.996264)"/>
       <use xlink:href="#CMSS17-2e" transform="translate(46.843624 0)scale(0.996264)"/>
       <use xlink:href="#CMSS17-30" transform="translate(72.867828 0)scale(0.996264)"/>
      </g>
     </g>
    </g>
    <g id="xtick_4">
     <g id="line2d_4">
      <g>
       <use xlink:href="#mf9630a184a" x="324" y="367.2" style="stroke: #000000; stroke-width: 0.8"/>
      </g>
     </g>
     <g id="text_4">
      <!-- 0.5 -->
      <g transform="translate(312.028862 388.036997)scale(0.2 -0.2)">
       <use xlink:href="#CMSS17-30" transform="scale(0.996264)"/>
       <use xlink:href="#CMSS17-2e" transform="translate(46.843624 0)scale(0.996264)"/>
       <use xlink:href="#CMSS17-35" transform="translate(72.867828 0)scale(0.996264)"/>
      </g>
     </g>
    </g>
    <g id="xtick_5">
     <g id="line2d_5">
      <g>
       <use xlink:href="#mf9630a184a" x="410.4" y="367.2" style="stroke: #000000; stroke-width: 0.8"/>
      </g>
     </g>
     <g id="text_5">
      <!-- 1.0 -->
      <g transform="translate(398.428862 388.036997)scale(0.2 -0.2)">
       <use xlink:href="#CMSS17-31" transform="scale(0.996264)"/>
       <use xlink:href="#CMSS17-2e" transform="translate(46.843624 0)scale(0.996264)"/>
       <use xlink:href="#CMSS17-30" transform="translate(72.867828 0)scale(0.996264)"/>
      </g>
     </g>
    </g>
    <g id="text_6">
     <!-- $\epsilon_{ee}^{dV}$ -->
     <g transform="translate(226.132034 412.829204)scale(0.2 -0.2)">
      <defs>
       <path id="CMMI12-f" d="M 1862 1472 
C 1958 1472 2067 1472 2067 1574 
C 2067 1657 2003 1657 1888 1657 
L 851 1657 
C 1011 2224 1389 2566 1958 2566 
L 2144 2566 
C 2253 2566 2349 2566 2349 2668 
C 2349 2752 2278 2752 2163 2752 
L 1946 2752 
C 1158 2752 294 2136 294 1141 
C 294 420 774 -64 1408 -64 
C 1818 -64 2221 193 2221 258 
C 2221 297 2202 336 2163 336 
C 2144 336 2131 330 2099 304 
C 1856 141 1619 64 1427 64 
C 1088 64 730 291 730 920 
C 730 1043 742 1212 800 1472 
L 1862 1472 
z
" transform="scale(0.015625)"/>
       <path id="CMMI12-64" d="M 3219 4255 
C 3226 4281 3238 4319 3238 4351 
C 3238 4416 3174 4416 3162 4416 
C 3155 4416 2842 4390 2810 4383 
C 2701 4377 2605 4364 2490 4358 
C 2330 4345 2285 4339 2285 4223 
C 2285 4159 2336 4159 2426 4159 
C 2739 4159 2746 4103 2746 4040 
C 2746 4002 2733 3951 2726 3932 
L 2336 2394 
C 2266 2560 2093 2816 1760 2816 
C 1037 2816 256 1883 256 938 
C 256 306 627 -64 1062 -64 
C 1414 -64 1715 210 1894 421 
C 1958 44 2259 -64 2451 -64 
C 2643 -64 2797 51 2912 281 
C 3014 498 3104 887 3104 913 
C 3104 945 3078 970 3040 970 
C 2982 970 2976 938 2950 842 
C 2854 466 2733 64 2470 64 
C 2285 64 2272 230 2272 357 
C 2272 383 2272 517 2317 696 
L 3219 4255 
z
M 1926 759 
C 1894 651 1894 638 1805 517 
C 1664 338 1382 64 1082 64 
C 819 64 672 300 672 676 
C 672 1028 870 1743 992 2011 
C 1210 2458 1510 2687 1760 2687 
C 2182 2687 2266 2164 2266 2113 
C 2266 2107 2246 2024 2240 2011 
L 1926 759 
z
" transform="scale(0.015625)"/>
       <path id="CMMI12-56" d="M 3962 3644 
C 4179 3987 4378 4140 4704 4166 
C 4768 4172 4819 4172 4819 4287 
C 4819 4313 4806 4352 4749 4352 
C 4634 4352 4358 4339 4243 4339 
C 4058 4339 3866 4352 3686 4352 
C 3635 4352 3571 4352 3571 4230 
C 3571 4172 3629 4166 3654 4166 
C 3891 4146 3917 4032 3917 3956 
C 3917 3860 3827 3714 3821 3708 
L 1811 540 
L 1363 3968 
C 1363 4153 1696 4166 1766 4166 
C 1862 4166 1920 4166 1920 4287 
C 1920 4352 1850 4352 1830 4352 
C 1722 4352 1594 4339 1485 4339 
L 1126 4339 
C 659 4339 467 4352 461 4352 
C 422 4352 346 4352 346 4236 
C 346 4166 390 4166 493 4166 
C 819 4166 838 4108 858 3949 
L 1370 25 
C 1389 -109 1389 -128 1478 -128 
C 1555 -128 1587 -109 1651 -7 
L 3962 3644 
z
" transform="scale(0.015625)"/>
       <path id="CMMI12-65" d="M 1146 1472 
C 1318 1472 1754 1484 2061 1600 
C 2547 1786 2592 2160 2592 2275 
C 2592 2559 2349 2816 1926 2816 
C 1254 2816 288 2205 288 1066 
C 288 400 672 -64 1254 -64 
C 2125 -64 2675 609 2675 691 
C 2675 729 2637 761 2611 761 
C 2592 761 2586 755 2528 698 
C 2118 159 1510 64 1267 64 
C 902 64 710 349 710 818 
C 710 907 710 1066 806 1472 
L 1146 1472 
z
M 838 1600 
C 1114 2591 1722 2687 1926 2687 
C 2208 2687 2400 2520 2400 2275 
C 2400 1600 1376 1600 1107 1600 
L 838 1600 
z
" transform="scale(0.015625)"/>
      </defs>
      <use xlink:href="#CMMI12-f" transform="scale(0.996264)"/>
      <use xlink:href="#CMMI12-64" transform="translate(39.388958 36.153639)scale(0.697382)"/>
      <use xlink:href="#CMMI12-56" transform="translate(74.871165 36.153639)scale(0.697382)"/>
      <use xlink:href="#CMMI12-65" transform="translate(39.388958 -24.62935)scale(0.697382)"/>
      <use xlink:href="#CMMI12-65" transform="translate(71.037215 -24.62935)scale(0.697382)"/>
     </g>
    </g>
   </g>
   <g id="matplotlib.axis_2">
    <g id="ytick_1">
     <g id="line2d_6">
      <defs>
       <path id="me1208a995b" d="M 0 0 
L -3.5 0 
" style="stroke: #000000; stroke-width: 0.8"/>
      </defs>
      <g>
       <use xlink:href="#me1208a995b" x="64.8" y="367.2" style="stroke: #000000; stroke-width: 0.8"/>
      </g>
     </g>
     <g id="text_7">
      <!-- -1.0 -->
      <g transform="translate(27.611905 374.118498)scale(0.2 -0.2)">
       <use xlink:href="#CMSS17-2d" transform="scale(0.996264)"/>
       <use xlink:href="#CMSS17-31" transform="translate(31.229113 0)scale(0.996264)"/>
       <use xlink:href="#CMSS17-2e" transform="translate(78.072736 0)scale(0.996264)"/>
       <use xlink:href="#CMSS17-30" transform="translate(104.096941 0)scale(0.996264)"/>
      </g>
     </g>
    </g>
    <g id="ytick_2">
     <g id="line2d_7">
      <g>
       <use xlink:href="#me1208a995b" x="64.8" y="286.2" style="stroke: #000000; stroke-width: 0.8"/>
      </g>
     </g>
     <g id="text_8">
      <!-- -0.5 -->
      <g transform="translate(27.611905 293.118498)scale(0.2 -0.2)">
       <use xlink:href="#CMSS17-2d" transform="scale(0.996264)"/>
       <use xlink:href="#CMSS17-30" transform="translate(31.229113 0)scale(0.996264)"/>
       <use xlink:href="#CMSS17-2e" transform="translate(78.072736 0)scale(0.996264)"/>
       <use xlink:href="#CMSS17-35" transform="translate(104.096941 0)scale(0.996264)"/>
      </g>
     </g>
    </g>
    <g id="ytick_3">
     <g id="line2d_8">
      <g>
       <use xlink:href="#me1208a995b" x="64.8" y="205.2" style="stroke: #000000; stroke-width: 0.8"/>
      </g>
     </g>
     <g id="text_9">
      <!-- 0.0 -->
      <g transform="translate(33.857725 212.118498)scale(0.2 -0.2)">
       <use xlink:href="#CMSS17-30" transform="scale(0.996264)"/>
       <use xlink:href="#CMSS17-2e" transform="translate(46.843624 0)scale(0.996264)"/>
       <use xlink:href="#CMSS17-30" transform="translate(72.867828 0)scale(0.996264)"/>
      </g>
     </g>
    </g>
    <g id="ytick_4">
     <g id="line2d_9">
      <g>
       <use xlink:href="#me1208a995b" x="64.8" y="124.2" style="stroke: #000000; stroke-width: 0.8"/>
      </g>
     </g>
     <g id="text_10">
      <!-- 0.5 -->
      <g transform="translate(33.857725 131.118498)scale(0.2 -0.2)">
       <use xlink:href="#CMSS17-30" transform="scale(0.996264)"/>
       <use xlink:href="#CMSS17-2e" transform="translate(46.843624 0)scale(0.996264)"/>
       <use xlink:href="#CMSS17-35" transform="translate(72.867828 0)scale(0.996264)"/>
      </g>
     </g>
    </g>
    <g id="ytick_5">
     <g id="line2d_10">
      <g>
       <use xlink:href="#me1208a995b" x="64.8" y="43.2" style="stroke: #000000; stroke-width: 0.8"/>
      </g>
     </g>
     <g id="text_11">
      <!-- 1.0 -->
      <g transform="translate(33.857725 50.118498)scale(0.2 -0.2)">
       <use xlink:href="#CMSS17-31" transform="scale(0.996264)"/>
       <use xlink:href="#CMSS17-2e" transform="translate(46.843624 0)scale(0.996264)"/>
       <use xlink:href="#CMSS17-30" transform="translate(72.867828 0)scale(0.996264)"/>
      </g>
     </g>
    </g>
    <g id="text_12">
     <!-- $\epsilon_{ee}^{uV}$ -->
     <g transform="translate(18.686041 217.006153)rotate(-90)scale(0.2 -0.2)">
      <defs>
       <path id="CMMI12-75" d="M 2182 370 
C 2266 12 2573 -64 2726 -64 
C 2931 -64 3085 70 3187 287 
C 3296 517 3379 893 3379 913 
C 3379 944 3354 970 3315 970 
C 3258 970 3251 938 3226 842 
C 3110 402 2995 64 2739 64 
C 2547 64 2547 274 2547 357 
C 2547 504 2566 568 2630 836 
C 2675 1008 2720 1181 2758 1359 
L 3021 2400 
C 3066 2560 3066 2572 3066 2591 
C 3066 2687 2989 2752 2893 2752 
C 2707 2752 2662 2591 2624 2432 
C 2560 2183 2214 810 2170 587 
C 2163 587 1914 64 1446 64 
C 1114 64 1050 351 1050 587 
C 1050 951 1229 1462 1395 1890 
C 1472 2094 1504 2177 1504 2305 
C 1504 2579 1306 2816 998 2816 
C 410 2816 173 1890 173 1838 
C 173 1813 198 1781 243 1781 
C 301 1781 307 1807 333 1896 
C 486 2445 736 2687 979 2687 
C 1043 2687 1146 2681 1146 2477 
C 1146 2311 1075 2126 979 1883 
C 698 1123 666 881 666 689 
C 666 38 1158 -64 1421 -64 
C 1830 -64 2054 217 2182 370 
z
" transform="scale(0.015625)"/>
      </defs>
      <use xlink:href="#CMMI12-f" transform="scale(0.996264)"/>
      <use xlink:href="#CMMI12-75" transform="translate(39.388958 36.153639)scale(0.697382)"/>
      <use xlink:href="#CMMI12-56" transform="translate(78.253014 36.153639)scale(0.697382)"/>
      <use xlink:href="#CMMI12-65" transform="translate(39.388958 -24.62935)scale(0.697382)"/>
      <use xlink:href="#CMMI12-65" transform="translate(71.037215 -24.62935)scale(0.697382)"/>
     </g>
    </g>
   </g>
   <g id="line2d_11">
    <defs>
     <path id="m7542ed8ae8" d="M -4.5 0 
L 4.5 0 
M 0 4.5 
L 0 -4.5 
" style="stroke: #000000"/>
    </defs>
    <g clip-path="url(#p2694024a4a)">
     <use xlink:href="#m7542ed8ae8" x="237.6" y="205.2" style="stroke: #000000"/>
    </g>
   </g>
   <g id="patch_3">
    <path d="M 64.8 367.2 
L 64.8 43.2 
" style="fill: none; stroke: #000000; stroke-width: 0.8; stroke-linejoin: miter; stroke-linecap: square"/>
   </g>
   <g id="patch_4">
    <path d="M 410.4 367.2 
L 410.4 43.2 
" style="fill: none; stroke: #000000; stroke-width: 0.8; stroke-linejoin: miter; stroke-linecap: square"/>
   </g>
   <g id="patch_5">
    <path d="M 64.8 367.2 
L 410.4 367.2 
" style="fill: none; stroke: #000000; stroke-width: 0.8; stroke-linejoin: miter; stroke-linecap: square"/>
   </g>
   <g id="patch_6">
    <path d="M 64.8 43.2 
L 410.4 43.2 
" style="fill: none; stroke: #000000; stroke-width: 0.8; stroke-linejoin: miter; stroke-linecap: square"/>
   </g>
   <g id="legend_1">
    <g id="patch_7">
     <path d="M 75.3 359.7 
L 249.080551 359.7 
Q 252.080551 359.7 252.080551 356.7 
L 252.080551 314.850295 
Q 252.080551 311.850295 249.080551 311.850295 
L 75.3 311.850295 
Q 72.3 311.850295 72.3 314.850295 
L 72.3 356.7 
Q 72.3 359.7 75.3 359.7 
z
" style="fill: #ffffff; opacity: 0.8; stroke: #cccccc; stroke-linejoin: miter"/>
    </g>
    <g id="patch_8">
     <path d="M 78.3 329.058265 
L 108.3 329.058265 
L 108.3 318.558265 
L 78.3 318.558265 
z
" style="fill: #0000ff; opacity: 0.2; stroke: #0000ff; stroke-linejoin: miter"/>
    </g>
    <g id="text_13">
     <!-- $\mathrm{COHERENT(2017)}$ -->
     <g transform="translate(120.3 329.058265)scale(0.15 -0.15)">
      <defs>
       <path id="CMR17-43" d="M 3974 4351 
C 3974 4467 3968 4473 3930 4473 
C 3904 4473 3898 4467 3853 4390 
L 3571 3849 
C 3258 4249 2874 4480 2381 4480 
C 1286 4480 294 3507 294 2179 
C 294 837 1286 -128 2387 -128 
C 3366 -128 3974 741 3974 1482 
C 3974 1547 3974 1573 3917 1573 
C 3866 1573 3866 1553 3859 1495 
C 3808 592 3168 38 2477 38 
C 1824 38 781 502 781 2179 
C 781 3862 1843 4313 2464 4313 
C 3187 4313 3712 3681 3834 2785 
C 3846 2707 3846 2695 3904 2695 
C 3974 2695 3974 2707 3974 2824 
L 3974 4351 
z
" transform="scale(0.015625)"/>
       <path id="CMR17-4f" d="M 4307 2166 
C 4307 3488 3366 4480 2304 4480 
C 1216 4480 294 3475 294 2166 
C 294 857 1229 -128 2298 -128 
C 3392 -128 4307 876 4307 2166 
z
M 2304 -13 
C 1574 -13 781 722 781 2250 
C 781 3771 1651 4364 2298 4364 
C 2976 4364 3821 3752 3821 2250 
C 3821 696 3008 -13 2304 -13 
z
" transform="scale(0.015625)"/>
       <path id="CMR17-48" d="M 3590 3898 
C 3590 4185 3661 4185 4102 4185 
L 4102 4352 
C 3917 4339 3578 4339 3379 4339 
C 3181 4339 2842 4339 2656 4352 
L 2656 4185 
C 3098 4185 3168 4185 3168 3898 
L 3168 2342 
L 1261 2342 
L 1261 3898 
C 1261 4185 1331 4185 1773 4185 
L 1773 4352 
C 1587 4339 1248 4339 1050 4339 
C 851 4339 512 4339 326 4352 
L 326 4185 
C 768 4185 838 4185 838 3898 
L 838 452 
C 838 166 768 166 326 166 
L 326 0 
C 512 12 851 12 1050 12 
C 1248 12 1587 12 1773 0 
L 1773 166 
C 1331 166 1261 166 1261 452 
L 1261 2176 
L 3168 2176 
L 3168 452 
C 3168 166 3098 166 2656 166 
L 2656 0 
C 2842 12 3181 12 3379 12 
C 3578 12 3917 12 4102 0 
L 4102 166 
C 3661 166 3590 166 3590 452 
L 3590 3898 
z
" transform="scale(0.015625)"/>
       <path id="CMR17-45" d="M 3885 1614 
L 3770 1614 
C 3629 676 3546 166 2419 166 
L 1530 166 
C 1274 166 1261 198 1261 415 
L 1261 2176 
L 1862 2176 
C 2464 2176 2522 1959 2522 1429 
L 2637 1429 
L 2637 3086 
L 2522 3086 
C 2522 2558 2464 2342 1862 2342 
L 1261 2342 
L 1261 3924 
C 1261 4141 1274 4172 1530 4172 
L 2406 4172 
C 3398 4172 3514 3778 3603 2933 
L 3718 2933 
L 3565 4339 
L 326 4339 
L 326 4172 
C 768 4172 838 4172 838 3886 
L 838 453 
C 838 166 768 166 326 166 
L 326 0 
L 3654 0 
L 3885 1614 
z
" transform="scale(0.015625)"/>
       <path id="CMR17-52" d="M 2509 2156 
C 3117 2278 3629 2689 3629 3203 
C 3629 3806 2950 4352 2054 4352 
L 333 4352 
L 333 4185 
C 774 4185 845 4185 845 3896 
L 845 428 
C 845 140 774 140 333 140 
L 333 -26 
C 518 -13 851 -13 1050 -13 
C 1248 -13 1581 -13 1766 -26 
L 1766 140 
C 1325 140 1254 140 1254 428 
L 1254 2112 
L 2003 2112 
C 2368 2112 2573 1964 2662 1881 
C 2918 1632 2918 1459 2918 1024 
C 2918 595 2918 377 3110 160 
C 3354 -103 3680 -128 3821 -128 
C 4294 -128 4365 403 4365 512 
C 4365 550 4365 595 4307 595 
C 4256 595 4250 556 4250 531 
C 4218 115 4032 -26 3834 -26 
C 3482 -26 3443 377 3405 768 
C 3386 902 3373 998 3360 1139 
C 3322 1459 3270 1926 2509 2156 
z
M 1984 2214 
L 1254 2214 
L 1254 3935 
C 1254 4153 1267 4185 1523 4185 
L 1990 4185 
C 2522 4185 3142 3999 3142 3203 
C 3142 2374 2464 2214 1984 2214 
z
" transform="scale(0.015625)"/>
       <path id="CMR17-4e" d="M 1312 4275 
C 1267 4345 1261 4352 1139 4352 
L 326 4352 
L 326 4185 
L 448 4185 
C 704 4185 819 4153 838 4147 
L 838 624 
C 838 465 838 166 326 166 
L 326 0 
C 474 12 742 12 902 12 
C 1062 12 1331 12 1478 0 
L 1478 166 
C 966 166 966 465 966 624 
L 966 4057 
C 1011 4019 1011 4007 1056 3943 
L 3430 76 
C 3475 0 3494 0 3526 0 
C 3590 0 3590 19 3590 140 
L 3590 3726 
C 3590 3885 3590 4185 4102 4185 
L 4102 4352 
C 3955 4339 3686 4339 3526 4339 
C 3366 4339 3098 4339 2950 4352 
L 2950 4185 
C 3462 4185 3462 3885 3462 3726 
L 3462 777 
L 1312 4275 
z
" transform="scale(0.015625)"/>
       <path id="CMR17-54" d="M 3981 4332 
L 288 4332 
L 179 2924 
L 294 2924 
C 378 3981 467 4166 1453 4166 
C 1568 4166 1754 4166 1805 4159 
C 1926 4140 1926 4064 1926 3917 
L 1926 465 
C 1926 236 1907 166 1376 166 
L 1197 166 
L 1197 0 
C 1504 6 1824 12 2138 12 
C 2451 12 2771 6 3078 0 
L 3078 166 
L 2899 166 
C 2368 166 2349 236 2349 465 
L 2349 3917 
C 2349 4057 2349 4134 2464 4159 
C 2515 4166 2701 4166 2816 4166 
C 3795 4166 3891 3981 3974 2924 
L 4090 2924 
L 3981 4332 
z
" transform="scale(0.015625)"/>
       <path id="CMR17-28" d="M 1958 -1562 
C 1958 -1556 1958 -1543 1939 -1524 
C 1645 -1223 858 -403 858 1596 
C 858 3595 1632 4408 1946 4729 
C 1946 4735 1958 4748 1958 4767 
C 1958 4787 1939 4800 1914 4800 
C 1843 4800 1299 4325 986 3620 
C 666 2909 576 2218 576 1603 
C 576 1141 621 360 1005 -467 
C 1312 -1133 1837 -1600 1914 -1600 
C 1946 -1600 1958 -1588 1958 -1562 
z
" transform="scale(0.015625)"/>
       <path id="CMR17-32" d="M 2669 990 
L 2554 990 
C 2490 537 2438 460 2413 422 
C 2381 371 1920 371 1830 371 
L 602 371 
C 832 620 1280 1073 1824 1596 
C 2214 1966 2669 2400 2669 3033 
C 2669 3788 2067 4224 1395 4224 
C 691 4224 262 3603 262 3027 
C 262 2777 448 2745 525 2745 
C 589 2745 781 2783 781 3007 
C 781 3206 614 3264 525 3264 
C 486 3264 448 3257 422 3244 
C 544 3788 915 4057 1306 4057 
C 1862 4057 2227 3616 2227 3033 
C 2227 2477 1901 1998 1536 1583 
L 262 147 
L 262 0 
L 2515 0 
L 2669 990 
z
" transform="scale(0.015625)"/>
       <path id="CMR17-30" d="M 2688 2038 
C 2688 2430 2682 3099 2413 3613 
C 2176 4063 1798 4224 1466 4224 
C 1158 4224 768 4082 525 3620 
C 269 3137 243 2539 243 2038 
C 243 1671 250 1112 448 623 
C 723 -39 1216 -128 1466 -128 
C 1760 -128 2208 -7 2470 604 
C 2662 1048 2688 1568 2688 2038 
z
M 1466 -26 
C 1056 -26 813 328 723 816 
C 653 1196 653 1749 653 2109 
C 653 2604 653 3015 736 3407 
C 858 3954 1216 4121 1466 4121 
C 1728 4121 2067 3947 2189 3420 
C 2272 3054 2278 2623 2278 2109 
C 2278 1691 2278 1176 2202 797 
C 2067 96 1690 -26 1466 -26 
z
" transform="scale(0.015625)"/>
       <path id="CMR17-31" d="M 1702 4083 
C 1702 4217 1696 4224 1606 4224 
C 1357 3927 979 3833 621 3820 
C 602 3820 570 3820 563 3808 
C 557 3795 557 3782 557 3648 
C 755 3648 1088 3686 1344 3839 
L 1344 467 
C 1344 243 1331 166 781 166 
L 589 166 
L 589 0 
C 896 6 1216 12 1523 12 
C 1830 12 2150 6 2458 0 
L 2458 166 
L 2266 166 
C 1715 166 1702 236 1702 467 
L 1702 4083 
z
" transform="scale(0.015625)"/>
       <path id="CMR17-37" d="M 2886 3955 
L 2886 4096 
L 1382 4096 
C 634 4096 621 4166 595 4288 
L 480 4288 
L 294 3104 
L 410 3104 
C 429 3226 474 3552 550 3673 
C 589 3724 1062 3724 1171 3724 
L 2579 3724 
L 1869 2670 
C 1395 1961 1069 1003 1069 166 
C 1069 89 1069 -128 1299 -128 
C 1530 -128 1530 89 1530 172 
L 1530 466 
C 1530 1514 1709 2204 2003 2644 
L 2886 3955 
z
" transform="scale(0.015625)"/>
       <path id="CMR17-29" d="M 1683 1596 
C 1683 2057 1638 2839 1254 3665 
C 947 4332 422 4800 346 4800 
C 326 4800 301 4793 301 4761 
C 301 4748 307 4742 314 4729 
C 621 4408 1402 3595 1402 1603 
C 1402 -396 627 -1210 314 -1530 
C 307 -1543 301 -1549 301 -1562 
C 301 -1594 326 -1600 346 -1600 
C 416 -1600 960 -1127 1274 -422 
C 1594 289 1683 981 1683 1596 
z
" transform="scale(0.015625)"/>
      </defs>
      <use xlink:href="#CMR17-43" transform="scale(0.996264)"/>
      <use xlink:href="#CMR17-4f" transform="translate(66.509881 0)scale(0.996264)"/>
      <use xlink:href="#CMR17-48" transform="translate(138.224669 0)scale(0.996264)"/>
      <use xlink:href="#CMR17-45" transform="translate(207.297099 0)scale(0.996264)"/>
      <use xlink:href="#CMR17-52" transform="translate(269.883399 0)scale(0.996264)"/>
      <use xlink:href="#CMR17-45" transform="translate(337.674501 0)scale(0.996264)"/>
      <use xlink:href="#CMR17-4e" transform="translate(400.260802 0)scale(0.996264)"/>
      <use xlink:href="#CMR17-54" transform="translate(469.333232 0)scale(0.996264)"/>
      <use xlink:href="#CMR17-28" transform="translate(535.843112 0)scale(0.996264)"/>
      <use xlink:href="#CMR17-32" transform="translate(571.12388 0)scale(0.996264)"/>
      <use xlink:href="#CMR17-30" transform="translate(616.814357 0)scale(0.996264)"/>
      <use xlink:href="#CMR17-31" transform="translate(662.504834 0)scale(0.996264)"/>
      <use xlink:href="#CMR17-37" transform="translate(708.195311 0)scale(0.996264)"/>
      <use xlink:href="#CMR17-29" transform="translate(753.885788 0)scale(0.996264)"/>
     </g>
    </g>
    <g id="patch_9">
     <path d="M 78.3 350.794255 
L 108.3 350.794255 
L 108.3 340.294255 
L 78.3 340.294255 
z
" style="fill: #008000; opacity: 0.6; stroke: #008000; stroke-linejoin: miter"/>
    </g>
    <g id="text_14">
     <!-- $\mathrm{RELICS}$ -->
     <g transform="translate(120.3 350.794255)scale(0.15 -0.15)">
      <defs>
       <path id="CMR17-4c" d="M 3469 1612 
L 3354 1612 
C 3302 981 3219 166 2125 166 
L 1530 166 
C 1274 166 1261 198 1261 414 
L 1261 3892 
C 1261 4121 1274 4185 1760 4185 
L 1901 4185 
L 1901 4352 
C 1638 4339 1331 4339 1069 4339 
C 870 4339 512 4339 326 4352 
L 326 4185 
C 768 4185 838 4185 838 3898 
L 838 453 
C 838 166 768 166 326 166 
L 326 0 
L 3315 0 
L 3469 1612 
z
" transform="scale(0.015625)"/>
       <path id="CMR17-49" d="M 1261 3898 
C 1261 4185 1338 4185 1798 4185 
L 1798 4352 
C 1594 4339 1267 4339 1050 4339 
C 832 4339 506 4339 301 4352 
L 301 4185 
C 762 4185 838 4185 838 3898 
L 838 453 
C 838 166 762 166 301 166 
L 301 0 
C 506 12 832 12 1050 12 
C 1267 12 1594 12 1798 0 
L 1798 166 
C 1338 166 1261 166 1261 453 
L 1261 3898 
z
" transform="scale(0.015625)"/>
       <path id="CMR17-53" d="M 2803 4351 
C 2803 4467 2797 4473 2758 4473 
C 2720 4473 2707 4447 2682 4390 
L 2490 3965 
C 2246 4320 1875 4480 1472 4480 
C 819 4480 294 3958 294 3301 
C 294 3101 339 2817 557 2546 
C 794 2250 1018 2198 1530 2063 
C 1722 2011 2042 1927 2106 1901 
C 2470 1747 2662 1360 2662 999 
C 2662 534 2336 38 1779 38 
C 1094 38 454 425 410 1328 
C 403 1431 397 1437 352 1437 
C 301 1437 294 1431 294 1302 
L 294 0 
C 294 -116 301 -122 339 -122 
C 384 -122 397 -90 486 109 
C 493 128 493 141 614 386 
C 934 -39 1472 -128 1779 -128 
C 2477 -128 2970 457 2970 1141 
C 2970 1476 2848 1734 2778 1850 
C 2509 2263 2221 2340 1914 2417 
C 1869 2437 1856 2437 1498 2527 
C 1152 2617 1005 2662 845 2836 
C 666 3036 602 3243 602 3449 
C 602 3868 934 4326 1478 4326 
C 2157 4326 2579 3842 2675 3036 
C 2694 2920 2701 2914 2746 2914 
C 2803 2914 2803 2933 2803 3043 
L 2803 4351 
z
" transform="scale(0.015625)"/>
      </defs>
      <use xlink:href="#CMR17-52" transform="scale(0.996264)"/>
      <use xlink:href="#CMR17-45" transform="translate(67.791102 0)scale(0.996264)"/>
      <use xlink:href="#CMR17-4c" transform="translate(130.377402 0)scale(0.996264)"/>
      <use xlink:href="#CMR17-49" transform="translate(187.75881 0)scale(0.996264)"/>
      <use xlink:href="#CMR17-43" transform="translate(220.39722 0)scale(0.996264)"/>
      <use xlink:href="#CMR17-53" transform="translate(286.9071 0)scale(0.996264)"/>
     </g>
    </g>
   </g>
  </g>
 </g>
 <defs>
  <clipPath id="p2694024a4a">
   <rect x="64.8" y="43.2" width="345.6" height="324"/>
  </clipPath>
 </defs>
</svg>
