<?xml version="1.0" encoding="utf-8" standalone="no"?>
<!DOCTYPE svg PUBLIC "-//W3C//DTD SVG 1.1//EN"
  "http://www.w3.org/Graphics/SVG/1.1/DTD/svg11.dtd">
<svg xmlns:xlink="http://www.w3.org/1999/xlink" width="432pt" height="432pt" viewBox="0 0 432 432" xmlns="http://www.w3.org/2000/svg" version="1.1">
 <metadata>
  <rdf:RDF xmlns:dc="http://purl.org/dc/elements/1.1/" xmlns:cc="http://creativecommons.org/ns#" xmlns:rdf="http://www.w3.org/1999/02/22-rdf-syntax-ns#">
   <cc:Work>
    <dc:type rdf:resource="http://purl.org/dc/dcmitype/StillImage"/>
    <dc:date>2022-05-27T02:05:25.752933</dc:date>
    <dc:format>image/svg+xml</dc:format>
    <dc:creator>
     <cc:Agent>
      <dc:title>Matplotlib v3.5.1, https://matplotlib.org/</dc:title>
     </cc:Agent>
    </dc:creator>
   </cc:Work>
  </rdf:RDF>
 </metadata>
 <defs>
  <style type="text/css">*{stroke-linejoin: round; stroke-linecap: butt}</style>
 </defs>
 <g id="figure_1">
  <g id="patch_1">
   <path d="M 0 432 
L 432 432 
L 432 0 
L 0 0 
L 0 432 
z
" style="fill: none"/>
  </g>
  <g id="axes_1">
   <g id="patch_2">
    <path d="M 64.8 367.2 
L 410.4 367.2 
L 410.4 43.2 
L 64.8 43.2 
L 64.8 367.2 
z
" style="fill: none"/>
   </g>
   <g id="PolyCollection_1">
    <path d="M 64.8 39.966017 
L 64.8 39.966017 
L 68.256 43.590767 
L 71.712 47.215518 
L 75.168 50.840269 
L 78.624 54.465019 
L 82.08 58.08977 
L 85.536 61.71452 
L 88.992 65.339271 
L 92.448 68.964021 
L 95.904 72.588772 
L 99.36 76.213522 
L 102.816 79.838273 
L 106.272 83.463024 
L 109.728 87.087774 
L 113.184 90.712525 
L 116.64 94.337275 
L 120.096 97.962026 
L 123.552 101.586776 
L 127.008 105.211527 
L 130.464 108.836278 
L 133.92 112.461028 
L 137.376 116.085779 
L 140.832 119.710529 
L 144.288 123.33528 
L 147.744 126.96003 
L 151.2 130.584781 
L 154.656 134.209532 
L 158.112 137.834282 
L 161.568 141.459033 
L 165.024 145.083783 
L 168.48 148.708534 
L 171.936 152.333284 
L 175.392 155.958035 
L 178.848 159.582785 
L 182.304 163.207536 
L 185.76 166.832287 
L 189.216 170.457037 
L 192.672 174.081788 
L 196.128 177.706538 
L 199.584 181.331289 
L 203.04 184.956039 
L 206.496 188.58079 
L 209.952 192.205541 
L 213.408 195.830291 
L 216.864 199.455042 
L 220.32 203.079792 
L 223.776 206.704543 
L 227.232 210.329293 
L 230.688 213.954044 
L 234.144 217.578794 
L 237.6 221.203545 
L 241.056 224.828296 
L 244.512 228.453046 
L 247.968 232.077797 
L 251.424 235.702547 
L 254.88 239.327298 
L 258.336 242.952048 
L 261.792 246.576799 
L 265.248 250.20155 
L 268.704 253.8263 
L 272.16 257.451051 
L 275.616 261.075801 
L 279.072 264.700552 
L 282.528 268.325302 
L 285.984 271.950053 
L 289.44 275.574804 
L 292.896 279.199554 
L 296.352 282.824305 
L 299.808 286.449055 
L 303.264 290.073806 
L 306.72 293.698556 
L 310.176 297.323307 
L 313.632 300.948057 
L 317.088 304.572808 
L 320.544 308.197559 
L 324 311.822309 
L 327.456 315.44706 
L 330.912 319.07181 
L 334.368 322.696561 
L 337.824 326.321311 
L 341.28 329.946062 
L 344.736 333.570813 
L 348.192 337.195563 
L 351.648 340.820314 
L 355.104 344.445064 
L 358.56 348.069815 
L 362.016 351.694565 
L 365.472 355.319316 
L 368.928 358.944066 
L 372.384 362.568817 
L 375.84 366.193568 
L 379.296 369.818318 
L 382.752 373.443069 
L 386.208 377.067819 
L 389.664 380.69257 
L 393.12 384.31732 
L 396.576 387.942071 
L 400.032 391.566822 
L 403.488 395.191572 
L 406.944 398.816323 
L 410.4 402.441073 
L 410.4 402.441073 
L 410.4 303.92687 
L 406.944 300.301648 
L 403.488 296.676426 
L 400.032 293.051205 
L 396.576 289.425983 
L 393.12 285.800761 
L 389.664 282.17554 
L 386.208 278.550318 
L 382.752 274.925096 
L 379.296 271.299874 
L 375.84 267.674653 
L 372.384 264.049431 
L 368.928 260.424209 
L 365.472 256.798988 
L 362.016 253.173766 
L 358.56 249.548544 
L 355.104 245.923323 
L 351.648 242.298101 
L 348.192 238.672879 
L 344.736 235.047657 
L 341.28 231.422436 
L 337.824 227.797214 
L 334.368 224.171992 
L 330.912 220.546771 
L 327.456 216.921549 
L 324 213.296327 
L 320.544 209.671106 
L 317.088 206.045884 
L 313.632 202.420662 
L 310.176 198.79544 
L 306.72 195.170219 
L 303.264 191.544997 
L 299.808 187.919775 
L 296.352 184.294554 
L 292.896 180.669332 
L 289.44 177.04411 
L 285.984 173.418889 
L 282.528 169.793667 
L 279.072 166.168445 
L 275.616 162.543223 
L 272.16 158.918002 
L 268.704 155.29278 
L 265.248 151.667558 
L 261.792 148.042337 
L 258.336 144.417115 
L 254.88 140.791893 
L 251.424 137.166672 
L 247.968 133.54145 
L 244.512 129.916228 
L 241.056 126.291006 
L 237.6 122.665785 
L 234.144 119.040563 
L 230.688 115.415341 
L 227.232 111.79012 
L 223.776 108.164898 
L 220.32 104.539676 
L 216.864 100.914455 
L 213.408 97.289233 
L 209.952 93.664011 
L 206.496 90.038789 
L 203.04 86.413568 
L 199.584 82.788346 
L 196.128 79.163124 
L 192.672 75.537903 
L 189.216 71.912681 
L 185.76 68.287459 
L 182.304 64.662238 
L 178.848 61.037016 
L 175.392 57.411794 
L 171.936 53.786573 
L 168.48 50.161351 
L 165.024 46.536129 
L 161.568 42.910907 
L 158.112 39.285686 
L 154.656 35.660464 
L 151.2 32.035242 
L 147.744 28.410021 
L 144.288 24.784799 
L 140.832 21.159577 
L 137.376 17.534356 
L 133.92 13.909134 
L 130.464 10.283912 
L 127.008 6.65869 
L 123.552 3.033469 
L 120.096 -0.591753 
L 116.64 -4.216975 
L 113.184 -7.842196 
L 109.728 -11.467418 
L 106.272 -15.09264 
L 102.816 -18.717861 
L 99.36 -22.343083 
L 95.904 -25.968305 
L 92.448 -29.593527 
L 88.992 -33.218748 
L 85.536 -36.84397 
L 82.08 -40.469192 
L 78.624 -44.094413 
L 75.168 -47.719635 
L 71.712 -51.344857 
L 68.256 -54.970078 
L 64.8 -58.5953 
z
" clip-path="url(#p41a5ca460c)" style="fill: #0000ff; fill-opacity: 0.2"/>
   </g>
   <g id="PathCollection_1">
    <path d="M 382.752 367.081186 
L 382.865058 367.2 
L 384.48 367.2 
L 386.208 367.2 
L 387.936 367.2 
L 389.664 367.2 
L 391.392 367.2 
L 393.12 367.2 
L 394.848 367.2 
L 396.576 367.2 
L 398.304 367.2 
L 400.032 367.2 
L 401.76 367.2 
L 403.488 367.2 
L 403.893065 367.2 
L 403.488 366.765134 
L 402.346544 365.58 
L 401.76 364.95011 
L 400.806368 363.96 
L 400.032 363.128303 
L 399.272586 362.34 
L 398.304 361.299451 
L 397.745596 360.72 
L 396.576 359.462935 
L 396.226167 359.1 
L 394.848 357.618421 
L 394.714548 357.48 
L 393.187037 355.86 
L 393.12 355.788048 
L 391.629803 354.24 
L 391.392 353.984746 
L 390.077989 352.62 
L 389.664 352.17551 
L 388.53186 351 
L 387.936 350.360043 
L 386.992095 349.38 
L 386.208 348.537785 
L 385.458742 347.76 
L 384.48 346.708431 
L 383.932227 346.14 
L 382.752 344.871384 
L 382.413311 344.52 
L 381.024 343.026313 
L 380.902224 342.9 
L 379.372024 341.28 
L 379.296 341.198394 
L 377.815149 339.66 
L 377.568 339.394691 
L 376.263703 338.04 
L 375.84 337.585035 
L 374.717995 336.42 
L 374.112 335.769094 
L 373.178669 334.8 
L 372.384 333.946354 
L 371.645776 333.18 
L 370.656 332.116464 
L 370.11977 331.56 
L 368.928 330.278852 
L 368.6014 329.94 
L 367.2 328.433188 
L 367.090881 328.32 
L 365.557753 326.7 
L 365.472 326.607944 
L 364.001259 325.08 
L 363.744 324.803811 
L 362.450211 323.46 
L 362.016 322.993705 
L 360.904953 321.84 
L 360.288 321.17726 
L 359.366097 320.22 
L 358.56 319.354007 
L 357.833692 318.6 
L 356.832 317.523546 
L 356.308228 316.98 
L 355.104 315.685332 
L 354.79044 315.36 
L 353.376 313.83904 
L 353.280523 313.74 
L 351.744226 312.12 
L 351.648 312.016692 
L 350.188141 310.5 
L 349.92 310.212101 
L 348.637517 308.88 
L 348.192 308.401517 
L 347.092738 307.26 
L 346.464 306.584535 
L 345.554382 305.64 
L 344.736 304.760737 
L 344.022491 304.02 
L 343.008 302.929675 
L 342.497608 302.4 
L 341.28 301.09082 
L 340.980436 300.78 
L 339.552 299.243862 
L 339.471157 299.16 
L 337.931447 297.54 
L 337.824 297.424635 
L 336.375797 295.92 
L 336.096 295.619556 
L 334.825625 294.3 
L 334.368 293.808465 
L 333.281355 292.68 
L 332.64 291.990918 
L 331.743523 291.06 
L 330.912 290.16654 
L 330.21218 289.44 
L 329.184 288.334843 
L 328.687915 287.82 
L 327.456 286.495308 
L 327.171395 286.2 
L 325.728 284.647648 
L 325.662789 284.58 
L 324.119422 282.96 
L 324 282.831767 
L 322.564233 281.34 
L 322.272 281.026172 
L 321.01454 279.72 
L 320.544 279.214543 
L 319.470809 278.1 
L 318.816 277.396406 
L 317.933526 276.48 
L 317.088 275.57141 
L 316.402766 274.86 
L 315.36 273.739043 
L 314.879155 273.24 
L 313.632 271.898789 
L 313.363323 271.62 
L 311.904 270.050391 
L 311.855426 270 
L 310.308155 268.38 
L 310.176 268.238083 
L 308.753454 266.76 
L 308.448 266.431943 
L 307.204267 265.14 
L 306.72 264.619746 
L 305.661106 263.52 
L 304.992 262.800988 
L 304.1244 261.9 
L 303.264 260.975339 
L 302.594258 260.28 
L 301.536 259.142265 
L 301.071335 258.66 
L 299.808 257.301255 
L 299.556228 257.04 
L 298.08 255.452081 
L 298.049076 255.42 
L 296.497651 253.8 
L 296.352 253.643578 
L 294.943465 252.18 
L 294.624 251.836862 
L 293.394813 250.56 
L 292.896 250.024067 
L 291.852252 248.94 
L 291.168 248.204656 
L 290.316154 247.32 
L 289.44 246.378321 
L 288.786661 245.7 
L 287.712 244.544503 
L 287.264463 244.08 
L 285.984 242.702704 
L 285.750113 242.46 
L 284.256 240.852711 
L 284.243748 240.84 
L 282.687917 239.22 
L 282.528 239.048244 
L 281.134273 237.6 
L 280.8 237.240922 
L 279.586184 235.98 
L 279.072 235.427498 
L 278.044254 234.36 
L 277.344 233.607402 
L 276.508794 232.74 
L 275.616 231.780348 
L 274.979982 231.12 
L 273.888 229.945747 
L 273.458546 229.5 
L 272.16 228.103142 
L 271.944971 227.88 
L 270.43748 226.26 
L 270.432 226.254114 
L 268.878958 224.64 
L 268.704 224.452075 
L 267.325883 223.02 
L 266.976 222.644117 
L 265.778387 221.4 
L 265.248 220.830032 
L 264.237118 219.78 
L 263.52 219.009219 
L 262.702327 218.16 
L 261.792 217.181411 
L 261.174231 216.54 
L 260.064 215.34599 
L 259.653595 214.92 
L 258.336 213.502542 
L 258.140827 213.3 
L 256.628733 211.68 
L 256.608 211.657732 
L 255.070782 210.06 
L 254.88 209.855063 
L 253.518304 208.44 
L 253.152 208.046439 
L 251.97143 206.82 
L 251.424 206.231661 
L 250.430854 205.2 
L 249.696 204.410099 
L 248.896762 203.58 
L 247.968 202.581507 
L 247.36941 201.96 
L 246.24 200.74522 
L 245.849616 200.34 
L 244.512 198.900893 
L 244.337693 198.72 
L 242.820747 197.1 
L 242.784 197.060528 
L 241.263395 195.48 
L 241.056 195.2572 
L 239.711532 193.86 
L 239.328 193.447889 
L 238.16532 192.24 
L 237.6 191.632375 
L 236.625468 190.62 
L 235.872 189.810032 
L 235.092108 189 
L 234.144 187.980597 
L 233.565558 187.38 
L 232.416 186.143429 
L 232.046622 185.76 
L 230.688 184.298184 
L 230.53558 184.14 
L 229.01353 182.52 
L 228.96 182.462494 
L 227.456806 180.9 
L 227.232 180.658479 
L 225.905576 179.28 
L 225.504 178.848459 
L 224.360056 177.66 
L 223.776 177.032175 
L 222.820971 176.04 
L 222.048 175.209008 
L 221.288373 174.42 
L 220.32 173.378693 
L 219.762662 172.8 
L 218.592 171.540604 
L 218.244621 171.18 
L 216.864 169.694403 
L 216.734498 169.56 
L 215.207091 167.94 
L 215.136 167.863622 
L 213.651023 166.32 
L 213.408 166.058889 
L 212.100454 164.7 
L 211.68 164.248129 
L 210.555684 163.08 
L 209.952 162.431015 
L 209.017371 161.46 
L 208.224 160.607017 
L 207.485568 159.84 
L 206.496 158.775783 
L 205.960734 158.22 
L 204.768 156.936734 
L 204.443626 156.6 
L 203.04 155.089538 
L 202.934459 154.98 
L 201.401437 153.36 
L 201.312 153.263903 
L 199.846049 151.74 
L 199.584 151.458422 
L 198.296175 150.12 
L 197.856 149.646888 
L 196.752186 148.5 
L 196.128 147.828911 
L 195.214679 146.88 
L 194.4 146.004049 
L 193.683701 145.26 
L 192.672 144.171859 
L 192.159784 143.64 
L 190.944 142.331807 
L 190.643647 142.02 
L 189.216 140.483577 
L 189.135475 140.4 
L 187.596578 138.78 
L 187.488 138.663329 
L 186.041896 137.16 
L 185.76 136.857067 
L 184.492749 135.54 
L 184.032 135.044728 
L 182.949573 133.92 
L 182.304 133.225861 
L 181.412894 132.3 
L 180.576 131.400091 
L 179.882774 130.68 
L 178.848 129.566914 
L 178.359823 129.06 
L 177.12 127.72581 
L 176.844698 127.44 
L 175.392 125.876506 
L 175.337559 125.82 
L 173.792523 124.2 
L 173.664 124.061889 
L 172.238576 122.58 
L 171.936 122.254813 
L 170.690185 120.96 
L 170.208 120.441635 
L 169.147855 119.34 
L 168.48 118.621855 
L 167.612027 117.72 
L 166.752 116.795132 
L 166.08281 116.1 
L 165.024 114.960927 
L 164.560865 114.48 
L 163.296 113.118729 
L 163.046791 112.86 
L 161.568 111.26831 
L 161.540725 111.24 
L 159.989282 109.62 
L 159.84 109.45957 
L 158.436099 108 
L 158.112 107.651649 
L 156.888495 106.38 
L 156.384 105.837599 
L 155.347044 104.76 
L 154.656 104.016872 
L 153.812099 103.14 
L 152.928 102.189159 
L 152.283821 101.52 
L 151.2 100.353883 
L 150.762922 99.9 
L 149.472 98.510571 
L 149.24992 98.28 
L 147.744727 96.66 
L 147.744 96.659219 
L 146.186866 95.04 
L 146.016 94.856363 
L 144.634475 93.42 
L 144.288 93.047565 
L 143.08769 91.8 
L 142.56 91.232606 
L 141.547151 90.18 
L 140.832 89.410899 
L 140.013122 88.56 
L 139.104 87.582159 
L 138.48582 86.94 
L 137.376 85.74577 
L 136.966008 85.32 
L 135.648 83.90132 
L 135.454099 83.7 
L 133.942355 82.08 
L 133.92 82.055976 
L 132.385284 80.46 
L 132.192 80.252256 
L 130.833715 78.84 
L 130.464 78.442546 
L 129.287783 77.22 
L 128.736 76.626645 
L 127.748189 75.6 
L 127.008 74.803923 
L 126.215109 73.98 
L 125.28 72.974116 
L 124.688821 72.36 
L 123.552 71.136571 
L 123.170138 70.74 
L 121.824 69.290944 
L 121.659361 69.12 
L 120.140799 67.5 
L 120.096 67.451851 
L 118.58455 65.88 
L 118.368 65.647235 
L 117.033812 64.26 
L 116.64 63.8366 
L 115.488782 62.64 
L 114.912 62.019702 
L 113.950171 61.02 
L 113.184 60.195929 
L 112.418073 59.4 
L 111.456 58.364993 
L 110.892863 57.78 
L 109.728 56.52627 
L 109.375326 56.16 
L 108 54.679425 
L 107.865721 54.54 
L 106.340071 52.92 
L 106.272 52.84683 
L 104.784675 51.3 
L 104.544 51.041288 
L 103.234792 49.68 
L 102.816 49.229701 
L 101.690713 48.06 
L 101.088 47.411753 
L 100.15311 46.44 
L 99.36 45.586903 
L 98.622029 44.82 
L 97.632 43.754795 
L 97.097938 43.2 
L 95.904 43.2 
L 94.176 43.2 
L 92.448 43.2 
L 90.72 43.2 
L 88.992 43.2 
L 87.264 43.2 
L 85.536 43.2 
L 83.808 43.2 
L 82.08 43.2 
L 80.352 43.2 
L 78.624 43.2 
L 76.896 43.2 
L 76.065764 43.2 
L 76.896 44.080464 
L 77.59852 44.82 
L 78.624 45.907806 
L 79.130093 46.44 
L 80.352 47.73586 
L 80.660261 48.06 
L 82.08 49.565076 
L 82.189289 49.68 
L 83.722234 51.3 
L 83.808 51.390861 
L 85.260838 52.92 
L 85.536 53.211584 
L 86.798069 54.54 
L 87.264 55.033865 
L 88.333844 56.16 
L 88.992 56.857793 
L 89.868077 57.78 
L 90.72 58.683464 
L 91.400725 59.4 
L 92.448 60.510934 
L 92.93215 61.02 
L 94.176 62.33895 
L 94.462308 62.64 
L 95.904 64.168354 
L 95.991155 64.26 
L 97.525392 65.88 
L 97.632 65.992942 
L 99.06389 67.5 
L 99.36 67.813783 
L 100.601006 69.12 
L 101.088 69.636191 
L 102.136659 70.74 
L 102.816 71.460254 
L 103.670759 72.36 
L 104.544 73.286071 
L 105.203323 73.98 
L 106.272 75.113651 
L 106.734576 75.6 
L 108 76.941646 
L 108.264729 77.22 
L 109.728 78.771235 
L 109.793396 78.84 
L 111.328913 80.46 
L 111.456 80.594639 
L 112.867306 82.08 
L 113.184 82.415595 
L 114.40431 83.7 
L 114.912 84.238127 
L 115.939842 85.32 
L 116.64 86.062325 
L 117.473812 86.94 
L 118.368 87.888284 
L 119.006306 88.56 
L 120.096 89.715958 
L 120.537374 90.18 
L 121.824 91.543949 
L 122.067524 91.8 
L 123.552 93.37372 
L 123.596014 93.42 
L 125.132796 95.04 
L 125.28 95.19595 
L 126.671087 96.66 
L 127.008 97.017021 
L 128.207981 98.28 
L 128.736 98.839675 
L 129.743394 99.9 
L 130.464 100.664003 
L 131.277237 101.52 
L 132.192 102.490103 
L 132.80967 103.14 
L 133.92 104.317837 
L 134.340568 104.76 
L 135.648 106.145857 
L 135.870693 106.38 
L 137.376 107.975807 
L 137.399009 108 
L 138.937043 109.62 
L 139.104 109.796876 
L 140.475234 111.24 
L 140.832 111.618058 
L 142.012019 112.86 
L 142.56 113.440832 
L 143.547316 114.48 
L 144.288 115.265289 
L 145.081033 116.1 
L 146.016 117.091527 
L 146.613403 117.72 
L 147.744 118.919289 
L 148.144169 119.34 
L 149.472 120.747368 
L 149.674238 120.96 
L 151.2 122.577494 
L 151.202383 122.58 
L 152.741655 124.2 
L 152.928 124.397416 
L 154.279747 125.82 
L 154.656 126.218707 
L 155.816426 127.44 
L 156.384 128.041598 
L 157.351608 129.06 
L 158.112 129.866181 
L 158.885203 130.68 
L 159.84 131.692555 
L 160.417504 132.3 
L 161.568 133.520306 
L 161.948185 133.92 
L 163.296 135.348482 
L 163.47816 135.54 
L 165.007295 137.16 
L 165.024 137.177693 
L 166.546631 138.78 
L 166.752 138.997569 
L 168.084627 140.4 
L 168.48 140.818967 
L 169.621202 142.02 
L 170.208 142.641973 
L 171.156273 143.64 
L 171.936 144.466679 
L 172.689747 145.26 
L 173.664 146.293186 
L 174.221976 146.88 
L 175.392 148.1209 
L 175.752603 148.5 
L 177.12 149.949198 
L 177.28246 150.12 
L 178.812725 151.74 
L 178.848 151.777361 
L 180.351974 153.36 
L 180.576 153.597335 
L 181.889875 154.98 
L 182.304 155.418837 
L 183.426349 156.6 
L 184.032 157.241955 
L 184.961309 158.22 
L 185.76 159.066782 
L 186.494665 159.84 
L 187.488 160.893418 
L 188.026819 161.46 
L 189.216 162.721074 
L 189.55742 163.08 
L 190.944 164.549515 
L 191.087139 164.7 
L 192.618519 166.32 
L 192.672 166.376643 
L 194.157683 167.94 
L 194.4 168.196711 
L 195.695492 169.56 
L 196.128 170.018316 
L 197.231866 171.18 
L 197.856 171.841543 
L 198.766719 172.8 
L 199.584 173.666489 
L 200.299964 174.42 
L 201.312 175.493247 
L 201.832033 176.04 
L 203.04 177.320839 
L 203.362627 177.66 
L 204.768 179.149431 
L 204.892198 179.28 
L 206.424679 180.9 
L 206.496 180.975539 
L 207.963758 182.52 
L 208.224 182.795699 
L 209.501477 184.14 
L 209.952 184.617403 
L 211.037754 185.76 
L 211.68 186.440738 
L 212.572502 187.38 
L 213.408 188.265798 
L 214.105653 189 
L 215.136 190.092666 
L 215.637622 190.62 
L 216.864 191.920205 
L 217.168212 192.24 
L 218.592 193.748946 
L 218.697639 193.86 
L 220.231204 195.48 
L 220.32 195.574047 
L 221.770202 197.1 
L 222.048 197.394297 
L 223.307833 198.72 
L 223.776 199.216097 
L 224.844015 200.34 
L 225.504 201.039537 
L 226.37866 201.96 
L 227.232 202.86471 
L 227.911733 203.58 
L 228.96 204.691671 
L 229.443585 205.2 
L 230.688 206.519173 
L 230.974175 206.82 
L 232.416 208.348058 
L 232.503461 208.44 
L 234.038095 210.06 
L 234.144 210.172166 
L 235.577014 211.68 
L 235.872 211.992504 
L 237.114559 213.3 
L 237.6 213.814399 
L 238.650648 214.92 
L 239.328 215.63794 
L 240.185194 216.54 
L 241.056 217.463223 
L 241.718205 218.16 
L 242.784 219.290264 
L 243.249924 219.78 
L 244.512 221.11774 
L 244.780519 221.4 
L 246.24 222.946766 
L 246.309666 223.02 
L 247.845353 224.64 
L 247.968 224.769897 
L 249.384195 226.26 
L 249.696 226.59032 
L 250.921657 227.88 
L 251.424 228.412307 
L 252.457656 229.5 
L 253.152 230.235947 
L 253.992103 231.12 
L 254.88 232.061337 
L 255.525065 232.74 
L 256.608 233.888447 
L 257.05664 234.36 
L 258.336 235.715906 
L 258.587243 235.98 
L 260.064 237.54507 
L 260.116255 237.6 
L 261.652979 239.22 
L 261.792 239.367239 
L 263.191746 240.84 
L 263.52 241.187744 
L 264.729127 242.46 
L 265.248 243.009819 
L 266.265038 244.08 
L 266.976 244.833556 
L 267.79939 245.7 
L 268.704 246.65905 
L 269.332308 247.32 
L 270.432 248.486212 
L 270.863749 248.94 
L 272.16 250.31367 
L 272.394349 250.56 
L 273.888 252.142968 
L 273.923229 252.18 
L 275.460973 253.8 
L 275.616 253.96419 
L 276.999668 255.42 
L 277.344 255.784775 
L 278.536969 257.04 
L 279.072 257.606937 
L 280.072795 258.66 
L 280.8 259.430767 
L 281.607055 260.28 
L 282.528 261.256362 
L 283.139932 261.9 
L 284.256 263.08355 
L 284.671258 263.52 
L 285.984 264.911031 
L 286.201838 265.14 
L 287.712 266.74046 
L 287.730589 266.76 
L 289.269336 268.38 
L 289.44 268.56075 
L 290.80796 270 
L 291.168 270.381412 
L 292.345185 271.62 
L 292.896 272.203658 
L 293.880928 273.24 
L 294.624 274.027579 
L 295.415098 274.86 
L 296.352 275.853272 
L 296.947933 276.48 
L 298.08 277.680469 
L 298.479167 278.1 
L 299.808 279.507987 
L 300.009711 279.72 
L 301.536 281.337544 
L 301.538337 281.34 
L 303.078068 282.96 
L 303.264 283.156918 
L 304.616624 284.58 
L 304.992 284.977655 
L 306.153775 286.2 
L 306.72 286.799982 
L 307.689437 287.82 
L 308.448 288.623991 
L 309.22352 289.44 
L 310.176 290.449779 
L 310.756311 291.06 
L 311.904 292.276964 
L 312.28748 292.68 
L 313.632 294.104539 
L 313.817968 294.3 
L 315.347349 295.92 
L 315.36 295.933396 
L 316.887171 297.54 
L 317.088 297.752694 
L 318.425661 299.16 
L 318.816 299.573503 
L 319.96274 300.78 
L 320.544 301.395908 
L 321.498324 302.4 
L 322.272 303.220002 
L 323.032323 304.02 
L 324 305.045882 
L 324.565068 305.64 
L 325.728 306.873031 
L 326.096201 307.26 
L 327.456 308.700685 
L 327.626611 308.88 
L 329.15688 310.5 
L 329.184 310.528715 
L 330.696644 312.12 
L 330.912 312.348077 
L 332.235071 313.74 
L 332.64 314.168956 
L 333.772081 315.36 
L 334.368 315.991436 
L 335.30759 316.98 
L 336.096 317.815611 
L 336.841506 318.6 
L 337.824 319.64158 
L 338.374205 320.22 
L 339.552 321.46868 
L 339.905319 321.84 
L 341.28 323.296423 
L 341.43564 323.46 
L 342.966781 325.08 
L 343.008 325.123643 
L 344.506489 326.7 
L 344.736 326.943066 
L 346.044854 328.32 
L 346.464 328.764011 
L 347.581798 329.94 
L 348.192 330.586565 
L 349.117234 331.56 
L 349.92 332.410819 
L 350.651072 333.18 
L 351.648 334.236873 
L 352.183722 334.8 
L 353.376 336.063908 
L 353.714837 336.42 
L 355.104 337.891753 
L 355.245057 338.04 
L 356.777051 339.66 
L 356.832 339.718179 
L 358.316706 341.28 
L 358.56 341.537661 
L 359.855012 342.9 
L 360.288 343.35867 
L 361.391892 344.52 
L 362.016 345.181293 
L 362.927258 346.14 
L 363.744 347.005623 
L 364.461024 347.76 
L 365.472 348.831756 
L 365.993622 349.38 
L 367.2 350.658729 
L 367.524742 351 
L 368.928 352.486675 
L 369.054863 352.62 
L 370.587692 354.24 
L 370.656 354.312323 
L 372.127295 355.86 
L 372.384 356.131861 
L 373.665546 357.48 
L 374.112 357.952931 
L 375.202364 359.1 
L 375.84 359.77562 
L 376.737663 360.72 
L 377.568 361.600023 
L 378.271367 362.34 
L 379.296 363.426225 
L 379.803904 363.96 
L 381.024 365.253144 
L 381.335033 365.58 
z
" clip-path="url(#p41a5ca460c)" style="fill: #008000; fill-opacity: 0.6"/>
    <path d="M 410.4 334.866525 
L 410.4 334.8 
L 410.4 333.18 
L 410.4 331.56 
L 410.4 329.94 
L 410.4 328.32 
L 410.4 326.7 
L 410.4 325.08 
L 410.4 323.46 
L 410.4 321.84 
L 410.4 320.22 
L 410.4 318.6 
L 410.4 316.98 
L 410.4 315.36 
L 410.4 313.74 
L 410.4 312.629066 
L 409.915756 312.12 
L 408.672 310.801405 
L 408.3853 310.5 
L 406.944 308.972363 
L 406.856146 308.88 
L 405.321664 307.26 
L 405.216 307.148079 
L 403.782873 305.64 
L 403.488 305.327588 
L 402.245458 304.02 
L 401.76 303.505537 
L 400.709502 302.4 
L 400.032 301.681837 
L 399.175092 300.78 
L 398.304 299.856392 
L 397.642218 299.16 
L 396.576 298.029186 
L 396.110638 297.54 
L 394.848 296.201549 
L 394.58018 295.92 
L 393.12 294.372353 
L 393.051178 294.3 
L 391.515572 292.68 
L 391.392 292.549111 
L 389.976867 291.06 
L 389.664 290.728525 
L 388.439545 289.44 
L 387.936 288.906373 
L 386.903688 287.82 
L 386.208 287.082563 
L 385.369385 286.2 
L 384.48 285.256999 
L 383.836568 284.58 
L 382.752 283.429715 
L 382.305146 282.96 
L 381.024 281.602093 
L 380.774682 281.34 
L 379.296 279.772745 
L 379.245828 279.72 
L 377.709114 278.1 
L 377.568 277.950531 
L 376.170493 276.48 
L 375.84 276.129853 
L 374.633261 274.86 
L 374.112 274.307601 
L 373.097501 273.24 
L 372.384 272.483684 
L 371.563304 271.62 
L 370.656 270.658005 
L 370.030534 270 
L 368.928 268.830667 
L 368.499259 268.38 
L 367.2 267.003036 
L 366.968805 266.76 
L 365.472 265.17354 
L 365.440095 265.14 
L 363.90229 263.52 
L 363.744 263.35234 
L 362.363749 261.9 
L 362.016 261.531572 
L 360.826605 260.28 
L 360.288 259.709223 
L 359.290941 258.66 
L 358.56 257.885202 
L 357.756846 257.04 
L 356.832 256.05941 
L 356.224124 255.42 
L 355.104 254.232045 
L 354.692969 253.8 
L 353.376 252.404381 
L 353.162546 252.18 
L 351.648 250.57474 
L 351.633979 250.56 
L 350.095098 248.94 
L 349.92 248.754538 
L 348.556636 247.32 
L 348.192 246.933683 
L 347.019578 245.7 
L 346.464 245.11124 
L 345.484006 244.08 
L 344.736 243.287117 
L 343.950012 242.46 
L 343.008 241.461216 
L 342.417339 240.84 
L 341.28 239.633842 
L 340.886281 239.22 
L 339.552 237.806127 
L 339.355906 237.6 
L 337.827252 235.98 
L 337.824 235.976556 
L 336.287537 234.36 
L 336.096 234.157126 
L 334.749153 232.74 
L 334.368 232.336187 
L 333.212178 231.12 
L 332.64 230.513652 
L 331.676697 229.5 
L 330.912 228.68943 
L 330.1428 227.88 
L 329.184 226.863423 
L 328.61018 226.26 
L 327.456 225.036071 
L 327.079181 224.64 
L 325.728 223.208277 
L 325.548883 223.02 
L 324.019254 221.4 
L 324 221.379611 
L 322.479608 219.78 
L 322.272 219.560105 
L 320.941299 218.16 
L 320.544 217.739084 
L 319.404405 216.54 
L 318.816 215.916461 
L 317.869011 214.92 
L 317.088 214.092143 
L 316.335209 213.3 
L 315.36 212.266031 
L 314.802644 211.68 
L 313.632 210.438723 
L 313.271677 210.06 
L 311.904 208.61083 
L 311.741477 208.44 
L 310.210889 206.82 
L 310.176 206.783055 
L 308.67131 205.2 
L 308.448 204.963476 
L 307.133072 203.58 
L 306.72 203.142375 
L 305.596257 201.96 
L 304.992 201.319666 
L 304.060949 200.34 
L 303.264 199.495255 
L 302.527239 198.72 
L 301.536 197.669043 
L 300.99473 197.1 
L 299.808 195.841791 
L 299.463779 195.48 
L 298.08 194.013789 
L 297.933686 193.86 
L 296.402156 192.24 
L 296.352 192.186889 
L 294.862641 190.62 
L 294.624 190.36724 
L 293.324474 189 
L 292.896 188.546062 
L 291.787735 187.38 
L 291.168 186.723269 
L 290.252509 185.76 
L 289.44 184.898768 
L 288.718886 184.14 
L 287.712 183.072461 
L 287.186438 182.52 
L 285.984 181.245273 
L 285.655487 180.9 
L 284.256 179.417154 
L 284.125509 179.28 
L 282.593055 177.66 
L 282.528 177.591114 
L 281.053602 176.04 
L 280.8 175.771396 
L 279.515503 174.42 
L 279.072 173.950144 
L 277.978837 172.8 
L 277.344 172.127271 
L 276.443692 171.18 
L 275.616 170.302682 
L 274.910144 169.56 
L 273.888 168.47629 
L 273.377766 167.94 
L 272.16 166.649158 
L 271.846812 166.32 
L 270.432 164.820925 
L 270.316947 164.7 
L 268.783584 163.08 
L 268.704 162.995729 
L 267.244191 161.46 
L 266.976 161.175946 
L 265.706157 159.84 
L 265.248 159.354622 
L 264.169563 158.22 
L 263.52 157.531672 
L 262.634495 156.6 
L 261.792 155.706999 
L 261.10101 154.98 
L 260.064 153.880534 
L 259.568714 153.36 
L 258.336 152.053448 
L 258.037752 151.74 
L 256.608 150.225105 
L 256.507996 150.12 
L 254.973744 148.5 
L 254.88 148.400737 
L 253.434409 146.88 
L 253.152 146.58089 
L 251.896438 145.26 
L 251.424 144.759498 
L 250.359912 143.64 
L 249.696 142.936473 
L 248.824919 142.02 
L 247.968 141.111719 
L 247.291487 140.4 
L 246.24 139.28519 
L 245.75928 138.78 
L 244.512 137.458143 
L 244.228308 137.16 
L 242.784 135.629694 
L 242.698657 135.54 
L 241.163533 133.92 
L 241.056 133.806136 
L 239.624253 132.3 
L 239.328 131.98623 
L 238.086343 130.68 
L 237.6 130.164772 
L 236.549883 129.06 
L 235.872 128.341675 
L 235.014962 127.44 
L 234.144 126.516843 
L 233.481572 125.82 
L 232.416 124.690259 
L 231.949463 124.2 
L 230.688 122.863245 
L 230.418478 122.58 
L 228.96 121.034692 
L 228.888929 120.96 
L 227.352952 119.34 
L 227.232 119.211929 
L 225.813725 117.72 
L 225.504 117.391965 
L 224.275872 116.1 
L 223.776 115.570444 
L 222.739476 114.48 
L 222.048 113.747278 
L 221.204624 112.86 
L 220.32 111.922372 
L 219.671265 111.24 
L 218.592 110.095743 
L 218.139262 109.62 
L 216.864 108.268753 
L 216.608261 108 
L 215.136 106.440102 
L 215.078811 106.38 
L 213.541999 104.76 
L 213.408 104.618116 
L 212.002822 103.14 
L 211.68 102.798097 
L 210.465025 101.52 
L 209.952 100.976516 
L 208.92869 99.9 
L 208.224 99.153284 
L 207.393904 98.28 
L 206.496 97.328306 
L 205.860573 96.66 
L 204.768 95.501643 
L 204.328667 95.04 
L 203.04 93.67467 
L 202.797656 93.42 
L 201.312 91.845924 
L 201.268301 91.8 
L 199.730673 90.18 
L 199.584 90.024697 
L 198.191545 88.56 
L 197.856 88.204626 
L 196.653801 86.94 
L 196.128 86.382988 
L 195.117524 85.32 
L 194.4 84.559693 
L 193.582802 83.7 
L 192.672 82.734647 
L 192.049492 82.08 
L 190.944 80.907963 
L 190.517678 80.46 
L 189.216 79.080995 
L 188.986663 78.84 
L 187.488 77.252158 
L 187.457399 77.22 
L 185.918975 75.6 
L 185.76 75.431674 
L 184.379893 73.98 
L 184.032 73.611553 
L 182.842199 72.36 
L 182.304 71.78986 
L 181.305978 70.74 
L 180.576 69.966507 
L 179.771316 69.12 
L 178.848 68.141395 
L 178.238027 67.5 
L 177.12 66.314707 
L 176.706287 65.88 
L 175.392 64.48773 
L 175.175281 64.26 
L 173.664 62.658806 
L 173.646104 62.64 
L 172.106903 61.02 
L 171.936 60.839046 
L 170.567864 59.4 
L 170.208 59.018878 
L 169.030219 57.78 
L 168.48 57.197135 
L 167.49405 56.16 
L 166.752 55.373724 
L 165.959446 54.54 
L 165.024 53.548551 
L 164.426179 52.92 
L 163.296 51.721867 
L 162.894499 51.3 
L 161.568 49.894876 
L 161.363508 49.68 
L 159.84 48.065869 
L 159.834415 48.06 
L 158.294458 46.44 
L 158.112 46.246815 
L 156.755459 44.82 
L 156.384 44.426603 
L 155.217859 43.2 
L 154.656 43.2 
L 152.928 43.2 
L 151.2 43.2 
L 149.472 43.2 
L 147.744 43.2 
L 146.016 43.2 
L 144.288 43.2 
L 142.56 43.2 
L 140.832 43.2 
L 139.104 43.2 
L 137.376 43.2 
L 135.648 43.2 
L 134.159115 43.2 
L 135.648 44.80005 
L 135.667239 44.82 
L 137.22231 46.44 
L 137.376 46.604891 
L 138.777126 48.06 
L 139.104 48.410758 
L 140.326497 49.68 
L 140.832 50.222602 
L 141.86986 51.3 
L 142.56 52.040963 
L 143.40687 52.92 
L 144.288 53.866139 
L 144.937372 54.54 
L 146.016 55.69869 
L 146.460683 56.16 
L 147.744 57.539091 
L 147.976271 57.78 
L 149.472 59.387556 
L 149.484 59.4 
L 151.040741 61.02 
L 151.2 61.190882 
L 152.595311 62.64 
L 152.928 62.997033 
L 154.14442 64.26 
L 154.656 64.809179 
L 155.687486 65.88 
L 156.384 66.627874 
L 157.224186 67.5 
L 158.112 68.453408 
L 158.754352 69.12 
L 159.84 70.286352 
L 160.277284 70.74 
L 161.568 72.127167 
L 161.792478 72.36 
L 163.296 73.976087 
L 163.299773 73.98 
L 164.858423 75.6 
L 165.024 75.777678 
L 166.412723 77.22 
L 166.752 77.58414 
L 167.961543 78.84 
L 168.48 79.396617 
L 169.504283 80.46 
L 170.208 81.215677 
L 171.040644 82.08 
L 171.936 83.0416 
L 172.570444 83.7 
L 173.664 84.874971 
L 174.092964 85.32 
L 175.392 86.716234 
L 175.607731 86.94 
L 177.11599 88.56 
L 177.12 88.564303 
L 178.675355 90.18 
L 178.848 90.365279 
L 180.229358 91.8 
L 180.576 92.172081 
L 181.777864 93.42 
L 182.304 93.984918 
L 183.320248 95.04 
L 184.032 95.804372 
L 184.856242 96.66 
L 185.76 97.630717 
L 186.385645 98.28 
L 187.488 99.464549 
L 187.907719 99.9 
L 189.216 101.306294 
L 189.422026 101.52 
L 190.932473 103.14 
L 190.944 103.15237 
L 192.491536 104.76 
L 192.672 104.953689 
L 194.045215 106.38 
L 194.4 106.760859 
L 195.59338 108 
L 196.128 108.574084 
L 197.135379 109.62 
L 197.856 110.393965 
L 198.670977 111.24 
L 199.584 112.220763 
L 200.199952 112.86 
L 201.312 114.055091 
L 201.721546 114.48 
L 203.04 115.897352 
L 203.23536 116.1 
L 204.748228 117.72 
L 204.768 117.74122 
L 206.306961 119.34 
L 206.496 119.542909 
L 207.860292 120.96 
L 208.224 121.350476 
L 209.408088 122.58 
L 209.952 123.16412 
L 210.949673 124.2 
L 211.68 124.984456 
L 212.484846 125.82 
L 213.408 126.81174 
L 214.013362 127.44 
L 215.136 128.646599 
L 215.534441 129.06 
L 216.864 130.489413 
L 217.047728 130.68 
L 218.563251 132.3 
L 218.592 132.330857 
L 220.12163 133.92 
L 220.32 134.132944 
L 221.674586 135.54 
L 222.048 135.940936 
L 223.221986 137.16 
L 223.776 137.755028 
L 224.763126 138.78 
L 225.504 139.575852 
L 226.297846 140.4 
L 227.232 141.403651 
L 227.825873 142.02 
L 228.96 143.23908 
L 229.3464 143.64 
L 230.688 145.08248 
L 230.859126 145.26 
L 232.37754 146.88 
L 232.416 146.921284 
L 233.935538 148.5 
L 234.144 148.723796 
L 235.488102 150.12 
L 235.872 150.532233 
L 237.035069 151.74 
L 237.6 152.346813 
L 238.575735 153.36 
L 239.328 154.168155 
L 240.109971 154.98 
L 241.056 155.996517 
L 241.637465 156.6 
L 242.784 157.832538 
L 243.157418 158.22 
L 244.512 159.676561 
L 244.669549 159.84 
L 246.191092 161.46 
L 246.24 161.512506 
L 247.748683 163.08 
L 247.968 163.31547 
L 249.30083 164.7 
L 249.696 165.124379 
L 250.847335 166.32 
L 251.424 166.939477 
L 252.387495 167.94 
L 253.152 168.761372 
L 253.921217 169.56 
L 254.88 170.59033 
L 255.448145 171.18 
L 256.608 172.42698 
L 256.96749 172.8 
L 258.336 174.27166 
L 258.47899 174.42 
L 260.003901 176.04 
L 260.064 176.104525 
L 261.561058 177.66 
L 261.792 177.907971 
L 263.112764 179.28 
L 263.52 179.71738 
L 264.658779 180.9 
L 265.248 181.533028 
L 266.198401 182.52 
L 266.976 183.355507 
L 267.73158 184.14 
L 268.704 185.185096 
L 269.257907 185.76 
L 270.432 187.02241 
L 270.776608 187.38 
L 272.16 188.867785 
L 272.287443 189 
L 273.815965 190.62 
L 273.888 190.697348 
L 275.372661 192.24 
L 275.616 192.501304 
L 276.923898 193.86 
L 277.344 194.311243 
L 278.469379 195.48 
L 279.072 196.127486 
L 280.008448 197.1 
L 280.8 197.950567 
L 281.541053 198.72 
L 282.528 199.780823 
L 283.066745 200.34 
L 284.256 201.618838 
L 284.584767 201.96 
L 285.984 203.464943 
L 286.094901 203.58 
L 287.627278 205.2 
L 287.712 205.29098 
L 289.183489 206.82 
L 289.44 207.095474 
L 290.734227 208.44 
L 291.168 208.905972 
L 292.279145 210.06 
L 292.896 210.722844 
L 293.817629 211.68 
L 294.624 212.546558 
L 295.349629 213.3 
L 296.352 214.377517 
L 296.874652 214.92 
L 298.08 216.21627 
L 298.391959 216.54 
L 299.808 218.063142 
L 299.901356 218.16 
L 301.437834 219.78 
L 301.536 219.885424 
L 302.993535 221.4 
L 303.264 221.690488 
L 304.543746 223.02 
L 304.992 223.501576 
L 306.08807 224.64 
L 306.72 225.319108 
L 307.625939 226.26 
L 308.448 227.143487 
L 309.157309 227.88 
L 310.176 228.97518 
L 310.68162 229.5 
L 311.904 230.814714 
L 312.198177 231.12 
L 313.632 232.662392 
L 313.706801 232.74 
L 315.247629 234.36 
L 315.36 234.48069 
L 316.802792 235.98 
L 317.088 236.286352 
L 318.352447 237.6 
L 318.816 238.09806 
L 319.896147 239.22 
L 320.544 239.916276 
L 321.43338 240.84 
L 322.272 241.741363 
L 322.964082 242.46 
L 324 243.573825 
L 324.487643 244.08 
L 325.728 245.41418 
L 326.003411 245.7 
L 327.456 247.262701 
L 327.511225 247.32 
L 329.056654 248.94 
L 329.184 249.076783 
L 330.611253 250.56 
L 330.912 250.883073 
L 332.160324 252.18 
L 332.64 252.695434 
L 333.703369 253.8 
L 334.368 254.514361 
L 335.23994 255.42 
L 336.096 256.340193 
L 336.769937 257.04 
L 337.824 258.173461 
L 338.29271 258.66 
L 339.552 260.014677 
L 339.807652 260.28 
L 341.28 261.864079 
L 341.31462 261.9 
L 342.864905 263.52 
L 343.008 263.673711 
L 344.418912 265.14 
L 344.736 265.48066 
L 345.96737 266.76 
L 346.464 267.293704 
L 347.509728 268.38 
L 348.192 269.113375 
L 349.045606 270 
L 349.92 270.939988 
L 350.574864 271.62 
L 351.648 272.7741 
L 352.096814 273.24 
L 353.376 274.616212 
L 353.610895 274.86 
L 355.104 276.466537 
L 355.116975 276.48 
L 356.672373 278.1 
L 356.832 278.271482 
L 358.225761 279.72 
L 358.56 280.079121 
L 359.773576 281.34 
L 360.288 281.892879 
L 361.315217 282.96 
L 362.016 283.713328 
L 362.85037 284.58 
L 363.744 285.540755 
L 364.378856 286.2 
L 365.472 287.375751 
L 365.899943 287.82 
L 367.2 289.218772 
L 367.413152 289.44 
L 368.920848 291.06 
L 368.928 291.067682 
L 370.479051 292.68 
L 370.656 292.870104 
L 372.031791 294.3 
L 372.384 294.678464 
L 373.578934 295.92 
L 374.112 296.49297 
L 375.119826 297.54 
L 375.84 298.314228 
L 376.654223 299.16 
L 377.568 300.142505 
L 378.181902 300.78 
L 379.296 301.978425 
L 379.702088 302.4 
L 381.024 303.822392 
L 381.214389 304.02 
L 382.727377 305.64 
L 382.752 305.666453 
L 384.284931 307.26 
L 384.48 307.469587 
L 385.836995 308.88 
L 386.208 309.278698 
L 387.383435 310.5 
L 387.936 311.093986 
L 388.923545 312.12 
L 389.664 312.916085 
L 390.457156 313.74 
L 391.392 314.745249 
L 391.983992 315.36 
L 393.12 316.582134 
L 393.503238 316.98 
L 394.848 318.427085 
L 395.014593 318.6 
L 396.533126 320.22 
L 396.576 320.266064 
L 398.090004 321.84 
L 398.304 322.069939 
L 399.641381 323.46 
L 400.032 323.879817 
L 401.18707 325.08 
L 401.76 325.695937 
L 402.726366 326.7 
L 403.488 327.518912 
L 404.259157 328.32 
L 405.216 329.349019 
L 405.785094 329.94 
L 406.944 331.186889 
L 407.303381 331.56 
L 408.672 333.032864 
L 408.813753 333.18 
L 410.338088 334.8 
z
" clip-path="url(#p41a5ca460c)" style="fill: #008000; fill-opacity: 0.6"/>
   </g>
   <g id="matplotlib.axis_1">
    <g id="xtick_1">
     <g id="line2d_1">
      <defs>
       <path id="m0b58adca09" d="M 0 0 
L 0 3.5 
" style="stroke: #000000; stroke-width: 0.8"/>
      </defs>
      <g>
       <use xlink:href="#m0b58adca09" x="64.8" y="367.2" style="stroke: #000000; stroke-width: 0.8"/>
      </g>
     </g>
     <g id="text_1">
      <!-- -1.0 -->
      <g transform="translate(49.705953 388.036997)scale(0.2 -0.2)">
       <defs>
        <path id="CMSS17-2d" d="M 1664 1216 
L 1664 1587 
L 64 1587 
L 64 1216 
L 1664 1216 
z
" transform="scale(0.015625)"/>
        <path id="CMSS17-31" d="M 1818 4288 
L 1696 4288 
C 1350 3949 947 3902 538 3891 
L 538 3520 
C 723 3526 1024 3539 1325 3673 
L 1325 371 
L 570 371 
L 570 0 
L 2573 0 
L 2573 371 
L 1818 371 
L 1818 4288 
z
" transform="scale(0.015625)"/>
        <path id="CMSS17-2e" d="M 1088 512 
L 576 512 
L 576 0 
L 1088 0 
L 1088 512 
z
" transform="scale(0.015625)"/>
        <path id="CMSS17-30" d="M 2758 2073 
C 2758 2439 2752 3120 2490 3647 
C 2227 4153 1805 4288 1504 4288 
C 1069 4288 698 4031 506 3621 
C 301 3191 243 2748 243 2073 
C 243 1611 262 1046 493 551 
C 755 6 1197 -128 1498 -128 
C 1894 -128 2278 83 2496 525 
C 2720 988 2758 1495 2758 2073 
z
M 1498 262 
C 1011 262 864 821 819 1007 
C 742 1328 730 1636 730 2144 
C 730 2542 730 2992 851 3345 
C 998 3756 1254 3897 1498 3897 
C 1971 3897 2125 3422 2176 3255 
C 2272 2915 2272 2516 2272 2144 
C 2272 1546 2272 262 1498 262 
z
" transform="scale(0.015625)"/>
       </defs>
       <use xlink:href="#CMSS17-2d" transform="scale(0.996264)"/>
       <use xlink:href="#CMSS17-31" transform="translate(31.229113 0)scale(0.996264)"/>
       <use xlink:href="#CMSS17-2e" transform="translate(78.072736 0)scale(0.996264)"/>
       <use xlink:href="#CMSS17-30" transform="translate(104.096941 0)scale(0.996264)"/>
      </g>
     </g>
    </g>
    <g id="xtick_2">
     <g id="line2d_2">
      <g>
       <use xlink:href="#m0b58adca09" x="151.2" y="367.2" style="stroke: #000000; stroke-width: 0.8"/>
      </g>
     </g>
     <g id="text_2">
      <!-- -0.5 -->
      <g transform="translate(136.105953 388.036997)scale(0.2 -0.2)">
       <defs>
        <path id="CMSS17-35" d="M 934 3814 
L 2502 3814 
L 2502 4224 
L 467 4224 
L 467 1830 
L 896 1830 
C 1011 2103 1248 2304 1555 2304 
C 1843 2304 2163 2044 2163 1299 
C 2163 502 1709 268 1376 268 
C 966 268 589 521 422 871 
L 218 508 
C 512 51 992 -128 1376 -128 
C 2118 -128 2701 508 2701 1286 
C 2701 2083 2182 2694 1562 2694 
C 1338 2694 1120 2617 934 2464 
L 934 3814 
z
" transform="scale(0.015625)"/>
       </defs>
       <use xlink:href="#CMSS17-2d" transform="scale(0.996264)"/>
       <use xlink:href="#CMSS17-30" transform="translate(31.229113 0)scale(0.996264)"/>
       <use xlink:href="#CMSS17-2e" transform="translate(78.072736 0)scale(0.996264)"/>
       <use xlink:href="#CMSS17-35" transform="translate(104.096941 0)scale(0.996264)"/>
      </g>
     </g>
    </g>
    <g id="xtick_3">
     <g id="line2d_3">
      <g>
       <use xlink:href="#m0b58adca09" x="237.6" y="367.2" style="stroke: #000000; stroke-width: 0.8"/>
      </g>
     </g>
     <g id="text_3">
      <!-- 0.0 -->
      <g transform="translate(225.628862 388.036997)scale(0.2 -0.2)">
       <use xlink:href="#CMSS17-30" transform="scale(0.996264)"/>
       <use xlink:href="#CMSS17-2e" transform="translate(46.843624 0)scale(0.996264)"/>
       <use xlink:href="#CMSS17-30" transform="translate(72.867828 0)scale(0.996264)"/>
      </g>
     </g>
    </g>
    <g id="xtick_4">
     <g id="line2d_4">
      <g>
       <use xlink:href="#m0b58adca09" x="324" y="367.2" style="stroke: #000000; stroke-width: 0.8"/>
      </g>
     </g>
     <g id="text_4">
      <!-- 0.5 -->
      <g transform="translate(312.028862 388.036997)scale(0.2 -0.2)">
       <use xlink:href="#CMSS17-30" transform="scale(0.996264)"/>
       <use xlink:href="#CMSS17-2e" transform="translate(46.843624 0)scale(0.996264)"/>
       <use xlink:href="#CMSS17-35" transform="translate(72.867828 0)scale(0.996264)"/>
      </g>
     </g>
    </g>
    <g id="xtick_5">
     <g id="line2d_5">
      <g>
       <use xlink:href="#m0b58adca09" x="410.4" y="367.2" style="stroke: #000000; stroke-width: 0.8"/>
      </g>
     </g>
     <g id="text_5">
      <!-- 1.0 -->
      <g transform="translate(398.428862 388.036997)scale(0.2 -0.2)">
       <use xlink:href="#CMSS17-31" transform="scale(0.996264)"/>
       <use xlink:href="#CMSS17-2e" transform="translate(46.843624 0)scale(0.996264)"/>
       <use xlink:href="#CMSS17-30" transform="translate(72.867828 0)scale(0.996264)"/>
      </g>
     </g>
    </g>
    <g id="text_6">
     <!-- $\epsilon_{ee}^{dV}$ -->
     <g transform="translate(226.132034 412.829204)scale(0.2 -0.2)">
      <defs>
       <path id="CMMI12-f" d="M 1862 1472 
C 1958 1472 2067 1472 2067 1574 
C 2067 1657 2003 1657 1888 1657 
L 851 1657 
C 1011 2224 1389 2566 1958 2566 
L 2144 2566 
C 2253 2566 2349 2566 2349 2668 
C 2349 2752 2278 2752 2163 2752 
L 1946 2752 
C 1158 2752 294 2136 294 1141 
C 294 420 774 -64 1408 -64 
C 1818 -64 2221 193 2221 258 
C 2221 297 2202 336 2163 336 
C 2144 336 2131 330 2099 304 
C 1856 141 1619 64 1427 64 
C 1088 64 730 291 730 920 
C 730 1043 742 1212 800 1472 
L 1862 1472 
z
" transform="scale(0.015625)"/>
       <path id="CMMI12-64" d="M 3219 4255 
C 3226 4281 3238 4319 3238 4351 
C 3238 4416 3174 4416 3162 4416 
C 3155 4416 2842 4390 2810 4383 
C 2701 4377 2605 4364 2490 4358 
C 2330 4345 2285 4339 2285 4223 
C 2285 4159 2336 4159 2426 4159 
C 2739 4159 2746 4103 2746 4040 
C 2746 4002 2733 3951 2726 3932 
L 2336 2394 
C 2266 2560 2093 2816 1760 2816 
C 1037 2816 256 1883 256 938 
C 256 306 627 -64 1062 -64 
C 1414 -64 1715 210 1894 421 
C 1958 44 2259 -64 2451 -64 
C 2643 -64 2797 51 2912 281 
C 3014 498 3104 887 3104 913 
C 3104 945 3078 970 3040 970 
C 2982 970 2976 938 2950 842 
C 2854 466 2733 64 2470 64 
C 2285 64 2272 230 2272 357 
C 2272 383 2272 517 2317 696 
L 3219 4255 
z
M 1926 759 
C 1894 651 1894 638 1805 517 
C 1664 338 1382 64 1082 64 
C 819 64 672 300 672 676 
C 672 1028 870 1743 992 2011 
C 1210 2458 1510 2687 1760 2687 
C 2182 2687 2266 2164 2266 2113 
C 2266 2107 2246 2024 2240 2011 
L 1926 759 
z
" transform="scale(0.015625)"/>
       <path id="CMMI12-56" d="M 3962 3644 
C 4179 3987 4378 4140 4704 4166 
C 4768 4172 4819 4172 4819 4287 
C 4819 4313 4806 4352 4749 4352 
C 4634 4352 4358 4339 4243 4339 
C 4058 4339 3866 4352 3686 4352 
C 3635 4352 3571 4352 3571 4230 
C 3571 4172 3629 4166 3654 4166 
C 3891 4146 3917 4032 3917 3956 
C 3917 3860 3827 3714 3821 3708 
L 1811 540 
L 1363 3968 
C 1363 4153 1696 4166 1766 4166 
C 1862 4166 1920 4166 1920 4287 
C 1920 4352 1850 4352 1830 4352 
C 1722 4352 1594 4339 1485 4339 
L 1126 4339 
C 659 4339 467 4352 461 4352 
C 422 4352 346 4352 346 4236 
C 346 4166 390 4166 493 4166 
C 819 4166 838 4108 858 3949 
L 1370 25 
C 1389 -109 1389 -128 1478 -128 
C 1555 -128 1587 -109 1651 -7 
L 3962 3644 
z
" transform="scale(0.015625)"/>
       <path id="CMMI12-65" d="M 1146 1472 
C 1318 1472 1754 1484 2061 1600 
C 2547 1786 2592 2160 2592 2275 
C 2592 2559 2349 2816 1926 2816 
C 1254 2816 288 2205 288 1066 
C 288 400 672 -64 1254 -64 
C 2125 -64 2675 609 2675 691 
C 2675 729 2637 761 2611 761 
C 2592 761 2586 755 2528 698 
C 2118 159 1510 64 1267 64 
C 902 64 710 349 710 818 
C 710 907 710 1066 806 1472 
L 1146 1472 
z
M 838 1600 
C 1114 2591 1722 2687 1926 2687 
C 2208 2687 2400 2520 2400 2275 
C 2400 1600 1376 1600 1107 1600 
L 838 1600 
z
" transform="scale(0.015625)"/>
      </defs>
      <use xlink:href="#CMMI12-f" transform="scale(0.996264)"/>
      <use xlink:href="#CMMI12-64" transform="translate(39.388958 36.153639)scale(0.697382)"/>
      <use xlink:href="#CMMI12-56" transform="translate(74.871165 36.153639)scale(0.697382)"/>
      <use xlink:href="#CMMI12-65" transform="translate(39.388958 -24.62935)scale(0.697382)"/>
      <use xlink:href="#CMMI12-65" transform="translate(71.037215 -24.62935)scale(0.697382)"/>
     </g>
    </g>
   </g>
   <g id="matplotlib.axis_2">
    <g id="ytick_1">
     <g id="line2d_6">
      <defs>
       <path id="mcf636c6742" d="M 0 0 
L -3.5 0 
" style="stroke: #000000; stroke-width: 0.8"/>
      </defs>
      <g>
       <use xlink:href="#mcf636c6742" x="64.8" y="367.2" style="stroke: #000000; stroke-width: 0.8"/>
      </g>
     </g>
     <g id="text_7">
      <!-- -1.0 -->
      <g transform="translate(27.611905 374.118498)scale(0.2 -0.2)">
       <use xlink:href="#CMSS17-2d" transform="scale(0.996264)"/>
       <use xlink:href="#CMSS17-31" transform="translate(31.229113 0)scale(0.996264)"/>
       <use xlink:href="#CMSS17-2e" transform="translate(78.072736 0)scale(0.996264)"/>
       <use xlink:href="#CMSS17-30" transform="translate(104.096941 0)scale(0.996264)"/>
      </g>
     </g>
    </g>
    <g id="ytick_2">
     <g id="line2d_7">
      <g>
       <use xlink:href="#mcf636c6742" x="64.8" y="286.2" style="stroke: #000000; stroke-width: 0.8"/>
      </g>
     </g>
     <g id="text_8">
      <!-- -0.5 -->
      <g transform="translate(27.611905 293.118498)scale(0.2 -0.2)">
       <use xlink:href="#CMSS17-2d" transform="scale(0.996264)"/>
       <use xlink:href="#CMSS17-30" transform="translate(31.229113 0)scale(0.996264)"/>
       <use xlink:href="#CMSS17-2e" transform="translate(78.072736 0)scale(0.996264)"/>
       <use xlink:href="#CMSS17-35" transform="translate(104.096941 0)scale(0.996264)"/>
      </g>
     </g>
    </g>
    <g id="ytick_3">
     <g id="line2d_8">
      <g>
       <use xlink:href="#mcf636c6742" x="64.8" y="205.2" style="stroke: #000000; stroke-width: 0.8"/>
      </g>
     </g>
     <g id="text_9">
      <!-- 0.0 -->
      <g transform="translate(33.857725 212.118498)scale(0.2 -0.2)">
       <use xlink:href="#CMSS17-30" transform="scale(0.996264)"/>
       <use xlink:href="#CMSS17-2e" transform="translate(46.843624 0)scale(0.996264)"/>
       <use xlink:href="#CMSS17-30" transform="translate(72.867828 0)scale(0.996264)"/>
      </g>
     </g>
    </g>
    <g id="ytick_4">
     <g id="line2d_9">
      <g>
       <use xlink:href="#mcf636c6742" x="64.8" y="124.2" style="stroke: #000000; stroke-width: 0.8"/>
      </g>
     </g>
     <g id="text_10">
      <!-- 0.5 -->
      <g transform="translate(33.857725 131.118498)scale(0.2 -0.2)">
       <use xlink:href="#CMSS17-30" transform="scale(0.996264)"/>
       <use xlink:href="#CMSS17-2e" transform="translate(46.843624 0)scale(0.996264)"/>
       <use xlink:href="#CMSS17-35" transform="translate(72.867828 0)scale(0.996264)"/>
      </g>
     </g>
    </g>
    <g id="ytick_5">
     <g id="line2d_10">
      <g>
       <use xlink:href="#mcf636c6742" x="64.8" y="43.2" style="stroke: #000000; stroke-width: 0.8"/>
      </g>
     </g>
     <g id="text_11">
      <!-- 1.0 -->
      <g transform="translate(33.857725 50.118498)scale(0.2 -0.2)">
       <use xlink:href="#CMSS17-31" transform="scale(0.996264)"/>
       <use xlink:href="#CMSS17-2e" transform="translate(46.843624 0)scale(0.996264)"/>
       <use xlink:href="#CMSS17-30" transform="translate(72.867828 0)scale(0.996264)"/>
      </g>
     </g>
    </g>
    <g id="text_12">
     <!-- $\epsilon_{ee}^{uV}$ -->
     <g transform="translate(18.686041 217.006153)rotate(-90)scale(0.2 -0.2)">
      <defs>
       <path id="CMMI12-75" d="M 2182 370 
C 2266 12 2573 -64 2726 -64 
C 2931 -64 3085 70 3187 287 
C 3296 517 3379 893 3379 913 
C 3379 944 3354 970 3315 970 
C 3258 970 3251 938 3226 842 
C 3110 402 2995 64 2739 64 
C 2547 64 2547 274 2547 357 
C 2547 504 2566 568 2630 836 
C 2675 1008 2720 1181 2758 1359 
L 3021 2400 
C 3066 2560 3066 2572 3066 2591 
C 3066 2687 2989 2752 2893 2752 
C 2707 2752 2662 2591 2624 2432 
C 2560 2183 2214 810 2170 587 
C 2163 587 1914 64 1446 64 
C 1114 64 1050 351 1050 587 
C 1050 951 1229 1462 1395 1890 
C 1472 2094 1504 2177 1504 2305 
C 1504 2579 1306 2816 998 2816 
C 410 2816 173 1890 173 1838 
C 173 1813 198 1781 243 1781 
C 301 1781 307 1807 333 1896 
C 486 2445 736 2687 979 2687 
C 1043 2687 1146 2681 1146 2477 
C 1146 2311 1075 2126 979 1883 
C 698 1123 666 881 666 689 
C 666 38 1158 -64 1421 -64 
C 1830 -64 2054 217 2182 370 
z
" transform="scale(0.015625)"/>
      </defs>
      <use xlink:href="#CMMI12-f" transform="scale(0.996264)"/>
      <use xlink:href="#CMMI12-75" transform="translate(39.388958 36.153639)scale(0.697382)"/>
      <use xlink:href="#CMMI12-56" transform="translate(78.253014 36.153639)scale(0.697382)"/>
      <use xlink:href="#CMMI12-65" transform="translate(39.388958 -24.62935)scale(0.697382)"/>
      <use xlink:href="#CMMI12-65" transform="translate(71.037215 -24.62935)scale(0.697382)"/>
     </g>
    </g>
   </g>
   <g id="line2d_11">
    <defs>
     <path id="m14233b7189" d="M -4.5 0 
L 4.5 0 
M 0 4.5 
L 0 -4.5 
" style="stroke: #000000"/>
    </defs>
    <g clip-path="url(#p41a5ca460c)">
     <use xlink:href="#m14233b7189" x="237.6" y="205.2" style="stroke: #000000"/>
    </g>
   </g>
   <g id="patch_3">
    <path d="M 64.8 367.2 
L 64.8 43.2 
" style="fill: none; stroke: #000000; stroke-width: 0.8; stroke-linejoin: miter; stroke-linecap: square"/>
   </g>
   <g id="patch_4">
    <path d="M 410.4 367.2 
L 410.4 43.2 
" style="fill: none; stroke: #000000; stroke-width: 0.8; stroke-linejoin: miter; stroke-linecap: square"/>
   </g>
   <g id="patch_5">
    <path d="M 64.8 367.2 
L 410.4 367.2 
" style="fill: none; stroke: #000000; stroke-width: 0.8; stroke-linejoin: miter; stroke-linecap: square"/>
   </g>
   <g id="patch_6">
    <path d="M 64.8 43.2 
L 410.4 43.2 
" style="fill: none; stroke: #000000; stroke-width: 0.8; stroke-linejoin: miter; stroke-linecap: square"/>
   </g>
   <g id="legend_1">
    <g id="patch_7">
     <path d="M 75.3 359.7 
L 249.080551 359.7 
Q 252.080551 359.7 252.080551 356.7 
L 252.080551 314.850295 
Q 252.080551 311.850295 249.080551 311.850295 
L 75.3 311.850295 
Q 72.3 311.850295 72.3 314.850295 
L 72.3 356.7 
Q 72.3 359.7 75.3 359.7 
z
" style="fill: #ffffff; opacity: 0.8; stroke: #cccccc; stroke-linejoin: miter"/>
    </g>
    <g id="patch_8">
     <path d="M 78.3 329.058265 
L 108.3 329.058265 
L 108.3 318.558265 
L 78.3 318.558265 
z
" style="fill: #0000ff; opacity: 0.2; stroke: #0000ff; stroke-linejoin: miter"/>
    </g>
    <g id="text_13">
     <!-- $\mathrm{COHERENT(2017)}$ -->
     <g transform="translate(120.3 329.058265)scale(0.15 -0.15)">
      <defs>
       <path id="CMR17-43" d="M 3974 4351 
C 3974 4467 3968 4473 3930 4473 
C 3904 4473 3898 4467 3853 4390 
L 3571 3849 
C 3258 4249 2874 4480 2381 4480 
C 1286 4480 294 3507 294 2179 
C 294 837 1286 -128 2387 -128 
C 3366 -128 3974 741 3974 1482 
C 3974 1547 3974 1573 3917 1573 
C 3866 1573 3866 1553 3859 1495 
C 3808 592 3168 38 2477 38 
C 1824 38 781 502 781 2179 
C 781 3862 1843 4313 2464 4313 
C 3187 4313 3712 3681 3834 2785 
C 3846 2707 3846 2695 3904 2695 
C 3974 2695 3974 2707 3974 2824 
L 3974 4351 
z
" transform="scale(0.015625)"/>
       <path id="CMR17-4f" d="M 4307 2166 
C 4307 3488 3366 4480 2304 4480 
C 1216 4480 294 3475 294 2166 
C 294 857 1229 -128 2298 -128 
C 3392 -128 4307 876 4307 2166 
z
M 2304 -13 
C 1574 -13 781 722 781 2250 
C 781 3771 1651 4364 2298 4364 
C 2976 4364 3821 3752 3821 2250 
C 3821 696 3008 -13 2304 -13 
z
" transform="scale(0.015625)"/>
       <path id="CMR17-48" d="M 3590 3898 
C 3590 4185 3661 4185 4102 4185 
L 4102 4352 
C 3917 4339 3578 4339 3379 4339 
C 3181 4339 2842 4339 2656 4352 
L 2656 4185 
C 3098 4185 3168 4185 3168 3898 
L 3168 2342 
L 1261 2342 
L 1261 3898 
C 1261 4185 1331 4185 1773 4185 
L 1773 4352 
C 1587 4339 1248 4339 1050 4339 
C 851 4339 512 4339 326 4352 
L 326 4185 
C 768 4185 838 4185 838 3898 
L 838 452 
C 838 166 768 166 326 166 
L 326 0 
C 512 12 851 12 1050 12 
C 1248 12 1587 12 1773 0 
L 1773 166 
C 1331 166 1261 166 1261 452 
L 1261 2176 
L 3168 2176 
L 3168 452 
C 3168 166 3098 166 2656 166 
L 2656 0 
C 2842 12 3181 12 3379 12 
C 3578 12 3917 12 4102 0 
L 4102 166 
C 3661 166 3590 166 3590 452 
L 3590 3898 
z
" transform="scale(0.015625)"/>
       <path id="CMR17-45" d="M 3885 1614 
L 3770 1614 
C 3629 676 3546 166 2419 166 
L 1530 166 
C 1274 166 1261 198 1261 415 
L 1261 2176 
L 1862 2176 
C 2464 2176 2522 1959 2522 1429 
L 2637 1429 
L 2637 3086 
L 2522 3086 
C 2522 2558 2464 2342 1862 2342 
L 1261 2342 
L 1261 3924 
C 1261 4141 1274 4172 1530 4172 
L 2406 4172 
C 3398 4172 3514 3778 3603 2933 
L 3718 2933 
L 3565 4339 
L 326 4339 
L 326 4172 
C 768 4172 838 4172 838 3886 
L 838 453 
C 838 166 768 166 326 166 
L 326 0 
L 3654 0 
L 3885 1614 
z
" transform="scale(0.015625)"/>
       <path id="CMR17-52" d="M 2509 2156 
C 3117 2278 3629 2689 3629 3203 
C 3629 3806 2950 4352 2054 4352 
L 333 4352 
L 333 4185 
C 774 4185 845 4185 845 3896 
L 845 428 
C 845 140 774 140 333 140 
L 333 -26 
C 518 -13 851 -13 1050 -13 
C 1248 -13 1581 -13 1766 -26 
L 1766 140 
C 1325 140 1254 140 1254 428 
L 1254 2112 
L 2003 2112 
C 2368 2112 2573 1964 2662 1881 
C 2918 1632 2918 1459 2918 1024 
C 2918 595 2918 377 3110 160 
C 3354 -103 3680 -128 3821 -128 
C 4294 -128 4365 403 4365 512 
C 4365 550 4365 595 4307 595 
C 4256 595 4250 556 4250 531 
C 4218 115 4032 -26 3834 -26 
C 3482 -26 3443 377 3405 768 
C 3386 902 3373 998 3360 1139 
C 3322 1459 3270 1926 2509 2156 
z
M 1984 2214 
L 1254 2214 
L 1254 3935 
C 1254 4153 1267 4185 1523 4185 
L 1990 4185 
C 2522 4185 3142 3999 3142 3203 
C 3142 2374 2464 2214 1984 2214 
z
" transform="scale(0.015625)"/>
       <path id="CMR17-4e" d="M 1312 4275 
C 1267 4345 1261 4352 1139 4352 
L 326 4352 
L 326 4185 
L 448 4185 
C 704 4185 819 4153 838 4147 
L 838 624 
C 838 465 838 166 326 166 
L 326 0 
C 474 12 742 12 902 12 
C 1062 12 1331 12 1478 0 
L 1478 166 
C 966 166 966 465 966 624 
L 966 4057 
C 1011 4019 1011 4007 1056 3943 
L 3430 76 
C 3475 0 3494 0 3526 0 
C 3590 0 3590 19 3590 140 
L 3590 3726 
C 3590 3885 3590 4185 4102 4185 
L 4102 4352 
C 3955 4339 3686 4339 3526 4339 
C 3366 4339 3098 4339 2950 4352 
L 2950 4185 
C 3462 4185 3462 3885 3462 3726 
L 3462 777 
L 1312 4275 
z
" transform="scale(0.015625)"/>
       <path id="CMR17-54" d="M 3981 4332 
L 288 4332 
L 179 2924 
L 294 2924 
C 378 3981 467 4166 1453 4166 
C 1568 4166 1754 4166 1805 4159 
C 1926 4140 1926 4064 1926 3917 
L 1926 465 
C 1926 236 1907 166 1376 166 
L 1197 166 
L 1197 0 
C 1504 6 1824 12 2138 12 
C 2451 12 2771 6 3078 0 
L 3078 166 
L 2899 166 
C 2368 166 2349 236 2349 465 
L 2349 3917 
C 2349 4057 2349 4134 2464 4159 
C 2515 4166 2701 4166 2816 4166 
C 3795 4166 3891 3981 3974 2924 
L 4090 2924 
L 3981 4332 
z
" transform="scale(0.015625)"/>
       <path id="CMR17-28" d="M 1958 -1562 
C 1958 -1556 1958 -1543 1939 -1524 
C 1645 -1223 858 -403 858 1596 
C 858 3595 1632 4408 1946 4729 
C 1946 4735 1958 4748 1958 4767 
C 1958 4787 1939 4800 1914 4800 
C 1843 4800 1299 4325 986 3620 
C 666 2909 576 2218 576 1603 
C 576 1141 621 360 1005 -467 
C 1312 -1133 1837 -1600 1914 -1600 
C 1946 -1600 1958 -1588 1958 -1562 
z
" transform="scale(0.015625)"/>
       <path id="CMR17-32" d="M 2669 990 
L 2554 990 
C 2490 537 2438 460 2413 422 
C 2381 371 1920 371 1830 371 
L 602 371 
C 832 620 1280 1073 1824 1596 
C 2214 1966 2669 2400 2669 3033 
C 2669 3788 2067 4224 1395 4224 
C 691 4224 262 3603 262 3027 
C 262 2777 448 2745 525 2745 
C 589 2745 781 2783 781 3007 
C 781 3206 614 3264 525 3264 
C 486 3264 448 3257 422 3244 
C 544 3788 915 4057 1306 4057 
C 1862 4057 2227 3616 2227 3033 
C 2227 2477 1901 1998 1536 1583 
L 262 147 
L 262 0 
L 2515 0 
L 2669 990 
z
" transform="scale(0.015625)"/>
       <path id="CMR17-30" d="M 2688 2038 
C 2688 2430 2682 3099 2413 3613 
C 2176 4063 1798 4224 1466 4224 
C 1158 4224 768 4082 525 3620 
C 269 3137 243 2539 243 2038 
C 243 1671 250 1112 448 623 
C 723 -39 1216 -128 1466 -128 
C 1760 -128 2208 -7 2470 604 
C 2662 1048 2688 1568 2688 2038 
z
M 1466 -26 
C 1056 -26 813 328 723 816 
C 653 1196 653 1749 653 2109 
C 653 2604 653 3015 736 3407 
C 858 3954 1216 4121 1466 4121 
C 1728 4121 2067 3947 2189 3420 
C 2272 3054 2278 2623 2278 2109 
C 2278 1691 2278 1176 2202 797 
C 2067 96 1690 -26 1466 -26 
z
" transform="scale(0.015625)"/>
       <path id="CMR17-31" d="M 1702 4083 
C 1702 4217 1696 4224 1606 4224 
C 1357 3927 979 3833 621 3820 
C 602 3820 570 3820 563 3808 
C 557 3795 557 3782 557 3648 
C 755 3648 1088 3686 1344 3839 
L 1344 467 
C 1344 243 1331 166 781 166 
L 589 166 
L 589 0 
C 896 6 1216 12 1523 12 
C 1830 12 2150 6 2458 0 
L 2458 166 
L 2266 166 
C 1715 166 1702 236 1702 467 
L 1702 4083 
z
" transform="scale(0.015625)"/>
       <path id="CMR17-37" d="M 2886 3955 
L 2886 4096 
L 1382 4096 
C 634 4096 621 4166 595 4288 
L 480 4288 
L 294 3104 
L 410 3104 
C 429 3226 474 3552 550 3673 
C 589 3724 1062 3724 1171 3724 
L 2579 3724 
L 1869 2670 
C 1395 1961 1069 1003 1069 166 
C 1069 89 1069 -128 1299 -128 
C 1530 -128 1530 89 1530 172 
L 1530 466 
C 1530 1514 1709 2204 2003 2644 
L 2886 3955 
z
" transform="scale(0.015625)"/>
       <path id="CMR17-29" d="M 1683 1596 
C 1683 2057 1638 2839 1254 3665 
C 947 4332 422 4800 346 4800 
C 326 4800 301 4793 301 4761 
C 301 4748 307 4742 314 4729 
C 621 4408 1402 3595 1402 1603 
C 1402 -396 627 -1210 314 -1530 
C 307 -1543 301 -1549 301 -1562 
C 301 -1594 326 -1600 346 -1600 
C 416 -1600 960 -1127 1274 -422 
C 1594 289 1683 981 1683 1596 
z
" transform="scale(0.015625)"/>
      </defs>
      <use xlink:href="#CMR17-43" transform="scale(0.996264)"/>
      <use xlink:href="#CMR17-4f" transform="translate(66.509881 0)scale(0.996264)"/>
      <use xlink:href="#CMR17-48" transform="translate(138.224669 0)scale(0.996264)"/>
      <use xlink:href="#CMR17-45" transform="translate(207.297099 0)scale(0.996264)"/>
      <use xlink:href="#CMR17-52" transform="translate(269.883399 0)scale(0.996264)"/>
      <use xlink:href="#CMR17-45" transform="translate(337.674501 0)scale(0.996264)"/>
      <use xlink:href="#CMR17-4e" transform="translate(400.260802 0)scale(0.996264)"/>
      <use xlink:href="#CMR17-54" transform="translate(469.333232 0)scale(0.996264)"/>
      <use xlink:href="#CMR17-28" transform="translate(535.843112 0)scale(0.996264)"/>
      <use xlink:href="#CMR17-32" transform="translate(571.12388 0)scale(0.996264)"/>
      <use xlink:href="#CMR17-30" transform="translate(616.814357 0)scale(0.996264)"/>
      <use xlink:href="#CMR17-31" transform="translate(662.504834 0)scale(0.996264)"/>
      <use xlink:href="#CMR17-37" transform="translate(708.195311 0)scale(0.996264)"/>
      <use xlink:href="#CMR17-29" transform="translate(753.885788 0)scale(0.996264)"/>
     </g>
    </g>
    <g id="patch_9">
     <path d="M 78.3 350.794255 
L 108.3 350.794255 
L 108.3 340.294255 
L 78.3 340.294255 
z
" style="fill: #008000; opacity: 0.6; stroke: #008000; stroke-linejoin: miter"/>
    </g>
    <g id="text_14">
     <!-- $\mathrm{RELICS}$ -->
     <g transform="translate(120.3 350.794255)scale(0.15 -0.15)">
      <defs>
       <path id="CMR17-4c" d="M 3469 1612 
L 3354 1612 
C 3302 981 3219 166 2125 166 
L 1530 166 
C 1274 166 1261 198 1261 414 
L 1261 3892 
C 1261 4121 1274 4185 1760 4185 
L 1901 4185 
L 1901 4352 
C 1638 4339 1331 4339 1069 4339 
C 870 4339 512 4339 326 4352 
L 326 4185 
C 768 4185 838 4185 838 3898 
L 838 453 
C 838 166 768 166 326 166 
L 326 0 
L 3315 0 
L 3469 1612 
z
" transform="scale(0.015625)"/>
       <path id="CMR17-49" d="M 1261 3898 
C 1261 4185 1338 4185 1798 4185 
L 1798 4352 
C 1594 4339 1267 4339 1050 4339 
C 832 4339 506 4339 301 4352 
L 301 4185 
C 762 4185 838 4185 838 3898 
L 838 453 
C 838 166 762 166 301 166 
L 301 0 
C 506 12 832 12 1050 12 
C 1267 12 1594 12 1798 0 
L 1798 166 
C 1338 166 1261 166 1261 453 
L 1261 3898 
z
" transform="scale(0.015625)"/>
       <path id="CMR17-53" d="M 2803 4351 
C 2803 4467 2797 4473 2758 4473 
C 2720 4473 2707 4447 2682 4390 
L 2490 3965 
C 2246 4320 1875 4480 1472 4480 
C 819 4480 294 3958 294 3301 
C 294 3101 339 2817 557 2546 
C 794 2250 1018 2198 1530 2063 
C 1722 2011 2042 1927 2106 1901 
C 2470 1747 2662 1360 2662 999 
C 2662 534 2336 38 1779 38 
C 1094 38 454 425 410 1328 
C 403 1431 397 1437 352 1437 
C 301 1437 294 1431 294 1302 
L 294 0 
C 294 -116 301 -122 339 -122 
C 384 -122 397 -90 486 109 
C 493 128 493 141 614 386 
C 934 -39 1472 -128 1779 -128 
C 2477 -128 2970 457 2970 1141 
C 2970 1476 2848 1734 2778 1850 
C 2509 2263 2221 2340 1914 2417 
C 1869 2437 1856 2437 1498 2527 
C 1152 2617 1005 2662 845 2836 
C 666 3036 602 3243 602 3449 
C 602 3868 934 4326 1478 4326 
C 2157 4326 2579 3842 2675 3036 
C 2694 2920 2701 2914 2746 2914 
C 2803 2914 2803 2933 2803 3043 
L 2803 4351 
z
" transform="scale(0.015625)"/>
      </defs>
      <use xlink:href="#CMR17-52" transform="scale(0.996264)"/>
      <use xlink:href="#CMR17-45" transform="translate(67.791102 0)scale(0.996264)"/>
      <use xlink:href="#CMR17-4c" transform="translate(130.377402 0)scale(0.996264)"/>
      <use xlink:href="#CMR17-49" transform="translate(187.75881 0)scale(0.996264)"/>
      <use xlink:href="#CMR17-43" transform="translate(220.39722 0)scale(0.996264)"/>
      <use xlink:href="#CMR17-53" transform="translate(286.9071 0)scale(0.996264)"/>
     </g>
    </g>
   </g>
  </g>
 </g>
 <defs>
  <clipPath id="p41a5ca460c">
   <rect x="64.8" y="43.2" width="345.6" height="324"/>
  </clipPath>
 </defs>
</svg>
