<?xml version="1.0" encoding="utf-8" standalone="no"?>
<!DOCTYPE svg PUBLIC "-//W3C//DTD SVG 1.1//EN"
  "http://www.w3.org/Graphics/SVG/1.1/DTD/svg11.dtd">
<svg xmlns:xlink="http://www.w3.org/1999/xlink" width="432pt" height="432pt" viewBox="0 0 432 432" xmlns="http://www.w3.org/2000/svg" version="1.1">
 <metadata>
  <rdf:RDF xmlns:dc="http://purl.org/dc/elements/1.1/" xmlns:cc="http://creativecommons.org/ns#" xmlns:rdf="http://www.w3.org/1999/02/22-rdf-syntax-ns#">
   <cc:Work>
    <dc:type rdf:resource="http://purl.org/dc/dcmitype/StillImage"/>
    <dc:date>2022-05-27T10:48:29.767013</dc:date>
    <dc:format>image/svg+xml</dc:format>
    <dc:creator>
     <cc:Agent>
      <dc:title>Matplotlib v3.5.1, https://matplotlib.org/</dc:title>
     </cc:Agent>
    </dc:creator>
   </cc:Work>
  </rdf:RDF>
 </metadata>
 <defs>
  <style type="text/css">*{stroke-linejoin: round; stroke-linecap: butt}</style>
 </defs>
 <g id="figure_1">
  <g id="patch_1">
   <path d="M 0 432 
L 432 432 
L 432 0 
L 0 0 
L 0 432 
z
" style="fill: none"/>
  </g>
  <g id="axes_1">
   <g id="patch_2">
    <path d="M 64.8 367.2 
L 410.4 367.2 
L 410.4 43.2 
L 64.8 43.2 
L 64.8 367.2 
z
" style="fill: none"/>
   </g>
   <g id="PolyCollection_1">
    <path d="M 64.8 39.966017 
L 64.8 39.966017 
L 68.256 43.590767 
L 71.712 47.215518 
L 75.168 50.840269 
L 78.624 54.465019 
L 82.08 58.08977 
L 85.536 61.71452 
L 88.992 65.339271 
L 92.448 68.964021 
L 95.904 72.588772 
L 99.36 76.213522 
L 102.816 79.838273 
L 106.272 83.463024 
L 109.728 87.087774 
L 113.184 90.712525 
L 116.64 94.337275 
L 120.096 97.962026 
L 123.552 101.586776 
L 127.008 105.211527 
L 130.464 108.836278 
L 133.92 112.461028 
L 137.376 116.085779 
L 140.832 119.710529 
L 144.288 123.33528 
L 147.744 126.96003 
L 151.2 130.584781 
L 154.656 134.209532 
L 158.112 137.834282 
L 161.568 141.459033 
L 165.024 145.083783 
L 168.48 148.708534 
L 171.936 152.333284 
L 175.392 155.958035 
L 178.848 159.582785 
L 182.304 163.207536 
L 185.76 166.832287 
L 189.216 170.457037 
L 192.672 174.081788 
L 196.128 177.706538 
L 199.584 181.331289 
L 203.04 184.956039 
L 206.496 188.58079 
L 209.952 192.205541 
L 213.408 195.830291 
L 216.864 199.455042 
L 220.32 203.079792 
L 223.776 206.704543 
L 227.232 210.329293 
L 230.688 213.954044 
L 234.144 217.578794 
L 237.6 221.203545 
L 241.056 224.828296 
L 244.512 228.453046 
L 247.968 232.077797 
L 251.424 235.702547 
L 254.88 239.327298 
L 258.336 242.952048 
L 261.792 246.576799 
L 265.248 250.20155 
L 268.704 253.8263 
L 272.16 257.451051 
L 275.616 261.075801 
L 279.072 264.700552 
L 282.528 268.325302 
L 285.984 271.950053 
L 289.44 275.574804 
L 292.896 279.199554 
L 296.352 282.824305 
L 299.808 286.449055 
L 303.264 290.073806 
L 306.72 293.698556 
L 310.176 297.323307 
L 313.632 300.948057 
L 317.088 304.572808 
L 320.544 308.197559 
L 324 311.822309 
L 327.456 315.44706 
L 330.912 319.07181 
L 334.368 322.696561 
L 337.824 326.321311 
L 341.28 329.946062 
L 344.736 333.570813 
L 348.192 337.195563 
L 351.648 340.820314 
L 355.104 344.445064 
L 358.56 348.069815 
L 362.016 351.694565 
L 365.472 355.319316 
L 368.928 358.944066 
L 372.384 362.568817 
L 375.84 366.193568 
L 379.296 369.818318 
L 382.752 373.443069 
L 386.208 377.067819 
L 389.664 380.69257 
L 393.12 384.31732 
L 396.576 387.942071 
L 400.032 391.566822 
L 403.488 395.191572 
L 406.944 398.816323 
L 410.4 402.441073 
L 410.4 402.441073 
L 410.4 303.92687 
L 406.944 300.301648 
L 403.488 296.676426 
L 400.032 293.051205 
L 396.576 289.425983 
L 393.12 285.800761 
L 389.664 282.17554 
L 386.208 278.550318 
L 382.752 274.925096 
L 379.296 271.299874 
L 375.84 267.674653 
L 372.384 264.049431 
L 368.928 260.424209 
L 365.472 256.798988 
L 362.016 253.173766 
L 358.56 249.548544 
L 355.104 245.923323 
L 351.648 242.298101 
L 348.192 238.672879 
L 344.736 235.047657 
L 341.28 231.422436 
L 337.824 227.797214 
L 334.368 224.171992 
L 330.912 220.546771 
L 327.456 216.921549 
L 324 213.296327 
L 320.544 209.671106 
L 317.088 206.045884 
L 313.632 202.420662 
L 310.176 198.79544 
L 306.72 195.170219 
L 303.264 191.544997 
L 299.808 187.919775 
L 296.352 184.294554 
L 292.896 180.669332 
L 289.44 177.04411 
L 285.984 173.418889 
L 282.528 169.793667 
L 279.072 166.168445 
L 275.616 162.543223 
L 272.16 158.918002 
L 268.704 155.29278 
L 265.248 151.667558 
L 261.792 148.042337 
L 258.336 144.417115 
L 254.88 140.791893 
L 251.424 137.166672 
L 247.968 133.54145 
L 244.512 129.916228 
L 241.056 126.291006 
L 237.6 122.665785 
L 234.144 119.040563 
L 230.688 115.415341 
L 227.232 111.79012 
L 223.776 108.164898 
L 220.32 104.539676 
L 216.864 100.914455 
L 213.408 97.289233 
L 209.952 93.664011 
L 206.496 90.038789 
L 203.04 86.413568 
L 199.584 82.788346 
L 196.128 79.163124 
L 192.672 75.537903 
L 189.216 71.912681 
L 185.76 68.287459 
L 182.304 64.662238 
L 178.848 61.037016 
L 175.392 57.411794 
L 171.936 53.786573 
L 168.48 50.161351 
L 165.024 46.536129 
L 161.568 42.910907 
L 158.112 39.285686 
L 154.656 35.660464 
L 151.2 32.035242 
L 147.744 28.410021 
L 144.288 24.784799 
L 140.832 21.159577 
L 137.376 17.534356 
L 133.92 13.909134 
L 130.464 10.283912 
L 127.008 6.65869 
L 123.552 3.033469 
L 120.096 -0.591753 
L 116.64 -4.216975 
L 113.184 -7.842196 
L 109.728 -11.467418 
L 106.272 -15.09264 
L 102.816 -18.717861 
L 99.36 -22.343083 
L 95.904 -25.968305 
L 92.448 -29.593527 
L 88.992 -33.218748 
L 85.536 -36.84397 
L 82.08 -40.469192 
L 78.624 -44.094413 
L 75.168 -47.719635 
L 71.712 -51.344857 
L 68.256 -54.970078 
L 64.8 -58.5953 
z
" clip-path="url(#pf9320853b8)" style="fill: #0000ff; fill-opacity: 0.2"/>
   </g>
   <g id="PathCollection_1">
    <path d="M 370.656 366.279421 
L 371.530557 367.2 
L 372.384 367.2 
L 374.112 367.2 
L 375.84 367.2 
L 377.568 367.2 
L 379.296 367.2 
L 381.024 367.2 
L 382.752 367.2 
L 384.48 367.2 
L 386.208 367.2 
L 387.936 367.2 
L 389.664 367.2 
L 391.392 367.2 
L 393.12 367.2 
L 394.848 367.2 
L 396.576 367.2 
L 398.304 367.2 
L 400.032 367.2 
L 401.76 367.2 
L 403.488 367.2 
L 405.216 367.2 
L 405.659044 367.2 
L 405.216 366.727714 
L 404.119085 365.58 
L 403.488 364.907417 
L 402.582048 363.96 
L 401.76 363.084114 
L 401.048079 362.34 
L 400.032 361.257665 
L 399.517321 360.72 
L 398.304 359.426685 
L 397.991274 359.1 
L 396.576 357.590239 
L 396.470565 357.48 
L 394.936843 355.86 
L 394.848 355.765413 
L 393.389013 354.24 
L 393.12 353.953632 
L 391.843665 352.62 
L 391.392 352.138486 
L 390.303933 351 
L 389.664 350.317936 
L 388.767137 349.38 
L 387.936 348.494366 
L 387.233422 347.76 
L 386.208 346.667635 
L 385.702933 346.14 
L 384.48 344.836227 
L 384.177321 344.52 
L 382.752 342.999418 
L 382.656916 342.9 
L 381.12179 341.28 
L 381.024 341.175879 
L 379.57417 339.66 
L 379.296 339.363837 
L 378.029187 338.04 
L 377.568 337.548298 
L 376.489696 336.42 
L 375.84 335.727479 
L 374.953156 334.8 
L 374.112 333.903627 
L 373.419711 333.18 
L 372.384 332.0766 
L 371.889507 331.56 
L 370.656 330.244731 
L 370.364361 329.94 
L 368.928 328.407541 
L 368.844278 328.32 
L 367.307595 326.7 
L 367.2 326.58543 
L 365.7602 325.08 
L 365.472 324.773107 
L 364.21561 323.46 
L 363.744 322.95715 
L 362.676376 321.84 
L 362.016 321.136047 
L 361.140107 320.22 
L 360.288 319.311896 
L 359.606948 318.6 
L 358.56 317.484557 
L 358.077043 316.98 
L 356.832 315.652195 
L 356.552396 315.36 
L 355.104 313.814605 
L 355.03265 313.74 
L 353.494261 312.12 
L 353.376 311.994064 
L 351.947104 310.5 
L 351.648 310.18144 
L 350.402935 308.88 
L 349.92 308.365039 
L 348.863973 307.26 
L 348.192 306.543637 
L 347.327991 305.64 
L 346.464 304.719173 
L 345.795133 304.02 
L 344.736 302.891505 
L 344.265544 302.4 
L 343.008 301.058617 
L 342.741426 300.78 
L 341.28 299.220609 
L 341.222037 299.16 
L 339.681789 297.54 
L 339.552 297.401779 
L 338.134885 295.92 
L 337.824 295.588834 
L 336.591164 294.3 
L 336.096 293.771963 
L 335.05249 292.68 
L 334.368 291.950247 
L 333.516809 291.06 
L 332.64 290.125453 
L 331.984269 289.44 
L 330.912 288.297442 
L 330.455013 287.82 
L 329.184 286.463992 
L 328.931455 286.2 
L 327.456 284.62555 
L 327.412439 284.58 
L 325.87018 282.96 
L 325.728 282.808572 
L 324.323544 281.34 
L 324 280.995286 
L 322.7803 279.72 
L 322.272 279.177921 
L 321.241928 278.1 
L 320.544 277.355874 
L 319.706566 276.48 
L 318.816 275.530735 
L 318.174358 274.86 
L 317.088 273.702365 
L 316.64545 273.24 
L 315.36 271.868318 
L 315.122486 271.62 
L 313.632 270.029425 
L 313.60386 270 
L 312.059437 268.38 
L 311.904 268.214443 
L 310.513083 266.76 
L 310.176 266.400792 
L 308.970344 265.14 
L 308.448 264.58291 
L 307.432291 263.52 
L 306.72 262.760516 
L 305.897262 261.9 
L 304.992 260.935017 
L 304.365404 260.28 
L 303.264 259.106435 
L 302.836696 258.66 
L 301.536 257.271591 
L 301.314521 257.04 
L 299.808 255.432231 
L 299.796304 255.42 
L 298.249562 253.8 
L 298.08 253.619387 
L 296.703505 252.18 
L 296.352 251.805348 
L 295.1613 250.56 
L 294.624 249.986926 
L 293.623581 248.94 
L 292.896 248.16417 
L 292.088902 247.32 
L 291.168 246.338294 
L 290.557409 245.7 
L 289.44 244.509134 
L 289.029267 244.08 
L 287.712 242.673805 
L 287.507565 242.46 
L 285.988857 240.84 
L 285.984 240.834825 
L 284.440559 239.22 
L 284.256 239.023401 
L 282.894814 237.6 
L 282.528 237.208952 
L 281.353171 235.98 
L 280.8 235.389965 
L 279.815802 234.36 
L 279.072 233.566832 
L 278.281489 232.74 
L 277.344 231.740562 
L 276.750377 231.12 
L 275.616 229.910791 
L 275.222832 229.5 
L 273.888 228.074956 
L 273.701621 227.88 
L 272.180417 226.26 
L 272.16 226.238245 
L 270.632431 224.64 
L 270.432 224.426483 
L 269.087012 223.02 
L 268.704 222.611597 
L 267.545961 221.4 
L 266.976 220.792025 
L 266.008957 219.78 
L 265.248 218.968498 
L 264.475026 218.16 
L 263.52 217.141819 
L 262.944311 216.54 
L 261.792 215.311401 
L 261.417376 214.92 
L 260.064 213.47505 
L 259.896693 213.3 
L 258.372841 211.68 
L 258.336 211.640743 
L 256.825181 210.06 
L 256.608 209.828627 
L 255.280103 208.44 
L 254.88 208.013279 
L 253.739673 206.82 
L 253.152 206.1931 
L 252.203051 205.2 
L 251.424 204.369163 
L 250.669518 203.58 
L 249.696 202.542059 
L 249.139217 201.96 
L 247.968 200.710959 
L 247.613008 200.34 
L 246.24 198.874027 
L 246.092787 198.72 
L 244.566132 197.1 
L 244.512 197.042314 
L 243.018813 195.48 
L 242.784 195.22983 
L 241.474092 193.86 
L 241.056 193.413993 
L 239.934312 192.24 
L 239.328 191.593187 
L 238.398088 190.62 
L 237.6 189.768824 
L 236.864969 189 
L 235.872 187.941278 
L 235.335099 187.38 
L 234.144 186.109457 
L 233.809649 185.76 
L 232.416 184.271931 
L 232.289907 184.14 
L 230.760295 182.52 
L 230.688 182.442955 
L 229.213332 180.9 
L 228.96 180.630105 
L 227.668957 179.28 
L 227.232 178.813733 
L 226.129883 177.66 
L 225.504 176.992279 
L 224.594073 176.04 
L 223.776 175.167474 
L 223.061384 174.42 
L 222.048 173.339471 
L 221.531961 172.8 
L 220.32 171.506889 
L 220.007303 171.18 
L 218.592 169.668754 
L 218.488058 169.56 
L 216.955335 167.94 
L 216.864 167.842659 
L 215.408743 166.32 
L 215.136 166.029357 
L 213.864762 164.7 
L 213.408 164.212563 
L 212.326391 163.08 
L 211.68 162.390372 
L 210.791011 161.46 
L 209.952 160.565109 
L 209.258769 159.84 
L 208.224 158.736631 
L 207.72981 158.22 
L 206.496 156.903249 
L 206.205977 156.6 
L 204.768 155.064491 
L 204.687247 154.98 
L 203.151256 153.36 
L 203.04 153.241423 
L 201.605051 151.74 
L 201.312 151.427642 
L 200.061783 150.12 
L 199.584 149.610109 
L 198.523841 148.5 
L 197.856 147.78746 
L 196.988908 146.88 
L 196.128 145.961722 
L 195.457129 145.26 
L 194.4 144.132754 
L 193.92865 143.64 
L 192.672 142.298528 
L 192.405677 142.02 
L 190.944 140.459136 
L 190.88748 140.4 
L 189.348065 138.78 
L 189.216 138.639239 
L 187.802261 137.16 
L 187.488 136.824951 
L 186.259736 135.54 
L 185.76 135.006661 
L 184.722239 133.92 
L 184.032 133.183537 
L 183.187769 132.3 
L 182.304 131.357308 
L 181.65647 130.68 
L 180.576 129.528214 
L 180.128107 129.06 
L 178.848 127.692719 
L 178.606408 127.44 
L 177.12 125.852682 
L 177.088764 125.82 
L 175.545766 124.2 
L 175.392 124.036103 
L 174.000379 122.58 
L 173.664 122.221279 
L 172.458626 120.96 
L 171.936 120.402211 
L 170.921592 119.34 
L 170.208 118.578597 
L 169.387601 117.72 
L 168.48 116.75186 
L 167.856799 116.1 
L 166.752 114.921967 
L 166.329224 114.48 
L 165.024 113.085813 
L 164.808179 112.86 
L 163.296 111.245122 
L 163.291104 111.24 
L 161.744367 109.62 
L 161.568 109.432008 
L 160.199411 108 
L 159.84 107.616617 
L 158.658462 106.38 
L 158.112 105.796753 
L 157.121906 104.76 
L 156.384 103.972631 
L 155.588411 103.14 
L 154.656 102.14537 
L 154.058122 101.52 
L 152.928 100.314636 
L 152.531377 99.9 
L 151.2 98.477801 
L 151.010996 98.28 
L 149.490953 96.66 
L 149.472 96.639793 
L 147.943873 95.04 
L 147.744 94.826946 
L 146.399364 93.42 
L 146.016 93.010956 
L 144.859249 91.8 
L 144.288 91.19028 
L 143.323188 90.18 
L 142.56 89.365634 
L 141.790205 88.56 
L 140.832 87.537833 
L 140.260446 86.94 
L 139.104 85.706213 
L 138.734552 85.32 
L 137.376 83.868685 
L 137.214867 83.7 
L 135.690925 82.08 
L 135.648 82.034232 
L 134.144291 80.46 
L 133.92 80.220984 
L 132.600132 78.84 
L 132.192 78.404289 
L 131.060995 77.22 
L 130.464 76.582784 
L 129.525445 75.6 
L 128.736 74.757598 
L 127.992991 73.98 
L 127.008 72.929239 
L 126.463779 72.36 
L 125.28 71.096687 
L 124.938879 70.74 
L 123.552 69.258395 
L 123.419799 69.12 
L 121.891801 67.5 
L 121.824 67.427706 
L 120.345628 65.88 
L 120.096 65.61391 
L 118.802039 64.26 
L 118.368 63.796605 
L 117.263707 62.64 
L 116.64 61.974257 
L 115.728685 61.02 
L 114.912 60.148514 
L 114.196777 59.4 
L 113.184 58.319581 
L 112.668129 57.78 
L 111.456 56.48605 
L 111.144258 56.16 
L 109.728 54.646985 
L 109.625802 54.54 
L 108.093589 52.92 
L 108 52.820206 
L 106.547893 51.3 
L 106.272 51.00583 
L 105.004857 49.68 
L 104.544 49.187944 
L 103.467393 48.06 
L 102.816 47.364691 
L 101.932915 46.44 
L 101.088 45.538374 
L 100.40157 44.82 
L 99.36 43.708851 
L 98.873504 43.2 
L 97.632 43.2 
L 95.904 43.2 
L 94.176 43.2 
L 92.448 43.2 
L 90.72 43.2 
L 88.992 43.2 
L 87.264 43.2 
L 85.536 43.2 
L 83.808 43.2 
L 82.08 43.2 
L 80.352 43.2 
L 78.624 43.2 
L 76.896 43.2 
L 75.168 43.2 
L 73.44 43.2 
L 71.712 43.2 
L 69.984 43.2 
L 68.256 43.2 
L 66.528 43.2 
L 64.8 43.2 
L 64.8 43.293362 
L 66.245942 44.82 
L 66.528 45.118025 
L 67.780158 46.44 
L 68.256 46.942802 
L 69.31547 48.06 
L 69.984 48.766542 
L 70.851375 49.68 
L 71.712 50.589896 
L 72.386083 51.3 
L 73.44 52.414667 
L 73.919559 52.92 
L 75.168 54.240891 
L 75.451772 54.54 
L 76.896 56.068603 
L 76.982685 56.16 
L 78.51513 57.78 
L 78.624 57.895026 
L 80.04946 59.4 
L 80.352 59.719661 
L 81.583698 61.02 
L 82.08 61.544412 
L 83.119284 62.64 
L 83.808 63.367889 
L 84.655097 64.26 
L 85.536 65.191352 
L 86.189709 65.88 
L 87.264 67.016234 
L 87.723088 67.5 
L 88.992 68.842572 
L 89.2552 69.12 
L 90.72 70.670402 
L 90.78601 70.74 
L 92.318924 72.36 
L 92.448 72.496373 
L 93.853279 73.98 
L 94.176 74.320979 
L 95.387539 75.6 
L 95.904 76.145704 
L 96.923383 77.22 
L 97.632 77.968934 
L 98.459105 78.84 
L 99.36 79.792504 
L 99.993625 80.46 
L 101.088 81.617496 
L 101.526907 82.08 
L 102.816 83.443946 
L 103.05892 83.7 
L 104.544 85.271892 
L 104.589627 85.32 
L 106.123018 86.94 
L 106.272 87.097401 
L 107.657398 88.56 
L 108 88.921978 
L 109.191718 90.18 
L 109.728 90.74664 
L 110.727767 91.8 
L 111.456 92.569679 
L 112.263402 93.42 
L 113.184 94.393352 
L 113.797829 95.04 
L 114.912 96.218452 
L 115.331017 96.66 
L 116.64 98.045013 
L 116.862933 98.28 
L 118.368 99.873072 
L 118.393539 99.9 
L 119.927413 101.52 
L 120.096 101.69811 
L 121.461817 103.14 
L 121.824 103.52266 
L 122.996222 104.76 
L 123.552 105.347233 
L 124.532438 106.38 
L 125.28 107.17012 
L 126.067986 108 
L 127.008 108.993896 
L 127.602323 109.62 
L 128.736 110.819101 
L 129.135419 111.24 
L 130.464 112.645771 
L 130.667238 112.86 
L 132.192 114.473942 
L 132.197746 114.48 
L 133.732109 116.1 
L 133.92 116.298502 
L 135.266538 117.72 
L 135.648 118.123023 
L 136.80107 119.34 
L 137.376 119.947467 
L 138.337397 120.96 
L 139.104 121.770258 
L 139.872858 122.58 
L 140.832 123.594135 
L 141.407107 124.2 
L 142.56 125.419443 
L 142.940112 125.82 
L 144.288 127.246219 
L 144.471837 127.44 
L 146.002579 129.06 
L 146.016 129.074179 
L 147.537106 130.68 
L 147.744 130.898575 
L 149.071558 132.3 
L 149.472 132.723068 
L 150.606255 133.92 
L 151.2 134.547345 
L 152.142642 135.54 
L 152.928 136.370093 
L 153.67802 137.16 
L 154.656 138.194068 
L 155.212182 138.78 
L 156.384 140.019478 
L 156.745097 140.4 
L 158.112 141.846359 
L 158.27673 142.02 
L 159.807848 143.64 
L 159.84 143.673965 
L 161.342403 145.26 
L 161.568 145.49833 
L 162.876879 146.88 
L 163.296 147.322795 
L 164.411777 148.5 
L 165.024 149.146872 
L 165.948175 150.12 
L 166.752 150.969623 
L 167.483471 151.74 
L 168.48 152.793695 
L 169.017548 153.36 
L 170.208 154.619205 
L 170.550376 154.98 
L 171.936 156.446188 
L 172.081918 156.6 
L 173.613419 158.22 
L 173.664 158.273433 
L 175.148 159.84 
L 175.392 160.097766 
L 176.6825 161.46 
L 177.12 161.922203 
L 178.217615 163.08 
L 178.848 163.746067 
L 179.753997 164.7 
L 180.576 165.568848 
L 181.289212 166.32 
L 182.304 167.393016 
L 182.823206 167.94 
L 184.032 169.218623 
L 184.355947 169.56 
L 185.76 171.045706 
L 185.887401 171.18 
L 187.41929 172.8 
L 187.488 172.872582 
L 188.953898 174.42 
L 189.216 174.696885 
L 190.488422 176.04 
L 190.944 176.521294 
L 192.023782 177.66 
L 192.672 178.344916 
L 193.560108 179.28 
L 194.4 180.167769 
L 195.095243 180.9 
L 196.128 181.992029 
L 196.629156 182.52 
L 197.856 183.817732 
L 198.161813 184.14 
L 199.584 185.644913 
L 199.693179 185.76 
L 201.225462 187.38 
L 201.312 187.471414 
L 202.760096 189 
L 203.04 189.295685 
L 204.294644 190.62 
L 204.768 191.120067 
L 205.830257 192.24 
L 206.496 192.943442 
L 207.366508 193.86 
L 208.224 194.766383 
L 208.901566 195.48 
L 209.952 196.590734 
L 210.435398 197.1 
L 211.68 198.41653 
L 211.967973 198.72 
L 213.408 200.243808 
L 213.499254 200.34 
L 215.031934 201.96 
L 215.136 202.069927 
L 216.566595 203.58 
L 216.864 203.894168 
L 218.101166 205.2 
L 218.592 205.718522 
L 219.63702 206.82 
L 220.32 207.541664 
L 221.173197 208.44 
L 222.048 209.364691 
L 222.708179 210.06 
L 223.776 211.189131 
L 224.241934 211.68 
L 225.504 213.015019 
L 225.774428 213.3 
L 227.232 214.842391 
L 227.305625 214.92 
L 228.838707 216.54 
L 228.96 216.668122 
L 230.373395 218.16 
L 230.688 218.492332 
L 231.907989 219.78 
L 232.416 220.316659 
L 233.444071 221.4 
L 234.144 222.13958 
L 234.980177 223.02 
L 235.872 223.962692 
L 236.515085 224.64 
L 237.6 225.787219 
L 238.048763 226.26 
L 239.328 227.613196 
L 239.581178 227.88 
L 241.056 229.44066 
L 241.112294 229.5 
L 242.645781 231.12 
L 242.784 231.265999 
L 244.180495 232.74 
L 244.512 233.090178 
L 245.715121 234.36 
L 246.24 234.914469 
L 247.251412 235.98 
L 247.968 236.737192 
L 248.787447 237.6 
L 249.696 238.560386 
L 250.322283 239.22 
L 251.424 240.384997 
L 251.855887 240.84 
L 253.152 242.211062 
L 253.388224 242.46 
L 254.88 244.038616 
L 254.91926 244.08 
L 256.453155 245.7 
L 256.608 245.863557 
L 257.987895 247.32 
L 258.336 247.687706 
L 259.522585 248.94 
L 260.064 249.511929 
L 261.059041 250.56 
L 261.792 251.334498 
L 262.595009 252.18 
L 263.52 253.157772 
L 264.129774 253.8 
L 265.248 254.982466 
L 265.663304 255.42 
L 266.976 256.808615 
L 267.195566 257.04 
L 268.704 258.636257 
L 268.726524 258.66 
L 270.26083 260.28 
L 270.432 260.460798 
L 271.795596 261.9 
L 272.16 262.284916 
L 273.330373 263.52 
L 273.888 264.109049 
L 274.866961 265.14 
L 275.616 265.931496 
L 276.402862 266.76 
L 277.344 267.754849 
L 277.937558 268.38 
L 279.072 269.579624 
L 279.471018 270 
L 280.8 271.405856 
L 281.003205 271.62 
L 282.528 273.233584 
L 282.534087 273.24 
L 284.068806 274.86 
L 284.256 275.05772 
L 285.603598 276.48 
L 285.984 276.881808 
L 287.138485 278.1 
L 287.712 278.705828 
L 288.675171 279.72 
L 289.44 280.528188 
L 290.211008 281.34 
L 291.168 282.351617 
L 291.745637 282.96 
L 292.896 284.176471 
L 293.279026 284.58 
L 294.624 286.002784 
L 294.811142 286.2 
L 296.34219 287.82 
L 296.352 287.830361 
L 297.877082 289.44 
L 298.08 289.654324 
L 299.4119 291.06 
L 299.808 291.478382 
L 300.946924 292.68 
L 301.536 293.302262 
L 302.483673 294.3 
L 303.264 295.124572 
L 304.019446 295.92 
L 304.992 296.948075 
L 305.554009 297.54 
L 306.72 298.773006 
L 307.087331 299.16 
L 308.448 300.599398 
L 308.619377 300.78 
L 310.150738 302.4 
L 310.176 302.42668 
L 311.685659 304.02 
L 311.904 304.25061 
L 313.220503 305.64 
L 313.632 306.074637 
L 314.755687 307.26 
L 315.36 307.898357 
L 316.292465 308.88 
L 317.088 309.720648 
L 317.828176 310.5 
L 318.816 311.544224 
L 319.362676 312.12 
L 320.544 313.369229 
L 320.895932 313.74 
L 322.272 315.195698 
L 322.427909 315.36 
L 323.959587 316.98 
L 324 317.022681 
L 325.494537 318.6 
L 325.728 318.846577 
L 327.029407 320.22 
L 327.456 320.670574 
L 328.564773 321.84 
L 329.184 322.494111 
L 330.10155 323.46 
L 330.912 324.316416 
L 331.637201 325.08 
L 332.64 326.140062 
L 333.171639 326.7 
L 334.368 327.965139 
L 334.70483 328.32 
L 336.096 329.791683 
L 336.236741 329.94 
L 337.768737 331.56 
L 337.824 331.618363 
L 339.303715 333.18 
L 339.552 333.442226 
L 340.838611 334.8 
L 341.28 335.266193 
L 342.374165 336.42 
L 343.008 337.089544 
L 343.910926 338.04 
L 344.736 338.911874 
L 345.446519 339.66 
L 346.464 340.735588 
L 346.980897 341.28 
L 348.192 342.560736 
L 348.514026 342.9 
L 349.92 344.387353 
L 350.045872 344.52 
L 351.578188 346.14 
L 351.648 346.213727 
L 353.113195 347.76 
L 353.376 348.037557 
L 354.648117 349.38 
L 355.104 349.861494 
L 356.183873 351 
L 356.832 351.684644 
L 357.720595 352.62 
L 358.56 353.507023 
L 359.256132 354.24 
L 360.288 355.330803 
L 360.790451 355.86 
L 362.016 357.156019 
L 362.323519 357.48 
L 363.744 358.982706 
L 363.855303 359.1 
L 365.38794 360.72 
L 365.472 360.808773 
L 366.922975 362.34 
L 367.2 362.63257 
L 368.457923 363.96 
L 368.928 364.456476 
L 369.993888 365.58 
z
" clip-path="url(#pf9320853b8)" style="fill: #008000; fill-opacity: 0.6"/>
    <path d="M 410.4 336.701369 
L 410.4 336.42 
L 410.4 334.8 
L 410.4 333.18 
L 410.4 331.56 
L 410.4 329.94 
L 410.4 328.32 
L 410.4 326.7 
L 410.4 325.08 
L 410.4 323.46 
L 410.4 321.84 
L 410.4 320.22 
L 410.4 318.6 
L 410.4 316.98 
L 410.4 315.36 
L 410.4 313.74 
L 410.4 312.12 
L 410.4 310.5 
L 410.4 308.88 
L 410.4 307.26 
L 410.4 305.64 
L 410.4 304.02 
L 410.4 302.4 
L 410.4 300.78 
L 410.4 300.650758 
L 408.987761 299.16 
L 408.672 298.826424 
L 407.453271 297.54 
L 406.944 297.001974 
L 405.917277 295.92 
L 405.216 295.178943 
L 404.381283 294.3 
L 403.488 293.355698 
L 402.846488 292.68 
L 401.76 291.531036 
L 401.312924 291.06 
L 400.032 289.704922 
L 399.780626 289.44 
L 398.304 287.877319 
L 398.249628 287.82 
L 396.716202 286.2 
L 396.576 286.051897 
L 395.181592 284.58 
L 394.848 284.227594 
L 393.647065 282.96 
L 393.12 282.403184 
L 392.11086 281.34 
L 391.392 280.580354 
L 390.574941 279.72 
L 389.664 278.757021 
L 389.040224 278.1 
L 387.936 276.932267 
L 387.506741 276.48 
L 386.208 275.106058 
L 385.974526 274.86 
L 384.48 273.278358 
L 384.443614 273.24 
L 382.909758 271.62 
L 382.752 271.453355 
L 381.375122 270 
L 381.024 269.629081 
L 379.840527 268.38 
L 379.296 267.804744 
L 378.304153 266.76 
L 377.568 265.982071 
L 376.768308 265.14 
L 375.84 264.15865 
L 375.233667 263.52 
L 374.112 262.333807 
L 373.700264 261.9 
L 372.384 260.507505 
L 372.168131 260.28 
L 370.656 258.67971 
L 370.637304 258.66 
L 369.103014 257.04 
L 368.928 256.85513 
L 367.568352 255.42 
L 367.2 255.030887 
L 366.033662 253.8 
L 365.472 253.206647 
L 364.497157 252.18 
L 363.744 251.384093 
L 362.961384 250.56 
L 362.016 249.560587 
L 361.426819 248.94 
L 360.288 247.735656 
L 359.893493 247.32 
L 358.56 245.909264 
L 358.36144 245.7 
L 356.832 244.081375 
L 356.830696 244.08 
L 355.295968 242.46 
L 355.104 242.257224 
L 353.761281 240.84 
L 353.376 240.433011 
L 352.226469 239.22 
L 351.648 238.608896 
L 350.689871 237.6 
L 349.92 236.786421 
L 349.15417 235.98 
L 348.192 234.962832 
L 347.619677 234.36 
L 346.464 233.137815 
L 346.086427 232.74 
L 344.736 231.311335 
L 344.554452 231.12 
L 343.023409 229.5 
L 343.008 229.483724 
L 341.488622 227.88 
L 341.28 227.659636 
L 339.95391 226.26 
L 339.552 225.835452 
L 338.418942 224.64 
L 337.824 224.011494 
L 336.882296 223.02 
L 336.096 222.189056 
L 335.346663 221.4 
L 334.368 220.365385 
L 333.812243 219.78 
L 332.64 218.540284 
L 332.279066 218.16 
L 330.912 216.713718 
L 330.747168 216.54 
L 329.215791 214.92 
L 329.184 214.886422 
L 327.680976 213.3 
L 327.456 213.062367 
L 326.146239 211.68 
L 325.728 211.238212 
L 324.61109 210.06 
L 324 209.414435 
L 323.07443 208.44 
L 322.272 207.591997 
L 321.538865 206.82 
L 320.544 205.768247 
L 320.004514 205.2 
L 318.816 203.943065 
L 318.47141 203.58 
L 317.088 202.116415 
L 316.939587 201.96 
L 315.407872 200.34 
L 315.36 200.289438 
L 313.873029 198.72 
L 313.632 198.465415 
L 312.338266 197.1 
L 311.904 196.64129 
L 310.802931 195.48 
L 310.176 194.817699 
L 309.266273 193.86 
L 308.448 192.995247 
L 307.730774 192.24 
L 306.72 191.171419 
L 306.196492 190.62 
L 304.992 189.346158 
L 304.663458 189 
L 303.264 187.519425 
L 303.131707 187.38 
L 301.599652 185.76 
L 301.536 185.692772 
L 300.064781 184.14 
L 299.808 183.868782 
L 298.529993 182.52 
L 298.08 182.044686 
L 296.994434 180.9 
L 296.352 180.221316 
L 295.457825 179.28 
L 294.624 178.398804 
L 293.922391 177.66 
L 292.896 176.574901 
L 292.388174 176.04 
L 291.168 174.749562 
L 290.855209 174.42 
L 289.44 172.92275 
L 289.32353 172.8 
L 287.791132 171.18 
L 287.712 171.096424 
L 286.256233 169.56 
L 285.984 169.272466 
L 284.72142 167.94 
L 284.256 167.4484 
L 283.185646 166.32 
L 282.528 165.625241 
L 281.649086 164.7 
L 280.8 163.80267 
L 280.113713 163.08 
L 279.072 161.978694 
L 278.579562 161.46 
L 277.344 160.153279 
L 277.046663 159.84 
L 275.616 158.32639 
L 275.515053 158.22 
L 273.98231 156.6 
L 273.888 156.500395 
L 272.447384 154.98 
L 272.16 154.676469 
L 270.912545 153.36 
L 270.432 152.852433 
L 269.376556 151.74 
L 268.704 151.029486 
L 267.840054 150.12 
L 266.976 149.206845 
L 266.304742 148.5 
L 265.248 147.382798 
L 264.770653 146.88 
L 263.52 145.55731 
L 263.23782 145.26 
L 261.792 143.730344 
L 261.706277 143.64 
L 260.173188 142.02 
L 260.064 141.904684 
L 258.638234 140.4 
L 258.336 140.080791 
L 257.10337 138.78 
L 256.608 138.256784 
L 255.567174 137.16 
L 254.88 136.434037 
L 254.030729 135.54 
L 253.152 134.611329 
L 252.495477 133.92 
L 251.424 132.787214 
L 250.961449 132.3 
L 249.696 130.961654 
L 249.428679 130.68 
L 247.968 129.134615 
L 247.897202 129.06 
L 246.363765 127.44 
L 246.24 127.309291 
L 244.828783 125.82 
L 244.512 125.48543 
L 243.293894 124.2 
L 242.784 123.661453 
L 241.757501 122.58 
L 241.056 121.838897 
L 240.221112 120.96 
L 239.328 120.016124 
L 238.685916 119.34 
L 237.6 118.191941 
L 237.151948 117.72 
L 235.872 116.366313 
L 235.619239 116.1 
L 234.144 114.539203 
L 234.087826 114.48 
L 232.554041 112.86 
L 232.416 112.714217 
L 231.019031 111.24 
L 230.688 110.890388 
L 229.484109 109.62 
L 228.96 109.066449 
L 227.947536 108 
L 227.232 107.244065 
L 226.4112 106.38 
L 225.504 105.421229 
L 224.876061 104.76 
L 223.776 103.596982 
L 223.342149 103.14 
L 222.048 101.771286 
L 221.809501 101.52 
L 220.32 99.944107 
L 220.278149 99.9 
L 218.744016 98.28 
L 218.592 98.119461 
L 217.208978 96.66 
L 216.864 96.295665 
L 215.673997 95.04 
L 215.136 94.471789 
L 214.13728 93.42 
L 213.408 92.649542 
L 212.600995 91.8 
L 211.68 90.826646 
L 211.065909 90.18 
L 209.952 89.002335 
L 209.532054 88.56 
L 208.224 87.176575 
L 207.999463 86.94 
L 206.496 85.349329 
L 206.468171 85.32 
L 204.93369 83.7 
L 204.768 83.525024 
L 203.398625 82.08 
L 203.04 81.70126 
L 201.863577 80.46 
L 201.312 79.877455 
L 200.326731 78.84 
L 199.584 78.055328 
L 198.790496 77.22 
L 197.856 76.232374 
L 197.255462 75.6 
L 196.128 74.408003 
L 195.72166 73.98 
L 194.4 72.58218 
L 194.189125 72.36 
L 192.672 70.754869 
L 192.657891 70.74 
L 191.123062 69.12 
L 190.944 68.930905 
L 189.58797 67.5 
L 189.216 67.107173 
L 188.052834 65.88 
L 187.488 65.28346 
L 186.515888 64.26 
L 185.76 63.461425 
L 184.979701 62.64 
L 184.032 61.638414 
L 183.444717 61.02 
L 182.304 59.813984 
L 181.910968 59.4 
L 180.576 57.988101 
L 180.378487 57.78 
L 178.848 56.160728 
L 178.84731 56.16 
L 177.312134 54.54 
L 177.12 54.337105 
L 175.777014 52.92 
L 175.392 52.513405 
L 174.241773 51.3 
L 173.664 50.689799 
L 172.704751 49.68 
L 171.936 48.867832 
L 171.168612 48.06 
L 170.208 47.044767 
L 169.633676 46.44 
L 168.48 45.220281 
L 168.099977 44.82 
L 166.752 43.394339 
L 166.567548 43.2 
L 165.024 43.2 
L 163.296 43.2 
L 161.568 43.2 
L 159.84 43.2 
L 158.112 43.2 
L 156.384 43.2 
L 154.656 43.2 
L 152.928 43.2 
L 151.2 43.2 
L 149.472 43.2 
L 147.744 43.2 
L 146.016 43.2 
L 144.288 43.2 
L 142.56 43.2 
L 140.832 43.2 
L 139.104 43.2 
L 137.376 43.2 
L 135.648 43.2 
L 133.92 43.2 
L 132.393338 43.2 
L 133.913816 44.82 
L 133.92 44.826581 
L 135.463171 46.44 
L 135.648 46.636667 
L 137.010051 48.06 
L 137.376 48.449712 
L 138.552937 49.68 
L 139.104 50.267151 
L 140.091607 51.3 
L 140.832 52.088695 
L 141.627304 52.92 
L 142.56 53.913292 
L 143.159884 54.54 
L 144.288 55.741233 
L 144.689053 56.16 
L 146.016 57.57517 
L 146.211966 57.78 
L 147.733095 59.4 
L 147.744 59.411607 
L 149.282311 61.02 
L 149.472 61.221856 
L 150.82904 62.64 
L 151.2 63.035099 
L 152.371684 64.26 
L 152.928 64.852799 
L 153.910176 65.88 
L 154.656 66.674547 
L 155.445681 67.5 
L 156.384 68.499362 
L 156.978056 69.12 
L 158.112 70.327603 
L 158.50694 70.74 
L 159.84 72.161814 
L 160.029592 72.36 
L 161.55152 73.98 
L 161.568 73.997543 
L 163.100583 75.6 
L 163.296 75.80797 
L 164.647147 77.22 
L 165.024 77.621431 
L 166.189522 78.84 
L 166.752 79.439416 
L 167.72782 80.46 
L 168.48 81.261384 
L 169.263119 82.08 
L 170.208 83.086432 
L 170.795273 83.7 
L 171.936 84.915 
L 172.323924 85.32 
L 173.664 86.74946 
L 173.846216 86.94 
L 175.36909 88.56 
L 175.392 88.584389 
L 176.917988 90.18 
L 177.12 90.395007 
L 178.464373 91.8 
L 178.848 92.208706 
L 180.00645 93.42 
L 180.576 94.027002 
L 181.54454 95.04 
L 182.304 95.849204 
L 183.079617 96.66 
L 184.032 97.6745 
L 184.611536 98.28 
L 185.76 99.503424 
L 186.139815 99.9 
L 187.488 101.338216 
L 187.661838 101.52 
L 189.185806 103.14 
L 189.216 103.172146 
L 190.734524 104.76 
L 190.944 104.982969 
L 192.280716 106.38 
L 192.672 106.796925 
L 193.822468 108 
L 194.4 108.615556 
L 195.360335 109.62 
L 196.128 110.438008 
L 196.895175 111.24 
L 197.856 112.263568 
L 198.426843 112.86 
L 199.584 114.092877 
L 199.95472 114.48 
L 201.312 115.928021 
L 201.476458 116.1 
L 203.001669 117.72 
L 203.04 117.760813 
L 204.550193 119.34 
L 204.768 119.571855 
L 206.096178 120.96 
L 206.496 121.386089 
L 207.637576 122.58 
L 208.224 123.205081 
L 209.175205 124.2 
L 209.952 125.027798 
L 210.709793 125.82 
L 211.68 126.853636 
L 212.241195 127.44 
L 213.408 128.68336 
L 213.768638 129.06 
L 215.136 130.518876 
L 215.290075 130.68 
L 216.816677 132.3 
L 216.864 132.35039 
L 218.364993 133.92 
L 218.592 134.161665 
L 219.910759 135.54 
L 220.32 135.9762 
L 221.451774 137.16 
L 222.048 137.795575 
L 222.989149 138.78 
L 223.776 139.618573 
L 224.523469 140.4 
L 225.504 141.444706 
L 226.054589 142.02 
L 227.232 143.274875 
L 227.581569 143.64 
L 228.96 145.110783 
L 229.102686 145.26 
L 230.63083 146.88 
L 230.688 146.94088 
L 232.178924 148.5 
L 232.416 148.752348 
L 233.724537 150.12 
L 234.144 150.56726 
L 235.26506 151.74 
L 235.872 152.387042 
L 236.802166 153.36 
L 237.6 154.210335 
L 238.336203 154.98 
L 239.328 156.036778 
L 239.867025 156.6 
L 241.056 157.867424 
L 241.393509 158.22 
L 242.784 159.703743 
L 242.914291 159.84 
L 244.444127 161.46 
L 244.512 161.532283 
L 245.991985 163.08 
L 246.24 163.344038 
L 247.537309 164.7 
L 247.968 165.159269 
L 249.077432 166.32 
L 249.696 166.979482 
L 250.614254 167.94 
L 251.424 168.803087 
L 252.147992 169.56 
L 253.152 170.629855 
L 253.6785 171.18 
L 254.88 172.46101 
L 255.204459 172.8 
L 256.608 174.297759 
L 256.724887 174.42 
L 258.256566 176.04 
L 258.336 176.124601 
L 259.804173 177.66 
L 260.064 177.936662 
L 261.349413 179.28 
L 261.792 179.752004 
L 262.888889 180.9 
L 263.52 181.572898 
L 264.425412 182.52 
L 265.248 183.39683 
L 265.958834 184.14 
L 266.976 185.22394 
L 267.489013 185.76 
L 268.704 187.055636 
L 269.014414 187.38 
L 270.432 188.892833 
L 270.534472 189 
L 272.068146 190.62 
L 272.16 190.717836 
L 273.615487 192.24 
L 273.888 192.530223 
L 275.160253 193.86 
L 275.616 194.34607 
L 276.699429 195.48 
L 277.344 196.167292 
L 278.235636 197.1 
L 279.072 197.991566 
L 279.768728 198.72 
L 280.8 199.819034 
L 281.29856 200.34 
L 282.528 201.651307 
L 282.823372 201.96 
L 284.256 203.488968 
L 284.343042 203.58 
L 285.878863 205.2 
L 285.984 205.311991 
L 287.425925 206.82 
L 287.712 207.124726 
L 288.970188 208.44 
L 289.44 208.941101 
L 290.509048 210.06 
L 291.168 210.762667 
L 292.044924 211.68 
L 292.896 212.5873 
L 293.577669 213.3 
L 294.624 214.415141 
L 295.10714 214.92 
L 296.352 216.248025 
L 296.63133 216.54 
L 298.08 218.086168 
L 298.150595 218.16 
L 299.688716 219.78 
L 299.808 219.907068 
L 301.235483 221.4 
L 301.536 221.720172 
L 302.779216 223.02 
L 303.264 223.537101 
L 304.317744 224.64 
L 304.992 225.359026 
L 305.853273 226.26 
L 306.72 227.184034 
L 307.385656 227.88 
L 308.448 229.012265 
L 308.914748 229.5 
L 310.176 230.845797 
L 310.438285 231.12 
L 311.904 232.684437 
L 311.957127 232.74 
L 313.497701 234.36 
L 313.632 234.503071 
L 315.044159 235.98 
L 315.36 236.316567 
L 316.587333 237.6 
L 317.088 238.134073 
L 318.125514 239.22 
L 318.816 239.956374 
L 319.660679 240.84 
L 320.544 241.781772 
L 321.192683 242.46 
L 322.272 243.61 
L 322.721788 244.08 
L 324 245.444626 
L 324.244232 245.7 
L 325.728 247.283779 
L 325.762633 247.32 
L 327.305816 248.94 
L 327.456 249.100003 
L 328.85195 250.56 
L 329.184 250.913915 
L 330.394535 252.18 
L 330.912 252.732021 
L 331.932353 253.8 
L 332.64 254.554713 
L 333.467139 255.42 
L 334.368 256.380517 
L 334.998748 257.04 
L 336.096 258.209368 
L 336.527242 258.66 
L 337.824 260.044518 
L 338.049167 260.28 
L 339.552 261.884198 
L 339.567109 261.9 
L 341.113055 263.52 
L 341.28 263.697868 
L 342.658851 265.14 
L 343.008 265.512221 
L 344.200819 266.76 
L 344.736 267.330949 
L 345.738258 268.38 
L 346.464 269.154048 
L 347.272649 270 
L 348.192 270.980275 
L 348.803847 271.62 
L 349.92 272.809783 
L 350.331696 273.24 
L 351.648 274.645479 
L 351.853085 274.86 
L 353.371415 276.48 
L 353.376 276.484886 
L 354.919417 278.1 
L 355.104 278.29667 
L 356.464858 279.72 
L 356.832 280.111491 
L 358.006179 281.34 
L 358.56 281.930862 
L 359.543223 282.96 
L 360.288 283.754384 
L 361.077203 284.58 
L 362.016 285.581051 
L 362.607973 286.2 
L 363.744 287.411252 
L 364.135222 287.82 
L 365.472 289.247471 
L 365.655981 289.44 
L 367.177247 291.06 
L 367.2 291.08425 
L 368.724895 292.68 
L 368.928 292.896415 
L 370.269967 294.3 
L 370.656 294.71173 
L 371.810612 295.92 
L 372.384 296.531765 
L 373.347245 297.54 
L 374.112 298.355726 
L 374.880797 299.16 
L 375.84 300.182848 
L 376.411123 300.78 
L 377.568 302.013781 
L 377.937585 302.4 
L 379.296 303.850629 
L 379.457851 304.02 
L 380.982205 305.64 
L 381.024 305.684546 
L 382.529485 307.26 
L 382.752 307.497107 
L 384.074173 308.88 
L 384.48 309.312945 
L 385.614113 310.5 
L 386.208 311.133663 
L 387.150318 312.12 
L 387.936 312.95808 
L 388.683426 313.74 
L 389.664 314.785674 
L 390.213291 315.36 
L 391.392 316.617377 
L 391.738934 316.98 
L 393.12 318.454869 
L 393.258687 318.6 
L 394.786286 320.22 
L 394.848 320.28578 
L 396.333182 321.84 
L 396.576 322.09871 
L 397.877532 323.46 
L 398.304 323.915142 
L 399.416674 325.08 
L 400.032 325.736562 
L 400.952436 326.7 
L 401.76 327.561452 
L 402.485084 328.32 
L 403.488 329.389533 
L 404.014472 329.94 
L 405.216 331.222049 
L 405.539261 331.56 
L 406.944 333.060196 
L 407.058484 333.18 
L 408.589483 334.8 
L 408.672 334.887956 
L 410.135981 336.42 
z
" clip-path="url(#pf9320853b8)" style="fill: #008000; fill-opacity: 0.6"/>
   </g>
   <g id="matplotlib.axis_1">
    <g id="xtick_1">
     <g id="line2d_1">
      <defs>
       <path id="m539f38458e" d="M 0 0 
L 0 3.5 
" style="stroke: #000000; stroke-width: 0.8"/>
      </defs>
      <g>
       <use xlink:href="#m539f38458e" x="64.8" y="367.2" style="stroke: #000000; stroke-width: 0.8"/>
      </g>
     </g>
     <g id="text_1">
      <!-- -1.0 -->
      <g transform="translate(49.705953 388.036997)scale(0.2 -0.2)">
       <defs>
        <path id="CMSS17-2d" d="M 1664 1216 
L 1664 1587 
L 64 1587 
L 64 1216 
L 1664 1216 
z
" transform="scale(0.015625)"/>
        <path id="CMSS17-31" d="M 1818 4288 
L 1696 4288 
C 1350 3949 947 3902 538 3891 
L 538 3520 
C 723 3526 1024 3539 1325 3673 
L 1325 371 
L 570 371 
L 570 0 
L 2573 0 
L 2573 371 
L 1818 371 
L 1818 4288 
z
" transform="scale(0.015625)"/>
        <path id="CMSS17-2e" d="M 1088 512 
L 576 512 
L 576 0 
L 1088 0 
L 1088 512 
z
" transform="scale(0.015625)"/>
        <path id="CMSS17-30" d="M 2758 2073 
C 2758 2439 2752 3120 2490 3647 
C 2227 4153 1805 4288 1504 4288 
C 1069 4288 698 4031 506 3621 
C 301 3191 243 2748 243 2073 
C 243 1611 262 1046 493 551 
C 755 6 1197 -128 1498 -128 
C 1894 -128 2278 83 2496 525 
C 2720 988 2758 1495 2758 2073 
z
M 1498 262 
C 1011 262 864 821 819 1007 
C 742 1328 730 1636 730 2144 
C 730 2542 730 2992 851 3345 
C 998 3756 1254 3897 1498 3897 
C 1971 3897 2125 3422 2176 3255 
C 2272 2915 2272 2516 2272 2144 
C 2272 1546 2272 262 1498 262 
z
" transform="scale(0.015625)"/>
       </defs>
       <use xlink:href="#CMSS17-2d" transform="scale(0.996264)"/>
       <use xlink:href="#CMSS17-31" transform="translate(31.229113 0)scale(0.996264)"/>
       <use xlink:href="#CMSS17-2e" transform="translate(78.072736 0)scale(0.996264)"/>
       <use xlink:href="#CMSS17-30" transform="translate(104.096941 0)scale(0.996264)"/>
      </g>
     </g>
    </g>
    <g id="xtick_2">
     <g id="line2d_2">
      <g>
       <use xlink:href="#m539f38458e" x="151.2" y="367.2" style="stroke: #000000; stroke-width: 0.8"/>
      </g>
     </g>
     <g id="text_2">
      <!-- -0.5 -->
      <g transform="translate(136.105953 388.036997)scale(0.2 -0.2)">
       <defs>
        <path id="CMSS17-35" d="M 934 3814 
L 2502 3814 
L 2502 4224 
L 467 4224 
L 467 1830 
L 896 1830 
C 1011 2103 1248 2304 1555 2304 
C 1843 2304 2163 2044 2163 1299 
C 2163 502 1709 268 1376 268 
C 966 268 589 521 422 871 
L 218 508 
C 512 51 992 -128 1376 -128 
C 2118 -128 2701 508 2701 1286 
C 2701 2083 2182 2694 1562 2694 
C 1338 2694 1120 2617 934 2464 
L 934 3814 
z
" transform="scale(0.015625)"/>
       </defs>
       <use xlink:href="#CMSS17-2d" transform="scale(0.996264)"/>
       <use xlink:href="#CMSS17-30" transform="translate(31.229113 0)scale(0.996264)"/>
       <use xlink:href="#CMSS17-2e" transform="translate(78.072736 0)scale(0.996264)"/>
       <use xlink:href="#CMSS17-35" transform="translate(104.096941 0)scale(0.996264)"/>
      </g>
     </g>
    </g>
    <g id="xtick_3">
     <g id="line2d_3">
      <g>
       <use xlink:href="#m539f38458e" x="237.6" y="367.2" style="stroke: #000000; stroke-width: 0.8"/>
      </g>
     </g>
     <g id="text_3">
      <!-- 0.0 -->
      <g transform="translate(225.628862 388.036997)scale(0.2 -0.2)">
       <use xlink:href="#CMSS17-30" transform="scale(0.996264)"/>
       <use xlink:href="#CMSS17-2e" transform="translate(46.843624 0)scale(0.996264)"/>
       <use xlink:href="#CMSS17-30" transform="translate(72.867828 0)scale(0.996264)"/>
      </g>
     </g>
    </g>
    <g id="xtick_4">
     <g id="line2d_4">
      <g>
       <use xlink:href="#m539f38458e" x="324" y="367.2" style="stroke: #000000; stroke-width: 0.8"/>
      </g>
     </g>
     <g id="text_4">
      <!-- 0.5 -->
      <g transform="translate(312.028862 388.036997)scale(0.2 -0.2)">
       <use xlink:href="#CMSS17-30" transform="scale(0.996264)"/>
       <use xlink:href="#CMSS17-2e" transform="translate(46.843624 0)scale(0.996264)"/>
       <use xlink:href="#CMSS17-35" transform="translate(72.867828 0)scale(0.996264)"/>
      </g>
     </g>
    </g>
    <g id="xtick_5">
     <g id="line2d_5">
      <g>
       <use xlink:href="#m539f38458e" x="410.4" y="367.2" style="stroke: #000000; stroke-width: 0.8"/>
      </g>
     </g>
     <g id="text_5">
      <!-- 1.0 -->
      <g transform="translate(398.428862 388.036997)scale(0.2 -0.2)">
       <use xlink:href="#CMSS17-31" transform="scale(0.996264)"/>
       <use xlink:href="#CMSS17-2e" transform="translate(46.843624 0)scale(0.996264)"/>
       <use xlink:href="#CMSS17-30" transform="translate(72.867828 0)scale(0.996264)"/>
      </g>
     </g>
    </g>
    <g id="text_6">
     <!-- $\epsilon_{ee}^{dV}$ -->
     <g transform="translate(226.132034 412.829204)scale(0.2 -0.2)">
      <defs>
       <path id="CMMI12-f" d="M 1862 1472 
C 1958 1472 2067 1472 2067 1574 
C 2067 1657 2003 1657 1888 1657 
L 851 1657 
C 1011 2224 1389 2566 1958 2566 
L 2144 2566 
C 2253 2566 2349 2566 2349 2668 
C 2349 2752 2278 2752 2163 2752 
L 1946 2752 
C 1158 2752 294 2136 294 1141 
C 294 420 774 -64 1408 -64 
C 1818 -64 2221 193 2221 258 
C 2221 297 2202 336 2163 336 
C 2144 336 2131 330 2099 304 
C 1856 141 1619 64 1427 64 
C 1088 64 730 291 730 920 
C 730 1043 742 1212 800 1472 
L 1862 1472 
z
" transform="scale(0.015625)"/>
       <path id="CMMI12-64" d="M 3219 4255 
C 3226 4281 3238 4319 3238 4351 
C 3238 4416 3174 4416 3162 4416 
C 3155 4416 2842 4390 2810 4383 
C 2701 4377 2605 4364 2490 4358 
C 2330 4345 2285 4339 2285 4223 
C 2285 4159 2336 4159 2426 4159 
C 2739 4159 2746 4103 2746 4040 
C 2746 4002 2733 3951 2726 3932 
L 2336 2394 
C 2266 2560 2093 2816 1760 2816 
C 1037 2816 256 1883 256 938 
C 256 306 627 -64 1062 -64 
C 1414 -64 1715 210 1894 421 
C 1958 44 2259 -64 2451 -64 
C 2643 -64 2797 51 2912 281 
C 3014 498 3104 887 3104 913 
C 3104 945 3078 970 3040 970 
C 2982 970 2976 938 2950 842 
C 2854 466 2733 64 2470 64 
C 2285 64 2272 230 2272 357 
C 2272 383 2272 517 2317 696 
L 3219 4255 
z
M 1926 759 
C 1894 651 1894 638 1805 517 
C 1664 338 1382 64 1082 64 
C 819 64 672 300 672 676 
C 672 1028 870 1743 992 2011 
C 1210 2458 1510 2687 1760 2687 
C 2182 2687 2266 2164 2266 2113 
C 2266 2107 2246 2024 2240 2011 
L 1926 759 
z
" transform="scale(0.015625)"/>
       <path id="CMMI12-56" d="M 3962 3644 
C 4179 3987 4378 4140 4704 4166 
C 4768 4172 4819 4172 4819 4287 
C 4819 4313 4806 4352 4749 4352 
C 4634 4352 4358 4339 4243 4339 
C 4058 4339 3866 4352 3686 4352 
C 3635 4352 3571 4352 3571 4230 
C 3571 4172 3629 4166 3654 4166 
C 3891 4146 3917 4032 3917 3956 
C 3917 3860 3827 3714 3821 3708 
L 1811 540 
L 1363 3968 
C 1363 4153 1696 4166 1766 4166 
C 1862 4166 1920 4166 1920 4287 
C 1920 4352 1850 4352 1830 4352 
C 1722 4352 1594 4339 1485 4339 
L 1126 4339 
C 659 4339 467 4352 461 4352 
C 422 4352 346 4352 346 4236 
C 346 4166 390 4166 493 4166 
C 819 4166 838 4108 858 3949 
L 1370 25 
C 1389 -109 1389 -128 1478 -128 
C 1555 -128 1587 -109 1651 -7 
L 3962 3644 
z
" transform="scale(0.015625)"/>
       <path id="CMMI12-65" d="M 1146 1472 
C 1318 1472 1754 1484 2061 1600 
C 2547 1786 2592 2160 2592 2275 
C 2592 2559 2349 2816 1926 2816 
C 1254 2816 288 2205 288 1066 
C 288 400 672 -64 1254 -64 
C 2125 -64 2675 609 2675 691 
C 2675 729 2637 761 2611 761 
C 2592 761 2586 755 2528 698 
C 2118 159 1510 64 1267 64 
C 902 64 710 349 710 818 
C 710 907 710 1066 806 1472 
L 1146 1472 
z
M 838 1600 
C 1114 2591 1722 2687 1926 2687 
C 2208 2687 2400 2520 2400 2275 
C 2400 1600 1376 1600 1107 1600 
L 838 1600 
z
" transform="scale(0.015625)"/>
      </defs>
      <use xlink:href="#CMMI12-f" transform="scale(0.996264)"/>
      <use xlink:href="#CMMI12-64" transform="translate(39.388958 36.153639)scale(0.697382)"/>
      <use xlink:href="#CMMI12-56" transform="translate(74.871165 36.153639)scale(0.697382)"/>
      <use xlink:href="#CMMI12-65" transform="translate(39.388958 -24.62935)scale(0.697382)"/>
      <use xlink:href="#CMMI12-65" transform="translate(71.037215 -24.62935)scale(0.697382)"/>
     </g>
    </g>
   </g>
   <g id="matplotlib.axis_2">
    <g id="ytick_1">
     <g id="line2d_6">
      <defs>
       <path id="m8d2489cf42" d="M 0 0 
L -3.5 0 
" style="stroke: #000000; stroke-width: 0.8"/>
      </defs>
      <g>
       <use xlink:href="#m8d2489cf42" x="64.8" y="367.2" style="stroke: #000000; stroke-width: 0.8"/>
      </g>
     </g>
     <g id="text_7">
      <!-- -1.0 -->
      <g transform="translate(27.611905 374.118498)scale(0.2 -0.2)">
       <use xlink:href="#CMSS17-2d" transform="scale(0.996264)"/>
       <use xlink:href="#CMSS17-31" transform="translate(31.229113 0)scale(0.996264)"/>
       <use xlink:href="#CMSS17-2e" transform="translate(78.072736 0)scale(0.996264)"/>
       <use xlink:href="#CMSS17-30" transform="translate(104.096941 0)scale(0.996264)"/>
      </g>
     </g>
    </g>
    <g id="ytick_2">
     <g id="line2d_7">
      <g>
       <use xlink:href="#m8d2489cf42" x="64.8" y="286.2" style="stroke: #000000; stroke-width: 0.8"/>
      </g>
     </g>
     <g id="text_8">
      <!-- -0.5 -->
      <g transform="translate(27.611905 293.118498)scale(0.2 -0.2)">
       <use xlink:href="#CMSS17-2d" transform="scale(0.996264)"/>
       <use xlink:href="#CMSS17-30" transform="translate(31.229113 0)scale(0.996264)"/>
       <use xlink:href="#CMSS17-2e" transform="translate(78.072736 0)scale(0.996264)"/>
       <use xlink:href="#CMSS17-35" transform="translate(104.096941 0)scale(0.996264)"/>
      </g>
     </g>
    </g>
    <g id="ytick_3">
     <g id="line2d_8">
      <g>
       <use xlink:href="#m8d2489cf42" x="64.8" y="205.2" style="stroke: #000000; stroke-width: 0.8"/>
      </g>
     </g>
     <g id="text_9">
      <!-- 0.0 -->
      <g transform="translate(33.857725 212.118498)scale(0.2 -0.2)">
       <use xlink:href="#CMSS17-30" transform="scale(0.996264)"/>
       <use xlink:href="#CMSS17-2e" transform="translate(46.843624 0)scale(0.996264)"/>
       <use xlink:href="#CMSS17-30" transform="translate(72.867828 0)scale(0.996264)"/>
      </g>
     </g>
    </g>
    <g id="ytick_4">
     <g id="line2d_9">
      <g>
       <use xlink:href="#m8d2489cf42" x="64.8" y="124.2" style="stroke: #000000; stroke-width: 0.8"/>
      </g>
     </g>
     <g id="text_10">
      <!-- 0.5 -->
      <g transform="translate(33.857725 131.118498)scale(0.2 -0.2)">
       <use xlink:href="#CMSS17-30" transform="scale(0.996264)"/>
       <use xlink:href="#CMSS17-2e" transform="translate(46.843624 0)scale(0.996264)"/>
       <use xlink:href="#CMSS17-35" transform="translate(72.867828 0)scale(0.996264)"/>
      </g>
     </g>
    </g>
    <g id="ytick_5">
     <g id="line2d_10">
      <g>
       <use xlink:href="#m8d2489cf42" x="64.8" y="43.2" style="stroke: #000000; stroke-width: 0.8"/>
      </g>
     </g>
     <g id="text_11">
      <!-- 1.0 -->
      <g transform="translate(33.857725 50.118498)scale(0.2 -0.2)">
       <use xlink:href="#CMSS17-31" transform="scale(0.996264)"/>
       <use xlink:href="#CMSS17-2e" transform="translate(46.843624 0)scale(0.996264)"/>
       <use xlink:href="#CMSS17-30" transform="translate(72.867828 0)scale(0.996264)"/>
      </g>
     </g>
    </g>
    <g id="text_12">
     <!-- $\epsilon_{ee}^{uV}$ -->
     <g transform="translate(18.686041 217.006153)rotate(-90)scale(0.2 -0.2)">
      <defs>
       <path id="CMMI12-75" d="M 2182 370 
C 2266 12 2573 -64 2726 -64 
C 2931 -64 3085 70 3187 287 
C 3296 517 3379 893 3379 913 
C 3379 944 3354 970 3315 970 
C 3258 970 3251 938 3226 842 
C 3110 402 2995 64 2739 64 
C 2547 64 2547 274 2547 357 
C 2547 504 2566 568 2630 836 
C 2675 1008 2720 1181 2758 1359 
L 3021 2400 
C 3066 2560 3066 2572 3066 2591 
C 3066 2687 2989 2752 2893 2752 
C 2707 2752 2662 2591 2624 2432 
C 2560 2183 2214 810 2170 587 
C 2163 587 1914 64 1446 64 
C 1114 64 1050 351 1050 587 
C 1050 951 1229 1462 1395 1890 
C 1472 2094 1504 2177 1504 2305 
C 1504 2579 1306 2816 998 2816 
C 410 2816 173 1890 173 1838 
C 173 1813 198 1781 243 1781 
C 301 1781 307 1807 333 1896 
C 486 2445 736 2687 979 2687 
C 1043 2687 1146 2681 1146 2477 
C 1146 2311 1075 2126 979 1883 
C 698 1123 666 881 666 689 
C 666 38 1158 -64 1421 -64 
C 1830 -64 2054 217 2182 370 
z
" transform="scale(0.015625)"/>
      </defs>
      <use xlink:href="#CMMI12-f" transform="scale(0.996264)"/>
      <use xlink:href="#CMMI12-75" transform="translate(39.388958 36.153639)scale(0.697382)"/>
      <use xlink:href="#CMMI12-56" transform="translate(78.253014 36.153639)scale(0.697382)"/>
      <use xlink:href="#CMMI12-65" transform="translate(39.388958 -24.62935)scale(0.697382)"/>
      <use xlink:href="#CMMI12-65" transform="translate(71.037215 -24.62935)scale(0.697382)"/>
     </g>
    </g>
   </g>
   <g id="line2d_11">
    <defs>
     <path id="m5e270837a7" d="M -4.5 0 
L 4.5 0 
M 0 4.5 
L 0 -4.5 
" style="stroke: #000000"/>
    </defs>
    <g clip-path="url(#pf9320853b8)">
     <use xlink:href="#m5e270837a7" x="237.6" y="205.2" style="stroke: #000000"/>
    </g>
   </g>
   <g id="patch_3">
    <path d="M 64.8 367.2 
L 64.8 43.2 
" style="fill: none; stroke: #000000; stroke-width: 0.8; stroke-linejoin: miter; stroke-linecap: square"/>
   </g>
   <g id="patch_4">
    <path d="M 410.4 367.2 
L 410.4 43.2 
" style="fill: none; stroke: #000000; stroke-width: 0.8; stroke-linejoin: miter; stroke-linecap: square"/>
   </g>
   <g id="patch_5">
    <path d="M 64.8 367.2 
L 410.4 367.2 
" style="fill: none; stroke: #000000; stroke-width: 0.8; stroke-linejoin: miter; stroke-linecap: square"/>
   </g>
   <g id="patch_6">
    <path d="M 64.8 43.2 
L 410.4 43.2 
" style="fill: none; stroke: #000000; stroke-width: 0.8; stroke-linejoin: miter; stroke-linecap: square"/>
   </g>
   <g id="legend_1">
    <g id="patch_7">
     <path d="M 75.3 359.7 
L 249.080551 359.7 
Q 252.080551 359.7 252.080551 356.7 
L 252.080551 314.850295 
Q 252.080551 311.850295 249.080551 311.850295 
L 75.3 311.850295 
Q 72.3 311.850295 72.3 314.850295 
L 72.3 356.7 
Q 72.3 359.7 75.3 359.7 
z
" style="fill: #ffffff; opacity: 0.8; stroke: #cccccc; stroke-linejoin: miter"/>
    </g>
    <g id="patch_8">
     <path d="M 78.3 329.058265 
L 108.3 329.058265 
L 108.3 318.558265 
L 78.3 318.558265 
z
" style="fill: #0000ff; opacity: 0.2; stroke: #0000ff; stroke-linejoin: miter"/>
    </g>
    <g id="text_13">
     <!-- $\mathrm{COHERENT(2017)}$ -->
     <g transform="translate(120.3 329.058265)scale(0.15 -0.15)">
      <defs>
       <path id="CMR17-43" d="M 3974 4351 
C 3974 4467 3968 4473 3930 4473 
C 3904 4473 3898 4467 3853 4390 
L 3571 3849 
C 3258 4249 2874 4480 2381 4480 
C 1286 4480 294 3507 294 2179 
C 294 837 1286 -128 2387 -128 
C 3366 -128 3974 741 3974 1482 
C 3974 1547 3974 1573 3917 1573 
C 3866 1573 3866 1553 3859 1495 
C 3808 592 3168 38 2477 38 
C 1824 38 781 502 781 2179 
C 781 3862 1843 4313 2464 4313 
C 3187 4313 3712 3681 3834 2785 
C 3846 2707 3846 2695 3904 2695 
C 3974 2695 3974 2707 3974 2824 
L 3974 4351 
z
" transform="scale(0.015625)"/>
       <path id="CMR17-4f" d="M 4307 2166 
C 4307 3488 3366 4480 2304 4480 
C 1216 4480 294 3475 294 2166 
C 294 857 1229 -128 2298 -128 
C 3392 -128 4307 876 4307 2166 
z
M 2304 -13 
C 1574 -13 781 722 781 2250 
C 781 3771 1651 4364 2298 4364 
C 2976 4364 3821 3752 3821 2250 
C 3821 696 3008 -13 2304 -13 
z
" transform="scale(0.015625)"/>
       <path id="CMR17-48" d="M 3590 3898 
C 3590 4185 3661 4185 4102 4185 
L 4102 4352 
C 3917 4339 3578 4339 3379 4339 
C 3181 4339 2842 4339 2656 4352 
L 2656 4185 
C 3098 4185 3168 4185 3168 3898 
L 3168 2342 
L 1261 2342 
L 1261 3898 
C 1261 4185 1331 4185 1773 4185 
L 1773 4352 
C 1587 4339 1248 4339 1050 4339 
C 851 4339 512 4339 326 4352 
L 326 4185 
C 768 4185 838 4185 838 3898 
L 838 452 
C 838 166 768 166 326 166 
L 326 0 
C 512 12 851 12 1050 12 
C 1248 12 1587 12 1773 0 
L 1773 166 
C 1331 166 1261 166 1261 452 
L 1261 2176 
L 3168 2176 
L 3168 452 
C 3168 166 3098 166 2656 166 
L 2656 0 
C 2842 12 3181 12 3379 12 
C 3578 12 3917 12 4102 0 
L 4102 166 
C 3661 166 3590 166 3590 452 
L 3590 3898 
z
" transform="scale(0.015625)"/>
       <path id="CMR17-45" d="M 3885 1614 
L 3770 1614 
C 3629 676 3546 166 2419 166 
L 1530 166 
C 1274 166 1261 198 1261 415 
L 1261 2176 
L 1862 2176 
C 2464 2176 2522 1959 2522 1429 
L 2637 1429 
L 2637 3086 
L 2522 3086 
C 2522 2558 2464 2342 1862 2342 
L 1261 2342 
L 1261 3924 
C 1261 4141 1274 4172 1530 4172 
L 2406 4172 
C 3398 4172 3514 3778 3603 2933 
L 3718 2933 
L 3565 4339 
L 326 4339 
L 326 4172 
C 768 4172 838 4172 838 3886 
L 838 453 
C 838 166 768 166 326 166 
L 326 0 
L 3654 0 
L 3885 1614 
z
" transform="scale(0.015625)"/>
       <path id="CMR17-52" d="M 2509 2156 
C 3117 2278 3629 2689 3629 3203 
C 3629 3806 2950 4352 2054 4352 
L 333 4352 
L 333 4185 
C 774 4185 845 4185 845 3896 
L 845 428 
C 845 140 774 140 333 140 
L 333 -26 
C 518 -13 851 -13 1050 -13 
C 1248 -13 1581 -13 1766 -26 
L 1766 140 
C 1325 140 1254 140 1254 428 
L 1254 2112 
L 2003 2112 
C 2368 2112 2573 1964 2662 1881 
C 2918 1632 2918 1459 2918 1024 
C 2918 595 2918 377 3110 160 
C 3354 -103 3680 -128 3821 -128 
C 4294 -128 4365 403 4365 512 
C 4365 550 4365 595 4307 595 
C 4256 595 4250 556 4250 531 
C 4218 115 4032 -26 3834 -26 
C 3482 -26 3443 377 3405 768 
C 3386 902 3373 998 3360 1139 
C 3322 1459 3270 1926 2509 2156 
z
M 1984 2214 
L 1254 2214 
L 1254 3935 
C 1254 4153 1267 4185 1523 4185 
L 1990 4185 
C 2522 4185 3142 3999 3142 3203 
C 3142 2374 2464 2214 1984 2214 
z
" transform="scale(0.015625)"/>
       <path id="CMR17-4e" d="M 1312 4275 
C 1267 4345 1261 4352 1139 4352 
L 326 4352 
L 326 4185 
L 448 4185 
C 704 4185 819 4153 838 4147 
L 838 624 
C 838 465 838 166 326 166 
L 326 0 
C 474 12 742 12 902 12 
C 1062 12 1331 12 1478 0 
L 1478 166 
C 966 166 966 465 966 624 
L 966 4057 
C 1011 4019 1011 4007 1056 3943 
L 3430 76 
C 3475 0 3494 0 3526 0 
C 3590 0 3590 19 3590 140 
L 3590 3726 
C 3590 3885 3590 4185 4102 4185 
L 4102 4352 
C 3955 4339 3686 4339 3526 4339 
C 3366 4339 3098 4339 2950 4352 
L 2950 4185 
C 3462 4185 3462 3885 3462 3726 
L 3462 777 
L 1312 4275 
z
" transform="scale(0.015625)"/>
       <path id="CMR17-54" d="M 3981 4332 
L 288 4332 
L 179 2924 
L 294 2924 
C 378 3981 467 4166 1453 4166 
C 1568 4166 1754 4166 1805 4159 
C 1926 4140 1926 4064 1926 3917 
L 1926 465 
C 1926 236 1907 166 1376 166 
L 1197 166 
L 1197 0 
C 1504 6 1824 12 2138 12 
C 2451 12 2771 6 3078 0 
L 3078 166 
L 2899 166 
C 2368 166 2349 236 2349 465 
L 2349 3917 
C 2349 4057 2349 4134 2464 4159 
C 2515 4166 2701 4166 2816 4166 
C 3795 4166 3891 3981 3974 2924 
L 4090 2924 
L 3981 4332 
z
" transform="scale(0.015625)"/>
       <path id="CMR17-28" d="M 1958 -1562 
C 1958 -1556 1958 -1543 1939 -1524 
C 1645 -1223 858 -403 858 1596 
C 858 3595 1632 4408 1946 4729 
C 1946 4735 1958 4748 1958 4767 
C 1958 4787 1939 4800 1914 4800 
C 1843 4800 1299 4325 986 3620 
C 666 2909 576 2218 576 1603 
C 576 1141 621 360 1005 -467 
C 1312 -1133 1837 -1600 1914 -1600 
C 1946 -1600 1958 -1588 1958 -1562 
z
" transform="scale(0.015625)"/>
       <path id="CMR17-32" d="M 2669 990 
L 2554 990 
C 2490 537 2438 460 2413 422 
C 2381 371 1920 371 1830 371 
L 602 371 
C 832 620 1280 1073 1824 1596 
C 2214 1966 2669 2400 2669 3033 
C 2669 3788 2067 4224 1395 4224 
C 691 4224 262 3603 262 3027 
C 262 2777 448 2745 525 2745 
C 589 2745 781 2783 781 3007 
C 781 3206 614 3264 525 3264 
C 486 3264 448 3257 422 3244 
C 544 3788 915 4057 1306 4057 
C 1862 4057 2227 3616 2227 3033 
C 2227 2477 1901 1998 1536 1583 
L 262 147 
L 262 0 
L 2515 0 
L 2669 990 
z
" transform="scale(0.015625)"/>
       <path id="CMR17-30" d="M 2688 2038 
C 2688 2430 2682 3099 2413 3613 
C 2176 4063 1798 4224 1466 4224 
C 1158 4224 768 4082 525 3620 
C 269 3137 243 2539 243 2038 
C 243 1671 250 1112 448 623 
C 723 -39 1216 -128 1466 -128 
C 1760 -128 2208 -7 2470 604 
C 2662 1048 2688 1568 2688 2038 
z
M 1466 -26 
C 1056 -26 813 328 723 816 
C 653 1196 653 1749 653 2109 
C 653 2604 653 3015 736 3407 
C 858 3954 1216 4121 1466 4121 
C 1728 4121 2067 3947 2189 3420 
C 2272 3054 2278 2623 2278 2109 
C 2278 1691 2278 1176 2202 797 
C 2067 96 1690 -26 1466 -26 
z
" transform="scale(0.015625)"/>
       <path id="CMR17-31" d="M 1702 4083 
C 1702 4217 1696 4224 1606 4224 
C 1357 3927 979 3833 621 3820 
C 602 3820 570 3820 563 3808 
C 557 3795 557 3782 557 3648 
C 755 3648 1088 3686 1344 3839 
L 1344 467 
C 1344 243 1331 166 781 166 
L 589 166 
L 589 0 
C 896 6 1216 12 1523 12 
C 1830 12 2150 6 2458 0 
L 2458 166 
L 2266 166 
C 1715 166 1702 236 1702 467 
L 1702 4083 
z
" transform="scale(0.015625)"/>
       <path id="CMR17-37" d="M 2886 3955 
L 2886 4096 
L 1382 4096 
C 634 4096 621 4166 595 4288 
L 480 4288 
L 294 3104 
L 410 3104 
C 429 3226 474 3552 550 3673 
C 589 3724 1062 3724 1171 3724 
L 2579 3724 
L 1869 2670 
C 1395 1961 1069 1003 1069 166 
C 1069 89 1069 -128 1299 -128 
C 1530 -128 1530 89 1530 172 
L 1530 466 
C 1530 1514 1709 2204 2003 2644 
L 2886 3955 
z
" transform="scale(0.015625)"/>
       <path id="CMR17-29" d="M 1683 1596 
C 1683 2057 1638 2839 1254 3665 
C 947 4332 422 4800 346 4800 
C 326 4800 301 4793 301 4761 
C 301 4748 307 4742 314 4729 
C 621 4408 1402 3595 1402 1603 
C 1402 -396 627 -1210 314 -1530 
C 307 -1543 301 -1549 301 -1562 
C 301 -1594 326 -1600 346 -1600 
C 416 -1600 960 -1127 1274 -422 
C 1594 289 1683 981 1683 1596 
z
" transform="scale(0.015625)"/>
      </defs>
      <use xlink:href="#CMR17-43" transform="scale(0.996264)"/>
      <use xlink:href="#CMR17-4f" transform="translate(66.509881 0)scale(0.996264)"/>
      <use xlink:href="#CMR17-48" transform="translate(138.224669 0)scale(0.996264)"/>
      <use xlink:href="#CMR17-45" transform="translate(207.297099 0)scale(0.996264)"/>
      <use xlink:href="#CMR17-52" transform="translate(269.883399 0)scale(0.996264)"/>
      <use xlink:href="#CMR17-45" transform="translate(337.674501 0)scale(0.996264)"/>
      <use xlink:href="#CMR17-4e" transform="translate(400.260802 0)scale(0.996264)"/>
      <use xlink:href="#CMR17-54" transform="translate(469.333232 0)scale(0.996264)"/>
      <use xlink:href="#CMR17-28" transform="translate(535.843112 0)scale(0.996264)"/>
      <use xlink:href="#CMR17-32" transform="translate(571.12388 0)scale(0.996264)"/>
      <use xlink:href="#CMR17-30" transform="translate(616.814357 0)scale(0.996264)"/>
      <use xlink:href="#CMR17-31" transform="translate(662.504834 0)scale(0.996264)"/>
      <use xlink:href="#CMR17-37" transform="translate(708.195311 0)scale(0.996264)"/>
      <use xlink:href="#CMR17-29" transform="translate(753.885788 0)scale(0.996264)"/>
     </g>
    </g>
    <g id="patch_9">
     <path d="M 78.3 350.794255 
L 108.3 350.794255 
L 108.3 340.294255 
L 78.3 340.294255 
z
" style="fill: #008000; opacity: 0.6; stroke: #008000; stroke-linejoin: miter"/>
    </g>
    <g id="text_14">
     <!-- $\mathrm{RELICS}$ -->
     <g transform="translate(120.3 350.794255)scale(0.15 -0.15)">
      <defs>
       <path id="CMR17-4c" d="M 3469 1612 
L 3354 1612 
C 3302 981 3219 166 2125 166 
L 1530 166 
C 1274 166 1261 198 1261 414 
L 1261 3892 
C 1261 4121 1274 4185 1760 4185 
L 1901 4185 
L 1901 4352 
C 1638 4339 1331 4339 1069 4339 
C 870 4339 512 4339 326 4352 
L 326 4185 
C 768 4185 838 4185 838 3898 
L 838 453 
C 838 166 768 166 326 166 
L 326 0 
L 3315 0 
L 3469 1612 
z
" transform="scale(0.015625)"/>
       <path id="CMR17-49" d="M 1261 3898 
C 1261 4185 1338 4185 1798 4185 
L 1798 4352 
C 1594 4339 1267 4339 1050 4339 
C 832 4339 506 4339 301 4352 
L 301 4185 
C 762 4185 838 4185 838 3898 
L 838 453 
C 838 166 762 166 301 166 
L 301 0 
C 506 12 832 12 1050 12 
C 1267 12 1594 12 1798 0 
L 1798 166 
C 1338 166 1261 166 1261 453 
L 1261 3898 
z
" transform="scale(0.015625)"/>
       <path id="CMR17-53" d="M 2803 4351 
C 2803 4467 2797 4473 2758 4473 
C 2720 4473 2707 4447 2682 4390 
L 2490 3965 
C 2246 4320 1875 4480 1472 4480 
C 819 4480 294 3958 294 3301 
C 294 3101 339 2817 557 2546 
C 794 2250 1018 2198 1530 2063 
C 1722 2011 2042 1927 2106 1901 
C 2470 1747 2662 1360 2662 999 
C 2662 534 2336 38 1779 38 
C 1094 38 454 425 410 1328 
C 403 1431 397 1437 352 1437 
C 301 1437 294 1431 294 1302 
L 294 0 
C 294 -116 301 -122 339 -122 
C 384 -122 397 -90 486 109 
C 493 128 493 141 614 386 
C 934 -39 1472 -128 1779 -128 
C 2477 -128 2970 457 2970 1141 
C 2970 1476 2848 1734 2778 1850 
C 2509 2263 2221 2340 1914 2417 
C 1869 2437 1856 2437 1498 2527 
C 1152 2617 1005 2662 845 2836 
C 666 3036 602 3243 602 3449 
C 602 3868 934 4326 1478 4326 
C 2157 4326 2579 3842 2675 3036 
C 2694 2920 2701 2914 2746 2914 
C 2803 2914 2803 2933 2803 3043 
L 2803 4351 
z
" transform="scale(0.015625)"/>
      </defs>
      <use xlink:href="#CMR17-52" transform="scale(0.996264)"/>
      <use xlink:href="#CMR17-45" transform="translate(67.791102 0)scale(0.996264)"/>
      <use xlink:href="#CMR17-4c" transform="translate(130.377402 0)scale(0.996264)"/>
      <use xlink:href="#CMR17-49" transform="translate(187.75881 0)scale(0.996264)"/>
      <use xlink:href="#CMR17-43" transform="translate(220.39722 0)scale(0.996264)"/>
      <use xlink:href="#CMR17-53" transform="translate(286.9071 0)scale(0.996264)"/>
     </g>
    </g>
   </g>
  </g>
 </g>
 <defs>
  <clipPath id="pf9320853b8">
   <rect x="64.8" y="43.2" width="345.6" height="324"/>
  </clipPath>
 </defs>
</svg>
