<?xml version="1.0" encoding="utf-8" standalone="no"?>
<!DOCTYPE svg PUBLIC "-//W3C//DTD SVG 1.1//EN"
  "http://www.w3.org/Graphics/SVG/1.1/DTD/svg11.dtd">
<svg xmlns:xlink="http://www.w3.org/1999/xlink" width="432pt" height="432pt" viewBox="0 0 432 432" xmlns="http://www.w3.org/2000/svg" version="1.1">
 <metadata>
  <rdf:RDF xmlns:dc="http://purl.org/dc/elements/1.1/" xmlns:cc="http://creativecommons.org/ns#" xmlns:rdf="http://www.w3.org/1999/02/22-rdf-syntax-ns#">
   <cc:Work>
    <dc:type rdf:resource="http://purl.org/dc/dcmitype/StillImage"/>
    <dc:date>2022-05-27T02:05:38.761758</dc:date>
    <dc:format>image/svg+xml</dc:format>
    <dc:creator>
     <cc:Agent>
      <dc:title>Matplotlib v3.5.1, https://matplotlib.org/</dc:title>
     </cc:Agent>
    </dc:creator>
   </cc:Work>
  </rdf:RDF>
 </metadata>
 <defs>
  <style type="text/css">*{stroke-linejoin: round; stroke-linecap: butt}</style>
 </defs>
 <g id="figure_1">
  <g id="patch_1">
   <path d="M 0 432 
L 432 432 
L 432 0 
L 0 0 
L 0 432 
z
" style="fill: none"/>
  </g>
  <g id="axes_1">
   <g id="patch_2">
    <path d="M 64.8 367.2 
L 410.4 367.2 
L 410.4 43.2 
L 64.8 43.2 
L 64.8 367.2 
z
" style="fill: none"/>
   </g>
   <g id="PolyCollection_1">
    <path d="M 64.8 39.966017 
L 64.8 39.966017 
L 68.256 43.590767 
L 71.712 47.215518 
L 75.168 50.840269 
L 78.624 54.465019 
L 82.08 58.08977 
L 85.536 61.71452 
L 88.992 65.339271 
L 92.448 68.964021 
L 95.904 72.588772 
L 99.36 76.213522 
L 102.816 79.838273 
L 106.272 83.463024 
L 109.728 87.087774 
L 113.184 90.712525 
L 116.64 94.337275 
L 120.096 97.962026 
L 123.552 101.586776 
L 127.008 105.211527 
L 130.464 108.836278 
L 133.92 112.461028 
L 137.376 116.085779 
L 140.832 119.710529 
L 144.288 123.33528 
L 147.744 126.96003 
L 151.2 130.584781 
L 154.656 134.209532 
L 158.112 137.834282 
L 161.568 141.459033 
L 165.024 145.083783 
L 168.48 148.708534 
L 171.936 152.333284 
L 175.392 155.958035 
L 178.848 159.582785 
L 182.304 163.207536 
L 185.76 166.832287 
L 189.216 170.457037 
L 192.672 174.081788 
L 196.128 177.706538 
L 199.584 181.331289 
L 203.04 184.956039 
L 206.496 188.58079 
L 209.952 192.205541 
L 213.408 195.830291 
L 216.864 199.455042 
L 220.32 203.079792 
L 223.776 206.704543 
L 227.232 210.329293 
L 230.688 213.954044 
L 234.144 217.578794 
L 237.6 221.203545 
L 241.056 224.828296 
L 244.512 228.453046 
L 247.968 232.077797 
L 251.424 235.702547 
L 254.88 239.327298 
L 258.336 242.952048 
L 261.792 246.576799 
L 265.248 250.20155 
L 268.704 253.8263 
L 272.16 257.451051 
L 275.616 261.075801 
L 279.072 264.700552 
L 282.528 268.325302 
L 285.984 271.950053 
L 289.44 275.574804 
L 292.896 279.199554 
L 296.352 282.824305 
L 299.808 286.449055 
L 303.264 290.073806 
L 306.72 293.698556 
L 310.176 297.323307 
L 313.632 300.948057 
L 317.088 304.572808 
L 320.544 308.197559 
L 324 311.822309 
L 327.456 315.44706 
L 330.912 319.07181 
L 334.368 322.696561 
L 337.824 326.321311 
L 341.28 329.946062 
L 344.736 333.570813 
L 348.192 337.195563 
L 351.648 340.820314 
L 355.104 344.445064 
L 358.56 348.069815 
L 362.016 351.694565 
L 365.472 355.319316 
L 368.928 358.944066 
L 372.384 362.568817 
L 375.84 366.193568 
L 379.296 369.818318 
L 382.752 373.443069 
L 386.208 377.067819 
L 389.664 380.69257 
L 393.12 384.31732 
L 396.576 387.942071 
L 400.032 391.566822 
L 403.488 395.191572 
L 406.944 398.816323 
L 410.4 402.441073 
L 410.4 402.441073 
L 410.4 303.92687 
L 406.944 300.301648 
L 403.488 296.676426 
L 400.032 293.051205 
L 396.576 289.425983 
L 393.12 285.800761 
L 389.664 282.17554 
L 386.208 278.550318 
L 382.752 274.925096 
L 379.296 271.299874 
L 375.84 267.674653 
L 372.384 264.049431 
L 368.928 260.424209 
L 365.472 256.798988 
L 362.016 253.173766 
L 358.56 249.548544 
L 355.104 245.923323 
L 351.648 242.298101 
L 348.192 238.672879 
L 344.736 235.047657 
L 341.28 231.422436 
L 337.824 227.797214 
L 334.368 224.171992 
L 330.912 220.546771 
L 327.456 216.921549 
L 324 213.296327 
L 320.544 209.671106 
L 317.088 206.045884 
L 313.632 202.420662 
L 310.176 198.79544 
L 306.72 195.170219 
L 303.264 191.544997 
L 299.808 187.919775 
L 296.352 184.294554 
L 292.896 180.669332 
L 289.44 177.04411 
L 285.984 173.418889 
L 282.528 169.793667 
L 279.072 166.168445 
L 275.616 162.543223 
L 272.16 158.918002 
L 268.704 155.29278 
L 265.248 151.667558 
L 261.792 148.042337 
L 258.336 144.417115 
L 254.88 140.791893 
L 251.424 137.166672 
L 247.968 133.54145 
L 244.512 129.916228 
L 241.056 126.291006 
L 237.6 122.665785 
L 234.144 119.040563 
L 230.688 115.415341 
L 227.232 111.79012 
L 223.776 108.164898 
L 220.32 104.539676 
L 216.864 100.914455 
L 213.408 97.289233 
L 209.952 93.664011 
L 206.496 90.038789 
L 203.04 86.413568 
L 199.584 82.788346 
L 196.128 79.163124 
L 192.672 75.537903 
L 189.216 71.912681 
L 185.76 68.287459 
L 182.304 64.662238 
L 178.848 61.037016 
L 175.392 57.411794 
L 171.936 53.786573 
L 168.48 50.161351 
L 165.024 46.536129 
L 161.568 42.910907 
L 158.112 39.285686 
L 154.656 35.660464 
L 151.2 32.035242 
L 147.744 28.410021 
L 144.288 24.784799 
L 140.832 21.159577 
L 137.376 17.534356 
L 133.92 13.909134 
L 130.464 10.283912 
L 127.008 6.65869 
L 123.552 3.033469 
L 120.096 -0.591753 
L 116.64 -4.216975 
L 113.184 -7.842196 
L 109.728 -11.467418 
L 106.272 -15.09264 
L 102.816 -18.717861 
L 99.36 -22.343083 
L 95.904 -25.968305 
L 92.448 -29.593527 
L 88.992 -33.218748 
L 85.536 -36.84397 
L 82.08 -40.469192 
L 78.624 -44.094413 
L 75.168 -47.719635 
L 71.712 -51.344857 
L 68.256 -54.970078 
L 64.8 -58.5953 
z
" clip-path="url(#p67ab3a2a2b)" style="fill: #0000ff; fill-opacity: 0.2"/>
   </g>
   <g id="PathCollection_1">
    <path d="M 386.208 367.139667 
L 386.265838 367.2 
L 387.936 367.2 
L 389.664 367.2 
L 391.392 367.2 
L 393.12 367.2 
L 394.848 367.2 
L 396.325077 367.2 
L 394.849261 365.58 
L 394.848 365.578625 
L 393.268923 363.96 
L 393.12 363.797393 
L 391.69724 362.34 
L 391.392 362.006692 
L 390.135124 360.72 
L 389.664 360.204678 
L 388.584218 359.1 
L 387.936 358.391185 
L 387.044594 357.48 
L 386.208 356.563485 
L 385.519279 355.86 
L 384.48 354.721133 
L 384.008474 354.24 
L 382.752 352.860818 
L 382.515775 352.62 
L 381.034048 351 
L 381.024 350.989039 
L 379.454194 349.38 
L 379.296 349.207235 
L 377.883214 347.76 
L 377.568 347.415788 
L 376.321703 346.14 
L 375.84 345.613073 
L 374.771581 344.52 
L 374.112 343.798629 
L 373.23282 342.9 
L 372.384 341.970043 
L 371.708441 341.28 
L 370.656 340.126461 
L 370.198817 339.66 
L 368.928 338.264984 
L 368.707304 338.04 
L 367.219313 336.42 
L 367.2 336.398933 
L 365.639968 334.8 
L 365.472 334.616521 
L 364.069731 333.18 
L 363.744 332.824291 
L 362.508858 331.56 
L 362.016 331.020848 
L 360.959547 329.94 
L 360.288 329.205389 
L 359.421712 328.32 
L 358.56 327.375871 
L 357.898317 326.7 
L 356.832 325.530992 
L 356.389943 325.08 
L 355.104 323.668292 
L 354.899676 323.46 
L 353.405061 321.84 
L 353.376 321.808299 
L 351.826253 320.22 
L 351.648 320.02525 
L 350.25679 318.6 
L 349.92 318.232194 
L 348.696598 316.98 
L 348.192 316.427985 
L 347.148136 315.36 
L 346.464 314.611457 
L 345.611281 313.74 
L 344.736 312.780958 
L 344.088918 312.12 
L 343.008 310.934714 
L 342.581863 310.5 
L 341.28 309.070726 
L 341.092904 308.88 
L 339.591297 307.26 
L 339.552 307.217131 
L 338.013054 305.64 
L 337.824 305.433435 
L 336.444366 304.02 
L 336.096 303.639486 
L 334.884929 302.4 
L 334.368 301.834475 
L 333.337358 300.78 
L 332.64 300.016821 
L 331.801537 299.16 
L 330.912 298.185293 
L 330.280255 297.54 
L 329.184 296.337612 
L 328.774591 295.92 
L 327.456 294.472272 
L 327.287004 294.3 
L 325.778029 292.68 
L 325.728 292.625422 
L 324.200379 291.06 
L 324 290.841055 
L 322.632488 289.44 
L 322.272 289.046161 
L 321.073862 287.82 
L 320.544 287.240307 
L 319.527222 286.2 
L 318.816 285.421471 
L 317.99249 284.58 
L 317.088 283.588864 
L 316.47234 282.96 
L 315.36 281.739672 
L 314.968141 281.34 
L 313.632 279.872914 
L 313.481991 279.72 
L 311.965263 278.1 
L 311.904 278.033165 
L 310.388236 276.48 
L 310.176 276.248095 
L 308.821176 274.86 
L 308.448 274.452209 
L 307.263404 273.24 
L 306.72 272.645472 
L 305.717737 271.62 
L 304.992 270.825396 
L 304.184153 270 
L 303.264 268.991657 
L 302.665175 268.38 
L 301.536 267.140887 
L 301.162529 266.76 
L 299.808 265.272634 
L 299.677879 265.14 
L 298.152997 263.52 
L 298.08 263.440351 
L 296.576632 261.9 
L 296.352 261.654545 
L 295.010436 260.28 
L 294.624 259.857621 
L 293.453568 258.66 
L 292.896 258.049958 
L 291.908848 257.04 
L 291.168 256.228645 
L 290.376538 255.42 
L 289.44 254.393658 
L 288.858742 253.8 
L 287.712 252.541264 
L 287.357772 252.18 
L 285.984 250.671416 
L 285.874683 250.56 
L 284.34124 248.94 
L 284.256 248.846972 
L 282.765575 247.32 
L 282.528 247.060397 
L 281.200169 245.7 
L 280.8 245.262501 
L 279.644362 244.08 
L 279.072 243.453755 
L 278.100601 242.46 
L 277.344 241.631172 
L 276.569658 240.84 
L 275.616 239.794854 
L 275.053097 239.22 
L 273.888 237.940752 
L 273.553885 237.6 
L 272.16 236.069239 
L 272.072432 235.98 
L 270.529886 234.36 
L 270.432 234.253145 
L 268.955076 232.74 
L 268.704 232.46564 
L 267.390465 231.12 
L 266.976 230.666754 
L 265.835798 229.5 
L 265.248 228.85685 
L 264.293039 227.88 
L 263.52 227.032932 
L 262.763528 226.26 
L 261.792 225.195228 
L 261.248259 224.64 
L 260.064 223.339389 
L 259.750832 223.02 
L 258.336 221.466084 
L 258.271146 221.4 
L 256.718986 219.78 
L 256.608 219.658814 
L 255.145143 218.16 
L 254.88 217.870265 
L 253.581363 216.54 
L 253.152 216.070336 
L 252.027887 214.92 
L 251.424 214.259229 
L 250.486175 213.3 
L 249.696 212.43391 
L 248.958163 211.68 
L 247.968 210.594765 
L 247.444243 210.06 
L 246.24 208.737359 
L 245.948427 208.44 
L 244.512 206.861928 
L 244.470847 206.82 
L 242.908619 205.2 
L 242.784 205.063892 
L 241.335787 203.58 
L 241.056 203.27426 
L 239.772873 201.96 
L 239.328 201.473236 
L 238.220643 200.34 
L 237.6 199.660881 
L 236.680023 198.72 
L 235.872 197.834182 
L 235.153481 197.1 
L 234.144 195.993446 
L 233.641066 195.48 
L 232.416 194.134421 
L 232.146914 193.86 
L 230.688 192.25675 
L 230.671558 192.24 
L 229.098794 190.62 
L 228.96 190.468369 
L 227.527018 189 
L 227.232 188.677614 
L 225.965006 187.38 
L 225.504 186.87544 
L 224.414079 185.76 
L 223.776 185.061789 
L 222.874597 184.14 
L 222.048 183.233792 
L 221.349437 182.52 
L 220.32 181.391253 
L 219.838748 180.9 
L 218.592 179.530538 
L 218.346327 179.28 
L 216.869042 177.66 
L 216.864 177.654496 
L 215.289522 176.04 
L 215.136 175.872232 
L 213.718847 174.42 
L 213.408 174.080314 
L 212.157776 172.8 
L 211.68 172.277002 
L 210.608129 171.18 
L 209.952 170.461939 
L 209.069912 169.56 
L 208.224 168.632589 
L 207.546188 167.94 
L 206.496 166.788168 
L 206.037307 166.32 
L 204.768 164.925689 
L 204.546688 164.7 
L 203.059542 163.08 
L 203.04 163.058668 
L 201.480812 161.46 
L 201.312 161.27547 
L 199.911287 159.84 
L 199.584 159.482348 
L 198.351195 158.22 
L 197.856 157.677928 
L 196.802786 156.6 
L 196.128 155.861316 
L 195.265985 154.98 
L 194.4 154.030555 
L 193.743751 153.36 
L 192.672 152.184169 
L 192.236765 151.74 
L 190.944 150.319852 
L 190.748019 150.12 
L 189.250584 148.5 
L 189.216 148.462249 
L 187.672677 146.88 
L 187.488 146.678092 
L 186.104313 145.26 
L 185.76 144.883702 
L 184.545277 143.64 
L 184.032 143.078128 
L 182.99815 142.02 
L 182.304 141.259901 
L 181.462833 140.4 
L 180.576 139.427673 
L 179.942143 138.78 
L 178.848 137.579234 
L 178.437144 137.16 
L 177.12 135.713001 
L 176.950344 135.54 
L 175.442179 133.92 
L 175.392 133.865226 
L 173.865128 132.3 
L 173.664 132.080107 
L 172.297909 130.68 
L 171.936 130.284362 
L 170.740035 129.06 
L 170.208 128.477589 
L 169.194236 127.44 
L 168.48 126.657677 
L 167.660473 125.82 
L 166.752 124.823921 
L 166.141386 124.2 
L 165.024 122.973341 
L 164.638466 122.58 
L 163.296 121.105112 
L 163.15369 120.96 
L 161.634335 119.34 
L 161.568 119.267588 
L 160.058176 117.72 
L 159.84 117.481469 
L 158.492141 116.1 
L 158.112 115.684313 
L 156.935485 114.48 
L 156.384 113.876293 
L 155.391036 112.86 
L 154.656 112.054649 
L 153.858925 111.24 
L 152.928 110.21928 
L 152.341455 109.62 
L 151.2 108.366498 
L 150.840757 108 
L 149.472 106.496157 
L 149.358072 106.38 
L 147.827046 104.76 
L 147.744 104.66932 
L 146.251836 103.14 
L 146.016 102.882165 
L 144.686925 101.52 
L 144.288 101.08364 
L 143.131643 99.9 
L 142.56 99.274223 
L 141.588482 98.28 
L 140.832 97.450875 
L 140.058208 96.66 
L 139.104 95.613727 
L 138.542388 95.04 
L 137.376 93.758664 
L 137.044041 93.42 
L 135.648 91.886107 
L 135.563532 91.8 
L 134.020188 90.18 
L 133.92 90.070571 
L 132.44612 88.56 
L 132.192 88.282178 
L 130.882277 86.94 
L 130.464 86.482324 
L 129.328526 85.32 
L 128.736 84.671361 
L 127.786702 83.7 
L 127.008 82.846229 
L 126.258343 82.08 
L 125.28 81.00724 
L 124.744241 80.46 
L 123.552 79.149974 
L 123.248159 78.84 
L 121.824 77.274933 
L 121.770104 77.22 
L 120.213812 75.6 
L 120.096 75.47128 
L 118.641042 73.98 
L 118.368 73.681495 
L 117.078308 72.36 
L 116.64 71.880246 
L 115.526151 70.74 
L 114.912 70.067688 
L 113.985717 69.12 
L 113.184 68.240727 
L 112.459312 67.5 
L 111.456 66.399794 
L 110.947037 65.88 
L 109.728 64.540478 
L 109.453064 64.26 
L 108 62.662602 
L 107.977821 62.64 
L 106.408038 61.02 
L 106.272 60.871318 
L 104.836619 59.4 
L 104.544 59.080098 
L 103.275035 57.78 
L 102.816 57.277388 
L 101.724536 56.16 
L 101.088 55.463184 
L 100.185547 54.54 
L 99.36 53.634567 
L 98.660906 52.92 
L 97.632 51.791363 
L 97.150803 51.3 
L 95.904 49.929915 
L 95.659016 49.68 
L 94.181815 48.06 
L 94.176 48.053649 
L 92.60288 46.44 
L 92.448 46.270668 
L 91.032865 44.82 
L 90.72 44.477971 
L 89.472474 43.2 
L 88.992 43.2 
L 87.264 43.2 
L 85.536 43.2 
L 83.808 43.2 
L 82.08 43.2 
L 80.352 43.2 
L 79.488055 43.2 
L 80.352 44.120784 
L 81.020769 44.82 
L 82.08 45.949909 
L 82.548998 46.44 
L 83.808 47.783766 
L 84.072672 48.06 
L 85.536 49.622076 
L 85.591494 49.68 
L 87.128983 51.3 
L 87.264 51.443716 
L 88.673329 52.92 
L 88.992 53.259204 
L 90.215456 54.54 
L 90.72 55.07739 
L 91.754151 56.16 
L 92.448 56.89944 
L 93.290038 57.78 
L 94.176 58.724228 
L 94.822347 59.4 
L 95.904 60.553964 
L 96.350053 61.02 
L 97.632 62.38823 
L 97.873241 62.64 
L 99.36 64.2271 
L 99.391525 64.26 
L 100.932376 65.88 
L 101.088 66.045646 
L 102.476578 67.5 
L 102.816 67.86128 
L 104.018358 69.12 
L 104.544 69.679914 
L 105.556785 70.74 
L 106.272 71.502189 
L 107.092407 72.36 
L 108 73.327261 
L 108.62432 73.98 
L 109.728 75.157602 
L 110.1515 75.6 
L 111.456 76.992277 
L 111.674203 77.22 
L 113.184 78.831919 
L 113.191744 78.84 
L 114.73615 80.46 
L 114.912 80.647168 
L 116.28021 82.08 
L 116.64 82.46295 
L 117.821652 83.7 
L 118.368 84.282024 
L 119.359805 85.32 
L 120.096 86.104525 
L 120.895163 86.94 
L 121.824 87.92988 
L 122.426689 88.56 
L 123.552 89.760819 
L 123.95334 90.18 
L 125.28 91.595903 
L 125.475567 91.8 
L 126.994802 93.42 
L 127.008 93.434042 
L 128.540308 95.04 
L 128.736 95.248281 
L 130.084224 96.66 
L 130.464 97.064212 
L 131.625337 98.28 
L 132.192 98.883719 
L 133.163214 99.9 
L 133.92 100.706447 
L 134.698314 101.52 
L 135.648 102.53217 
L 136.229362 103.14 
L 137.376 104.363615 
L 137.755576 104.76 
L 139.104 106.199106 
L 139.277335 106.38 
L 140.799447 108 
L 140.832 108.034638 
L 142.344848 109.62 
L 142.56 109.848986 
L 143.88862 111.24 
L 144.288 111.665065 
L 145.429415 112.86 
L 146.016 113.485 
L 146.967011 114.48 
L 147.744 115.307953 
L 148.501755 116.1 
L 149.472 117.134194 
L 150.03237 117.72 
L 151.2 118.965987 
L 151.558209 119.34 
L 152.928 120.801885 
L 153.07951 120.96 
L 154.604481 122.58 
L 154.656 122.634824 
L 156.149772 124.2 
L 156.384 124.44928 
L 157.6934 125.82 
L 158.112 126.265531 
L 159.233857 127.44 
L 159.84 128.085864 
L 160.771199 129.06 
L 161.568 129.909043 
L 162.305579 130.68 
L 163.296 131.735811 
L 163.835776 132.3 
L 165.024 133.567935 
L 165.361242 133.92 
L 166.752 135.404237 
L 166.882094 135.54 
L 168.409902 137.16 
L 168.48 137.234599 
L 169.95508 138.78 
L 170.208 139.049165 
L 171.498565 140.4 
L 171.936 140.865625 
L 173.038648 142.02 
L 173.664 142.686311 
L 174.575778 143.64 
L 175.392 144.509716 
L 176.109803 145.26 
L 177.12 146.337001 
L 177.639581 146.88 
L 178.848 148.169456 
L 179.164676 148.5 
L 180.576 150.00616 
L 180.685088 150.12 
L 182.215707 151.74 
L 182.304 151.833963 
L 183.760773 153.36 
L 184.032 153.648639 
L 185.304115 154.98 
L 185.76 155.465311 
L 186.843831 156.6 
L 187.488 157.28634 
L 188.380749 158.22 
L 189.216 159.109969 
L 189.914429 159.84 
L 190.944 160.937765 
L 191.443787 161.46 
L 192.672 162.770547 
L 192.968514 163.08 
L 194.4 164.607652 
L 194.488495 164.7 
L 196.021894 166.32 
L 196.128 166.432916 
L 197.566852 167.94 
L 197.856 168.247701 
L 199.109902 169.56 
L 199.584 170.064739 
L 200.649407 171.18 
L 201.312 171.88595 
L 202.186114 172.8 
L 203.04 173.709802 
L 203.719458 174.42 
L 204.768 175.5381 
L 205.248396 176.04 
L 206.496 177.371208 
L 206.772758 177.66 
L 208.224 179.20871 
L 208.292317 179.28 
L 209.828467 180.9 
L 209.952 181.031456 
L 211.373317 182.52 
L 211.68 182.846352 
L 212.916078 184.14 
L 213.408 184.663755 
L 214.455376 185.76 
L 215.136 186.485139 
L 215.991875 187.38 
L 216.864 188.309213 
L 217.524891 189 
L 218.592 190.138004 
L 219.053411 190.62 
L 220.32 191.971437 
L 220.577403 192.24 
L 222.048 193.809334 
L 222.096556 193.86 
L 223.635427 195.48 
L 223.776 195.629584 
L 225.180169 197.1 
L 225.504 197.444589 
L 226.72265 198.72 
L 227.232 199.26235 
L 228.26174 200.34 
L 228.96 201.083907 
L 229.798031 201.96 
L 230.688 202.908201 
L 231.33073 203.58 
L 232.416 204.737477 
L 232.858832 205.2 
L 234.144 206.571231 
L 234.382435 206.82 
L 235.872 208.409608 
L 235.90113 208.44 
L 237.442774 210.06 
L 237.6 210.227299 
L 238.987409 211.68 
L 239.328 212.042413 
L 240.529619 213.3 
L 241.056 213.860525 
L 242.068499 214.92 
L 242.784 215.682253 
L 243.604585 216.54 
L 244.512 217.506765 
L 245.136975 218.16 
L 246.24 219.336517 
L 246.664662 219.78 
L 247.968 221.170587 
L 248.187885 221.4 
L 249.696 223.009574 
L 249.705995 223.02 
L 251.250509 224.64 
L 251.424 224.824601 
L 252.795037 226.26 
L 253.152 226.639822 
L 254.336985 227.88 
L 254.88 228.458277 
L 255.875655 229.5 
L 256.608 230.280175 
L 257.411539 231.12 
L 258.336 232.104902 
L 258.943627 232.74 
L 260.064 233.935121 
L 260.470902 234.36 
L 261.792 235.769506 
L 261.993755 235.98 
L 263.51264 237.6 
L 263.52 237.607828 
L 265.058632 239.22 
L 265.248 239.421488 
L 266.603055 240.84 
L 266.976 241.236817 
L 268.144749 242.46 
L 268.704 243.055606 
L 269.683209 244.08 
L 270.432 244.877672 
L 271.218893 245.7 
L 272.16 246.702634 
L 272.750668 247.32 
L 273.888 248.533289 
L 274.277555 248.94 
L 275.616 250.367983 
L 275.800048 250.56 
L 277.321224 252.18 
L 277.344 252.204226 
L 278.867144 253.8 
L 279.072 254.01796 
L 280.411463 255.42 
L 280.8 255.833395 
L 281.952913 257.04 
L 282.528 257.652511 
L 283.491163 258.66 
L 284.256 259.474744 
L 285.026628 260.28 
L 285.984 261.300054 
L 286.558018 261.9 
L 287.712 263.131018 
L 288.084623 263.52 
L 289.44 264.966017 
L 289.606765 265.14 
L 291.1302 266.76 
L 291.168 266.80021 
L 292.676045 268.38 
L 292.896 268.614017 
L 294.220262 270 
L 294.624 270.429556 
L 295.761475 271.62 
L 296.352 272.248992 
L 297.299517 273.24 
L 298.08 274.071387 
L 298.834705 274.86 
L 299.808 275.897098 
L 300.365781 276.48 
L 301.536 277.728306 
L 301.892107 278.1 
L 303.264 279.563606 
L 303.413909 279.72 
L 304.939567 281.34 
L 304.992 281.395778 
L 306.485337 282.96 
L 306.72 283.209657 
L 308.029453 284.58 
L 308.448 285.02532 
L 309.570413 286.2 
L 310.176 286.845046 
L 311.108272 287.82 
L 311.904 288.667603 
L 312.643192 289.44 
L 313.632 290.493704 
L 314.173958 291.06 
L 315.36 292.325152 
L 315.70001 292.68 
L 317.088 294.160747 
L 317.221481 294.3 
L 318.749326 295.92 
L 318.816 295.99093 
L 320.29502 297.54 
L 320.544 297.804881 
L 321.839037 299.16 
L 322.272 299.62069 
L 323.379723 300.78 
L 324 301.440673 
L 324.91743 302.4 
L 325.728 303.263388 
L 326.452091 304.02 
L 327.456 305.08987 
L 327.98255 305.64 
L 329.184 306.921554 
L 329.508333 307.26 
L 330.912 308.757439 
L 331.029483 308.88 
L 332.559476 310.5 
L 332.64 310.585666 
L 334.105095 312.12 
L 334.368 312.399687 
L 335.649014 313.74 
L 336.096 314.215642 
L 337.189433 315.36 
L 337.824 316.035873 
L 338.726992 316.98 
L 339.552 317.858742 
L 340.261403 318.6 
L 341.28 319.685595 
L 341.79156 320.22 
L 343.008 321.517511 
L 343.317079 321.84 
L 344.736 323.353679 
L 344.837917 323.46 
L 346.370013 325.08 
L 346.464 325.179985 
L 347.915562 326.7 
L 348.192 326.994074 
L 349.459353 328.32 
L 349.92 328.810209 
L 350.999545 329.94 
L 351.648 330.630643 
L 352.53696 331.56 
L 353.376 332.453664 
L 354.07113 333.18 
L 355.104 334.280877 
L 355.600988 334.8 
L 356.832 336.11302 
L 357.12625 336.42 
L 358.56 337.949466 
L 358.646787 338.04 
L 360.180942 339.66 
L 360.288 339.773886 
L 361.726423 341.28 
L 362.016 341.588043 
L 363.270007 342.9 
L 363.744 343.404436 
L 364.810061 344.52 
L 365.472 345.224983 
L 366.347334 346.14 
L 367.2 347.048152 
L 367.881272 347.76 
L 368.928 348.875716 
L 369.410837 349.38 
L 370.656 350.708079 
L 370.935847 351 
L 372.384 352.544796 
L 372.456093 352.62 
L 373.992263 354.24 
L 374.112 354.36737 
L 375.537677 355.86 
L 375.84 356.181591 
L 377.081064 357.48 
L 377.568 357.998234 
L 378.62098 359.1 
L 379.296 359.818891 
L 380.158116 360.72 
L 381.024 361.642205 
L 381.691831 362.34 
L 382.752 363.470108 
L 383.221108 363.96 
L 384.48 365.302687 
L 384.745874 365.58 
z
" clip-path="url(#p67ab3a2a2b)" style="fill: #008000; fill-opacity: 0.6"/>
    <path d="M 410.4 326.855723 
L 410.4 326.7 
L 410.4 325.08 
L 410.4 323.46 
L 410.4 321.84 
L 410.4 320.22 
L 410.4 318.6 
L 410.4 316.98 
L 410.4 316.237584 
L 409.560625 315.36 
L 408.672 314.413138 
L 408.028046 313.74 
L 406.944 312.583721 
L 406.500065 312.12 
L 405.216 310.749809 
L 404.976591 310.5 
L 403.488 308.91128 
L 403.458021 308.88 
L 401.916639 307.26 
L 401.76 307.093309 
L 400.372138 305.64 
L 400.032 305.278034 
L 398.830061 304.02 
L 398.304 303.459762 
L 397.29132 302.4 
L 396.576 301.637864 
L 395.755377 300.78 
L 394.848 299.813179 
L 394.223135 299.16 
L 393.12 297.983246 
L 392.695603 297.54 
L 391.392 296.148989 
L 391.172541 295.92 
L 389.664 294.309799 
L 389.654607 294.3 
L 388.110141 292.68 
L 387.936 292.49469 
L 386.565757 291.06 
L 386.208 290.679295 
L 385.023966 289.44 
L 384.48 288.86065 
L 383.485455 287.82 
L 382.752 287.038565 
L 381.949733 286.2 
L 381.024 285.213643 
L 380.417819 284.58 
L 379.296 283.383203 
L 378.890736 282.96 
L 377.568 281.548602 
L 377.368077 281.34 
L 375.849096 279.72 
L 375.84 279.710324 
L 374.303255 278.1 
L 374.112 277.896484 
L 372.758989 276.48 
L 372.384 276.080969 
L 371.217474 274.86 
L 370.656 274.261958 
L 369.679194 273.24 
L 368.928 272.439687 
L 368.143693 271.62 
L 367.2 270.614489 
L 366.61214 270 
L 365.472 268.783591 
L 365.085461 268.38 
L 363.744 266.94865 
L 363.563196 266.76 
L 362.041742 265.14 
L 362.016 265.112616 
L 360.495983 263.52 
L 360.288 263.298691 
L 358.951833 261.9 
L 358.56 261.483057 
L 357.410586 260.28 
L 356.832 259.663688 
L 355.872537 258.66 
L 355.104 257.841232 
L 354.337296 257.04 
L 353.376 256.015635 
L 352.806144 255.42 
L 351.648 254.184414 
L 351.279777 253.8 
L 349.92 252.349136 
L 349.757895 252.18 
L 348.233997 250.56 
L 348.192 250.515321 
L 346.688323 248.94 
L 346.464 248.701312 
L 345.144288 247.32 
L 344.736 246.88556 
L 343.603301 245.7 
L 343.008 245.06584 
L 342.065483 244.08 
L 341.28 243.243202 
L 340.530546 242.46 
L 339.552 241.417165 
L 338.99974 240.84 
L 337.824 239.585673 
L 337.473681 239.22 
L 336.096 237.750062 
L 335.952174 237.6 
L 334.425862 235.98 
L 334.368 235.91844 
L 332.880274 234.36 
L 332.64 234.104347 
L 331.336354 232.74 
L 330.912 232.288439 
L 329.795664 231.12 
L 329.184 230.468415 
L 328.258031 229.5 
L 327.456 228.645596 
L 326.723389 227.88 
L 325.728 226.819129 
L 325.192927 226.26 
L 324 224.987369 
L 323.667171 224.64 
L 322.272 223.15143 
L 322.146029 223.02 
L 320.617335 221.4 
L 320.544 221.321973 
L 319.071836 219.78 
L 318.816 219.507798 
L 317.528028 218.16 
L 317.088 217.691723 
L 315.987642 216.54 
L 315.36 215.871415 
L 314.450179 214.92 
L 313.632 214.048418 
L 312.915823 213.3 
L 311.904 212.221529 
L 311.385702 211.68 
L 310.176 210.389505 
L 309.860246 210.06 
L 308.448 208.553243 
L 308.33946 208.44 
L 306.808424 206.82 
L 306.72 206.725922 
L 305.263009 205.2 
L 304.992 204.911664 
L 303.719312 203.58 
L 303.264 203.095422 
L 302.179222 201.96 
L 301.536 201.27484 
L 300.641926 200.34 
L 299.808 199.451667 
L 299.107846 198.72 
L 298.08 197.624367 
L 297.578065 197.1 
L 296.352 195.792083 
L 296.052903 195.48 
L 294.624 193.955502 
L 294.532462 193.86 
L 292.999123 192.24 
L 292.896 192.130285 
L 291.45379 190.62 
L 291.168 190.315946 
L 289.91032 189 
L 289.44 188.499419 
L 288.370402 187.38 
L 287.712 186.678692 
L 286.83327 185.76 
L 285.984 184.855345 
L 285.299459 184.14 
L 284.256 183.027644 
L 283.770012 182.52 
L 282.528 181.195103 
L 282.24514 180.9 
L 280.8 179.358209 
L 280.725035 179.28 
L 279.189433 177.66 
L 279.072 177.535065 
L 277.644181 176.04 
L 277.344 175.720646 
L 276.10094 174.42 
L 275.616 173.903829 
L 274.561182 172.8 
L 273.888 172.082971 
L 273.024211 171.18 
L 272.16 170.259455 
L 271.490658 169.56 
L 270.432 168.431361 
L 269.961543 167.94 
L 268.704 166.598569 
L 268.436955 166.32 
L 266.976 164.761368 
L 266.917177 164.7 
L 265.379353 163.08 
L 265.248 162.940261 
L 263.834179 161.46 
L 263.52 161.125764 
L 262.291159 159.84 
L 261.792 159.308666 
L 260.751559 158.22 
L 260.064 157.487679 
L 259.214747 156.6 
L 258.336 155.663996 
L 257.681445 154.98 
L 256.608 153.835521 
L 256.152655 153.36 
L 254.88 152.002483 
L 254.628362 151.74 
L 253.152 150.164977 
L 253.108884 150.12 
L 251.56888 148.5 
L 251.424 148.345875 
L 250.023784 146.88 
L 249.696 146.531301 
L 248.480976 145.26 
L 247.968 144.71393 
L 246.941534 143.64 
L 246.24 142.892817 
L 245.404877 142.02 
L 244.512 141.068971 
L 243.871815 140.4 
L 242.784 139.240124 
L 242.343347 138.78 
L 241.056 137.406845 
L 240.81935 137.16 
L 239.328 135.568939 
L 239.300254 135.54 
L 237.758016 133.92 
L 237.6 133.751906 
L 236.212995 132.3 
L 235.872 131.937258 
L 234.670391 130.68 
L 234.144 130.119623 
L 233.131105 129.06 
L 232.416 128.298386 
L 231.5946 127.44 
L 230.688 126.474381 
L 230.06177 125.82 
L 228.96 124.645173 
L 228.533617 124.2 
L 227.232 122.811658 
L 227.009906 122.58 
L 225.504 120.97329 
L 225.491257 120.96 
L 223.946759 119.34 
L 223.776 119.158356 
L 222.401812 117.72 
L 222.048 117.343635 
L 220.859403 116.1 
L 220.32 115.525744 
L 219.320271 114.48 
L 218.592 113.704387 
L 217.783913 112.86 
L 216.864 111.880227 
L 216.251307 111.24 
L 215.136 110.050669 
L 214.723463 109.62 
L 213.408 108.216925 
L 213.200028 108 
L 211.681534 106.38 
L 211.68 106.378369 
L 210.135109 104.76 
L 209.952 104.565226 
L 208.590233 103.14 
L 208.224 102.750434 
L 207.048011 101.52 
L 206.496 100.932295 
L 205.509031 99.9 
L 204.768 99.110821 
L 203.972816 98.28 
L 203.04 97.286511 
L 202.440425 96.66 
L 201.312 95.456613 
L 200.912884 95.04 
L 199.584 93.622646 
L 199.389714 93.42 
L 197.869446 91.8 
L 197.856 91.785703 
L 196.323065 90.18 
L 196.128 89.972515 
L 194.778258 88.56 
L 194.4 88.157655 
L 193.236214 86.94 
L 192.672 86.339277 
L 191.697383 85.32 
L 190.944 84.51769 
L 190.161308 83.7 
L 189.216 82.693182 
L 188.629175 82.08 
L 187.488 80.863008 
L 187.101877 80.46 
L 185.76 79.028824 
L 185.578962 78.84 
L 184.056963 77.22 
L 184.032 77.193455 
L 182.510626 75.6 
L 182.304 75.380225 
L 180.965886 73.98 
L 180.576 73.565299 
L 179.424013 72.36 
L 178.848 71.746692 
L 177.885327 70.74 
L 177.12 69.924995 
L 176.349403 69.12 
L 175.392 68.100241 
L 174.817542 67.5 
L 173.664 66.269855 
L 173.290441 65.88 
L 171.936 64.435461 
L 171.767771 64.26 
L 170.244085 62.64 
L 170.208 62.601627 
L 168.697792 61.02 
L 168.48 60.788356 
L 167.153116 59.4 
L 166.752 58.973367 
L 165.611405 57.78 
L 165.024 57.154539 
L 164.072861 56.16 
L 163.296 55.332737 
L 162.537129 54.54 
L 161.568 53.507704 
L 161.005485 52.92 
L 159.84 51.677155 
L 159.478574 51.3 
L 158.112 49.842558 
L 157.956139 49.68 
L 156.430812 48.06 
L 156.384 48.010218 
L 154.884562 46.44 
L 154.656 46.196909 
L 153.339947 44.82 
L 152.928 44.381859 
L 151.798393 43.2 
L 151.2 43.2 
L 149.472 43.2 
L 147.744 43.2 
L 146.016 43.2 
L 144.288 43.2 
L 142.56 43.2 
L 141.828266 43.2 
L 142.56 44.00067 
L 143.362147 44.82 
L 144.288 45.833865 
L 144.881589 46.44 
L 146.016 47.68406 
L 146.384718 48.06 
L 147.744 49.551528 
L 147.87007 49.68 
L 149.397169 51.3 
L 149.472 51.381596 
L 150.973929 52.92 
L 151.2 53.166852 
L 152.540593 54.54 
L 152.928 54.963156 
L 154.098006 56.16 
L 154.656 56.77008 
L 155.643382 57.78 
L 156.384 58.590542 
L 157.176476 59.4 
L 158.112 60.424518 
L 158.695187 61.02 
L 159.84 62.275716 
L 160.197283 62.64 
L 161.568 64.144184 
L 161.681659 64.26 
L 163.213839 65.88 
L 163.296 65.969603 
L 164.790173 67.5 
L 165.024 67.755333 
L 166.356342 69.12 
L 166.752 69.552247 
L 167.913114 70.74 
L 168.48 71.359835 
L 169.457894 72.36 
L 170.208 73.181086 
L 170.990139 73.98 
L 171.936 75.015901 
L 172.508073 75.6 
L 173.664 76.868169 
L 174.009067 77.22 
L 175.392 78.737696 
L 175.492405 78.84 
L 177.030045 80.46 
L 177.12 80.558121 
L 178.605908 82.08 
L 178.848 82.34437 
L 180.17158 83.7 
L 180.576 84.141904 
L 181.72764 85.32 
L 182.304 85.950226 
L 183.271785 86.94 
L 184.032 87.772318 
L 184.803128 88.56 
L 185.76 89.608021 
L 186.320237 90.18 
L 187.488 91.461429 
L 187.820061 91.8 
L 189.216 93.332078 
L 189.302297 93.42 
L 190.845855 95.04 
L 190.944 95.147074 
L 192.421128 96.66 
L 192.672 96.93397 
L 193.986273 98.28 
L 194.4 98.732163 
L 195.541577 99.9 
L 196.128 100.54126 
L 197.085051 101.52 
L 197.856 102.364247 
L 198.615435 103.14 
L 199.584 104.200888 
L 200.131671 104.76 
L 201.312 106.055489 
L 201.63027 106.38 
L 203.04 107.92734 
L 203.111323 108 
L 204.6612 109.62 
L 204.768 109.736539 
L 206.235828 111.24 
L 206.496 111.524137 
L 207.800415 112.86 
L 208.224 113.323032 
L 209.354917 114.48 
L 209.952 115.132946 
L 210.897681 116.1 
L 211.68 116.956883 
L 212.42705 117.72 
L 213.408 118.794512 
L 213.942363 119.34 
L 215.136 120.650228 
L 215.439816 120.96 
L 216.864 122.523495 
L 216.919469 122.58 
L 218.476057 124.2 
L 218.592 124.326542 
L 220.050003 125.82 
L 220.32 126.114878 
L 221.614 127.44 
L 222.048 127.914518 
L 223.167654 129.06 
L 223.776 129.725291 
L 224.709669 130.68 
L 225.504 131.550234 
L 226.237966 132.3 
L 227.232 133.388902 
L 227.752305 133.92 
L 228.96 135.245743 
L 229.248603 135.54 
L 230.688 137.120558 
L 230.726722 137.16 
L 232.29042 138.78 
L 232.416 138.917088 
L 233.863645 140.4 
L 234.144 140.706201 
L 235.427021 142.02 
L 235.872 142.506629 
L 236.97978 143.64 
L 237.6 144.318305 
L 238.521005 145.26 
L 239.328 146.144237 
L 240.048249 146.88 
L 241.056 147.984072 
L 241.561484 148.5 
L 242.784 149.842095 
L 243.056568 150.12 
L 244.512 151.718544 
L 244.533067 151.74 
L 246.104283 153.36 
L 246.24 153.508186 
L 247.676748 154.98 
L 247.968 155.298112 
L 249.23947 156.6 
L 249.696 157.099374 
L 250.791286 158.22 
L 251.424 158.911996 
L 252.331681 159.84 
L 253.152 160.738881 
L 253.857911 161.46 
L 254.88 162.580031 
L 255.369888 163.08 
L 256.608 164.439299 
L 256.863698 164.7 
L 258.336 166.317468 
L 258.338486 166.32 
L 259.91764 167.94 
L 260.064 168.099843 
L 261.489304 169.56 
L 261.792 169.89062 
L 263.051339 171.18 
L 263.52 171.692753 
L 264.602175 172.8 
L 265.248 173.506374 
L 266.141686 174.42 
L 266.976 175.334258 
L 267.666856 176.04 
L 268.704 177.176794 
L 269.177504 177.66 
L 270.432 179.037368 
L 270.669979 179.28 
L 272.150771 180.9 
L 272.16 180.91007 
L 273.730483 182.52 
L 273.888 182.692067 
L 275.301306 184.14 
L 275.616 184.483734 
L 276.86262 185.76 
L 277.344 186.286709 
L 278.412512 187.38 
L 279.072 188.101451 
L 279.951009 189 
L 280.8 189.930382 
L 281.47507 190.62 
L 282.528 191.774374 
L 282.984319 192.24 
L 284.256 193.636318 
L 284.475396 193.86 
L 285.9637 195.48 
L 285.984 195.502149 
L 287.542806 197.1 
L 287.712 197.284868 
L 289.112746 198.72 
L 289.44 199.077462 
L 290.673304 200.34 
L 291.168 200.881296 
L 292.222238 201.96 
L 292.896 202.697237 
L 293.759638 203.58 
L 294.624 204.527266 
L 295.282542 205.2 
L 296.352 206.372786 
L 296.790318 206.82 
L 298.08 208.236166 
L 298.279932 208.44 
L 299.77613 210.06 
L 299.808 210.094774 
L 301.3546 211.68 
L 301.536 211.878241 
L 302.923632 213.3 
L 303.264 213.671814 
L 304.483381 214.92 
L 304.992 215.476547 
L 306.031316 216.54 
L 306.72 217.293746 
L 307.567563 218.16 
L 308.448 219.124922 
L 309.089258 219.78 
L 310.176 220.972045 
L 310.595485 221.4 
L 311.904 222.836929 
L 312.083571 223.02 
L 313.588052 224.64 
L 313.632 224.687954 
L 315.165857 226.26 
L 315.36 226.472174 
L 316.73399 227.88 
L 317.088 228.2668 
L 318.292841 229.5 
L 318.816 230.072472 
L 319.839735 231.12 
L 320.544 231.890988 
L 321.37477 232.74 
L 322.272 233.723366 
L 322.895204 234.36 
L 324 235.572167 
L 324.399804 235.98 
L 325.728 237.438625 
L 325.886294 237.6 
L 327.399458 239.22 
L 327.456 239.281696 
L 328.976568 240.84 
L 329.184 241.0667 
L 330.543773 242.46 
L 330.912 242.862431 
L 332.101673 244.08 
L 332.64 244.669084 
L 333.647484 245.7 
L 334.368 246.488979 
L 335.181245 247.32 
L 336.096 248.322611 
L 336.700367 248.94 
L 337.824 250.173169 
L 338.203256 250.56 
L 339.552 252.041273 
L 339.688082 252.18 
L 341.210346 253.8 
L 341.28 253.876011 
L 342.786725 255.42 
L 343.008 255.661832 
L 344.352964 257.04 
L 344.736 257.458718 
L 345.909865 258.66 
L 346.464 259.266396 
L 347.454595 260.28 
L 348.192 261.087689 
L 348.986974 261.9 
L 349.92 262.922673 
L 350.504781 263.52 
L 351.648 264.775034 
L 352.005824 265.14 
L 353.376 266.644894 
L 353.488924 266.76 
L 355.020715 268.38 
L 355.104 268.470907 
L 356.596317 270 
L 356.832 270.257581 
L 358.161651 271.62 
L 358.56 272.055573 
L 359.717407 273.24 
L 360.288 273.864419 
L 361.261075 274.86 
L 362.016 275.687116 
L 362.791942 276.48 
L 363.744 277.523571 
L 364.308385 278.1 
L 365.472 279.377815 
L 365.807488 279.72 
L 367.2 281.249511 
L 367.288785 281.34 
L 368.830657 282.96 
L 368.928 283.06628 
L 370.405334 284.58 
L 370.656 284.853958 
L 371.969788 286.2 
L 372.384 286.653045 
L 373.524283 287.82 
L 374.112 288.463169 
L 375.066846 289.44 
L 375.84 290.287338 
L 376.596132 291.06 
L 377.568 292.12532 
L 378.111152 292.68 
L 379.296 293.981476 
L 379.60829 294.3 
L 381.024 295.855146 
L 381.087641 295.92 
L 382.640157 297.54 
L 382.752 297.662144 
L 384.213765 299.16 
L 384.48 299.450975 
L 385.777302 300.78 
L 386.208 301.251212 
L 387.330483 302.4 
L 387.936 303.06266 
L 388.871893 304.02 
L 389.664 304.888374 
L 390.399528 305.64 
L 391.392 306.72794 
L 391.913064 307.26 
L 393.12 308.585811 
L 393.408438 308.88 
L 394.848 310.461825 
L 394.885467 310.5 
L 396.449106 312.12 
L 396.576 312.258621 
L 398.021599 313.74 
L 398.304 314.048644 
L 399.584182 315.36 
L 400.032 315.850088 
L 401.13599 316.98 
L 401.76 317.662908 
L 402.6762 318.6 
L 403.488 319.490095 
L 404.202264 320.22 
L 405.216 321.331451 
L 405.714101 321.84 
L 406.944 323.191098 
L 407.207651 323.46 
L 408.672 325.069572 
L 408.682236 325.08 
L 410.257492 326.7 
z
" clip-path="url(#p67ab3a2a2b)" style="fill: #008000; fill-opacity: 0.6"/>
   </g>
   <g id="matplotlib.axis_1">
    <g id="xtick_1">
     <g id="line2d_1">
      <defs>
       <path id="me0219d0bef" d="M 0 0 
L 0 3.5 
" style="stroke: #000000; stroke-width: 0.8"/>
      </defs>
      <g>
       <use xlink:href="#me0219d0bef" x="64.8" y="367.2" style="stroke: #000000; stroke-width: 0.8"/>
      </g>
     </g>
     <g id="text_1">
      <!-- -1.0 -->
      <g transform="translate(49.705953 388.036997)scale(0.2 -0.2)">
       <defs>
        <path id="CMSS17-2d" d="M 1664 1216 
L 1664 1587 
L 64 1587 
L 64 1216 
L 1664 1216 
z
" transform="scale(0.015625)"/>
        <path id="CMSS17-31" d="M 1818 4288 
L 1696 4288 
C 1350 3949 947 3902 538 3891 
L 538 3520 
C 723 3526 1024 3539 1325 3673 
L 1325 371 
L 570 371 
L 570 0 
L 2573 0 
L 2573 371 
L 1818 371 
L 1818 4288 
z
" transform="scale(0.015625)"/>
        <path id="CMSS17-2e" d="M 1088 512 
L 576 512 
L 576 0 
L 1088 0 
L 1088 512 
z
" transform="scale(0.015625)"/>
        <path id="CMSS17-30" d="M 2758 2073 
C 2758 2439 2752 3120 2490 3647 
C 2227 4153 1805 4288 1504 4288 
C 1069 4288 698 4031 506 3621 
C 301 3191 243 2748 243 2073 
C 243 1611 262 1046 493 551 
C 755 6 1197 -128 1498 -128 
C 1894 -128 2278 83 2496 525 
C 2720 988 2758 1495 2758 2073 
z
M 1498 262 
C 1011 262 864 821 819 1007 
C 742 1328 730 1636 730 2144 
C 730 2542 730 2992 851 3345 
C 998 3756 1254 3897 1498 3897 
C 1971 3897 2125 3422 2176 3255 
C 2272 2915 2272 2516 2272 2144 
C 2272 1546 2272 262 1498 262 
z
" transform="scale(0.015625)"/>
       </defs>
       <use xlink:href="#CMSS17-2d" transform="scale(0.996264)"/>
       <use xlink:href="#CMSS17-31" transform="translate(31.229113 0)scale(0.996264)"/>
       <use xlink:href="#CMSS17-2e" transform="translate(78.072736 0)scale(0.996264)"/>
       <use xlink:href="#CMSS17-30" transform="translate(104.096941 0)scale(0.996264)"/>
      </g>
     </g>
    </g>
    <g id="xtick_2">
     <g id="line2d_2">
      <g>
       <use xlink:href="#me0219d0bef" x="151.2" y="367.2" style="stroke: #000000; stroke-width: 0.8"/>
      </g>
     </g>
     <g id="text_2">
      <!-- -0.5 -->
      <g transform="translate(136.105953 388.036997)scale(0.2 -0.2)">
       <defs>
        <path id="CMSS17-35" d="M 934 3814 
L 2502 3814 
L 2502 4224 
L 467 4224 
L 467 1830 
L 896 1830 
C 1011 2103 1248 2304 1555 2304 
C 1843 2304 2163 2044 2163 1299 
C 2163 502 1709 268 1376 268 
C 966 268 589 521 422 871 
L 218 508 
C 512 51 992 -128 1376 -128 
C 2118 -128 2701 508 2701 1286 
C 2701 2083 2182 2694 1562 2694 
C 1338 2694 1120 2617 934 2464 
L 934 3814 
z
" transform="scale(0.015625)"/>
       </defs>
       <use xlink:href="#CMSS17-2d" transform="scale(0.996264)"/>
       <use xlink:href="#CMSS17-30" transform="translate(31.229113 0)scale(0.996264)"/>
       <use xlink:href="#CMSS17-2e" transform="translate(78.072736 0)scale(0.996264)"/>
       <use xlink:href="#CMSS17-35" transform="translate(104.096941 0)scale(0.996264)"/>
      </g>
     </g>
    </g>
    <g id="xtick_3">
     <g id="line2d_3">
      <g>
       <use xlink:href="#me0219d0bef" x="237.6" y="367.2" style="stroke: #000000; stroke-width: 0.8"/>
      </g>
     </g>
     <g id="text_3">
      <!-- 0.0 -->
      <g transform="translate(225.628862 388.036997)scale(0.2 -0.2)">
       <use xlink:href="#CMSS17-30" transform="scale(0.996264)"/>
       <use xlink:href="#CMSS17-2e" transform="translate(46.843624 0)scale(0.996264)"/>
       <use xlink:href="#CMSS17-30" transform="translate(72.867828 0)scale(0.996264)"/>
      </g>
     </g>
    </g>
    <g id="xtick_4">
     <g id="line2d_4">
      <g>
       <use xlink:href="#me0219d0bef" x="324" y="367.2" style="stroke: #000000; stroke-width: 0.8"/>
      </g>
     </g>
     <g id="text_4">
      <!-- 0.5 -->
      <g transform="translate(312.028862 388.036997)scale(0.2 -0.2)">
       <use xlink:href="#CMSS17-30" transform="scale(0.996264)"/>
       <use xlink:href="#CMSS17-2e" transform="translate(46.843624 0)scale(0.996264)"/>
       <use xlink:href="#CMSS17-35" transform="translate(72.867828 0)scale(0.996264)"/>
      </g>
     </g>
    </g>
    <g id="xtick_5">
     <g id="line2d_5">
      <g>
       <use xlink:href="#me0219d0bef" x="410.4" y="367.2" style="stroke: #000000; stroke-width: 0.8"/>
      </g>
     </g>
     <g id="text_5">
      <!-- 1.0 -->
      <g transform="translate(398.428862 388.036997)scale(0.2 -0.2)">
       <use xlink:href="#CMSS17-31" transform="scale(0.996264)"/>
       <use xlink:href="#CMSS17-2e" transform="translate(46.843624 0)scale(0.996264)"/>
       <use xlink:href="#CMSS17-30" transform="translate(72.867828 0)scale(0.996264)"/>
      </g>
     </g>
    </g>
    <g id="text_6">
     <!-- $\epsilon_{ee}^{dV}$ -->
     <g transform="translate(226.132034 412.829204)scale(0.2 -0.2)">
      <defs>
       <path id="CMMI12-f" d="M 1862 1472 
C 1958 1472 2067 1472 2067 1574 
C 2067 1657 2003 1657 1888 1657 
L 851 1657 
C 1011 2224 1389 2566 1958 2566 
L 2144 2566 
C 2253 2566 2349 2566 2349 2668 
C 2349 2752 2278 2752 2163 2752 
L 1946 2752 
C 1158 2752 294 2136 294 1141 
C 294 420 774 -64 1408 -64 
C 1818 -64 2221 193 2221 258 
C 2221 297 2202 336 2163 336 
C 2144 336 2131 330 2099 304 
C 1856 141 1619 64 1427 64 
C 1088 64 730 291 730 920 
C 730 1043 742 1212 800 1472 
L 1862 1472 
z
" transform="scale(0.015625)"/>
       <path id="CMMI12-64" d="M 3219 4255 
C 3226 4281 3238 4319 3238 4351 
C 3238 4416 3174 4416 3162 4416 
C 3155 4416 2842 4390 2810 4383 
C 2701 4377 2605 4364 2490 4358 
C 2330 4345 2285 4339 2285 4223 
C 2285 4159 2336 4159 2426 4159 
C 2739 4159 2746 4103 2746 4040 
C 2746 4002 2733 3951 2726 3932 
L 2336 2394 
C 2266 2560 2093 2816 1760 2816 
C 1037 2816 256 1883 256 938 
C 256 306 627 -64 1062 -64 
C 1414 -64 1715 210 1894 421 
C 1958 44 2259 -64 2451 -64 
C 2643 -64 2797 51 2912 281 
C 3014 498 3104 887 3104 913 
C 3104 945 3078 970 3040 970 
C 2982 970 2976 938 2950 842 
C 2854 466 2733 64 2470 64 
C 2285 64 2272 230 2272 357 
C 2272 383 2272 517 2317 696 
L 3219 4255 
z
M 1926 759 
C 1894 651 1894 638 1805 517 
C 1664 338 1382 64 1082 64 
C 819 64 672 300 672 676 
C 672 1028 870 1743 992 2011 
C 1210 2458 1510 2687 1760 2687 
C 2182 2687 2266 2164 2266 2113 
C 2266 2107 2246 2024 2240 2011 
L 1926 759 
z
" transform="scale(0.015625)"/>
       <path id="CMMI12-56" d="M 3962 3644 
C 4179 3987 4378 4140 4704 4166 
C 4768 4172 4819 4172 4819 4287 
C 4819 4313 4806 4352 4749 4352 
C 4634 4352 4358 4339 4243 4339 
C 4058 4339 3866 4352 3686 4352 
C 3635 4352 3571 4352 3571 4230 
C 3571 4172 3629 4166 3654 4166 
C 3891 4146 3917 4032 3917 3956 
C 3917 3860 3827 3714 3821 3708 
L 1811 540 
L 1363 3968 
C 1363 4153 1696 4166 1766 4166 
C 1862 4166 1920 4166 1920 4287 
C 1920 4352 1850 4352 1830 4352 
C 1722 4352 1594 4339 1485 4339 
L 1126 4339 
C 659 4339 467 4352 461 4352 
C 422 4352 346 4352 346 4236 
C 346 4166 390 4166 493 4166 
C 819 4166 838 4108 858 3949 
L 1370 25 
C 1389 -109 1389 -128 1478 -128 
C 1555 -128 1587 -109 1651 -7 
L 3962 3644 
z
" transform="scale(0.015625)"/>
       <path id="CMMI12-65" d="M 1146 1472 
C 1318 1472 1754 1484 2061 1600 
C 2547 1786 2592 2160 2592 2275 
C 2592 2559 2349 2816 1926 2816 
C 1254 2816 288 2205 288 1066 
C 288 400 672 -64 1254 -64 
C 2125 -64 2675 609 2675 691 
C 2675 729 2637 761 2611 761 
C 2592 761 2586 755 2528 698 
C 2118 159 1510 64 1267 64 
C 902 64 710 349 710 818 
C 710 907 710 1066 806 1472 
L 1146 1472 
z
M 838 1600 
C 1114 2591 1722 2687 1926 2687 
C 2208 2687 2400 2520 2400 2275 
C 2400 1600 1376 1600 1107 1600 
L 838 1600 
z
" transform="scale(0.015625)"/>
      </defs>
      <use xlink:href="#CMMI12-f" transform="scale(0.996264)"/>
      <use xlink:href="#CMMI12-64" transform="translate(39.388958 36.153639)scale(0.697382)"/>
      <use xlink:href="#CMMI12-56" transform="translate(74.871165 36.153639)scale(0.697382)"/>
      <use xlink:href="#CMMI12-65" transform="translate(39.388958 -24.62935)scale(0.697382)"/>
      <use xlink:href="#CMMI12-65" transform="translate(71.037215 -24.62935)scale(0.697382)"/>
     </g>
    </g>
   </g>
   <g id="matplotlib.axis_2">
    <g id="ytick_1">
     <g id="line2d_6">
      <defs>
       <path id="mb5515b5879" d="M 0 0 
L -3.5 0 
" style="stroke: #000000; stroke-width: 0.8"/>
      </defs>
      <g>
       <use xlink:href="#mb5515b5879" x="64.8" y="367.2" style="stroke: #000000; stroke-width: 0.8"/>
      </g>
     </g>
     <g id="text_7">
      <!-- -1.0 -->
      <g transform="translate(27.611905 374.118498)scale(0.2 -0.2)">
       <use xlink:href="#CMSS17-2d" transform="scale(0.996264)"/>
       <use xlink:href="#CMSS17-31" transform="translate(31.229113 0)scale(0.996264)"/>
       <use xlink:href="#CMSS17-2e" transform="translate(78.072736 0)scale(0.996264)"/>
       <use xlink:href="#CMSS17-30" transform="translate(104.096941 0)scale(0.996264)"/>
      </g>
     </g>
    </g>
    <g id="ytick_2">
     <g id="line2d_7">
      <g>
       <use xlink:href="#mb5515b5879" x="64.8" y="286.2" style="stroke: #000000; stroke-width: 0.8"/>
      </g>
     </g>
     <g id="text_8">
      <!-- -0.5 -->
      <g transform="translate(27.611905 293.118498)scale(0.2 -0.2)">
       <use xlink:href="#CMSS17-2d" transform="scale(0.996264)"/>
       <use xlink:href="#CMSS17-30" transform="translate(31.229113 0)scale(0.996264)"/>
       <use xlink:href="#CMSS17-2e" transform="translate(78.072736 0)scale(0.996264)"/>
       <use xlink:href="#CMSS17-35" transform="translate(104.096941 0)scale(0.996264)"/>
      </g>
     </g>
    </g>
    <g id="ytick_3">
     <g id="line2d_8">
      <g>
       <use xlink:href="#mb5515b5879" x="64.8" y="205.2" style="stroke: #000000; stroke-width: 0.8"/>
      </g>
     </g>
     <g id="text_9">
      <!-- 0.0 -->
      <g transform="translate(33.857725 212.118498)scale(0.2 -0.2)">
       <use xlink:href="#CMSS17-30" transform="scale(0.996264)"/>
       <use xlink:href="#CMSS17-2e" transform="translate(46.843624 0)scale(0.996264)"/>
       <use xlink:href="#CMSS17-30" transform="translate(72.867828 0)scale(0.996264)"/>
      </g>
     </g>
    </g>
    <g id="ytick_4">
     <g id="line2d_9">
      <g>
       <use xlink:href="#mb5515b5879" x="64.8" y="124.2" style="stroke: #000000; stroke-width: 0.8"/>
      </g>
     </g>
     <g id="text_10">
      <!-- 0.5 -->
      <g transform="translate(33.857725 131.118498)scale(0.2 -0.2)">
       <use xlink:href="#CMSS17-30" transform="scale(0.996264)"/>
       <use xlink:href="#CMSS17-2e" transform="translate(46.843624 0)scale(0.996264)"/>
       <use xlink:href="#CMSS17-35" transform="translate(72.867828 0)scale(0.996264)"/>
      </g>
     </g>
    </g>
    <g id="ytick_5">
     <g id="line2d_10">
      <g>
       <use xlink:href="#mb5515b5879" x="64.8" y="43.2" style="stroke: #000000; stroke-width: 0.8"/>
      </g>
     </g>
     <g id="text_11">
      <!-- 1.0 -->
      <g transform="translate(33.857725 50.118498)scale(0.2 -0.2)">
       <use xlink:href="#CMSS17-31" transform="scale(0.996264)"/>
       <use xlink:href="#CMSS17-2e" transform="translate(46.843624 0)scale(0.996264)"/>
       <use xlink:href="#CMSS17-30" transform="translate(72.867828 0)scale(0.996264)"/>
      </g>
     </g>
    </g>
    <g id="text_12">
     <!-- $\epsilon_{ee}^{uV}$ -->
     <g transform="translate(18.686041 217.006153)rotate(-90)scale(0.2 -0.2)">
      <defs>
       <path id="CMMI12-75" d="M 2182 370 
C 2266 12 2573 -64 2726 -64 
C 2931 -64 3085 70 3187 287 
C 3296 517 3379 893 3379 913 
C 3379 944 3354 970 3315 970 
C 3258 970 3251 938 3226 842 
C 3110 402 2995 64 2739 64 
C 2547 64 2547 274 2547 357 
C 2547 504 2566 568 2630 836 
C 2675 1008 2720 1181 2758 1359 
L 3021 2400 
C 3066 2560 3066 2572 3066 2591 
C 3066 2687 2989 2752 2893 2752 
C 2707 2752 2662 2591 2624 2432 
C 2560 2183 2214 810 2170 587 
C 2163 587 1914 64 1446 64 
C 1114 64 1050 351 1050 587 
C 1050 951 1229 1462 1395 1890 
C 1472 2094 1504 2177 1504 2305 
C 1504 2579 1306 2816 998 2816 
C 410 2816 173 1890 173 1838 
C 173 1813 198 1781 243 1781 
C 301 1781 307 1807 333 1896 
C 486 2445 736 2687 979 2687 
C 1043 2687 1146 2681 1146 2477 
C 1146 2311 1075 2126 979 1883 
C 698 1123 666 881 666 689 
C 666 38 1158 -64 1421 -64 
C 1830 -64 2054 217 2182 370 
z
" transform="scale(0.015625)"/>
      </defs>
      <use xlink:href="#CMMI12-f" transform="scale(0.996264)"/>
      <use xlink:href="#CMMI12-75" transform="translate(39.388958 36.153639)scale(0.697382)"/>
      <use xlink:href="#CMMI12-56" transform="translate(78.253014 36.153639)scale(0.697382)"/>
      <use xlink:href="#CMMI12-65" transform="translate(39.388958 -24.62935)scale(0.697382)"/>
      <use xlink:href="#CMMI12-65" transform="translate(71.037215 -24.62935)scale(0.697382)"/>
     </g>
    </g>
   </g>
   <g id="line2d_11">
    <defs>
     <path id="md142794b08" d="M -4.5 0 
L 4.5 0 
M 0 4.5 
L 0 -4.5 
" style="stroke: #000000"/>
    </defs>
    <g clip-path="url(#p67ab3a2a2b)">
     <use xlink:href="#md142794b08" x="237.6" y="205.2" style="stroke: #000000"/>
    </g>
   </g>
   <g id="patch_3">
    <path d="M 64.8 367.2 
L 64.8 43.2 
" style="fill: none; stroke: #000000; stroke-width: 0.8; stroke-linejoin: miter; stroke-linecap: square"/>
   </g>
   <g id="patch_4">
    <path d="M 410.4 367.2 
L 410.4 43.2 
" style="fill: none; stroke: #000000; stroke-width: 0.8; stroke-linejoin: miter; stroke-linecap: square"/>
   </g>
   <g id="patch_5">
    <path d="M 64.8 367.2 
L 410.4 367.2 
" style="fill: none; stroke: #000000; stroke-width: 0.8; stroke-linejoin: miter; stroke-linecap: square"/>
   </g>
   <g id="patch_6">
    <path d="M 64.8 43.2 
L 410.4 43.2 
" style="fill: none; stroke: #000000; stroke-width: 0.8; stroke-linejoin: miter; stroke-linecap: square"/>
   </g>
   <g id="legend_1">
    <g id="patch_7">
     <path d="M 75.3 359.7 
L 249.080551 359.7 
Q 252.080551 359.7 252.080551 356.7 
L 252.080551 314.850295 
Q 252.080551 311.850295 249.080551 311.850295 
L 75.3 311.850295 
Q 72.3 311.850295 72.3 314.850295 
L 72.3 356.7 
Q 72.3 359.7 75.3 359.7 
z
" style="fill: #ffffff; opacity: 0.8; stroke: #cccccc; stroke-linejoin: miter"/>
    </g>
    <g id="patch_8">
     <path d="M 78.3 329.058265 
L 108.3 329.058265 
L 108.3 318.558265 
L 78.3 318.558265 
z
" style="fill: #0000ff; opacity: 0.2; stroke: #0000ff; stroke-linejoin: miter"/>
    </g>
    <g id="text_13">
     <!-- $\mathrm{COHERENT(2017)}$ -->
     <g transform="translate(120.3 329.058265)scale(0.15 -0.15)">
      <defs>
       <path id="CMR17-43" d="M 3974 4351 
C 3974 4467 3968 4473 3930 4473 
C 3904 4473 3898 4467 3853 4390 
L 3571 3849 
C 3258 4249 2874 4480 2381 4480 
C 1286 4480 294 3507 294 2179 
C 294 837 1286 -128 2387 -128 
C 3366 -128 3974 741 3974 1482 
C 3974 1547 3974 1573 3917 1573 
C 3866 1573 3866 1553 3859 1495 
C 3808 592 3168 38 2477 38 
C 1824 38 781 502 781 2179 
C 781 3862 1843 4313 2464 4313 
C 3187 4313 3712 3681 3834 2785 
C 3846 2707 3846 2695 3904 2695 
C 3974 2695 3974 2707 3974 2824 
L 3974 4351 
z
" transform="scale(0.015625)"/>
       <path id="CMR17-4f" d="M 4307 2166 
C 4307 3488 3366 4480 2304 4480 
C 1216 4480 294 3475 294 2166 
C 294 857 1229 -128 2298 -128 
C 3392 -128 4307 876 4307 2166 
z
M 2304 -13 
C 1574 -13 781 722 781 2250 
C 781 3771 1651 4364 2298 4364 
C 2976 4364 3821 3752 3821 2250 
C 3821 696 3008 -13 2304 -13 
z
" transform="scale(0.015625)"/>
       <path id="CMR17-48" d="M 3590 3898 
C 3590 4185 3661 4185 4102 4185 
L 4102 4352 
C 3917 4339 3578 4339 3379 4339 
C 3181 4339 2842 4339 2656 4352 
L 2656 4185 
C 3098 4185 3168 4185 3168 3898 
L 3168 2342 
L 1261 2342 
L 1261 3898 
C 1261 4185 1331 4185 1773 4185 
L 1773 4352 
C 1587 4339 1248 4339 1050 4339 
C 851 4339 512 4339 326 4352 
L 326 4185 
C 768 4185 838 4185 838 3898 
L 838 452 
C 838 166 768 166 326 166 
L 326 0 
C 512 12 851 12 1050 12 
C 1248 12 1587 12 1773 0 
L 1773 166 
C 1331 166 1261 166 1261 452 
L 1261 2176 
L 3168 2176 
L 3168 452 
C 3168 166 3098 166 2656 166 
L 2656 0 
C 2842 12 3181 12 3379 12 
C 3578 12 3917 12 4102 0 
L 4102 166 
C 3661 166 3590 166 3590 452 
L 3590 3898 
z
" transform="scale(0.015625)"/>
       <path id="CMR17-45" d="M 3885 1614 
L 3770 1614 
C 3629 676 3546 166 2419 166 
L 1530 166 
C 1274 166 1261 198 1261 415 
L 1261 2176 
L 1862 2176 
C 2464 2176 2522 1959 2522 1429 
L 2637 1429 
L 2637 3086 
L 2522 3086 
C 2522 2558 2464 2342 1862 2342 
L 1261 2342 
L 1261 3924 
C 1261 4141 1274 4172 1530 4172 
L 2406 4172 
C 3398 4172 3514 3778 3603 2933 
L 3718 2933 
L 3565 4339 
L 326 4339 
L 326 4172 
C 768 4172 838 4172 838 3886 
L 838 453 
C 838 166 768 166 326 166 
L 326 0 
L 3654 0 
L 3885 1614 
z
" transform="scale(0.015625)"/>
       <path id="CMR17-52" d="M 2509 2156 
C 3117 2278 3629 2689 3629 3203 
C 3629 3806 2950 4352 2054 4352 
L 333 4352 
L 333 4185 
C 774 4185 845 4185 845 3896 
L 845 428 
C 845 140 774 140 333 140 
L 333 -26 
C 518 -13 851 -13 1050 -13 
C 1248 -13 1581 -13 1766 -26 
L 1766 140 
C 1325 140 1254 140 1254 428 
L 1254 2112 
L 2003 2112 
C 2368 2112 2573 1964 2662 1881 
C 2918 1632 2918 1459 2918 1024 
C 2918 595 2918 377 3110 160 
C 3354 -103 3680 -128 3821 -128 
C 4294 -128 4365 403 4365 512 
C 4365 550 4365 595 4307 595 
C 4256 595 4250 556 4250 531 
C 4218 115 4032 -26 3834 -26 
C 3482 -26 3443 377 3405 768 
C 3386 902 3373 998 3360 1139 
C 3322 1459 3270 1926 2509 2156 
z
M 1984 2214 
L 1254 2214 
L 1254 3935 
C 1254 4153 1267 4185 1523 4185 
L 1990 4185 
C 2522 4185 3142 3999 3142 3203 
C 3142 2374 2464 2214 1984 2214 
z
" transform="scale(0.015625)"/>
       <path id="CMR17-4e" d="M 1312 4275 
C 1267 4345 1261 4352 1139 4352 
L 326 4352 
L 326 4185 
L 448 4185 
C 704 4185 819 4153 838 4147 
L 838 624 
C 838 465 838 166 326 166 
L 326 0 
C 474 12 742 12 902 12 
C 1062 12 1331 12 1478 0 
L 1478 166 
C 966 166 966 465 966 624 
L 966 4057 
C 1011 4019 1011 4007 1056 3943 
L 3430 76 
C 3475 0 3494 0 3526 0 
C 3590 0 3590 19 3590 140 
L 3590 3726 
C 3590 3885 3590 4185 4102 4185 
L 4102 4352 
C 3955 4339 3686 4339 3526 4339 
C 3366 4339 3098 4339 2950 4352 
L 2950 4185 
C 3462 4185 3462 3885 3462 3726 
L 3462 777 
L 1312 4275 
z
" transform="scale(0.015625)"/>
       <path id="CMR17-54" d="M 3981 4332 
L 288 4332 
L 179 2924 
L 294 2924 
C 378 3981 467 4166 1453 4166 
C 1568 4166 1754 4166 1805 4159 
C 1926 4140 1926 4064 1926 3917 
L 1926 465 
C 1926 236 1907 166 1376 166 
L 1197 166 
L 1197 0 
C 1504 6 1824 12 2138 12 
C 2451 12 2771 6 3078 0 
L 3078 166 
L 2899 166 
C 2368 166 2349 236 2349 465 
L 2349 3917 
C 2349 4057 2349 4134 2464 4159 
C 2515 4166 2701 4166 2816 4166 
C 3795 4166 3891 3981 3974 2924 
L 4090 2924 
L 3981 4332 
z
" transform="scale(0.015625)"/>
       <path id="CMR17-28" d="M 1958 -1562 
C 1958 -1556 1958 -1543 1939 -1524 
C 1645 -1223 858 -403 858 1596 
C 858 3595 1632 4408 1946 4729 
C 1946 4735 1958 4748 1958 4767 
C 1958 4787 1939 4800 1914 4800 
C 1843 4800 1299 4325 986 3620 
C 666 2909 576 2218 576 1603 
C 576 1141 621 360 1005 -467 
C 1312 -1133 1837 -1600 1914 -1600 
C 1946 -1600 1958 -1588 1958 -1562 
z
" transform="scale(0.015625)"/>
       <path id="CMR17-32" d="M 2669 990 
L 2554 990 
C 2490 537 2438 460 2413 422 
C 2381 371 1920 371 1830 371 
L 602 371 
C 832 620 1280 1073 1824 1596 
C 2214 1966 2669 2400 2669 3033 
C 2669 3788 2067 4224 1395 4224 
C 691 4224 262 3603 262 3027 
C 262 2777 448 2745 525 2745 
C 589 2745 781 2783 781 3007 
C 781 3206 614 3264 525 3264 
C 486 3264 448 3257 422 3244 
C 544 3788 915 4057 1306 4057 
C 1862 4057 2227 3616 2227 3033 
C 2227 2477 1901 1998 1536 1583 
L 262 147 
L 262 0 
L 2515 0 
L 2669 990 
z
" transform="scale(0.015625)"/>
       <path id="CMR17-30" d="M 2688 2038 
C 2688 2430 2682 3099 2413 3613 
C 2176 4063 1798 4224 1466 4224 
C 1158 4224 768 4082 525 3620 
C 269 3137 243 2539 243 2038 
C 243 1671 250 1112 448 623 
C 723 -39 1216 -128 1466 -128 
C 1760 -128 2208 -7 2470 604 
C 2662 1048 2688 1568 2688 2038 
z
M 1466 -26 
C 1056 -26 813 328 723 816 
C 653 1196 653 1749 653 2109 
C 653 2604 653 3015 736 3407 
C 858 3954 1216 4121 1466 4121 
C 1728 4121 2067 3947 2189 3420 
C 2272 3054 2278 2623 2278 2109 
C 2278 1691 2278 1176 2202 797 
C 2067 96 1690 -26 1466 -26 
z
" transform="scale(0.015625)"/>
       <path id="CMR17-31" d="M 1702 4083 
C 1702 4217 1696 4224 1606 4224 
C 1357 3927 979 3833 621 3820 
C 602 3820 570 3820 563 3808 
C 557 3795 557 3782 557 3648 
C 755 3648 1088 3686 1344 3839 
L 1344 467 
C 1344 243 1331 166 781 166 
L 589 166 
L 589 0 
C 896 6 1216 12 1523 12 
C 1830 12 2150 6 2458 0 
L 2458 166 
L 2266 166 
C 1715 166 1702 236 1702 467 
L 1702 4083 
z
" transform="scale(0.015625)"/>
       <path id="CMR17-37" d="M 2886 3955 
L 2886 4096 
L 1382 4096 
C 634 4096 621 4166 595 4288 
L 480 4288 
L 294 3104 
L 410 3104 
C 429 3226 474 3552 550 3673 
C 589 3724 1062 3724 1171 3724 
L 2579 3724 
L 1869 2670 
C 1395 1961 1069 1003 1069 166 
C 1069 89 1069 -128 1299 -128 
C 1530 -128 1530 89 1530 172 
L 1530 466 
C 1530 1514 1709 2204 2003 2644 
L 2886 3955 
z
" transform="scale(0.015625)"/>
       <path id="CMR17-29" d="M 1683 1596 
C 1683 2057 1638 2839 1254 3665 
C 947 4332 422 4800 346 4800 
C 326 4800 301 4793 301 4761 
C 301 4748 307 4742 314 4729 
C 621 4408 1402 3595 1402 1603 
C 1402 -396 627 -1210 314 -1530 
C 307 -1543 301 -1549 301 -1562 
C 301 -1594 326 -1600 346 -1600 
C 416 -1600 960 -1127 1274 -422 
C 1594 289 1683 981 1683 1596 
z
" transform="scale(0.015625)"/>
      </defs>
      <use xlink:href="#CMR17-43" transform="scale(0.996264)"/>
      <use xlink:href="#CMR17-4f" transform="translate(66.509881 0)scale(0.996264)"/>
      <use xlink:href="#CMR17-48" transform="translate(138.224669 0)scale(0.996264)"/>
      <use xlink:href="#CMR17-45" transform="translate(207.297099 0)scale(0.996264)"/>
      <use xlink:href="#CMR17-52" transform="translate(269.883399 0)scale(0.996264)"/>
      <use xlink:href="#CMR17-45" transform="translate(337.674501 0)scale(0.996264)"/>
      <use xlink:href="#CMR17-4e" transform="translate(400.260802 0)scale(0.996264)"/>
      <use xlink:href="#CMR17-54" transform="translate(469.333232 0)scale(0.996264)"/>
      <use xlink:href="#CMR17-28" transform="translate(535.843112 0)scale(0.996264)"/>
      <use xlink:href="#CMR17-32" transform="translate(571.12388 0)scale(0.996264)"/>
      <use xlink:href="#CMR17-30" transform="translate(616.814357 0)scale(0.996264)"/>
      <use xlink:href="#CMR17-31" transform="translate(662.504834 0)scale(0.996264)"/>
      <use xlink:href="#CMR17-37" transform="translate(708.195311 0)scale(0.996264)"/>
      <use xlink:href="#CMR17-29" transform="translate(753.885788 0)scale(0.996264)"/>
     </g>
    </g>
    <g id="patch_9">
     <path d="M 78.3 350.794255 
L 108.3 350.794255 
L 108.3 340.294255 
L 78.3 340.294255 
z
" style="fill: #008000; opacity: 0.6; stroke: #008000; stroke-linejoin: miter"/>
    </g>
    <g id="text_14">
     <!-- $\mathrm{RELICS}$ -->
     <g transform="translate(120.3 350.794255)scale(0.15 -0.15)">
      <defs>
       <path id="CMR17-4c" d="M 3469 1612 
L 3354 1612 
C 3302 981 3219 166 2125 166 
L 1530 166 
C 1274 166 1261 198 1261 414 
L 1261 3892 
C 1261 4121 1274 4185 1760 4185 
L 1901 4185 
L 1901 4352 
C 1638 4339 1331 4339 1069 4339 
C 870 4339 512 4339 326 4352 
L 326 4185 
C 768 4185 838 4185 838 3898 
L 838 453 
C 838 166 768 166 326 166 
L 326 0 
L 3315 0 
L 3469 1612 
z
" transform="scale(0.015625)"/>
       <path id="CMR17-49" d="M 1261 3898 
C 1261 4185 1338 4185 1798 4185 
L 1798 4352 
C 1594 4339 1267 4339 1050 4339 
C 832 4339 506 4339 301 4352 
L 301 4185 
C 762 4185 838 4185 838 3898 
L 838 453 
C 838 166 762 166 301 166 
L 301 0 
C 506 12 832 12 1050 12 
C 1267 12 1594 12 1798 0 
L 1798 166 
C 1338 166 1261 166 1261 453 
L 1261 3898 
z
" transform="scale(0.015625)"/>
       <path id="CMR17-53" d="M 2803 4351 
C 2803 4467 2797 4473 2758 4473 
C 2720 4473 2707 4447 2682 4390 
L 2490 3965 
C 2246 4320 1875 4480 1472 4480 
C 819 4480 294 3958 294 3301 
C 294 3101 339 2817 557 2546 
C 794 2250 1018 2198 1530 2063 
C 1722 2011 2042 1927 2106 1901 
C 2470 1747 2662 1360 2662 999 
C 2662 534 2336 38 1779 38 
C 1094 38 454 425 410 1328 
C 403 1431 397 1437 352 1437 
C 301 1437 294 1431 294 1302 
L 294 0 
C 294 -116 301 -122 339 -122 
C 384 -122 397 -90 486 109 
C 493 128 493 141 614 386 
C 934 -39 1472 -128 1779 -128 
C 2477 -128 2970 457 2970 1141 
C 2970 1476 2848 1734 2778 1850 
C 2509 2263 2221 2340 1914 2417 
C 1869 2437 1856 2437 1498 2527 
C 1152 2617 1005 2662 845 2836 
C 666 3036 602 3243 602 3449 
C 602 3868 934 4326 1478 4326 
C 2157 4326 2579 3842 2675 3036 
C 2694 2920 2701 2914 2746 2914 
C 2803 2914 2803 2933 2803 3043 
L 2803 4351 
z
" transform="scale(0.015625)"/>
      </defs>
      <use xlink:href="#CMR17-52" transform="scale(0.996264)"/>
      <use xlink:href="#CMR17-45" transform="translate(67.791102 0)scale(0.996264)"/>
      <use xlink:href="#CMR17-4c" transform="translate(130.377402 0)scale(0.996264)"/>
      <use xlink:href="#CMR17-49" transform="translate(187.75881 0)scale(0.996264)"/>
      <use xlink:href="#CMR17-43" transform="translate(220.39722 0)scale(0.996264)"/>
      <use xlink:href="#CMR17-53" transform="translate(286.9071 0)scale(0.996264)"/>
     </g>
    </g>
   </g>
  </g>
 </g>
 <defs>
  <clipPath id="p67ab3a2a2b">
   <rect x="64.8" y="43.2" width="345.6" height="324"/>
  </clipPath>
 </defs>
</svg>
