<?xml version="1.0" encoding="utf-8" standalone="no"?>
<!DOCTYPE svg PUBLIC "-//W3C//DTD SVG 1.1//EN"
  "http://www.w3.org/Graphics/SVG/1.1/DTD/svg11.dtd">
<svg xmlns:xlink="http://www.w3.org/1999/xlink" width="432pt" height="432pt" viewBox="0 0 432 432" xmlns="http://www.w3.org/2000/svg" version="1.1">
 <metadata>
  <rdf:RDF xmlns:dc="http://purl.org/dc/elements/1.1/" xmlns:cc="http://creativecommons.org/ns#" xmlns:rdf="http://www.w3.org/1999/02/22-rdf-syntax-ns#">
   <cc:Work>
    <dc:type rdf:resource="http://purl.org/dc/dcmitype/StillImage"/>
    <dc:date>2022-05-24T22:15:51.380321</dc:date>
    <dc:format>image/svg+xml</dc:format>
    <dc:creator>
     <cc:Agent>
      <dc:title>Matplotlib v3.5.1, https://matplotlib.org/</dc:title>
     </cc:Agent>
    </dc:creator>
   </cc:Work>
  </rdf:RDF>
 </metadata>
 <defs>
  <style type="text/css">*{stroke-linejoin: round; stroke-linecap: butt}</style>
 </defs>
 <g id="figure_1">
  <g id="patch_1">
   <path d="M 0 432 
L 432 432 
L 432 0 
L 0 0 
L 0 432 
z
" style="fill: none"/>
  </g>
  <g id="axes_1">
   <g id="patch_2">
    <path d="M 64.8 367.2 
L 410.4 367.2 
L 410.4 43.2 
L 64.8 43.2 
L 64.8 367.2 
z
" style="fill: none"/>
   </g>
   <g id="PolyCollection_1">
    <path d="M 64.8 39.966017 
L 64.8 39.966017 
L 68.256 43.590767 
L 71.712 47.215518 
L 75.168 50.840269 
L 78.624 54.465019 
L 82.08 58.08977 
L 85.536 61.71452 
L 88.992 65.339271 
L 92.448 68.964021 
L 95.904 72.588772 
L 99.36 76.213522 
L 102.816 79.838273 
L 106.272 83.463024 
L 109.728 87.087774 
L 113.184 90.712525 
L 116.64 94.337275 
L 120.096 97.962026 
L 123.552 101.586776 
L 127.008 105.211527 
L 130.464 108.836278 
L 133.92 112.461028 
L 137.376 116.085779 
L 140.832 119.710529 
L 144.288 123.33528 
L 147.744 126.96003 
L 151.2 130.584781 
L 154.656 134.209532 
L 158.112 137.834282 
L 161.568 141.459033 
L 165.024 145.083783 
L 168.48 148.708534 
L 171.936 152.333284 
L 175.392 155.958035 
L 178.848 159.582785 
L 182.304 163.207536 
L 185.76 166.832287 
L 189.216 170.457037 
L 192.672 174.081788 
L 196.128 177.706538 
L 199.584 181.331289 
L 203.04 184.956039 
L 206.496 188.58079 
L 209.952 192.205541 
L 213.408 195.830291 
L 216.864 199.455042 
L 220.32 203.079792 
L 223.776 206.704543 
L 227.232 210.329293 
L 230.688 213.954044 
L 234.144 217.578794 
L 237.6 221.203545 
L 241.056 224.828296 
L 244.512 228.453046 
L 247.968 232.077797 
L 251.424 235.702547 
L 254.88 239.327298 
L 258.336 242.952048 
L 261.792 246.576799 
L 265.248 250.20155 
L 268.704 253.8263 
L 272.16 257.451051 
L 275.616 261.075801 
L 279.072 264.700552 
L 282.528 268.325302 
L 285.984 271.950053 
L 289.44 275.574804 
L 292.896 279.199554 
L 296.352 282.824305 
L 299.808 286.449055 
L 303.264 290.073806 
L 306.72 293.698556 
L 310.176 297.323307 
L 313.632 300.948057 
L 317.088 304.572808 
L 320.544 308.197559 
L 324 311.822309 
L 327.456 315.44706 
L 330.912 319.07181 
L 334.368 322.696561 
L 337.824 326.321311 
L 341.28 329.946062 
L 344.736 333.570813 
L 348.192 337.195563 
L 351.648 340.820314 
L 355.104 344.445064 
L 358.56 348.069815 
L 362.016 351.694565 
L 365.472 355.319316 
L 368.928 358.944066 
L 372.384 362.568817 
L 375.84 366.193568 
L 379.296 369.818318 
L 382.752 373.443069 
L 386.208 377.067819 
L 389.664 380.69257 
L 393.12 384.31732 
L 396.576 387.942071 
L 400.032 391.566822 
L 403.488 395.191572 
L 406.944 398.816323 
L 410.4 402.441073 
L 410.4 402.441073 
L 410.4 303.92687 
L 406.944 300.301648 
L 403.488 296.676426 
L 400.032 293.051205 
L 396.576 289.425983 
L 393.12 285.800761 
L 389.664 282.17554 
L 386.208 278.550318 
L 382.752 274.925096 
L 379.296 271.299874 
L 375.84 267.674653 
L 372.384 264.049431 
L 368.928 260.424209 
L 365.472 256.798988 
L 362.016 253.173766 
L 358.56 249.548544 
L 355.104 245.923323 
L 351.648 242.298101 
L 348.192 238.672879 
L 344.736 235.047657 
L 341.28 231.422436 
L 337.824 227.797214 
L 334.368 224.171992 
L 330.912 220.546771 
L 327.456 216.921549 
L 324 213.296327 
L 320.544 209.671106 
L 317.088 206.045884 
L 313.632 202.420662 
L 310.176 198.79544 
L 306.72 195.170219 
L 303.264 191.544997 
L 299.808 187.919775 
L 296.352 184.294554 
L 292.896 180.669332 
L 289.44 177.04411 
L 285.984 173.418889 
L 282.528 169.793667 
L 279.072 166.168445 
L 275.616 162.543223 
L 272.16 158.918002 
L 268.704 155.29278 
L 265.248 151.667558 
L 261.792 148.042337 
L 258.336 144.417115 
L 254.88 140.791893 
L 251.424 137.166672 
L 247.968 133.54145 
L 244.512 129.916228 
L 241.056 126.291006 
L 237.6 122.665785 
L 234.144 119.040563 
L 230.688 115.415341 
L 227.232 111.79012 
L 223.776 108.164898 
L 220.32 104.539676 
L 216.864 100.914455 
L 213.408 97.289233 
L 209.952 93.664011 
L 206.496 90.038789 
L 203.04 86.413568 
L 199.584 82.788346 
L 196.128 79.163124 
L 192.672 75.537903 
L 189.216 71.912681 
L 185.76 68.287459 
L 182.304 64.662238 
L 178.848 61.037016 
L 175.392 57.411794 
L 171.936 53.786573 
L 168.48 50.161351 
L 165.024 46.536129 
L 161.568 42.910907 
L 158.112 39.285686 
L 154.656 35.660464 
L 151.2 32.035242 
L 147.744 28.410021 
L 144.288 24.784799 
L 140.832 21.159577 
L 137.376 17.534356 
L 133.92 13.909134 
L 130.464 10.283912 
L 127.008 6.65869 
L 123.552 3.033469 
L 120.096 -0.591753 
L 116.64 -4.216975 
L 113.184 -7.842196 
L 109.728 -11.467418 
L 106.272 -15.09264 
L 102.816 -18.717861 
L 99.36 -22.343083 
L 95.904 -25.968305 
L 92.448 -29.593527 
L 88.992 -33.218748 
L 85.536 -36.84397 
L 82.08 -40.469192 
L 78.624 -44.094413 
L 75.168 -47.719635 
L 71.712 -51.344857 
L 68.256 -54.970078 
L 64.8 -58.5953 
z
" clip-path="url(#pe5a4641f20)" style="fill: #0000ff; fill-opacity: 0.2"/>
   </g>
   <g id="PathCollection_1">
    <path d="M 384.48 366.055489 
L 385.587085 367.2 
L 386.208 367.2 
L 387.936 367.2 
L 389.664 367.2 
L 391.392 367.2 
L 392.077302 367.2 
L 391.392 366.448271 
L 390.538554 365.58 
L 389.664 364.617694 
L 389.01663 363.96 
L 387.936 362.772164 
L 387.509742 362.34 
L 386.208 360.90539 
L 386.024682 360.72 
L 384.525043 359.1 
L 384.48 359.050964 
L 382.946647 357.48 
L 382.752 357.267917 
L 381.37641 355.86 
L 381.024 355.475235 
L 379.81571 354.24 
L 379.296 353.6713 
L 378.264974 352.62 
L 377.568 351.855279 
L 376.727272 351 
L 375.84 350.02349 
L 375.206557 349.38 
L 374.112 348.176855 
L 373.700787 347.76 
L 372.384 346.308396 
L 372.217459 346.14 
L 370.710631 344.52 
L 370.656 344.460532 
L 369.132772 342.9 
L 368.928 342.676844 
L 367.563162 341.28 
L 367.2 340.883418 
L 366.003194 339.66 
L 365.472 339.078611 
L 364.453191 338.04 
L 363.744 337.261676 
L 362.916589 336.42 
L 362.016 335.42868 
L 361.397076 334.8 
L 360.288 333.580823 
L 359.892546 333.18 
L 358.56 331.710589 
L 358.411044 331.56 
L 356.896639 329.94 
L 356.832 329.869643 
L 355.31934 328.32 
L 355.104 328.085283 
L 353.750387 326.7 
L 353.376 326.291078 
L 352.191188 325.08 
L 351.648 324.485354 
L 350.641961 323.46 
L 349.92 322.667454 
L 349.106514 321.84 
L 348.192 320.833275 
L 347.588176 320.22 
L 346.464 318.984054 
L 346.085034 318.6 
L 344.736 317.111951 
L 344.605456 316.98 
L 343.083071 315.36 
L 343.008 315.278291 
L 341.506356 313.74 
L 341.28 313.493228 
L 339.938092 312.12 
L 339.552 311.698206 
L 338.379699 310.5 
L 337.824 309.891522 
L 336.831292 308.88 
L 336.096 308.0726 
L 335.297057 307.26 
L 334.368 306.237276 
L 333.779857 305.64 
L 332.64 304.386535 
L 332.278265 304.02 
L 330.912 302.512466 
L 330.800712 302.4 
L 329.269928 300.78 
L 329.184 300.686472 
L 327.693826 299.16 
L 327.456 298.900673 
L 326.126283 297.54 
L 325.728 297.104795 
L 324.568734 295.92 
L 324 295.297105 
L 323.021194 294.3 
L 322.272 293.477104 
L 321.488231 292.68 
L 320.544 291.640652 
L 319.972151 291.06 
L 318.816 289.78825 
L 318.472255 289.44 
L 317.088 287.912113 
L 316.996833 287.82 
L 315.457213 286.2 
L 315.36 286.094179 
L 313.881753 284.58 
L 313.632 284.307611 
L 312.314965 282.96 
L 311.904 282.510838 
L 310.758299 281.34 
L 310.176 280.702096 
L 309.211675 279.72 
L 308.448 278.880955 
L 307.680046 278.1 
L 306.72 277.043333 
L 306.16513 276.48 
L 304.992 275.189184 
L 304.667018 274.86 
L 303.264 273.310875 
L 303.193839 273.24 
L 301.644928 271.62 
L 301.536 271.501408 
L 300.070146 270 
L 299.808 269.714036 
L 298.504146 268.38 
L 298.08 267.916327 
L 296.948352 266.76 
L 296.352 266.106535 
L 295.402748 265.14 
L 294.624 264.284139 
L 293.872515 263.52 
L 292.896 262.445302 
L 292.358811 261.9 
L 291.168 260.589319 
L 290.862574 260.28 
L 289.44 258.708727 
L 289.391752 258.66 
L 287.83308 257.04 
L 287.712 256.908151 
L 286.259008 255.42 
L 285.984 255.11994 
L 284.693834 253.8 
L 284.256 253.321252 
L 283.138871 252.18 
L 282.528 251.510442 
L 281.594422 250.56 
L 280.8 249.686643 
L 280.065653 248.94 
L 279.072 247.846544 
L 278.553209 247.32 
L 277.344 245.988638 
L 277.058941 245.7 
L 275.616 244.105648 
L 275.590598 244.08 
L 274.021678 242.46 
L 273.888 242.314402 
L 272.448348 240.84 
L 272.16 240.525315 
L 270.884034 239.22 
L 270.432 238.725606 
L 269.329885 237.6 
L 268.704 236.913786 
L 267.786709 235.98 
L 266.976 235.088454 
L 266.259472 234.36 
L 265.248 233.247044 
L 264.748341 232.74 
L 263.52 231.387121 
L 263.256138 231.12 
L 261.792 229.501614 
L 261.790401 229.5 
L 260.210728 227.88 
L 260.064 227.720154 
L 258.638172 226.26 
L 258.336 225.930153 
L 257.074757 224.64 
L 256.608 224.129378 
L 255.521461 223.02 
L 254.88 222.316496 
L 253.979622 221.4 
L 253.152 220.489556 
L 252.453987 219.78 
L 251.424 218.646786 
L 250.944222 218.16 
L 249.696 216.784748 
L 249.454188 216.54 
L 247.979955 214.92 
L 247.968 214.906971 
L 246.400237 213.3 
L 246.24 213.125399 
L 244.828487 211.68 
L 244.512 211.334446 
L 243.26601 210.06 
L 242.784 209.532558 
L 241.713615 208.44 
L 241.056 207.718555 
L 240.173174 206.82 
L 239.328 205.889934 
L 238.649216 205.2 
L 237.6 204.045752 
L 237.140871 203.58 
L 235.872 202.181498 
L 235.653111 201.96 
L 234.169182 200.34 
L 234.144 200.312562 
L 232.59021 198.72 
L 232.416 198.530131 
L 231.0193 197.1 
L 230.688 196.738185 
L 229.457802 195.48 
L 228.96 194.935135 
L 227.906359 193.86 
L 227.232 193.119949 
L 226.367378 192.24 
L 225.504 191.28957 
L 224.845174 190.62 
L 223.776 189.443925 
L 223.338307 189 
L 222.048 187.577347 
L 221.852933 187.38 
L 220.35886 185.76 
L 220.32 185.717665 
L 218.780655 184.14 
L 218.592 183.934341 
L 217.210621 182.52 
L 216.864 182.141359 
L 215.650143 180.9 
L 215.136 180.337097 
L 214.099706 179.28 
L 213.408 178.520663 
L 212.562249 177.66 
L 211.68 176.688475 
L 211.041851 176.04 
L 209.952 174.841283 
L 209.536549 174.42 
L 208.224 172.972271 
L 208.053678 172.8 
L 206.548998 171.18 
L 206.496 171.122274 
L 204.971578 169.56 
L 204.768 169.338019 
L 203.402457 167.94 
L 203.04 167.543959 
L 201.843042 166.32 
L 201.312 165.738434 
L 200.293667 164.7 
L 199.584 163.920682 
L 198.757802 163.08 
L 197.856 162.086744 
L 197.239149 161.46 
L 196.128 160.237808 
L 195.735618 159.84 
L 194.4 158.366244 
L 194.255374 158.22 
L 192.739599 156.6 
L 192.672 156.526381 
L 191.162989 154.98 
L 190.944 154.741158 
L 189.594817 153.36 
L 189.216 152.945975 
L 188.036512 151.74 
L 187.488 151.139132 
L 186.488256 150.12 
L 185.76 149.319989 
L 184.954055 148.5 
L 184.032 147.484406 
L 183.437037 146.88 
L 182.304 145.633478 
L 181.935538 145.26 
L 180.576 143.759237 
L 180.458051 143.64 
L 178.930664 142.02 
L 178.848 141.929978 
L 177.354894 140.4 
L 177.12 140.143747 
L 175.787712 138.78 
L 175.392 138.347394 
L 174.230562 137.16 
L 173.664 136.539177 
L 172.683488 135.54 
L 171.936 134.718567 
L 171.151023 133.92 
L 170.208 132.881436 
L 169.635544 132.3 
L 168.48 131.028268 
L 168.136332 130.68 
L 166.752 129.151223 
L 166.661738 129.06 
L 165.122194 127.44 
L 165.024 127.333056 
L 163.547302 125.82 
L 163.296 125.545776 
L 161.98115 124.2 
L 161.568 123.748205 
L 160.425198 122.58 
L 159.84 121.938563 
L 158.879377 120.96 
L 158.112 120.116398 
L 157.348726 119.34 
L 156.384 118.27769 
L 155.834817 117.72 
L 154.656 116.422154 
L 154.338026 116.1 
L 152.928 114.542168 
L 152.866469 114.48 
L 151.314192 112.86 
L 151.2 112.735605 
L 149.740223 111.24 
L 149.472 110.947235 
L 148.175142 109.62 
L 147.744 109.148395 
L 146.620338 108 
L 146.016 107.337367 
L 145.07594 106.38 
L 144.288 105.513463 
L 143.547183 104.76 
L 142.56 103.673124 
L 142.034902 103.14 
L 140.832 101.81511 
L 140.540647 101.52 
L 139.104 99.93204 
L 139.072279 99.9 
L 137.506672 98.28 
L 137.376 98.137617 
L 135.933665 96.66 
L 135.648 96.348113 
L 134.3697 95.04 
L 133.92 94.547952 
L 132.815965 93.42 
L 132.192 92.735603 
L 131.273193 91.8 
L 130.464 90.909741 
L 129.746414 90.18 
L 128.736 89.067717 
L 128.235821 88.56 
L 127.008 87.207108 
L 126.744224 86.94 
L 125.28 85.320802 
L 125.279205 85.32 
L 123.699645 83.7 
L 123.552 83.539081 
L 122.127639 82.08 
L 121.824 81.748398 
L 120.564835 80.46 
L 120.096 79.946861 
L 119.012202 78.84 
L 118.368 78.133145 
L 117.471155 77.22 
L 116.64 76.30521 
L 115.946442 75.6 
L 114.912 74.461445 
L 114.437598 73.98 
L 113.184 72.598119 
L 112.948788 72.36 
L 111.47213 70.74 
L 111.456 70.722416 
L 109.893121 69.12 
L 109.728 68.939987 
L 108.322155 67.5 
L 108 67.148077 
L 106.76056 65.88 
L 106.272 65.345108 
L 105.209092 64.26 
L 104.544 63.529946 
L 103.669843 62.64 
L 102.816 61.699848 
L 102.147289 61.02 
L 101.088 59.854283 
L 100.640259 59.4 
L 99.36 57.98811 
L 99.154372 57.78 
L 97.665163 56.16 
L 97.632 56.123856 
L 96.087108 54.54 
L 95.904 54.340323 
L 94.517224 52.92 
L 94.176 52.547137 
L 92.956887 51.3 
L 92.448 50.742677 
L 91.406651 49.68 
L 90.72 48.925986 
L 89.869279 48.06 
L 88.992 47.093645 
L 88.348965 46.44 
L 87.264 45.246204 
L 86.843832 44.82 
L 85.536 43.377049 
L 85.361011 43.2 
L 83.808 43.2 
L 82.08 43.2 
L 80.352 43.2 
L 78.72748 43.2 
L 80.254754 44.82 
L 80.352 44.924663 
L 81.812059 46.44 
L 82.08 46.728529 
L 83.364995 48.06 
L 83.808 48.537341 
L 84.912692 49.68 
L 85.536 50.352114 
L 86.454099 51.3 
L 87.264 52.17408 
L 87.987931 52.92 
L 88.992 54.004748 
L 89.512606 54.54 
L 90.72 55.845991 
L 91.026145 56.16 
L 92.448 57.702295 
L 92.523908 57.78 
L 94.059653 59.4 
L 94.176 59.525224 
L 95.616546 61.02 
L 95.904 61.329551 
L 97.168982 62.64 
L 97.632 63.138928 
L 98.716072 64.26 
L 99.36 64.95439 
L 100.256743 65.88 
L 101.088 66.777195 
L 101.789681 67.5 
L 102.816 68.608889 
L 103.313266 69.12 
L 104.544 70.451392 
L 104.825466 70.74 
L 106.272 72.310218 
L 106.320631 72.36 
L 107.864868 73.98 
L 108 74.125445 
L 109.421349 75.6 
L 109.728 75.930235 
L 110.973284 77.22 
L 111.456 77.740177 
L 112.519768 78.84 
L 113.184 79.556328 
L 114.059702 80.46 
L 114.912 81.379975 
L 115.591744 82.08 
L 116.64 83.212697 
L 117.114235 83.7 
L 118.368 85.056463 
L 118.625094 85.32 
L 120.096 86.917832 
L 120.117656 86.94 
L 121.670402 88.56 
L 121.824 88.725324 
L 123.22647 90.18 
L 123.552 90.530577 
L 124.777905 91.8 
L 125.28 92.341084 
L 126.323781 93.42 
L 127.008 94.157926 
L 127.862978 95.04 
L 128.736 95.982415 
L 129.394124 96.66 
L 130.464 97.816167 
L 130.91552 98.28 
L 132.192 99.661198 
L 132.425034 99.9 
L 133.916663 101.52 
L 133.92 101.52359 
L 135.476256 103.14 
L 135.648 103.32486 
L 137.031912 104.76 
L 137.376 105.130575 
L 138.582846 106.38 
L 139.104 106.941648 
L 140.128115 108 
L 140.832 108.75918 
L 141.666575 109.62 
L 142.56 110.584511 
L 143.196825 111.24 
L 144.288 112.419294 
L 144.717126 112.86 
L 146.016 114.265591 
L 146.225293 114.48 
L 147.723176 116.1 
L 147.744 116.122404 
L 149.282432 117.72 
L 149.472 117.92405 
L 150.837676 119.34 
L 151.2 119.730227 
L 152.38811 120.96 
L 152.928 121.541866 
L 153.932772 122.58 
L 154.656 123.360087 
L 155.470496 124.2 
L 156.384 125.186259 
L 156.99985 125.82 
L 158.112 127.022072 
L 158.519056 127.44 
L 159.84 128.868097 
L 160.027396 129.06 
L 161.530012 130.68 
L 161.568 130.72087 
L 163.088931 132.3 
L 163.296 132.522893 
L 164.643764 133.92 
L 165.024 134.329532 
L 166.193699 135.54 
L 166.752 136.141734 
L 167.737756 137.16 
L 168.48 137.960643 
L 169.274746 138.78 
L 170.208 139.787656 
L 170.803205 140.4 
L 171.936 141.624498 
L 172.321318 142.02 
L 173.664 143.472533 
L 173.827575 143.64 
L 175.337173 145.26 
L 175.392 145.318989 
L 176.895755 146.88 
L 177.12 147.121387 
L 178.450179 148.5 
L 178.848 148.928486 
L 179.999616 150.12 
L 180.576 150.741251 
L 181.54307 151.74 
L 182.304 152.560846 
L 183.079327 153.36 
L 184.032 154.388696 
L 184.606895 154.98 
L 185.76 156.226565 
L 186.123915 156.6 
L 187.488 158.07662 
L 187.628082 158.22 
L 189.144659 159.84 
L 189.216 159.916758 
L 190.702906 161.46 
L 190.944 161.719529 
L 192.256922 163.08 
L 192.672 163.527087 
L 193.805864 164.7 
L 194.4 165.340412 
L 195.348717 166.32 
L 196.128 167.160691 
L 196.884244 167.94 
L 197.856 168.989377 
L 198.410922 169.56 
L 199.584 170.828269 
L 199.926854 171.18 
L 201.312 172.679625 
L 201.42964 172.8 
L 202.952471 174.42 
L 203.04 174.514175 
L 204.510385 176.04 
L 204.768 176.317319 
L 206.063995 177.66 
L 206.496 178.125333 
L 207.612444 179.28 
L 208.224 179.939216 
L 209.154699 180.9 
L 209.952 181.760175 
L 210.6895 182.52 
L 211.68 183.589693 
L 212.215293 184.14 
L 213.408 185.429604 
L 213.73014 185.76 
L 215.136 187.282217 
L 215.231553 187.38 
L 216.760613 189 
L 216.864 189.111239 
L 218.318195 190.62 
L 218.592 190.914754 
L 219.871401 192.24 
L 220.32 192.723222 
L 221.419361 193.86 
L 222.048 194.537659 
L 222.961021 195.48 
L 223.776 196.359295 
L 224.4951 197.1 
L 225.504 198.189639 
L 226.020012 198.72 
L 227.232 200.030565 
L 227.53378 200.34 
L 228.96 201.886706 
L 229.031617 201.96 
L 230.569084 203.58 
L 230.688 203.707949 
L 232.126337 205.2 
L 232.416 205.511831 
L 233.679143 206.82 
L 234.144 207.32075 
L 235.226616 208.44 
L 235.872 209.135738 
L 236.767686 210.06 
L 237.6 210.958046 
L 238.301047 211.68 
L 239.328 212.789212 
L 239.825084 213.3 
L 241.056 214.631147 
L 241.337778 214.92 
L 242.784 216.489316 
L 242.833524 216.54 
L 244.377887 218.16 
L 244.512 218.304302 
L 245.934813 219.78 
L 246.24 220.108549 
L 247.487221 221.4 
L 247.968 221.917916 
L 249.034212 223.02 
L 249.696 223.733449 
L 250.574696 224.64 
L 251.424 225.556425 
L 252.107345 226.26 
L 253.152 227.388407 
L 253.630513 227.88 
L 254.88 229.231343 
L 255.142141 229.5 
L 256.608 231.091537 
L 256.635811 231.12 
L 258.187023 232.74 
L 258.336 232.900297 
L 259.743625 234.36 
L 260.064 234.704906 
L 261.29564 235.98 
L 261.792 236.514716 
L 262.842152 237.6 
L 263.52 238.330791 
L 264.382056 239.22 
L 265.248 240.154428 
L 265.913999 240.84 
L 266.976 241.987219 
L 267.436305 242.46 
L 268.704 243.831149 
L 268.946875 244.08 
L 270.432 245.693361 
L 270.438487 245.7 
L 271.996493 247.32 
L 272.16 247.495932 
L 273.552776 248.94 
L 273.888 249.300899 
L 275.1044 250.56 
L 275.616 251.111148 
L 276.650439 252.18 
L 277.344 252.927759 
L 278.189768 253.8 
L 279.072 254.752051 
L 279.721012 255.42 
L 280.8 256.585643 
L 281.242465 257.04 
L 282.528 258.430557 
L 282.751986 258.66 
L 284.246393 260.28 
L 284.256 260.290333 
L 285.806301 261.9 
L 285.984 262.091205 
L 287.362266 263.52 
L 287.712 263.896527 
L 288.913505 265.14 
L 289.44 265.707209 
L 290.459075 266.76 
L 291.168 267.524351 
L 291.997836 268.38 
L 292.896 269.34929 
L 293.528388 270 
L 294.624 271.183675 
L 295.048997 271.62 
L 296.352 273.029563 
L 296.55748 273.24 
L 298.056794 274.86 
L 298.08 274.884958 
L 299.616446 276.48 
L 299.808 276.686114 
L 301.172098 278.1 
L 301.536 278.491786 
L 302.722956 279.72 
L 303.264 280.302897 
L 304.268065 281.34 
L 304.992 282.120563 
L 305.806264 282.96 
L 306.72 283.946141 
L 307.336133 284.58 
L 308.448 285.78131 
L 308.855906 286.2 
L 310.176 287.626574 
L 310.364931 287.82 
L 311.867531 289.44 
L 311.904 289.479222 
L 313.426931 291.06 
L 313.632 291.280659 
L 314.982275 292.68 
L 315.36 293.086676 
L 316.532757 294.3 
L 317.088 294.898209 
L 318.07741 295.92 
L 318.816 296.716391 
L 319.615055 297.54 
L 320.544 298.542601 
L 321.14425 299.16 
L 322.272 300.378542 
L 322.663199 300.78 
L 324 302.225326 
L 324.170648 302.4 
L 325.678607 304.02 
L 325.728 304.073123 
L 327.237757 305.64 
L 327.456 305.874835 
L 328.792797 307.26 
L 329.184 307.681192 
L 330.34291 308.88 
L 330.912 309.493143 
L 331.887113 310.5 
L 332.64 311.311833 
L 333.424213 312.12 
L 334.368 313.138665 
L 334.952743 313.74 
L 336.096 314.975368 
L 336.47088 315.36 
L 337.824 316.824108 
L 337.976324 316.98 
L 339.490021 318.6 
L 339.552 318.666659 
L 341.048927 320.22 
L 341.28 320.468643 
L 342.603668 321.84 
L 343.008 322.275334 
L 344.153416 323.46 
L 344.736 324.087694 
L 345.697177 325.08 
L 346.464 325.906886 
L 347.23374 326.7 
L 348.192 327.734329 
L 348.761617 328.32 
L 349.92 329.571782 
L 350.278954 329.94 
L 351.648 331.421561 
L 351.783298 331.56 
L 353.301776 333.18 
L 353.376 333.259828 
L 354.860441 334.8 
L 355.104 335.062079 
L 356.414888 336.42 
L 356.832 336.869099 
L 357.964279 338.04 
L 358.56 338.681862 
L 359.507606 339.66 
L 360.288 340.501545 
L 361.043642 341.28 
L 362.016 342.32959 
L 362.570875 342.9 
L 363.744 344.167779 
L 364.087426 344.52 
L 365.472 346.019031 
L 365.590246 346.14 
L 367.113872 347.76 
L 367.2 347.85263 
L 368.672302 349.38 
L 368.928 349.655143 
L 370.226461 351 
L 370.656 351.462485 
L 371.775501 352.62 
L 372.384 353.275642 
L 373.318402 354.24 
L 374.112 355.095807 
L 374.85392 355.86 
L 375.84 356.924442 
L 376.380523 357.48 
L 377.568 358.763355 
L 377.896301 359.1 
L 379.296 360.614816 
L 379.398813 360.72 
L 380.926312 362.34 
L 381.024 362.445063 
L 382.484511 363.96 
L 382.752 364.247832 
L 384.038388 365.58 
z
" clip-path="url(#pe5a4641f20)" style="fill: #ff0000; fill-opacity: 0.6"/>
    <path d="M 410.4 322.387956 
L 410.4 321.84 
L 410.4 320.22 
L 410.4 318.6 
L 410.4 316.98 
L 410.4 315.434907 
L 410.326813 315.36 
L 408.789955 313.74 
L 408.672 313.613073 
L 407.232808 312.12 
L 406.944 311.809058 
L 405.680111 310.5 
L 405.216 310.000003 
L 404.13275 308.88 
L 403.488 308.184875 
L 402.591797 307.26 
L 401.76 306.36242 
L 401.05856 305.64 
L 400.032 304.531098 
L 399.534655 304.02 
L 398.304 302.688995 
L 398.022106 302.4 
L 396.576 300.830639 
L 396.526524 300.78 
L 394.982271 299.16 
L 394.848 299.015513 
L 393.425478 297.54 
L 393.12 297.211103 
L 391.873211 295.92 
L 391.392 295.401564 
L 390.326371 294.3 
L 389.664 293.585845 
L 388.786051 292.68 
L 387.936 291.762669 
L 387.253582 291.06 
L 386.208 289.930465 
L 385.730616 289.44 
L 384.48 288.087279 
L 384.219219 287.82 
L 382.752 286.226737 
L 382.725877 286.2 
L 381.174259 284.58 
L 381.024 284.418307 
L 379.617817 282.96 
L 379.296 282.613504 
L 378.065977 281.34 
L 377.568 280.803484 
L 376.519656 279.72 
L 375.84 278.987177 
L 374.979964 278.1 
L 374.112 277.163283 
L 373.448261 276.48 
L 372.384 275.330201 
L 371.926229 274.86 
L 370.656 273.485938 
L 370.415979 273.24 
L 368.928 271.623209 
L 368.924864 271.62 
L 367.365916 270 
L 367.2 269.821456 
L 365.809823 268.38 
L 365.472 268.016262 
L 364.258407 266.76 
L 363.744 266.205764 
L 362.712601 265.14 
L 362.016 264.388873 
L 361.173534 263.52 
L 360.288 262.564267 
L 359.642591 261.9 
L 358.56 260.730313 
L 358.121488 260.28 
L 356.832 258.884977 
L 356.612378 258.66 
L 355.116951 257.04 
L 355.104 257.026069 
L 353.557241 255.42 
L 353.376 255.224962 
L 352.001494 253.8 
L 351.648 253.41938 
L 350.450499 252.18 
L 349.92 251.608407 
L 348.905204 250.56 
L 348.192 249.790938 
L 347.366757 248.94 
L 346.464 247.965624 
L 345.836569 247.32 
L 344.736 246.130804 
L 344.316388 245.7 
L 343.008 244.284404 
L 342.808412 244.08 
L 341.307662 242.46 
L 341.28 242.430247 
L 339.748232 240.84 
L 339.552 240.628827 
L 338.192829 239.22 
L 337.824 238.822861 
L 336.642251 237.6 
L 336.096 237.011417 
L 335.097462 235.98 
L 334.368 235.193373 
L 333.55963 234.36 
L 332.64 233.367358 
L 332.03019 232.74 
L 330.912 231.531679 
L 330.510923 231.12 
L 329.184 229.685573 
L 329.002739 229.5 
L 327.498039 227.88 
L 327.456 227.834781 
L 325.938888 226.26 
L 325.728 226.033052 
L 324.383824 224.64 
L 324 224.226705 
L 322.833659 223.02 
L 322.272 222.414797 
L 321.289372 221.4 
L 320.544 220.596184 
L 319.752149 219.78 
L 318.816 218.769474 
L 318.22345 218.16 
L 317.088 216.932944 
L 316.705089 216.54 
L 315.36 215.084441 
L 315.199353 214.92 
L 313.688083 213.3 
L 313.632 213.239675 
L 312.129207 211.68 
L 311.904 211.43764 
L 310.574479 210.06 
L 310.176 209.630917 
L 309.024722 208.44 
L 308.448 207.818548 
L 307.48093 206.82 
L 306.72 205.999373 
L 305.94431 205.2 
L 304.992 204.171975 
L 304.416344 203.58 
L 303.264 202.334603 
L 302.898881 201.96 
L 301.536 200.485162 
L 301.394153 200.34 
L 299.877791 198.72 
L 299.808 198.64493 
L 298.319187 197.1 
L 298.08 196.842592 
L 296.764791 195.48 
L 296.352 195.035498 
L 295.215437 193.86 
L 294.624 193.222674 
L 293.672135 192.24 
L 292.896 191.402943 
L 292.136109 190.62 
L 291.168 189.574866 
L 290.608868 189 
L 289.44 187.736662 
L 289.092292 187.38 
L 287.712 185.885567 
L 287.589275 185.76 
L 286.067162 184.14 
L 285.984 184.050548 
L 284.508826 182.52 
L 284.256 182.247911 
L 282.954757 180.9 
L 282.528 180.44045 
L 281.405802 179.28 
L 280.8 178.627177 
L 279.862983 177.66 
L 279.072 176.806898 
L 278.327544 176.04 
L 277.344 174.978152 
L 276.801018 174.42 
L 275.616 173.139126 
L 275.285317 172.8 
L 273.888 171.28639 
L 273.784024 171.18 
L 272.256194 169.56 
L 272.16 169.456529 
L 270.698123 167.94 
L 270.432 167.653599 
L 269.144376 166.32 
L 268.704 165.845776 
L 267.595813 164.7 
L 266.976 164.032061 
L 266.05347 163.08 
L 265.248 162.211242 
L 264.518609 161.46 
L 263.52 160.381835 
L 262.992789 159.84 
L 261.792 158.542 
L 261.477951 158.22 
L 260.064 156.689425 
L 259.976596 156.6 
L 258.444887 154.98 
L 258.336 154.862876 
L 256.887076 153.36 
L 256.608 153.059657 
L 255.333646 151.74 
L 254.88 151.251479 
L 253.785469 150.12 
L 253.152 149.437329 
L 252.243594 148.5 
L 251.424 147.615978 
L 250.709303 146.88 
L 249.696 145.785921 
L 249.184176 145.26 
L 247.968 143.945289 
L 247.670189 143.64 
L 246.24 142.089318 
L 246.172255 142.02 
L 244.633238 140.4 
L 244.512 140.269591 
L 243.075682 138.78 
L 242.784 138.466087 
L 241.522564 137.16 
L 241.056 136.65756 
L 239.974766 135.54 
L 239.328 134.842982 
L 238.433351 133.92 
L 237.6 133.02111 
L 236.89962 132.3 
L 235.872 131.190414 
L 235.375176 130.68 
L 234.144 129.348998 
L 233.862025 129.06 
L 232.416 127.491439 
L 232.365729 127.44 
L 230.821246 125.82 
L 230.688 125.676674 
L 229.263941 124.2 
L 228.96 123.872892 
L 227.711129 122.58 
L 227.232 122.064022 
L 226.163702 120.96 
L 225.504 120.249025 
L 224.622739 119.34 
L 223.776 118.42664 
L 223.089557 117.72 
L 222.048 116.595318 
L 221.565782 116.1 
L 220.32 114.753132 
L 220.053453 114.48 
L 218.592 112.894007 
L 218.558765 112.86 
L 217.00891 111.24 
L 216.864 111.084129 
L 215.45185 109.62 
L 215.136 109.280073 
L 213.899337 108 
L 213.408 107.470868 
L 212.352275 106.38 
L 211.68 105.655461 
L 210.811754 104.76 
L 209.952 103.832574 
L 209.27911 103.14 
L 208.224 102.000637 
L 207.755992 101.52 
L 206.496 100.157697 
L 206.244468 99.9 
L 204.768 98.29703 
L 204.751357 98.28 
L 203.196227 96.66 
L 203.04 96.491955 
L 201.639407 95.04 
L 201.312 94.687633 
L 200.087188 93.42 
L 199.584 92.8781 
L 198.540482 91.8 
L 197.856 91.062291 
L 197.000394 90.18 
L 196.128 89.238913 
L 195.468276 88.56 
L 194.4 87.406375 
L 193.945801 86.94 
L 192.672 85.562697 
L 192.435064 85.32 
L 190.944 83.700515 
L 190.943497 83.7 
L 189.383197 82.08 
L 189.216 81.900156 
L 187.826611 80.46 
L 187.488 80.095573 
L 186.274678 78.84 
L 185.76 78.28572 
L 184.72832 77.22 
L 184.032 76.469519 
L 183.188655 75.6 
L 182.304 74.645662 
L 181.657051 73.98 
L 180.576 72.812537 
L 180.135203 72.36 
L 178.848 70.968139 
L 178.625237 70.74 
L 177.130099 69.12 
L 177.12 69.109142 
L 175.569818 67.5 
L 175.392 67.308732 
L 174.013461 65.88 
L 173.664 65.503896 
L 172.461806 64.26 
L 171.936 63.693731 
L 170.915786 62.64 
L 170.208 61.877148 
L 169.376533 61.02 
L 168.48 60.052824 
L 167.845431 59.4 
L 166.752 58.219127 
L 166.324196 57.78 
L 165.024 56.374026 
L 164.814981 56.16 
L 163.316189 54.54 
L 163.296 54.518294 
L 161.756088 52.92 
L 161.568 52.717686 
L 160.199953 51.3 
L 159.84 50.912603 
L 158.648569 49.68 
L 158.112 49.102135 
L 157.10288 48.06 
L 156.384 47.285181 
L 155.564027 46.44 
L 154.656 45.460402 
L 154.033413 44.82 
L 152.928 43.62615 
L 152.512773 43.2 
L 151.2 43.2 
L 149.472 43.2 
L 147.744 43.2 
L 146.016 43.2 
L 145.907803 43.2 
L 146.016 43.317729 
L 147.483064 44.82 
L 147.744 45.104476 
L 149.049618 46.44 
L 149.472 46.901465 
L 150.606041 48.06 
L 151.2 48.710435 
L 152.152398 49.68 
L 152.928 50.531845 
L 153.683578 51.3 
L 154.656 52.369577 
L 155.19832 52.92 
L 156.384 54.224138 
L 156.695926 54.54 
L 158.112 56.102958 
L 158.168486 56.16 
L 159.723907 57.78 
L 159.84 57.90634 
L 161.298701 59.4 
L 161.568 59.693642 
L 162.864711 61.02 
L 163.296 61.491279 
L 164.420564 62.64 
L 165.024 63.300945 
L 165.96618 64.26 
L 166.752 65.123263 
L 167.496391 65.88 
L 168.48 66.961846 
L 169.010285 67.5 
L 170.208 68.81769 
L 170.50658 69.12 
L 171.936 70.698112 
L 171.977486 70.74 
L 173.539596 72.36 
L 173.664 72.495407 
L 175.113896 73.98 
L 175.392 74.283294 
L 176.679332 75.6 
L 177.12 76.081615 
L 178.234618 77.22 
L 178.848 77.891982 
L 179.779412 78.84 
L 180.576 79.715299 
L 181.308597 80.46 
L 182.304 81.554775 
L 182.8216 82.08 
L 184.032 83.411976 
L 184.316507 83.7 
L 185.76 85.294092 
L 185.785663 85.32 
L 187.354864 86.94 
L 187.488 87.084934 
L 188.928645 88.56 
L 189.216 88.873439 
L 190.493476 90.18 
L 190.944 90.67248 
L 192.048191 91.8 
L 192.672 92.48356 
L 193.592085 93.42 
L 194.4 94.307962 
L 195.120189 95.04 
L 196.128 96.148374 
L 196.632255 96.66 
L 197.856 98.007008 
L 198.125697 98.28 
L 199.584 99.890915 
L 199.593001 99.9 
L 201.169709 101.52 
L 201.312 101.674926 
L 202.742943 103.14 
L 203.04 103.46408 
L 204.307137 104.76 
L 204.768 105.263879 
L 205.861248 106.38 
L 206.496 107.075713 
L 207.404192 108 
L 208.224 108.901261 
L 208.931156 109.62 
L 209.952 110.742653 
L 210.44224 111.24 
L 211.68 112.602799 
L 211.934134 112.86 
L 213.403599 114.48 
L 213.408 114.484794 
L 214.984128 116.1 
L 215.136 116.265388 
L 216.556786 117.72 
L 216.864 118.055223 
L 218.12031 119.34 
L 218.592 119.85582 
L 219.673781 120.96 
L 220.32 121.668452 
L 221.215726 122.58 
L 222.048 123.495205 
L 222.741489 124.2 
L 223.776 125.337623 
L 224.251543 125.82 
L 225.504 127.199362 
L 225.741806 127.44 
L 227.218126 129.06 
L 227.232 129.075112 
L 228.798115 130.68 
L 228.96 130.856323 
L 230.370169 132.3 
L 230.688 132.646874 
L 231.93299 133.92 
L 232.416 134.448308 
L 233.485782 135.54 
L 234.144 136.261787 
L 235.026676 137.16 
L 235.872 138.089807 
L 236.551177 138.78 
L 237.6 139.933296 
L 238.060154 140.4 
L 239.328 141.796712 
L 239.548696 142.02 
L 241.032239 143.64 
L 241.056 143.665879 
L 242.611666 145.26 
L 242.784 145.447739 
L 244.183087 146.88 
L 244.512 147.23904 
L 245.74517 148.5 
L 246.24 149.041352 
L 247.297244 150.12 
L 247.968 150.855726 
L 248.837035 151.74 
L 249.696 152.685077 
L 250.360207 153.36 
L 251.424 154.529684 
L 251.868058 154.98 
L 253.152 156.394864 
L 253.35479 156.6 
L 254.845932 158.22 
L 254.88 158.257101 
L 256.424777 159.84 
L 256.608 160.039639 
L 257.995535 161.46 
L 258.336 161.831726 
L 259.556844 163.08 
L 260.064 163.634959 
L 261.108157 164.7 
L 261.792 165.450279 
L 262.646791 166.32 
L 263.52 167.281025 
L 264.168572 167.94 
L 265.248 169.1268 
L 265.675242 169.56 
L 266.976 170.993836 
L 267.160068 171.18 
L 268.6592 172.8 
L 268.704 172.848783 
L 270.237442 174.42 
L 270.432 174.63203 
L 271.807506 176.04 
L 272.16 176.42494 
L 273.368005 177.66 
L 273.888 178.229138 
L 274.918515 179.28 
L 275.616 180.045458 
L 276.455934 180.9 
L 277.344 181.877614 
L 277.976309 182.52 
L 279.072 183.724659 
L 279.481693 184.14 
L 280.8 185.593645 
L 280.964514 185.76 
L 282.472037 187.38 
L 282.528 187.44093 
L 284.049658 189 
L 284.256 189.224919 
L 285.618994 190.62 
L 285.984 191.018689 
L 287.178645 192.24 
L 287.712 192.823896 
L 288.728306 193.86 
L 289.44 194.641273 
L 290.264453 195.48 
L 291.168 196.474807 
L 291.783455 197.1 
L 292.896 198.323275 
L 293.287394 198.72 
L 294.624 200.19431 
L 294.768107 200.34 
L 296.284442 201.96 
L 296.352 202.033547 
L 297.861416 203.58 
L 298.08 203.818311 
L 299.429994 205.2 
L 299.808 205.612981 
L 300.988758 206.82 
L 301.536 207.419244 
L 302.537522 208.44 
L 303.264 209.237736 
L 304.072337 210.06 
L 304.992 211.072597 
L 305.590019 211.68 
L 306.72 212.922665 
L 307.092328 213.3 
L 308.448 214.795851 
L 308.570826 214.92 
L 310.096412 216.54 
L 310.176 216.626642 
L 311.672713 218.16 
L 311.904 218.412215 
L 313.240498 219.78 
L 313.632 220.207824 
L 314.798334 221.4 
L 315.36 222.015191 
L 316.346151 223.02 
L 317.088 223.834861 
L 317.879571 224.64 
L 318.816 225.670994 
L 319.39599 226.26 
L 320.544 227.522845 
L 320.896479 227.88 
L 322.272 229.398289 
L 322.372649 229.5 
L 323.907944 231.12 
L 324 231.22022 
L 325.483542 232.74 
L 325.728 233.006636 
L 327.050498 234.36 
L 327.456 234.803227 
L 328.607365 235.98 
L 329.184 236.611747 
L 330.154183 237.6 
L 330.912 238.432659 
L 331.686143 239.22 
L 332.64 240.270074 
L 333.201289 240.84 
L 334.368 242.123834 
L 334.699828 242.46 
L 336.096 244.001649 
L 336.173551 244.08 
L 337.719038 245.7 
L 337.824 245.814287 
L 339.293895 247.32 
L 339.552 247.601584 
L 340.859987 248.94 
L 341.28 249.399199 
L 342.415873 250.56 
L 343.008 251.208894 
L 343.961606 252.18 
L 344.736 253.031147 
L 345.492039 253.8 
L 346.464 254.86989 
L 347.005861 255.42 
L 348.192 256.72565 
L 348.502355 257.04 
L 349.92 258.605953 
L 349.973508 258.66 
L 351.529686 260.28 
L 351.648 260.408852 
L 353.103766 261.9 
L 353.376 262.197066 
L 354.668957 263.52 
L 355.104 263.995749 
L 356.223912 265.14 
L 356.832 265.806579 
L 357.768408 266.76 
L 358.56 267.630338 
L 359.297243 268.38 
L 360.288 269.470458 
L 360.80969 270 
L 362.016 271.328314 
L 362.304039 271.62 
L 363.744 273.211229 
L 363.772492 273.24 
L 365.339878 274.86 
L 365.472 275.003922 
L 366.913149 276.48 
L 367.2 276.793092 
L 368.4774 278.1 
L 368.928 278.592889 
L 370.031463 279.72 
L 370.656 280.404823 
L 371.574575 281.34 
L 372.384 282.230249 
L 373.10174 282.96 
L 374.112 284.071796 
L 374.612757 284.58 
L 375.84 285.931848 
L 376.104857 286.2 
L 377.568 287.817503 
L 377.570474 287.82 
L 379.149607 289.44 
L 379.296 289.599503 
L 380.722034 291.06 
L 381.024 291.389669 
L 382.285305 292.68 
L 382.752 293.190629 
L 383.838438 294.3 
L 384.48 295.003719 
L 385.380093 295.92 
L 386.208 296.830896 
L 386.905512 297.54 
L 387.936 298.673922 
L 388.415044 299.16 
L 389.664 300.536275 
L 389.904785 300.78 
L 391.379329 302.4 
L 391.392 302.41381 
L 392.958866 304.02 
L 393.12 304.195606 
L 394.530414 305.64 
L 394.848 305.986809 
L 396.092663 307.26 
L 396.576 307.788981 
L 397.644814 308.88 
L 398.304 309.60329 
L 399.184948 310.5 
L 400.032 311.432298 
L 400.708542 312.12 
L 401.76 313.276855 
L 402.216531 313.74 
L 403.488 315.141619 
L 403.703798 315.36 
L 405.188921 316.98 
L 405.216 317.009508 
L 406.767647 318.6 
L 406.944 318.792238 
L 408.33828 320.22 
L 408.672 320.584521 
L 409.899464 321.84 
z
" clip-path="url(#pe5a4641f20)" style="fill: #ff0000; fill-opacity: 0.6"/>
   </g>
   <g id="matplotlib.axis_1">
    <g id="xtick_1">
     <g id="line2d_1">
      <defs>
       <path id="m8793609b07" d="M 0 0 
L 0 3.5 
" style="stroke: #000000; stroke-width: 0.8"/>
      </defs>
      <g>
       <use xlink:href="#m8793609b07" x="64.8" y="367.2" style="stroke: #000000; stroke-width: 0.8"/>
      </g>
     </g>
     <g id="text_1">
      <!-- -1.0 -->
      <g transform="translate(49.705953 388.036997)scale(0.2 -0.2)">
       <defs>
        <path id="CMSS17-2d" d="M 1664 1216 
L 1664 1587 
L 64 1587 
L 64 1216 
L 1664 1216 
z
" transform="scale(0.015625)"/>
        <path id="CMSS17-31" d="M 1818 4288 
L 1696 4288 
C 1350 3949 947 3902 538 3891 
L 538 3520 
C 723 3526 1024 3539 1325 3673 
L 1325 371 
L 570 371 
L 570 0 
L 2573 0 
L 2573 371 
L 1818 371 
L 1818 4288 
z
" transform="scale(0.015625)"/>
        <path id="CMSS17-2e" d="M 1088 512 
L 576 512 
L 576 0 
L 1088 0 
L 1088 512 
z
" transform="scale(0.015625)"/>
        <path id="CMSS17-30" d="M 2758 2073 
C 2758 2439 2752 3120 2490 3647 
C 2227 4153 1805 4288 1504 4288 
C 1069 4288 698 4031 506 3621 
C 301 3191 243 2748 243 2073 
C 243 1611 262 1046 493 551 
C 755 6 1197 -128 1498 -128 
C 1894 -128 2278 83 2496 525 
C 2720 988 2758 1495 2758 2073 
z
M 1498 262 
C 1011 262 864 821 819 1007 
C 742 1328 730 1636 730 2144 
C 730 2542 730 2992 851 3345 
C 998 3756 1254 3897 1498 3897 
C 1971 3897 2125 3422 2176 3255 
C 2272 2915 2272 2516 2272 2144 
C 2272 1546 2272 262 1498 262 
z
" transform="scale(0.015625)"/>
       </defs>
       <use xlink:href="#CMSS17-2d" transform="scale(0.996264)"/>
       <use xlink:href="#CMSS17-31" transform="translate(31.229113 0)scale(0.996264)"/>
       <use xlink:href="#CMSS17-2e" transform="translate(78.072736 0)scale(0.996264)"/>
       <use xlink:href="#CMSS17-30" transform="translate(104.096941 0)scale(0.996264)"/>
      </g>
     </g>
    </g>
    <g id="xtick_2">
     <g id="line2d_2">
      <g>
       <use xlink:href="#m8793609b07" x="151.2" y="367.2" style="stroke: #000000; stroke-width: 0.8"/>
      </g>
     </g>
     <g id="text_2">
      <!-- -0.5 -->
      <g transform="translate(136.105953 388.036997)scale(0.2 -0.2)">
       <defs>
        <path id="CMSS17-35" d="M 934 3814 
L 2502 3814 
L 2502 4224 
L 467 4224 
L 467 1830 
L 896 1830 
C 1011 2103 1248 2304 1555 2304 
C 1843 2304 2163 2044 2163 1299 
C 2163 502 1709 268 1376 268 
C 966 268 589 521 422 871 
L 218 508 
C 512 51 992 -128 1376 -128 
C 2118 -128 2701 508 2701 1286 
C 2701 2083 2182 2694 1562 2694 
C 1338 2694 1120 2617 934 2464 
L 934 3814 
z
" transform="scale(0.015625)"/>
       </defs>
       <use xlink:href="#CMSS17-2d" transform="scale(0.996264)"/>
       <use xlink:href="#CMSS17-30" transform="translate(31.229113 0)scale(0.996264)"/>
       <use xlink:href="#CMSS17-2e" transform="translate(78.072736 0)scale(0.996264)"/>
       <use xlink:href="#CMSS17-35" transform="translate(104.096941 0)scale(0.996264)"/>
      </g>
     </g>
    </g>
    <g id="xtick_3">
     <g id="line2d_3">
      <g>
       <use xlink:href="#m8793609b07" x="237.6" y="367.2" style="stroke: #000000; stroke-width: 0.8"/>
      </g>
     </g>
     <g id="text_3">
      <!-- 0.0 -->
      <g transform="translate(225.628862 388.036997)scale(0.2 -0.2)">
       <use xlink:href="#CMSS17-30" transform="scale(0.996264)"/>
       <use xlink:href="#CMSS17-2e" transform="translate(46.843624 0)scale(0.996264)"/>
       <use xlink:href="#CMSS17-30" transform="translate(72.867828 0)scale(0.996264)"/>
      </g>
     </g>
    </g>
    <g id="xtick_4">
     <g id="line2d_4">
      <g>
       <use xlink:href="#m8793609b07" x="324" y="367.2" style="stroke: #000000; stroke-width: 0.8"/>
      </g>
     </g>
     <g id="text_4">
      <!-- 0.5 -->
      <g transform="translate(312.028862 388.036997)scale(0.2 -0.2)">
       <use xlink:href="#CMSS17-30" transform="scale(0.996264)"/>
       <use xlink:href="#CMSS17-2e" transform="translate(46.843624 0)scale(0.996264)"/>
       <use xlink:href="#CMSS17-35" transform="translate(72.867828 0)scale(0.996264)"/>
      </g>
     </g>
    </g>
    <g id="xtick_5">
     <g id="line2d_5">
      <g>
       <use xlink:href="#m8793609b07" x="410.4" y="367.2" style="stroke: #000000; stroke-width: 0.8"/>
      </g>
     </g>
     <g id="text_5">
      <!-- 1.0 -->
      <g transform="translate(398.428862 388.036997)scale(0.2 -0.2)">
       <use xlink:href="#CMSS17-31" transform="scale(0.996264)"/>
       <use xlink:href="#CMSS17-2e" transform="translate(46.843624 0)scale(0.996264)"/>
       <use xlink:href="#CMSS17-30" transform="translate(72.867828 0)scale(0.996264)"/>
      </g>
     </g>
    </g>
    <g id="text_6">
     <!-- $\epsilon_{ee}^{dV}$ -->
     <g transform="translate(226.132034 412.829204)scale(0.2 -0.2)">
      <defs>
       <path id="CMMI12-f" d="M 1862 1472 
C 1958 1472 2067 1472 2067 1574 
C 2067 1657 2003 1657 1888 1657 
L 851 1657 
C 1011 2224 1389 2566 1958 2566 
L 2144 2566 
C 2253 2566 2349 2566 2349 2668 
C 2349 2752 2278 2752 2163 2752 
L 1946 2752 
C 1158 2752 294 2136 294 1141 
C 294 420 774 -64 1408 -64 
C 1818 -64 2221 193 2221 258 
C 2221 297 2202 336 2163 336 
C 2144 336 2131 330 2099 304 
C 1856 141 1619 64 1427 64 
C 1088 64 730 291 730 920 
C 730 1043 742 1212 800 1472 
L 1862 1472 
z
" transform="scale(0.015625)"/>
       <path id="CMMI12-64" d="M 3219 4255 
C 3226 4281 3238 4319 3238 4351 
C 3238 4416 3174 4416 3162 4416 
C 3155 4416 2842 4390 2810 4383 
C 2701 4377 2605 4364 2490 4358 
C 2330 4345 2285 4339 2285 4223 
C 2285 4159 2336 4159 2426 4159 
C 2739 4159 2746 4103 2746 4040 
C 2746 4002 2733 3951 2726 3932 
L 2336 2394 
C 2266 2560 2093 2816 1760 2816 
C 1037 2816 256 1883 256 938 
C 256 306 627 -64 1062 -64 
C 1414 -64 1715 210 1894 421 
C 1958 44 2259 -64 2451 -64 
C 2643 -64 2797 51 2912 281 
C 3014 498 3104 887 3104 913 
C 3104 945 3078 970 3040 970 
C 2982 970 2976 938 2950 842 
C 2854 466 2733 64 2470 64 
C 2285 64 2272 230 2272 357 
C 2272 383 2272 517 2317 696 
L 3219 4255 
z
M 1926 759 
C 1894 651 1894 638 1805 517 
C 1664 338 1382 64 1082 64 
C 819 64 672 300 672 676 
C 672 1028 870 1743 992 2011 
C 1210 2458 1510 2687 1760 2687 
C 2182 2687 2266 2164 2266 2113 
C 2266 2107 2246 2024 2240 2011 
L 1926 759 
z
" transform="scale(0.015625)"/>
       <path id="CMMI12-56" d="M 3962 3644 
C 4179 3987 4378 4140 4704 4166 
C 4768 4172 4819 4172 4819 4287 
C 4819 4313 4806 4352 4749 4352 
C 4634 4352 4358 4339 4243 4339 
C 4058 4339 3866 4352 3686 4352 
C 3635 4352 3571 4352 3571 4230 
C 3571 4172 3629 4166 3654 4166 
C 3891 4146 3917 4032 3917 3956 
C 3917 3860 3827 3714 3821 3708 
L 1811 540 
L 1363 3968 
C 1363 4153 1696 4166 1766 4166 
C 1862 4166 1920 4166 1920 4287 
C 1920 4352 1850 4352 1830 4352 
C 1722 4352 1594 4339 1485 4339 
L 1126 4339 
C 659 4339 467 4352 461 4352 
C 422 4352 346 4352 346 4236 
C 346 4166 390 4166 493 4166 
C 819 4166 838 4108 858 3949 
L 1370 25 
C 1389 -109 1389 -128 1478 -128 
C 1555 -128 1587 -109 1651 -7 
L 3962 3644 
z
" transform="scale(0.015625)"/>
       <path id="CMMI12-65" d="M 1146 1472 
C 1318 1472 1754 1484 2061 1600 
C 2547 1786 2592 2160 2592 2275 
C 2592 2559 2349 2816 1926 2816 
C 1254 2816 288 2205 288 1066 
C 288 400 672 -64 1254 -64 
C 2125 -64 2675 609 2675 691 
C 2675 729 2637 761 2611 761 
C 2592 761 2586 755 2528 698 
C 2118 159 1510 64 1267 64 
C 902 64 710 349 710 818 
C 710 907 710 1066 806 1472 
L 1146 1472 
z
M 838 1600 
C 1114 2591 1722 2687 1926 2687 
C 2208 2687 2400 2520 2400 2275 
C 2400 1600 1376 1600 1107 1600 
L 838 1600 
z
" transform="scale(0.015625)"/>
      </defs>
      <use xlink:href="#CMMI12-f" transform="scale(0.996264)"/>
      <use xlink:href="#CMMI12-64" transform="translate(39.388958 36.153639)scale(0.697382)"/>
      <use xlink:href="#CMMI12-56" transform="translate(74.871165 36.153639)scale(0.697382)"/>
      <use xlink:href="#CMMI12-65" transform="translate(39.388958 -24.62935)scale(0.697382)"/>
      <use xlink:href="#CMMI12-65" transform="translate(71.037215 -24.62935)scale(0.697382)"/>
     </g>
    </g>
   </g>
   <g id="matplotlib.axis_2">
    <g id="ytick_1">
     <g id="line2d_6">
      <defs>
       <path id="mfc4a1e2fb4" d="M 0 0 
L -3.5 0 
" style="stroke: #000000; stroke-width: 0.8"/>
      </defs>
      <g>
       <use xlink:href="#mfc4a1e2fb4" x="64.8" y="367.2" style="stroke: #000000; stroke-width: 0.8"/>
      </g>
     </g>
     <g id="text_7">
      <!-- -1.0 -->
      <g transform="translate(27.611905 374.118498)scale(0.2 -0.2)">
       <use xlink:href="#CMSS17-2d" transform="scale(0.996264)"/>
       <use xlink:href="#CMSS17-31" transform="translate(31.229113 0)scale(0.996264)"/>
       <use xlink:href="#CMSS17-2e" transform="translate(78.072736 0)scale(0.996264)"/>
       <use xlink:href="#CMSS17-30" transform="translate(104.096941 0)scale(0.996264)"/>
      </g>
     </g>
    </g>
    <g id="ytick_2">
     <g id="line2d_7">
      <g>
       <use xlink:href="#mfc4a1e2fb4" x="64.8" y="286.2" style="stroke: #000000; stroke-width: 0.8"/>
      </g>
     </g>
     <g id="text_8">
      <!-- -0.5 -->
      <g transform="translate(27.611905 293.118498)scale(0.2 -0.2)">
       <use xlink:href="#CMSS17-2d" transform="scale(0.996264)"/>
       <use xlink:href="#CMSS17-30" transform="translate(31.229113 0)scale(0.996264)"/>
       <use xlink:href="#CMSS17-2e" transform="translate(78.072736 0)scale(0.996264)"/>
       <use xlink:href="#CMSS17-35" transform="translate(104.096941 0)scale(0.996264)"/>
      </g>
     </g>
    </g>
    <g id="ytick_3">
     <g id="line2d_8">
      <g>
       <use xlink:href="#mfc4a1e2fb4" x="64.8" y="205.2" style="stroke: #000000; stroke-width: 0.8"/>
      </g>
     </g>
     <g id="text_9">
      <!-- 0.0 -->
      <g transform="translate(33.857725 212.118498)scale(0.2 -0.2)">
       <use xlink:href="#CMSS17-30" transform="scale(0.996264)"/>
       <use xlink:href="#CMSS17-2e" transform="translate(46.843624 0)scale(0.996264)"/>
       <use xlink:href="#CMSS17-30" transform="translate(72.867828 0)scale(0.996264)"/>
      </g>
     </g>
    </g>
    <g id="ytick_4">
     <g id="line2d_9">
      <g>
       <use xlink:href="#mfc4a1e2fb4" x="64.8" y="124.2" style="stroke: #000000; stroke-width: 0.8"/>
      </g>
     </g>
     <g id="text_10">
      <!-- 0.5 -->
      <g transform="translate(33.857725 131.118498)scale(0.2 -0.2)">
       <use xlink:href="#CMSS17-30" transform="scale(0.996264)"/>
       <use xlink:href="#CMSS17-2e" transform="translate(46.843624 0)scale(0.996264)"/>
       <use xlink:href="#CMSS17-35" transform="translate(72.867828 0)scale(0.996264)"/>
      </g>
     </g>
    </g>
    <g id="ytick_5">
     <g id="line2d_10">
      <g>
       <use xlink:href="#mfc4a1e2fb4" x="64.8" y="43.2" style="stroke: #000000; stroke-width: 0.8"/>
      </g>
     </g>
     <g id="text_11">
      <!-- 1.0 -->
      <g transform="translate(33.857725 50.118498)scale(0.2 -0.2)">
       <use xlink:href="#CMSS17-31" transform="scale(0.996264)"/>
       <use xlink:href="#CMSS17-2e" transform="translate(46.843624 0)scale(0.996264)"/>
       <use xlink:href="#CMSS17-30" transform="translate(72.867828 0)scale(0.996264)"/>
      </g>
     </g>
    </g>
    <g id="text_12">
     <!-- $\epsilon_{ee}^{uV}$ -->
     <g transform="translate(18.686041 217.006153)rotate(-90)scale(0.2 -0.2)">
      <defs>
       <path id="CMMI12-75" d="M 2182 370 
C 2266 12 2573 -64 2726 -64 
C 2931 -64 3085 70 3187 287 
C 3296 517 3379 893 3379 913 
C 3379 944 3354 970 3315 970 
C 3258 970 3251 938 3226 842 
C 3110 402 2995 64 2739 64 
C 2547 64 2547 274 2547 357 
C 2547 504 2566 568 2630 836 
C 2675 1008 2720 1181 2758 1359 
L 3021 2400 
C 3066 2560 3066 2572 3066 2591 
C 3066 2687 2989 2752 2893 2752 
C 2707 2752 2662 2591 2624 2432 
C 2560 2183 2214 810 2170 587 
C 2163 587 1914 64 1446 64 
C 1114 64 1050 351 1050 587 
C 1050 951 1229 1462 1395 1890 
C 1472 2094 1504 2177 1504 2305 
C 1504 2579 1306 2816 998 2816 
C 410 2816 173 1890 173 1838 
C 173 1813 198 1781 243 1781 
C 301 1781 307 1807 333 1896 
C 486 2445 736 2687 979 2687 
C 1043 2687 1146 2681 1146 2477 
C 1146 2311 1075 2126 979 1883 
C 698 1123 666 881 666 689 
C 666 38 1158 -64 1421 -64 
C 1830 -64 2054 217 2182 370 
z
" transform="scale(0.015625)"/>
      </defs>
      <use xlink:href="#CMMI12-f" transform="scale(0.996264)"/>
      <use xlink:href="#CMMI12-75" transform="translate(39.388958 36.153639)scale(0.697382)"/>
      <use xlink:href="#CMMI12-56" transform="translate(78.253014 36.153639)scale(0.697382)"/>
      <use xlink:href="#CMMI12-65" transform="translate(39.388958 -24.62935)scale(0.697382)"/>
      <use xlink:href="#CMMI12-65" transform="translate(71.037215 -24.62935)scale(0.697382)"/>
     </g>
    </g>
   </g>
   <g id="line2d_11">
    <defs>
     <path id="me42af4fd9c" d="M -4.5 0 
L 4.5 0 
M 0 4.5 
L 0 -4.5 
" style="stroke: #000000"/>
    </defs>
    <g clip-path="url(#pe5a4641f20)">
     <use xlink:href="#me42af4fd9c" x="237.6" y="205.2" style="stroke: #000000"/>
    </g>
   </g>
   <g id="patch_3">
    <path d="M 64.8 367.2 
L 64.8 43.2 
" style="fill: none; stroke: #000000; stroke-width: 0.8; stroke-linejoin: miter; stroke-linecap: square"/>
   </g>
   <g id="patch_4">
    <path d="M 410.4 367.2 
L 410.4 43.2 
" style="fill: none; stroke: #000000; stroke-width: 0.8; stroke-linejoin: miter; stroke-linecap: square"/>
   </g>
   <g id="patch_5">
    <path d="M 64.8 367.2 
L 410.4 367.2 
" style="fill: none; stroke: #000000; stroke-width: 0.8; stroke-linejoin: miter; stroke-linecap: square"/>
   </g>
   <g id="patch_6">
    <path d="M 64.8 43.2 
L 410.4 43.2 
" style="fill: none; stroke: #000000; stroke-width: 0.8; stroke-linejoin: miter; stroke-linecap: square"/>
   </g>
   <g id="legend_1">
    <g id="patch_7">
     <path d="M 75.3 359.7 
L 242.577228 359.7 
Q 245.577228 359.7 245.577228 356.7 
L 245.577228 316.388511 
Q 245.577228 313.388511 242.577228 313.388511 
L 75.3 313.388511 
Q 72.3 313.388511 72.3 316.388511 
L 72.3 356.7 
Q 72.3 359.7 75.3 359.7 
z
" style="fill: #ffffff; opacity: 0.8; stroke: #cccccc; stroke-linejoin: miter"/>
    </g>
    <g id="patch_8">
     <path d="M 78.3 329.888511 
L 108.3 329.888511 
L 108.3 319.388511 
L 78.3 319.388511 
z
" style="fill: #0000ff; opacity: 0.2; stroke: #0000ff; stroke-linejoin: miter"/>
    </g>
    <g id="text_13">
     <!-- $\mathrm{COHERENT\ 2017}$ -->
     <g transform="translate(120.3 329.888511)scale(0.15 -0.15)">
      <defs>
       <path id="CMR17-43" d="M 3974 4351 
C 3974 4467 3968 4473 3930 4473 
C 3904 4473 3898 4467 3853 4390 
L 3571 3849 
C 3258 4249 2874 4480 2381 4480 
C 1286 4480 294 3507 294 2179 
C 294 837 1286 -128 2387 -128 
C 3366 -128 3974 741 3974 1482 
C 3974 1547 3974 1573 3917 1573 
C 3866 1573 3866 1553 3859 1495 
C 3808 592 3168 38 2477 38 
C 1824 38 781 502 781 2179 
C 781 3862 1843 4313 2464 4313 
C 3187 4313 3712 3681 3834 2785 
C 3846 2707 3846 2695 3904 2695 
C 3974 2695 3974 2707 3974 2824 
L 3974 4351 
z
" transform="scale(0.015625)"/>
       <path id="CMR17-4f" d="M 4307 2166 
C 4307 3488 3366 4480 2304 4480 
C 1216 4480 294 3475 294 2166 
C 294 857 1229 -128 2298 -128 
C 3392 -128 4307 876 4307 2166 
z
M 2304 -13 
C 1574 -13 781 722 781 2250 
C 781 3771 1651 4364 2298 4364 
C 2976 4364 3821 3752 3821 2250 
C 3821 696 3008 -13 2304 -13 
z
" transform="scale(0.015625)"/>
       <path id="CMR17-48" d="M 3590 3898 
C 3590 4185 3661 4185 4102 4185 
L 4102 4352 
C 3917 4339 3578 4339 3379 4339 
C 3181 4339 2842 4339 2656 4352 
L 2656 4185 
C 3098 4185 3168 4185 3168 3898 
L 3168 2342 
L 1261 2342 
L 1261 3898 
C 1261 4185 1331 4185 1773 4185 
L 1773 4352 
C 1587 4339 1248 4339 1050 4339 
C 851 4339 512 4339 326 4352 
L 326 4185 
C 768 4185 838 4185 838 3898 
L 838 452 
C 838 166 768 166 326 166 
L 326 0 
C 512 12 851 12 1050 12 
C 1248 12 1587 12 1773 0 
L 1773 166 
C 1331 166 1261 166 1261 452 
L 1261 2176 
L 3168 2176 
L 3168 452 
C 3168 166 3098 166 2656 166 
L 2656 0 
C 2842 12 3181 12 3379 12 
C 3578 12 3917 12 4102 0 
L 4102 166 
C 3661 166 3590 166 3590 452 
L 3590 3898 
z
" transform="scale(0.015625)"/>
       <path id="CMR17-45" d="M 3885 1614 
L 3770 1614 
C 3629 676 3546 166 2419 166 
L 1530 166 
C 1274 166 1261 198 1261 415 
L 1261 2176 
L 1862 2176 
C 2464 2176 2522 1959 2522 1429 
L 2637 1429 
L 2637 3086 
L 2522 3086 
C 2522 2558 2464 2342 1862 2342 
L 1261 2342 
L 1261 3924 
C 1261 4141 1274 4172 1530 4172 
L 2406 4172 
C 3398 4172 3514 3778 3603 2933 
L 3718 2933 
L 3565 4339 
L 326 4339 
L 326 4172 
C 768 4172 838 4172 838 3886 
L 838 453 
C 838 166 768 166 326 166 
L 326 0 
L 3654 0 
L 3885 1614 
z
" transform="scale(0.015625)"/>
       <path id="CMR17-52" d="M 2509 2156 
C 3117 2278 3629 2689 3629 3203 
C 3629 3806 2950 4352 2054 4352 
L 333 4352 
L 333 4185 
C 774 4185 845 4185 845 3896 
L 845 428 
C 845 140 774 140 333 140 
L 333 -26 
C 518 -13 851 -13 1050 -13 
C 1248 -13 1581 -13 1766 -26 
L 1766 140 
C 1325 140 1254 140 1254 428 
L 1254 2112 
L 2003 2112 
C 2368 2112 2573 1964 2662 1881 
C 2918 1632 2918 1459 2918 1024 
C 2918 595 2918 377 3110 160 
C 3354 -103 3680 -128 3821 -128 
C 4294 -128 4365 403 4365 512 
C 4365 550 4365 595 4307 595 
C 4256 595 4250 556 4250 531 
C 4218 115 4032 -26 3834 -26 
C 3482 -26 3443 377 3405 768 
C 3386 902 3373 998 3360 1139 
C 3322 1459 3270 1926 2509 2156 
z
M 1984 2214 
L 1254 2214 
L 1254 3935 
C 1254 4153 1267 4185 1523 4185 
L 1990 4185 
C 2522 4185 3142 3999 3142 3203 
C 3142 2374 2464 2214 1984 2214 
z
" transform="scale(0.015625)"/>
       <path id="CMR17-4e" d="M 1312 4275 
C 1267 4345 1261 4352 1139 4352 
L 326 4352 
L 326 4185 
L 448 4185 
C 704 4185 819 4153 838 4147 
L 838 624 
C 838 465 838 166 326 166 
L 326 0 
C 474 12 742 12 902 12 
C 1062 12 1331 12 1478 0 
L 1478 166 
C 966 166 966 465 966 624 
L 966 4057 
C 1011 4019 1011 4007 1056 3943 
L 3430 76 
C 3475 0 3494 0 3526 0 
C 3590 0 3590 19 3590 140 
L 3590 3726 
C 3590 3885 3590 4185 4102 4185 
L 4102 4352 
C 3955 4339 3686 4339 3526 4339 
C 3366 4339 3098 4339 2950 4352 
L 2950 4185 
C 3462 4185 3462 3885 3462 3726 
L 3462 777 
L 1312 4275 
z
" transform="scale(0.015625)"/>
       <path id="CMR17-54" d="M 3981 4332 
L 288 4332 
L 179 2924 
L 294 2924 
C 378 3981 467 4166 1453 4166 
C 1568 4166 1754 4166 1805 4159 
C 1926 4140 1926 4064 1926 3917 
L 1926 465 
C 1926 236 1907 166 1376 166 
L 1197 166 
L 1197 0 
C 1504 6 1824 12 2138 12 
C 2451 12 2771 6 3078 0 
L 3078 166 
L 2899 166 
C 2368 166 2349 236 2349 465 
L 2349 3917 
C 2349 4057 2349 4134 2464 4159 
C 2515 4166 2701 4166 2816 4166 
C 3795 4166 3891 3981 3974 2924 
L 4090 2924 
L 3981 4332 
z
" transform="scale(0.015625)"/>
       <path id="CMR17-32" d="M 2669 990 
L 2554 990 
C 2490 537 2438 460 2413 422 
C 2381 371 1920 371 1830 371 
L 602 371 
C 832 620 1280 1073 1824 1596 
C 2214 1966 2669 2400 2669 3033 
C 2669 3788 2067 4224 1395 4224 
C 691 4224 262 3603 262 3027 
C 262 2777 448 2745 525 2745 
C 589 2745 781 2783 781 3007 
C 781 3206 614 3264 525 3264 
C 486 3264 448 3257 422 3244 
C 544 3788 915 4057 1306 4057 
C 1862 4057 2227 3616 2227 3033 
C 2227 2477 1901 1998 1536 1583 
L 262 147 
L 262 0 
L 2515 0 
L 2669 990 
z
" transform="scale(0.015625)"/>
       <path id="CMR17-30" d="M 2688 2038 
C 2688 2430 2682 3099 2413 3613 
C 2176 4063 1798 4224 1466 4224 
C 1158 4224 768 4082 525 3620 
C 269 3137 243 2539 243 2038 
C 243 1671 250 1112 448 623 
C 723 -39 1216 -128 1466 -128 
C 1760 -128 2208 -7 2470 604 
C 2662 1048 2688 1568 2688 2038 
z
M 1466 -26 
C 1056 -26 813 328 723 816 
C 653 1196 653 1749 653 2109 
C 653 2604 653 3015 736 3407 
C 858 3954 1216 4121 1466 4121 
C 1728 4121 2067 3947 2189 3420 
C 2272 3054 2278 2623 2278 2109 
C 2278 1691 2278 1176 2202 797 
C 2067 96 1690 -26 1466 -26 
z
" transform="scale(0.015625)"/>
       <path id="CMR17-31" d="M 1702 4083 
C 1702 4217 1696 4224 1606 4224 
C 1357 3927 979 3833 621 3820 
C 602 3820 570 3820 563 3808 
C 557 3795 557 3782 557 3648 
C 755 3648 1088 3686 1344 3839 
L 1344 467 
C 1344 243 1331 166 781 166 
L 589 166 
L 589 0 
C 896 6 1216 12 1523 12 
C 1830 12 2150 6 2458 0 
L 2458 166 
L 2266 166 
C 1715 166 1702 236 1702 467 
L 1702 4083 
z
" transform="scale(0.015625)"/>
       <path id="CMR17-37" d="M 2886 3955 
L 2886 4096 
L 1382 4096 
C 634 4096 621 4166 595 4288 
L 480 4288 
L 294 3104 
L 410 3104 
C 429 3226 474 3552 550 3673 
C 589 3724 1062 3724 1171 3724 
L 2579 3724 
L 1869 2670 
C 1395 1961 1069 1003 1069 166 
C 1069 89 1069 -128 1299 -128 
C 1530 -128 1530 89 1530 172 
L 1530 466 
C 1530 1514 1709 2204 2003 2644 
L 2886 3955 
z
" transform="scale(0.015625)"/>
      </defs>
      <use xlink:href="#CMR17-43" transform="scale(0.996264)"/>
      <use xlink:href="#CMR17-4f" transform="translate(66.509881 0)scale(0.996264)"/>
      <use xlink:href="#CMR17-48" transform="translate(138.224669 0)scale(0.996264)"/>
      <use xlink:href="#CMR17-45" transform="translate(207.297099 0)scale(0.996264)"/>
      <use xlink:href="#CMR17-52" transform="translate(269.883399 0)scale(0.996264)"/>
      <use xlink:href="#CMR17-45" transform="translate(337.674501 0)scale(0.996264)"/>
      <use xlink:href="#CMR17-4e" transform="translate(400.260802 0)scale(0.996264)"/>
      <use xlink:href="#CMR17-54" transform="translate(469.333232 0)scale(0.996264)"/>
      <use xlink:href="#CMR17-32" transform="translate(567.072225 0)scale(0.996264)"/>
      <use xlink:href="#CMR17-30" transform="translate(612.762702 0)scale(0.996264)"/>
      <use xlink:href="#CMR17-31" transform="translate(658.453179 0)scale(0.996264)"/>
      <use xlink:href="#CMR17-37" transform="translate(704.143656 0)scale(0.996264)"/>
     </g>
    </g>
    <g id="patch_9">
     <path d="M 78.3 350.794255 
L 108.3 350.794255 
L 108.3 340.294255 
L 78.3 340.294255 
z
" style="fill: #ff0000; opacity: 0.6; stroke: #ff0000; stroke-linejoin: miter"/>
    </g>
    <g id="text_14">
     <!-- $\mathrm{Ge}$ -->
     <g transform="translate(120.3 350.794255)scale(0.15 -0.15)">
      <defs>
       <path id="CMR17-47" d="M 3974 1258 
C 3974 1503 3994 1536 4390 1536 
L 4390 1702 
C 4237 1689 3891 1689 3718 1689 
C 3539 1689 3040 1696 2797 1702 
L 2797 1536 
L 2989 1536 
C 3539 1536 3552 1464 3552 1232 
L 3552 806 
C 3552 96 2720 38 2522 38 
C 1862 38 781 496 781 2179 
C 781 3862 1843 4313 2464 4313 
C 3187 4313 3712 3681 3834 2785 
C 3846 2708 3846 2695 3904 2695 
C 3974 2695 3974 2708 3974 2824 
L 3974 4351 
C 3974 4467 3968 4473 3930 4473 
C 3904 4473 3898 4467 3853 4390 
L 3571 3849 
C 3258 4249 2874 4480 2381 4480 
C 1286 4480 294 3507 294 2179 
C 294 858 1267 -128 2394 -128 
C 2912 -128 3418 57 3616 425 
C 3725 161 3904 -20 3936 -20 
C 3968 -20 3974 -13 3974 102 
L 3974 1258 
z
" transform="scale(0.015625)"/>
       <path id="CMR17-65" d="M 2438 1503 
C 2464 1529 2464 1542 2464 1606 
C 2464 2251 2118 2816 1389 2816 
C 710 2816 173 2175 173 1394 
C 173 554 781 -64 1459 -64 
C 2176 -64 2458 619 2458 755 
C 2458 800 2419 800 2406 800 
C 2362 800 2355 787 2330 709 
C 2189 270 1837 51 1504 51 
C 1229 51 954 206 781 490 
C 582 819 582 1200 582 1503 
L 2438 1503 
z
M 589 1600 
C 634 2511 1126 2713 1382 2713 
C 1818 2713 2112 2308 2118 1600 
L 589 1600 
z
" transform="scale(0.015625)"/>
      </defs>
      <use xlink:href="#CMR17-47" transform="scale(0.996264)"/>
      <use xlink:href="#CMR17-65" transform="translate(72.355346 0)scale(0.996264)"/>
     </g>
    </g>
   </g>
  </g>
 </g>
 <defs>
  <clipPath id="pe5a4641f20">
   <rect x="64.8" y="43.2" width="345.6" height="324"/>
  </clipPath>
 </defs>
</svg>
