<?xml version="1.0" encoding="UTF-8" standalone="no"?>
<!DOCTYPE svg PUBLIC "-//W3C//DTD SVG 1.1//EN"
 "http://www.w3.org/Graphics/SVG/1.1/DTD/svg11.dtd">
<!-- Generated by graphviz version 2.40.1 (0)
 -->
<!-- Title: G Pages: 1 -->
<svg width="1853pt" height="166pt"
 viewBox="0.00 0.00 1853.25 166.00" xmlns="http://www.w3.org/2000/svg" xmlns:xlink="http://www.w3.org/1999/xlink">
<g id="graph0" class="graph" transform="scale(1 1) rotate(0) translate(4 162)">
<title>G</title>
<polygon fill="#ffffff" stroke="transparent" points="-4,4 -4,-162 1849.251,-162 1849.251,4 -4,4"/>
<g id="clust1" class="cluster">
<title>cluster_Detector</title>
<polygon fill="none" stroke="#000000" points="8,-8 8,-150 200.7767,-150 200.7767,-8 8,-8"/>
</g>
<g id="clust2" class="cluster">
<title>cluster_Veto</title>
<polygon fill="none" stroke="#000000" points="220.7767,-8 220.7767,-150 383.8549,-150 383.8549,-8 220.7767,-8"/>
</g>
<!-- InnerGasXe -->
<g id="node1" class="node">
<title>InnerGasXe</title>
<ellipse fill="none" stroke="#000000" cx="104.3883" cy="-115" rx="71.3357" ry="26.7407"/>
<text text-anchor="middle" x="104.3883" y="-118.8" font-family="Times,serif" font-size="14.00" fill="#000000">InnerGasXe</text>
<text text-anchor="middle" x="104.3883" y="-103.8" font-family="Times,serif" font-size="14.00" fill="#000000">gXe</text>
</g>
<!-- XenonDetector -->
<g id="node2" class="node">
<title>XenonDetector</title>
<ellipse fill="none" stroke="#000000" cx="104.3883" cy="-43" rx="88.2768" ry="26.7407"/>
<text text-anchor="middle" x="104.3883" y="-46.8" font-family="Times,serif" font-size="14.00" fill="#000000">XenonDetector</text>
<text text-anchor="middle" x="104.3883" y="-31.8" font-family="Times,serif" font-size="14.00" fill="#000000">G4_lXe</text>
</g>
<!-- XenonVeto -->
<g id="node4" class="node">
<title>XenonVeto</title>
<ellipse fill="none" stroke="#000000" cx="302.3158" cy="-43" rx="65.5227" ry="26.7407"/>
<text text-anchor="middle" x="302.3158" y="-46.8" font-family="Times,serif" font-size="14.00" fill="#000000">XenonVeto</text>
<text text-anchor="middle" x="302.3158" y="-31.8" font-family="Times,serif" font-size="14.00" fill="#000000">G4_lXe</text>
</g>
<!-- XenonDetector&#45;&gt;XenonVeto -->
<g id="edge1" class="edge">
<title>XenonDetector&#45;&gt;XenonVeto</title>
<path fill="none" stroke="#000000" d="M200.7741,-43C203.9757,-43 207.1809,-43 210.3763,-43"/>
<polygon fill="#000000" stroke="#000000" points="210.7806,-46.5001 220.7805,-43 210.7805,-39.5001 210.7806,-46.5001"/>
</g>
<!-- OuterGasXe -->
<g id="node3" class="node">
<title>OuterGasXe</title>
<ellipse fill="none" stroke="#000000" cx="302.3158" cy="-115" rx="73.5782" ry="26.7407"/>
<text text-anchor="middle" x="302.3158" y="-118.8" font-family="Times,serif" font-size="14.00" fill="#000000">OuterGasXe</text>
<text text-anchor="middle" x="302.3158" y="-103.8" font-family="Times,serif" font-size="14.00" fill="#000000">gXe</text>
</g>
<!-- InnerContainer -->
<g id="node5" class="node">
<title>InnerContainer</title>
<ellipse fill="none" stroke="#000000" cx="544.791" cy="-43" rx="132.8722" ry="26.7407"/>
<text text-anchor="middle" x="544.791" y="-46.8" font-family="Times,serif" font-size="14.00" fill="#000000">InnerContainer</text>
<text text-anchor="middle" x="544.791" y="-31.8" font-family="Times,serif" font-size="14.00" fill="#000000">G4_STAINLESS&#45;STEEL</text>
</g>
<!-- XenonVeto&#45;&gt;InnerContainer -->
<g id="edge2" class="edge">
<title>XenonVeto&#45;&gt;InnerContainer</title>
<path fill="none" stroke="#000000" d="M383.8517,-43C389.6214,-43 395.526,-43 401.5046,-43"/>
<polygon fill="#000000" stroke="#000000" points="401.6723,-46.5001 411.6723,-43 401.6722,-39.5001 401.6723,-46.5001"/>
</g>
<!-- Vacuum -->
<g id="node6" class="node">
<title>Vacuum</title>
<ellipse fill="none" stroke="#000000" cx="766.053" cy="-43" rx="52.1524" ry="26.7407"/>
<text text-anchor="middle" x="766.053" y="-46.8" font-family="Times,serif" font-size="14.00" fill="#000000">Vacuum</text>
<text text-anchor="middle" x="766.053" y="-31.8" font-family="Times,serif" font-size="14.00" fill="#000000">vacuum</text>
</g>
<!-- InnerContainer&#45;&gt;Vacuum -->
<g id="edge3" class="edge">
<title>InnerContainer&#45;&gt;Vacuum</title>
<path fill="none" stroke="#000000" d="M677.9686,-43C686.7206,-43 695.2759,-43 703.4029,-43"/>
<polygon fill="#000000" stroke="#000000" points="703.4504,-46.5001 713.4504,-43 703.4503,-39.5001 703.4504,-46.5001"/>
</g>
<!-- OuterContainer -->
<g id="node7" class="node">
<title>OuterContainer</title>
<ellipse fill="none" stroke="#000000" cx="987.3149" cy="-43" rx="132.8722" ry="26.7407"/>
<text text-anchor="middle" x="987.3149" y="-46.8" font-family="Times,serif" font-size="14.00" fill="#000000">OuterContainer</text>
<text text-anchor="middle" x="987.3149" y="-31.8" font-family="Times,serif" font-size="14.00" fill="#000000">G4_STAINLESS&#45;STEEL</text>
</g>
<!-- Vacuum&#45;&gt;OuterContainer -->
<g id="edge4" class="edge">
<title>Vacuum&#45;&gt;OuterContainer</title>
<path fill="none" stroke="#000000" d="M818.489,-43C826.474,-43 835.0246,-43 843.8836,-43"/>
<polygon fill="#000000" stroke="#000000" points="844.0032,-46.5001 854.0031,-43 844.0031,-39.5001 844.0032,-46.5001"/>
</g>
<!-- Air -->
<g id="node8" class="node">
<title>Air</title>
<polygon fill="none" stroke="#000000" points="1227.251,-62 1156.251,-62 1156.251,-24 1227.251,-24 1227.251,-62"/>
<text text-anchor="middle" x="1191.751" y="-46.8" font-family="Times,serif" font-size="14.00" fill="#000000">Air</text>
<text text-anchor="middle" x="1191.751" y="-31.8" font-family="Times,serif" font-size="14.00" fill="#000000">G4_AIR</text>
</g>
<!-- OuterContainer&#45;&gt;Air -->
<g id="edge5" class="edge">
<title>OuterContainer&#45;&gt;Air</title>
<path fill="none" stroke="#000000" d="M1120.5362,-43C1129.5212,-43 1138.1533,-43 1146.1164,-43"/>
<polygon fill="#000000" stroke="#000000" points="1146.1729,-46.5001 1156.1729,-43 1146.1729,-39.5001 1146.1729,-46.5001"/>
</g>
<!-- Copper -->
<g id="node9" class="node">
<title>Copper</title>
<polygon fill="none" stroke="#000000" points="1332.251,-62 1263.251,-62 1263.251,-24 1332.251,-24 1332.251,-62"/>
<text text-anchor="middle" x="1297.751" y="-46.8" font-family="Times,serif" font-size="14.00" fill="#000000">Copper</text>
<text text-anchor="middle" x="1297.751" y="-31.8" font-family="Times,serif" font-size="14.00" fill="#000000">G4_Cu</text>
</g>
<!-- Air&#45;&gt;Copper -->
<g id="edge6" class="edge">
<title>Air&#45;&gt;Copper</title>
<path fill="none" stroke="#000000" d="M1227.3424,-43C1235.5521,-43 1244.3888,-43 1252.9346,-43"/>
<polygon fill="#000000" stroke="#000000" points="1253.1527,-46.5001 1263.1527,-43 1253.1526,-39.5001 1253.1527,-46.5001"/>
</g>
<!-- InnerPE -->
<g id="node10" class="node">
<title>InnerPE</title>
<polygon fill="none" stroke="#000000" points="1539.251,-62 1368.251,-62 1368.251,-24 1539.251,-24 1539.251,-62"/>
<text text-anchor="middle" x="1453.751" y="-46.8" font-family="Times,serif" font-size="14.00" fill="#000000">InnerPE</text>
<text text-anchor="middle" x="1453.751" y="-31.8" font-family="Times,serif" font-size="14.00" fill="#000000">G4_POLYETHYLENE</text>
</g>
<!-- Copper&#45;&gt;InnerPE -->
<g id="edge7" class="edge">
<title>Copper&#45;&gt;InnerPE</title>
<path fill="none" stroke="#000000" d="M1332.3725,-43C1340.2829,-43 1349.066,-43 1358.1872,-43"/>
<polygon fill="#000000" stroke="#000000" points="1358.192,-46.5001 1368.192,-43 1358.192,-39.5001 1358.192,-46.5001"/>
</g>
<!-- Lead -->
<g id="node11" class="node">
<title>Lead</title>
<polygon fill="none" stroke="#000000" points="1638.251,-62 1575.251,-62 1575.251,-24 1638.251,-24 1638.251,-62"/>
<text text-anchor="middle" x="1606.751" y="-46.8" font-family="Times,serif" font-size="14.00" fill="#000000">Lead</text>
<text text-anchor="middle" x="1606.751" y="-31.8" font-family="Times,serif" font-size="14.00" fill="#000000">G4_Pb</text>
</g>
<!-- InnerPE&#45;&gt;Lead -->
<g id="edge8" class="edge">
<title>InnerPE&#45;&gt;Lead</title>
<path fill="none" stroke="#000000" d="M1539.643,-43C1548.4525,-43 1557.0932,-43 1565.0885,-43"/>
<polygon fill="#000000" stroke="#000000" points="1565.1871,-46.5001 1575.187,-43 1565.187,-39.5001 1565.1871,-46.5001"/>
</g>
<!-- OuterPE -->
<g id="node12" class="node">
<title>OuterPE</title>
<polygon fill="none" stroke="#000000" points="1845.251,-62 1674.251,-62 1674.251,-24 1845.251,-24 1845.251,-62"/>
<text text-anchor="middle" x="1759.751" y="-46.8" font-family="Times,serif" font-size="14.00" fill="#000000">OuterPE</text>
<text text-anchor="middle" x="1759.751" y="-31.8" font-family="Times,serif" font-size="14.00" fill="#000000">G4_POLYETHYLENE</text>
</g>
<!-- Lead&#45;&gt;OuterPE -->
<g id="edge9" class="edge">
<title>Lead&#45;&gt;OuterPE</title>
<path fill="none" stroke="#000000" d="M1638.4527,-43C1646.2304,-43 1654.9621,-43 1664.0822,-43"/>
<polygon fill="#000000" stroke="#000000" points="1664.1043,-46.5001 1674.1043,-43 1664.1043,-39.5001 1664.1043,-46.5001"/>
</g>
</g>
</svg>
