<?xml version="1.0" encoding="utf-8" standalone="no"?>
<!DOCTYPE svg PUBLIC "-//W3C//DTD SVG 1.1//EN"
  "http://www.w3.org/Graphics/SVG/1.1/DTD/svg11.dtd">
<svg xmlns:xlink="http://www.w3.org/1999/xlink" width="576pt" height="432pt" viewBox="0 0 576 432" xmlns="http://www.w3.org/2000/svg" version="1.1">
 <metadata>
  <rdf:RDF xmlns:dc="http://purl.org/dc/elements/1.1/" xmlns:cc="http://creativecommons.org/ns#" xmlns:rdf="http://www.w3.org/1999/02/22-rdf-syntax-ns#">
   <cc:Work>
    <dc:type rdf:resource="http://purl.org/dc/dcmitype/StillImage"/>
    <dc:date>2022-05-27T13:03:29.957216</dc:date>
    <dc:format>image/svg+xml</dc:format>
    <dc:creator>
     <cc:Agent>
      <dc:title>Matplotlib v3.5.1, https://matplotlib.org/</dc:title>
     </cc:Agent>
    </dc:creator>
   </cc:Work>
  </rdf:RDF>
 </metadata>
 <defs>
  <style type="text/css">*{stroke-linejoin: round; stroke-linecap: butt}</style>
 </defs>
 <g id="figure_1">
  <g id="patch_1">
   <path d="M 0 432 
L 576 432 
L 576 0 
L 0 0 
L 0 432 
z
" style="fill: none"/>
  </g>
  <g id="axes_1">
   <g id="patch_2">
    <path d="M 86.4 367.2 
L 547.2 367.2 
L 547.2 43.2 
L 86.4 43.2 
L 86.4 367.2 
z
" style="fill: none"/>
   </g>
   <g id="PolyCollection_1">
    <path d="M 178.56 43.2 
L 178.56 91335.31813 
L 455.04 91335.31813 
L 455.04 43.2 
L 455.04 43.2 
L 178.56 43.2 
z
" clip-path="url(#p8a9565cea3)" style="fill: #1f77b4; fill-opacity: 0.5"/>
   </g>
   <g id="matplotlib.axis_1">
    <g id="xtick_1">
     <g id="line2d_1">
      <path d="M 109.44 367.2 
L 109.44 43.2 
" clip-path="url(#p8a9565cea3)" style="fill: none; stroke: #b0b0b0; stroke-width: 0.8; stroke-linecap: square"/>
     </g>
     <g id="line2d_2">
      <defs>
       <path id="m7a5829b015" d="M 0 0 
L 0 3.5 
" style="stroke: #000000; stroke-width: 0.8"/>
      </defs>
      <g>
       <use xlink:href="#m7a5829b015" x="109.44" y="367.2" style="stroke: #000000; stroke-width: 0.8"/>
      </g>
     </g>
     <g id="text_1">
      <!-- $\mathdefault{50}$ -->
      <g transform="translate(100.301905 388.036997)scale(0.2 -0.2)">
       <defs>
        <path id="CMR17-35" d="M 730 3750 
C 794 3724 1056 3641 1325 3641 
C 1920 3641 2246 3961 2432 4140 
C 2432 4191 2432 4224 2394 4224 
C 2387 4224 2374 4224 2323 4198 
C 2099 4102 1837 4032 1517 4032 
C 1325 4032 1037 4055 723 4191 
C 653 4224 640 4224 634 4224 
C 602 4224 595 4217 595 4090 
L 595 2231 
C 595 2113 595 2080 659 2080 
C 691 2080 704 2093 736 2139 
C 941 2435 1222 2560 1542 2560 
C 1766 2560 2246 2415 2246 1293 
C 2246 1087 2246 716 2054 422 
C 1894 159 1645 25 1370 25 
C 947 25 518 319 403 812 
C 429 806 480 793 506 793 
C 589 793 749 838 749 1036 
C 749 1209 627 1280 506 1280 
C 358 1280 262 1190 262 1011 
C 262 454 704 -128 1382 -128 
C 2042 -128 2669 441 2669 1267 
C 2669 2054 2170 2662 1549 2662 
C 1222 2662 947 2540 730 2304 
L 730 3750 
z
" transform="scale(0.015625)"/>
        <path id="CMR17-30" d="M 2688 2038 
C 2688 2430 2682 3099 2413 3613 
C 2176 4063 1798 4224 1466 4224 
C 1158 4224 768 4082 525 3620 
C 269 3137 243 2539 243 2038 
C 243 1671 250 1112 448 623 
C 723 -39 1216 -128 1466 -128 
C 1760 -128 2208 -7 2470 604 
C 2662 1048 2688 1568 2688 2038 
z
M 1466 -26 
C 1056 -26 813 328 723 816 
C 653 1196 653 1749 653 2109 
C 653 2604 653 3015 736 3407 
C 858 3954 1216 4121 1466 4121 
C 1728 4121 2067 3947 2189 3420 
C 2272 3054 2278 2623 2278 2109 
C 2278 1691 2278 1176 2202 797 
C 2067 96 1690 -26 1466 -26 
z
" transform="scale(0.015625)"/>
       </defs>
       <use xlink:href="#CMR17-35" transform="scale(0.996264)"/>
       <use xlink:href="#CMR17-30" transform="translate(45.690477 0)scale(0.996264)"/>
      </g>
     </g>
    </g>
    <g id="xtick_2">
     <g id="line2d_3">
      <path d="M 224.64 367.2 
L 224.64 43.2 
" clip-path="url(#p8a9565cea3)" style="fill: none; stroke: #b0b0b0; stroke-width: 0.8; stroke-linecap: square"/>
     </g>
     <g id="line2d_4">
      <g>
       <use xlink:href="#m7a5829b015" x="224.64" y="367.2" style="stroke: #000000; stroke-width: 0.8"/>
      </g>
     </g>
     <g id="text_2">
      <!-- $\mathdefault{100}$ -->
      <g transform="translate(210.932857 388.036997)scale(0.2 -0.2)">
       <defs>
        <path id="CMR17-31" d="M 1702 4083 
C 1702 4217 1696 4224 1606 4224 
C 1357 3927 979 3833 621 3820 
C 602 3820 570 3820 563 3808 
C 557 3795 557 3782 557 3648 
C 755 3648 1088 3686 1344 3839 
L 1344 467 
C 1344 243 1331 166 781 166 
L 589 166 
L 589 0 
C 896 6 1216 12 1523 12 
C 1830 12 2150 6 2458 0 
L 2458 166 
L 2266 166 
C 1715 166 1702 236 1702 467 
L 1702 4083 
z
" transform="scale(0.015625)"/>
       </defs>
       <use xlink:href="#CMR17-31" transform="scale(0.996264)"/>
       <use xlink:href="#CMR17-30" transform="translate(45.690477 0)scale(0.996264)"/>
       <use xlink:href="#CMR17-30" transform="translate(91.380954 0)scale(0.996264)"/>
      </g>
     </g>
    </g>
    <g id="xtick_3">
     <g id="line2d_5">
      <path d="M 339.84 367.2 
L 339.84 43.2 
" clip-path="url(#p8a9565cea3)" style="fill: none; stroke: #b0b0b0; stroke-width: 0.8; stroke-linecap: square"/>
     </g>
     <g id="line2d_6">
      <g>
       <use xlink:href="#m7a5829b015" x="339.84" y="367.2" style="stroke: #000000; stroke-width: 0.8"/>
      </g>
     </g>
     <g id="text_3">
      <!-- $\mathdefault{150}$ -->
      <g transform="translate(326.132857 388.036997)scale(0.2 -0.2)">
       <use xlink:href="#CMR17-31" transform="scale(0.996264)"/>
       <use xlink:href="#CMR17-35" transform="translate(45.690477 0)scale(0.996264)"/>
       <use xlink:href="#CMR17-30" transform="translate(91.380954 0)scale(0.996264)"/>
      </g>
     </g>
    </g>
    <g id="xtick_4">
     <g id="line2d_7">
      <path d="M 455.04 367.2 
L 455.04 43.2 
" clip-path="url(#p8a9565cea3)" style="fill: none; stroke: #b0b0b0; stroke-width: 0.8; stroke-linecap: square"/>
     </g>
     <g id="line2d_8">
      <g>
       <use xlink:href="#m7a5829b015" x="455.04" y="367.2" style="stroke: #000000; stroke-width: 0.8"/>
      </g>
     </g>
     <g id="text_4">
      <!-- $\mathdefault{200}$ -->
      <g transform="translate(441.332857 388.036997)scale(0.2 -0.2)">
       <defs>
        <path id="CMR17-32" d="M 2669 990 
L 2554 990 
C 2490 537 2438 460 2413 422 
C 2381 371 1920 371 1830 371 
L 602 371 
C 832 620 1280 1073 1824 1596 
C 2214 1966 2669 2400 2669 3033 
C 2669 3788 2067 4224 1395 4224 
C 691 4224 262 3603 262 3027 
C 262 2777 448 2745 525 2745 
C 589 2745 781 2783 781 3007 
C 781 3206 614 3264 525 3264 
C 486 3264 448 3257 422 3244 
C 544 3788 915 4057 1306 4057 
C 1862 4057 2227 3616 2227 3033 
C 2227 2477 1901 1998 1536 1583 
L 262 147 
L 262 0 
L 2515 0 
L 2669 990 
z
" transform="scale(0.015625)"/>
       </defs>
       <use xlink:href="#CMR17-32" transform="scale(0.996264)"/>
       <use xlink:href="#CMR17-30" transform="translate(45.690477 0)scale(0.996264)"/>
       <use xlink:href="#CMR17-30" transform="translate(91.380954 0)scale(0.996264)"/>
      </g>
     </g>
    </g>
    <g id="text_5">
     <!-- $\mathrm{S2}\ [\si{PE}]$ -->
     <g transform="translate(287.481546 410.838652)scale(0.2 -0.2)">
      <defs>
       <path id="CMR17-53" d="M 2803 4351 
C 2803 4467 2797 4473 2758 4473 
C 2720 4473 2707 4447 2682 4390 
L 2490 3965 
C 2246 4320 1875 4480 1472 4480 
C 819 4480 294 3958 294 3301 
C 294 3101 339 2817 557 2546 
C 794 2250 1018 2198 1530 2063 
C 1722 2011 2042 1927 2106 1901 
C 2470 1747 2662 1360 2662 999 
C 2662 534 2336 38 1779 38 
C 1094 38 454 425 410 1328 
C 403 1431 397 1437 352 1437 
C 301 1437 294 1431 294 1302 
L 294 0 
C 294 -116 301 -122 339 -122 
C 384 -122 397 -90 486 109 
C 493 128 493 141 614 386 
C 934 -39 1472 -128 1779 -128 
C 2477 -128 2970 457 2970 1141 
C 2970 1476 2848 1734 2778 1850 
C 2509 2263 2221 2340 1914 2417 
C 1869 2437 1856 2437 1498 2527 
C 1152 2617 1005 2662 845 2836 
C 666 3036 602 3243 602 3449 
C 602 3868 934 4326 1478 4326 
C 2157 4326 2579 3842 2675 3036 
C 2694 2920 2701 2914 2746 2914 
C 2803 2914 2803 2933 2803 3043 
L 2803 4351 
z
" transform="scale(0.015625)"/>
       <path id="CMR17-5b" d="M 1504 -1600 
L 1504 -1376 
L 902 -1376 
L 902 4575 
L 1504 4575 
L 1504 4800 
L 678 4800 
L 678 -1600 
L 1504 -1600 
z
" transform="scale(0.015625)"/>
       <path id="CMSS17-50" d="M 2106 1856 
C 2874 1856 3501 2447 3501 3139 
C 3501 3818 2899 4416 2067 4416 
L 570 4416 
L 570 0 
L 1107 0 
L 1107 1856 
L 2106 1856 
z
M 1926 4057 
C 2669 4057 2995 3598 2995 3139 
C 2995 2711 2694 2227 1926 2227 
L 1094 2227 
L 1094 4057 
L 1926 4057 
z
" transform="scale(0.015625)"/>
       <path id="CMSS17-45" d="M 1958 435 
C 1446 435 1216 435 1101 428 
L 1101 2105 
L 3085 2105 
L 3085 2496 
L 1101 2496 
L 1101 3993 
L 1926 3993 
C 2003 3993 2080 3987 2157 3987 
L 3251 3987 
L 3251 4403 
L 563 4403 
L 563 0 
L 3334 0 
L 3334 441 
L 1958 435 
z
" transform="scale(0.015625)"/>
       <path id="CMR17-5d" d="M 915 4800 
L 90 4800 
L 90 4575 
L 691 4575 
L 691 -1376 
L 90 -1376 
L 90 -1600 
L 915 -1600 
L 915 4800 
z
" transform="scale(0.015625)"/>
      </defs>
      <use xlink:href="#CMR17-53" transform="scale(0.996264)"/>
      <use xlink:href="#CMR17-32" transform="translate(50.89537 0)scale(0.996264)"/>
      <use xlink:href="#CMR17-5b" transform="translate(127.81496 0)scale(0.996264)"/>
      <use xlink:href="#CMSS17-50" transform="translate(152.686018 0)scale(0.996264)"/>
      <use xlink:href="#CMSS17-45" transform="translate(212.421604 0)scale(0.996264)"/>
      <use xlink:href="#CMR17-5d" transform="translate(268.313618 0)scale(0.996264)"/>
     </g>
    </g>
   </g>
   <g id="matplotlib.axis_2">
    <g id="ytick_1">
     <g id="line2d_9">
      <path d="M 86.4 367.2 
L 547.2 367.2 
" clip-path="url(#p8a9565cea3)" style="fill: none; stroke: #b0b0b0; stroke-width: 0.8; stroke-linecap: square"/>
     </g>
     <g id="line2d_10">
      <defs>
       <path id="m64d5dd5529" d="M 0 0 
L -3.5 0 
" style="stroke: #000000; stroke-width: 0.8"/>
      </defs>
      <g>
       <use xlink:href="#m64d5dd5529" x="86.4" y="367.2" style="stroke: #000000; stroke-width: 0.8"/>
      </g>
     </g>
     <g id="text_6">
      <!-- $\mathdefault{10^{-2}}$ -->
      <g transform="translate(43.447161 374.118498)scale(0.2 -0.2)">
       <defs>
        <path id="CMSY10-0" d="M 4218 1472 
C 4326 1472 4442 1472 4442 1600 
C 4442 1728 4326 1728 4218 1728 
L 755 1728 
C 646 1728 531 1728 531 1600 
C 531 1472 646 1472 755 1472 
L 4218 1472 
z
" transform="scale(0.015625)"/>
       </defs>
       <use xlink:href="#CMR17-31" transform="scale(0.996264)"/>
       <use xlink:href="#CMR17-30" transform="translate(45.690477 0)scale(0.996264)"/>
       <use xlink:href="#CMSY10-0" transform="translate(91.380954 36.153639)scale(0.697382)"/>
       <use xlink:href="#CMR17-32" transform="translate(145.621947 36.153639)scale(0.697382)"/>
      </g>
     </g>
    </g>
    <g id="ytick_2">
     <g id="line2d_11">
      <path d="M 86.4 276.049581 
L 547.2 276.049581 
" clip-path="url(#p8a9565cea3)" style="fill: none; stroke: #b0b0b0; stroke-width: 0.8; stroke-linecap: square"/>
     </g>
     <g id="line2d_12">
      <g>
       <use xlink:href="#m64d5dd5529" x="86.4" y="276.049581" style="stroke: #000000; stroke-width: 0.8"/>
      </g>
     </g>
     <g id="text_7">
      <!-- $\mathdefault{10^{-1}}$ -->
      <g transform="translate(43.447161 282.968079)scale(0.2 -0.2)">
       <use xlink:href="#CMR17-31" transform="scale(0.996264)"/>
       <use xlink:href="#CMR17-30" transform="translate(45.690477 0)scale(0.996264)"/>
       <use xlink:href="#CMSY10-0" transform="translate(91.380954 36.153639)scale(0.697382)"/>
       <use xlink:href="#CMR17-31" transform="translate(145.621947 36.153639)scale(0.697382)"/>
      </g>
     </g>
    </g>
    <g id="ytick_3">
     <g id="line2d_13">
      <path d="M 86.4 184.899162 
L 547.2 184.899162 
" clip-path="url(#p8a9565cea3)" style="fill: none; stroke: #b0b0b0; stroke-width: 0.8; stroke-linecap: square"/>
     </g>
     <g id="line2d_14">
      <g>
       <use xlink:href="#m64d5dd5529" x="86.4" y="184.899162" style="stroke: #000000; stroke-width: 0.8"/>
      </g>
     </g>
     <g id="text_8">
      <!-- $\mathdefault{10^{0}}$ -->
      <g transform="translate(54.295351 191.81766)scale(0.2 -0.2)">
       <use xlink:href="#CMR17-31" transform="scale(0.996264)"/>
       <use xlink:href="#CMR17-30" transform="translate(45.690477 0)scale(0.996264)"/>
       <use xlink:href="#CMR17-30" transform="translate(91.380954 36.153639)scale(0.697382)"/>
      </g>
     </g>
    </g>
    <g id="ytick_4">
     <g id="line2d_15">
      <path d="M 86.4 93.748743 
L 547.2 93.748743 
" clip-path="url(#p8a9565cea3)" style="fill: none; stroke: #b0b0b0; stroke-width: 0.8; stroke-linecap: square"/>
     </g>
     <g id="line2d_16">
      <g>
       <use xlink:href="#m64d5dd5529" x="86.4" y="93.748743" style="stroke: #000000; stroke-width: 0.8"/>
      </g>
     </g>
     <g id="text_9">
      <!-- $\mathdefault{10^{1}}$ -->
      <g transform="translate(54.295351 100.667241)scale(0.2 -0.2)">
       <use xlink:href="#CMR17-31" transform="scale(0.996264)"/>
       <use xlink:href="#CMR17-30" transform="translate(45.690477 0)scale(0.996264)"/>
       <use xlink:href="#CMR17-31" transform="translate(91.380954 36.153639)scale(0.697382)"/>
      </g>
     </g>
    </g>
    <g id="ytick_5">
     <g id="line2d_17">
      <defs>
       <path id="m715079829d" d="M 0 0 
L -2 0 
" style="stroke: #000000; stroke-width: 0.6"/>
      </defs>
      <g>
       <use xlink:href="#m715079829d" x="86.4" y="339.76099" style="stroke: #000000; stroke-width: 0.6"/>
      </g>
     </g>
    </g>
    <g id="ytick_6">
     <g id="line2d_18">
      <g>
       <use xlink:href="#m715079829d" x="86.4" y="323.710198" style="stroke: #000000; stroke-width: 0.6"/>
      </g>
     </g>
    </g>
    <g id="ytick_7">
     <g id="line2d_19">
      <g>
       <use xlink:href="#m715079829d" x="86.4" y="312.32198" style="stroke: #000000; stroke-width: 0.6"/>
      </g>
     </g>
    </g>
    <g id="ytick_8">
     <g id="line2d_20">
      <g>
       <use xlink:href="#m715079829d" x="86.4" y="303.488591" style="stroke: #000000; stroke-width: 0.6"/>
      </g>
     </g>
    </g>
    <g id="ytick_9">
     <g id="line2d_21">
      <g>
       <use xlink:href="#m715079829d" x="86.4" y="296.271188" style="stroke: #000000; stroke-width: 0.6"/>
      </g>
     </g>
    </g>
    <g id="ytick_10">
     <g id="line2d_22">
      <g>
       <use xlink:href="#m715079829d" x="86.4" y="290.16896" style="stroke: #000000; stroke-width: 0.6"/>
      </g>
     </g>
    </g>
    <g id="ytick_11">
     <g id="line2d_23">
      <g>
       <use xlink:href="#m715079829d" x="86.4" y="284.882969" style="stroke: #000000; stroke-width: 0.6"/>
      </g>
     </g>
    </g>
    <g id="ytick_12">
     <g id="line2d_24">
      <g>
       <use xlink:href="#m715079829d" x="86.4" y="280.220395" style="stroke: #000000; stroke-width: 0.6"/>
      </g>
     </g>
    </g>
    <g id="ytick_13">
     <g id="line2d_25">
      <g>
       <use xlink:href="#m715079829d" x="86.4" y="248.610571" style="stroke: #000000; stroke-width: 0.6"/>
      </g>
     </g>
    </g>
    <g id="ytick_14">
     <g id="line2d_26">
      <g>
       <use xlink:href="#m715079829d" x="86.4" y="232.559779" style="stroke: #000000; stroke-width: 0.6"/>
      </g>
     </g>
    </g>
    <g id="ytick_15">
     <g id="line2d_27">
      <g>
       <use xlink:href="#m715079829d" x="86.4" y="221.171561" style="stroke: #000000; stroke-width: 0.6"/>
      </g>
     </g>
    </g>
    <g id="ytick_16">
     <g id="line2d_28">
      <g>
       <use xlink:href="#m715079829d" x="86.4" y="212.338172" style="stroke: #000000; stroke-width: 0.6"/>
      </g>
     </g>
    </g>
    <g id="ytick_17">
     <g id="line2d_29">
      <g>
       <use xlink:href="#m715079829d" x="86.4" y="205.120769" style="stroke: #000000; stroke-width: 0.6"/>
      </g>
     </g>
    </g>
    <g id="ytick_18">
     <g id="line2d_30">
      <g>
       <use xlink:href="#m715079829d" x="86.4" y="199.018541" style="stroke: #000000; stroke-width: 0.6"/>
      </g>
     </g>
    </g>
    <g id="ytick_19">
     <g id="line2d_31">
      <g>
       <use xlink:href="#m715079829d" x="86.4" y="193.73255" style="stroke: #000000; stroke-width: 0.6"/>
      </g>
     </g>
    </g>
    <g id="ytick_20">
     <g id="line2d_32">
      <g>
       <use xlink:href="#m715079829d" x="86.4" y="189.069977" style="stroke: #000000; stroke-width: 0.6"/>
      </g>
     </g>
    </g>
    <g id="ytick_21">
     <g id="line2d_33">
      <g>
       <use xlink:href="#m715079829d" x="86.4" y="157.460152" style="stroke: #000000; stroke-width: 0.6"/>
      </g>
     </g>
    </g>
    <g id="ytick_22">
     <g id="line2d_34">
      <g>
       <use xlink:href="#m715079829d" x="86.4" y="141.40936" style="stroke: #000000; stroke-width: 0.6"/>
      </g>
     </g>
    </g>
    <g id="ytick_23">
     <g id="line2d_35">
      <g>
       <use xlink:href="#m715079829d" x="86.4" y="130.021142" style="stroke: #000000; stroke-width: 0.6"/>
      </g>
     </g>
    </g>
    <g id="ytick_24">
     <g id="line2d_36">
      <g>
       <use xlink:href="#m715079829d" x="86.4" y="121.187753" style="stroke: #000000; stroke-width: 0.6"/>
      </g>
     </g>
    </g>
    <g id="ytick_25">
     <g id="line2d_37">
      <g>
       <use xlink:href="#m715079829d" x="86.4" y="113.97035" style="stroke: #000000; stroke-width: 0.6"/>
      </g>
     </g>
    </g>
    <g id="ytick_26">
     <g id="line2d_38">
      <g>
       <use xlink:href="#m715079829d" x="86.4" y="107.868122" style="stroke: #000000; stroke-width: 0.6"/>
      </g>
     </g>
    </g>
    <g id="ytick_27">
     <g id="line2d_39">
      <g>
       <use xlink:href="#m715079829d" x="86.4" y="102.582131" style="stroke: #000000; stroke-width: 0.6"/>
      </g>
     </g>
    </g>
    <g id="ytick_28">
     <g id="line2d_40">
      <g>
       <use xlink:href="#m715079829d" x="86.4" y="97.919558" style="stroke: #000000; stroke-width: 0.6"/>
      </g>
     </g>
    </g>
    <g id="ytick_29">
     <g id="line2d_41">
      <g>
       <use xlink:href="#m715079829d" x="86.4" y="66.309733" style="stroke: #000000; stroke-width: 0.6"/>
      </g>
     </g>
    </g>
    <g id="ytick_30">
     <g id="line2d_42">
      <g>
       <use xlink:href="#m715079829d" x="86.4" y="50.258941" style="stroke: #000000; stroke-width: 0.6"/>
      </g>
     </g>
    </g>
    <g id="text_10">
     <!-- $\mathrm{Rate}\ [\si{PE^{-1}kg^{-1}y^{-1}}]$ -->
     <g transform="translate(34.482518 284.851677)rotate(-90)scale(0.2 -0.2)">
      <defs>
       <path id="CMR17-52" d="M 2509 2156 
C 3117 2278 3629 2689 3629 3203 
C 3629 3806 2950 4352 2054 4352 
L 333 4352 
L 333 4185 
C 774 4185 845 4185 845 3896 
L 845 428 
C 845 140 774 140 333 140 
L 333 -26 
C 518 -13 851 -13 1050 -13 
C 1248 -13 1581 -13 1766 -26 
L 1766 140 
C 1325 140 1254 140 1254 428 
L 1254 2112 
L 2003 2112 
C 2368 2112 2573 1964 2662 1881 
C 2918 1632 2918 1459 2918 1024 
C 2918 595 2918 377 3110 160 
C 3354 -103 3680 -128 3821 -128 
C 4294 -128 4365 403 4365 512 
C 4365 550 4365 595 4307 595 
C 4256 595 4250 556 4250 531 
C 4218 115 4032 -26 3834 -26 
C 3482 -26 3443 377 3405 768 
C 3386 902 3373 998 3360 1139 
C 3322 1459 3270 1926 2509 2156 
z
M 1984 2214 
L 1254 2214 
L 1254 3935 
C 1254 4153 1267 4185 1523 4185 
L 1990 4185 
C 2522 4185 3142 3999 3142 3203 
C 3142 2374 2464 2214 1984 2214 
z
" transform="scale(0.015625)"/>
       <path id="CMR17-61" d="M 2304 1656 
C 2304 2048 2304 2275 2035 2534 
C 1798 2751 1523 2816 1306 2816 
C 800 2816 435 2408 435 1977 
C 435 1740 627 1728 666 1728 
C 749 1728 896 1779 896 1958 
C 896 2118 774 2188 666 2188 
C 640 2188 608 2182 589 2176 
C 723 2594 1069 2713 1293 2713 
C 1613 2713 1965 2421 1965 1875 
L 1965 1632 
C 1587 1619 1133 1568 774 1373 
C 371 1147 256 822 256 576 
C 256 77 832 -64 1171 -64 
C 1523 -64 1850 135 1990 505 
C 2003 219 2182 -39 2464 -39 
C 2598 -39 2938 51 2938 563 
L 2938 926 
L 2822 926 
L 2822 557 
C 2822 161 2650 109 2566 109 
C 2304 109 2304 446 2304 732 
L 2304 1656 
z
M 1965 887 
C 1965 323 1568 38 1216 38 
C 896 38 646 278 646 576 
C 646 771 730 1114 1101 1322 
C 1408 1497 1760 1523 1965 1536 
L 1965 887 
z
" transform="scale(0.015625)"/>
       <path id="CMR17-74" d="M 966 2585 
L 1862 2585 
L 1862 2752 
L 966 2752 
L 966 3968 
L 851 3968 
C 838 3292 614 2700 70 2687 
L 70 2585 
L 627 2585 
L 627 778 
C 627 655 627 -64 1370 -64 
C 1747 -64 1965 308 1965 784 
L 1965 1151 
L 1850 1151 
L 1850 790 
C 1850 347 1677 51 1408 51 
C 1222 51 966 179 966 765 
L 966 2585 
z
" transform="scale(0.015625)"/>
       <path id="CMR17-65" d="M 2438 1503 
C 2464 1529 2464 1542 2464 1606 
C 2464 2251 2118 2816 1389 2816 
C 710 2816 173 2175 173 1394 
C 173 554 781 -64 1459 -64 
C 2176 -64 2458 619 2458 755 
C 2458 800 2419 800 2406 800 
C 2362 800 2355 787 2330 709 
C 2189 270 1837 51 1504 51 
C 1229 51 954 206 781 490 
C 582 819 582 1200 582 1503 
L 2438 1503 
z
M 589 1600 
C 634 2511 1126 2713 1382 2713 
C 1818 2713 2112 2308 2118 1600 
L 589 1600 
z
" transform="scale(0.015625)"/>
       <path id="CMSS17-31" d="M 1818 4288 
L 1696 4288 
C 1350 3949 947 3902 538 3891 
L 538 3520 
C 723 3526 1024 3539 1325 3673 
L 1325 371 
L 570 371 
L 570 0 
L 2573 0 
L 2573 371 
L 1818 371 
L 1818 4288 
z
" transform="scale(0.015625)"/>
       <path id="CMSS17-6b" d="M 1696 1686 
L 2688 2735 
L 2074 2735 
L 954 1552 
L 954 4416 
L 480 4416 
L 480 0 
L 947 0 
L 947 891 
L 1376 1342 
L 2278 0 
L 2822 0 
L 1696 1686 
z
" transform="scale(0.015625)"/>
       <path id="CMSS17-67" d="M 2848 2816 
C 2483 2809 2170 2739 1914 2617 
C 1702 2783 1485 2816 1338 2816 
C 781 2816 358 2356 358 1824 
C 358 1481 550 1222 563 1209 
C 448 1049 384 876 384 684 
C 384 460 474 300 544 211 
C 211 6 166 -308 166 -429 
C 166 -896 749 -1280 1498 -1280 
C 2253 -1280 2835 -896 2835 -423 
C 2835 460 1856 467 1587 467 
L 1069 467 
C 973 467 717 467 717 793 
C 717 921 774 1004 781 1011 
C 877 940 1075 832 1338 832 
C 1869 832 2310 1279 2310 1824 
C 2310 2128 2170 2349 2112 2425 
L 2131 2425 
C 2150 2425 2419 2444 2515 2444 
C 2720 2444 2739 2438 2918 2419 
L 2848 2816 
z
M 1338 1184 
C 1120 1184 813 1317 813 1824 
C 813 2375 1165 2463 1331 2463 
C 1549 2463 1856 2330 1856 1824 
C 1856 1272 1504 1184 1338 1184 
z
M 1581 0 
C 1734 0 2381 0 2381 -436 
C 2381 -711 1984 -928 1504 -928 
C 1018 -928 621 -717 621 -429 
C 621 -397 621 0 1062 0 
L 1581 0 
z
" transform="scale(0.015625)"/>
       <path id="CMSS17-79" d="M 2675 2752 
L 2176 2752 
C 1632 1293 1446 701 1434 383 
L 1427 383 
C 1408 695 1126 1459 902 2006 
L 602 2752 
L 83 2752 
L 1216 14 
C 1146 -177 1043 -464 1011 -527 
C 870 -884 774 -884 672 -884 
C 646 -884 442 -877 211 -807 
L 250 -1229 
C 410 -1261 570 -1280 685 -1280 
C 845 -1280 1165 -1280 1459 -495 
L 2675 2752 
z
" transform="scale(0.015625)"/>
      </defs>
      <use xlink:href="#CMR17-52" transform="scale(0.996264)"/>
      <use xlink:href="#CMR17-61" transform="translate(67.791102 0)scale(0.996264)"/>
      <use xlink:href="#CMR17-74" transform="translate(113.481579 0)scale(0.996264)"/>
      <use xlink:href="#CMR17-65" transform="translate(148.762347 0)scale(0.996264)"/>
      <use xlink:href="#CMR17-5b" transform="translate(220.47712 0)scale(0.996264)"/>
      <use xlink:href="#CMSS17-50" transform="translate(245.348179 0)scale(0.996264)"/>
      <use xlink:href="#CMSS17-45" transform="translate(305.083765 0)scale(0.996264)"/>
      <use xlink:href="#CMSY10-0" transform="translate(360.975778 36.153639)scale(0.697382)"/>
      <use xlink:href="#CMSS17-31" transform="translate(415.216771 36.153639)scale(0.697382)"/>
      <use xlink:href="#CMSS17-6b" transform="translate(448.505285 0)scale(0.996264)"/>
      <use xlink:href="#CMSS17-67" transform="translate(494.107774 0)scale(0.996264)"/>
      <use xlink:href="#CMSY10-0" transform="translate(542.252564 36.153639)scale(0.697382)"/>
      <use xlink:href="#CMSS17-31" transform="translate(596.493557 36.153639)scale(0.697382)"/>
      <use xlink:href="#CMSS17-79" transform="translate(629.78207 0)scale(0.996264)"/>
      <use xlink:href="#CMSY10-0" transform="translate(674.083378 36.153639)scale(0.697382)"/>
      <use xlink:href="#CMSS17-31" transform="translate(728.324371 36.153639)scale(0.697382)"/>
      <use xlink:href="#CMR17-5d" transform="translate(761.612885 0)scale(0.996264)"/>
     </g>
    </g>
   </g>
   <g id="line2d_43">
    <path d="M 87.552 46.972961 
L 89.856 47.568604 
L 92.16 48.315752 
L 94.464 49.270988 
L 96.768 50.464769 
L 99.072 51.907215 
L 101.376 53.59277 
L 103.68 55.503722 
L 105.984 57.612793 
L 110.592 62.280328 
L 122.112 74.532025 
L 126.72 78.842647 
L 131.328 82.586446 
L 135.936 85.828851 
L 140.544 88.745267 
L 152.064 95.872766 
L 156.672 98.973606 
L 163.584 103.943846 
L 179.712 115.861523 
L 186.624 120.630709 
L 195.84 126.646094 
L 214.272 138.535194 
L 251.136 162.742672 
L 278.784 180.636585 
L 331.776 215.366364 
L 361.728 235.354178 
L 387.072 252.519698 
L 412.416 269.961016 
L 437.76 287.689424 
L 460.8 304.073409 
L 483.84 320.719049 
L 506.88 337.634402 
L 529.92 354.824756 
L 546.048 367.023644 
L 546.048 367.023644 
" clip-path="url(#p8a9565cea3)" style="fill: none; stroke: #1f77b4; stroke-width: 2; stroke-linecap: square"/>
   </g>
   <g id="patch_3">
    <path d="M 86.4 367.2 
L 86.4 43.2 
" style="fill: none; stroke: #000000; stroke-width: 0.8; stroke-linejoin: miter; stroke-linecap: square"/>
   </g>
   <g id="patch_4">
    <path d="M 547.2 367.2 
L 547.2 43.2 
" style="fill: none; stroke: #000000; stroke-width: 0.8; stroke-linejoin: miter; stroke-linecap: square"/>
   </g>
   <g id="patch_5">
    <path d="M 86.4 367.2 
L 547.2 367.2 
" style="fill: none; stroke: #000000; stroke-width: 0.8; stroke-linejoin: miter; stroke-linecap: square"/>
   </g>
   <g id="patch_6">
    <path d="M 86.4 43.2 
L 547.2 43.2 
" style="fill: none; stroke: #000000; stroke-width: 0.8; stroke-linejoin: miter; stroke-linecap: square"/>
   </g>
   <g id="legend_1">
    <g id="patch_7">
     <path d="M 409.006556 97.011489 
L 536.7 97.011489 
Q 539.7 97.011489 539.7 94.011489 
L 539.7 53.7 
Q 539.7 50.7 536.7 50.7 
L 409.006556 50.7 
Q 406.006556 50.7 406.006556 53.7 
L 406.006556 94.011489 
Q 406.006556 97.011489 409.006556 97.011489 
z
" style="fill: #ffffff; opacity: 0.8; stroke: #cccccc; stroke-linejoin: miter"/>
    </g>
    <g id="line2d_44">
     <path d="M 412.006556 61.95 
L 427.006556 61.95 
L 442.006556 61.95 
" style="fill: none; stroke: #1f77b4; stroke-width: 2; stroke-linecap: square"/>
    </g>
    <g id="text_11">
     <!-- $\mathrm{CE\nu NS}$ -->
     <g transform="translate(454.006556 67.2)scale(0.15 -0.15)">
      <defs>
       <path id="CMR17-43" d="M 3974 4351 
C 3974 4467 3968 4473 3930 4473 
C 3904 4473 3898 4467 3853 4390 
L 3571 3849 
C 3258 4249 2874 4480 2381 4480 
C 1286 4480 294 3507 294 2179 
C 294 837 1286 -128 2387 -128 
C 3366 -128 3974 741 3974 1482 
C 3974 1547 3974 1573 3917 1573 
C 3866 1573 3866 1553 3859 1495 
C 3808 592 3168 38 2477 38 
C 1824 38 781 502 781 2179 
C 781 3862 1843 4313 2464 4313 
C 3187 4313 3712 3681 3834 2785 
C 3846 2707 3846 2695 3904 2695 
C 3974 2695 3974 2707 3974 2824 
L 3974 4351 
z
" transform="scale(0.015625)"/>
       <path id="CMR17-45" d="M 3885 1614 
L 3770 1614 
C 3629 676 3546 166 2419 166 
L 1530 166 
C 1274 166 1261 198 1261 415 
L 1261 2176 
L 1862 2176 
C 2464 2176 2522 1959 2522 1429 
L 2637 1429 
L 2637 3086 
L 2522 3086 
C 2522 2558 2464 2342 1862 2342 
L 1261 2342 
L 1261 3924 
C 1261 4141 1274 4172 1530 4172 
L 2406 4172 
C 3398 4172 3514 3778 3603 2933 
L 3718 2933 
L 3565 4339 
L 326 4339 
L 326 4172 
C 768 4172 838 4172 838 3886 
L 838 453 
C 838 166 768 166 326 166 
L 326 0 
L 3654 0 
L 3885 1614 
z
" transform="scale(0.015625)"/>
       <path id="CMMI12-17" d="M 1408 2751 
C 1408 2777 1389 2816 1338 2816 
C 1293 2816 691 2758 595 2751 
C 525 2745 461 2739 461 2623 
C 461 2559 512 2559 602 2559 
C 902 2559 922 2515 922 2445 
C 922 2419 909 2343 902 2317 
L 339 64 
C 339 38 358 0 403 0 
L 538 0 
C 627 0 1600 230 2349 996 
C 3174 1845 3290 2630 3290 2655 
C 3290 2758 3206 2816 3123 2816 
C 2938 2816 2893 2643 2880 2598 
C 2502 1264 1626 472 774 192 
L 1408 2751 
z
" transform="scale(0.015625)"/>
       <path id="CMR17-4e" d="M 1312 4275 
C 1267 4345 1261 4352 1139 4352 
L 326 4352 
L 326 4185 
L 448 4185 
C 704 4185 819 4153 838 4147 
L 838 624 
C 838 465 838 166 326 166 
L 326 0 
C 474 12 742 12 902 12 
C 1062 12 1331 12 1478 0 
L 1478 166 
C 966 166 966 465 966 624 
L 966 4057 
C 1011 4019 1011 4007 1056 3943 
L 3430 76 
C 3475 0 3494 0 3526 0 
C 3590 0 3590 19 3590 140 
L 3590 3726 
C 3590 3885 3590 4185 4102 4185 
L 4102 4352 
C 3955 4339 3686 4339 3526 4339 
C 3366 4339 3098 4339 2950 4352 
L 2950 4185 
C 3462 4185 3462 3885 3462 3726 
L 3462 777 
L 1312 4275 
z
" transform="scale(0.015625)"/>
      </defs>
      <use xlink:href="#CMR17-43" transform="scale(0.996264)"/>
      <use xlink:href="#CMR17-45" transform="translate(66.509881 0)scale(0.996264)"/>
      <use xlink:href="#CMMI12-17" transform="translate(129.096181 0)scale(0.996264)"/>
      <use xlink:href="#CMR17-4e" transform="translate(183.578974 0)scale(0.996264)"/>
      <use xlink:href="#CMR17-53" transform="translate(252.651404 0)scale(0.996264)"/>
     </g>
    </g>
    <g id="patch_8">
     <path d="M 412.006556 88.105745 
L 442.006556 88.105745 
L 442.006556 77.605745 
L 412.006556 77.605745 
z
" style="fill: #1f77b4; fill-opacity: 0.5"/>
    </g>
    <g id="text_12">
     <!-- $\mathrm{CE\nu NS\ ROI}$ -->
     <g transform="translate(454.006556 88.105745)scale(0.15 -0.15)">
      <defs>
       <path id="CMR17-4f" d="M 4307 2166 
C 4307 3488 3366 4480 2304 4480 
C 1216 4480 294 3475 294 2166 
C 294 857 1229 -128 2298 -128 
C 3392 -128 4307 876 4307 2166 
z
M 2304 -13 
C 1574 -13 781 722 781 2250 
C 781 3771 1651 4364 2298 4364 
C 2976 4364 3821 3752 3821 2250 
C 3821 696 3008 -13 2304 -13 
z
" transform="scale(0.015625)"/>
       <path id="CMR17-49" d="M 1261 3898 
C 1261 4185 1338 4185 1798 4185 
L 1798 4352 
C 1594 4339 1267 4339 1050 4339 
C 832 4339 506 4339 301 4352 
L 301 4185 
C 762 4185 838 4185 838 3898 
L 838 453 
C 838 166 762 166 301 166 
L 301 0 
C 506 12 832 12 1050 12 
C 1267 12 1594 12 1798 0 
L 1798 166 
C 1338 166 1261 166 1261 453 
L 1261 3898 
z
" transform="scale(0.015625)"/>
      </defs>
      <use xlink:href="#CMR17-43" transform="scale(0.996264)"/>
      <use xlink:href="#CMR17-45" transform="translate(66.509881 0)scale(0.996264)"/>
      <use xlink:href="#CMMI12-17" transform="translate(129.096181 0)scale(0.996264)"/>
      <use xlink:href="#CMR17-4e" transform="translate(183.578974 0)scale(0.996264)"/>
      <use xlink:href="#CMR17-53" transform="translate(252.651404 0)scale(0.996264)"/>
      <use xlink:href="#CMR17-52" transform="translate(334.775886 0)scale(0.996264)"/>
      <use xlink:href="#CMR17-4f" transform="translate(399.964534 0)scale(0.996264)"/>
      <use xlink:href="#CMR17-49" transform="translate(471.679323 0)scale(0.996264)"/>
     </g>
    </g>
   </g>
  </g>
 </g>
 <defs>
  <clipPath id="p8a9565cea3">
   <rect x="86.4" y="43.2" width="460.8" height="324"/>
  </clipPath>
 </defs>
</svg>
