<?xml version="1.0" encoding="utf-8" standalone="no"?>
<!DOCTYPE svg PUBLIC "-//W3C//DTD SVG 1.1//EN"
  "http://www.w3.org/Graphics/SVG/1.1/DTD/svg11.dtd">
<svg xmlns:xlink="http://www.w3.org/1999/xlink" width="576pt" height="432pt" viewBox="0 0 576 432" xmlns="http://www.w3.org/2000/svg" version="1.1">
 <metadata>
  <rdf:RDF xmlns:dc="http://purl.org/dc/elements/1.1/" xmlns:cc="http://creativecommons.org/ns#" xmlns:rdf="http://www.w3.org/1999/02/22-rdf-syntax-ns#">
   <cc:Work>
    <dc:type rdf:resource="http://purl.org/dc/dcmitype/StillImage"/>
    <dc:date>2022-05-27T11:23:35.156616</dc:date>
    <dc:format>image/svg+xml</dc:format>
    <dc:creator>
     <cc:Agent>
      <dc:title>Matplotlib v3.5.1, https://matplotlib.org/</dc:title>
     </cc:Agent>
    </dc:creator>
   </cc:Work>
  </rdf:RDF>
 </metadata>
 <defs>
  <style type="text/css">*{stroke-linejoin: round; stroke-linecap: butt}</style>
 </defs>
 <g id="figure_1">
  <g id="patch_1">
   <path d="M 0 432 
L 576 432 
L 576 0 
L 0 0 
L 0 432 
z
" style="fill: none"/>
  </g>
  <g id="axes_1">
   <g id="patch_2">
    <path d="M 86.4 367.2 
L 547.2 367.2 
L 547.2 43.2 
L 86.4 43.2 
L 86.4 367.2 
z
" style="fill: none"/>
   </g>
   <g id="matplotlib.axis_1">
    <g id="xtick_1">
     <g id="line2d_1">
      <path d="M 86.4 367.2 
L 86.4 43.2 
" clip-path="url(#p7e994927f9)" style="fill: none; stroke: #b0b0b0; stroke-width: 0.8; stroke-linecap: square"/>
     </g>
     <g id="line2d_2">
      <defs>
       <path id="mbbf639ce53" d="M 0 0 
L 0 3.5 
" style="stroke: #000000; stroke-width: 0.8"/>
      </defs>
      <g>
       <use xlink:href="#mbbf639ce53" x="86.4" y="367.2" style="stroke: #000000; stroke-width: 0.8"/>
      </g>
     </g>
     <g id="text_1">
      <!-- $\mathdefault{0.10}$ -->
      <g transform="translate(69.983139 388.036997)scale(0.2 -0.2)">
       <defs>
        <path id="CMR17-30" d="M 2688 2038 
C 2688 2430 2682 3099 2413 3613 
C 2176 4063 1798 4224 1466 4224 
C 1158 4224 768 4082 525 3620 
C 269 3137 243 2539 243 2038 
C 243 1671 250 1112 448 623 
C 723 -39 1216 -128 1466 -128 
C 1760 -128 2208 -7 2470 604 
C 2662 1048 2688 1568 2688 2038 
z
M 1466 -26 
C 1056 -26 813 328 723 816 
C 653 1196 653 1749 653 2109 
C 653 2604 653 3015 736 3407 
C 858 3954 1216 4121 1466 4121 
C 1728 4121 2067 3947 2189 3420 
C 2272 3054 2278 2623 2278 2109 
C 2278 1691 2278 1176 2202 797 
C 2067 96 1690 -26 1466 -26 
z
" transform="scale(0.015625)"/>
        <path id="CMMI12-3a" d="M 1178 307 
C 1178 492 1024 620 870 620 
C 685 620 557 467 557 313 
C 557 128 710 0 864 0 
C 1050 0 1178 153 1178 307 
z
" transform="scale(0.015625)"/>
        <path id="CMR17-31" d="M 1702 4083 
C 1702 4217 1696 4224 1606 4224 
C 1357 3927 979 3833 621 3820 
C 602 3820 570 3820 563 3808 
C 557 3795 557 3782 557 3648 
C 755 3648 1088 3686 1344 3839 
L 1344 467 
C 1344 243 1331 166 781 166 
L 589 166 
L 589 0 
C 896 6 1216 12 1523 12 
C 1830 12 2150 6 2458 0 
L 2458 166 
L 2266 166 
C 1715 166 1702 236 1702 467 
L 1702 4083 
z
" transform="scale(0.015625)"/>
       </defs>
       <use xlink:href="#CMR17-30" transform="scale(0.996264)"/>
       <use xlink:href="#CMMI12-3a" transform="translate(45.690477 0)scale(0.996264)"/>
       <use xlink:href="#CMR17-31" transform="translate(72.787654 0)scale(0.996264)"/>
       <use xlink:href="#CMR17-30" transform="translate(118.478131 0)scale(0.996264)"/>
      </g>
     </g>
    </g>
    <g id="xtick_2">
     <g id="line2d_3">
      <path d="M 163.2 367.2 
L 163.2 43.2 
" clip-path="url(#p7e994927f9)" style="fill: none; stroke: #b0b0b0; stroke-width: 0.8; stroke-linecap: square"/>
     </g>
     <g id="line2d_4">
      <g>
       <use xlink:href="#mbbf639ce53" x="163.2" y="367.2" style="stroke: #000000; stroke-width: 0.8"/>
      </g>
     </g>
     <g id="text_2">
      <!-- $\mathdefault{0.15}$ -->
      <g transform="translate(146.783139 388.036997)scale(0.2 -0.2)">
       <defs>
        <path id="CMR17-35" d="M 730 3750 
C 794 3724 1056 3641 1325 3641 
C 1920 3641 2246 3961 2432 4140 
C 2432 4191 2432 4224 2394 4224 
C 2387 4224 2374 4224 2323 4198 
C 2099 4102 1837 4032 1517 4032 
C 1325 4032 1037 4055 723 4191 
C 653 4224 640 4224 634 4224 
C 602 4224 595 4217 595 4090 
L 595 2231 
C 595 2113 595 2080 659 2080 
C 691 2080 704 2093 736 2139 
C 941 2435 1222 2560 1542 2560 
C 1766 2560 2246 2415 2246 1293 
C 2246 1087 2246 716 2054 422 
C 1894 159 1645 25 1370 25 
C 947 25 518 319 403 812 
C 429 806 480 793 506 793 
C 589 793 749 838 749 1036 
C 749 1209 627 1280 506 1280 
C 358 1280 262 1190 262 1011 
C 262 454 704 -128 1382 -128 
C 2042 -128 2669 441 2669 1267 
C 2669 2054 2170 2662 1549 2662 
C 1222 2662 947 2540 730 2304 
L 730 3750 
z
" transform="scale(0.015625)"/>
       </defs>
       <use xlink:href="#CMR17-30" transform="scale(0.996264)"/>
       <use xlink:href="#CMMI12-3a" transform="translate(45.690477 0)scale(0.996264)"/>
       <use xlink:href="#CMR17-31" transform="translate(72.787654 0)scale(0.996264)"/>
       <use xlink:href="#CMR17-35" transform="translate(118.478131 0)scale(0.996264)"/>
      </g>
     </g>
    </g>
    <g id="xtick_3">
     <g id="line2d_5">
      <path d="M 240 367.2 
L 240 43.2 
" clip-path="url(#p7e994927f9)" style="fill: none; stroke: #b0b0b0; stroke-width: 0.8; stroke-linecap: square"/>
     </g>
     <g id="line2d_6">
      <g>
       <use xlink:href="#mbbf639ce53" x="240" y="367.2" style="stroke: #000000; stroke-width: 0.8"/>
      </g>
     </g>
     <g id="text_3">
      <!-- $\mathdefault{0.20}$ -->
      <g transform="translate(223.583139 388.036997)scale(0.2 -0.2)">
       <defs>
        <path id="CMR17-32" d="M 2669 990 
L 2554 990 
C 2490 537 2438 460 2413 422 
C 2381 371 1920 371 1830 371 
L 602 371 
C 832 620 1280 1073 1824 1596 
C 2214 1966 2669 2400 2669 3033 
C 2669 3788 2067 4224 1395 4224 
C 691 4224 262 3603 262 3027 
C 262 2777 448 2745 525 2745 
C 589 2745 781 2783 781 3007 
C 781 3206 614 3264 525 3264 
C 486 3264 448 3257 422 3244 
C 544 3788 915 4057 1306 4057 
C 1862 4057 2227 3616 2227 3033 
C 2227 2477 1901 1998 1536 1583 
L 262 147 
L 262 0 
L 2515 0 
L 2669 990 
z
" transform="scale(0.015625)"/>
       </defs>
       <use xlink:href="#CMR17-30" transform="scale(0.996264)"/>
       <use xlink:href="#CMMI12-3a" transform="translate(45.690477 0)scale(0.996264)"/>
       <use xlink:href="#CMR17-32" transform="translate(72.787654 0)scale(0.996264)"/>
       <use xlink:href="#CMR17-30" transform="translate(118.478131 0)scale(0.996264)"/>
      </g>
     </g>
    </g>
    <g id="xtick_4">
     <g id="line2d_7">
      <path d="M 316.8 367.2 
L 316.8 43.2 
" clip-path="url(#p7e994927f9)" style="fill: none; stroke: #b0b0b0; stroke-width: 0.8; stroke-linecap: square"/>
     </g>
     <g id="line2d_8">
      <g>
       <use xlink:href="#mbbf639ce53" x="316.8" y="367.2" style="stroke: #000000; stroke-width: 0.8"/>
      </g>
     </g>
     <g id="text_4">
      <!-- $\mathdefault{0.25}$ -->
      <g transform="translate(300.383139 388.036997)scale(0.2 -0.2)">
       <use xlink:href="#CMR17-30" transform="scale(0.996264)"/>
       <use xlink:href="#CMMI12-3a" transform="translate(45.690477 0)scale(0.996264)"/>
       <use xlink:href="#CMR17-32" transform="translate(72.787654 0)scale(0.996264)"/>
       <use xlink:href="#CMR17-35" transform="translate(118.478131 0)scale(0.996264)"/>
      </g>
     </g>
    </g>
    <g id="xtick_5">
     <g id="line2d_9">
      <path d="M 393.6 367.2 
L 393.6 43.2 
" clip-path="url(#p7e994927f9)" style="fill: none; stroke: #b0b0b0; stroke-width: 0.8; stroke-linecap: square"/>
     </g>
     <g id="line2d_10">
      <g>
       <use xlink:href="#mbbf639ce53" x="393.6" y="367.2" style="stroke: #000000; stroke-width: 0.8"/>
      </g>
     </g>
     <g id="text_5">
      <!-- $\mathdefault{0.30}$ -->
      <g transform="translate(377.183139 388.036997)scale(0.2 -0.2)">
       <defs>
        <path id="CMR17-33" d="M 1414 2176 
C 1984 2176 2234 1673 2234 1094 
C 2234 322 1824 25 1453 25 
C 1114 25 563 193 390 691 
C 422 678 454 678 486 678 
C 640 678 755 780 755 947 
C 755 1132 614 1216 486 1216 
C 378 1216 211 1164 211 927 
C 211 335 787 -128 1466 -128 
C 2176 -128 2720 432 2720 1087 
C 2720 1718 2208 2176 1600 2246 
C 2086 2347 2554 2776 2554 3353 
C 2554 3856 2048 4224 1472 4224 
C 890 4224 378 3862 378 3347 
C 378 3123 544 3084 627 3084 
C 762 3084 877 3167 877 3334 
C 877 3500 762 3584 627 3584 
C 602 3584 570 3584 544 3571 
C 730 3999 1235 4076 1459 4076 
C 1683 4076 2106 3966 2106 3347 
C 2106 3167 2080 2851 1862 2574 
C 1670 2329 1453 2316 1242 2297 
C 1210 2297 1062 2284 1037 2284 
C 992 2278 966 2272 966 2227 
C 966 2182 973 2176 1101 2176 
L 1414 2176 
z
" transform="scale(0.015625)"/>
       </defs>
       <use xlink:href="#CMR17-30" transform="scale(0.996264)"/>
       <use xlink:href="#CMMI12-3a" transform="translate(45.690477 0)scale(0.996264)"/>
       <use xlink:href="#CMR17-33" transform="translate(72.787654 0)scale(0.996264)"/>
       <use xlink:href="#CMR17-30" transform="translate(118.478131 0)scale(0.996264)"/>
      </g>
     </g>
    </g>
    <g id="xtick_6">
     <g id="line2d_11">
      <path d="M 470.4 367.2 
L 470.4 43.2 
" clip-path="url(#p7e994927f9)" style="fill: none; stroke: #b0b0b0; stroke-width: 0.8; stroke-linecap: square"/>
     </g>
     <g id="line2d_12">
      <g>
       <use xlink:href="#mbbf639ce53" x="470.4" y="367.2" style="stroke: #000000; stroke-width: 0.8"/>
      </g>
     </g>
     <g id="text_6">
      <!-- $\mathdefault{0.35}$ -->
      <g transform="translate(453.983139 388.036997)scale(0.2 -0.2)">
       <use xlink:href="#CMR17-30" transform="scale(0.996264)"/>
       <use xlink:href="#CMMI12-3a" transform="translate(45.690477 0)scale(0.996264)"/>
       <use xlink:href="#CMR17-33" transform="translate(72.787654 0)scale(0.996264)"/>
       <use xlink:href="#CMR17-35" transform="translate(118.478131 0)scale(0.996264)"/>
      </g>
     </g>
    </g>
    <g id="xtick_7">
     <g id="line2d_13">
      <path d="M 547.2 367.2 
L 547.2 43.2 
" clip-path="url(#p7e994927f9)" style="fill: none; stroke: #b0b0b0; stroke-width: 0.8; stroke-linecap: square"/>
     </g>
     <g id="line2d_14">
      <g>
       <use xlink:href="#mbbf639ce53" x="547.2" y="367.2" style="stroke: #000000; stroke-width: 0.8"/>
      </g>
     </g>
     <g id="text_7">
      <!-- $\mathdefault{0.40}$ -->
      <g transform="translate(530.783139 388.036997)scale(0.2 -0.2)">
       <defs>
        <path id="CMR17-34" d="M 2150 4147 
C 2150 4281 2144 4288 2029 4288 
L 128 1254 
L 128 1088 
L 1779 1088 
L 1779 460 
C 1779 230 1766 166 1318 166 
L 1197 166 
L 1197 0 
C 1402 12 1747 12 1965 12 
C 2182 12 2528 12 2733 0 
L 2733 166 
L 2611 166 
C 2163 166 2150 230 2150 460 
L 2150 1088 
L 2803 1088 
L 2803 1254 
L 2150 1254 
L 2150 4147 
z
M 1798 3723 
L 1798 1254 
L 256 1254 
L 1798 3723 
z
" transform="scale(0.015625)"/>
       </defs>
       <use xlink:href="#CMR17-30" transform="scale(0.996264)"/>
       <use xlink:href="#CMMI12-3a" transform="translate(45.690477 0)scale(0.996264)"/>
       <use xlink:href="#CMR17-34" transform="translate(72.787654 0)scale(0.996264)"/>
       <use xlink:href="#CMR17-30" transform="translate(118.478131 0)scale(0.996264)"/>
      </g>
     </g>
    </g>
    <g id="text_8">
     <!-- $\sin^2\theta_w$ -->
     <g transform="translate(290.892317 411.699529)scale(0.2 -0.2)">
      <defs>
       <path id="CMR17-73" d="M 1978 2688 
C 1978 2803 1971 2809 1933 2809 
C 1907 2809 1901 2803 1824 2707 
C 1805 2681 1747 2617 1728 2592 
C 1523 2809 1235 2816 1126 2816 
C 416 2816 160 2444 160 2073 
C 160 1497 813 1363 998 1324 
C 1402 1241 1542 1216 1677 1100 
C 1760 1024 1901 883 1901 652 
C 1901 384 1747 38 1158 38 
C 602 38 403 460 288 1024 
C 269 1113 269 1120 218 1120 
C 166 1120 160 1113 160 985 
L 160 64 
C 160 -52 166 -58 205 -58 
C 237 -58 243 -52 275 0 
C 314 57 410 211 448 275 
C 576 102 800 -64 1158 -64 
C 1792 -64 2131 281 2131 780 
C 2131 1107 1958 1280 1875 1356 
C 1683 1555 1459 1600 1190 1651 
C 838 1728 390 1817 390 2208 
C 390 2374 480 2726 1126 2726 
C 1811 2726 1850 2086 1862 1881 
C 1869 1849 1901 1843 1920 1843 
C 1978 1843 1978 1862 1978 1971 
L 1978 2688 
z
" transform="scale(0.015625)"/>
       <path id="CMR17-69" d="M 992 3961 
C 992 4102 877 4224 730 4224 
C 589 4224 467 4108 467 3961 
C 467 3820 582 3699 730 3699 
C 870 3699 992 3814 992 3961 
z
M 243 2745 
L 243 2579 
C 602 2579 653 2540 653 2231 
L 653 443 
C 653 198 627 166 218 166 
L 218 0 
C 371 12 646 12 806 12 
C 960 12 1222 12 1370 0 
L 1370 166 
C 992 166 979 205 979 436 
L 979 2816 
L 243 2745 
z
" transform="scale(0.015625)"/>
       <path id="CMR17-6e" d="M 2656 1954 
C 2656 2282 2592 2816 1837 2816 
C 1331 2816 1069 2424 973 2166 
L 966 2166 
L 966 2816 
L 211 2745 
L 211 2578 
C 589 2578 646 2540 646 2231 
L 646 443 
C 646 198 621 166 211 166 
L 211 0 
C 365 12 646 12 813 12 
C 979 12 1267 12 1421 0 
L 1421 166 
C 1011 166 986 192 986 443 
L 986 1678 
C 986 2269 1344 2713 1792 2713 
C 2266 2713 2317 2289 2317 1980 
L 2317 443 
C 2317 198 2291 166 1882 166 
L 1882 0 
C 2035 12 2317 12 2483 12 
C 2650 12 2938 12 3091 0 
L 3091 166 
C 2682 166 2656 192 2656 443 
L 2656 1954 
z
" transform="scale(0.015625)"/>
       <path id="CMMI12-12" d="M 2835 3200 
C 2835 3849 2630 4480 2106 4480 
C 1210 4480 256 2615 256 1215 
C 256 922 320 -64 992 -64 
C 1862 -64 2835 1755 2835 3200 
z
M 896 2304 
C 992 2679 1126 3213 1382 3665 
C 1594 4046 1818 4351 2099 4351 
C 2310 4351 2451 4173 2451 3563 
C 2451 3334 2432 3016 2246 2304 
L 896 2304 
z
M 2202 2112 
C 2042 1488 1907 1088 1677 687 
C 1491 362 1267 64 998 64 
C 800 64 640 216 640 846 
C 640 1259 742 1692 845 2112 
L 2202 2112 
z
" transform="scale(0.015625)"/>
       <path id="CMMI12-77" d="M 2202 389 
C 2342 6 2739 -64 2982 -64 
C 3469 -64 3757 357 3936 798 
C 4083 1168 4320 2011 4320 2388 
C 4320 2777 4122 2816 4064 2816 
C 3910 2816 3770 2662 3770 2534 
C 3770 2458 3814 2413 3846 2388 
C 3904 2330 4070 2158 4070 1826 
C 4070 1609 3891 1008 3757 708 
C 3578 319 3341 64 3008 64 
C 2650 64 2534 332 2534 625 
C 2534 810 2592 1034 2618 1142 
L 2886 2215 
C 2918 2343 2976 2566 2976 2591 
C 2976 2687 2899 2752 2803 2752 
C 2618 2752 2573 2591 2534 2438 
C 2470 2189 2202 1110 2176 970 
C 2150 861 2150 791 2150 651 
C 2150 498 1946 255 1939 242 
C 1869 172 1766 64 1568 64 
C 1062 64 1062 542 1062 651 
C 1062 855 1107 1136 1395 1896 
C 1472 2094 1504 2177 1504 2305 
C 1504 2573 1312 2816 998 2816 
C 410 2816 173 1890 173 1838 
C 173 1813 198 1781 243 1781 
C 301 1781 307 1807 333 1896 
C 493 2458 742 2687 979 2687 
C 1043 2687 1146 2681 1146 2477 
C 1146 2445 1146 2311 1037 2030 
C 736 1232 672 970 672 728 
C 672 57 1222 -64 1549 -64 
C 1658 -64 1946 -64 2202 389 
z
" transform="scale(0.015625)"/>
      </defs>
      <use xlink:href="#CMR17-73" transform="scale(0.996264)"/>
      <use xlink:href="#CMR17-69" transform="translate(35.801338 0)scale(0.996264)"/>
      <use xlink:href="#CMR17-6e" transform="translate(60.672396 0)scale(0.996264)"/>
      <use xlink:href="#CMR17-32" transform="translate(111.567766 38.426442)scale(0.697382)"/>
      <use xlink:href="#CMMI12-12" transform="translate(160.653485 0)scale(0.996264)"/>
      <use xlink:href="#CMMI12-77" transform="translate(206.113275 -14.943915)scale(0.697382)"/>
     </g>
    </g>
   </g>
   <g id="matplotlib.axis_2">
    <g id="ytick_1">
     <g id="line2d_15">
      <path d="M 86.4 365.187578 
L 547.2 365.187578 
" clip-path="url(#p7e994927f9)" style="fill: none; stroke: #b0b0b0; stroke-width: 0.8; stroke-linecap: square"/>
     </g>
     <g id="line2d_16">
      <defs>
       <path id="m5a95e12293" d="M 0 0 
L -3.5 0 
" style="stroke: #000000; stroke-width: 0.8"/>
      </defs>
      <g>
       <use xlink:href="#m5a95e12293" x="86.4" y="365.187578" style="stroke: #000000; stroke-width: 0.8"/>
      </g>
     </g>
     <g id="text_9">
      <!-- $\mathdefault{0.0}$ -->
      <g transform="translate(55.704374 372.106076)scale(0.2 -0.2)">
       <use xlink:href="#CMR17-30" transform="scale(0.996264)"/>
       <use xlink:href="#CMMI12-3a" transform="translate(45.690477 0)scale(0.996264)"/>
       <use xlink:href="#CMR17-30" transform="translate(72.787654 0)scale(0.996264)"/>
      </g>
     </g>
    </g>
    <g id="ytick_2">
     <g id="line2d_17">
      <path d="M 86.4 314.877019 
L 547.2 314.877019 
" clip-path="url(#p7e994927f9)" style="fill: none; stroke: #b0b0b0; stroke-width: 0.8; stroke-linecap: square"/>
     </g>
     <g id="line2d_18">
      <g>
       <use xlink:href="#m5a95e12293" x="86.4" y="314.877019" style="stroke: #000000; stroke-width: 0.8"/>
      </g>
     </g>
     <g id="text_10">
      <!-- $\mathdefault{2.5}$ -->
      <g transform="translate(55.704374 321.795517)scale(0.2 -0.2)">
       <use xlink:href="#CMR17-32" transform="scale(0.996264)"/>
       <use xlink:href="#CMMI12-3a" transform="translate(45.690477 0)scale(0.996264)"/>
       <use xlink:href="#CMR17-35" transform="translate(72.787654 0)scale(0.996264)"/>
      </g>
     </g>
    </g>
    <g id="ytick_3">
     <g id="line2d_19">
      <path d="M 86.4 264.56646 
L 547.2 264.56646 
" clip-path="url(#p7e994927f9)" style="fill: none; stroke: #b0b0b0; stroke-width: 0.8; stroke-linecap: square"/>
     </g>
     <g id="line2d_20">
      <g>
       <use xlink:href="#m5a95e12293" x="86.4" y="264.56646" style="stroke: #000000; stroke-width: 0.8"/>
      </g>
     </g>
     <g id="text_11">
      <!-- $\mathdefault{5.0}$ -->
      <g transform="translate(55.704374 271.484958)scale(0.2 -0.2)">
       <use xlink:href="#CMR17-35" transform="scale(0.996264)"/>
       <use xlink:href="#CMMI12-3a" transform="translate(45.690477 0)scale(0.996264)"/>
       <use xlink:href="#CMR17-30" transform="translate(72.787654 0)scale(0.996264)"/>
      </g>
     </g>
    </g>
    <g id="ytick_4">
     <g id="line2d_21">
      <path d="M 86.4 214.255901 
L 547.2 214.255901 
" clip-path="url(#p7e994927f9)" style="fill: none; stroke: #b0b0b0; stroke-width: 0.8; stroke-linecap: square"/>
     </g>
     <g id="line2d_22">
      <g>
       <use xlink:href="#m5a95e12293" x="86.4" y="214.255901" style="stroke: #000000; stroke-width: 0.8"/>
      </g>
     </g>
     <g id="text_12">
      <!-- $\mathdefault{7.5}$ -->
      <g transform="translate(55.704374 221.174399)scale(0.2 -0.2)">
       <defs>
        <path id="CMR17-37" d="M 2886 3955 
L 2886 4096 
L 1382 4096 
C 634 4096 621 4166 595 4288 
L 480 4288 
L 294 3104 
L 410 3104 
C 429 3226 474 3552 550 3673 
C 589 3724 1062 3724 1171 3724 
L 2579 3724 
L 1869 2670 
C 1395 1961 1069 1003 1069 166 
C 1069 89 1069 -128 1299 -128 
C 1530 -128 1530 89 1530 172 
L 1530 466 
C 1530 1514 1709 2204 2003 2644 
L 2886 3955 
z
" transform="scale(0.015625)"/>
       </defs>
       <use xlink:href="#CMR17-37" transform="scale(0.996264)"/>
       <use xlink:href="#CMMI12-3a" transform="translate(45.690477 0)scale(0.996264)"/>
       <use xlink:href="#CMR17-35" transform="translate(72.787654 0)scale(0.996264)"/>
      </g>
     </g>
    </g>
    <g id="ytick_5">
     <g id="line2d_23">
      <path d="M 86.4 163.945342 
L 547.2 163.945342 
" clip-path="url(#p7e994927f9)" style="fill: none; stroke: #b0b0b0; stroke-width: 0.8; stroke-linecap: square"/>
     </g>
     <g id="line2d_24">
      <g>
       <use xlink:href="#m5a95e12293" x="86.4" y="163.945342" style="stroke: #000000; stroke-width: 0.8"/>
      </g>
     </g>
     <g id="text_13">
      <!-- $\mathdefault{10.0}$ -->
      <g transform="translate(46.566278 170.86384)scale(0.2 -0.2)">
       <use xlink:href="#CMR17-31" transform="scale(0.996264)"/>
       <use xlink:href="#CMR17-30" transform="translate(45.690477 0)scale(0.996264)"/>
       <use xlink:href="#CMMI12-3a" transform="translate(91.380954 0)scale(0.996264)"/>
       <use xlink:href="#CMR17-30" transform="translate(118.478131 0)scale(0.996264)"/>
      </g>
     </g>
    </g>
    <g id="ytick_6">
     <g id="line2d_25">
      <path d="M 86.4 113.634783 
L 547.2 113.634783 
" clip-path="url(#p7e994927f9)" style="fill: none; stroke: #b0b0b0; stroke-width: 0.8; stroke-linecap: square"/>
     </g>
     <g id="line2d_26">
      <g>
       <use xlink:href="#m5a95e12293" x="86.4" y="113.634783" style="stroke: #000000; stroke-width: 0.8"/>
      </g>
     </g>
     <g id="text_14">
      <!-- $\mathdefault{12.5}$ -->
      <g transform="translate(46.566278 120.553281)scale(0.2 -0.2)">
       <use xlink:href="#CMR17-31" transform="scale(0.996264)"/>
       <use xlink:href="#CMR17-32" transform="translate(45.690477 0)scale(0.996264)"/>
       <use xlink:href="#CMMI12-3a" transform="translate(91.380954 0)scale(0.996264)"/>
       <use xlink:href="#CMR17-35" transform="translate(118.478131 0)scale(0.996264)"/>
      </g>
     </g>
    </g>
    <g id="ytick_7">
     <g id="line2d_27">
      <path d="M 86.4 63.324224 
L 547.2 63.324224 
" clip-path="url(#p7e994927f9)" style="fill: none; stroke: #b0b0b0; stroke-width: 0.8; stroke-linecap: square"/>
     </g>
     <g id="line2d_28">
      <g>
       <use xlink:href="#m5a95e12293" x="86.4" y="63.324224" style="stroke: #000000; stroke-width: 0.8"/>
      </g>
     </g>
     <g id="text_15">
      <!-- $\mathdefault{15.0}$ -->
      <g transform="translate(46.566278 70.242722)scale(0.2 -0.2)">
       <use xlink:href="#CMR17-31" transform="scale(0.996264)"/>
       <use xlink:href="#CMR17-35" transform="translate(45.690477 0)scale(0.996264)"/>
       <use xlink:href="#CMMI12-3a" transform="translate(91.380954 0)scale(0.996264)"/>
       <use xlink:href="#CMR17-30" transform="translate(118.478131 0)scale(0.996264)"/>
      </g>
     </g>
    </g>
    <g id="text_16">
     <!-- $\Delta\chi^2$ -->
     <g transform="translate(38.690645 222.417478)rotate(-90)scale(0.2 -0.2)">
      <defs>
       <path id="CMR17-1" d="M 2598 4435 
C 2547 4544 2522 4544 2470 4544 
C 2394 4544 2387 4531 2342 4441 
L 269 108 
C 262 96 237 38 237 32 
C 237 6 243 0 358 0 
L 4576 0 
C 4691 0 4698 6 4698 32 
C 4698 38 4672 96 4666 108 
L 2598 4435 
z
M 2310 4056 
L 4083 358 
L 531 358 
L 2310 4056 
z
" transform="scale(0.015625)"/>
       <path id="CMMI12-1f" d="M 2112 1035 
C 1939 1562 1978 1511 1818 1956 
C 1619 2503 1568 2547 1478 2636 
C 1363 2739 1146 2816 922 2816 
C 563 2816 390 2484 390 2401 
C 390 2363 422 2344 461 2344 
C 512 2344 525 2376 531 2401 
C 627 2649 826 2687 883 2687 
C 1069 2687 1248 2230 1363 1925 
C 1517 1537 1594 1270 1766 653 
L 256 -1050 
C 198 -1120 198 -1146 198 -1152 
C 198 -1204 230 -1216 256 -1216 
C 282 -1216 301 -1204 320 -1184 
C 499 -1006 896 -535 1062 -345 
L 1805 494 
C 2118 -479 2118 -491 2214 -727 
C 2317 -968 2451 -1280 2995 -1280 
C 3360 -1280 3526 -955 3526 -866 
C 3526 -822 3488 -809 3456 -809 
C 3405 -809 3398 -835 3379 -886 
C 3309 -1064 3142 -1152 3040 -1152 
C 2957 -1152 2854 -1152 2573 -447 
C 2406 -21 2259 487 2150 882 
L 3667 2598 
C 3718 2655 3725 2662 3725 2687 
C 3725 2732 3693 2752 3661 2752 
C 3642 2752 3622 2752 3558 2681 
L 2112 1035 
z
" transform="scale(0.015625)"/>
      </defs>
      <use xlink:href="#CMR17-1" transform="scale(0.996264)"/>
      <use xlink:href="#CMMI12-1f" transform="translate(76.91959 0)scale(0.996264)"/>
      <use xlink:href="#CMR17-32" transform="translate(138.032549 36.153639)scale(0.697382)"/>
     </g>
    </g>
   </g>
   <g id="LineCollection_1">
    <path d="M 287.9232 365.187578 
L 287.9232 -1 
" clip-path="url(#p7e994927f9)" style="fill: none; stroke: #000000; stroke-width: 2"/>
   </g>
   <g id="line2d_29">
    <path d="M 144.206102 -1 
L 144.768 3.280793 
L 150.912 47.512836 
L 153.984 68.271871 
L 157.056 87.946857 
L 160.128 106.383414 
L 163.2 123.902627 
L 169.344 156.111795 
L 172.416 171.391493 
L 175.488 185.829125 
L 178.56 199.335442 
L 181.632 212.068437 
L 184.704 223.984651 
L 190.848 246.017202 
L 193.92 256.314436 
L 196.992 265.906465 
L 200.064 274.880687 
L 203.136 283.223777 
L 206.208 291.021109 
L 212.352 305.28685 
L 215.424 311.762094 
L 218.496 317.776517 
L 221.568 323.277244 
L 224.64 328.373185 
L 227.712 333.0056 
L 230.784 337.329214 
L 233.856 341.35043 
L 236.928 344.996948 
L 240 348.270109 
L 243.072 351.196762 
L 246.144 353.801383 
L 249.216 356.085284 
L 252.288 358.141675 
L 255.36 359.910024 
L 258.432 361.405174 
L 261.504 362.626001 
L 264.576 363.594488 
L 267.648 364.323886 
L 270.72 364.82279 
L 273.792 365.116229 
L 276.864 365.187578 
L 279.936 365.051707 
L 283.008 364.687542 
L 286.08 364.045483 
L 289.152 363.161826 
L 292.224 362.045928 
L 295.296 360.670277 
L 298.368 359.081144 
L 301.44 357.290017 
L 304.512 355.297299 
L 307.584 353.138022 
L 310.656 350.795449 
L 313.728 348.230904 
L 316.8 345.474576 
L 322.944 339.497676 
L 329.088 332.960663 
L 332.16 329.514289 
L 338.304 321.992937 
L 344.448 314.019365 
L 350.592 305.675781 
L 356.736 296.767987 
L 362.88 287.418606 
L 369.024 277.782981 
L 375.168 267.782461 
L 384.384 251.990362 
L 393.6 235.73833 
L 405.888 212.751797 
L 415.104 195.082363 
L 430.464 164.235384 
L 436.608 151.602885 
L 451.968 119.07375 
L 458.112 105.759965 
L 476.544 64.896353 
L 494.976 22.616632 
L 504.98405 -1 
L 504.98405 -1 
" clip-path="url(#p7e994927f9)" style="fill: none; stroke: #ff0000; stroke-width: 3; stroke-linecap: square"/>
   </g>
   <g id="line2d_30">
    <path d="M 225.843539 -1 
L 227.712 25.904718 
L 230.784 67.278593 
L 233.856 106.332555 
L 236.928 141.998494 
L 240 174.441261 
L 243.072 203.817453 
L 246.144 230.275855 
L 249.216 253.957854 
L 252.288 275.549455 
L 255.36 294.72776 
L 258.432 311.317238 
L 261.504 325.447952 
L 264.576 337.243356 
L 267.648 346.82065 
L 270.72 354.291121 
L 273.792 359.9402 
L 276.864 363.536667 
L 279.936 365.187578 
L 283.008 364.994461 
L 286.08 363.053626 
L 289.152 359.456448 
L 292.224 354.213119 
L 295.296 347.25336 
L 298.368 338.777462 
L 301.44 328.868275 
L 304.512 317.604334 
L 307.584 305.060096 
L 310.656 291.306171 
L 313.728 276.025595 
L 316.8 259.407644 
L 319.872 241.697369 
L 322.944 222.958357 
L 326.016 203.250848 
L 329.088 182.631927 
L 332.16 161.155698 
L 338.304 114.151062 
L 344.448 64.104362 
L 350.592 11.392761 
L 351.973062 -1 
L 351.973062 -1 
" clip-path="url(#p7e994927f9)" style="fill: none; stroke-dasharray: 7.4,3.2; stroke-dashoffset: 0; stroke: #0000ff; stroke-width: 2"/>
   </g>
   <g id="LineCollection_2">
    <path d="M 86.4 345.063354 
L 577 345.063354 
" clip-path="url(#p7e994927f9)" style="fill: none; stroke-dasharray: 12.8,3.2,2,3.2; stroke-dashoffset: 0; stroke: #bfbf00; stroke-width: 2"/>
   </g>
   <g id="patch_3">
    <path d="M 86.4 367.2 
L 86.4 43.2 
" style="fill: none; stroke: #000000; stroke-width: 0.8; stroke-linejoin: miter; stroke-linecap: square"/>
   </g>
   <g id="patch_4">
    <path d="M 547.2 367.2 
L 547.2 43.2 
" style="fill: none; stroke: #000000; stroke-width: 0.8; stroke-linejoin: miter; stroke-linecap: square"/>
   </g>
   <g id="patch_5">
    <path d="M 86.4 367.2 
L 547.2 367.2 
" style="fill: none; stroke: #000000; stroke-width: 0.8; stroke-linejoin: miter; stroke-linecap: square"/>
   </g>
   <g id="patch_6">
    <path d="M 86.4 43.2 
L 547.2 43.2 
" style="fill: none; stroke: #000000; stroke-width: 0.8; stroke-linejoin: miter; stroke-linecap: square"/>
   </g>
   <g id="legend_1">
    <g id="patch_7">
     <path d="M 308.890855 144.103418 
L 536.7 144.103418 
Q 539.7 144.103418 539.7 141.103418 
L 539.7 53.7 
Q 539.7 50.7 536.7 50.7 
L 308.890855 50.7 
Q 305.890855 50.7 305.890855 53.7 
L 305.890855 141.103418 
Q 305.890855 144.103418 308.890855 144.103418 
z
" style="fill: #ffffff; opacity: 0.8; stroke: #cccccc; stroke-linejoin: miter"/>
    </g>
    <g id="line2d_31">
     <path d="M 311.890855 62.65797 
L 341.890855 62.65797 
" style="fill: none; stroke: #000000; stroke-width: 2"/>
    </g>
    <g id="text_17">
     <!-- $\mathrm{PDG(2020)}$ -->
     <g transform="translate(353.890855 67.90797)scale(0.15 -0.15)">
      <defs>
       <path id="CMR17-50" d="M 1267 2048 
L 2291 2048 
C 3117 2048 3718 2583 3718 3187 
C 3718 3791 3130 4352 2291 4352 
L 333 4352 
L 333 4185 
C 774 4185 845 4185 845 3899 
L 845 453 
C 845 166 774 166 333 166 
L 333 0 
C 518 12 858 12 1056 12 
C 1254 12 1594 12 1779 0 
L 1779 166 
C 1338 166 1267 166 1267 453 
L 1267 2048 
z
M 1254 2182 
L 1254 3937 
C 1254 4153 1267 4185 1523 4185 
L 2170 4185 
C 2995 4185 3232 3715 3232 3187 
C 3232 2608 2950 2182 2170 2182 
L 1254 2182 
z
" transform="scale(0.015625)"/>
       <path id="CMR17-44" d="M 333 4352 
L 333 4185 
C 774 4185 845 4185 845 3898 
L 845 453 
C 845 166 774 166 333 166 
L 333 0 
L 2368 0 
C 3398 0 4224 943 4224 2140 
C 4224 3344 3411 4352 2368 4352 
L 333 4352 
z
M 1523 166 
C 1267 166 1254 198 1254 414 
L 1254 3936 
C 1254 4153 1267 4185 1523 4185 
L 2240 4185 
C 2771 4185 3750 3873 3750 2140 
C 3750 1242 3488 879 3366 707 
C 3213 510 2848 166 2240 166 
L 1523 166 
z
" transform="scale(0.015625)"/>
       <path id="CMR17-47" d="M 3974 1258 
C 3974 1503 3994 1536 4390 1536 
L 4390 1702 
C 4237 1689 3891 1689 3718 1689 
C 3539 1689 3040 1696 2797 1702 
L 2797 1536 
L 2989 1536 
C 3539 1536 3552 1464 3552 1232 
L 3552 806 
C 3552 96 2720 38 2522 38 
C 1862 38 781 496 781 2179 
C 781 3862 1843 4313 2464 4313 
C 3187 4313 3712 3681 3834 2785 
C 3846 2708 3846 2695 3904 2695 
C 3974 2695 3974 2708 3974 2824 
L 3974 4351 
C 3974 4467 3968 4473 3930 4473 
C 3904 4473 3898 4467 3853 4390 
L 3571 3849 
C 3258 4249 2874 4480 2381 4480 
C 1286 4480 294 3507 294 2179 
C 294 858 1267 -128 2394 -128 
C 2912 -128 3418 57 3616 425 
C 3725 161 3904 -20 3936 -20 
C 3968 -20 3974 -13 3974 102 
L 3974 1258 
z
" transform="scale(0.015625)"/>
       <path id="CMR17-28" d="M 1958 -1562 
C 1958 -1556 1958 -1543 1939 -1524 
C 1645 -1223 858 -403 858 1596 
C 858 3595 1632 4408 1946 4729 
C 1946 4735 1958 4748 1958 4767 
C 1958 4787 1939 4800 1914 4800 
C 1843 4800 1299 4325 986 3620 
C 666 2909 576 2218 576 1603 
C 576 1141 621 360 1005 -467 
C 1312 -1133 1837 -1600 1914 -1600 
C 1946 -1600 1958 -1588 1958 -1562 
z
" transform="scale(0.015625)"/>
       <path id="CMR17-29" d="M 1683 1596 
C 1683 2057 1638 2839 1254 3665 
C 947 4332 422 4800 346 4800 
C 326 4800 301 4793 301 4761 
C 301 4748 307 4742 314 4729 
C 621 4408 1402 3595 1402 1603 
C 1402 -396 627 -1210 314 -1530 
C 307 -1543 301 -1549 301 -1562 
C 301 -1594 326 -1600 346 -1600 
C 416 -1600 960 -1127 1274 -422 
C 1594 289 1683 981 1683 1596 
z
" transform="scale(0.015625)"/>
      </defs>
      <use xlink:href="#CMR17-50" transform="scale(0.996264)"/>
      <use xlink:href="#CMR17-44" transform="translate(62.586301 0)scale(0.996264)"/>
      <use xlink:href="#CMR17-47" transform="translate(132.979856 0)scale(0.996264)"/>
      <use xlink:href="#CMR17-28" transform="translate(205.335202 0)scale(0.996264)"/>
      <use xlink:href="#CMR17-32" transform="translate(240.61597 0)scale(0.996264)"/>
      <use xlink:href="#CMR17-30" transform="translate(286.306447 0)scale(0.996264)"/>
      <use xlink:href="#CMR17-32" transform="translate(331.996924 0)scale(0.996264)"/>
      <use xlink:href="#CMR17-30" transform="translate(377.687401 0)scale(0.996264)"/>
      <use xlink:href="#CMR17-29" transform="translate(423.377879 0)scale(0.996264)"/>
     </g>
    </g>
    <g id="line2d_32">
     <path d="M 311.890855 84.39396 
L 326.890855 84.39396 
L 341.890855 84.39396 
" style="fill: none; stroke: #ff0000; stroke-width: 3; stroke-linecap: square"/>
    </g>
    <g id="text_18">
     <!-- $\mathrm{CE\nu NS}$ -->
     <g transform="translate(353.890855 89.64396)scale(0.15 -0.15)">
      <defs>
       <path id="CMR17-43" d="M 3974 4351 
C 3974 4467 3968 4473 3930 4473 
C 3904 4473 3898 4467 3853 4390 
L 3571 3849 
C 3258 4249 2874 4480 2381 4480 
C 1286 4480 294 3507 294 2179 
C 294 837 1286 -128 2387 -128 
C 3366 -128 3974 741 3974 1482 
C 3974 1547 3974 1573 3917 1573 
C 3866 1573 3866 1553 3859 1495 
C 3808 592 3168 38 2477 38 
C 1824 38 781 502 781 2179 
C 781 3862 1843 4313 2464 4313 
C 3187 4313 3712 3681 3834 2785 
C 3846 2707 3846 2695 3904 2695 
C 3974 2695 3974 2707 3974 2824 
L 3974 4351 
z
" transform="scale(0.015625)"/>
       <path id="CMR17-45" d="M 3885 1614 
L 3770 1614 
C 3629 676 3546 166 2419 166 
L 1530 166 
C 1274 166 1261 198 1261 415 
L 1261 2176 
L 1862 2176 
C 2464 2176 2522 1959 2522 1429 
L 2637 1429 
L 2637 3086 
L 2522 3086 
C 2522 2558 2464 2342 1862 2342 
L 1261 2342 
L 1261 3924 
C 1261 4141 1274 4172 1530 4172 
L 2406 4172 
C 3398 4172 3514 3778 3603 2933 
L 3718 2933 
L 3565 4339 
L 326 4339 
L 326 4172 
C 768 4172 838 4172 838 3886 
L 838 453 
C 838 166 768 166 326 166 
L 326 0 
L 3654 0 
L 3885 1614 
z
" transform="scale(0.015625)"/>
       <path id="CMMI12-17" d="M 1408 2751 
C 1408 2777 1389 2816 1338 2816 
C 1293 2816 691 2758 595 2751 
C 525 2745 461 2739 461 2623 
C 461 2559 512 2559 602 2559 
C 902 2559 922 2515 922 2445 
C 922 2419 909 2343 902 2317 
L 339 64 
C 339 38 358 0 403 0 
L 538 0 
C 627 0 1600 230 2349 996 
C 3174 1845 3290 2630 3290 2655 
C 3290 2758 3206 2816 3123 2816 
C 2938 2816 2893 2643 2880 2598 
C 2502 1264 1626 472 774 192 
L 1408 2751 
z
" transform="scale(0.015625)"/>
       <path id="CMR17-4e" d="M 1312 4275 
C 1267 4345 1261 4352 1139 4352 
L 326 4352 
L 326 4185 
L 448 4185 
C 704 4185 819 4153 838 4147 
L 838 624 
C 838 465 838 166 326 166 
L 326 0 
C 474 12 742 12 902 12 
C 1062 12 1331 12 1478 0 
L 1478 166 
C 966 166 966 465 966 624 
L 966 4057 
C 1011 4019 1011 4007 1056 3943 
L 3430 76 
C 3475 0 3494 0 3526 0 
C 3590 0 3590 19 3590 140 
L 3590 3726 
C 3590 3885 3590 4185 4102 4185 
L 4102 4352 
C 3955 4339 3686 4339 3526 4339 
C 3366 4339 3098 4339 2950 4352 
L 2950 4185 
C 3462 4185 3462 3885 3462 3726 
L 3462 777 
L 1312 4275 
z
" transform="scale(0.015625)"/>
       <path id="CMR17-53" d="M 2803 4351 
C 2803 4467 2797 4473 2758 4473 
C 2720 4473 2707 4447 2682 4390 
L 2490 3965 
C 2246 4320 1875 4480 1472 4480 
C 819 4480 294 3958 294 3301 
C 294 3101 339 2817 557 2546 
C 794 2250 1018 2198 1530 2063 
C 1722 2011 2042 1927 2106 1901 
C 2470 1747 2662 1360 2662 999 
C 2662 534 2336 38 1779 38 
C 1094 38 454 425 410 1328 
C 403 1431 397 1437 352 1437 
C 301 1437 294 1431 294 1302 
L 294 0 
C 294 -116 301 -122 339 -122 
C 384 -122 397 -90 486 109 
C 493 128 493 141 614 386 
C 934 -39 1472 -128 1779 -128 
C 2477 -128 2970 457 2970 1141 
C 2970 1476 2848 1734 2778 1850 
C 2509 2263 2221 2340 1914 2417 
C 1869 2437 1856 2437 1498 2527 
C 1152 2617 1005 2662 845 2836 
C 666 3036 602 3243 602 3449 
C 602 3868 934 4326 1478 4326 
C 2157 4326 2579 3842 2675 3036 
C 2694 2920 2701 2914 2746 2914 
C 2803 2914 2803 2933 2803 3043 
L 2803 4351 
z
" transform="scale(0.015625)"/>
      </defs>
      <use xlink:href="#CMR17-43" transform="scale(0.996264)"/>
      <use xlink:href="#CMR17-45" transform="translate(66.509881 0)scale(0.996264)"/>
      <use xlink:href="#CMMI12-17" transform="translate(129.096181 0)scale(0.996264)"/>
      <use xlink:href="#CMR17-4e" transform="translate(183.578974 0)scale(0.996264)"/>
      <use xlink:href="#CMR17-53" transform="translate(252.651404 0)scale(0.996264)"/>
     </g>
    </g>
    <g id="line2d_33">
     <path d="M 311.890855 106.007675 
L 326.890855 106.007675 
L 341.890855 106.007675 
" style="fill: none; stroke-dasharray: 7.4,3.2; stroke-dashoffset: 0; stroke: #0000ff; stroke-width: 2"/>
    </g>
    <g id="text_19">
     <!-- $\mathrm{CE\nu NS,w/o\ Q_y\ uncertainty}$ -->
     <g transform="translate(353.890855 111.257675)scale(0.15 -0.15)">
      <defs>
       <path id="CMMI12-3b" d="M 1248 -26 
C 1248 345 1126 620 864 620 
C 659 620 557 454 557 313 
C 557 172 653 0 870 0 
C 954 0 1024 25 1082 83 
C 1094 96 1101 96 1107 96 
C 1120 96 1120 6 1120 -26 
C 1120 -233 1082 -642 710 -1051 
C 640 -1127 640 -1140 640 -1152 
C 640 -1184 672 -1216 704 -1216 
C 755 -1216 1248 -749 1248 -26 
z
" transform="scale(0.015625)"/>
       <path id="CMR17-77" d="M 3725 2186 
C 3853 2566 4109 2579 4205 2585 
L 4205 2752 
C 4077 2745 3949 2739 3821 2739 
C 3699 2739 3424 2739 3315 2752 
L 3315 2585 
C 3514 2572 3622 2456 3622 2296 
C 3622 2251 3610 2193 3597 2148 
L 2995 398 
L 2342 2296 
C 2330 2341 2310 2392 2310 2418 
C 2310 2585 2528 2585 2630 2585 
L 2630 2752 
C 2483 2739 2214 2739 2061 2739 
C 1901 2739 1734 2739 1587 2752 
L 1587 2585 
C 1939 2585 1939 2572 2074 2167 
L 1485 443 
L 851 2302 
C 819 2386 819 2399 819 2418 
C 819 2585 1037 2585 1139 2585 
L 1139 2752 
C 986 2739 717 2739 557 2739 
C 416 2739 198 2739 64 2752 
L 64 2585 
C 346 2585 416 2566 486 2353 
L 1274 38 
C 1299 -45 1318 -64 1370 -64 
C 1414 -64 1440 -52 1472 44 
L 2131 1987 
L 2797 44 
C 2829 -52 2854 -64 2899 -64 
C 2950 -64 2970 -45 2995 38 
L 3725 2186 
z
" transform="scale(0.015625)"/>
       <path id="CMMI12-3d" d="M 2746 4563 
C 2746 4569 2784 4665 2784 4678 
C 2784 4755 2720 4800 2669 4800 
C 2637 4800 2579 4800 2528 4659 
L 384 -1364 
C 384 -1370 346 -1466 346 -1479 
C 346 -1556 410 -1600 461 -1600 
C 499 -1600 557 -1594 602 -1460 
L 2746 4563 
z
" transform="scale(0.015625)"/>
       <path id="CMR17-6f" d="M 2758 1356 
C 2758 2176 2163 2816 1466 2816 
C 768 2816 173 2176 173 1356 
C 173 550 768 -64 1466 -64 
C 2163 -64 2758 550 2758 1356 
z
M 1466 51 
C 1165 51 909 230 762 480 
C 602 768 582 1126 582 1408 
C 582 1676 595 2009 762 2297 
C 890 2508 1139 2713 1466 2713 
C 1754 2713 1997 2553 2150 2329 
C 2349 2028 2349 1606 2349 1408 
C 2349 1158 2336 774 2163 467 
C 1984 172 1709 51 1466 51 
z
" transform="scale(0.015625)"/>
       <path id="CMR17-51" d="M 3027 31 
C 3789 355 4307 1187 4307 2157 
C 4307 3484 3366 4480 2304 4480 
C 1216 4480 294 3471 294 2157 
C 294 863 1216 -128 2304 -128 
C 2451 -128 2656 -109 2899 -26 
C 3008 -813 3078 -1280 3629 -1280 
C 4307 -1280 4339 -277 4339 -96 
C 4339 -32 4339 12 4294 12 
C 4262 12 4256 -32 4256 -45 
C 4211 -665 3866 -794 3661 -794 
C 3283 -794 3149 -452 3027 31 
z
M 1958 38 
C 1293 247 768 954 768 2157 
C 768 3698 1606 4364 2298 4364 
C 3014 4364 3834 3672 3834 2157 
C 3834 1064 3405 463 2976 190 
C 2880 514 2726 896 2310 896 
C 2003 896 1830 628 1830 387 
C 1830 241 1888 120 1958 38 
z
M 2874 133 
C 2618 -1 2413 -13 2304 -13 
C 2016 -13 1933 247 1933 387 
C 1933 584 2067 793 2310 793 
C 2720 793 2822 431 2874 133 
z
" transform="scale(0.015625)"/>
       <path id="CMR17-79" d="M 2496 2183 
C 2656 2579 2944 2585 3034 2585 
L 3034 2752 
C 2912 2745 2752 2739 2630 2739 
C 2496 2739 2285 2739 2157 2752 
L 2157 2585 
C 2400 2566 2406 2384 2406 2332 
C 2406 2268 2394 2235 2362 2158 
L 1664 409 
L 902 2300 
C 870 2378 870 2423 870 2430 
C 870 2572 1018 2585 1171 2585 
L 1171 2752 
C 1018 2739 742 2739 582 2739 
C 410 2739 205 2739 64 2752 
L 64 2585 
C 410 2585 448 2553 531 2345 
L 1485 -31 
C 1197 -795 1030 -1242 627 -1242 
C 557 -1242 397 -1223 282 -1106 
C 429 -1093 493 -1002 493 -892 
C 493 -782 416 -685 288 -685 
C 147 -685 77 -782 77 -899 
C 77 -1158 339 -1344 627 -1344 
C 998 -1344 1229 -983 1357 -659 
L 2496 2183 
z
" transform="scale(0.015625)"/>
       <path id="CMR17-75" d="M 1882 2745 
L 1882 2579 
C 2259 2579 2317 2540 2317 2229 
L 2317 1053 
C 2317 510 2029 38 1555 38 
C 1030 38 986 355 986 691 
L 986 2816 
L 211 2745 
L 211 2579 
C 467 2579 640 2579 646 2320 
L 646 1079 
C 646 646 646 368 813 187 
C 896 103 1056 -64 1517 -64 
C 2061 -64 2272 400 2323 536 
L 2330 536 
L 2330 -64 
L 3091 -13 
L 3091 154 
C 2714 154 2656 193 2656 503 
L 2656 2816 
L 1882 2745 
z
" transform="scale(0.015625)"/>
       <path id="CMR17-63" d="M 2234 2240 
C 2112 2240 1933 2240 1933 2015 
C 1933 1836 2080 1785 2163 1785 
C 2208 1785 2394 1804 2394 2028 
C 2394 2476 1958 2816 1466 2816 
C 787 2816 211 2201 211 1379 
C 211 521 813 -64 1466 -64 
C 2259 -64 2458 676 2458 747 
C 2458 773 2451 792 2406 792 
C 2362 792 2355 786 2330 702 
C 2163 180 1798 51 1523 51 
C 1114 51 621 431 621 1385 
C 621 2358 1094 2700 1472 2700 
C 1722 2700 2093 2582 2234 2240 
z
" transform="scale(0.015625)"/>
       <path id="CMR17-65" d="M 2438 1503 
C 2464 1529 2464 1542 2464 1606 
C 2464 2251 2118 2816 1389 2816 
C 710 2816 173 2175 173 1394 
C 173 554 781 -64 1459 -64 
C 2176 -64 2458 619 2458 755 
C 2458 800 2419 800 2406 800 
C 2362 800 2355 787 2330 709 
C 2189 270 1837 51 1504 51 
C 1229 51 954 206 781 490 
C 582 819 582 1200 582 1503 
L 2438 1503 
z
M 589 1600 
C 634 2511 1126 2713 1382 2713 
C 1818 2713 2112 2308 2118 1600 
L 589 1600 
z
" transform="scale(0.015625)"/>
       <path id="CMR17-72" d="M 960 1517 
C 960 2134 1222 2713 1702 2713 
C 1747 2713 1792 2707 1837 2687 
C 1837 2687 1696 2642 1696 2475 
C 1696 2321 1818 2257 1914 2257 
C 1990 2257 2131 2302 2131 2482 
C 2131 2687 1926 2816 1709 2816 
C 1222 2816 1011 2340 947 2115 
L 941 2115 
L 941 2816 
L 198 2745 
L 198 2578 
C 576 2578 634 2540 634 2231 
L 634 443 
C 634 198 608 166 198 166 
L 198 0 
C 352 12 646 12 813 12 
C 998 12 1325 12 1498 0 
L 1498 166 
C 1037 166 960 166 960 455 
L 960 1517 
z
" transform="scale(0.015625)"/>
       <path id="CMR17-74" d="M 966 2585 
L 1862 2585 
L 1862 2752 
L 966 2752 
L 966 3968 
L 851 3968 
C 838 3292 614 2700 70 2687 
L 70 2585 
L 627 2585 
L 627 778 
C 627 655 627 -64 1370 -64 
C 1747 -64 1965 308 1965 784 
L 1965 1151 
L 1850 1151 
L 1850 790 
C 1850 347 1677 51 1408 51 
C 1222 51 966 179 966 765 
L 966 2585 
z
" transform="scale(0.015625)"/>
       <path id="CMR17-61" d="M 2304 1656 
C 2304 2048 2304 2275 2035 2534 
C 1798 2751 1523 2816 1306 2816 
C 800 2816 435 2408 435 1977 
C 435 1740 627 1728 666 1728 
C 749 1728 896 1779 896 1958 
C 896 2118 774 2188 666 2188 
C 640 2188 608 2182 589 2176 
C 723 2594 1069 2713 1293 2713 
C 1613 2713 1965 2421 1965 1875 
L 1965 1632 
C 1587 1619 1133 1568 774 1373 
C 371 1147 256 822 256 576 
C 256 77 832 -64 1171 -64 
C 1523 -64 1850 135 1990 505 
C 2003 219 2182 -39 2464 -39 
C 2598 -39 2938 51 2938 563 
L 2938 926 
L 2822 926 
L 2822 557 
C 2822 161 2650 109 2566 109 
C 2304 109 2304 446 2304 732 
L 2304 1656 
z
M 1965 887 
C 1965 323 1568 38 1216 38 
C 896 38 646 278 646 576 
C 646 771 730 1114 1101 1322 
C 1408 1497 1760 1523 1965 1536 
L 1965 887 
z
" transform="scale(0.015625)"/>
      </defs>
      <use xlink:href="#CMR17-43" transform="scale(0.996264)"/>
      <use xlink:href="#CMR17-45" transform="translate(66.509881 0)scale(0.996264)"/>
      <use xlink:href="#CMMI12-17" transform="translate(129.096181 0)scale(0.996264)"/>
      <use xlink:href="#CMR17-4e" transform="translate(183.578974 0)scale(0.996264)"/>
      <use xlink:href="#CMR17-53" transform="translate(252.651404 0)scale(0.996264)"/>
      <use xlink:href="#CMMI12-3b" transform="translate(303.546773 0)scale(0.996264)"/>
      <use xlink:href="#CMR17-77" transform="translate(347.248356 0)scale(0.996264)"/>
      <use xlink:href="#CMMI12-3d" transform="translate(415.059402 0)scale(0.996264)"/>
      <use xlink:href="#CMR17-6f" transform="translate(463.834321 0)scale(0.996264)"/>
      <use xlink:href="#CMR17-51" transform="translate(540.753911 0)scale(0.996264)"/>
      <use xlink:href="#CMR17-79" transform="translate(612.4687 -14.943915)scale(0.697382)"/>
      <use xlink:href="#CMR17-75" transform="translate(678.911647 0)scale(0.996264)"/>
      <use xlink:href="#CMR17-6e" transform="translate(729.807016 0)scale(0.996264)"/>
      <use xlink:href="#CMR17-63" transform="translate(780.702386 0)scale(0.996264)"/>
      <use xlink:href="#CMR17-65" transform="translate(821.188047 0)scale(0.996264)"/>
      <use xlink:href="#CMR17-72" transform="translate(861.673707 0)scale(0.996264)"/>
      <use xlink:href="#CMR17-74" transform="translate(896.954475 0)scale(0.996264)"/>
      <use xlink:href="#CMR17-61" transform="translate(932.235243 0)scale(0.996264)"/>
      <use xlink:href="#CMR17-69" transform="translate(977.92572 0)scale(0.996264)"/>
      <use xlink:href="#CMR17-6e" transform="translate(1002.796778 0)scale(0.996264)"/>
      <use xlink:href="#CMR17-74" transform="translate(1051.089694 0)scale(0.996264)"/>
      <use xlink:href="#CMR17-79" transform="translate(1083.768008 0)scale(0.996264)"/>
     </g>
    </g>
    <g id="line2d_34">
     <path d="M 311.890855 129.947673 
L 341.890855 129.947673 
" style="fill: none; stroke-dasharray: 12.8,3.2,2,3.2; stroke-dashoffset: 0; stroke: #bfbf00; stroke-width: 2"/>
    </g>
    <g id="text_20">
     <!-- $\Delta\chi^2=1$ -->
     <g transform="translate(353.890855 135.197673)scale(0.15 -0.15)">
      <defs>
       <path id="CMR17-3d" d="M 4115 2048 
C 4211 2048 4307 2048 4307 2156 
C 4307 2272 4198 2272 4090 2272 
L 512 2272 
C 403 2272 294 2272 294 2156 
C 294 2048 390 2048 486 2048 
L 4115 2048 
z
M 4090 927 
C 4198 927 4307 927 4307 1043 
C 4307 1152 4211 1152 4115 1152 
L 486 1152 
C 390 1152 294 1152 294 1043 
C 294 927 403 927 512 927 
L 4090 927 
z
" transform="scale(0.015625)"/>
      </defs>
      <use xlink:href="#CMR17-1" transform="scale(0.996264)"/>
      <use xlink:href="#CMMI12-1f" transform="translate(76.91959 0)scale(0.996264)"/>
      <use xlink:href="#CMR17-32" transform="translate(138.032549 36.153639)scale(0.697382)"/>
      <use xlink:href="#CMR17-3d" transform="translate(198.187872 0)scale(0.996264)"/>
      <use xlink:href="#CMR17-31" transform="translate(297.576669 0)scale(0.996264)"/>
     </g>
    </g>
   </g>
  </g>
 </g>
 <defs>
  <clipPath id="p7e994927f9">
   <rect x="86.4" y="43.2" width="460.8" height="324"/>
  </clipPath>
 </defs>
</svg>
