<?xml version="1.0" encoding="utf-8" standalone="no"?>
<!DOCTYPE svg PUBLIC "-//W3C//DTD SVG 1.1//EN"
  "http://www.w3.org/Graphics/SVG/1.1/DTD/svg11.dtd">
<svg xmlns:xlink="http://www.w3.org/1999/xlink" width="576pt" height="432pt" viewBox="0 0 576 432" xmlns="http://www.w3.org/2000/svg" version="1.1">
 <metadata>
  <rdf:RDF xmlns:dc="http://purl.org/dc/elements/1.1/" xmlns:cc="http://creativecommons.org/ns#" xmlns:rdf="http://www.w3.org/1999/02/22-rdf-syntax-ns#">
   <cc:Work>
    <dc:type rdf:resource="http://purl.org/dc/dcmitype/StillImage"/>
    <dc:date>2022-05-27T04:49:14.391427</dc:date>
    <dc:format>image/svg+xml</dc:format>
    <dc:creator>
     <cc:Agent>
      <dc:title>Matplotlib v3.5.1, https://matplotlib.org/</dc:title>
     </cc:Agent>
    </dc:creator>
   </cc:Work>
  </rdf:RDF>
 </metadata>
 <defs>
  <style type="text/css">*{stroke-linejoin: round; stroke-linecap: butt}</style>
 </defs>
 <g id="figure_1">
  <g id="patch_1">
   <path d="M 0 432 
L 576 432 
L 576 0 
L 0 0 
L 0 432 
z
" style="fill: none"/>
  </g>
  <g id="axes_1">
   <g id="patch_2">
    <path d="M 86.4 367.2 
L 547.2 367.2 
L 547.2 43.2 
L 86.4 43.2 
L 86.4 367.2 
z
" style="fill: none"/>
   </g>
   <g id="PolyCollection_1">
    <path d="M 87.552 155.416089 
L 87.552 57.927273 
L 89.856 64.583799 
L 92.16 71.02263 
L 94.464 77.25281 
L 96.768 83.2845 
L 99.072 89.128662 
L 101.376 94.796747 
L 103.68 100.300416 
L 105.984 105.651277 
L 108.288 110.860654 
L 110.592 115.939391 
L 112.896 120.897686 
L 115.2 125.744961 
L 117.504 130.489762 
L 119.808 135.139697 
L 122.112 139.701402 
L 124.416 144.180531 
L 126.72 148.581776 
L 129.024 152.908909 
L 131.328 157.164837 
L 133.632 161.351677 
L 135.936 165.470838 
L 138.24 169.523117 
L 140.544 173.508789 
L 142.848 177.427713 
L 145.152 181.279422 
L 147.456 185.063218 
L 149.76 188.778264 
L 152.064 192.423657 
L 154.368 195.998509 
L 156.672 199.502002 
L 158.976 202.933446 
L 161.28 206.292321 
L 163.584 209.578309 
L 165.888 212.791316 
L 168.192 215.931489 
L 170.496 218.999219 
L 172.8 221.995138 
L 175.104 224.920113 
L 177.408 227.775227 
L 179.712 230.561761 
L 182.016 233.281173 
L 184.32 235.935067 
L 186.624 238.525172 
L 188.928 241.053309 
L 191.232 243.521362 
L 193.536 245.931257 
L 195.84 248.284929 
L 198.144 250.584302 
L 200.448 252.831268 
L 202.752 255.027666 
L 205.056 257.175268 
L 207.36 259.275765 
L 209.664 261.330756 
L 211.968 263.341746 
L 214.272 265.310135 
L 216.576 267.237221 
L 218.88 269.1242 
L 221.184 270.972166 
L 223.488 272.782121 
L 225.792 274.554976 
L 228.096 276.29156 
L 230.4 277.992629 
L 232.704 279.658875 
L 235.008 281.29093 
L 237.312 282.889383 
L 239.616 284.454782 
L 241.92 285.987645 
L 244.224 287.48847 
L 246.528 288.957735 
L 248.832 290.395914 
L 251.136 291.803473 
L 253.44 293.180884 
L 255.744 294.528618 
L 258.048 295.847159 
L 260.352 297.136996 
L 262.656 298.39863 
L 264.96 299.632576 
L 267.264 300.839354 
L 269.568 302.019499 
L 271.872 303.173552 
L 274.176 304.302062 
L 276.48 305.405582 
L 278.784 306.48467 
L 281.088 307.539881 
L 283.392 308.571773 
L 285.696 309.580897 
L 288 310.567799 
L 290.304 311.533016 
L 292.608 312.477077 
L 294.912 313.400497 
L 297.216 314.303781 
L 299.52 315.187418 
L 301.824 316.051882 
L 304.128 316.897634 
L 306.432 317.725116 
L 308.736 318.534757 
L 311.04 319.326968 
L 313.344 320.102146 
L 315.648 320.860672 
L 317.952 321.602914 
L 320.256 322.329225 
L 322.56 323.039945 
L 324.864 323.735404 
L 327.168 324.415918 
L 329.472 325.081796 
L 331.776 325.733336 
L 334.08 326.370826 
L 336.384 326.994551 
L 338.688 327.604784 
L 340.992 328.201796 
L 343.296 328.785852 
L 345.6 329.357209 
L 347.904 329.916124 
L 350.208 330.462847 
L 352.512 330.997626 
L 354.816 331.520704 
L 357.12 332.032322 
L 359.424 332.532718 
L 361.728 333.022125 
L 364.032 333.500776 
L 366.336 333.968898 
L 368.64 334.426716 
L 370.944 334.874452 
L 373.248 335.312323 
L 375.552 335.740545 
L 377.856 336.159328 
L 380.16 336.568878 
L 382.464 336.9694 
L 384.768 337.361092 
L 387.072 337.744149 
L 389.376 338.118761 
L 391.68 338.485115 
L 393.984 338.843393 
L 396.288 339.193773 
L 398.592 339.536429 
L 400.896 339.87153 
L 403.2 340.19924 
L 405.504 340.519723 
L 407.808 340.833133 
L 410.112 341.139626 
L 412.416 341.439349 
L 414.72 341.73245 
L 417.024 342.01907 
L 419.328 342.299348 
L 421.632 342.573421 
L 423.936 342.841419 
L 426.24 343.103474 
L 428.544 343.359711 
L 430.848 343.610254 
L 433.152 343.855224 
L 435.456 344.094741 
L 437.76 344.328919 
L 440.064 344.557874 
L 442.368 344.781715 
L 444.672 345.000554 
L 446.976 345.214496 
L 449.28 345.423647 
L 451.584 345.62811 
L 453.888 345.827985 
L 456.192 346.023373 
L 458.496 346.214369 
L 460.8 346.401069 
L 463.104 346.583566 
L 465.408 346.761953 
L 467.712 346.936318 
L 470.016 347.106749 
L 472.32 347.273332 
L 474.624 347.436152 
L 476.928 347.595291 
L 479.232 347.75083 
L 481.536 347.902848 
L 483.84 348.051423 
L 486.144 348.196629 
L 488.448 348.338542 
L 490.752 348.477234 
L 493.056 348.612775 
L 495.36 348.745235 
L 497.664 348.874681 
L 499.968 349.001181 
L 502.272 349.124799 
L 504.576 349.245598 
L 506.88 349.363641 
L 509.184 349.478988 
L 511.488 349.591698 
L 513.792 349.70183 
L 516.096 349.80944 
L 518.4 349.914584 
L 520.704 350.017316 
L 523.008 350.11769 
L 525.312 350.215757 
L 527.616 350.311568 
L 529.92 350.405173 
L 532.224 350.496621 
L 534.528 350.58596 
L 536.832 350.673236 
L 539.136 350.758495 
L 541.44 350.841782 
L 543.744 350.92314 
L 546.048 351.002613 
L 546.048 352.472727 
L 546.048 352.472727 
L 543.744 352.427405 
L 541.44 352.380957 
L 539.136 352.333354 
L 536.832 352.28457 
L 534.528 352.234577 
L 532.224 352.183346 
L 529.92 352.130847 
L 527.616 352.077052 
L 525.312 352.021929 
L 523.008 351.965446 
L 520.704 351.907573 
L 518.4 351.848275 
L 516.096 351.78752 
L 513.792 351.725273 
L 511.488 351.661499 
L 509.184 351.596163 
L 506.88 351.529227 
L 504.576 351.460654 
L 502.272 351.390405 
L 499.968 351.318442 
L 497.664 351.244723 
L 495.36 351.169208 
L 493.056 351.091855 
L 490.752 351.01262 
L 488.448 350.931459 
L 486.144 350.848328 
L 483.84 350.763179 
L 481.536 350.675966 
L 479.232 350.586641 
L 476.928 350.495153 
L 474.624 350.401452 
L 472.32 350.305487 
L 470.016 350.207205 
L 467.712 350.106552 
L 465.408 350.003473 
L 463.104 349.897911 
L 460.8 349.789809 
L 458.496 349.679108 
L 456.192 349.565748 
L 453.888 349.449668 
L 451.584 349.330806 
L 449.28 349.209098 
L 446.976 349.084478 
L 444.672 348.95688 
L 442.368 348.826236 
L 440.064 348.692478 
L 437.76 348.555534 
L 435.456 348.415332 
L 433.152 348.271799 
L 430.848 348.124859 
L 428.544 347.974435 
L 426.24 347.820448 
L 423.936 347.662819 
L 421.632 347.501464 
L 419.328 347.336299 
L 417.024 347.167238 
L 414.72 346.994193 
L 412.416 346.817072 
L 410.112 346.635783 
L 407.808 346.450231 
L 405.504 346.260317 
L 403.2 346.065942 
L 400.896 345.867002 
L 398.592 345.663391 
L 396.288 345.455003 
L 393.984 345.241725 
L 391.68 345.023444 
L 389.376 344.800042 
L 387.072 344.571402 
L 384.768 344.337398 
L 382.464 344.097908 
L 380.16 343.852802 
L 377.856 343.60195 
L 375.552 343.345218 
L 373.248 343.08247 
L 370.944 342.813566 
L 368.64 342.538366 
L 366.336 342.256726 
L 364.032 341.968498 
L 361.728 341.673535 
L 359.424 341.371685 
L 357.12 341.062796 
L 354.816 340.74671 
L 352.512 340.423271 
L 350.208 340.092319 
L 347.904 339.75369 
L 345.6 339.407219 
L 343.296 339.052739 
L 340.992 338.690078 
L 338.688 338.319062 
L 336.384 337.939513 
L 334.08 337.55125 
L 331.776 337.154086 
L 329.472 336.747832 
L 327.168 336.332289 
L 324.864 335.907256 
L 322.56 335.472525 
L 320.256 335.027879 
L 317.952 334.573096 
L 315.648 334.107943 
L 313.344 333.63218 
L 311.04 333.145557 
L 308.736 332.647815 
L 306.432 332.138684 
L 304.128 331.617883 
L 301.824 331.085122 
L 299.52 330.540099 
L 297.216 329.982503 
L 294.912 329.41201 
L 292.608 328.828287 
L 290.304 328.230993 
L 288 327.619777 
L 285.696 326.994279 
L 283.392 326.354134 
L 281.088 325.698971 
L 278.784 325.028413 
L 276.48 324.342081 
L 274.176 323.639594 
L 271.872 322.920569 
L 269.568 322.184626 
L 267.264 321.431386 
L 264.96 320.660473 
L 262.656 319.871515 
L 260.352 319.064145 
L 258.048 318.238002 
L 255.744 317.392729 
L 253.44 316.527972 
L 251.136 315.643383 
L 248.832 314.738614 
L 246.528 313.81332 
L 244.224 312.867149 
L 241.92 311.899747 
L 239.616 310.910749 
L 237.312 309.899776 
L 235.008 308.86643 
L 232.704 307.810291 
L 230.4 306.730908 
L 228.096 305.627796 
L 225.792 304.500429 
L 223.488 303.348235 
L 221.184 302.170587 
L 218.88 300.966804 
L 216.576 299.736143 
L 214.272 298.477793 
L 211.968 297.190876 
L 209.664 295.874446 
L 207.36 294.527484 
L 205.056 293.148904 
L 202.752 291.737554 
L 200.448 290.292222 
L 198.144 288.811641 
L 195.84 287.294499 
L 193.536 285.739451 
L 191.232 284.14513 
L 188.928 282.510158 
L 186.624 280.833168 
L 184.32 279.112817 
L 182.016 277.347803 
L 179.712 275.536884 
L 177.408 273.678897 
L 175.104 271.772772 
L 172.8 269.817552 
L 170.496 267.812404 
L 168.192 265.75663 
L 165.888 263.649676 
L 163.584 261.491138 
L 161.28 259.280756 
L 158.976 257.018412 
L 156.672 254.704118 
L 154.368 252.337995 
L 152.064 249.920249 
L 149.76 247.451143 
L 147.456 244.930952 
L 145.152 242.359925 
L 142.848 239.738229 
L 140.544 237.065895 
L 138.24 234.342756 
L 135.936 231.568384 
L 133.632 228.742024 
L 131.328 225.862527 
L 129.024 222.928286 
L 126.72 219.937176 
L 124.416 216.886496 
L 122.112 213.772929 
L 119.808 210.592501 
L 117.504 207.34056 
L 115.2 204.01177 
L 112.896 200.600126 
L 110.592 197.098976 
L 108.288 193.501081 
L 105.984 189.798687 
L 103.68 185.983626 
L 101.376 182.04743 
L 99.072 177.981488 
L 96.768 173.777199 
L 94.464 169.426171 
L 92.16 164.920414 
L 89.856 160.25256 
L 87.552 155.416089 
z
" clip-path="url(#p24c5ff2187)" style="fill: #1f77b4; fill-opacity: 0.5"/>
   </g>
   <g id="matplotlib.axis_1">
    <g id="xtick_1">
     <g id="line2d_1">
      <path d="M 86.4 367.2 
L 86.4 43.2 
" clip-path="url(#p24c5ff2187)" style="fill: none; stroke: #b0b0b0; stroke-width: 0.8; stroke-linecap: square"/>
     </g>
     <g id="line2d_2">
      <defs>
       <path id="ma6d28dd034" d="M 0 0 
L 0 3.5 
" style="stroke: #000000; stroke-width: 0.8"/>
      </defs>
      <g>
       <use xlink:href="#ma6d28dd034" x="86.4" y="367.2" style="stroke: #000000; stroke-width: 0.8"/>
      </g>
     </g>
     <g id="text_1">
      <!-- $\mathdefault{80}$ -->
      <g transform="translate(77.261905 388.036997)scale(0.2 -0.2)">
       <defs>
        <path id="CMR17-38" d="M 1741 2289 
C 2144 2494 2554 2803 2554 3298 
C 2554 3884 1990 4224 1472 4224 
C 890 4224 378 3800 378 3215 
C 378 3054 416 2777 666 2533 
C 730 2469 998 2276 1171 2154 
C 883 2006 211 1652 211 945 
C 211 282 838 -128 1459 -128 
C 2144 -128 2720 366 2720 1022 
C 2720 1607 2330 1877 2074 2051 
L 1741 2289 
z
M 902 2855 
C 851 2887 595 3086 595 3388 
C 595 3781 998 4076 1459 4076 
C 1965 4076 2336 3716 2336 3298 
C 2336 2700 1670 2359 1638 2359 
C 1632 2359 1626 2359 1574 2398 
L 902 2855 
z
M 2080 1536 
C 2176 1466 2483 1253 2483 861 
C 2483 385 2010 25 1472 25 
C 890 25 448 443 448 951 
C 448 1459 838 1884 1280 2083 
L 2080 1536 
z
" transform="scale(0.015625)"/>
        <path id="CMR17-30" d="M 2688 2038 
C 2688 2430 2682 3099 2413 3613 
C 2176 4063 1798 4224 1466 4224 
C 1158 4224 768 4082 525 3620 
C 269 3137 243 2539 243 2038 
C 243 1671 250 1112 448 623 
C 723 -39 1216 -128 1466 -128 
C 1760 -128 2208 -7 2470 604 
C 2662 1048 2688 1568 2688 2038 
z
M 1466 -26 
C 1056 -26 813 328 723 816 
C 653 1196 653 1749 653 2109 
C 653 2604 653 3015 736 3407 
C 858 3954 1216 4121 1466 4121 
C 1728 4121 2067 3947 2189 3420 
C 2272 3054 2278 2623 2278 2109 
C 2278 1691 2278 1176 2202 797 
C 2067 96 1690 -26 1466 -26 
z
" transform="scale(0.015625)"/>
       </defs>
       <use xlink:href="#CMR17-38" transform="scale(0.996264)"/>
       <use xlink:href="#CMR17-30" transform="translate(45.690477 0)scale(0.996264)"/>
      </g>
     </g>
    </g>
    <g id="xtick_2">
     <g id="line2d_3">
      <path d="M 163.2 367.2 
L 163.2 43.2 
" clip-path="url(#p24c5ff2187)" style="fill: none; stroke: #b0b0b0; stroke-width: 0.8; stroke-linecap: square"/>
     </g>
     <g id="line2d_4">
      <g>
       <use xlink:href="#ma6d28dd034" x="163.2" y="367.2" style="stroke: #000000; stroke-width: 0.8"/>
      </g>
     </g>
     <g id="text_2">
      <!-- $\mathdefault{100}$ -->
      <g transform="translate(149.492857 388.036997)scale(0.2 -0.2)">
       <defs>
        <path id="CMR17-31" d="M 1702 4083 
C 1702 4217 1696 4224 1606 4224 
C 1357 3927 979 3833 621 3820 
C 602 3820 570 3820 563 3808 
C 557 3795 557 3782 557 3648 
C 755 3648 1088 3686 1344 3839 
L 1344 467 
C 1344 243 1331 166 781 166 
L 589 166 
L 589 0 
C 896 6 1216 12 1523 12 
C 1830 12 2150 6 2458 0 
L 2458 166 
L 2266 166 
C 1715 166 1702 236 1702 467 
L 1702 4083 
z
" transform="scale(0.015625)"/>
       </defs>
       <use xlink:href="#CMR17-31" transform="scale(0.996264)"/>
       <use xlink:href="#CMR17-30" transform="translate(45.690477 0)scale(0.996264)"/>
       <use xlink:href="#CMR17-30" transform="translate(91.380954 0)scale(0.996264)"/>
      </g>
     </g>
    </g>
    <g id="xtick_3">
     <g id="line2d_5">
      <path d="M 240 367.2 
L 240 43.2 
" clip-path="url(#p24c5ff2187)" style="fill: none; stroke: #b0b0b0; stroke-width: 0.8; stroke-linecap: square"/>
     </g>
     <g id="line2d_6">
      <g>
       <use xlink:href="#ma6d28dd034" x="240" y="367.2" style="stroke: #000000; stroke-width: 0.8"/>
      </g>
     </g>
     <g id="text_3">
      <!-- $\mathdefault{120}$ -->
      <g transform="translate(226.292857 388.036997)scale(0.2 -0.2)">
       <defs>
        <path id="CMR17-32" d="M 2669 990 
L 2554 990 
C 2490 537 2438 460 2413 422 
C 2381 371 1920 371 1830 371 
L 602 371 
C 832 620 1280 1073 1824 1596 
C 2214 1966 2669 2400 2669 3033 
C 2669 3788 2067 4224 1395 4224 
C 691 4224 262 3603 262 3027 
C 262 2777 448 2745 525 2745 
C 589 2745 781 2783 781 3007 
C 781 3206 614 3264 525 3264 
C 486 3264 448 3257 422 3244 
C 544 3788 915 4057 1306 4057 
C 1862 4057 2227 3616 2227 3033 
C 2227 2477 1901 1998 1536 1583 
L 262 147 
L 262 0 
L 2515 0 
L 2669 990 
z
" transform="scale(0.015625)"/>
       </defs>
       <use xlink:href="#CMR17-31" transform="scale(0.996264)"/>
       <use xlink:href="#CMR17-32" transform="translate(45.690477 0)scale(0.996264)"/>
       <use xlink:href="#CMR17-30" transform="translate(91.380954 0)scale(0.996264)"/>
      </g>
     </g>
    </g>
    <g id="xtick_4">
     <g id="line2d_7">
      <path d="M 316.8 367.2 
L 316.8 43.2 
" clip-path="url(#p24c5ff2187)" style="fill: none; stroke: #b0b0b0; stroke-width: 0.8; stroke-linecap: square"/>
     </g>
     <g id="line2d_8">
      <g>
       <use xlink:href="#ma6d28dd034" x="316.8" y="367.2" style="stroke: #000000; stroke-width: 0.8"/>
      </g>
     </g>
     <g id="text_4">
      <!-- $\mathdefault{140}$ -->
      <g transform="translate(303.092857 388.036997)scale(0.2 -0.2)">
       <defs>
        <path id="CMR17-34" d="M 2150 4147 
C 2150 4281 2144 4288 2029 4288 
L 128 1254 
L 128 1088 
L 1779 1088 
L 1779 460 
C 1779 230 1766 166 1318 166 
L 1197 166 
L 1197 0 
C 1402 12 1747 12 1965 12 
C 2182 12 2528 12 2733 0 
L 2733 166 
L 2611 166 
C 2163 166 2150 230 2150 460 
L 2150 1088 
L 2803 1088 
L 2803 1254 
L 2150 1254 
L 2150 4147 
z
M 1798 3723 
L 1798 1254 
L 256 1254 
L 1798 3723 
z
" transform="scale(0.015625)"/>
       </defs>
       <use xlink:href="#CMR17-31" transform="scale(0.996264)"/>
       <use xlink:href="#CMR17-34" transform="translate(45.690477 0)scale(0.996264)"/>
       <use xlink:href="#CMR17-30" transform="translate(91.380954 0)scale(0.996264)"/>
      </g>
     </g>
    </g>
    <g id="xtick_5">
     <g id="line2d_9">
      <path d="M 393.6 367.2 
L 393.6 43.2 
" clip-path="url(#p24c5ff2187)" style="fill: none; stroke: #b0b0b0; stroke-width: 0.8; stroke-linecap: square"/>
     </g>
     <g id="line2d_10">
      <g>
       <use xlink:href="#ma6d28dd034" x="393.6" y="367.2" style="stroke: #000000; stroke-width: 0.8"/>
      </g>
     </g>
     <g id="text_5">
      <!-- $\mathdefault{160}$ -->
      <g transform="translate(379.892857 388.036997)scale(0.2 -0.2)">
       <defs>
        <path id="CMR17-36" d="M 678 2198 
C 678 3712 1395 4076 1811 4076 
C 1946 4076 2272 4049 2400 3782 
C 2298 3782 2106 3782 2106 3558 
C 2106 3385 2246 3328 2336 3328 
C 2394 3328 2566 3353 2566 3571 
C 2566 3987 2246 4224 1805 4224 
C 1043 4224 243 3411 243 2011 
C 243 257 966 -128 1478 -128 
C 2099 -128 2688 431 2688 1295 
C 2688 2101 2170 2688 1517 2688 
C 1126 2688 838 2430 678 1979 
L 678 2198 
z
M 1478 25 
C 691 25 691 1212 691 1450 
C 691 1914 909 2585 1504 2585 
C 1613 2585 1926 2585 2138 2140 
C 2253 1889 2253 1624 2253 1302 
C 2253 954 2253 696 2118 438 
C 1978 173 1773 25 1478 25 
z
" transform="scale(0.015625)"/>
       </defs>
       <use xlink:href="#CMR17-31" transform="scale(0.996264)"/>
       <use xlink:href="#CMR17-36" transform="translate(45.690477 0)scale(0.996264)"/>
       <use xlink:href="#CMR17-30" transform="translate(91.380954 0)scale(0.996264)"/>
      </g>
     </g>
    </g>
    <g id="xtick_6">
     <g id="line2d_11">
      <path d="M 470.4 367.2 
L 470.4 43.2 
" clip-path="url(#p24c5ff2187)" style="fill: none; stroke: #b0b0b0; stroke-width: 0.8; stroke-linecap: square"/>
     </g>
     <g id="line2d_12">
      <g>
       <use xlink:href="#ma6d28dd034" x="470.4" y="367.2" style="stroke: #000000; stroke-width: 0.8"/>
      </g>
     </g>
     <g id="text_6">
      <!-- $\mathdefault{180}$ -->
      <g transform="translate(456.692857 388.036997)scale(0.2 -0.2)">
       <use xlink:href="#CMR17-31" transform="scale(0.996264)"/>
       <use xlink:href="#CMR17-38" transform="translate(45.690477 0)scale(0.996264)"/>
       <use xlink:href="#CMR17-30" transform="translate(91.380954 0)scale(0.996264)"/>
      </g>
     </g>
    </g>
    <g id="xtick_7">
     <g id="line2d_13">
      <path d="M 547.2 367.2 
L 547.2 43.2 
" clip-path="url(#p24c5ff2187)" style="fill: none; stroke: #b0b0b0; stroke-width: 0.8; stroke-linecap: square"/>
     </g>
     <g id="line2d_14">
      <g>
       <use xlink:href="#ma6d28dd034" x="547.2" y="367.2" style="stroke: #000000; stroke-width: 0.8"/>
      </g>
     </g>
     <g id="text_7">
      <!-- $\mathdefault{200}$ -->
      <g transform="translate(533.492857 388.036997)scale(0.2 -0.2)">
       <use xlink:href="#CMR17-32" transform="scale(0.996264)"/>
       <use xlink:href="#CMR17-30" transform="translate(45.690477 0)scale(0.996264)"/>
       <use xlink:href="#CMR17-30" transform="translate(91.380954 0)scale(0.996264)"/>
      </g>
     </g>
    </g>
    <g id="text_8">
     <!-- $\mathrm{S2}\ [\si{PE}]$ -->
     <g transform="translate(287.481546 410.838652)scale(0.2 -0.2)">
      <defs>
       <path id="CMR17-53" d="M 2803 4351 
C 2803 4467 2797 4473 2758 4473 
C 2720 4473 2707 4447 2682 4390 
L 2490 3965 
C 2246 4320 1875 4480 1472 4480 
C 819 4480 294 3958 294 3301 
C 294 3101 339 2817 557 2546 
C 794 2250 1018 2198 1530 2063 
C 1722 2011 2042 1927 2106 1901 
C 2470 1747 2662 1360 2662 999 
C 2662 534 2336 38 1779 38 
C 1094 38 454 425 410 1328 
C 403 1431 397 1437 352 1437 
C 301 1437 294 1431 294 1302 
L 294 0 
C 294 -116 301 -122 339 -122 
C 384 -122 397 -90 486 109 
C 493 128 493 141 614 386 
C 934 -39 1472 -128 1779 -128 
C 2477 -128 2970 457 2970 1141 
C 2970 1476 2848 1734 2778 1850 
C 2509 2263 2221 2340 1914 2417 
C 1869 2437 1856 2437 1498 2527 
C 1152 2617 1005 2662 845 2836 
C 666 3036 602 3243 602 3449 
C 602 3868 934 4326 1478 4326 
C 2157 4326 2579 3842 2675 3036 
C 2694 2920 2701 2914 2746 2914 
C 2803 2914 2803 2933 2803 3043 
L 2803 4351 
z
" transform="scale(0.015625)"/>
       <path id="CMR17-5b" d="M 1504 -1600 
L 1504 -1376 
L 902 -1376 
L 902 4575 
L 1504 4575 
L 1504 4800 
L 678 4800 
L 678 -1600 
L 1504 -1600 
z
" transform="scale(0.015625)"/>
       <path id="CMSS17-50" d="M 2106 1856 
C 2874 1856 3501 2447 3501 3139 
C 3501 3818 2899 4416 2067 4416 
L 570 4416 
L 570 0 
L 1107 0 
L 1107 1856 
L 2106 1856 
z
M 1926 4057 
C 2669 4057 2995 3598 2995 3139 
C 2995 2711 2694 2227 1926 2227 
L 1094 2227 
L 1094 4057 
L 1926 4057 
z
" transform="scale(0.015625)"/>
       <path id="CMSS17-45" d="M 1958 435 
C 1446 435 1216 435 1101 428 
L 1101 2105 
L 3085 2105 
L 3085 2496 
L 1101 2496 
L 1101 3993 
L 1926 3993 
C 2003 3993 2080 3987 2157 3987 
L 3251 3987 
L 3251 4403 
L 563 4403 
L 563 0 
L 3334 0 
L 3334 441 
L 1958 435 
z
" transform="scale(0.015625)"/>
       <path id="CMR17-5d" d="M 915 4800 
L 90 4800 
L 90 4575 
L 691 4575 
L 691 -1376 
L 90 -1376 
L 90 -1600 
L 915 -1600 
L 915 4800 
z
" transform="scale(0.015625)"/>
      </defs>
      <use xlink:href="#CMR17-53" transform="scale(0.996264)"/>
      <use xlink:href="#CMR17-32" transform="translate(50.89537 0)scale(0.996264)"/>
      <use xlink:href="#CMR17-5b" transform="translate(127.81496 0)scale(0.996264)"/>
      <use xlink:href="#CMSS17-50" transform="translate(152.686018 0)scale(0.996264)"/>
      <use xlink:href="#CMSS17-45" transform="translate(212.421604 0)scale(0.996264)"/>
      <use xlink:href="#CMR17-5d" transform="translate(268.313618 0)scale(0.996264)"/>
     </g>
    </g>
   </g>
   <g id="matplotlib.axis_2">
    <g id="ytick_1">
     <g id="line2d_15">
      <path d="M 86.4 354.223688 
L 547.2 354.223688 
" clip-path="url(#p24c5ff2187)" style="fill: none; stroke: #b0b0b0; stroke-width: 0.8; stroke-linecap: square"/>
     </g>
     <g id="line2d_16">
      <defs>
       <path id="m108726a537" d="M 0 0 
L -3.5 0 
" style="stroke: #000000; stroke-width: 0.8"/>
      </defs>
      <g>
       <use xlink:href="#m108726a537" x="86.4" y="354.223688" style="stroke: #000000; stroke-width: 0.8"/>
      </g>
     </g>
     <g id="text_9">
      <!-- $\mathdefault{0}$ -->
      <g transform="translate(70.261905 361.142187)scale(0.2 -0.2)">
       <use xlink:href="#CMR17-30" transform="scale(0.996264)"/>
      </g>
     </g>
    </g>
    <g id="ytick_2">
     <g id="line2d_17">
      <path d="M 86.4 311.09232 
L 547.2 311.09232 
" clip-path="url(#p24c5ff2187)" style="fill: none; stroke: #b0b0b0; stroke-width: 0.8; stroke-linecap: square"/>
     </g>
     <g id="line2d_18">
      <g>
       <use xlink:href="#m108726a537" x="86.4" y="311.09232" style="stroke: #000000; stroke-width: 0.8"/>
      </g>
     </g>
     <g id="text_10">
      <!-- $\mathdefault{1}$ -->
      <g transform="translate(70.261905 318.010818)scale(0.2 -0.2)">
       <use xlink:href="#CMR17-31" transform="scale(0.996264)"/>
      </g>
     </g>
    </g>
    <g id="ytick_3">
     <g id="line2d_19">
      <path d="M 86.4 267.960952 
L 547.2 267.960952 
" clip-path="url(#p24c5ff2187)" style="fill: none; stroke: #b0b0b0; stroke-width: 0.8; stroke-linecap: square"/>
     </g>
     <g id="line2d_20">
      <g>
       <use xlink:href="#m108726a537" x="86.4" y="267.960952" style="stroke: #000000; stroke-width: 0.8"/>
      </g>
     </g>
     <g id="text_11">
      <!-- $\mathdefault{2}$ -->
      <g transform="translate(70.261905 274.87945)scale(0.2 -0.2)">
       <use xlink:href="#CMR17-32" transform="scale(0.996264)"/>
      </g>
     </g>
    </g>
    <g id="ytick_4">
     <g id="line2d_21">
      <path d="M 86.4 224.829583 
L 547.2 224.829583 
" clip-path="url(#p24c5ff2187)" style="fill: none; stroke: #b0b0b0; stroke-width: 0.8; stroke-linecap: square"/>
     </g>
     <g id="line2d_22">
      <g>
       <use xlink:href="#m108726a537" x="86.4" y="224.829583" style="stroke: #000000; stroke-width: 0.8"/>
      </g>
     </g>
     <g id="text_12">
      <!-- $\mathdefault{3}$ -->
      <g transform="translate(70.261905 231.748082)scale(0.2 -0.2)">
       <defs>
        <path id="CMR17-33" d="M 1414 2176 
C 1984 2176 2234 1673 2234 1094 
C 2234 322 1824 25 1453 25 
C 1114 25 563 193 390 691 
C 422 678 454 678 486 678 
C 640 678 755 780 755 947 
C 755 1132 614 1216 486 1216 
C 378 1216 211 1164 211 927 
C 211 335 787 -128 1466 -128 
C 2176 -128 2720 432 2720 1087 
C 2720 1718 2208 2176 1600 2246 
C 2086 2347 2554 2776 2554 3353 
C 2554 3856 2048 4224 1472 4224 
C 890 4224 378 3862 378 3347 
C 378 3123 544 3084 627 3084 
C 762 3084 877 3167 877 3334 
C 877 3500 762 3584 627 3584 
C 602 3584 570 3584 544 3571 
C 730 3999 1235 4076 1459 4076 
C 1683 4076 2106 3966 2106 3347 
C 2106 3167 2080 2851 1862 2574 
C 1670 2329 1453 2316 1242 2297 
C 1210 2297 1062 2284 1037 2284 
C 992 2278 966 2272 966 2227 
C 966 2182 973 2176 1101 2176 
L 1414 2176 
z
" transform="scale(0.015625)"/>
       </defs>
       <use xlink:href="#CMR17-33" transform="scale(0.996264)"/>
      </g>
     </g>
    </g>
    <g id="ytick_5">
     <g id="line2d_23">
      <path d="M 86.4 181.698215 
L 547.2 181.698215 
" clip-path="url(#p24c5ff2187)" style="fill: none; stroke: #b0b0b0; stroke-width: 0.8; stroke-linecap: square"/>
     </g>
     <g id="line2d_24">
      <g>
       <use xlink:href="#m108726a537" x="86.4" y="181.698215" style="stroke: #000000; stroke-width: 0.8"/>
      </g>
     </g>
     <g id="text_13">
      <!-- $\mathdefault{4}$ -->
      <g transform="translate(70.261905 188.616713)scale(0.2 -0.2)">
       <use xlink:href="#CMR17-34" transform="scale(0.996264)"/>
      </g>
     </g>
    </g>
    <g id="ytick_6">
     <g id="line2d_25">
      <path d="M 86.4 138.566847 
L 547.2 138.566847 
" clip-path="url(#p24c5ff2187)" style="fill: none; stroke: #b0b0b0; stroke-width: 0.8; stroke-linecap: square"/>
     </g>
     <g id="line2d_26">
      <g>
       <use xlink:href="#m108726a537" x="86.4" y="138.566847" style="stroke: #000000; stroke-width: 0.8"/>
      </g>
     </g>
     <g id="text_14">
      <!-- $\mathdefault{5}$ -->
      <g transform="translate(70.261905 145.485345)scale(0.2 -0.2)">
       <defs>
        <path id="CMR17-35" d="M 730 3750 
C 794 3724 1056 3641 1325 3641 
C 1920 3641 2246 3961 2432 4140 
C 2432 4191 2432 4224 2394 4224 
C 2387 4224 2374 4224 2323 4198 
C 2099 4102 1837 4032 1517 4032 
C 1325 4032 1037 4055 723 4191 
C 653 4224 640 4224 634 4224 
C 602 4224 595 4217 595 4090 
L 595 2231 
C 595 2113 595 2080 659 2080 
C 691 2080 704 2093 736 2139 
C 941 2435 1222 2560 1542 2560 
C 1766 2560 2246 2415 2246 1293 
C 2246 1087 2246 716 2054 422 
C 1894 159 1645 25 1370 25 
C 947 25 518 319 403 812 
C 429 806 480 793 506 793 
C 589 793 749 838 749 1036 
C 749 1209 627 1280 506 1280 
C 358 1280 262 1190 262 1011 
C 262 454 704 -128 1382 -128 
C 2042 -128 2669 441 2669 1267 
C 2669 2054 2170 2662 1549 2662 
C 1222 2662 947 2540 730 2304 
L 730 3750 
z
" transform="scale(0.015625)"/>
       </defs>
       <use xlink:href="#CMR17-35" transform="scale(0.996264)"/>
      </g>
     </g>
    </g>
    <g id="ytick_7">
     <g id="line2d_27">
      <path d="M 86.4 95.435478 
L 547.2 95.435478 
" clip-path="url(#p24c5ff2187)" style="fill: none; stroke: #b0b0b0; stroke-width: 0.8; stroke-linecap: square"/>
     </g>
     <g id="line2d_28">
      <g>
       <use xlink:href="#m108726a537" x="86.4" y="95.435478" style="stroke: #000000; stroke-width: 0.8"/>
      </g>
     </g>
     <g id="text_15">
      <!-- $\mathdefault{6}$ -->
      <g transform="translate(70.261905 102.353977)scale(0.2 -0.2)">
       <use xlink:href="#CMR17-36" transform="scale(0.996264)"/>
      </g>
     </g>
    </g>
    <g id="ytick_8">
     <g id="line2d_29">
      <path d="M 86.4 52.30411 
L 547.2 52.30411 
" clip-path="url(#p24c5ff2187)" style="fill: none; stroke: #b0b0b0; stroke-width: 0.8; stroke-linecap: square"/>
     </g>
     <g id="line2d_30">
      <g>
       <use xlink:href="#m108726a537" x="86.4" y="52.30411" style="stroke: #000000; stroke-width: 0.8"/>
      </g>
     </g>
     <g id="text_16">
      <!-- $\mathdefault{7}$ -->
      <g transform="translate(70.261905 59.222608)scale(0.2 -0.2)">
       <defs>
        <path id="CMR17-37" d="M 2886 3955 
L 2886 4096 
L 1382 4096 
C 634 4096 621 4166 595 4288 
L 480 4288 
L 294 3104 
L 410 3104 
C 429 3226 474 3552 550 3673 
C 589 3724 1062 3724 1171 3724 
L 2579 3724 
L 1869 2670 
C 1395 1961 1069 1003 1069 166 
C 1069 89 1069 -128 1299 -128 
C 1530 -128 1530 89 1530 172 
L 1530 466 
C 1530 1514 1709 2204 2003 2644 
L 2886 3955 
z
" transform="scale(0.015625)"/>
       </defs>
       <use xlink:href="#CMR17-37" transform="scale(0.996264)"/>
      </g>
     </g>
    </g>
    <g id="text_17">
     <!-- $\mathrm{Rate}\ [\si{PE^{-1}kg^{-1}y^{-1}}]$ -->
     <g transform="translate(61.297261 284.851677)rotate(-90)scale(0.2 -0.2)">
      <defs>
       <path id="CMR17-52" d="M 2509 2156 
C 3117 2278 3629 2689 3629 3203 
C 3629 3806 2950 4352 2054 4352 
L 333 4352 
L 333 4185 
C 774 4185 845 4185 845 3896 
L 845 428 
C 845 140 774 140 333 140 
L 333 -26 
C 518 -13 851 -13 1050 -13 
C 1248 -13 1581 -13 1766 -26 
L 1766 140 
C 1325 140 1254 140 1254 428 
L 1254 2112 
L 2003 2112 
C 2368 2112 2573 1964 2662 1881 
C 2918 1632 2918 1459 2918 1024 
C 2918 595 2918 377 3110 160 
C 3354 -103 3680 -128 3821 -128 
C 4294 -128 4365 403 4365 512 
C 4365 550 4365 595 4307 595 
C 4256 595 4250 556 4250 531 
C 4218 115 4032 -26 3834 -26 
C 3482 -26 3443 377 3405 768 
C 3386 902 3373 998 3360 1139 
C 3322 1459 3270 1926 2509 2156 
z
M 1984 2214 
L 1254 2214 
L 1254 3935 
C 1254 4153 1267 4185 1523 4185 
L 1990 4185 
C 2522 4185 3142 3999 3142 3203 
C 3142 2374 2464 2214 1984 2214 
z
" transform="scale(0.015625)"/>
       <path id="CMR17-61" d="M 2304 1656 
C 2304 2048 2304 2275 2035 2534 
C 1798 2751 1523 2816 1306 2816 
C 800 2816 435 2408 435 1977 
C 435 1740 627 1728 666 1728 
C 749 1728 896 1779 896 1958 
C 896 2118 774 2188 666 2188 
C 640 2188 608 2182 589 2176 
C 723 2594 1069 2713 1293 2713 
C 1613 2713 1965 2421 1965 1875 
L 1965 1632 
C 1587 1619 1133 1568 774 1373 
C 371 1147 256 822 256 576 
C 256 77 832 -64 1171 -64 
C 1523 -64 1850 135 1990 505 
C 2003 219 2182 -39 2464 -39 
C 2598 -39 2938 51 2938 563 
L 2938 926 
L 2822 926 
L 2822 557 
C 2822 161 2650 109 2566 109 
C 2304 109 2304 446 2304 732 
L 2304 1656 
z
M 1965 887 
C 1965 323 1568 38 1216 38 
C 896 38 646 278 646 576 
C 646 771 730 1114 1101 1322 
C 1408 1497 1760 1523 1965 1536 
L 1965 887 
z
" transform="scale(0.015625)"/>
       <path id="CMR17-74" d="M 966 2585 
L 1862 2585 
L 1862 2752 
L 966 2752 
L 966 3968 
L 851 3968 
C 838 3292 614 2700 70 2687 
L 70 2585 
L 627 2585 
L 627 778 
C 627 655 627 -64 1370 -64 
C 1747 -64 1965 308 1965 784 
L 1965 1151 
L 1850 1151 
L 1850 790 
C 1850 347 1677 51 1408 51 
C 1222 51 966 179 966 765 
L 966 2585 
z
" transform="scale(0.015625)"/>
       <path id="CMR17-65" d="M 2438 1503 
C 2464 1529 2464 1542 2464 1606 
C 2464 2251 2118 2816 1389 2816 
C 710 2816 173 2175 173 1394 
C 173 554 781 -64 1459 -64 
C 2176 -64 2458 619 2458 755 
C 2458 800 2419 800 2406 800 
C 2362 800 2355 787 2330 709 
C 2189 270 1837 51 1504 51 
C 1229 51 954 206 781 490 
C 582 819 582 1200 582 1503 
L 2438 1503 
z
M 589 1600 
C 634 2511 1126 2713 1382 2713 
C 1818 2713 2112 2308 2118 1600 
L 589 1600 
z
" transform="scale(0.015625)"/>
       <path id="CMSY10-0" d="M 4218 1472 
C 4326 1472 4442 1472 4442 1600 
C 4442 1728 4326 1728 4218 1728 
L 755 1728 
C 646 1728 531 1728 531 1600 
C 531 1472 646 1472 755 1472 
L 4218 1472 
z
" transform="scale(0.015625)"/>
       <path id="CMSS17-31" d="M 1818 4288 
L 1696 4288 
C 1350 3949 947 3902 538 3891 
L 538 3520 
C 723 3526 1024 3539 1325 3673 
L 1325 371 
L 570 371 
L 570 0 
L 2573 0 
L 2573 371 
L 1818 371 
L 1818 4288 
z
" transform="scale(0.015625)"/>
       <path id="CMSS17-6b" d="M 1696 1686 
L 2688 2735 
L 2074 2735 
L 954 1552 
L 954 4416 
L 480 4416 
L 480 0 
L 947 0 
L 947 891 
L 1376 1342 
L 2278 0 
L 2822 0 
L 1696 1686 
z
" transform="scale(0.015625)"/>
       <path id="CMSS17-67" d="M 2848 2816 
C 2483 2809 2170 2739 1914 2617 
C 1702 2783 1485 2816 1338 2816 
C 781 2816 358 2356 358 1824 
C 358 1481 550 1222 563 1209 
C 448 1049 384 876 384 684 
C 384 460 474 300 544 211 
C 211 6 166 -308 166 -429 
C 166 -896 749 -1280 1498 -1280 
C 2253 -1280 2835 -896 2835 -423 
C 2835 460 1856 467 1587 467 
L 1069 467 
C 973 467 717 467 717 793 
C 717 921 774 1004 781 1011 
C 877 940 1075 832 1338 832 
C 1869 832 2310 1279 2310 1824 
C 2310 2128 2170 2349 2112 2425 
L 2131 2425 
C 2150 2425 2419 2444 2515 2444 
C 2720 2444 2739 2438 2918 2419 
L 2848 2816 
z
M 1338 1184 
C 1120 1184 813 1317 813 1824 
C 813 2375 1165 2463 1331 2463 
C 1549 2463 1856 2330 1856 1824 
C 1856 1272 1504 1184 1338 1184 
z
M 1581 0 
C 1734 0 2381 0 2381 -436 
C 2381 -711 1984 -928 1504 -928 
C 1018 -928 621 -717 621 -429 
C 621 -397 621 0 1062 0 
L 1581 0 
z
" transform="scale(0.015625)"/>
       <path id="CMSS17-79" d="M 2675 2752 
L 2176 2752 
C 1632 1293 1446 701 1434 383 
L 1427 383 
C 1408 695 1126 1459 902 2006 
L 602 2752 
L 83 2752 
L 1216 14 
C 1146 -177 1043 -464 1011 -527 
C 870 -884 774 -884 672 -884 
C 646 -884 442 -877 211 -807 
L 250 -1229 
C 410 -1261 570 -1280 685 -1280 
C 845 -1280 1165 -1280 1459 -495 
L 2675 2752 
z
" transform="scale(0.015625)"/>
      </defs>
      <use xlink:href="#CMR17-52" transform="scale(0.996264)"/>
      <use xlink:href="#CMR17-61" transform="translate(67.791102 0)scale(0.996264)"/>
      <use xlink:href="#CMR17-74" transform="translate(113.481579 0)scale(0.996264)"/>
      <use xlink:href="#CMR17-65" transform="translate(148.762347 0)scale(0.996264)"/>
      <use xlink:href="#CMR17-5b" transform="translate(220.47712 0)scale(0.996264)"/>
      <use xlink:href="#CMSS17-50" transform="translate(245.348179 0)scale(0.996264)"/>
      <use xlink:href="#CMSS17-45" transform="translate(305.083765 0)scale(0.996264)"/>
      <use xlink:href="#CMSY10-0" transform="translate(360.975778 36.153639)scale(0.697382)"/>
      <use xlink:href="#CMSS17-31" transform="translate(415.216771 36.153639)scale(0.697382)"/>
      <use xlink:href="#CMSS17-6b" transform="translate(448.505285 0)scale(0.996264)"/>
      <use xlink:href="#CMSS17-67" transform="translate(494.107774 0)scale(0.996264)"/>
      <use xlink:href="#CMSY10-0" transform="translate(542.252564 36.153639)scale(0.697382)"/>
      <use xlink:href="#CMSS17-31" transform="translate(596.493557 36.153639)scale(0.697382)"/>
      <use xlink:href="#CMSS17-79" transform="translate(629.78207 0)scale(0.996264)"/>
      <use xlink:href="#CMSY10-0" transform="translate(674.083378 36.153639)scale(0.697382)"/>
      <use xlink:href="#CMSS17-31" transform="translate(728.324371 36.153639)scale(0.697382)"/>
      <use xlink:href="#CMR17-5d" transform="translate(761.612885 0)scale(0.996264)"/>
     </g>
    </g>
   </g>
   <g id="line2d_31">
    <path d="M 87.552 111.170568 
L 92.16 122.361855 
L 96.768 132.814737 
L 101.376 142.600899 
L 105.984 151.799374 
L 110.592 160.489218 
L 115.2 168.743675 
L 119.808 176.626082 
L 124.416 184.187538 
L 131.328 195.007959 
L 138.24 205.267529 
L 145.152 214.996182 
L 152.064 224.193606 
L 156.672 230.02399 
L 161.28 235.60916 
L 165.888 240.947466 
L 170.496 246.039941 
L 175.104 250.890608 
L 179.712 255.506391 
L 184.32 259.896712 
L 188.928 264.072893 
L 195.84 269.963199 
L 202.752 275.443686 
L 209.664 280.5561 
L 216.576 285.337105 
L 223.488 289.816815 
L 230.4 294.018796 
L 237.312 297.961134 
L 244.224 301.65802 
L 251.136 305.12141 
L 258.048 308.362412 
L 264.96 311.392199 
L 271.872 314.222452 
L 278.784 316.865362 
L 288 320.119312 
L 297.216 323.091208 
L 306.432 325.807924 
L 315.648 328.293329 
L 324.864 330.568066 
L 334.08 332.649924 
L 345.6 335.004635 
L 357.12 337.109566 
L 368.64 338.989714 
L 380.16 340.66829 
L 393.984 342.446457 
L 407.808 343.998027 
L 423.936 345.55972 
L 440.064 346.890442 
L 458.496 348.170467 
L 476.928 349.233715 
L 497.664 350.21495 
L 520.704 351.087392 
L 546.048 351.835892 
L 546.048 351.835892 
" clip-path="url(#p24c5ff2187)" style="fill: none; stroke: #1f77b4; stroke-width: 2; stroke-linecap: square"/>
   </g>
   <g id="patch_3">
    <path d="M 86.4 367.2 
L 86.4 43.2 
" style="fill: none; stroke: #000000; stroke-width: 0.8; stroke-linejoin: miter; stroke-linecap: square"/>
   </g>
   <g id="patch_4">
    <path d="M 547.2 367.2 
L 547.2 43.2 
" style="fill: none; stroke: #000000; stroke-width: 0.8; stroke-linejoin: miter; stroke-linecap: square"/>
   </g>
   <g id="patch_5">
    <path d="M 86.4 367.2 
L 547.2 367.2 
" style="fill: none; stroke: #000000; stroke-width: 0.8; stroke-linejoin: miter; stroke-linecap: square"/>
   </g>
   <g id="patch_6">
    <path d="M 86.4 43.2 
L 547.2 43.2 
" style="fill: none; stroke: #000000; stroke-width: 0.8; stroke-linejoin: miter; stroke-linecap: square"/>
   </g>
   <g id="legend_1">
    <g id="patch_7">
     <path d="M 456.161254 101.447134 
L 536.7 101.447134 
Q 539.7 101.447134 539.7 98.447134 
L 539.7 53.7 
Q 539.7 50.7 536.7 50.7 
L 456.161254 50.7 
Q 453.161254 50.7 453.161254 53.7 
L 453.161254 98.447134 
Q 453.161254 101.447134 456.161254 101.447134 
z
" style="fill: #ffffff; opacity: 0.8; stroke: #cccccc; stroke-linejoin: miter"/>
    </g>
    <g id="line2d_32">
     <path d="M 459.161254 62.65797 
L 474.161254 62.65797 
L 489.161254 62.65797 
" style="fill: none; stroke: #1f77b4; stroke-width: 2; stroke-linecap: square"/>
    </g>
    <g id="text_18">
     <!-- $\langle Q_y\rangle$ -->
     <g transform="translate(501.161254 67.90797)scale(0.15 -0.15)">
      <defs>
       <path id="CMSY10-68" d="M 2099 4557 
C 2131 4627 2131 4640 2131 4672 
C 2131 4742 2074 4800 2003 4800 
C 1946 4800 1901 4768 1856 4653 
L 736 1715 
C 723 1677 704 1638 704 1600 
C 704 1580 704 1568 736 1491 
L 1856 -1447 
C 1882 -1517 1914 -1600 2003 -1600 
C 2074 -1600 2131 -1543 2131 -1472 
C 2131 -1453 2131 -1440 2099 -1370 
L 966 1600 
L 2099 4557 
z
" transform="scale(0.015625)"/>
       <path id="CMMI12-51" d="M 2726 45 
C 3827 493 4646 1654 4646 2798 
C 4646 3840 3955 4480 3059 4480 
C 1690 4480 307 3025 307 1566 
C 307 565 973 -128 1901 -128 
C 2118 -128 2330 -96 2534 -32 
C 2496 -406 2496 -437 2496 -554 
C 2496 -736 2496 -1216 3008 -1216 
C 3770 -1216 4051 -39 4051 0 
C 4051 38 4026 64 3994 64 
C 3955 64 3942 32 3923 -39 
C 3782 -431 3450 -653 3168 -653 
C 2842 -653 2758 -437 2726 45 
z
M 1574 77 
C 1069 253 826 792 826 1376 
C 826 1819 992 2659 1414 3297 
C 1888 4017 2522 4339 3021 4339 
C 3686 4339 4134 3808 4134 2987 
C 4134 2520 3910 953 2707 240 
C 2675 571 2586 960 2163 960 
C 1818 960 1523 610 1523 292 
C 1523 220 1549 123 1574 77 
z
M 2547 155 
C 2317 51 2118 12 1939 12 
C 1875 12 1651 12 1651 298 
C 1651 532 1875 831 2163 831 
C 2483 831 2554 610 2554 285 
C 2554 246 2554 194 2547 155 
z
" transform="scale(0.015625)"/>
       <path id="CMMI12-79" d="M 1683 -673 
C 1510 -921 1261 -1152 947 -1152 
C 870 -1152 563 -1139 467 -826 
C 486 -833 518 -833 531 -833 
C 723 -833 851 -666 851 -519 
C 851 -372 730 -320 634 -320 
C 531 -320 307 -397 307 -711 
C 307 -1050 582 -1280 947 -1280 
C 1587 -1280 2234 -673 2413 -7 
L 3040 2483 
C 3046 2515 3059 2553 3059 2591 
C 3059 2687 2982 2752 2886 2752 
C 2829 2752 2694 2726 2643 2534 
L 2170 657 
C 2138 542 2138 530 2086 459 
C 1958 281 1747 64 1440 64 
C 1082 64 1050 415 1050 587 
C 1050 951 1222 1443 1395 1902 
C 1466 2087 1504 2177 1504 2305 
C 1504 2573 1312 2816 998 2816 
C 410 2816 173 1890 173 1838 
C 173 1813 198 1781 243 1781 
C 301 1781 307 1807 333 1896 
C 486 2432 730 2687 979 2687 
C 1037 2687 1146 2687 1146 2477 
C 1146 2311 1075 2126 979 1883 
C 666 1047 666 836 666 683 
C 666 76 1101 -64 1421 -64 
C 1606 -64 1837 -7 2061 230 
L 2067 223 
C 1971 -141 1907 -359 1683 -673 
z
" transform="scale(0.015625)"/>
       <path id="CMSY10-69" d="M 1747 1491 
C 1779 1568 1779 1580 1779 1600 
C 1779 1619 1779 1632 1747 1709 
L 627 4653 
C 589 4761 550 4800 480 4800 
C 410 4800 352 4742 352 4672 
C 352 4653 352 4640 384 4569 
L 1517 1600 
L 384 -1357 
C 352 -1428 352 -1440 352 -1472 
C 352 -1543 410 -1600 480 -1600 
C 563 -1600 589 -1536 614 -1472 
L 1747 1491 
z
" transform="scale(0.015625)"/>
      </defs>
      <use xlink:href="#CMSY10-68" transform="scale(0.996264)"/>
      <use xlink:href="#CMMI12-51" transform="translate(38.743734 0)scale(0.996264)"/>
      <use xlink:href="#CMMI12-79" transform="translate(116.004132 -14.943915)scale(0.697382)"/>
      <use xlink:href="#CMSY10-69" transform="translate(152.299239 0)scale(0.996264)"/>
     </g>
    </g>
    <g id="patch_8">
     <path d="M 459.161254 90.183578 
L 489.161254 90.183578 
L 489.161254 79.683578 
L 459.161254 79.683578 
z
" style="fill: #1f77b4; fill-opacity: 0.5"/>
    </g>
    <g id="text_19">
     <!-- $\pm\sigma_{Q_y}$ -->
     <g transform="translate(501.161254 90.183578)scale(0.15 -0.15)">
      <defs>
       <path id="CMSY10-6" d="M 2618 1984 
L 4397 1984 
C 4506 1984 4621 1984 4621 2112 
C 4621 2240 4506 2240 4397 2240 
L 2618 2240 
L 2618 4048 
C 2618 4153 2618 4288 2490 4288 
C 2362 4288 2362 4172 2362 4068 
L 2362 2240 
L 576 2240 
C 467 2240 352 2240 352 2112 
C 352 1984 467 1984 576 1984 
L 2362 1984 
L 2362 256 
L 576 256 
C 467 256 352 256 352 128 
C 352 0 467 0 576 0 
L 4397 0 
C 4506 0 4621 0 4621 128 
C 4621 256 4506 256 4397 256 
L 2618 256 
L 2618 1984 
z
" transform="scale(0.015625)"/>
       <path id="CMMI12-1b" d="M 3251 2406 
C 3334 2406 3546 2406 3546 2611 
C 3546 2752 3424 2752 3309 2752 
L 1894 2752 
C 934 2752 243 1685 243 932 
C 243 389 595 -64 1171 -64 
C 1926 -64 2752 746 2752 1704 
C 2752 1953 2694 2195 2541 2406 
L 3251 2406 
z
M 1178 64 
C 851 64 614 312 614 753 
C 614 1136 845 2406 1786 2406 
C 2061 2406 2368 2272 2368 1780 
C 2368 1557 2266 1021 2042 651 
C 1811 274 1466 64 1178 64 
z
" transform="scale(0.015625)"/>
      </defs>
      <use xlink:href="#CMSY10-6" transform="scale(0.996264)"/>
      <use xlink:href="#CMMI12-1b" transform="translate(77.487468 0)scale(0.996264)"/>
      <use xlink:href="#CMMI12-51" transform="translate(132.932929 -14.943915)scale(0.697382)"/>
      <use xlink:href="#CMMI12-79" transform="translate(187.014957 -25.404611)scale(0.498132)"/>
     </g>
    </g>
   </g>
  </g>
 </g>
 <defs>
  <clipPath id="p24c5ff2187">
   <rect x="86.4" y="43.2" width="460.8" height="324"/>
  </clipPath>
 </defs>
</svg>
